<?xml version="1.0" encoding="utf-8"?>
<!-- Generator: Adobe Illustrator 22.0.1, SVG Export Plug-In . SVG Version: 6.00 Build 0)  -->
<svg version="1.1" id="Layer_1" xmlns="http://www.w3.org/2000/svg" xmlns:xlink="http://www.w3.org/1999/xlink" x="0px" y="0px"
	 viewBox="-393.7 195.1 256 256" style="enable-background:new -393.7 195.1 256 256;" xml:space="preserve">
<g>
	<path d="M-180.3,333.8c-4.3,0-15.8,1.3-30.9,3.8c-9.9-7.8-19.3-15.8-25.5-22c-8.1-8.1-15.4-16-21.7-23.5
		c9.8-30.3,14.1-46,14.1-54.3c0-35.4-12.8-42.7-32-42.7c-14.6,0-32,7.6-32,43.7c0,15.9,8.7,35.2,26,57.7
		c-4.2,12.9-9.2,27.8-14.8,44.6c-2.7,8.1-5.6,15.5-8.7,22.4c-2.5,1.1-4.9,2.3-7.3,3.4c-8.5,4.2-16.5,8.1-24,11.6
		c-34.1,16.1-56.6,26.8-56.6,47.9c0,15.3,16.6,24.8,32,24.8c19.8,0,49.8-26.5,71.7-71.1c22.7-9,50.9-15.6,73.2-19.8
		c17.9,13.7,37.6,26.9,47.1,26.9c26.4,0,32-15.3,32-28.1C-137.7,333.8-166.5,333.8-180.3,333.8z M-361.7,429.8
		c-6.1,0-10.2-2.9-10.7-3.4c0-7.6,22.6-18.3,44.4-28.6c1.4-0.7,2.8-1.3,4.2-2C-339.8,419-355.6,429.8-361.7,429.8z M-287,238.8
		c0-22.4,6.9-22.4,10.7-22.4c7.5,0,10.7,0,10.7,21.3c0,4.5-3,15.8-8.5,33.3C-282.5,258.2-287,247.1-287,238.8z M-278.8,353.4
		c0.7-1.9,1.3-3.7,1.9-5.6c4-11.9,7.5-22.5,10.7-32.1c4.4,4.9,9.2,9.9,14.3,15c2,2,7,6.5,13.6,12.1
		C-251.5,345.7-265.4,349.2-278.8,353.4z M-168.9,365.8c-2.9-0.6-9.6-4.6-17.9-10.2c3-0.3,5.2-0.5,6.5-0.5c15.8,0,20.2,1.5,21.3,3.9
		C-159,363.8-159,365.8-168.9,365.8z"/>
</g>
</svg>
