<?xml version="1.0" encoding="utf-8"?>
<!-- Generator: Adobe Illustrator 22.0.1, SVG Export Plug-In . SVG Version: 6.00 Build 0)  -->
<svg fill="#a2a2a2" version="1.1" id="Layer_1" xmlns="http://www.w3.org/2000/svg" xmlns:xlink="http://www.w3.org/1999/xlink" x="0px" y="0px"
	 viewBox="516 181.3 512 455.4" style="enable-background:new 516 181.3 512 455.4;" xml:space="preserve">
<g>
	<path d="M687.6,241.1c5.5,0,10-4.5,10-10v-15.7c0-7.8,6.3-14.1,14.1-14.1h121.8c7.8,0,14.1,6.3,14.1,14.1v15.7c0,5.5,4.5,10,10,10
		s10-4.5,10-10v-15.7c0-18.8-15.3-34.1-34.1-34.1H711.7c-18.8,0-34.1,15.3-34.1,34.1v15.7C677.6,236.6,682.1,241.1,687.6,241.1z"/>
	<path d="M979.2,256.1H564.8c-26.9,0-48.8,21.9-48.8,48.8v88.8c0,4.4,2.9,8.3,7.2,9.6l6.1,1.8v209.5c0,12.2,9.9,22.1,22.1,22.1
		h441.4c12.2,0,22.1-9.9,22.1-22.1v-208l6-1.7c4.3-1.2,7.2-5.2,7.2-9.6v-90.3C1028,278,1006.1,256.1,979.2,256.1z M605.2,616.7
		h-53.9c-1.1,0-2.1-0.9-2.1-2.1v-53.9H578c15,0,27.2,12.2,27.2,27.2V616.7z M994.7,614.6c0,1.1-0.9,2.1-2.1,2.1h-53.9v-28.8
		c0-15,12.2-27.2,27.2-27.2h28.8V614.6z M994.7,540.7L994.7,540.7H966c-26,0-47.2,21.2-47.2,47.2v28.8H625.2v-28.8
		c0-26-21.2-47.2-47.2-47.2h-28.8V411l176.6,52.1v32.1c0,5.5,4.5,10,10,10h72.4c5.5,0,10-4.5,10-10v-31.9l176.6-51V540.7z
		 M745.8,485.2v-29.7c0,0,0-0.1,0-0.1v-18.9h52.4v48.7H745.8z M1008,387.7l-189.8,54.8v-16c0-5.5-4.5-10-10-10h-72.4
		c-5.5,0-10,4.5-10,10v15.8l-189.8-56v-81.3c0-15.9,12.9-28.8,28.8-28.8h40.4h20h289.9h20h44c15.9,0,28.8,12.9,28.8,28.8V387.7z"/>
</g>
</svg>
