<?xml version="1.0" encoding="utf-8"?>
<!-- Generator: Adobe Illustrator 22.0.1, SVG Export Plug-In . SVG Version: 6.00 Build 0)  -->
<svg version="1.1" id="Layer_1" xmlns="http://www.w3.org/2000/svg" xmlns:xlink="http://www.w3.org/1999/xlink" x="0px" y="0px"
	 viewBox="0 0 23.3 23.8" style="enable-background:new 0 0 23.3 23.8;" xml:space="preserve">
<path d="M20.2,2h-2.7V1c0-0.6-0.4-1-1-1s-1,0.4-1,1v1h-8V1c0-0.6-0.4-1-1-1s-1,0.4-1,1v1H3.1C1.4,2,0,3.4,0,5.1v15.7
	c0,1.7,1.4,3.1,3.1,3.1h17.1c1.7,0,3.1-1.4,3.1-3.1V5.1C23.3,3.4,21.9,2,20.2,2z M3.1,4h2.4v1.1c0,0.6,0.4,1,1,1s1-0.4,1-1V4h8v1.1
	c0,0.6,0.4,1,1,1s1-0.4,1-1V4h2.7c0.6,0,1.1,0.5,1.1,1.1v2.4H2V5.1C2,4.5,2.5,4,3.1,4z M20.2,21.8H3.1c-0.6,0-1.1-0.5-1.1-1.1V9.5
	h19.3v11.2C21.3,21.3,20.8,21.8,20.2,21.8z"/>
</svg>
