<?xml version="1.0" encoding="utf-8"?>
<!-- Generator: Adobe Illustrator 22.0.1, SVG Export Plug-In . SVG Version: 6.00 Build 0)  -->
<svg fill="#a2a2a2" version="1.1" id="Layer_1" xmlns="http://www.w3.org/2000/svg" xmlns:xlink="http://www.w3.org/1999/xlink" x="0px" y="0px"
	 viewBox="-883 164.2 512 382.8" style="enable-background:new -883 164.2 512 382.8;" xml:space="preserve">
<style type="text/css">
	.st0{fill:none;}
</style>
<g>
	<path class="st0" d="M-610.4,511.2h-33.5c-16.9,0-31.1-11.4-35.5-26.9H-863v5.7c0,20.4,16.6,37,37,37h398c20.4,0,37-16.6,37-37
		v-5.7h-183.9C-579.3,499.9-593.5,511.2-610.4,511.2z"/>
	<g>
		<path class="st0" d="M-610.4,511.2h-33.5c-16.9,0-31.1-11.4-35.5-26.9H-863v5.7c0,20.4,16.6,37,37,37h398c20.4,0,37-16.6,37-37
			v-5.7h-183.9C-579.3,499.9-593.5,511.2-610.4,511.2z"/>
		<g>
			<path class="st0" d="M-610.4,511.2h-33.5c-16.9,0-31.1-11.4-35.5-26.9H-863v5.7c0,20.4,16.6,37,37,37h398c20.4,0,37-16.6,37-37
				v-5.7h-183.9C-579.3,499.9-593.5,511.2-610.4,511.2z"/>
			<g>
				<path class="st0" d="M-610.4,511.2h-33.5c-16.9,0-31.1-11.4-35.5-26.9H-863v5.7c0,20.4,16.6,37,37,37h398c20.4,0,37-16.6,37-37
					v-5.7h-183.9C-579.3,499.9-593.5,511.2-610.4,511.2z"/>
				<path class="st0" d="M-660.7,474.4c0,9.3,7.6,16.9,16.9,16.9h33.5c9.3,0,16.9-7.6,16.9-16.9c0-5.5,4.5-10,10-10h157.3h0.3v-259
					c0-11.6-9.5-21.1-21.1-21.1h-360.2c-11.6,0-21.1,9.5-21.1,21.1v259h157.4C-665.2,464.4-660.7,468.8-660.7,474.4z"/>
				<path d="M-381,464.4h-24.3h-0.5v-259c0-22.6-18.4-41.1-41.1-41.1h-360.2c-22.7,0-41.1,18.4-41.1,41.1v259H-873
					c-5.5,0-10,4.5-10,10v15.7c0,31.4,25.6,57,57,57h398c31.4,0,57-25.6,57-57v-15.7C-371,468.8-375.5,464.4-381,464.4z
					 M-828.2,205.3c0-11.6,9.5-21.1,21.1-21.1h360.2c11.6,0,21.1,9.5,21.1,21.1v259h-0.3h-157.3c-5.5,0-10,4.5-10,10
					c0,9.3-7.6,16.9-16.9,16.9h-33.5c-9.3,0-16.9-7.6-16.9-16.9c0-5.5-4.5-10-10-10h-157.4V205.3z M-391,490.1c0,20.4-16.6,37-37,37
					h-398c-20.4,0-37-16.6-37-37v-5.7h183.6c4.4,15.5,18.6,26.9,35.5,26.9h33.5c16.9,0,31.1-11.4,35.5-26.9H-391V490.1z"/>
			</g>
		</g>
	</g>
	<polygon class="st0" points="-783.8,422.3 -747.5,422.3 -727.5,422.3 -691.3,422.3 -671.3,422.3 -635.1,422.3 -615.1,422.3 
		-578.9,422.3 -558.9,422.3 -522.7,422.3 -502.7,422.3 -466.8,422.3 -466.8,226.9 -783.8,226.9 	"/>
	<path d="M-456.8,206.9h-337c-5.5,0-10,4.5-10,10v215.4c0,5.5,4.5,10,10,10h337c5.5,0,10-4.5,10-10V216.9
		C-446.8,211.4-451.3,206.9-456.8,206.9z M-466.8,422.3h-35.8h-20h-36.2h-20h-36.2h-20h-36.2h-20h-36.2h-20h-36.3V226.9h317V422.3z"
		/>
</g>
<g>
	<path d="M-655.3,367.7c-2.4,0-4.9-0.7-7-1.9c-4.4-2.5-7-7.1-7-12.2v-65.2c0-5.1,2.6-9.6,7-12.2c4.4-2.5,9.7-2.5,14.1,0l56.4,32.6
		c4.4,2.5,7,7.1,7,12.2c0,5.1-2.6,9.6-7,12.2l-56.4,32.6C-650.5,367.1-652.9,367.7-655.3,367.7z M-657.4,350.1
		C-657.4,350.1-657.4,350.1-657.4,350.1L-657.4,350.1z M-651.3,295.5v51.1l44.2-25.5L-651.3,295.5z"/>
</g>
</svg>
