<?xml version="1.0" encoding="utf-8"?>
<!-- Generator: Adobe Illustrator 22.0.1, SVG Export Plug-In . SVG Version: 6.00 Build 0)  -->
<svg fill="#a2a2a2" version="1.1" id="Layer_1" xmlns="http://www.w3.org/2000/svg" xmlns:xlink="http://www.w3.org/1999/xlink" x="0px" y="0px"
	 viewBox="0 0 105 211.2" style="enable-background:new 0 0 105 211.2;" xml:space="preserve">
<g>
	<path d="M26,211.2h41.2c3.5,0,6.4-2.9,6.4-6.4v-92.7H95c3.3,0,6-2.5,6.4-5.7l3.6-35c0.2-1.8-0.4-3.6-1.6-4.9
		c-1.2-1.3-2.9-2.1-4.8-2.1h-25V50.1c0-2.9,0.9-3.1,2.3-3.1h22.1c3.5,0,6.4-2.9,6.4-6.4v-34c0-3.5-2.8-6.4-6.4-6.4L67.6,0
		C46.2,0,34.7,9.4,28.9,17.3c-8.1,11-9.3,24-9.3,30.7v16.3H6.4c-3.5,0-6.4,2.9-6.4,6.4v35c0,3.5,2.9,6.4,6.4,6.4h13.2v92.7
		C19.6,208.3,22.5,211.2,26,211.2L26,211.2z M12.8,99.3V77.1H26c3.5,0,6.4-2.9,6.4-6.4V48c0-4.1,0.7-14.7,6.8-23.1
		c5.9-8,15.4-12.1,28.3-12.1l24.1,0.1v21.2H75.9c-7.5,0-15.1,4.9-15.1,15.9v20.6c0,3.5,2.9,6.4,6.4,6.4h24.3l-2.3,22.2h-22
		c-3.5,0-6.4,2.9-6.4,6.4v92.7H32.4v-92.7c0-3.5-2.9-6.4-6.4-6.4H12.8z M12.8,99.3"/>
</g>
</svg>
