<?xml version="1.0" encoding="utf-8"?>
<!-- Generator: Adobe Illustrator 22.0.1, SVG Export Plug-In . SVG Version: 6.00 Build 0)  -->
<svg fill="#a2a2a2" version="1.1" id="Layer_1" xmlns="http://www.w3.org/2000/svg" xmlns:xlink="http://www.w3.org/1999/xlink" x="0px" y="0px"
	 viewBox="0 0 116.8 91.8" style="enable-background:new 0 0 116.8 91.8;" xml:space="preserve">
<g>
	<path d="M113.7,3.1c-2-2-4.5-3.1-7.4-3.1H10.4C7.6,0,5.1,1,3.1,3.1C1,5.1,0,7.6,0,10.4v70.9c0,2.9,1,5.3,3.1,7.4
		c2,2,4.5,3.1,7.4,3.1h95.9c2.9,0,5.3-1,7.4-3.1c2-2,3.1-4.5,3.1-7.4V10.4C116.8,7.6,115.8,5.1,113.7,3.1L113.7,3.1z M108.5,81.3
		c0,0.6-0.2,1.1-0.6,1.5c-0.4,0.4-0.9,0.6-1.5,0.6H10.4c-0.6,0-1.1-0.2-1.5-0.6s-0.6-0.9-0.6-1.5V31.3c1.4,1.6,2.9,3,4.5,4.3
		c11.6,9,20.9,16.3,27.8,22c2.2,1.9,4,3.3,5.4,4.4c1.4,1,3.3,2.1,5.6,3.2c2.4,1.1,4.6,1.6,6.7,1.6h0.1c2.1,0,4.3-0.5,6.7-1.6
		c2.4-1.1,4.3-2.1,5.6-3.2c1.4-1,3.2-2.5,5.4-4.4c6.9-5.7,16.1-13.1,27.8-22c1.6-1.3,3.1-2.7,4.5-4.3V81.3z M108.5,12.1v0.7
		c0,2.6-1,5.4-3,8.6c-2,3.2-4.2,5.7-6.6,7.5c-8.4,6.6-17.1,13.5-26.1,20.7c-0.3,0.2-1,0.9-2.3,1.9c-1.3,1.1-2.3,1.9-3,2.4
		c-0.7,0.6-1.7,1.3-2.9,2.1c-1.2,0.8-2.3,1.4-3.3,1.8c-1,0.4-1.9,0.6-2.8,0.6h-0.1c-0.9,0-1.8-0.2-2.8-0.6c-1-0.4-2.1-1-3.3-1.8
		c-1.2-0.8-2.2-1.5-2.9-2.1c-0.7-0.6-1.7-1.4-3-2.4c-1.3-1.1-2-1.7-2.3-1.9c-9-7.2-17.8-14.1-26.1-20.7c-6.4-5-9.6-11.2-9.6-18.5
		C8.3,9.9,8.6,9.4,9,9c0.4-0.4,0.9-0.6,1.5-0.6h95.9c0.3,0.2,0.7,0.3,0.9,0.2c0.3-0.1,0.5,0.1,0.6,0.5c0.1,0.4,0.2,0.6,0.4,0.6
		c0.1,0,0.2,0.2,0.2,0.8c0,0.6,0,0.8,0,0.8V12.1z M108.5,12.1"/>
</g>
</svg>
