<?xml version="1.0" encoding="utf-8"?>
<!-- Generator: Adobe Illustrator 22.0.1, SVG Export Plug-In . SVG Version: 6.00 Build 0)  -->
<svg fill="#a2a2a2" version="1.1" id="Layer_1" xmlns="http://www.w3.org/2000/svg" xmlns:xlink="http://www.w3.org/1999/xlink" x="0px" y="0px"
	 viewBox="-762 171.1 512 375.9" style="enable-background:new -762 171.1 512 375.9;" xml:space="preserve">
<path d="M-317,353.7c1.1,0.5,2.2,0.8,3.3,0.8c2.8,0,5.4-1.5,6.7-4.1c1.9-3.7,0.4-8.2-3.4-10.1c-17.4-8.7-50.1-8.8-51.5-8.8
	c-4.1,0-7.5,3.4-7.5,7.5s3.4,7.5,7.5,7.5C-353.3,346.5-328.8,347.8-317,353.7z"/>
<path d="M-272.9,447l-31-8.9c-1.3-0.4-2.3-1.6-2.3-3v-10.3c2.5-1.7,4.9-3.7,7.2-5.9c10.9-10.6,16.9-24.7,16.9-39.9v-14.3l3-6
	c3.3-6.6,5-13.9,5-21.3v-38.6c0-4.1-3.4-7.5-7.5-7.5h-72.2c-26.2,0-47.6,21.4-47.6,47.6v0.4c0,6.1,1.4,12.2,4.2,17.7l3.8,7.7V377
	c0,19.4,9.6,36.8,24.1,47.3l0,10.8c0,1.7,0,2.4-6.2,4.1l-15.1,4.3l-43.7-15.9c0.2-2.1-0.5-4.2-2-5.7l-14-14.7v-24.6
	c1.5-1.2,2.9-2.5,4.3-3.8c17.6-16.5,27.7-39.8,27.7-64v-19.7c5.3-11.6,8-23.8,8-36.5v-80.2c0-4.1-3.4-7.5-7.5-7.5H-530
	c-39.5,0-71.7,32.1-71.7,71.7v16c0,12.6,2.7,24.9,8,36.5v16.9c0,28,12.5,53.3,32.1,69.9v25.2l-14,14.7c-1.5,1.6-2.2,3.7-2,5.7
	l-46.1,16.8c-3.3,1.2-6.5,2.9-9.3,4.9l-7.2-3.6c21.6-9.4,28.4-22.6,28.7-23.3c1.1-2.1,1.1-4.6,0-6.7c-5.4-10.8-6.1-30.6-6.6-46.6
	c-0.2-5.3-0.3-10.3-0.7-14.8c-2.6-36-29.9-63.1-63.6-63.1c-33.7,0-61.1,27.1-63.6,63.1c-0.3,4.5-0.5,9.5-0.7,14.8
	c-0.5,15.9-1.2,35.7-6.6,46.6c-1.1,2.1-1.1,4.6,0,6.7c0.3,0.7,7.1,13.8,28.8,23.2l-20.1,10.1C-755.3,461.2-762,472-762,484v55.4
	c0,4.1,3.4,7.5,7.5,7.5s7.5-3.4,7.5-7.5V484c0-6.3,3.5-12,9.2-14.8l25.1-12.5l8.7,8.3c6.1,5.8,13.9,8.7,21.7,8.7
	c7.8,0,15.6-2.9,21.7-8.7l8.7-8.3l8.2,4.1c-3.8,6.2-6,13.4-6,20.9v57.7c0,4.1,3.4,7.5,7.5,7.5c4.1,0,7.5-3.4,7.5-7.5v-57.7
	c0-10.3,6.5-19.6,16.2-23.1l48.7-17.7l20.3,30.4c2.6,3.9,6.7,6.4,11.4,6.8c0.5,0.1,1,0.1,1.5,0.1c4.1,0,8-1.6,11-4.5l12.4-12.4v78.1
	c0,4.1,3.4,7.5,7.5,7.5s7.5-3.4,7.5-7.5v-78.1l12.4,12.4c2.9,2.9,6.9,4.5,11,4.5c0.5,0,1,0,1.5-0.1c4.6-0.5,8.8-3,11.4-6.8
	l20.3-30.4l48.7,17.7c9.7,3.5,16.2,12.8,16.2,23.1v57.7c0,4.1,3.4,7.5,7.5,7.5s7.5-3.4,7.5-7.5v-57.7c0-10.4-4.1-20.2-11.1-27.4
	l1.9-0.5c1.9-0.5,4.4-1.3,7-2.5l19.1,19.1v69.1c0,4.1,3.4,7.5,7.5,7.5s7.5-3.4,7.5-7.5v-69.1l19-19c1,0.5,2.1,0.9,3.2,1.3l31,8.9
	c7.1,2,12,8.6,12,15.9v62c0,4.1,3.4,7.5,7.5,7.5s7.5-3.4,7.5-7.5v-62C-250,463.4-259.4,450.9-272.9,447z M-650.8,433.8l0-8.9
	c8.7-6,15.7-14.5,19.8-24.4c0.9,6.5,2.2,12.6,4.3,17.9C-629.7,422-636.8,428.8-650.8,433.8z M-731,355.5c1-13.5,6.3-25.9,15.2-35
	c8.9-9.2,20.8-14.2,33.5-14.2s24.6,5,33.5,14.2c8.8,9.1,14.2,21.5,15.2,35c0.3,4.2,0.5,9,0.6,14.2c0,0.4,0,0.9,0,1.3
	c-8.2-12.6-20.8-21.8-37-27.1c-15-4.8-28-4.5-28.5-4.5c-2,0.1-3.8,0.9-5.2,2.3l-13.5,14c-2.9,3-2.8,7.7,0.2,10.6s7.7,2.8,10.6-0.2
	l11.3-11.7c9.7,0.5,40.9,4.1,53,30.8c-3.1,19.7-20,34.3-40.1,34.3c-22.4,0-40.6-18.2-40.6-40.6c0-4.1-3.4-7.5-7.5-7.5
	c-0.4,0-0.8,0-1.2,0.1c0-0.6,0-1.3,0.1-1.9C-731.4,364.6-731.3,359.7-731,355.5z M-738,418.3c2-5.4,3.4-11.5,4.3-18
	c4.1,9.9,11.1,18.4,19.8,24.4v9C-727.9,428.7-735,422-738,418.3z M-693.7,454.1l-7-6.6c1.2-2.2,1.8-4.7,1.8-7.3v-8
	c5.2,1.6,10.8,2.5,16.6,2.5c5.8,0,11.3-0.9,16.6-2.5l0,8c0,2.6,0.6,5.1,1.8,7.3l-7,6.6C-677.3,460.2-687.3,460.2-693.7,454.1z
	 M-578.6,312.1v-18.6c0-1.1-0.3-2.2-0.7-3.3c-4.8-10-7.3-20.6-7.3-31.5v-16c0-31.2,25.4-56.7,56.7-56.7h104.8v72.7
	c0,10.9-2.4,21.5-7.3,31.5c-0.5,1-0.7,2.1-0.7,3.3v21.4c0,20.3-8.2,39.2-23,53c-1.9,1.7-3.8,3.4-5.8,4.9c0,0-0.1,0.1-0.1,0.1
	c-13.9,10.5-30.9,15.7-48.7,14.5C-548.8,385-578.6,351.9-578.6,312.1z M-511.7,402.4c2,0.1,3.9,0.2,5.9,0.2
	c14.3,0,28.1-3.4,40.5-9.9v13.7l-40.6,27.8l-40.6-27.8v-14C-536,398-524.2,401.6-511.7,402.4z M-536.4,463.1
	c-0.1,0.1-0.2,0.2-0.4,0.1c-0.2,0-0.3-0.2-0.4-0.2l-23.3-35l7.5-7.9l35.4,24.2L-536.4,463.1z M-474.6,463c0,0.1-0.1,0.2-0.4,0.2
	c-0.2,0-0.4-0.1-0.4-0.1l-18.8-18.8l35.4-24.2l7.5,7.9L-474.6,463z M-378.3,377v-14c0-1.2-0.3-2.3-0.8-3.4l-4.6-9.3
	c-1.7-3.4-2.6-7.2-2.6-11V339c0-18,14.6-32.6,32.6-32.6h64.7v31.1c0,5-1.2,10.1-3.4,14.6l-3.8,7.6c-0.5,1-0.8,2.2-0.8,3.4v16
	c0,11.1-4.4,21.4-12.3,29.1c-7.9,7.7-18.5,11.8-29.5,11.4C-360.6,419-378.3,399.9-378.3,377z M-339.4,434.6c0.6,0,1.2,0,1.7,0
	c5.7,0,11.2-0.9,16.5-2.5v3c0,1.5,0.2,3,0.5,4.4l-17.1,17.1l-17-17c0.3-1.3,0.5-2.8,0.5-4.5l0-3.2
	C-349.5,433.6-344.5,434.5-339.4,434.6z"/>
<path d="M-289.6,483.8c-4.1,0-7.5,3.4-7.5,7.5v48.1c0,4.1,3.4,7.5,7.5,7.5s7.5-3.4,7.5-7.5v-48.1
	C-282.1,487.2-285.4,483.8-289.6,483.8z"/>
<path d="M-722.4,493.7c-4.1,0-7.5,3.4-7.5,7.5v38.2c0,4.1,3.4,7.5,7.5,7.5c4.1,0,7.5-3.4,7.5-7.5v-38.2
	C-714.9,497.1-718.3,493.7-722.4,493.7z"/>
<path d="M-554.5,257.5c0-0.3,0.2-0.5,0.4-0.5c9.7-1.5,28.9-3.7,48.7-2.4c23.4,1.6,40.3,7.4,50.3,17.4c2.9,2.9,7.7,2.9,10.6,0
	c2.9-2.9,2.9-7.7,0-10.6c-28.4-28.4-87.7-22.9-111.9-19.3c-7.6,1.1-13.2,7.6-13.2,15.3v17.3c0,4.1,3.4,7.5,7.5,7.5
	c4.1,0,7.5-3.4,7.5-7.5L-554.5,257.5L-554.5,257.5z"/>
<path d="M-594.1,499.9c-4.1,0-7.5,3.4-7.5,7.5v32.1c0,4.1,3.4,7.5,7.5,7.5c4.1,0,7.5-3.4,7.5-7.5v-32.1
	C-586.6,503.2-590,499.9-594.1,499.9z"/>
<path d="M-417.7,499.9c-4.1,0-7.5,3.4-7.5,7.5v32.1c0,4.1,3.4,7.5,7.5,7.5s7.5-3.4,7.5-7.5v-32.1
	C-410.2,503.2-413.6,499.9-417.7,499.9z"/>
</svg>
