<?xml version="1.0" encoding="utf-8"?>
<!-- Generator: Adobe Illustrator 22.0.1, SVG Export Plug-In . SVG Version: 6.00 Build 0)  -->
<svg fill="#a2a2a2" version="1.1" id="Layer_1" xmlns="http://www.w3.org/2000/svg" xmlns:xlink="http://www.w3.org/1999/xlink" x="0px" y="0px"
	 viewBox="552.7 255 402.5 512" style="enable-background:new 552.7 255 402.5 512;" xml:space="preserve">
<path d="M945.2,747h-34.8l-0.5-245.8c0-5.5-4.5-10-10-10c0,0,0,0,0,0c-5.5,0-10,4.5-10,10l0.5,245.7h-29l-0.3-109.3
	c0-5.5-4.5-10-10-10c0,0,0,0,0,0c-5.5,0-10,4.5-10,10l0.3,109.3h-24.3V614.6c28.3-2.5,50.6-25.8,50.6-54v-96.9
	c0-15.4-3.3-30.5-9.5-44.5c19.8,1.3,38.1,9.4,52.3,23c15.5,14.9,24,34.8,24.1,56l0.2,95c0,5.5,4.5,10,10,10c0,0,0,0,0,0
	c5.5,0,10-4.5,10-10l-0.2-94.9c-0.1-26.6-10.8-51.6-30.2-70.3c-11.1-10.7-24.2-18.6-38.6-23.4c10.2-9.7,16.5-23.3,16.5-38.4
	c-0.1-29.1-23.8-52.8-52.9-52.8c0,0-0.1,0-0.1,0c-8.5,0-16.9,2.1-24.4,6c-4.9,2.6-6.8,8.6-4.2,13.5c2.6,4.9,8.6,6.8,13.5,4.2
	c4.7-2.5,9.8-3.7,15.2-3.7c18.2,0,32.9,14.7,33,32.8s-14.7,32.9-32.8,33c-0.4,0-0.9,0-1.3,0.1c-0.5,0-1.1,0-1.6,0.1
	c-14.5-19.8-34.7-34.1-57.8-41.4c12.3-10.8,20-26.5,20-44.1c0-32.4-26.3-58.7-58.7-58.7c-32.4,0-58.7,26.3-58.7,58.7
	c0,18.4,8.5,34.9,21.8,45.6c-21.2,7.7-39.8,21.4-53.3,39.8c-1.6-0.1-3.2-0.1-4.7-0.1c-0.7,0-1.5,0-2.2,0c-0.2,0-0.4,0-0.5,0
	c-18.1,0-32.9-14.8-32.9-32.9s14.8-32.9,32.9-32.9c5.5,0,10.9,1.4,15.7,4c4.9,2.6,10.9,0.8,13.6-4c2.6-4.9,0.8-10.9-4-13.6
	c-7.7-4.2-16.4-6.4-25.2-6.4c-29.2,0-52.9,23.7-52.9,52.9c0,15.9,7,30.2,18.2,39.9c-37.8,14.6-64.6,50.5-64.6,92.4v94.7
	c0,5.5,4.5,10,10,10s10-4.5,10-10v-94.7c0-41.5,33.1-75.6,75.1-79.1c-6.2,13.9-9.5,29-9.5,44.4v96.9c0,28.8,23.1,52.4,52.3,54.1V747
	h-27.2V637.7c0-5.5-4.5-10-10-10c-5.5,0-10,4.5-10,10V747H619V501.3c0-5.5-4.5-10-10-10s-10,4.5-10,10V747h-36.3
	c-5.5,0-10,4.5-10,10c0,5.5,4.5,10,10,10h382.5c5.5,0,10-4.5,10-10C955.2,751.5,950.8,747,945.2,747z M750,275
	c21.3,0,38.7,17.3,38.7,38.7c0,21.3-17.3,38.7-38.7,38.7c-21.3,0-38.7-17.3-38.7-38.7C711.3,292.4,728.7,275,750,275z M658.6,560.6
	v-96.9c0-17.3,5-34.2,14.6-48.7c17.5-26.7,47.3-42.6,80-42.6c32.7,0,62.6,16,80,42.7c9.5,14.5,14.5,31.4,14.5,48.6v96.9
	c0,17.2-13.3,31.5-30.6,33.9V467.1c0-5.5-4.5-10-10-10c-5.5,0-10,4.5-10,10V747h-35.6V607.8c0-5.5-4.5-10-10-10c-5.5,0-10,4.5-10,10
	V747h-30.6V467.1c0-5.5-4.5-10-10-10s-10,4.5-10,10v127.6C672.8,593.1,658.6,578.4,658.6,560.6z"/>
</svg>
