<?xml version="1.0" encoding="utf-8"?>
<!-- Generator: Adobe Illustrator 22.0.1, SVG Export Plug-In . SVG Version: 6.00 Build 0)  -->
<svg version="1.1" id="Слой_1" xmlns="http://www.w3.org/2000/svg" xmlns:xlink="http://www.w3.org/1999/xlink" x="0px" y="0px"
	 viewBox="0 0 680.1 799.9" style="enable-background:new 0 0 680.1 799.9;" xml:space="preserve">
<style type="text/css">
	.st0{fill: #fff;}
</style>
<g>
	<g>
		<path d="M0,633.1c0.7-9.5,1.3-19,2.2-28.4c2.7-27.1,9.2-52.8,26.2-74.8c13.2-17,30.3-28.5,51-34.1c48.3-13.2,92.9-34.3,134.7-61.7
			c14.6-9.6,32.7-2.6,35.6,14.1c1.7,9.9-2.2,17.9-10.8,22.9c-22.2,12.8-44.2,25.9-67,37.6c-25.4,12.9-52.3,22.3-79.8,29.9
			c-22.9,6.3-35.1,22.9-41,44.9c-6.8,25.6-6.6,51.8-5.5,77.9c0.3,6.6,1.3,13.3,1.8,19.9c0.3,4.4,2.4,6.9,6.4,9
			c31.2,16.3,64,28.8,97.7,38.7c71.1,20.8,143.9,28.8,217.8,25.8c83-3.4,163-20,238.8-54.8c7.3-3.3,14.3-7,21.4-10.8
			c1.5-0.8,3.3-2.6,3.5-4.2c4.6-34.2,5.5-68.5-3.1-102.2c-6.1-23.7-20.7-39.7-45.4-45.5c-9-2.1-17.9-5.2-26.7-8.3
			c-40.8-14.4-79.4-33.5-115.4-57.5c-15.5-10.3-14.9-31.2,1-39.2c8.3-4.2,16.3-2.9,24,2.2c32.7,21.6,67.5,39,104.5,52.2
			c8.4,3,17,5.7,25.7,8c39,10.3,63.2,35.7,74.3,73.9c3.5,12.1,4.8,24.8,7.2,37.2c0.3,1.5,0.6,2.9,0.9,4.3v63c-1,6.9-2.2,13.8-3,20.7
			c-1.8,15.1-8,26.6-22.7,33.1c-20.7,9.1-40.7,19.9-61.7,28.2c-64.2,25.3-131.1,38.6-199.8,43.2c-7.9,0.5-15.9,1.2-23.8,1.8h-56
			c-2-0.3-3.9-0.7-5.9-0.8c-49.7-2-98.7-9-146.9-21.3c-46.9-12-92-28.5-134.6-51.8c-11.3-6.2-18.4-14.4-20.3-27
			c-0.7-4.8-1.8-9.5-2.4-14.3c-1.1-10.5-2-21.1-3-31.6C0.1,646.4,0.1,639.8,0,633.1z"/>
		<path d="M353.3,0.1c9.5,1.5,19,2.4,28.3,4.5c66.2,15.1,108.4,55.8,123.1,121.8c14.8,66.6,12,133.1-11.7,197.7
			c-12.2,33.1-31.8,61-61.5,81c-24,16.2-50.8,23.8-79.4,25.5c-32,1.9-62.8-3-91.3-18.4c-33.8-18.4-56.1-47-70.7-82
			c-16.1-38.5-22-79.1-22.3-120.5c-0.2-32.4,1.2-64.7,11.2-95.8c20.1-62.7,63.4-99,127.7-110.9c6.8-1.3,13.7-2,20.5-3
			C336.1,0,344.6,0,353.3,0.1z M212.1,203.3c0.5,34.4,3.8,66,14,96.4c5.3,15.9,12.5,30.8,22.7,44.2c19.1,25.3,44.9,38.7,76.1,41.5
			c33,2.9,64.2-1.8,90.7-23.9c16.6-13.9,27.6-31.8,35.6-51.7c10-24.8,14.7-50.8,16.4-77.3c2.1-31.7,1.6-63.4-5.6-94.4
			c-8.9-38.3-29.8-67.3-67.1-82.6c-23.4-9.6-47.9-12.4-73-9.4c-48.3,5.8-82.2,30.4-98.8,77C213.6,149.8,213,177.9,212.1,203.3z"/>
		<path class="st0" d="M212.1,203.3c0.9-25.5,1.5-53.5,11-80.3c16.5-46.6,50.4-71.2,98.8-77c25.1-3,49.6-0.2,73,9.4
			c37.3,15.3,58.2,44.3,67.1,82.6c7.2,31.1,7.7,62.7,5.6,94.4c-1.7,26.5-6.5,52.5-16.4,77.3c-8,19.9-19,37.8-35.6,51.7
			c-26.4,22.1-57.6,26.9-90.7,23.9c-31.3-2.8-57-16.2-76.1-41.5c-10.1-13.4-17.3-28.3-22.7-44.2
			C215.8,269.3,212.6,237.8,212.1,203.3z"/>
	</g>
</g>
</svg>
