<?xml version="1.0" encoding="utf-8"?>
<!-- Generator: Adobe Illustrator 22.0.1, SVG Export Plug-In . SVG Version: 6.00 Build 0)  -->
<svg fill="#a2a2a2" version="1.1" id="Layer_1" xmlns="http://www.w3.org/2000/svg" xmlns:xlink="http://www.w3.org/1999/xlink" x="0px" y="0px"
	 viewBox="0 0 415 767.6" style="enable-background:new 0 0 415 767.6;" xml:space="preserve">
<g>
	<path d="M170,50.4c-10.2,0-18.5,8.3-18.5,18.6s8.4,18.6,18.7,18.6c10.2,0,18.6-8.3,18.6-18.6s-8.3-18.6-18.6-18.6H170z"/>
	<path d="M176.3,686c0,17.2,14,31.2,31.2,31.2c17.2,0,31.2-14,31.2-31.2s-14-31.2-31.2-31.2C190.3,654.9,176.3,668.8,176.3,686z"/>
	<path d="M18.6,591.3c10.2,0,18.6-8.3,18.6-18.6V69c0-15.1,16.6-31.8,31.8-31.8H346c15.1,0,31.8,16.6,31.8,31.8
		c0,10.3,8.3,18.6,18.6,18.6c10.3,0,18.6-8.3,18.6-18.6c0-17-7.7-34.4-21.1-47.9C380.5,7.7,363,0,346,0H69C52,0,34.5,7.7,21.1,21.1
		C7.7,34.5,0,52,0,69v503.7C0,583,8.3,591.3,18.6,591.3z"/>
	<path d="M220.1,50.4c-10.3,0-18.6,8.3-18.6,18.6s8.3,18.6,18.6,18.6h50.4c10.3,0,18.6-8.3,18.6-18.6s-8.3-18.6-18.6-18.6H220.1z"/>
	<path d="M396.4,100.7H69c-10.2,0-18.6,8.3-18.6,18.6c0,10.3,8.3,18.6,18.6,18.6h308.8v560.7c0,15.1-16.6,31.8-31.8,31.8H69
		c-15.1,0-31.8-16.6-31.8-31.8v-57H346c10.3,0,18.6-8.3,18.6-18.6c0-10.3-8.3-18.6-18.6-18.6H18.6C8.3,604.5,0,612.8,0,623.1v75.6
		c0,17,7.7,34.5,21.1,47.9C34.5,759.9,52,767.6,69,767.6H346c17,0,34.5-7.7,47.9-21.1c13.4-13.4,21.1-30.9,21.1-47.9V119.3
		C415,109.1,406.6,100.7,396.4,100.7z"/>
</g>
</svg>
