<?xml version="1.0" encoding="utf-8"?>
<!-- Generator: Adobe Illustrator 22.0.1, SVG Export Plug-In . SVG Version: 6.00 Build 0)  -->
<svg version="1.1" id="Layer_1" xmlns="http://www.w3.org/2000/svg" xmlns:xlink="http://www.w3.org/1999/xlink" x="0px" y="0px"
	 viewBox="0 0 78.7 91.9" style="enable-background:new 0 0 78.7 91.9;" xml:space="preserve">
<path d="M75.6,40.4L9.7,0.9c-2-1.2-4.4-1.2-6.4-0.1C1.2,2,0,4.1,0,6.4v79.1c0,2.3,1.2,4.4,3.2,5.6c1,0.6,2.1,0.8,3.2,0.8
	c1.1,0,2.3-0.3,3.3-0.9l65.9-39.5c1.9-1.2,3.1-3.2,3.1-5.5C78.7,43.7,77.5,41.6,75.6,40.4L75.6,40.4z M12.8,74.2V17.7l47,28.2
	L12.8,74.2z M12.8,74.2"/>
</svg>
