    <?xml version="1.0" encoding="utf-8"?>
<!-- Generator: Adobe Illustrator 22.0.1, SVG Export Plug-In . SVG Version: 6.00 Build 0)  -->
<svg version="1.1" id="Layer_1" xmlns="http://www.w3.org/2000/svg" xmlns:xlink="http://www.w3.org/1999/xlink" x="0px" y="0px"
	 viewBox="0 0 223.6 170.9" style="enable-background:new 0 0 223.6 170.9;" xml:space="preserve">
<g>
	<path d="M221.4,39.7c-0.2-1.8-2.5-17.7-10-25.8C202.5,4,192.4,3,187.5,2.5c-0.4,0-0.8-0.1-1.2-0.1c-0.1,0-0.2,0-0.3,0
		C156.7,0,112.3,0,111.8,0h-0.1c-0.4,0-44.8,0-74.2,2.3c-0.1,0-0.2,0-0.3,0c-0.3,0-0.7,0.1-1.2,0.1C31.2,3,21.1,4,12.1,13.9
		c-7.4,8.1-9.7,24-10,25.8c0,0,0,0.1,0,0.1C2.1,40.5,0,58.6,0,76.9V94c0,18.4,2.1,36.4,2.2,37.1c0,0,0,0.1,0,0.1
		c0.2,1.8,2.5,17.7,10,25.8c8.2,9.2,18.7,10.5,24.3,11.2c1,0.1,1.8,0.2,2.4,0.4c0.2,0,0.4,0.1,0.6,0.1c17,1.7,70,2.3,72.3,2.3
		c0.4,0,44.9-0.1,74.3-2.4c0.1,0,0.2,0,0.3,0c0.4,0,0.8-0.1,1.2-0.1c4.9-0.5,15-1.6,23.8-11.4c7.4-8.1,9.7-24,10-25.8
		c0,0,0-0.1,0-0.1c0.1-0.8,2.1-18.8,2.1-37.1V76.9c0-18.4-2.1-36.4-2.1-37.1C221.4,39.7,221.4,39.7,221.4,39.7L221.4,39.7z
		 M210.8,94"/>
</g>
</svg>
