<?xml version="1.0" encoding="utf-8"?>
<!-- Generator: Adobe Illustrator 22.0.1, SVG Export Plug-In . SVG Version: 6.00 Build 0)  -->
<svg fill="#a2a2a2" version="1.1" id="Layer_1" xmlns="http://www.w3.org/2000/svg" xmlns:xlink="http://www.w3.org/1999/xlink" x="0px" y="0px"
	 viewBox="702 209.5 512 403.4" style="enable-background:new 702 209.5 512 403.4;" xml:space="preserve">
<g>
	<circle cx="1158.6" cy="322.9" r="10"/>
	<path d="M1184.2,209.5h-77.8c-37.2,0-33.9,0-62.6,0s-37.5,0-52.1,0H914c-16.4,0-29.8,13.4-29.8,29.8v50.4h-55.7
		c5.5-7.7,8.8-17.2,8.8-27.4c0-26.1-21.3-47.4-47.4-47.4c-26.1,0-47.4,21.3-47.4,47.4c0,13.5,5.7,25.7,14.7,34.3
		c-32.4,13.4-55.2,44.6-55.2,81V452c0,22.6,17.6,41.3,40.2,43.7v97.2h-25c-5.5,0-10,4.5-10,10c0,5.5,4.5,10,10,10h275.4
		c0,0,0,0,0.1,0c0,0,0,0,0.1,0h119.5c0,0,0.1,0,0.1,0c0,0,0,0,0.1,0h82.3c5.5,0,10-4.5,10-10c0-5.5-4.5-10-10-10h-75.1l-28.7-85.4
		h93.4c16.4,0,29.8-13.4,29.8-29.8V239.3C1214,222.9,1200.6,209.5,1184.2,209.5z M789.9,234.9c15.1,0,27.4,12.3,27.4,27.4
		c0,15.1-12.3,27.4-27.4,27.4c-15.1,0-27.4-12.3-27.4-27.4C762.5,247.1,774.8,234.9,789.9,234.9z M823.8,341.6v251.3H803V480.5
		c0-5.5-4.5-10-10-10c-5.5,0-10,4.5-10,10v112.4h-20.8V380.1c0-5.5-4.5-10-10-10c-5.5,0-10,4.5-10,10v95.4
		c-11.5-2.2-20.2-11.9-20.2-23.5v-74.5c0-37.4,31.5-67.9,70.3-67.9h183.8c-4.2,12.7-16.2,22-30.4,22h-112
		C828.2,331.6,823.8,336.1,823.8,341.6z M1098.3,592.9h-91.8l28.7-85.4h34.5L1098.3,592.9z M1194,477.7c0,5.4-4.4,9.8-9.8,9.8
		c0,0-156.1,0-156.1,0H914c-5.4,0-9.8-4.4-9.8-9.8v-93c0-5.5-4.5-10-10-10c-5.5,0-10,4.5-10,10v93c0,16.4,13.4,29.8,29.8,29.8h100.1
		l-28.7,85.4H843.8V351.6h102c28.7,0,52-23.3,52-52c0-5.5-4.5-10-10-10h-83.5v-50.4c0-5.4,4.4-9.8,9.8-9.8h270.2
		c5.4,0,9.8,4.4,9.8,9.8V477.7z"/>
	<path d="M1121,346.4l-42.8,42.8l-15.6-15.6c-3.9-3.9-10.2-3.9-14.1,0l-55.2,55.2l-15.4-15.4c-1.9-1.9-4.4-2.9-7.1-2.9
		c-2.7,0-5.2,1.1-7.1,2.9l-28.7,28.7c-3.9,3.9-3.9,10.2,0,14.1c2,2,4.5,2.9,7.1,2.9c2.6,0,5.1-1,7.1-2.9l21.6-21.6l15.4,15.4
		c3.9,3.9,10.2,3.9,14.1,0l55.2-55.2l15.6,15.6c3.9,3.9,10.2,3.9,14.1,0l49.9-49.9c3.9-3.9,3.9-10.2,0-14.1
		C1131.2,342.5,1124.9,342.5,1121,346.4z"/>
</g>
</svg>
