<?xml version="1.0" encoding="utf-8"?>
<!-- Generator: Adobe Illustrator 22.0.1, SVG Export Plug-In . SVG Version: 6.00 Build 0)  -->
<svg fill="#a2a2a2" version="1.1" id="Layer_1" xmlns="http://www.w3.org/2000/svg" xmlns:xlink="http://www.w3.org/1999/xlink" x="0px" y="0px"
	 viewBox="0 0 223.6 170.9" style="enable-background:new 0 0 223.6 170.9;" xml:space="preserve">
<g>
	<path d="M221.4,39.8c0,0,0-0.1,0-0.1c-0.2-1.8-2.5-17.7-10-25.8C202.5,4,192.4,3,187.5,2.5c-0.4,0-0.8-0.1-1.2-0.1
		c-0.1,0-0.2,0-0.3,0C156.7,0,112.3,0,111.8,0h-0.1c-0.4,0-44.8,0-74.2,2.3c-0.1,0-0.2,0-0.3,0c-0.3,0-0.7,0.1-1.2,0.1
		C31.2,3,21.1,4,12.1,13.9c-7.4,8.1-9.7,24-10,25.8c0,0,0,0.1,0,0.1C2.1,40.5,0,58.6,0,76.9V94c0,18.4,2.1,36.4,2.2,37.1
		c0,0,0,0.1,0,0.1c0.2,1.8,2.5,17.7,10,25.8c8.2,9.2,18.7,10.5,24.3,11.2c1,0.1,1.8,0.2,2.4,0.4c0.2,0,0.4,0.1,0.6,0.1
		c17,1.7,70,2.3,72.3,2.3c0.4,0,44.9-0.1,74.3-2.4c0.1,0,0.2,0,0.3,0c0.4,0,0.8-0.1,1.2-0.1c4.9-0.5,15-1.6,23.8-11.4
		c7.4-8.1,9.7-24,10-25.8c0,0,0-0.1,0-0.1c0.1-0.8,2.1-18.8,2.1-37.1V76.9C223.6,58.6,221.5,40.5,221.4,39.8z M210.8,94
		c0,17.1-1.9,34.5-2.1,35.6c-0.5,3.6-2.7,14.4-6.7,18.8c0,0,0,0.1-0.1,0.1c-5.6,6.2-11.6,6.9-15.7,7.3c-0.5,0.1-0.9,0.1-1.3,0.1
		c-28.9,2.2-72.7,2.3-73.1,2.3c-0.5,0-54.1-0.5-70.8-2.2c-0.9-0.2-1.9-0.3-3-0.4c-4.8-0.6-11.4-1.5-16.4-7.1l-0.1-0.1
		c-3.6-3.8-6-13.5-6.7-18.7c-0.1-1.1-2.1-18.5-2.1-35.6V76.9c0-17.1,1.9-34.5,2.1-35.6c0.5-3.6,2.7-14.4,6.7-18.8c0,0,0,0,0.1-0.1
		c5.6-6.3,11.7-6.9,15.7-7.3c0.5,0,0.9-0.1,1.3-0.1c28.9-2.2,72.7-2.3,73.1-2.3h0.1c0.4,0,44.2,0,73.1,2.3c0.4,0,0.8,0.1,1.3,0.1
		c4,0.4,10.1,1,15.7,7.3c0,0,0,0.1,0.1,0.1c3.6,3.8,6,13.5,6.7,18.8c0.1,1.1,2.1,18.5,2.1,35.6V94z"/>
	<path d="M154.6,80L88.8,40.4c-2-1.2-4.4-1.2-6.4-0.1c-2,1.1-3.2,3.3-3.2,5.6V125c0,2.3,1.2,4.4,3.2,5.6c1,0.6,2.1,0.8,3.2,0.8
		c1.1,0,2.3-0.3,3.3-0.9L154.6,91c1.9-1.2,3.1-3.2,3.1-5.5C157.7,83.2,156.6,81.1,154.6,80z M91.9,113.7V57.2l47,28.2L91.9,113.7z"
		/>
</g>
</svg>
