<?xml version="1.0" standalone="no"?>
<!DOCTYPE svg PUBLIC "-//W3C//DTD SVG 1.1//EN" "http://www.w3.org/Graphics/SVG/1.1/DTD/svg11.dtd" >
<svg xmlns="http://www.w3.org/2000/svg" xmlns:xlink="http://www.w3.org/1999/xlink" version="1.1">
<metadata>
Created by FontForge 20190801 at Thu Jul  4 04:11:54 2019
 By Jimmy Wärting
Copyright \(c\) 2019 by Weape Studio. All rights reserved.
</metadata>
<defs>
<font id="AllithaAlt" horiz-adv-x="340" >
  <font-face 
    font-family="Allitha Alt"
    font-weight="400"
    font-stretch="normal"
    units-per-em="1150"
    panose-1="0 0 0 0 0 0 0 0 0 0"
    ascent="920"
    descent="-230"
    x-height="491"
    cap-height="709"
    bbox="-201.587 -309 1641.1 854"
    underline-thickness="50"
    underline-position="-125"
    stemh="30"
    stemv="27"
    unicode-range="U+000D-E092"
  />
<missing-glyph horiz-adv-x="250" 
 />
    <glyph glyph-name=".notdef" horiz-adv-x="250" 
 />
    <glyph glyph-name="uni0000" horiz-adv-x="0" 
 />
    <glyph glyph-name="uni0000" horiz-adv-x="0" 
 />
    <glyph glyph-name="uni000D" unicode="&#xd;" horiz-adv-x="288" 
 />
    <glyph glyph-name="space" unicode=" " horiz-adv-x="262" 
 />
    <glyph glyph-name="A" unicode="A" horiz-adv-x="446" 
d="M-27 -45c-29 34 37 227 56 263c14 27 0 22 -8 27c-9 7 -16 15 -26 21c-2 1 -1 4 0 6c5 10 13 13 21 13c10 0 20 -3 32 -3c7 0 11 2 15 10c29 68 68 134 103 200c33 61 85 152 137 201c6 5 15 9 24 14c3 1 7 2 10 2c9 0 19 -4 25 -13c7 -11 14 -20 29 -20
c19 -1 32 -10 37 -28c6 -16 7 -33 6 -50c-7 -97 -6 -58 -11 -106c-6 -43 -30 -149 -33 -168c-1 -6 -2 -12 6 -14c3 -1 7 -3 4 -6c0 -1 -2 -1 -3 -1c-2 0 -3 0 -5 -2c6 -3 13 -5 18 -9c3 -3 9 -4 13 -4c12 0 18 -10 17 -10c-12 -9 1 -18 -17 -18c-13 0 -27 -1 -40 -2
c-8 0 -10 -7 -11 -12c-3 -16 -7 -31 -10 -47c-4 -27 -9 -53 -12 -80c-5 -50 -13 -101 -8 -152c1 -8 -4 -16 -7 -25c-1 -3 -5 -3 -8 -3c-8 0 -13 4 -19 8c-4 2 -7 5 -12 5c-1 0 -2 -1 -4 -1c-9 -2 -4 9 -10 11c-4 1 -8 -2 -11 -2c-2 0 -4 1 -5 4c-14 34 -8 70 -9 113
c-1 7 5 104 5 110c4 50 7 56 -2 56h-5c-28 -2 -56 -8 -83 -8c-21 0 -28 -8 -36 -24c-26 -61 -73 -181 -84 -246c-3 -18 -10 -25 -20 -25c-4 0 -9 1 -14 3c-13 7 -20 0 -27 8c-3 4 -5 5 -7 5c-3 0 -5 -3 -8 -3c-1 0 -2 1 -3 2zM182 298c30 5 59 9 88 11c3 0 5 1 5 4
c6 20 0 7 12 62c46 207 36 160 39 187c-22 -23 -142 -243 -144 -264zM118 358c-36 -74 -36 -69 -32 -71c1 -1 2 -1 3 -1c4 0 6 8 8 11c101 199 59 114 114 216c25 47 70 121 109 154c1 2 3 4 1 9c-23 -7 -52 -52 -65 -71c-28 -45 -110 -192 -138 -247zM-7 39
c-2 -14 -10 -27 -3 -43c8 17 7 66 55 185c21 50 23 49 20 51c-1 1 -3 1 -4 1c-4 0 -5 -4 -7 -8c-27 -65 -48 -115 -61 -186zM318 627c-12 -10 -18 -23 -25 -36c8 12 22 22 26 36c7 2 10 7 12 13c-7 -3 -12 -7 -13 -13zM35 60c-3 -12 -11 -22 -8 -35c6 20 14 40 17 62
c-6 -8 -7 -17 -9 -27zM70 158c4 8 10 14 9 23c8 8 10 19 13 30c-9 -8 -10 -20 -13 -30c-7 -7 -9 -14 -9 -23zM51 109c-4 -6 -7 -12 -5 -17c4 4 7 10 5 17zM63 143c-2 -3 -6 -7 -3 -12c3 4 5 8 5 12c0 1 -1 1 -2 0zM92 211c5 4 5 8 5 13c-3 -4 -7 -8 -5 -13z" />
    <glyph glyph-name="B" unicode="B" horiz-adv-x="449" 
d="M-51 -60c-7 1 -8 5 -4 12c4 5 16 4 14 14c0 0 2 2 3 2c42 7 79 25 118 37c8 2 11 6 7 13c-7 13 -8 28 -8 42c1 26 1 51 4 76c10 75 13 81 8 83c-9 5 -15 9 -15 19c0 2 -25 1 -17 19c5 9 13 16 20 22c10 10 18 19 30 27c8 4 14 11 16 22c6 28 18 55 29 82
c27 69 54 137 87 203c-131 -51 -141 -84 -156 -84c-4 0 -8 3 -16 9c-8 7 -13 15 -24 18c-5 2 -3 7 -1 10c30 47 195 140 317 140c29 0 55 -5 77 -18c4 -2 8 -3 9 -6c8 -14 23 -19 36 -28c36 -23 29 -60 10 -98c-47 -91 -166 -200 -248 -267c-3 -3 -7 -5 -7 -10
c36 -7 70 -15 97 -44c15 -16 50 -21 70 -65c5 -10 6 -45 -13 -73c-45 -66 -100 -103 -173 -132c-80 -31 -127 -43 -188 -57c-6 -1 -11 -2 -17 -2c-9 0 -18 2 -26 6c-9 5 -14 15 -26 15c0 0 -2 2 -2 3c2 10 -4 10 -11 10zM165 41c29 14 48 25 78 45c35 22 75 64 69 104
c-1 6 -4 9 -11 11c-20 7 -40 9 -61 9c-10 0 -19 0 -29 -1c-17 -2 -18 -3 -40 -109c-4 -18 -6 -37 -6 -59zM275 461c-3 -10 -10 -18 -8 -32c56 47 140 129 161 193c6 17 4 21 -15 24c-12 1 -23 2 -35 2c-7 0 -15 0 -22 -1c-26 -4 -22 -4 -30 -33c-16 -51 -34 -102 -51 -153z
M261 399c-4 -4 -10 -8 -9 -19c65 55 125 112 170 181c-11 0 -3 -11 -80 -86c-26 -26 -53 -50 -81 -76zM192 24c56 27 109 55 135 114c-42 -47 -64 -70 -135 -114zM142 620c-26 -11 -48 -25 -69 -43c25 11 46 28 69 43zM264 356c13 1 34 28 59 46c-1 1 -2 1 -3 1
c-4 0 -11 -7 -56 -47zM326 412c-3 -3 -7 -5 -3 -9c7 11 21 17 26 30c-8 -7 -16 -14 -23 -21zM306 60c8 3 13 10 18 16c-9 -2 -13 -10 -18 -16zM253 345c-6 -3 -12 -7 -14 -13c6 3 11 6 14 13zM329 81c4 2 6 5 6 10c-3 -2 -6 -4 -6 -10zM262 260c4 1 7 -2 13 -2h4
c-5 1 -9 4 -12 4c-2 0 -3 -1 -5 -2zM204 650c-2 0 -4 -1 -5 -1c1 -1 2 -1 3 -2c2 1 3 1 4 2c0 1 -1 2 -2 1z" />
    <glyph glyph-name="C" unicode="C" horiz-adv-x="439" 
d="M407 609c-45 -14 -109 -90 -136 -130c-53 -79 -97 -156 -126 -254c-15 -46 -37 -148 -25 -191c1 -6 3 -9 7 -9c1 0 3 0 5 1c110 33 232 175 302 260c3 4 5 9 9 9c1 0 2 -1 3 -2c4 -3 -6 -19 -9 -23c-113 -138 -110 -118 -109 -132c9 10 16 17 24 26c42 43 96 112 96 113
c4 4 7 6 9 6s4 -2 6 -6c3 -3 5 -4 6 -4c2 0 4 1 6 2s4 1 6 1c9 0 6 -15 -2 -24c-38 -48 -73 -105 -194 -224c-35 -34 -86 -76 -134 -83c-3 -1 -7 -1 -10 -1c-28 0 -56 20 -81 35c-20 11 -52 27 -67 80c-22 80 1 154 22 223c22 70 56 127 88 180c26 43 129 177 171 199
c4 2 8 5 11 8c21 17 43 32 71 38c7 1 13 2 19 2c23 0 42 -10 52 -31c4 -9 11 -14 21 -16c33 -8 46 -44 38 -72c-22 -72 -79 -140 -108 -159c-7 -4 -14 -11 -23 -11c-2 0 -3 1 -5 1c-14 4 -23 16 -31 26c-4 5 0 17 5 22c1 1 3 2 4 1c3 -3 6 -5 9 -5c5 0 9 8 13 12
c29 36 55 85 57 132zM242 524c7 2 24 31 77 79c5 5 10 8 16 15c-6 0 -9 -2 -12 -4c-11 -10 -23 -19 -33 -31c-18 -18 -36 -36 -50 -58c-7 -6 -15 -15 -18 -26c8 8 15 15 20 25zM81 349c6 1 10 13 13 18c6 19 14 30 24 49c55 93 132 192 224 249c1 0 3 2 0 4
c-5 -2 -11 -3 -18 -6c-83 -43 -157 -148 -203 -226c-9 -17 -19 -33 -26 -50c-6 -12 -22 -29 -21 -44c-13 -23 -10 -24 -13 -45c7 10 20 39 20 51zM263 80l2 -2c10 9 22 20 33 30c-14 -6 -25 -18 -35 -28zM407 683c-8 7 -10 8 -14 8h-5c5 -3 9 -8 19 -8zM367 477
c-6 -5 -13 -9 -15 -17c6 3 13 9 15 17zM253 70c-5 -3 -10 -6 -9 -7c4 -2 5 2 9 7zM372 482c4 4 8 6 8 12c-5 -3 -7 -6 -8 -12zM311 122c5 6 10 7 9 13c-5 -1 -9 -4 -9 -13z" />
    <glyph glyph-name="D" unicode="D" horiz-adv-x="477" 
d="M115 19c-5 -9 -5 -18 -6 -26c-2 -16 -6 -32 -1 -48c-5 -8 -3 -18 -8 -26c-1 -2 -3 -3 -6 -3c-1 0 -3 0 -4 1c-7 2 -15 3 -21 9c-4 4 -10 7 -15 8s-8 3 -9 7c-3 5 -5 8 -9 8c-1 0 -3 -1 -4 -1c-5 -2 -9 4 -11 10c-6 11 -7 25 -7 39c0 41 8 124 18 162
c34 121 33 100 53 156c28 74 82 186 88 217c2 11 10 17 14 24c1 3 3 4 4 4c2 0 4 -2 6 -5c8 -13 12 -17 28 -18c18 -1 17 -42 15 -61c-3 -35 -10 -67 -37 -159c-41 -144 -71 -175 -50 -236c3 -8 5 -11 9 -11c3 0 5 1 9 2c107 46 164 265 187 367c7 31 9 64 11 97
c2 29 -6 57 -15 83c-4 11 -9 16 -21 17c-6 1 -11 1 -16 1c-16 0 -31 -3 -45 -9c-73 -30 -138 -103 -147 -130c-1 -3 -3 -5 -5 -8c-3 -4 -5 -6 -8 -6c-2 0 -5 2 -8 5c-32 29 -34 27 -33 40c3 44 75 109 109 136c31 26 68 44 106 44c16 0 31 -3 47 -10c23 -10 28 -27 52 -43
c30 -19 49 -48 63 -81c9 -23 11 -45 16 -67c2 -12 1 -25 1 -36c0 -72 -15 -140 -33 -212c-14 -66 -51 -132 -84 -190c-27 -45 -76 -94 -132 -94c-20 0 -40 6 -60 19c-13 8 -26 15 -41 24zM203 51c20 6 35 17 48 34c26 32 44 69 62 107c3 6 8 12 5 23
c-30 -64 -70 -117 -115 -164zM104 560c51 60 74 77 128 111c-39 -7 -116 -74 -128 -111zM65 164c15 57 41 109 56 166c-23 -53 -46 -107 -56 -166zM307 101c-16 -20 -31 -39 -47 -58c22 12 36 34 47 58zM127 349c1 0 3 0 4 -1c3 11 8 21 7 32c-3 -9 -7 -20 -11 -31zM169 451
c-7 -7 -7 -7 -4 -16c1 7 3 12 4 16zM146 573l4 4c1 2 0 2 -1 1s-3 -2 -4 -3c0 0 1 0 1 -2zM152 411c-3 -6 -3 -6 -2 -12c2 4 3 6 2 12z" />
    <glyph glyph-name="E" unicode="E" horiz-adv-x="339" 
d="M229 61c-1 -6 -8 -11 -3 -20c4 4 8 7 14 7s11 -2 12 -5c2 -5 3 -7 5 -7c3 0 7 8 15 8c3 0 6 -1 9 -3c2 -1 4 -4 3 -6c-5 -11 -6 -24 -17 -33c-36 -30 -77 -41 -123 -45c-28 0 -76 15 -100 29c-15 12 -33 17 -47 34c-32 37 -27 96 -12 142c5 14 0 16 12 58
c57 183 95 245 108 276c13 38 43 93 64 126c-8 1 -16 2 -23 2c-19 0 -30 3 -46 14c-8 5 -12 17 -24 17c1 20 -28 11 -19 27c8 12 20 5 14 15c-5 9 38 9 58 10c18 2 35 2 53 2h26h26h8c17 0 35 -2 53 -3c77 -6 72 -5 89 -14c4 -2 4 -7 0 -7h-2c-2 1 -4 2 -7 2
c-1 0 -2 0 -3 -1c6 -6 44 -23 54 -27c4 -2 7 -6 7 -13c-6 0 -9 -1 -8 -10c0 -8 -7 -10 -13 -10c-4 1 -9 1 -16 1c-28 0 -81 -5 -142 -5h-13h-7c-6 0 -11 -1 -10 -9c1 -2 2 -3 4 -3c1 0 2 1 3 1c6 0 9 3 12 3c1 0 3 0 4 -2c3 -4 7 -9 5 -16c-4 -17 -7 -33 -13 -50
c-9 -21 -14 -44 -21 -66c-13 -39 -12 -21 -22 -78c38 -2 74 -1 111 -11c1 0 2 -2 3 -3c-1 -5 -7 -2 -9 -5c0 -1 1 -2 2 -2c13 -3 25 -14 38 -16c7 -1 6 -3 4 -13c-2 -14 -9 -15 -21 -16c-151 -9 -152 4 -157 -17c-8 -33 -69 -211 -64 -275c1 -11 2 -13 8 -13h4
c35 3 68 10 98 29c3 2 4 3 6 3s5 -1 10 -2zM15 129c9 39 11 52 34 125c33 107 26 77 30 91c1 3 -2 5 -4 5c-1 0 -2 -1 -2 -1c-8 -14 -64 -174 -58 -220zM131 480c-11 -14 -37 -77 -39 -86c5 -2 3 -3 39 86zM187 603c3 6 11 7 7 18c-5 -6 -9 -10 -7 -18zM157 543
c4 4 7 8 7 17c-7 -6 -7 -11 -7 -17zM127 19c2 -1 3 -1 4 -1c2 0 4 1 7 3h-5c-2 0 -4 0 -6 -2z" />
    <glyph glyph-name="F" unicode="F" horiz-adv-x="278" 
d="M43 341h-3c-13 0 -18 15 -28 19c2 7 -3 9 -8 13c-3 1 -1 5 2 7c9 7 19 13 31 13c22 0 30 5 38 26c18 59 56 147 83 204v3h-8c-12 0 -23 -3 -36 -5c-16 -2 -31 -6 -45 -8h-4c-5 0 -8 1 -11 4c-9 10 -16 19 -25 29c-2 2 -1 5 2 6c6 5 10 10 17 13c56 24 115 32 141 37
c10 2 20 6 25 16c3 4 5 5 9 5c2 0 4 0 6 -1c8 -2 5 -9 2 -14c64 0 131 -9 194 -20c1 -6 -2 -6 -4 -7c-5 -2 -4 -7 1 -7c12 -1 14 -14 22 -14c6 0 11 -1 14 -7s-4 -6 -5 -9c-3 -10 -8 -13 -34 -13c-24 0 -65 3 -137 5c-8 0 -11 -2 -13 -10c-2 -19 -16 -35 -17 -55
c-11 -18 -13 -38 -19 -57c-21 -62 -16 -55 -30 -97c-3 -6 -4 -9 0 -9c1 0 3 1 5 1c5 0 11 1 18 1c14 0 30 -1 39 -4c3 -1 6 -2 5 -6c0 -3 -3 -2 -5 -2s-3 -1 -3 -3c1 -1 2 -3 3 -3c7 1 11 -5 17 -10c3 -3 7 -4 12 -5c7 0 10 -4 11 -10c0 -2 -1 -2 -2 -3
c-7 -3 -6 -14 -16 -15c-33 -1 -65 -8 -99 -8c-7 0 -10 -3 -12 -8c-5 -12 -6 -25 -11 -36c-9 -17 -13 -36 -21 -53c-7 -18 -12 -37 -19 -55c-19 -55 -43 -130 -42 -187c0 -7 0 -15 11 -14c4 0 7 -5 9 -8c1 -2 2 -4 0 -6c-2 -3 -10 1 -8 -5c2 -5 1 -6 0 -9
c-3 -10 -10 -12 -17 -12c-13 1 -23 5 -33 13c-13 12 -27 11 -33 23c0 2 -3 3 -5 4c-20 8 -22 26 -23 43c-3 62 17 145 22 176c11 60 26 83 32 117c1 5 6 9 5 17z" />
    <glyph glyph-name="G" unicode="G" horiz-adv-x="446" 
d="M384 563c61 123 55 114 63 124c1 2 4 7 9 7c1 0 3 -1 5 -2c3 -3 0 -8 -4 -19c4 -1 7 4 10 4c1 0 1 0 2 -1c4 -3 9 -5 10 -11c1 -1 2 -4 4 -4c1 0 2 1 3 2c2 2 4 3 6 3c1 0 3 0 5 -2c4 -5 6 -9 4 -14c-4 -22 7 23 -59 -193c-15 -49 -29 -96 -45 -143
c-8 -22 -12 -45 -20 -68c-7 -17 -34 -112 -40 -129c-28 -73 -86 -192 -178 -192c-58 0 -96 23 -143 54c-20 13 -26 38 -8 61c1 2 2 2 3 2c2 0 4 -2 5 -4c3 -15 20 -13 23 -22c3 -4 5 -6 7 -6s4 2 6 6c1 2 2 3 4 3s5 -3 6 -6c6 -12 14 -15 22 -15c5 0 10 1 15 2
c92 25 138 146 166 226c-1 1 -2 2 -3 2c-3 0 -3 -4 -4 -5c-21 -26 -45 -47 -73 -65c-11 -8 -22 -11 -33 -11c-12 0 -24 3 -36 10c-35 19 -75 41 -87 80c-18 59 -8 118 7 177c23 88 124 255 217 292c6 2 12 3 19 3c16 0 34 -7 45 -25c5 -9 11 -13 21 -16
c42 -12 41 -64 44 -105h2zM314 611c-2 7 -5 10 -9 10c-7 0 -17 -12 -25 -17c-76 -58 -138 -201 -144 -230c-12 -58 -18 -69 -14 -131c0 -8 1 -11 5 -11c2 0 5 1 9 3c1 1 3 2 4 3c78 62 149 158 161 180c1 2 3 4 1 6c-9 7 -2 14 0 20c20 54 21 123 12 167zM250 670
c-71 -18 -159 -162 -173 -226c43 90 95 170 173 226zM163 -3c56 35 83 94 104 158c-32 -55 -58 -115 -104 -158zM162 223h2c2 0 3 0 5 1c49 38 112 116 147 173c2 3 7 7 3 10c-1 1 -2 1 -2 1c-3 0 -5 -5 -7 -7c-7 -8 -68 -107 -148 -178zM172 545c16 19 31 38 46 59
c-19 -16 -34 -37 -46 -59zM243 31c15 13 28 35 31 55c-11 -19 -20 -37 -31 -55zM226 10c8 2 11 8 12 16c-4 -6 -7 -11 -12 -16zM285 693c4 -2 8 -6 14 -6c-4 6 -8 6 -14 6zM235 620c-4 -3 -10 -5 -14 -13c9 3 12 7 14 13zM168 539c-4 -4 -9 -6 -7 -14c3 5 7 7 7 14zM287 313
c2 2 1 3 0 2c-1 0 -1 -1 -2 -2s-1 -2 0 -2s2 2 2 2zM86 -14c3 0 3 3 0 2c-1 0 -4 1 -4 -1c0 -1 3 -1 4 -1z" />
    <glyph glyph-name="H" unicode="H" horiz-adv-x="525" 
d="M-25 389c-29 33 -8 90 14 130c42 77 140 201 229 201c4 0 7 -1 11 -1c14 -3 28 -10 37 -23c5 -5 8 -8 13 -9c55 -17 68 -78 70 -133c2 -61 -10 -142 -25 -200c-2 -9 -3 -19 -5 -30h59c6 0 10 1 10 9c1 15 9 27 13 41c21 66 50 158 72 217c15 42 30 83 52 121c2 3 3 7 5 9
s4 2 5 2c2 0 5 -2 7 -6c3 -8 15 -15 23 -14h2c7 0 12 -4 12 -13c-1 -47 -93 -372 -94 -375c-13 -45 -65 -219 -75 -294c-2 -16 -6 -32 3 -48c1 -2 0 -4 -2 -4c-6 0 -3 -4 -2 -7c3 -11 -2 -18 -12 -17c-5 2 -8 3 -11 4c-46 21 -57 22 -58 53c-1 23 1 47 6 70c2 12 2 25 5 37
c6 33 10 67 18 99c4 20 9 39 12 57c0 3 -2 4 -3 4c-19 0 -38 -1 -58 -1c-5 0 -9 -3 -10 -9c-8 -28 -21 -54 -32 -80c-38 -96 -104 -211 -198 -220h-9c-28 0 -37 12 -53 16c-17 4 -10 11 -29 18c-26 10 -4 45 5 63c3 7 7 7 13 7c8 -5 -8 -18 -2 -29c3 -1 4 2 6 4c3 4 5 9 9 9
c2 0 4 -2 7 -5c2 -1 4 -2 6 -2c3 0 5 1 7 3c6 7 14 12 19 18c10 13 23 23 34 35c36 42 79 119 93 167c-3 3 -7 4 -12 4h-12c-16 2 -30 7 -41 19c-2 2 -4 2 -6 2c-5 1 -5 4 -4 6c6 8 9 17 19 18c22 1 43 5 65 6c11 0 16 5 19 15c8 25 16 51 23 76c17 61 36 163 28 227
c-2 12 -5 16 -12 16c-2 0 -5 0 -9 -1c-66 -11 -163 -116 -199 -190c-15 -34 -13 -48 -7 -71c2 -7 7 -9 14 -9c10 0 23 5 32 8c1 0 2 1 3 1c2 0 3 -1 6 -4c10 -18 24 0 19 -19c-1 -1 -2 -3 -3 -3c-16 -10 -31 -21 -48 -21c-6 0 -12 1 -18 4c-21 9 -40 24 -56 42zM61 32
c2 -2 3 -1 5 0c74 54 114 146 144 231c-1 1 -2 1 -3 2c-38 -76 -80 -169 -146 -233zM-9 487c38 66 83 123 139 172c-61 -43 -108 -100 -139 -172zM414 327c58 190 57 188 63 200c2 13 9 23 9 35c-4 -10 -13 -21 -9 -35c-4 1 -5 -2 -7 -6c-7 -23 -28 -81 -48 -152
c-4 -15 -10 -31 -12 -47c3 1 4 3 4 5zM136 49c2 5 12 5 11 13c2 0 4 2 5 4c26 31 45 67 61 104c0 1 -1 2 -1 5c-2 -3 -3 -4 -4 -6c-43 -87 -57 -90 -61 -107c-7 -3 -10 -7 -11 -13zM382 209c3 1 3 3 3 5c4 16 8 31 12 47c1 2 3 5 -2 8c-6 -20 -12 -40 -13 -60zM362 112
c6 15 8 32 9 48c-7 -15 -6 -32 -9 -48zM510 628c1 5 4 10 4 18c-4 -7 -6 -11 -4 -18c-9 -4 -7 -14 -9 -22c5 6 6 15 9 22zM381 207c-2 -7 -5 -16 -3 -24c0 8 5 16 3 24zM220 196c-1 -2 0 -4 0 -6c2 3 5 8 2 8c-1 0 -2 -1 -2 -2zM62 557c-2 -2 -5 -3 -5 -8c1 3 7 4 5 8z
M377 313c-2 0 -6 1 -8 1c1 -1 3 -2 5 -2c1 0 2 1 3 1zM187 309c-3 1 -1 1 -7 1l2 -2c1 1 2 1 5 1z" />
    <glyph glyph-name="I" unicode="I" horiz-adv-x="308" 
d="M82 425c-3 -14 -12 -21 -24 -21c-2 0 -5 1 -7 1c-20 3 -37 14 -50 30c-9 9 -9 23 -7 36c8 64 127 238 189 238c13 0 25 -5 33 -15c4 -6 9 -9 18 -9c32 -5 49 -44 53 -76c7 -55 5 -109 0 -164c-4 -46 -19 -137 -39 -201c-10 -41 -26 -89 -43 -128
c-19 -46 -54 -114 -98 -138c-22 -10 -39 -26 -66 -26c-7 0 -14 1 -22 3c-15 4 -28 15 -43 20c-10 4 -17 14 -26 21c-10 7 -7 19 4 24c5 2 6 2 4 7c-2 3 0 5 4 5c1 0 3 1 4 1c2 0 4 -1 5 -2c3 -3 7 -4 10 -4c5 0 9 2 14 4c57 28 95 117 114 175c39 116 18 43 57 183
c9 29 12 58 18 88c8 40 12 81 17 121c1 14 -2 28 -2 41c0 4 -2 6 -4 6s-4 -1 -6 -2c-7 -5 -16 -10 -22 -16c-39 -36 -104 -115 -117 -169c-1 -6 -3 -15 0 -17c8 -2 8 -11 16 -13c5 -1 11 -1 16 -3zM26 14c1 0 3 0 4 1c60 35 89 116 110 179c2 5 6 11 3 19
c-29 -73 -61 -143 -117 -199zM28 520c34 55 69 109 119 150c-35 -13 -106 -106 -119 -150zM131 80c-13 -21 -28 -43 -45 -63c23 16 37 37 45 63zM-37 16c4 -1 6 -4 9 -4c2 0 3 0 4 1c-2 3 -4 4 -7 4c-2 0 -4 0 -6 -1z" />
    <glyph glyph-name="J" unicode="J" horiz-adv-x="402" 
d="M324 632c-2 -1 -83 -22 -163 -49c-3 -1 -6 -1 -9 -1c-15 0 -22 15 -30 19c-4 1 -9 1 -10 8c0 6 -6 3 -9 6c-7 3 -7 6 -2 12c11 14 25 24 42 29c31 10 59 24 90 33c118 34 135 29 196 34c14 0 27 -1 41 -3c21 -6 2 -20 31 -26c5 -1 9 -2 12 -5c6 -5 12 -9 1 -15
c-2 -3 2 -12 -6 -15h-3c-5 0 -8 4 -25 4c-9 0 -20 -1 -37 -4c-36 -9 -90 -208 -99 -263c-6 -29 -9 -59 -15 -90c-4 -19 -2 -39 -9 -59c-3 -7 -2 -17 -3 -26c-9 -58 -30 -139 -32 -149c-29 -67 -61 -135 -145 -135c-64 0 -164 56 -175 122c-6 27 -9 56 0 85
c17 61 57 109 120 122h3c3 0 4 -2 2 -8c-3 -6 -3 -7 6 -7s17 -8 27 -8c2 0 3 1 5 1c1 0 4 -3 2 -6c-5 -9 -8 -20 -19 -23c-11 -2 -20 -8 -28 -15c-11 -8 -20 -20 -25 -33c-10 -25 -12 -49 -11 -75c1 -18 8 -36 18 -52c1 -3 3 -5 7 -5c1 0 2 0 4 1c28 4 52 15 69 40
c27 37 40 112 48 149c10 36 16 74 25 110c35 139 44 163 77 241c8 18 19 34 29 56zM130 17c17 4 24 6 32 16c20 23 29 51 37 80c-20 -34 -40 -66 -69 -96zM40 226c-21 -12 -36 -27 -40 -52c12 19 25 37 40 52zM184 5c15 5 22 15 26 35c-9 -13 -17 -23 -26 -35z" />
    <glyph glyph-name="K" unicode="K" horiz-adv-x="380" 
d="M138 218c-4 -3 -6 -9 -6 -12c-1 -11 -6 -20 -10 -30c-4 -12 -3 -25 -7 -37c-7 -17 -7 -36 -11 -53c-2 -7 -2 -16 -3 -23c-1 -23 -12 -66 3 -86c2 -3 3 -6 -2 -6h-2c-4 0 -4 -3 -2 -6c6 -5 1 -10 -2 -15c-2 -2 -4 -3 -6 -3c-3 0 -5 1 -8 2c-7 3 -13 5 -19 9
c-5 3 -8 8 -14 8c-5 0 -7 0 -7 6c-4 10 -20 -1 -32 28c-12 31 -8 81 -8 94c-1 26 8 95 12 115c0 4 1 8 -1 11c-10 -1 -15 -9 -21 -13c-6 -3 -10 -5 -14 -5c-5 0 -8 4 -13 13c-3 4 -6 3 -8 4c-10 4 -11 7 -2 14s-17 -13 67 49c4 3 6 6 8 11c-11 -4 -12 -5 -75 -54
c-2 -1 -3 -1 -4 -2c-3 -1 -6 -5 -9 -5c-1 0 -2 1 -3 2c-6 5 3 7 6 11c18 19 42 32 63 50c28 23 28 16 34 34c0 1 42 134 50 153c16 39 13 46 50 130c25 56 20 57 50 102c1 2 3 3 6 3c1 0 3 -1 4 -1c5 -2 4 -7 3 -17c1 -1 2 -2 3 -2c3 0 5 4 7 2c3 -3 7 -5 9 -7
c2 -4 5 -5 8 -5h5c11 0 18 0 18 -13c0 -31 -25 -114 -32 -140c-4 -16 -9 -31 -13 -47c-3 -13 -10 -27 -9 -40c1 -1 2 -1 2 -1c2 0 4 2 5 3c74 57 211 156 268 222c8 10 8 9 6 23c0 5 13 12 18 12c3 0 6 -2 7 -5c3 -7 8 -10 15 -14c37 -16 -42 -102 -69 -130
c-76 -76 -192 -157 -275 -217c-9 -7 -10 -8 -5 -21c31 -82 64 -155 148 -281c14 -21 30 -41 50 -56c4 -2 18 0 8 -10c1 -1 2 -1 3 -4c4 -7 2 -11 -8 -13c-3 -1 -6 -1 -9 -1c-35 0 -55 3 -81 30c-59 64 -111 153 -146 234zM192 410c23 18 280 207 277 236
c-29 -24 -16 -26 -167 -143c-34 -26 -68 -52 -101 -79c-5 -3 -10 -5 -9 -14z" />
    <glyph glyph-name="L" unicode="L" horiz-adv-x="314" 
d="M-74 -46c-12 2 -15 10 -6 15c6 4 7 13 15 17c7 3 15 9 24 11c21 3 30 17 37 33c8 17 16 35 22 54c4 11 5 24 9 36c8 24 13 48 18 73c8 38 14 62 11 66c-1 1 -2 1 -4 1c-5 0 -12 -1 -23 -1s-27 2 -47 10c-9 4 -15 10 -24 14c-3 1 -4 3 -3 7c2 9 8 15 17 15c1 0 3 0 5 -1
c4 -1 8 -1 12 -1c24 0 66 26 85 39c5 3 7 7 9 14c12 35 51 192 124 286c17 23 61 69 92 69c8 0 15 -3 22 -11c8 -10 20 -14 29 -21c1 0 2 -1 2 -1c3 0 5 2 7 2c18 0 28 -4 31 -23c3 -26 -25 -85 -36 -107c-26 -54 -47 -86 -71 -118c-58 -77 -70 -62 -80 -104
c-3 -15 -34 -163 -34 -164c-4 -17 -7 -35 -11 -54c-5 -21 -10 -41 -19 -65c30 5 58 9 85 11c5 1 10 1 15 1c14 0 71 -9 79 -23c10 -13 23 -18 38 -22c2 -1 3 -2 5 -3c8 -5 19 -9 19 -18c1 -9 -5 -17 -11 -24c-1 -2 -3 -2 -5 -2s-5 1 -7 2c-17 10 -44 13 -71 13
c-62 0 -127 -12 -187 -27c-7 -2 -13 -7 -17 -12c-13 -16 -32 -28 -50 -28c-8 0 -16 2 -24 7c-19 12 -39 -2 -52 18c-3 3 -6 2 -9 3c-5 2 -11 0 -12 9c0 4 -6 3 -9 4zM254 498c-1 -3 -5 -6 0 -12c27 39 48 79 62 122c-7 -2 -8 -5 -10 -9c-14 -36 -34 -68 -52 -101zM169 517
c4 -2 4 0 17 28c55 117 106 126 99 133h-2c-5 0 -7 -2 -10 -3c-44 -30 -64 -58 -104 -158zM52 85c-9 -23 -20 -45 -34 -68c17 3 14 0 32 48c3 7 2 13 2 20zM268 619c-9 -4 -12 -13 -16 -21c6 6 14 12 17 20c7 5 13 12 16 19c-8 -4 -14 -9 -17 -18zM251 43
c18 -3 35 -9 53 -13c-17 11 -35 13 -53 13zM294 505c6 5 7 9 8 15c-4 -5 -5 -8 -8 -15zM161 493c0 -3 -6 -5 -3 -11c0 4 5 6 3 11zM165 505c4 5 5 6 4 11c-2 -4 -3 -7 -4 -11zM321 556c-3 -1 -3 -3 -3 -6c0 2 5 2 3 6z" />
    <glyph glyph-name="M" unicode="M" horiz-adv-x="521" 
d="M-73 -13c-11 4 -14 10 -8 20c1 2 1 5 4 4c8 -1 9 6 11 10c55 114 113 332 143 425c45 145 67 196 76 240c2 12 9 20 14 30c0 3 3 4 6 4s7 -2 7 -5c2 -10 9 -10 14 -14c5 -3 12 -5 15 -10c2 -2 2 -2 3 -1c5 4 9 7 13 7c5 0 9 -4 12 -12c12 -27 13 -86 15 -155
c2 -55 -7 -146 -3 -199c9 15 17 29 24 41c22 47 48 90 73 133c77 131 125 179 150 207c6 7 12 9 15 9c4 0 6 -2 6 -6c0 -7 2 -7 6 -8c10 -5 14 -7 25 -7c7 2 13 -8 14 -18c1 -16 -2 -31 -6 -46c-44 -178 -47 -181 -65 -253c-13 -49 -26 -117 -37 -184
c-8 -58 -19 -131 -9 -192c5 -29 23 -33 8 -37c-3 0 -2 -5 -1 -8c3 -13 0 -16 -13 -18h-5c-16 0 -22 11 -30 11c-2 0 -5 -1 -8 -3h-1c-9 13 -27 8 -36 21c-25 33 -25 103 -22 145c0 12 -1 22 -1 33c2 89 18 175 47 259c10 28 18 59 30 86c0 2 1 4 1 7
c-13 -13 -21 -30 -30 -45c-22 -37 -44 -76 -66 -115c-71 -131 -55 -97 -66 -118c-4 -6 -8 -9 -13 -9c-2 0 -4 1 -6 2c-7 3 -16 -2 -18 8c0 2 -2 2 -3 2c-3 -2 -5 -3 -7 -3c-6 0 -7 10 -9 15c-2 3 -3 7 -5 7c-1 0 -3 -1 -6 -4c-1 -2 -3 -2 -4 -2c-2 0 -4 2 -5 4
c-9 28 -19 43 -23 149c-1 21 0 42 0 64c-7 -3 1 12 -80 -238c-11 -33 -81 -242 -116 -242c-7 0 -16 5 -30 9zM25 232c-36 -115 -53 -152 -81 -219c9 7 14 16 18 26c81 200 80 250 184 555c3 7 6 15 6 24c-6 -3 -1 3 -34 -90c-34 -98 -62 -198 -93 -296zM377 284
c-2 -9 -4 -19 0 -30c6 31 12 62 20 90c7 26 14 51 21 77c8 25 17 49 25 75c-5 0 -5 -3 -7 -6c-1 -4 -21 -61 -40 -123c-8 -27 -13 -56 -19 -83zM248 299c1 0 1 -1 2 -2c9 11 15 32 78 144c129 226 161 223 158 241c-86 -94 -183 -266 -238 -383zM443 499c-1 -1 0 -1 0 -2
c6 13 11 26 14 40c-10 -9 -13 -24 -14 -38zM461 559c3 1 4 0 5 2c6 13 11 27 15 43c-3 -4 -4 -5 -5 -7c-8 -12 -7 -26 -15 -38zM457 537v1c7 6 8 13 4 20c-2 -6 -7 -12 -4 -21z" />
    <glyph glyph-name="N" unicode="N" horiz-adv-x="477" 
d="M-40 -38c-3 19 -4 25 41 179c18 64 8 24 67 224c67 232 76 271 100 331c2 6 7 8 13 8c14 0 4 -17 19 -17c3 0 7 -2 9 -4c4 -5 7 -7 10 -7s7 2 10 7c1 1 2 1 2 1c2 0 4 -1 6 -3c8 -3 13 -8 15 -18c15 -53 22 -202 29 -247c4 -35 4 -69 9 -104c3 -24 5 -50 6 -75
c1 -10 2 -20 7 -30c21 76 0 89 128 410c15 36 32 70 50 103c5 7 10 15 18 19c1 0 1 1 2 1c3 0 6 -3 4 -7c-19 -42 -18 -22 -56 -120c-58 -145 -100 -235 -133 -446c-2 -16 -8 -33 -4 -49c33 188 79 348 155 523c11 27 22 53 38 77c4 5 7 8 9 8c3 0 5 -4 8 -13
c1 -1 2 -2 3 -2c4 0 8 3 10 6c1 2 2 3 3 3c2 0 3 -1 5 -2c3 -2 6 -5 5 -10c-11 -44 -114 -301 -163 -531c-11 -50 -36 -167 -28 -217c1 -5 1 -10 4 -14c5 -10 3 -19 2 -30c0 -9 -5 -9 -12 -9c-8 1 -14 5 -20 8c-7 3 -16 -1 -19 10c-1 1 -5 1 -6 0c-8 0 -22 18 -26 25
c-3 4 -5 7 -8 7c-2 0 -3 -1 -5 -2c-1 -1 -2 -1 -2 -1c-3 0 -6 4 -8 7c-12 17 -17 39 -23 60c-19 66 -24 113 -33 151c-11 50 -17 104 -19 156c-3 34 -3 69 -10 104c-15 -50 -79 -261 -96 -304c-20 -49 -33 -100 -55 -148c-5 -13 -14 -18 -27 -20c-7 -2 -17 0 -24 -4
c-1 -1 -2 -1 -4 -1c-3 0 -5 3 -6 7zM18 123c1 5 5 9 4 16c2 1 3 4 3 6c32 97 77 251 101 336c43 152 47 146 42 164c-13 -39 5 24 -77 -255c-73 -251 -71 -240 -69 -251c-4 -5 -6 -10 -4 -16zM129 402c-3 -7 -17 -40 -16 -48c4 7 16 41 16 48zM113 348
c-3 -5 -13 -34 -11 -39c1 4 12 33 11 39zM99 300c-2 -3 -13 -24 -11 -31c1 6 13 27 11 31zM86 265c0 -5 -6 -19 -4 -24c1 3 8 17 4 24zM73 221c-1 -5 -7 -17 -5 -24c1 6 7 17 5 24zM79 238c-3 -5 -5 -8 -3 -14c1 5 5 7 3 14zM159 505c-1 -2 -4 -4 -2 -10c0 4 3 7 2 10z" />
    <glyph glyph-name="O" unicode="O" horiz-adv-x="420" 
d="M-1 104c-4 19 -1 38 -1 57c-1 47 9 92 18 137c16 85 50 181 101 272c25 43 71 109 115 133c12 5 23 11 35 11c5 0 10 -1 16 -4h14c0 8 -9 2 -8 9c0 5 4 7 8 8h2c10 0 16 -6 22 -13c7 -8 17 -16 28 -16c2 0 5 0 7 1c3 1 5 1 8 1c11 0 20 -7 28 -16c14 -14 20 -32 25 -51
c9 -28 9 -57 10 -87c4 -140 -79 -445 -198 -563c-26 -26 -50 -33 -71 -33c-26 0 -47 11 -58 12c-3 0 -6 1 -8 2c-22 12 -59 22 -73 57c-7 19 -16 39 -15 61c0 9 -4 15 -5 22zM124 104c-4 -14 2 -36 9 -57c1 -6 2 -8 5 -8c9 0 36 33 42 41c78 104 114 232 136 358
c6 41 8 108 7 122c-1 16 -7 74 -13 86c-3 4 -5 5 -7 5c-4 0 -7 -4 -12 -10c-92 -94 -152 -314 -164 -448c-2 -27 -2 -54 -3 -89zM37 237c5 2 4 7 5 11c2 24 8 47 14 70c19 85 57 187 105 262c61 94 79 87 72 95c-72 -40 -174 -226 -196 -438zM344 443
c-32 -145 -76 -286 -164 -407c45 35 88 128 108 182c39 104 50 181 56 225zM265 98c3 4 8 7 7 15c11 5 71 153 68 170c-3 -4 -3 -8 -5 -13c-17 -50 -36 -100 -60 -148c-2 -3 -4 -6 -3 -9c-6 -4 -6 -10 -7 -15zM144 480c2 -1 3 -1 4 -1c3 0 3 4 4 7c32 76 62 117 89 152
c-45 -45 -71 -100 -97 -158zM123 416c5 10 9 21 11 31c5 10 14 20 10 32c-3 -10 -10 -20 -10 -32c-8 -8 -8 -20 -11 -31zM352 323c-3 -9 -8 -17 -6 -27zM278 705c-1 1 -2 1 -3 1c-2 0 -3 0 -5 -1c2 -3 3 -3 5 -3s4 2 3 3zM359 686c3 -5 5 -8 10 -7c-2 5 -5 5 -10 7zM36 235
c-1 -5 -2 -12 0 -17c1 5 2 12 0 17zM111 383c0 -5 -5 -9 -3 -18c1 8 5 12 3 18z" />
    <glyph glyph-name="P" unicode="P" horiz-adv-x="405" 
d="M10 150c-17 6 -26 20 -9 32c1 1 3 1 4 3c-1 3 -5 3 -4 8c2 4 6 4 9 4c5 0 10 -7 14 -7c1 0 2 1 3 5c17 82 37 106 34 189c-2 53 -9 105 -36 146c-8 11 -13 26 -23 37c-1 2 -2 5 -1 7c5 16 7 34 21 46c58 46 133 94 209 94c25 0 48 -5 67 -14c14 -7 30 -9 45 -14
c73 -25 119 -118 103 -202c-16 -81 -44 -152 -107 -210c-6 -8 -45 -48 -116 -92c-94 -61 -106 -42 -106 -64c0 -13 -4 -25 -6 -38c-6 -25 -5 -51 -5 -76c0 -3 1 -8 1 -11c1 -5 2 -7 4 -7c1 0 4 1 7 3c2 1 3 2 5 2c3 0 5 -4 7 -5c4 -2 4 -7 2 -11c-7 -16 -14 -35 -29 -35
c-1 0 -3 0 -5 1c-6 1 -13 4 -19 7c-7 5 -17 9 -24 14c-33 23 -32 24 -39 53c-8 31 -1 76 -2 99c-1 13 10 31 -4 36zM162 275c-2 -8 -7 -16 -8 -26c2 1 4 0 5 1c63 42 130 118 166 183c9 19 18 40 21 62c3 30 1 58 -7 85c-8 38 -32 76 -75 76c-14 0 -29 -3 -40 -6
c-10 -2 -5 -10 -7 -15s2 -7 6 -7c3 0 13 -7 14 -10c1 -4 3 -3 5 -2c3 0 6 1 9 4c2 1 4 2 5 2c3 0 5 -2 6 -5c9 -11 -3 -40 -17 -81c-5 -15 -68 -203 -83 -261zM90 576c-11 -8 -11 -8 -7 -20c28 -66 22 -75 29 -103c29 65 52 128 89 187c-28 -2 -90 -47 -111 -64zM270 307
c12 5 55 64 62 76c19 27 44 82 39 115c-23 -65 -38 -110 -94 -178c-3 -4 -7 -7 -7 -13zM114 393c-1 -4 -3 -9 -1 -16c5 12 91 231 92 235c-9 -3 -87 -209 -91 -219zM354 359c24 29 37 58 38 83c-22 -53 -12 -32 -38 -83zM174 694c19 4 39 5 58 6c-6 1 -12 2 -18 2
c-13 0 -27 -3 -40 -8zM146 686c-1 -1 -1 -1 0 -2c1 0 3 0 4 1v3c-2 1 -3 0 -4 -2zM261 299c5 4 5 4 8 8c-4 -1 -5 -3 -8 -8z" />
    <glyph glyph-name="Q" unicode="Q" horiz-adv-x="421" 
d="M378 666c0 7 -8 6 -4 13c1 2 3 3 5 3c36 0 46 -78 47 -102c1 -14 2 -27 1 -41c-3 -24 -1 -49 -5 -73c-8 -42 -14 -86 -26 -127c-72 -243 -137 -301 -143 -315c11 -4 22 -6 33 -12c4 -3 10 -4 12 -10c6 -18 27 -6 48 -24c11 -9 13 -19 6 -32c-6 -12 -12 -19 -19 -19
c-4 0 -10 3 -16 10c-11 11 -22 13 -35 13c-95 0 -197 -31 -280 -76c-7 -4 -12 -5 -17 -5c-16 0 -24 15 -36 15c-2 0 -4 2 -4 4c-1 7 -6 7 -11 8c-8 3 -9 6 -4 14c22 42 97 70 135 90c-25 13 -46 36 -46 62c-2 4 0 7 -4 11c-6 6 -8 14 -9 21c-7 134 0 117 11 193
c25 124 131 386 241 430c8 3 16 5 24 5c10 0 20 -3 30 -10c8 -7 21 -8 28 -19c16 0 22 -13 31 -24c1 -2 3 -3 7 -3zM225 55c17 4 57 88 65 105c2 3 5 5 2 9c-10 -15 -30 -61 -66 -109c-1 -1 -1 -3 -2 -4c-8 -6 -13 -16 -18 -24c8 6 16 14 19 23zM136 60c1 0 2 -1 3 -1
c4 0 7 3 9 5c75 70 115 168 145 264c21 66 59 254 23 312c-62 -50 -113 -158 -134 -234c-16 -48 -43 -144 -44 -192c-1 -23 -5 -46 -7 -69c-3 -29 2 -57 5 -85zM70 360c0 -1 0 -1 2 -1c7 18 18 63 54 140c31 65 62 117 113 168c5 4 11 9 19 15c-76 -14 -156 -209 -177 -282
c-4 -14 -7 -27 -11 -40zM324 348c-37 -115 -85 -225 -170 -316c2 -2 4 -1 6 0c82 63 136 205 162 301c2 6 3 10 2 15zM253 637c-17 -10 -46 -52 -54 -76c18 27 35 52 54 76zM269 6c-6 1 -12 5 -17 5c-3 0 -5 -1 -7 -2c6 -1 13 -4 19 -4c2 0 3 1 5 1zM303 704c-3 5 -7 6 -9 6
s-3 -1 -2 -3c2 -1 5 -4 8 -4c1 0 2 1 3 1zM-31 -80c-6 0 -9 -2 -11 -8c5 1 7 4 11 8zM255 639c6 4 9 6 10 11c-5 -2 -7 -4 -10 -11z" />
    <glyph glyph-name="R" unicode="R" horiz-adv-x="410" 
d="M-13 471c-44 49 -48 64 -39 89c10 32 28 52 52 72c63 47 139 82 218 82c6 0 13 0 19 -1c45 -3 105 -20 139 -51c9 -9 20 -14 31 -22c38 -27 71 -67 75 -121c2 -44 -30 -104 -57 -139c-35 -45 -91 -84 -133 -103c-55 -23 -64 -24 -121 -42c2 -13 10 -23 16 -33
c62 -99 147 -233 183 -232c7 1 12 -8 10 -8c-7 -5 -2 -11 -3 -16c-3 -8 -9 -13 -16 -14c-35 -1 -89 37 -115 63c-43 46 -80 92 -105 149c-1 5 -3 9 -9 11c-6 -64 -20 -156 -47 -212c-5 -8 -8 -11 -13 -11c-3 0 -5 0 -8 1c-6 1 -11 3 -17 8c-2 2 -5 6 -9 5c-2 -1 -4 -1 -5 -1
c-6 0 -7 7 -8 14c-4 -1 -7 -3 -10 -3c-7 0 -8 11 -8 16c-7 37 0 72 4 108c5 46 17 90 27 135c12 59 23 69 19 96c-9 61 -31 116 -70 160zM168 341c-3 -11 -3 -16 1 -16c2 0 5 1 10 4c16 6 80 37 118 61c37 24 58 50 71 66c26 32 40 69 28 110c-18 65 -79 80 -139 80
c-26 0 -52 -4 -78 -12c-8 -2 -10 -7 -9 -16c2 2 4 3 6 3c5 0 8 -7 13 -7c2 0 3 1 5 2c3 1 6 2 10 2c7 0 16 -3 17 -10c5 -44 -28 -162 -53 -267zM30 547c-6 -7 -7 -12 -2 -19c26 -38 32 -44 38 -54c10 -16 20 -31 31 -48c21 68 40 134 60 200c-33 -6 -67 -32 -84 -41
c-16 -10 -29 -24 -43 -38zM307 366c37 12 104 83 106 128c-28 -52 -62 -95 -106 -128zM110 399c11 31 21 62 27 96c-10 -32 -21 -62 -27 -96zM-31 571c-2 -4 -1 -7 3 -9c6 12 15 20 22 31c-11 -4 -18 -13 -25 -22zM387 388c3 7 8 10 12 15c6 7 12 13 14 23
c-9 -10 -18 -21 -27 -33c-1 -1 0 -3 1 -5c-1 1 -2 1 -3 1c-4 0 -6 -5 -9 -9c6 1 7 9 12 8zM237 700c16 -1 32 -4 48 -10h3c5 0 10 -3 15 -3c-3 4 -6 5 -10 5c-2 0 -5 -1 -8 -2c0 2 -1 5 -1 5c-11 3 -23 6 -35 6c-4 0 -8 0 -12 -1zM51 182c-1 -2 -2 -26 -1 -26
c3 13 8 43 10 55c-2 -10 -7 -19 -9 -29zM152 552c-1 -5 -6 -23 -6 -30c3 5 9 26 6 30zM-5 552c2 3 6 5 4 10c-3 -2 -4 -5 -4 -10z" />
    <glyph glyph-name="S" unicode="S" 
d="M52 240c-39 39 -86 74 -83 143c1 21 9 38 14 58c4 12 14 22 20 34c28 46 45 71 102 124c41 38 133 111 194 111c16 0 31 -6 41 -22c8 -10 15 -16 29 -17c23 -3 37 -20 39 -44c7 -92 -133 -290 -199 -343c-7 -6 -12 -9 -18 -9c-5 0 -10 2 -18 6s-13 15 -24 15
c-2 0 -4 4 -3 7c3 6 5 15 12 18c25 13 91 118 105 142c22 38 40 79 52 122c2 9 3 17 1 28c-74 -44 -214 -150 -227 -243c-5 -38 -4 -61 24 -92c48 -52 77 -67 121 -130c21 -31 33 -65 33 -102c0 -18 -8 -36 -16 -52c-23 -43 -69 -61 -116 -61c-38 3 -62 18 -74 25
c-15 6 -27 18 -41 25c-8 6 -11 14 -11 24c-3 16 -2 31 1 48c2 12 8 21 16 31c5 10 14 11 24 11c-5 -11 -11 -21 -16 -29c1 -1 2 -1 2 -3c10 10 15 16 21 16c3 0 6 -1 9 -4c5 -4 -3 -6 -1 -13c4 5 9 7 14 11c2 1 3 2 5 2c3 0 6 -2 9 -3c4 -3 1 -6 0 -10
c-6 -14 -10 -28 -2 -43c20 3 39 10 55 23c5 5 8 12 9 19c2 26 -7 49 -17 71c-18 45 -52 75 -86 106zM229 384c-17 -24 -37 -47 -54 -72c37 22 141 185 146 228c-43 -80 -17 -41 -92 -156zM29 470c-5 -8 -8 -17 -9 -29c56 93 133 158 222 216c-29 -2 -115 -73 -138 -92
c-31 -29 -56 -59 -75 -95zM67 446c63 87 91 98 90 107c9 2 14 8 18 15c6 1 8 3 11 11c-5 -5 -9 -6 -11 -11c-7 -2 -14 -7 -18 -15c-1 -1 -3 -1 -4 -1c-31 -28 -60 -58 -83 -94c-1 -3 -4 -7 -3 -12zM150 8c25 10 33 21 30 43c-9 -15 -18 -27 -30 -43zM321 688
c-6 6 -7 7 -11 7h-6c10 -6 11 -7 13 -7h4zM207 15c-3 -3 -5 -7 -6 -11c6 2 6 2 6 11z" />
    <glyph glyph-name="T" unicode="T" horiz-adv-x="255" 
d="M-90 636c-6 1 -4 6 -1 10c10 7 17 17 31 19c38 5 31 7 156 33c31 5 61 8 92 14c43 6 89 11 132 11c44 0 91 -4 134 -12c30 -6 18 -25 41 -29c2 -1 3 -1 5 -2c20 -7 22 -15 11 -36c-2 -3 -4 -4 -6 -4s-3 0 -5 1c-15 7 -31 8 -48 8c-43 0 -76 0 -120 -3
c-21 -1 -42 -3 -63 -3c-25 0 -26 -3 -30 -27c-5 -36 -31 -171 -31 -172c-8 -39 -14 -79 -23 -118c-8 -31 -7 -38 -24 -142c-4 -18 -3 -36 -7 -54c-7 -33 -10 -123 -30 -170c-2 -5 -4 -14 -10 -15c-3 0 -6 -1 -9 -1c-4 0 -9 1 -12 3c-2 2 -6 2 -7 6c-1 3 1 7 -2 9
c-1 -3 -2 -4 -4 -4s-5 3 -8 3c-1 0 -2 0 -3 -1c-2 -2 -3 -2 -4 -2c-2 0 -3 3 -4 7s2 10 -2 14c-4 0 -4 -3 -6 -4c-2 -2 -5 -4 -7 -4c-4 0 -7 3 -9 9c-5 17 0 81 2 99c5 77 23 169 28 188c26 115 53 231 92 343c5 16 7 20 -2 20c-2 0 -6 0 -11 -1c-90 -11 -101 -17 -111 -17
c-2 0 -4 0 -7 1c-8 1 -5 -8 -61 -8h-9c-11 1 -19 6 -27 13c-8 5 -12 14 -21 18zM131 417c5 13 4 28 11 41c0 10 4 20 6 30c3 11 7 20 4 31c3 -1 4 2 5 5c12 41 15 44 11 50c-6 -24 -13 -48 -16 -55c1 -11 -7 -20 -4 -31c-8 -9 -8 -20 -6 -30c-7 -8 -13 -27 -11 -41zM185 631
c-5 -12 -11 -34 -17 -56c4 1 5 4 5 8c4 16 12 31 12 48zM119 377c6 10 7 21 8 35c-6 -13 -6 -25 -8 -35zM464 697c-9 3 -10 4 -19 4c4 -4 9 -4 14 -4h5zM109 327c-5 -6 -4 -9 -3 -13c2 3 4 8 3 13zM98 277c-2 0 -4 -2 -3 -4c0 -2 0 -4 1 -3c2 0 3 3 3 4s-1 3 -1 3zM113 344
c-4 -3 -5 -6 -3 -9c2 2 3 5 3 9zM57 -7c0 -2 0 -3 1 -4c1 0 2 1 3 4c-1 0 -1 2 -2 2c-2 2 -2 -1 -2 -2zM400 707c-2 0 -4 1 -6 1s-3 -1 -5 -2h6c1 0 3 0 5 1zM423 704c0 -2 0 0 1 -1h11v1c-10 0 -12 1 -12 0z" />
    <glyph glyph-name="U" unicode="U" horiz-adv-x="484" 
d="M8 -8c-31 42 -23 97 -24 143c-1 26 16 118 21 141c32 128 42 174 89 310c15 40 32 78 46 118c2 4 5 7 6 13c2 7 6 10 13 10c6 -1 8 -7 8 -14c1 -3 -1 -6 1 -9c5 -1 5 8 9 8c1 0 2 0 3 -1c3 -2 10 -3 11 -5c2 -4 3 -6 5 -6c3 0 7 8 13 10c2 1 4 1 5 1c8 0 14 -7 15 -17
c2 -55 -34 -173 -50 -245c-17 -68 -35 -138 -45 -208c-6 -48 -19 -105 -22 -150c0 -2 -1 -5 2 -7c2 -1 4 2 6 4c7 11 14 20 21 31c61 109 69 138 102 203c28 52 53 105 79 158c69 133 68 122 95 186c3 6 6 14 13 16c1 0 2 1 3 1c3 0 5 -3 4 -8c-2 -6 -6 -12 -5 -21
c4 2 4 5 6 8c4 7 6 9 10 9c2 0 5 0 9 -2c2 -1 4 -1 5 -1c2 0 5 1 7 2c4 2 7 3 10 3c7 0 12 -6 13 -18c2 -30 -32 -204 -40 -246c-10 -54 -20 -106 -29 -160c-6 -32 -10 -63 -13 -94c-4 -40 -12 -134 -2 -174c3 -8 2 -20 0 -30c-2 -6 -5 -10 -10 -10c-1 0 -3 1 -4 1
c-10 2 -21 2 -31 9c-2 1 -4 2 -5 1c-3 -2 -5 -3 -7 -3c-6 0 -8 8 -12 13c-4 -2 -8 -3 -11 -3c-7 0 -12 6 -16 17c-18 56 -10 116 -11 158c0 32 5 64 9 96c3 31 7 64 14 95c1 1 0 2 0 4c-7 -10 -9 -20 -13 -30c-56 -129 -94 -234 -158 -321c-13 -18 -28 -23 -41 -23
c-16 0 -29 8 -32 7h-3c-17 0 -32 9 -48 15c-10 2 -16 8 -21 15zM77 456c-30 -110 -61 -229 -61 -344h5c-1 53 21 148 32 200c40 184 96 313 96 332c-7 0 -12 -4 -14 -11c-20 -59 -41 -117 -58 -177zM124 53c30 15 114 206 130 238c88 192 120 242 127 266
c-7 -6 -9 -13 -12 -18c-26 -51 -51 -100 -75 -150c-74 -151 -83 -177 -123 -254c-13 -27 -29 -53 -47 -82zM328 142c0 -15 -4 -31 0 -45c6 62 10 125 22 187c10 63 27 124 38 186c-39 -65 -58 -253 -60 -328zM158 567c-46 -146 -93 -357 -89 -388c10 29 -1 61 103 420
c6 17 11 34 14 56c-7 -10 -5 -11 -28 -88zM376 248c6 6 1 5 22 102c51 244 49 222 48 230c-3 -7 -6 -16 -4 -24c-4 1 -4 -2 -5 -5c-23 -105 -48 -211 -61 -303c-3 -6 -1 -13 -2 -18c4 5 3 10 2 18zM373 228c0 -6 -3 -11 0 -16c2 6 1 11 0 16v0zM245 224c-1 -1 0 -2 1 -2
c1 1 1 2 2 2c0 3 0 4 -1 3c-1 0 -1 -2 -2 -3z" />
    <glyph glyph-name="V" unicode="V" horiz-adv-x="333" 
d="M16 162c-13 99 -12 302 21 494c2 12 11 81 27 81c3 0 7 -2 11 -7c2 -3 5 -4 8 -4c2 0 4 1 6 1c4 0 7 -1 10 -7c1 -3 7 1 9 4c3 5 6 8 9 8c2 0 4 -1 6 -2c6 -2 8 -5 8 -11c0 -14 2 -29 1 -42c-11 -318 -5 -287 -10 -387c-2 -57 2 -116 5 -173h3c16 46 194 575 242 575
c1 0 2 0 3 -1c5 -2 -2 -5 0 -8c1 -2 1 -3 2 -6c3 4 7 7 12 7c2 0 4 0 6 -2c3 -2 5 -3 6 -3s2 1 4 3c2 3 4 6 7 6c1 0 2 -1 3 -1c5 -2 5 -6 5 -12c-1 -12 -2 -25 -7 -37c-98 -242 -53 -126 -101 -257c-43 -112 -130 -346 -144 -405c-4 -20 -14 -30 -31 -30c-4 0 -7 0 -11 1
s-8 2 -13 2c-2 0 -4 0 -7 -2c-1 -1 -2 -1 -3 -1c-5 0 -9 12 -13 12c-1 0 -3 -1 -4 -6c0 -2 -2 -3 -4 -3c-7 0 -18 12 -20 18c-28 54 -38 137 -46 195zM141 97c-4 -11 -9 -22 -6 -35c71 200 141 401 228 594c-39 -33 -206 -508 -222 -559zM40 504c-9 -114 -11 -227 4 -339
c3 18 -1 36 -1 54c0 30 -2 62 -2 93c0 124 8 249 27 372c0 5 3 11 -5 17c-13 -67 -19 -132 -23 -197zM79 429c-5 -11 -2 -22 -1 -34c2 12 -1 23 1 34zM76 374c0 -11 0 -22 1 -34c1 12 1 23 -1 34zM79 462c-1 -9 -1 -18 0 -26c1 9 2 17 0 26zM76 308c-2 -7 -2 -11 0 -16
c2 6 2 10 0 16zM221 228v0c1 4 5 8 3 13c-5 -4 -3 -8 -3 -13zM221 227c-5 -1 -6 -4 -5 -8c4 2 4 5 5 8zM296 432c-2 -3 -5 -5 -3 -10c2 4 5 6 3 10zM279 382c1 3 2 6 3 13c-5 -5 -3 -9 -3 -13zM272 369c4 7 6 10 7 13c-4 -1 -5 -6 -7 -13zM249 307c-2 -3 -4 -5 -3 -9
c2 3 4 5 3 9zM317 489c0 -3 -4 -4 0 -11c-2 6 3 7 0 11zM81 485c0 7 0 12 -1 18v-18h1zM156 44c-1 -1 0 -2 1 -1c0 1 1 2 2 4c0 1 -1 2 -1 2c-1 0 -1 -2 -2 -5zM260 336c-2 -4 -4 -6 -1 -5c1 0 1 2 2 2c0 2 -1 2 -1 3zM48 122c1 0 2 0 2 2c0 0 0 1 -1 2c-1 2 -1 -3 -1 -4z
M81 528c1 -3 1 -5 1 -8c1 3 2 5 -1 8z" />
    <glyph glyph-name="W" unicode="W" horiz-adv-x="601" 
d="M-21 356c-23 90 99 353 157 353c5 0 10 -2 14 -6c5 -6 11 -8 16 -8c7 0 14 3 21 3c11 0 22 -7 33 -37c2 -4 1 -9 1 -13c11 -115 -81 -465 -72 -488c13 6 176 343 181 353c3 4 10 32 25 39c6 3 6 15 15 16c4 1 7 -3 5 -9c0 -2 -2 -3 -2 -6s2 -5 4 -5c1 0 1 0 2 1
c2 5 5 7 7 7c4 0 8 -5 10 -7c3 -2 4 -3 6 -3c1 0 2 1 4 2c0 0 1 0 2 1c2 2 4 3 6 3c1 0 3 -1 5 -2c5 -3 4 -9 4 -14c-1 -14 -5 -27 -8 -39c-10 -48 -36 -281 -38 -282c-8 -51 -9 -104 -9 -156c-1 -3 -1 -8 3 -11c9 8 44 84 52 99c53 122 117 361 80 485c-1 3 -2 8 -6 8
c-8 0 -5 6 -4 11c2 4 8 6 4 14c0 3 7 6 10 6c12 0 12 -18 24 -18c1 0 3 0 5 1c3 1 6 2 8 2c9 0 15 -7 21 -16c77 -111 -72 -581 -158 -682c-10 -10 -17 -13 -31 -13c-28 4 -27 10 -31 11c-21 1 -38 17 -56 30c-28 20 -30 86 -28 128c1 37 7 72 10 110
c-34 -72 -83 -193 -123 -258c-9 -13 -19 -15 -31 -15c-7 0 -14 0 -21 5c-2 2 -3 2 -5 2c-3 0 -7 -3 -10 -3c-4 0 -7 2 -12 9c-1 2 -3 3 -4 3s-2 -1 -3 -1c-3 -1 -6 -1 -8 -1c-10 0 -16 6 -20 22c-39 182 97 607 97 634c-39 -45 -118 -219 -106 -271c3 -13 -1 -16 -10 -16
c-4 0 -9 0 -15 1c-15 1 -17 4 -21 21zM126 509c-26 -98 -94 -374 -69 -473c6 86 3 103 31 253c33 177 76 302 71 359c-9 -7 -3 -16 -33 -139zM183 602c-22 -132 -103 -443 -91 -540c30 280 98 484 91 540zM311 307c-4 -27 -23 -129 -20 -165c9 62 18 124 30 185
c-5 -4 -9 -12 -10 -20zM-10 418c-3 -15 -5 -29 -2 -45c4 24 7 77 55 183c2 3 5 6 2 10c-11 -16 -36 -75 -55 -148zM529 342c-1 -2 -42 -141 -41 -144c17 33 34 103 42 139c0 1 1 3 -1 5zM283 371c4 7 31 57 31 63c-13 -19 -23 -41 -31 -63c-7 -5 -9 -14 -12 -22
c8 5 10 12 12 22zM198 200c11 12 25 44 27 57c-10 -19 -19 -37 -27 -57zM161 122c0 6 7 10 6 16c-5 -3 -9 -7 -6 -16c-1 0 -2 2 -4 0c-6 -9 -11 -19 -14 -31c7 10 12 21 18 31zM178 163c6 3 10 10 10 17c-5 -4 -7 -11 -10 -17c-3 -8 -10 -14 -10 -23c6 6 10 13 10 23z
M264 333c4 3 9 6 6 14c-2 -4 -6 -9 -6 -14zM264 332c-4 -4 -7 -8 -6 -16c2 6 6 10 6 16zM315 437c5 3 4 8 5 13c-3 -5 -7 -8 -5 -13zM481 181c-1 -5 -6 -8 -5 -19c3 8 5 14 5 19zM60 -2c0 1 -2 3 -4 3c0 0 -1 -1 -1 -2c0 -3 1 -4 3 -4c1 0 2 1 2 3zM472 156
c-3 -3 -4 -7 -3 -11c3 2 4 6 3 11zM49 571c5 7 5 7 5 16c-2 -6 -5 -9 -5 -16zM189 181c4 1 5 5 6 10c-3 -3 -6 -5 -6 -10zM509 346c8 42 22 118 24 159v9v-9c-11 -14 -17 -233 -152 -481c16 -4 100 187 128 322zM465 137c-1 -2 -4 -4 -3 -7c3 1 4 2 4 5c0 1 -1 1 -1 2z
M452 109c0 -1 1 -3 1 -1c1 1 2 3 3 4c-1 2 -1 2 -2 1s-1 -2 -2 -4zM135 694c0 2 -3 0 -4 0c0 -1 1 -1 1 -1c2 0 4 -1 3 1zM5 385c-1 -6 -1 -5 0 -7c0 1 1 2 1 3c-1 1 -1 2 -1 4z" />
    <glyph glyph-name="X" unicode="X" horiz-adv-x="388" 
d="M-19 6c-6 17 -8 34 -5 52c12 52 41 118 64 164c77 151 82 131 79 150c-4 31 -19 159 -20 201c0 21 -4 42 -4 63c0 16 -1 31 -2 46c-1 13 7 21 10 31c1 2 3 3 6 3s6 -2 8 -6c5 -10 18 -11 23 -22c0 -1 2 -2 3 -2s2 1 3 2c2 3 3 7 6 7h2c5 -4 10 -6 12 -13
c0 -1 28 -130 36 -187c1 -3 1 -9 5 -10c4 -2 5 3 8 5c126 153 87 109 193 221c4 4 7 8 13 10h2c5 0 7 -3 5 -11c0 -2 -2 -3 -1 -6h5s5 0 7 -4c2 -3 6 -7 11 -8c21 -4 13 -23 1 -43c-37 -67 -117 -165 -164 -231c-14 -22 -29 -44 -45 -64c-7 -8 -9 -19 -6 -30
c39 -171 26 -118 63 -230c16 -48 58 -146 85 -177c3 -3 5 -5 7 -9c1 -3 1 -7 -3 -7h-2h-2c-2 0 -3 -1 1 -3c7 -7 1 -14 -1 -19c-2 -4 -4 -5 -6 -5c-3 0 -6 2 -9 3c-8 2 -15 5 -21 11c-18 12 -34 14 -49 30c-19 20 -35 43 -48 67c-66 132 -61 140 -82 186c-3 8 -5 18 -8 27
c-2 6 -5 12 -8 18c-7 -2 -9 -9 -13 -14c-29 -51 -58 -103 -78 -160c-6 -16 -11 -34 -4 -52c0 -3 1 -6 -2 -6c-5 -1 -3 -4 -3 -8c-1 -9 -5 -15 -11 -15c-3 0 -6 1 -9 4c-35 23 -35 32 -42 32h-2c-4 0 -6 4 -8 9zM215 458c-4 -5 -6 -10 0 -16c67 88 138 172 209 257
c-1 0 -3 1 -4 1c-5 0 -6 -4 -8 -7c-100 -113 -102 -117 -197 -235zM29 149c-2 -7 -7 -13 -7 -21c7 2 8 9 12 16c18 43 41 84 63 124c28 50 38 53 29 62c-8 -7 -11 -15 -15 -24c-31 -49 -58 -102 -82 -157zM230 410c8 4 11 11 14 19c-4 -6 -13 -9 -14 -19c-5 -1 -7 -5 -8 -12
c6 3 8 7 8 12zM262 452c-6 -4 -12 -9 -13 -18c6 6 11 10 13 18zM281 481c-5 -7 -11 -14 -16 -21c13 9 14 10 16 21zM22 127c-3 -3 -6 -8 -3 -14c4 4 5 8 3 15v-1zM134 274c-2 -3 -5 -7 -4 -13c3 4 6 7 5 12zM294 495c4 2 7 5 10 13c-6 -5 -8 -9 -10 -13zM121 249
c-4 -2 -5 -5 -7 -11c5 3 7 6 7 11zM314 520c5 2 6 7 8 11c-3 -2 -6 -5 -8 -11z" />
    <glyph glyph-name="Y" unicode="Y" horiz-adv-x="425" 
d="M-10 25c-14 17 -19 37 -18 61c1 9 5 17 10 24c3 4 8 6 9 13c1 3 3 4 5 4s3 -1 5 -1c4 -2 2 -5 1 -8c-1 -5 -4 -9 -4 -14c3 0 3 1 4 1c3 1 4 5 7 5c1 0 2 -1 4 -4c1 -3 8 -1 6 -9c-1 -3 1 -5 4 -5c2 0 5 1 7 3s3 5 6 5c1 0 2 0 3 -1c4 -3 8 -6 5 -13c-5 -17 1 -32 6 -46
c3 -6 6 -9 12 -9h2c44 5 97 22 127 57c41 41 86 159 101 213c9 32 19 63 28 94c1 4 2 6 1 10c-5 -1 -5 -6 -7 -9c-18 -31 -34 -64 -54 -93c-28 -42 -57 -85 -92 -120c-13 -13 -32 -29 -52 -29c-23 0 -62 29 -78 44c-13 10 -23 23 -26 40c-5 28 -11 55 -7 83c2 15 2 31 6 46
c16 73 26 94 44 146c15 42 71 167 101 202l6 9c2 2 5 3 8 3c2 0 3 0 5 -1c4 -2 0 -7 1 -10c-2 -1 -6 -5 -10 -12c8 1 12 2 16 8c11 -3 13 -16 20 -16c1 0 3 1 6 3c2 1 3 2 5 2s4 -2 7 -3c3 -3 4 -8 2 -12c-2 -7 -3 -14 -6 -20c-19 -44 -36 -91 -54 -136
c-37 -105 -39 -126 -55 -191c-8 -34 -9 -68 -6 -104c1 0 2 -1 3 -1c2 0 4 2 6 4c28 23 59 58 81 87c31 41 58 83 85 128c35 60 69 120 102 181c7 12 10 25 14 38c2 10 8 17 13 23c2 2 4 2 6 2c4 -2 2 -4 1 -7c0 -2 -1 -7 3 -5c5 0 6 -6 9 -10c1 -1 3 -3 5 -3c1 0 2 0 3 1
c2 1 3 2 5 2c3 0 4 -4 5 -8c1 -7 3 -14 1 -21c-8 -40 -6 -67 -24 -159c-3 -13 -6 -27 -7 -40c-8 -51 -19 -101 -30 -151c-10 -40 -18 -83 -33 -122c-25 -67 -66 -161 -124 -204c-20 -15 -67 -28 -93 -28c-58 0 -105 42 -142 83zM125 221c73 43 198 277 238 351c1 3 4 6 1 10
c-4 -3 -6 -9 -9 -13c-73 -136 -136 -243 -230 -348zM82 517c7 4 8 12 11 18c21 53 44 106 73 155c5 6 3 10 0 13c-26 -40 -80 -160 -84 -186zM280 196c-33 -63 -63 -125 -117 -168c25 8 45 24 60 47c20 34 40 68 53 105c2 5 5 9 4 16zM225 30c15 10 35 37 38 56
c-13 -22 -27 -37 -38 -56c-5 -1 -7 -6 -12 -11c7 2 11 5 12 11zM72 487c5 9 10 17 10 29c-7 -9 -7 -19 -10 -29zM67 473c-2 -4 -4 -7 -3 -12c1 4 5 6 3 12z" />
    <glyph glyph-name="Z" unicode="Z" horiz-adv-x="415" 
d="M-72 -37c-5 9 -24 1 -23 25c1 35 66 97 94 124c70 63 169 131 239 172c16 9 21 12 19 18c-2 4 -9 6 -20 6c-28 0 -79 -12 -92 -18c-4 -2 -7 -3 -11 -3c-8 0 -15 5 -23 8c-5 2 -9 5 -13 7c0 4 6 5 4 9h-3c-7 0 -13 6 -23 5c-5 0 -4 5 -4 8c1 7 -1 9 -8 10
c-16 2 -21 14 -11 24c21 21 41 42 69 58c8 5 12 12 19 17c64 46 160 129 185 206c1 3 6 15 -4 15h-3c-15 -2 -29 -4 -43 -10c-50 -17 -154 -73 -184 -121c-4 -7 -10 -10 -16 -10c-4 0 -8 2 -13 4c-13 7 -20 19 -34 25c-4 1 -2 5 -1 7c2 7 7 13 12 18c57 62 175 135 256 142
c11 0 46 -2 53 -13c17 -29 57 -13 68 -68c14 -62 -73 -161 -122 -210c-18 -17 -37 -33 -53 -52c16 -8 30 -18 43 -30c5 -5 14 -8 21 -11c1 -1 2 -1 3 -1c5 0 9 5 16 5c1 0 3 -1 4 -1c-2 -3 -3 -7 -5 -11c1 0 2 -1 2 -1c3 0 6 3 9 2c5 -2 9 -6 15 -6c2 0 4 0 7 2
c2 1 8 -2 6 -7c-4 -5 -5 -11 -12 -14s-6 -8 -4 -13c10 -28 5 -56 -5 -85c-13 -38 -41 -69 -67 -100c-54 -69 -176 -164 -264 -164c-17 0 -35 5 -54 16c-4 3 -9 6 -15 7s-12 3 -14 9zM15 32c-1 -2 -5 -4 0 -9c34 18 64 40 95 61c27 19 115 96 122 131
c-17 -3 -122 -90 -145 -109c-26 -24 -51 -47 -72 -74zM253 195c-62 -71 -127 -137 -211 -189c54 12 200 140 211 189zM99 366h2c10 0 18 5 25 10c61 49 138 108 193 188c0 5 6 7 5 11c-2 0 -4 -1 -5 -2c-1 -3 -1 -7 0 -9c-12 1 -7 -12 -87 -85
c-121 -107 -137 -101 -133 -113zM-63 14c18 18 17 33 99 104c22 19 43 37 65 55c9 4 16 10 23 17c-10 -3 -18 -9 -24 -15c-54 -37 -101 -78 -143 -124c-8 -10 -16 -21 -20 -37zM61 571c-3 -5 -7 -8 -6 -14c56 52 71 61 151 105c-1 1 -3 1 -4 1s-3 0 -4 -1
c-49 -23 -98 -52 -137 -91zM276 464c-103 -96 -101 -82 -95 -90c36 27 68 57 95 90zM167 47c30 23 57 49 78 77c-26 -25 -52 -51 -78 -77zM148 210c-6 -5 -14 -8 -19 -15c13 5 13 5 19 15zM208 247c-9 -2 -13 -3 -16 -9c7 1 10 4 16 9zM169 225c-5 -4 -11 -8 -15 -11
c12 4 12 4 15 11zM332 695c1 1 -2 3 -5 3c-1 0 -2 -1 -3 -1c2 -2 4 -3 6 -3c1 0 2 0 2 1zM213 252c5 0 7 3 8 6c-3 -1 -6 -2 -8 -6zM249 275c-2 -2 -5 -3 -7 -5c4 0 8 1 7 5z" />
    <glyph glyph-name="period" unicode="." horiz-adv-x="213" 
d="M-9 28c2 20 11 71 39 71c4 0 8 -1 13 -4c2 -1 4 -1 6 -1c10 0 25 10 37 10c6 0 12 -3 15 -11c5 -12 8 -24 3 -37c-5 -16 -13 -32 -22 -46c-10 -17 -31 -19 -53 -19h-23c-7 1 -11 5 -12 12c-2 8 -3 17 -3 25z" />
    <glyph glyph-name="a" unicode="a" horiz-adv-x="350" 
d="M-62 45c-7 16 -11 32 -10 50c3 69 27 130 52 190c24 56 86 167 136 196c6 3 12 5 17 5c11 0 20 -5 28 -14c5 -5 10 -9 16 -9c2 0 3 1 5 1s4 1 6 1c18 0 33 -15 37 -36c2 -11 2 -22 4 -35c17 22 34 41 45 65c3 5 6 10 11 13c2 1 3 1 5 1c1 0 3 0 4 -2c2 -4 2 -4 -9 -31
c1 0 1 -1 2 -1c11 12 15 19 19 19c2 0 5 -2 9 -6c3 -2 4 -3 5 -3s2 1 4 2c2 2 5 3 8 3c2 0 5 -1 8 -3c5 -5 4 -11 3 -18c-7 -44 -94 -225 -132 -387c-7 -30 -10 -60 -11 -91c0 -14 3 -27 9 -39c2 -6 10 -11 2 -19c-2 -2 1 -6 0 -11c0 -8 -2 -9 -10 -9c-5 1 -10 1 -13 4
c-19 18 -37 5 -55 46c-11 27 -19 56 -14 86c6 27 -5 21 31 140c-1 0 -2 1 -2 1c-6 0 -7 -14 -63 -91c-13 -16 -26 -31 -40 -46c-9 -8 -18 -11 -28 -11c-8 0 -37 8 -43 13c-12 8 -28 11 -36 26zM153 397c-51 -54 -129 -228 -135 -292c14 5 86 106 100 125c15 20 27 42 41 62
c5 6 7 13 8 21c3 51 -3 67 -5 82c-1 4 -2 6 -4 6s-3 -2 -5 -4zM96 430c-74 -75 -142 -236 -141 -299c28 112 79 209 141 299zM141 46c0 -6 -6 -10 0 -20c17 80 44 152 70 226c-11 -10 -14 -16 -18 -29c-21 -57 -39 -116 -52 -177zM40 94c9 8 18 17 24 29c9 3 87 122 93 131
c2 2 4 5 2 10c-21 -29 -47 -71 -76 -110c-7 -10 -16 -18 -20 -30c-10 -8 -17 -19 -23 -30zM30 254c7 19 18 36 25 56c7 5 9 14 12 22c-6 -6 -11 -13 -12 -22c-2 0 -3 -2 -4 -4c-16 -28 -55 -109 -57 -141c9 16 -1 -1 36 89zM242 260c-7 -15 -13 -29 -15 -46
c7 17 15 35 21 53c3 9 9 16 9 26c-8 -9 -11 -22 -15 -33zM277 345c6 7 9 17 11 26c-6 -7 -10 -16 -11 -26zM127 472c4 -2 6 -3 9 -3c1 0 3 0 5 2c-2 2 -4 3 -7 3c-2 0 -4 -1 -7 -2zM222 205c-3 -6 -5 -10 -4 -15c4 3 5 8 4 15zM213 170c-7 -3 -8 -5 -5 -14c1 5 3 9 5 14z
M217 188c-5 -5 -6 -10 -4 -16c0 6 5 10 4 16zM25 76c1 -1 3 1 4 2s3 2 3 6c-4 -1 -7 -3 -7 -8zM209 154c-7 0 -7 -6 -8 -12c5 3 3 10 7 12v2s1 -1 1 -2zM135 1c-1 -2 -5 -6 -3 -12c3 5 3 9 3 12z" />
    <glyph glyph-name="b" unicode="b" horiz-adv-x="419" 
d="M-36 -30c-18 73 5 198 8 221c1 6 4 11 6 16c1 5 19 96 40 147c6 14 11 29 14 44c3 16 12 28 15 42c7 38 114 280 172 280c5 0 10 -2 14 -6c8 -7 17 -13 27 -13c5 0 9 1 15 4c2 1 5 2 7 2c12 0 24 -13 22 -34c-24 -180 -145 -274 -155 -307c-5 -19 -21 -87 -20 -91
c17 44 104 193 156 205c2 1 5 1 7 1c14 0 16 -12 29 -12c2 0 4 0 7 1c5 1 9 2 13 2c18 0 33 -11 40 -29c16 -45 -30 -278 -96 -380c-27 -41 -61 -49 -85 -49c-17 0 -29 4 -29 4h-6c-21 0 -33 9 -41 9c-3 0 -5 -1 -6 -6c-10 -44 -23 -87 -29 -131c-2 -11 0 -23 -6 -33
c-4 -7 -7 -10 -12 -10c-6 0 -17 3 -38 7c-12 2 -1 12 -20 12c-17 0 -23 9 -29 23c-23 51 -18 72 -20 81zM146 112c-7 -22 -7 -23 11 -38c1 -1 2 -1 3 -1c12 8 22 19 31 30c46 57 117 277 105 306c-3 -1 -4 -2 -5 -3c-55 -62 -119 -216 -145 -294zM30 303c-2 -4 -4 -8 -2 -14
c35 26 39 151 139 332c11 19 23 36 34 56c-82 -55 -171 -373 -171 -374zM214 86c41 31 119 274 107 321c-14 -89 -64 -240 -107 -321zM89 106c19 33 26 88 80 181c2 5 6 8 6 14c6 6 10 12 11 21c-5 -6 -10 -12 -11 -21c-16 -3 -95 -185 -86 -195zM68 252
c-16 -19 -49 -194 -43 -236c14 137 49 234 43 236zM111 407c11 2 20 64 78 185c2 4 6 8 5 14c7 3 8 10 10 17c-5 -5 -10 -11 -10 -17c-15 -7 -87 -192 -83 -199zM9 233c-28 -122 -33 -157 -16 -272c-14 181 48 288 30 292c-5 0 -6 -1 -9 -4c-2 -5 -4 -10 -5 -16zM329 294
c-19 -77 -25 -79 -49 -153c1 0 2 -1 3 -1c16 39 42 111 46 154zM276 132c-5 -4 -4 -8 -2 -13c0 4 7 8 2 13zM263 105c7 4 7 10 10 13c-8 0 -6 -7 -10 -13zM289 470c-1 0 -2 1 -3 1s-3 -1 -6 -3c3 0 5 -1 6 -1s2 0 3 1v2zM250 578c0 -5 -3 -7 -2 -12c2 4 3 6 2 12z" />
    <glyph glyph-name="c" unicode="c" horiz-adv-x="273" 
d="M-49 100c2 49 -3 33 12 98c13 52 39 124 66 157c15 20 26 42 44 60c13 13 24 28 37 40c19 18 41 33 66 41c4 1 7 2 10 2c19 0 23 -19 40 -19c3 0 5 0 8 1s6 1 8 1c11 0 20 -7 26 -18c13 -34 -8 -74 -26 -104c-5 -9 -12 -17 -18 -25c-6 -6 -12 -9 -19 -9c-4 0 -8 1 -12 3
c-3 3 -7 3 -11 3c2 23 20 33 26 75c1 3 1 6 0 9c-3 2 -4 -1 -6 -3c-10 -12 -20 -24 -30 -37c-14 -19 -25 -40 -39 -60c-7 -10 -10 -21 -15 -31c-32 -68 -44 -123 -49 -183c-2 -17 1 -34 3 -51c0 -5 4 -9 7 -13c1 -1 2 -2 3 -2s3 1 5 1c45 17 45 27 50 27h2c3 -3 -2 -6 0 -9
c1 0 1 -1 1 -3c4 2 7 4 10 4c2 0 5 -1 7 -3c1 -1 2 -1 2 -1c3 0 4 5 8 5c2 0 3 0 5 -1c5 -2 2 -5 2 -7c0 -26 -60 -53 -81 -58c-2 -1 -6 -1 -10 -1c-23 0 -67 9 -97 30c-27 18 -37 47 -35 81zM115 421c-78 -87 -136 -173 -134 -299c0 -4 -1 -7 1 -12c13 123 64 226 141 316
c-4 1 -6 -3 -8 -5zM97 340c-10 -9 -60 -96 -71 -181c4 1 3 4 10 30c14 49 33 95 57 140c2 3 5 6 4 11zM205 359c13 19 20 44 17 58c-4 -21 -11 -39 -17 -58zM172 483c9 -1 14 -1 23 -2c-4 4 -7 5 -10 5c-4 0 -8 -2 -13 -3zM26 158c-2 -3 -2 -7 -1 -12c2 5 3 9 1 13v-1z" />
    <glyph glyph-name="d" unicode="d" horiz-adv-x="376" 
d="M-58 49c-20 131 79 306 84 316c5 15 17 28 25 41c16 23 28 45 51 63c20 15 35 21 46 21c20 0 29 -19 43 -19c2 0 3 1 5 1c2 1 5 1 7 1c8 0 15 -4 23 -10c3 -3 4 -5 7 -8c19 11 99 252 123 260c1 0 2 1 3 1c3 0 6 -4 4 -9c-3 -10 -5 -20 -12 -27c1 -1 2 -1 3 -1
c3 0 3 6 6 12c4 6 7 10 10 10s6 -3 11 -8c2 -2 2 -4 5 -2c4 1 7 2 9 2c33 0 -17 -113 -55 -286c-4 -20 -9 -40 -14 -60c-9 -30 -11 -62 -20 -88c-8 -26 -10 -53 -16 -79c-14 -62 -1 -31 -11 -72c-14 -55 -20 -144 -15 -197c3 -22 17 -23 12 -30c-1 -1 -1 -1 -2 -1s-3 1 -4 1
s-1 0 -2 -1c0 -6 9 -9 4 -17c-2 -4 -5 -8 -10 -8c-1 0 -2 1 -3 1c-3 2 -8 3 -12 6c-51 32 -59 36 -65 76c-5 24 -8 49 -8 73c0 31 -2 61 1 91c0 9 -2 17 -1 25c1 18 4 36 5 55c-27 -47 -70 -131 -103 -165c-11 -12 -24 -15 -35 -15c-12 0 -23 3 -32 3c-3 0 -6 0 -8 -1
c-1 0 -2 -1 -3 -1c-8 0 -9 9 -27 9c-17 0 -27 22 -29 37zM93 258c-10 -25 -34 -93 -36 -113c1 -1 2 0 3 1c13 23 50 75 120 204c12 22 9 44 2 68c-49 -54 -74 -122 -89 -160zM-36 134c-3 -18 -2 -35 3 -52c11 95 58 233 131 338c-27 -4 -116 -188 -134 -286zM45 256
c-27 -63 -55 -162 -43 -170c8 60 27 115 43 170zM124 204c6 5 9 12 11 19c11 10 51 88 59 104c1 2 4 4 1 7c-1 1 -1 1 -2 1c-4 0 -9 -13 -46 -85c-4 -8 -12 -15 -12 -27c-6 -3 -8 -12 -11 -19zM334 634c8 11 11 23 17 35c2 4 1 7 0 11c-3 -17 -14 -30 -17 -46zM140 474h16
c-3 3 -5 4 -8 4c-2 0 -5 -1 -8 -4zM63 301c-2 -8 -7 -13 -7 -22c8 15 8 15 7 22zM329 622c-1 -2 -4 -4 -1 -8c-1 3 2 4 1 8z" />
    <glyph glyph-name="e" unicode="e" horiz-adv-x="290" 
d="M159 80c4 -2 -1 -7 5 -10c3 3 6 5 10 5c2 0 5 -1 7 -2c1 -1 2 -1 3 -1c4 0 6 3 9 5c1 1 2 1 4 1c3 0 5 -2 5 -7c0 -6 0 -13 -6 -19c-23 -23 -50 -43 -79 -60c-11 -7 -25 -9 -41 -9c-27 0 -59 8 -81 14c-108 31 -38 241 -2 293c3 4 5 8 6 13c4 14 19 24 21 30
c2 8 37 60 66 88c35 33 64 68 114 72h5c23 0 26 -17 46 -16h5c62 0 49 -73 25 -128c-26 -60 -96 -127 -166 -127c-5 0 -10 0 -15 1c-2 0 -4 1 -5 1c-4 0 -7 -3 -9 -8c-19 -47 -40 -127 -22 -174c2 -7 4 -10 8 -10c3 0 6 2 11 4c23 11 47 22 66 39c3 2 5 6 10 5zM113 272
c22 7 36 23 52 36c34 27 52 63 62 104c1 3 1 8 -2 11c-32 -11 -103 -125 -112 -151zM141 437c-80 -53 -191 -231 -172 -338c16 130 81 239 172 338zM199 316c28 26 44 56 45 92c-9 -33 -25 -63 -45 -92zM13 137c8 33 20 66 30 99c-18 -32 -28 -65 -30 -99zM109 355
c-19 -26 -37 -53 -50 -83c6 5 49 75 50 83zM194 481c5 0 10 -1 15 -1v3c-2 0 -4 1 -5 1c-4 0 -7 -1 -10 -3zM10 126c0 0 -1 -1 -1 -2s-1 -4 2 -3c1 0 1 4 -1 5zM188 302c0 1 0 1 -1 2c-2 -1 -4 -2 -5 -5c0 0 1 -1 2 -1c3 0 3 2 4 4z" />
    <glyph glyph-name="f" unicode="f" horiz-adv-x="266" 
d="M-28 -149c-12 52 -8 52 -8 138c-1 50 10 112 8 124c-1 17 5 33 6 50c13 217 201 556 294 556c11 0 20 -5 28 -15c12 -15 10 -17 22 -20c22 -5 35 -21 39 -45c7 -37 -55 -141 -75 -172c-17 -29 -36 -56 -56 -82c-14 -20 -30 -38 -46 -59h17c19 0 38 -2 48 -18
c6 -8 31 -4 34 -22c2 -10 -4 -21 -11 -29c-3 -3 -6 -5 -8 -5c-3 0 -5 2 -9 6c-5 7 -12 10 -20 10c-2 0 -4 0 -7 -1c-17 -4 -34 -11 -50 -19c-23 -12 -46 -24 -70 -35c-12 -6 -20 -14 -21 -28c-1 -18 -10 -34 -13 -52c0 -1 -43 -222 -30 -286c2 -13 -4 -20 -7 -29
c-1 -6 -4 -8 -9 -8c-2 0 -4 0 -6 1c-5 2 -10 4 -14 9c-11 15 -17 5 -19 14c-1 8 -4 9 -6 9s-3 -1 -4 -1c-3 0 -5 1 -7 9zM281 624c-60 -55 -91 -129 -121 -204c53 51 128 179 121 204zM271 549c-95 -156 -134 -171 -132 -191c38 35 135 168 143 210c-7 -4 -7 -12 -11 -19z
M196 642c-46 -51 -93 -146 -101 -179c40 82 84 161 156 218c-1 0 -3 1 -4 1c-9 0 -45 -34 -51 -40zM189 571c5 7 12 12 14 21c16 15 28 33 44 48v2v2c-9 -7 -43 -40 -44 -52c-7 -5 -12 -12 -14 -21zM285 702c-3 3 -6 6 -9 6c-1 0 -3 -1 -4 -2c3 -3 6 -5 9 -5c1 0 3 0 4 1z
M177 366c-5 -4 -8 -7 -10 -12c4 3 8 5 10 12zM214 317c3 -3 5 -4 8 -4c1 0 3 0 5 1c-4 1 -7 2 -13 3zM292 590c-5 -5 -5 -8 -3 -13c1 4 2 7 3 13zM219 419c-3 -3 -7 -4 -7 -10c4 3 6 6 7 10z" />
    <glyph glyph-name="g" unicode="g" horiz-adv-x="382" 
d="M-35 17c-89 26 48 377 137 446c17 14 36 27 58 27c37 -2 35 -25 54 -24h2c29 0 40 -19 50 -41c7 5 10 14 13 21c7 12 7 22 16 23h3c9 0 1 -14 -4 -31c7 2 10 19 16 18c4 0 10 -3 13 -7c2 -3 3 -4 4 -4c2 0 4 7 10 7c1 0 3 0 6 -2c7 -3 9 -8 8 -15
c-14 -105 -29 -187 -39 -228c-3 -9 -2 -20 -5 -30c-27 -119 -53 -284 -138 -372c-33 -33 -76 -47 -120 -47c-35 0 -69 9 -97 24c-15 9 -19 25 -12 42c1 3 0 6 1 9s4 5 7 5c1 0 3 -1 4 -2c4 -3 3 -10 8 -10h3c3 0 5 0 7 -3c3 -4 8 -5 12 -6c2 0 4 -1 5 -1c2 0 3 1 4 4
c0 4 2 6 4 6s3 -1 5 -2c3 -3 6 -4 9 -4c5 0 9 3 14 5c85 39 134 189 157 271c3 10 4 20 9 29c6 20 9 40 14 59c2 10 7 18 7 31c-10 -10 -16 -20 -22 -30c-11 -21 -25 -39 -38 -59c-20 -33 -42 -68 -85 -116c-11 -12 -21 -15 -32 -15c-16 0 -32 10 -41 11c-7 0 -13 0 -18 6
c-2 4 -5 4 -9 5zM52 136c-3 -9 -5 -18 -7 -28c17 6 146 194 157 209c4 7 10 14 10 23c3 25 -2 48 -11 71c-1 3 -3 5 -5 5c-1 0 -3 -1 -5 -3c-69 -66 -117 -187 -139 -277zM115 435c-77 -44 -156 -272 -147 -319c27 118 71 227 147 319zM89 -165c91 72 132 300 162 425
c2 9 6 18 6 30c-20 -34 -57 -288 -153 -432c-5 -7 -12 -13 -15 -23zM61 89c4 2 6 6 9 10c22 21 120 168 138 194c1 2 3 4 2 7c-7 1 -70 -103 -122 -171c-7 -8 -15 -17 -20 -28c-4 -4 -8 -6 -7 -12zM113 385c-43 -58 -70 -123 -92 -192c1 0 2 -1 3 -2c63 172 82 169 89 194z
M228 36c-44 -141 -65 -152 -62 -161c1 0 2 0 3 1c24 44 34 56 64 169c-5 0 -4 -6 -5 -9zM233 46c3 9 6 17 6 26c3 2 3 5 2 10c-2 -4 -2 -7 -2 -10c-5 -8 -7 -17 -6 -26zM45 69c6 7 13 12 15 19c-9 -4 -13 -10 -15 -19zM161 477c2 -3 5 -5 8 -5c2 0 4 1 6 3c-3 2 -6 3 -8 3
s-4 -1 -6 -1zM165 -127c-7 -5 -7 -6 -9 -14c4 4 7 9 9 14z" />
    <glyph glyph-name="h" unicode="h" horiz-adv-x="420" 
d="M69 154c19 15 102 244 211 339c8 6 15 12 25 15c3 1 5 1 7 1c6 0 10 -3 16 -11c9 -12 20 -12 29 -12c19 0 36 -6 36 -28c-1 -62 -120 -325 -117 -480c1 -13 4 -26 7 -38c1 -8 6 -15 13 -19c3 -2 7 -3 6 -7c-1 -2 -2 -2 -3 -2c-2 0 -5 2 -8 2c-1 0 -1 0 -2 -1
c1 -6 12 -3 8 -14c-1 -5 -3 -9 -8 -8s-10 2 -16 4c-52 22 -75 33 -80 69c-4 24 -6 49 -5 73c2 17 1 33 7 48c-4 30 5 58 9 86c3 21 7 42 15 61c4 9 -7 -18 27 90c1 3 2 5 0 9c-57 -103 -94 -198 -136 -292c-33 -75 -37 -60 -45 -72c-1 -1 -3 -1 -5 -1h-2c-10 2 -20 2 -28 10
c-7 6 -14 7 -19 7h-8c-10 20 -34 8 -40 41c-46 198 164 719 188 731h3h4c7 -2 -5 -10 5 -9c9 1 13 -8 20 -8c1 0 3 0 4 1c2 1 4 2 6 2c5 0 9 -5 8 -12c-4 -32 -50 -138 -121 -493c-4 -14 -11 -65 -11 -82zM326 364c-6 -1 -3 -6 -4 -10c2 3 5 6 4 11c2 2 4 5 3 10
c-4 -3 -4 -7 -3 -11zM78 55c-6 -10 -13 -20 -15 -32c7 9 13 19 17 31c7 11 11 21 12 32c-6 -11 -11 -21 -14 -31zM64 84c13 9 109 262 205 365c5 5 11 9 14 18c-31 -16 -86 -101 -108 -143c-28 -51 -108 -217 -108 -217c-3 -7 -7 -14 -3 -23zM155 734
c-35 -37 -151 -411 -147 -469c75 309 87 303 129 420c6 16 15 32 18 49zM232 175c21 82 51 161 80 243c-9 -3 -12 -8 -13 -13c-28 -75 -54 -150 -67 -230zM113 124c-1 0 -2 0 -3 1c-5 -11 -11 -22 -12 -34zM116 139c1 0 2 -1 3 -1c3 7 6 14 10 21c-7 -5 -9 -13 -13 -20z
M2 234c1 6 4 12 2 18c0 -6 -6 -11 -2 -18zM138 182c6 8 9 13 9 19c-3 -5 -7 -9 -9 -19zM162 233c-5 -4 -6 -8 -7 -14c5 5 6 8 7 14zM173 257c3 3 7 5 5 11c-3 -3 -5 -7 -5 -11zM187 286c-2 -2 -4 -6 -5 -12c5 4 5 8 5 12zM226 128c-1 2 -1 4 -2 4c-3 0 -3 -5 -1 -5
c1 0 2 1 3 1z" />
    <glyph glyph-name="i" unicode="i" horiz-adv-x="197" 
d="M168 510c6 -3 10 -7 10 -15c-6 -52 -54 -158 -96 -368c-14 -70 -10 -97 7 -158c5 -16 25 -18 13 -25c-2 -2 1 -3 2 -5c6 -14 -2 -19 -16 -19c-5 0 -10 0 -15 1s-10 4 -15 4c-2 0 -5 -1 -7 -2c-9 9 -23 4 -32 10c-23 17 -37 32 -56 118c-4 22 -6 44 -3 66
c5 37 10 74 20 110c23 78 52 164 90 236c16 30 16 44 34 59c2 1 3 2 5 2c6 0 10 -8 8 -10c-1 -2 -6 -2 -6 -7c2 -1 3 -1 4 -1h4c6 2 9 3 11 3c4 0 7 -2 14 -7c1 -1 2 -1 4 -1c2 1 16 10 17 10s2 0 3 -1zM-9 94c13 95 37 203 119 389c2 4 9 9 2 12c-1 0 -2 1 -3 1
c-4 0 -5 -7 -7 -10c-42 -82 -101 -237 -114 -350c-2 -15 0 -28 0 -43c1 1 2 1 3 1zM99 364c13 40 28 79 42 120c-6 -3 -6 -7 -7 -10c-22 -54 -42 -109 -60 -165c-7 -24 -50 -167 -42 -192c17 86 37 163 67 247zM185 681h6c27 0 40 -32 33 -57c-5 -18 -13 -36 -29 -49
c-4 -4 -9 -7 -16 -7c-6 0 -12 0 -17 2c-11 7 -26 2 -34 13c-1 1 -22 1 -22 21c0 8 0 16 2 23c6 16 18 51 35 61c5 3 9 5 12 5c9 0 9 -12 25 -12h5zM128 628c15 38 18 34 15 41c-9 -14 -18 -26 -15 -41z" />
    <glyph glyph-name="j" unicode="j" horiz-adv-x="286" 
d="M165 503c20 -33 36 0 46 -38c9 -37 5 -95 2 -151c-11 -175 -29 -258 -54 -347c-27 -96 -108 -264 -226 -264c-34 0 -106 21 -127 42c-14 14 -6 24 3 48c2 9 9 9 18 10c-4 -9 -10 -16 -4 -24c4 0 4 3 6 4c3 5 7 7 10 7c2 0 5 -1 8 -4c4 -4 -2 -7 0 -12c5 3 10 6 12 10
c3 4 5 5 8 5c2 0 4 0 6 -1c6 -2 5 -7 3 -12v-6c14 8 27 16 37 27c94 101 116 165 160 307c13 41 26 107 35 152c7 37 12 74 21 110c1 7 2 13 1 21c-4 -1 -6 -4 -9 -6c-21 -26 -62 -78 -84 -102c-4 -4 -7 -6 -11 -6c-2 0 -5 1 -9 4c-2 1 -3 3 -5 4c-8 3 -7 8 -2 13
c-1 1 -2 1 -3 1c-4 0 -3 -7 -7 -7c0 0 -1 0 -2 1c-2 2 -3 4 -2 5c6 10 11 19 18 27c89 118 101 144 127 177c6 7 11 12 15 12c3 0 6 -2 9 -7zM25 -188c17 16 29 34 37 56c-14 -17 -26 -36 -37 -56zM-62 -225c46 26 116 139 128 205c-34 -74 -78 -140 -128 -205zM141 469
c1 3 4 5 1 9c-6 -2 -55 -81 -116 -156c-3 -4 -8 -8 -9 -14c-5 -3 -8 -7 -7 -13c2 5 8 7 8 12c4 2 6 5 8 8c36 45 76 101 115 154zM175 550c-12 7 -23 17 -34 26c-6 6 -7 14 -5 22c4 24 17 42 34 58c7 7 14 12 20 12c4 0 7 -2 10 -8c6 -10 13 -15 25 -16c12 -2 19 -13 19 -35
c-8 -31 -27 -64 -52 -64c-5 0 -11 2 -17 5z" />
    <glyph glyph-name="k" unicode="k" horiz-adv-x="396" 
d="M339 486c37 -3 54 -36 48 -65c-11 -55 -66 -146 -130 -184c-25 -16 -66 -34 -94 -39c-5 -1 -6 -4 -5 -8c1 -75 63 -195 129 -212c4 -1 13 -2 4 -9c-2 -2 1 -3 2 -4c5 -10 -2 -13 -13 -13c-70 0 -116 51 -152 105c-47 71 -32 111 -35 122c-10 -9 -26 -47 -33 -61
c-14 -27 -23 -90 -22 -119c0 -7 1 -14 6 -19c3 -3 4 -6 -2 -8c-4 -1 1 -3 1 -5c0 -12 -6 -14 -16 -14c-8 1 -46 15 -55 19c-11 5 -16 16 -17 27c-5 69 8 119 19 203c4 28 13 55 19 82c6 28 16 55 24 82c2 5 6 11 -4 13c-4 1 0 7 2 9c21 18 24 42 34 64c19 46 47 156 139 267
c5 6 22 11 35 11c7 0 13 -1 15 -5c2 -5 18 -17 24 -17c1 0 3 0 5 1c1 0 2 1 3 1c8 0 15 -10 12 -19c-3 -12 -7 -23 -12 -34c-48 -108 -53 -116 -97 -177c-4 -6 -8 -12 -8 -19c0 -5 -12 -20 -22 -43c-8 -16 -3 -14 -26 -76c-1 -2 -1 -3 1 -6c10 12 117 167 183 167
c10 0 19 -4 27 -12c3 -3 7 -4 11 -5zM213 705c-22 -17 -51 -47 -54 -69c11 12 -4 -10 50 56c3 4 6 7 4 13zM156 632c-2 -5 -12 -13 -10 -20c2 5 12 14 10 20zM144 608c-3 -7 -7 -13 -10 -20c1 -2 1 -2 2 -1c5 6 6 14 8 21zM131 578c-5 -5 -8 -9 -6 -15c2 4 6 8 6 15z
M124 562c-4 -1 -5 -4 -3 -10c1 5 2 7 3 10zM6 227c0 6 10 23 8 38c-3 -5 -12 -32 -8 -38zM15 267c4 7 9 17 9 25c-7 -5 -9 -25 -9 -25zM24 293c5 6 6 17 6 19c-4 -4 -6 -13 -6 -19zM30 313c2 5 5 10 3 19c-2 -5 -4 -13 -3 -19zM34 333c7 8 12 23 10 34
c-5 -12 -8 -23 -10 -34zM309 494c-4 1 -7 3 -11 3c-1 0 -3 0 -4 -1c3 -1 6 -3 10 -3c1 0 3 0 5 1zM72 442c5 10 16 29 24 47c9 20 11 31 16 43c-1 0 -12 -20 -22 -43c-3 -5 -18 -47 -18 -47zM100 277c38 61 94 119 124 150c-42 -24 -95 -94 -120 -134c-3 -4 -4 -9 -4 -16z
M140 265h2c12 0 18 7 26 11c47 24 135 117 140 167c1 3 3 7 -1 9c-1 0 -2 1 -3 1c-3 0 -7 -2 -9 -4c-41 -25 -87 -94 -117 -132c-13 -17 -25 -34 -38 -52zM217 280c31 10 110 113 105 139c-22 -38 -70 -112 -105 -139zM306 324c6 3 7 9 8 14c-4 -4 -8 -8 -9 -14
c-5 -4 -9 -9 -11 -15c5 4 11 8 12 15z" />
    <glyph glyph-name="l" unicode="l" horiz-adv-x="214" 
d="M302 696c2 -6 2 -11 1 -17c-39 -200 -157 -281 -159 -313c0 -8 -5 -16 -6 -24c-3 -15 -9 -30 -10 -46c0 -5 -8 -17 -10 -39c-2 -16 -37 -195 -30 -286c1 -21 9 -83 28 -97c2 -2 3 -4 3 -8c-1 -1 -2 -1 -3 -1c-2 0 -4 1 -6 1c-1 0 -1 0 -2 -1c1 -7 13 -8 7 -18
c-4 -5 -6 -7 -13 -7c-5 1 -10 2 -15 4c-53 26 -72 33 -88 73c-12 30 -25 106 -26 121c0 18 -9 36 -3 55c-5 15 0 31 2 46c2 18 0 36 6 53c4 11 6 57 19 91c9 22 2 26 -8 30c-2 1 -3 2 -5 3c-12 6 -11 6 -8 19c1 5 3 7 6 7c1 0 3 -1 5 -1s4 -1 6 -1c12 0 21 7 24 18
c36 125 92 264 183 360c5 6 13 11 21 15c3 2 7 3 10 3c7 0 14 -4 18 -11c5 -9 15 -14 27 -14c11 0 22 -3 26 -15zM62 396c4 5 5 9 4 14c-3 -4 -5 -8 -4 -14zM66 411c6 7 8 12 7 22c-4 -6 -5 -14 -7 -22zM103 506c61 149 122 190 117 197c-21 6 -115 -139 -147 -268
c9 4 3 7 30 71zM171 578c2 4 7 7 6 13c-4 -4 -7 -8 -6 -13zM177 592c5 3 8 7 8 13c-5 -4 -8 -8 -8 -13zM205 552c3 5 8 10 10 17c-9 -3 -7 -12 -10 -17zM216 570c2 2 3 5 3 8c-3 -3 -4 -3 -3 -8zM203 632c7 10 15 20 20 32c-10 -9 -17 -19 -22 -31c-4 -5 -9 -10 -9 -17
c5 5 9 10 11 16z" />
    <glyph glyph-name="m" unicode="m" horiz-adv-x="534" 
d="M-38 29c-3 -2 -6 -3 -8 -3c-27 0 -2 114 10 153c5 14 7 30 11 45c4 17 39 114 61 207c1 5 3 10 -1 16c-1 1 0 4 -4 3c-3 -1 -3 2 -2 4c2 12 9 21 15 32c1 1 3 2 4 2c2 0 4 -1 6 -3c13 -22 42 8 56 -39c6 -18 7 -52 8 -56c1 -6 -2 -12 -1 -19c12 4 22 33 38 51
c16 21 29 44 47 62c20 19 18 22 33 28c3 1 6 2 8 2c3 0 5 -3 8 -9c1 -1 1 -4 2 -4c7 0 13 -5 21 -5h3c2 0 4 1 6 1c16 0 26 -14 26 -33c-2 -29 -9 -56 -17 -84c-4 -18 -10 -35 -13 -53c68 96 123 128 142 146c4 4 10 6 14 6c5 0 9 -3 8 -10c0 -2 -1 -4 -1 -6c1 -1 2 -2 3 -2
c2 0 4 2 7 2c2 0 4 -1 7 -4c3 -4 7 -5 12 -5h5h4c13 0 24 -11 23 -27c-2 -53 -133 -255 -131 -415c0 -14 2 -28 9 -41c2 -4 -1 -26 -4 -29c-1 -1 -3 -2 -6 -2c-7 0 -16 4 -20 5c-5 2 -9 6 -14 6c-1 0 -2 0 -4 -1c-3 -2 -6 2 -7 4c-3 5 -5 6 -7 6s-4 -2 -7 -2
c-15 0 -28 51 -29 62c-4 44 1 95 7 121c6 34 0 24 13 74c3 17 8 32 12 47c-5 -5 -10 -9 -13 -14c-18 -30 -39 -56 -56 -86c-18 -30 -16 -21 -19 -34c-1 -9 -5 -13 -10 -13c-6 0 -14 4 -23 9c-3 2 -6 5 -10 5c-1 0 -2 -1 -3 -1c-5 -1 -7 4 -10 8c-1 2 -2 5 -4 5
c-1 0 -2 -1 -3 -2s-2 -2 -3 -2c-2 0 -4 2 -5 3c-5 6 -9 12 -9 20c0 14 -2 29 3 43c3 14 -1 26 21 108c1 2 1 4 1 6c-15 -19 -71 -133 -106 -235c-15 -44 -16 -82 -31 -82c-2 0 -3 1 -4 1c-8 2 -15 1 -23 7c0 1 -3 -3 -5 -1c1 5 1 11 2 17c-5 0 -5 -5 -7 -7s-4 -4 -5 -3
c-2 3 -4 3 -5 3c-4 0 -7 -5 -12 -4c-5 7 -3 15 -4 23c-5 -1 -7 -6 -10 -7zM-26 110c-1 -5 0 -10 0 -16c12 17 3 -1 46 162c5 20 42 143 37 183c-7 -12 -5 -24 -10 -45c-55 -209 -44 -142 -73 -284zM308 96c6 8 8 53 23 104c26 98 69 159 66 164c-12 -9 -21 -19 -26 -32
c-16 -36 -58 -118 -63 -236zM170 197c0 -1 -1 -3 1 -3c14 77 40 150 65 226c-29 -19 -66 -196 -66 -223zM360 186c3 2 3 5 4 8c39 117 100 207 93 220c-11 -22 -96 -192 -97 -228zM117 336c-3 -4 -5 -9 -3 -15c31 49 62 98 97 145c-24 -20 -76 -103 -94 -130zM261 277
c-2 -4 -5 -7 -4 -15c39 57 79 109 126 155c-27 -10 -105 -114 -122 -140zM265 420c-16 -49 -35 -98 -47 -149c16 49 35 97 47 149zM56 262c6 19 11 38 13 58c-6 -19 -11 -38 -13 -58zM27 148c6 9 8 18 7 28c-4 -9 -6 -18 -7 -28zM359 185c-3 -4 -4 -7 -2 -13c2 5 4 9 2 13z
M128 297c0 2 -5 0 -4 -4c0 -1 1 -1 2 -2c0 2 1 4 2 6zM309 80c0 2 -1 4 -1 7v-7h1z" />
    <glyph glyph-name="n" unicode="n" horiz-adv-x="415" 
d="M-51 5c-2 13 -4 26 -2 38c6 88 29 177 55 261c24 84 22 79 41 154c7 28 -2 14 6 42c1 3 3 4 5 4s4 -1 5 -3c4 -6 10 -7 15 -7h10c8 0 16 -2 21 -17c22 -64 -24 -233 -16 -239c42 82 110 213 198 262l12 6c1 1 3 1 4 1c4 0 7 -2 9 -5c7 -8 15 -9 25 -9c3 0 5 1 7 1
c96 0 -81 -325 -48 -473c3 -16 32 -26 14 -27c-4 0 0 -4 1 -6c5 -15 2 -18 -5 -18c-3 0 -7 1 -11 1c-7 0 -12 5 -19 5c-2 0 -5 2 -7 2c-1 0 -2 0 -3 -1c-2 -2 -4 -1 -5 0c-15 12 -27 2 -45 28c-12 16 -14 33 -16 51c-2 19 -4 37 -3 56c9 153 38 206 66 288c2 6 6 11 6 17
c-4 1 -5 -1 -6 -3c-31 -34 -55 -72 -76 -113c-35 -71 -115 -265 -116 -268c-7 -17 -16 -33 -24 -50c-3 -5 -7 -9 -13 -9c-1 0 -2 1 -4 1c-9 1 -18 -1 -26 7c-1 1 -3 1 -5 1c-3 0 -5 0 -7 -1s-4 -1 -5 -1c-7 0 -6 11 -13 11c-1 0 -2 0 -4 -1s-4 -1 -6 -1c-8 0 -14 6 -15 15z
M-29 69c-1 -13 -2 -26 1 -40c6 4 3 5 14 80c13 81 82 323 76 361c-2 -1 -2 -2 -3 -3c-17 -92 -28 -122 -54 -226c-14 -55 -28 -108 -34 -172zM220 131c-1 -17 -1 -34 2 -51c3 24 -2 98 53 259c12 35 25 69 34 105c1 4 4 7 1 11c-8 -5 -8 -5 -10 -12
c-54 -150 -74 -201 -80 -312zM70 361c-11 -52 -59 -254 -53 -258c1 -1 0 1 1 0c4 8 52 241 52 258zM254 125c9 0 -9 6 58 221c3 8 27 83 23 91c-5 -3 3 8 -27 -86c-13 -41 -53 -167 -54 -226zM79 172c21 42 41 85 62 127c6 12 14 22 18 35c5 5 9 11 11 18c4 2 6 5 6 10
c2 1 3 2 8 9c-7 0 -8 -4 -8 -9c-5 -1 -6 -6 -7 -10c-5 -5 -9 -10 -10 -17c-9 -2 -82 -156 -83 -157c-2 -4 -3 -9 -3 -16c3 4 4 7 6 10zM11 48c-4 -4 -5 -7 -2 -13c2 5 3 8 2 13zM184 371c1 2 2 5 4 8c-4 -2 -7 -3 -4 -8zM208 405c-2 -1 -7 -1 -4 -5c1 2 3 3 4 5zM254 123
v-10c2 5 1 8 0 10z" />
    <glyph glyph-name="o" unicode="o" 
d="M-37 24c-4 12 -16 9 -9 70c4 41 39 120 57 146c4 6 4 13 -1 20c-13 14 -18 31 -23 48c-9 34 20 98 43 128c28 39 68 65 109 65c16 0 32 -4 48 -13c11 -6 36 -2 62 -15c23 -11 36 -30 39 -53c6 -40 5 -37 4 -62c-5 -94 -55 -267 -133 -360c-18 -23 -42 -31 -67 -31
c-30 0 -62 11 -94 23c-18 7 -30 18 -35 34zM72 118c-5 -26 -5 -51 1 -76c60 31 186 297 118 397c-3 5 -5 7 -8 7c-2 0 -5 -1 -9 -3c-53 -20 -93 -95 -92 -121c1 0 2 -1 3 -1c4 0 9 4 16 4c4 0 9 -1 15 -4c8 -4 15 -7 24 -7c3 0 6 0 9 1c1 1 3 1 4 1c4 0 9 -2 10 -6
c3 -5 -4 -17 -9 -19c-7 -2 -12 -7 -16 -12c-5 -6 -10 -13 -15 -20c-13 -21 -16 -22 10 -34c3 -2 8 -3 7 -7c-1 -2 -2 -2 -4 -2h-8c5 -4 13 -5 8 -13c-3 -5 -6 -6 -9 -6c-2 0 -3 0 -5 1c-1 0 -23 5 -25 5c-10 0 -23 -70 -25 -85zM92 21c73 56 119 197 135 280c1 5 1 5 -1 11
c-26 -102 -61 -202 -134 -291zM16 349c16 50 51 87 63 103c-40 -26 -61 -61 -63 -103zM-14 107c8 2 2 31 45 114c2 3 8 9 0 11c-5 1 -7 -4 -9 -8c-19 -37 -36 -75 -36 -117zM149 41c42 54 54 102 66 122c-1 4 3 8 1 13c-3 -5 -6 -9 -1 -13c-13 -2 0 -7 -55 -101
c-3 -6 -9 -12 -11 -21zM58 216c-10 -17 -17 -34 -19 -53c7 18 15 35 22 52c-1 1 -2 1 -3 1zM53 363c9 16 18 31 27 47c-14 -13 -23 -29 -27 -47zM119 487c5 0 10 -1 14 -1c6 0 13 1 19 2c-8 2 -13 3 -17 3s-8 -1 -16 -4zM110 317c0 1 -2 2 -3 2s-3 -1 -4 -2c0 -1 1 -1 2 -1
c2 0 5 -1 5 1zM85 417c-1 0 0 -1 0 -2c1 1 3 3 3 4c1 1 -1 2 -3 -2z" />
    <glyph glyph-name="p" unicode="p" horiz-adv-x="370" 
d="M105 285c40 63 89 156 147 175c3 1 5 1 7 1c16 0 21 -16 31 -15c32 0 42 -14 51 -43c9 -28 -18 -166 -57 -259c-23 -54 -56 -98 -104 -98c-23 0 -69 14 -86 27c-2 1 -3 2 -5 2c-3 0 -5 -3 -6 -7c-9 -35 -33 -85 -58 -295c-7 -64 -8 -61 -26 -62c-1 -1 -2 -1 -3 -1
c-4 0 -7 2 -11 2h-3c-5 0 -6 4 -6 13c-4 -5 -9 -5 -13 -5s-7 0 -10 -3c-2 -2 -4 1 -5 4c-3 5 -4 12 -5 20c-2 -2 -4 -3 -3 -4c-5 -7 -9 -10 -13 -10c-6 0 -10 5 -13 16c-5 22 -6 45 -8 67c-2 35 2 68 6 102c17 193 168 681 196 681c1 0 2 -2 3 -5c1 -4 20 -19 25 -19
c2 0 4 1 7 4c1 1 2 2 3 2c5 0 9 -7 9 -14c0 -10 -2 -20 -4 -30c-33 -182 -40 -206 -48 -245c1 -1 2 -1 2 -1zM235 134c17 8 51 103 51 121c-2 -3 -13 -37 -26 -68c-11 -27 -24 -50 -25 -53zM135 110c19 11 33 30 47 47c15 20 39 80 51 103c16 34 37 98 37 137c0 3 1 6 -4 8
c-48 -33 -125 -199 -149 -254c-4 -6 -6 -13 4 -17c3 -1 3 -5 5 -9c2 -5 3 -10 9 -15zM104 562c-22 -41 -197 -618 -164 -712c13 55 -11 75 97 483c14 51 50 170 67 215c1 4 3 8 0 14zM173 107c41 22 104 169 102 224c-18 -69 -60 -169 -102 -224zM177 361
c-38 -37 -91 -133 -89 -154c24 55 55 105 89 154zM20 119c2 10 6 21 6 33c-4 -11 -7 -21 -6 -33zM15 102c-1 -5 -5 -10 -2 -15c2 5 4 9 2 15zM255 452c1 -2 3 -4 5 -4c1 0 2 1 4 2c-2 1 -4 3 -6 3c-1 0 -2 0 -3 -1z" />
    <glyph glyph-name="q" unicode="q" horiz-adv-x="391" 
d="M-50 61c-5 28 -4 55 3 82c17 79 14 68 52 167c21 53 91 190 153 190c15 0 30 -6 37 -15c5 -6 11 -8 19 -9c44 -5 42 -45 48 -68c22 22 52 57 69 81c2 3 6 5 10 5c14 -1 2 -13 3 -22c4 4 8 6 11 6c4 0 8 -2 12 -5c2 -2 5 -3 8 -3c2 0 4 0 6 1s4 1 5 1c13 0 18 -17 14 -30
c-29 -112 -163 -342 -215 -620c-4 -24 -6 -48 0 -73c2 -13 -3 -37 -8 -37c-4 0 -7 -1 -11 -1c-6 0 -12 1 -17 6c-6 6 -12 0 -16 7c-3 -2 -5 -3 -6 -3c-5 0 -6 6 -7 11c-1 2 -2 4 -6 6c-3 -3 -2 -10 -9 -9c-5 1 -7 5 -9 10c-26 65 -14 78 7 162c52 202 79 249 77 260
c-10 -14 -54 -90 -102 -139c-9 -10 -20 -14 -30 -14c-7 0 -14 1 -21 4c-6 2 -14 2 -19 10c-3 5 -24 -2 -28 13c-1 4 -6 4 -10 5c-12 1 -17 9 -20 21zM112 281c-12 -24 -30 -101 -32 -106v-6c1 1 36 44 38 47c56 87 89 92 87 154c0 20 -2 39 -10 59
c-50 -46 -70 -121 -83 -148zM2 233c0 -11 -15 -50 -15 -78c5 8 16 74 60 173c24 54 49 87 81 127c-30 -6 -70 -79 -83 -108c-14 -31 -25 -64 -35 -97c-3 -6 -8 -10 -8 -17zM73 127c-3 -5 -6 -11 -7 -21c44 51 77 105 116 156c2 3 3 6 2 12c-81 -106 -53 -74 -111 -147z
M114 -154c-1 -6 -4 -11 -1 -18c41 205 74 280 156 470c-20 -20 -27 -43 -53 -114c-17 -50 -37 -100 -53 -151c-22 -71 -45 -115 -49 -187zM142 -189c0 -1 0 -4 1 -4c1 3 31 109 31 113c2 11 9 19 7 30c-8 -16 -18 -59 -20 -64c-6 -25 -13 -50 -19 -75zM136 419
c-27 -30 -45 -65 -58 -103c18 35 36 70 58 103zM182 -49c3 2 4 6 31 97c-7 -9 -10 -20 -14 -30c-5 -23 -14 -44 -17 -67zM260 372c12 15 24 27 31 43c-20 -18 -29 -30 -31 -43zM174 485c-3 3 -6 4 -8 4c-3 0 -5 -1 -7 -2c3 -1 7 -3 11 -3c1 0 3 1 4 1zM325 348
c-2 -4 -5 -7 -4 -11c4 2 5 5 4 11zM294 273c-2 -4 -6 -6 -3 -11c1 3 4 5 3 11zM72 306c-1 -4 -3 -6 -2 -12c1 5 5 7 2 12zM309 311c0 0 1 0 1 -1c3 5 5 8 4 10c-1 0 -1 1 -5 -9z" />
    <glyph glyph-name="r" unicode="r" horiz-adv-x="328" 
d="M234 177c-16 -41 -54 -143 -58 -187c-2 -29 4 -77 31 -82c5 0 10 -1 13 -4c3 -1 6 -2 5 -5s-4 -3 -5 -3c-7 0 -13 1 -22 1c22 -10 27 -3 27 -12c-1 -11 -2 -13 -8 -14c-7 -2 -15 -2 -23 -2c-37 0 -90 8 -108 46c-5 11 -12 21 -11 34c-10 16 -6 33 -9 50c-4 21 1 41 4 61
c8 82 45 158 71 212c12 26 13 29 18 33c8 6 -2 0 19 38c5 10 11 21 16 31c10 17 8 41 -4 54c-2 2 -4 3 -6 3c-7 0 -10 -23 -51 -89c-19 -31 -158 -319 -184 -344c-12 -12 -22 -16 -31 -16c-12 0 -21 6 -30 6c-2 0 -4 0 -6 -1c2 25 5 15 45 79c24 38 162 338 182 378
c7 13 -11 6 -65 34c-26 13 -44 36 -35 69c26 65 46 93 70 107c12 6 21 9 29 9c17 0 25 -13 40 -13c2 0 4 0 7 1s6 1 9 1c21 0 46 -15 50 -45c6 -37 -3 -86 -13 -122c-2 -6 0 -8 6 -10c161 -40 85 -150 27 -298zM33 545c7 23 18 44 31 64c-15 -15 -46 -49 -31 -64zM60 544
c2 7 5 15 9 22c-7 -5 -11 -13 -9 -22zM112 651c-2 1 -3 1 -5 1c-3 0 -6 -2 -8 -3c2 0 4 -1 5 -1c3 0 5 1 8 3zM-63 47c4 3 5 6 4 11c-1 -3 -4 -5 -4 -11zM132 444c1 2 -1 3 -3 3c-1 0 -2 0 -2 -1c-4 -5 -15 -38 -49 -96c-5 -10 -129 -276 -131 -287c12 12 182 367 185 381z
M128 496c8 35 19 68 7 104c-3 -1 -4 -1 -5 -2c-13 -13 -42 -48 -37 -65c4 -19 17 -30 35 -37zM159 542c2 9 4 19 0 31c-6 -37 -7 -48 -16 -77c-1 -3 -1 -6 3 -6c3 -1 4 2 4 4c4 16 7 31 9 48zM172 485c1 7 4 10 1 15c-1 -4 -4 -8 -1 -15zM178 510c1 4 2 8 2 12
c-1 -3 -5 -7 -2 -12zM96 -2c21 177 97 281 128 359c4 11 6 23 1 38c-2 -4 -3 -5 -4 -7c-9 -40 -30 -77 -48 -113c-32 -62 -92 -187 -80 -256c1 -7 -2 -14 3 -21zM133 4c41 214 128 308 124 358c-24 -76 -118 -236 -126 -349c-1 -3 -3 -6 2 -9z" />
    <glyph glyph-name="s" unicode="s" horiz-adv-x="322" 
d="M95 -71h-10c-42 0 -43 7 -81 28c-10 6 -11 10 -10 24c10 55 87 109 139 136c7 3 7 4 2 11c-13 16 -29 29 -45 44c-53 45 -102 74 -103 143c0 82 134 224 217 224c14 0 28 -5 39 -16c4 -4 9 -7 15 -8c33 -6 56 -40 41 -90c-19 -63 -52 -110 -76 -148
c-9 -14 -31 -43 -49 -43c-5 0 -11 2 -16 4c-10 6 -10 10 -2 16c22 17 110 171 85 221c-3 7 -5 9 -8 9c-2 0 -4 0 -7 -1c-42 -8 -96 -62 -124 -98c-26 -35 -27 -73 -7 -113c32 -62 143 -105 143 -207c0 -53 -51 -121 -124 -132c-8 -1 -14 -5 -19 -4zM56 376c5 4 9 11 11 17
c-5 -5 -10 -10 -12 -17c-3 -3 -6 -6 -6 -11c5 3 7 5 7 11zM186 276c10 9 45 71 63 119c1 3 2 4 0 8c-8 -15 1 -10 -63 -125c-4 -3 -7 -7 -7 -12c3 3 7 6 7 10zM53 -16c20 -2 104 35 103 89c0 4 2 7 -2 9c-2 2 -6 -2 -12 -6c-32 -20 -59 -46 -81 -75c-3 -5 -7 -9 -8 -17z
M118 477c-33 -19 -103 -85 -100 -122c25 49 60 87 100 122zM173 57c-12 -24 -26 -45 -46 -65c26 10 46 39 46 65zM56 48c-19 -9 -42 -40 -42 -54c12 21 27 38 42 54zM172 -2c13 10 17 17 17 26c-5 -8 -11 -16 -17 -26zM217 527c-2 2 -5 3 -8 3c-2 0 -4 -1 -6 -2
c4 0 7 -2 10 -2c1 0 3 0 4 1z" />
    <glyph glyph-name="t" unicode="t" horiz-adv-x="189" 
d="M-75 554c-3 1 -4 5 -2 6c7 7 11 16 22 19c21 4 42 12 63 18c85 23 94 9 103 30c38 89 31 68 77 166c2 6 6 12 9 16c2 3 4 5 7 4s5 -4 5 -7c-3 -6 1 -3 4 -6c7 -2 12 -7 21 -7c4 1 6 -6 7 -10c6 -31 -7 -75 -27 -156c5 -2 10 -2 16 -2c11 0 26 2 51 2c12 0 27 -1 44 -2
c17 -2 50 -2 50 -10c0 -4 -5 -2 -6 -5c12 -2 23 -13 36 -14c3 0 6 -2 7 -6s-2 -3 -5 -4c-2 -1 1 -2 1 -3c2 -7 0 -12 -6 -12h-3c-9 1 -21 1 -35 1c-52 0 -129 -6 -161 -9c-14 -1 -7 -11 -30 -68c-12 -29 -59 -198 -61 -203c-12 -33 -37 -151 -40 -162
c-14 -59 -18 -137 -16 -192c1 -16 2 -33 16 -47c3 -3 2 -7 -2 -7c-1 0 -2 0 -4 1c-1 1 -2 2 -5 0c6 -5 10 -10 5 -17c-2 -3 -5 -5 -9 -5c-1 0 -2 0 -4 1c-8 5 -17 7 -25 15c-1 1 -2 2 -3 2c-14 2 -20 16 -30 22c-9 5 -15 13 -16 23c-5 23 -17 35 -17 93c0 40 3 189 20 227
c5 12 4 27 7 40c26 105 81 244 86 254c1 0 0 2 0 5c-59 -9 -86 -16 -103 -16c-10 0 -16 3 -23 11c-11 -1 -14 13 -24 14zM63 425c1 10 4 18 9 27c4 4 7 9 5 15c4 2 6 7 5 13c10 10 10 24 14 36c6 3 6 8 4 14c-4 -3 -4 -9 -4 -14c-8 -10 -12 -22 -14 -36c-4 -3 -6 -8 -5 -14
c-3 -4 -5 -8 -5 -14c0 -11 -4 -19 -9 -27zM108 551c-5 -7 -8 -12 -7 -19c4 4 8 9 7 19zM47 377c-4 -7 -3 -11 -1 -8c2 2 4 4 1 8zM163 691c-5 -4 -3 -9 -2 -6c2 1 4 2 3 4c0 1 -1 1 -1 2zM153 665c-1 -1 6 1 2 7c-1 -3 -2 -5 -2 -7zM150 657c-3 -2 -4 -4 -3 -6
c0 -1 1 -2 1 -2c2 2 3 4 2 8zM175 713c0 0 -1 1 -2 1c-2 0 -3 -1 -2 -4c0 -3 3 2 4 3z" />
    <glyph glyph-name="u" unicode="u" horiz-adv-x="422" 
d="M327 -24c5 -4 9 -6 8 -13c-3 -7 -5 -8 -12 -8c-3 1 -7 1 -10 2c-36 11 -72 19 -84 54c-23 72 -8 137 -15 146c-27 -48 -36 -77 -69 -126c-24 -38 -39 -52 -60 -52c-7 0 -15 2 -24 4c-7 1 -13 4 -21 5c-9 0 -16 9 -21 9c-12 1 -27 9 -33 18c-63 92 17 375 87 468
c2 4 10 8 17 8c1 0 3 -1 4 -1c3 -2 8 -4 2 -7c-4 -2 -2 -5 3 -6c4 -1 8 0 13 -3c3 -3 6 -7 10 -7c3 0 5 1 8 4c1 1 2 1 3 1c4 0 9 -5 7 -10c-1 -9 -12 -24 -41 -127c-12 -49 -42 -220 -31 -272c30 12 178 312 235 412c2 3 3 7 9 7h3c5 -1 4 -5 2 -14c1 1 4 0 4 0
c1 2 5 4 6 2c5 -4 10 -5 15 -5h5c6 0 11 0 16 -5c31 -32 -63 -260 -53 -415c5 -65 29 -56 27 -66c0 -2 -1 -2 -3 -2h-3s-3 0 -4 -1zM259 370c-150 -301 -141 -265 -180 -334c42 32 156 271 178 319c1 3 4 6 2 15zM-1 154c14 107 41 220 93 313c-38 -22 -99 -240 -93 -313z
M266 291c-3 -5 -19 -59 -16 -66c3 5 19 59 16 66zM247 195c1 7 4 10 1 16c-2 -4 -5 -7 -1 -16z" />
    <glyph glyph-name="v" unicode="v" horiz-adv-x="328" 
d="M56 493c2 -19 -5 -7 -18 -79c-22 -122 -26 -256 -28 -285c1 -3 0 -6 2 -8c8 2 0 6 11 121c6 52 17 183 37 233c3 7 6 11 10 11c3 0 6 -1 10 -4c3 -2 4 -2 6 -2c5 0 5 9 12 9h2c14 -5 5 11 -1 -292c-3 -128 -8 -126 -2 -126h2c3 0 4 1 4 3c31 44 62 94 82 141
c3 9 8 16 12 24c40 100 53 181 53 245c-1 23 -14 26 -9 44c1 4 4 7 6 7c1 0 3 -1 4 -2c6 -6 16 -5 24 -8c2 -1 3 -1 4 -1c6 0 2 9 8 9c1 0 3 0 5 -1c49 -20 17 -355 -154 -533c-18 -19 -37 -24 -58 -24c-19 0 -39 5 -59 8c-15 2 -22 12 -27 24c-32 72 13 378 43 465
c2 9 5 18 19 21zM133 78c86 123 130 253 133 392c-11 -137 -54 -268 -133 -392zM12 115c-2 -6 -2 -11 1 -16c2 6 4 10 -1 16zM247 251c4 2 7 6 4 10c-2 -3 -2 -6 -4 -10zM276 349c-1 1 0 2 -2 1v-4c1 1 1 2 2 3zM271 336c-3 -2 0 -5 0 -9c1 4 2 7 0 9z" />
    <glyph glyph-name="w" unicode="w" horiz-adv-x="494" 
d="M-44 24c-4 25 -6 50 -4 75c9 91 58 273 120 381c2 5 5 10 12 10c1 0 3 0 5 -1c-3 -25 -68 -129 -107 -327c-6 -27 -9 -55 -5 -83c8 79 48 240 113 386c4 9 6 14 10 14c1 0 2 -1 4 -2c4 -2 9 -5 14 -5c3 0 6 1 9 5c1 1 3 2 4 2c5 0 11 -6 11 -12c-3 -37 -44 -139 -88 -355
c1 -1 2 -1 3 -1c6 9 72 103 73 104c32 49 61 77 81 120c3 5 6 7 9 7c4 0 6 -2 6 -6c-1 -6 -4 -12 -3 -19c4 0 4 3 6 5c5 7 7 10 10 10c2 0 5 -1 10 -4c3 -2 5 -2 7 -2c7 0 9 8 14 8c2 0 3 0 5 -1c21 -11 -2 -73 -9 -220c7 3 11 8 13 13c66 122 114 205 121 346
c1 12 2 25 -9 34c-3 3 0 6 1 9c2 4 8 3 5 10c-1 2 2 3 4 3c3 0 6 -1 8 -3c5 -5 11 -9 17 -13c2 -1 3 -1 4 -1c4 0 5 4 10 4c2 0 4 0 8 -3c18 -12 16 -44 16 -68c-5 -181 -112 -384 -153 -413c-10 -7 -21 -10 -34 -10c-21 0 -44 7 -71 14c-27 8 -38 44 -38 73v38
c-14 -10 -47 -87 -98 -151c-6 -7 -12 -10 -23 -10c-13 0 -32 5 -62 12c-13 3 -26 13 -29 27zM312 131c78 140 88 219 96 242c0 5 3 9 -1 14c-1 -5 -1 -10 1 -14c-1 0 -1 1 -2 1c-4 0 -3 -10 -17 -47c-27 -77 -39 -117 -111 -243c15 14 25 30 34 47zM91 408
c-40 -106 -74 -243 -79 -292c5 1 2 0 17 68c25 110 54 190 68 233c-6 0 -5 -6 -6 -9zM203 205c-11 -24 -12 -50 -9 -77c3 26 10 51 9 77zM125 174c6 5 10 10 12 17c-7 -4 -12 -9 -12 -17c-9 -6 -13 -15 -16 -25c6 8 14 15 16 25zM137 192c5 0 5 4 5 8c8 6 14 13 17 26
c-9 -9 -14 -17 -17 -26c-4 -1 -6 -4 -5 -8zM55 69c8 11 18 22 23 35c-11 -9 -17 -22 -23 -35zM390 240c4 4 6 7 5 12c6 8 8 18 10 28c-5 -9 -10 -18 -10 -28c-4 -3 -5 -7 -5 -12zM98 418c5 16 8 26 9 31c-10 -18 -10 -22 -9 -31zM87 114c5 8 10 16 15 23
c-7 -6 -14 -12 -15 -23zM356 160c1 3 -1 1 -3 -2c0 -1 0 -2 1 -2c1 1 2 3 2 4zM12 115c-1 -8 -1 -13 0 -16v16zM235 214c-1 -3 0 -5 1 -7c0 2 1 5 -1 7zM241 253c-1 -5 -1 -4 1 -6c0 6 0 4 -1 6zM238 229v-2c2 0 1 1 1 3v3c-1 -1 -1 -3 -1 -4z" />
    <glyph glyph-name="x" unicode="x" horiz-adv-x="347" 
d="M-116 -171c-8 6 -7 14 -6 22c4 21 9 43 18 63c92 199 71 139 134 259c3 5 5 10 9 15c7 7 9 16 7 25c-2 8 -2 17 -6 25c-5 8 -12 64 -12 76c-1 32 -7 85 4 152c1 8 3 12 7 12c2 0 5 -2 9 -5c8 -6 18 -4 25 -9c2 -1 9 7 17 7c5 0 10 -3 14 -13c15 -35 22 -101 29 -120
c59 76 116 155 152 155c6 0 11 -1 15 -5c-2 -6 -9 -1 -11 -6c1 -1 4 -3 6 -3c1 0 2 0 3 1c2 2 5 2 7 2c8 0 16 -7 24 -7c3 0 5 1 8 3c1 1 2 2 4 2c3 0 5 -2 8 -3c6 -3 8 -7 2 -12c6 -19 -18 -21 -74 -104c-6 -9 29 42 -104 -151c-7 -9 0 -18 3 -26c12 -35 43 -98 69 -120
c13 -11 29 -36 48 -36c5 0 9 2 14 5c3 2 5 3 7 3c4 0 7 -5 8 -12c4 -22 -14 -36 -36 -36h-5c-69 7 -93 4 -176 104c-1 1 -2 3 -4 7c-7 -10 -86 -138 -133 -236c-3 -6 -6 -12 -2 -19c2 -2 1 -4 -2 -5c-4 -2 -3 -3 -1 -7c5 -8 1 -16 -8 -17c-4 -1 -7 -1 -10 -1
c-14 0 -20 6 -29 6h-4c-6 -2 -9 9 -12 9s-7 -2 -10 -2c-2 0 -4 1 -6 2zM-99 -122c-2 -6 -4 -11 0 -17c5 1 4 4 5 7c15 40 35 79 54 117c89 173 109 177 98 188c-31 -43 -137 -238 -157 -295zM149 317c-4 -6 -9 -12 -6 -23c38 55 75 107 118 156c-8 -6 -17 -12 -23 -19
c-33 -36 -61 -75 -89 -114zM-70 -138c6 5 9 13 8 21c6 0 6 4 6 9c-5 -2 -5 -6 -6 -9c-3 -7 -7 -13 -8 -21zM-73 -149c5 4 4 7 3 11c-3 -3 -3 -6 -3 -11z" />
    <glyph glyph-name="y" unicode="y" horiz-adv-x="379" 
d="M201 196c-34 -50 -82 -138 -108 -163c-18 -17 -33 -22 -46 -22c-20 0 -33 12 -37 13c-16 2 -26 15 -39 21c-9 4 -13 14 -16 24c-32 114 113 416 121 423c2 2 4 4 7 4c1 0 2 0 3 -1c6 -3 2 -8 2 -13c7 -1 15 -2 20 -8c1 -2 3 -2 5 -2c1 0 3 0 5 1s5 1 6 1
c23 0 -11 -71 -57 -236c-10 -35 -24 -91 -24 -128c27 17 91 109 106 133c90 133 101 209 110 214c2 2 4 2 6 2s4 0 6 -2c3 -2 1 -6 0 -9s-1 -7 -1 -10c6 0 9 9 12 5c4 -4 10 -1 13 -8c1 -2 2 -3 4 -3c0 0 1 0 2 1c2 4 6 5 9 5c8 0 16 -8 15 -21c-1 -15 -8 -68 -9 -83
c-18 -111 -11 -119 -54 -300c-28 -121 -92 -343 -249 -343c-45 0 -79 17 -116 40c-16 10 -23 27 -24 48c-1 8 9 14 11 32c16 -1 12 -16 18 -18c4 -1 8 0 13 -2c9 -6 14 -14 17 -14c2 0 3 3 5 8c1 4 4 6 7 6c5 0 11 -5 14 -13c2 -7 3 -9 7 -9c2 0 4 0 8 2c34 12 60 36 81 67
c23 32 47 41 111 239c8 24 14 49 19 74c-1 0 18 45 17 45zM228 227c-28 -117 -32 -143 -90 -290c-46 -117 -79 -134 -89 -159c18 11 57 57 81 110c55 122 83 264 98 321c1 5 2 9 0 18zM249 383c-50 -93 -119 -207 -195 -299c41 24 142 188 167 235c3 5 31 54 28 64zM-14 194
c7 3 1 16 45 131c40 109 55 132 48 141c-25 -45 -91 -225 -93 -272zM126 -189c34 45 54 96 70 152c-22 -52 -42 -104 -70 -152z" />
    <glyph glyph-name="z" unicode="z" horiz-adv-x="380" 
d="M-5 -256c-46 22 -50 28 -43 46c17 49 78 109 118 146c146 137 105 79 129 134c7 16 10 33 13 50c1 7 0 9 -4 9c-36 0 -103 -47 -130 -70c-7 -5 -11 -8 -16 -8c-4 0 -8 2 -14 4c-5 2 -10 3 -14 7c1 3 5 5 4 10c-3 -2 -5 -3 -8 -3c-5 0 -9 3 -14 2s-4 3 -5 5
c-2 6 3 10 3 15c-6 2 -12 -6 -18 -6c-2 0 -4 0 -6 2c-5 4 -4 9 -1 13c15 29 51 72 73 97c26 29 166 210 163 247c-42 -7 -126 -81 -173 -150c-4 -6 -9 -11 -5 -20c2 -7 -8 -12 -13 -16c-2 -1 -4 -2 -5 -2c-4 0 -7 2 -10 4c-12 9 -35 6 -33 25c5 33 78 136 162 189
c21 13 51 27 76 27c14 0 26 -5 34 -16c6 -10 12 -5 28 -12c24 -10 33 -30 27 -54c-20 -87 -125 -217 -128 -227c2 -2 3 -2 5 -2h5c16 -2 32 -7 41 -20c4 -6 10 -6 16 -7c30 -5 52 -28 52 -56c2 -111 -134 -309 -228 -361c-15 -9 -28 -13 -41 -13c-12 0 -25 4 -40 11zM41 136
c35 27 14 5 71 77c98 125 117 175 124 187c-5 -2 -5 -5 -5 -8c-14 -8 -13 -34 -170 -228c-7 -8 -17 -14 -20 -28zM83 -155c-52 -60 -65 -54 -57 -63c69 49 113 113 151 181c-21 -11 -5 -16 -94 -118zM6 295c37 66 89 119 155 166c-49 -16 -153 -129 -155 -166zM93 -65
c2 2 4 4 3 7c6 0 8 4 10 8c3 0 0 -3 54 47c2 2 6 3 5 6c-56 -46 -56 -45 -60 -53c-5 -1 -9 -3 -9 -8c-1 -1 -3 -1 -4 -2c-27 -25 -113 -102 -117 -137c11 5 7 29 118 132zM100 -190c27 22 48 49 66 77c-22 -25 -43 -52 -66 -77zM139 199c5 3 18 21 20 27c-4 -3 -9 -6 -7 -12
c-9 -2 -11 -9 -13 -15c-10 -7 -13 -12 -15 -22c6 8 13 14 15 22zM85 -204c9 0 9 6 10 9c-5 -1 -8 -4 -10 -9zM182 -89c-5 -5 -8 -8 -9 -14c7 3 7 8 9 14zM192 179c7 -3 8 -3 15 -3c-3 3 -5 4 -9 4c-2 0 -4 0 -6 -1zM182 257c-6 -4 -7 -7 -8 -11c4 2 5 6 8 11zM194 -70
c-3 -3 -3 -2 -2 -5c2 4 2 3 2 5zM119 406c-3 -2 -2 -2 -2 -3c3 3 2 2 2 3z" />
    <glyph glyph-name="zero" unicode="0" horiz-adv-x="373" 
d="M-6 169c-2 62 11 135 28 193c24 80 62 158 98 211c15 22 62 86 92 86c4 0 9 0 11 -5c13 -13 15 -14 32 -14h3c8 0 11 -6 7 -17c20 1 28 -13 37 -28c9 -16 28 -62 28 -64c3 -38 21 -70 -19 -263c-12 -61 -40 -169 -82 -218c-8 -10 -16 -19 -26 -28
c-15 -12 -30 -19 -48 -19c-5 0 -10 1 -16 2c-49 9 -99 18 -123 66c-10 20 -13 42 -19 63c-4 11 -3 23 -3 35zM216 557c-85 -131 -117 -294 -111 -394c1 -8 4 -16 4 -24c-1 -17 7 -31 11 -49c20 11 27 32 39 47c6 8 7 19 11 28c34 63 53 176 60 245c1 11 4 23 3 35
c-2 28 0 56 -8 83c-2 5 -1 11 -2 16c-2 4 -1 10 -7 13zM152 79h2c2 0 3 1 5 2c14 15 25 32 34 51c53 116 63 264 67 277c0 6 -1 12 -1 18c-1 -6 -7 -13 1 -18c-8 -2 -6 -9 -7 -14c-4 -18 -6 -37 -10 -56c-12 -63 -53 -218 -91 -260zM193 624c-103 -84 -166 -269 -169 -398
c23 167 87 303 169 398zM217 113c6 4 7 7 3 12h3c5 0 5 5 7 9c20 47 42 128 39 141c-14 -47 -25 -103 -49 -150c0 -4 -3 -7 -3 -12zM133 484c6 8 12 17 14 27c6 4 8 9 8 16c-4 -5 -8 -9 -8 -15c-7 -8 -12 -17 -14 -28zM118 449c3 6 6 12 7 19c-4 -6 -9 -11 -7 -19
c-6 0 -5 -5 -6 -10c4 3 5 7 6 10zM223 654c-1 -5 -8 -1 -6 -7c0 -1 1 -1 3 -1c1 0 3 0 3 2v6zM107 428c-2 -4 -4 -6 -3 -12c2 4 6 6 3 12z" />
    <glyph glyph-name="one" unicode="1" horiz-adv-x="179" 
d="M-2 63c-2 5 -2 11 -2 17c2 48 2 89 22 200c8 40 31 112 43 153c7 28 20 54 28 82c9 32 22 61 34 92c6 13 14 26 20 39c3 5 6 9 12 9c5 -1 7 -5 7 -10c1 -7 8 -4 11 -6c5 -4 9 -5 14 -5h6h3c8 0 14 -6 11 -16c-13 -59 -38 -134 -48 -175c-10 -40 -33 -101 -62 -234
c-8 -35 -15 -70 -19 -106c-2 -16 -3 -32 -2 -48c0 -8 1 -17 8 -23c3 -3 5 -7 -2 -8c-6 -1 -1 -4 0 -5c5 -4 3 -7 1 -12c-1 -3 -3 -4 -5 -4s-10 2 -12 3c-15 6 -31 10 -45 18c-15 8 -20 23 -23 39zM38 249c3 11 7 19 2 28c10 0 1 9 47 154c62 191 64 173 58 182
c-6 -10 -9 -20 -12 -30c-20 -57 -75 -217 -87 -277c-1 -9 -1 -20 -6 -29c1 -8 -4 -16 -2 -28z" />
    <glyph glyph-name="two" unicode="2" horiz-adv-x="357" 
d="M-26 51c-10 4 -12 9 -9 20c5 23 2 4 175 256c38 53 112 170 119 236c0 2 1 3 2 5c1 16 -1 18 -15 18c-49 -3 -110 -42 -147 -78c-4 -4 -8 -9 -10 -14c-5 -10 -11 -14 -17 -14c-5 0 -10 2 -16 7c-8 6 -14 16 -23 20c-5 2 -5 6 -3 11c23 59 128 137 196 137
c25 0 47 -9 60 -30c3 -5 7 -7 12 -9c26 -12 44 -33 49 -63c6 -36 0 -52 -22 -112c-24 -64 -59 -120 -91 -179c-28 -53 -61 -102 -94 -151c-1 -2 -4 -4 -3 -9c66 -6 94 -8 121 -17c5 -2 11 -5 16 -8c4 -2 9 -4 7 -11c-2 -5 3 -5 5 -6c8 -6 18 -9 27 -13c8 -3 12 -8 13 -16
c-1 -1 -2 -1 -3 -1c-3 0 -6 4 -9 3c-3 -2 2 -4 4 -9c4 -6 3 -9 -3 -13c-2 -1 -5 -2 -7 -2s-4 1 -6 1c-27 7 -54 9 -79 9c-52 0 -96 -10 -113 -11c-7 0 -15 -4 -23 -6c-10 -4 -21 -5 -32 -7c-3 -1 -5 -1 -8 -1c-13 0 -25 9 -33 20c-5 7 -10 12 -17 13c-20 5 0 20 -16 21
c-3 0 -5 1 -7 3zM8 91c1 -1 2 -1 3 -1c4 0 7 5 10 7c1 1 1 3 2 4c15 16 26 35 40 52c44 57 179 266 193 316c5 2 5 6 5 12c-4 -4 -7 -7 -5 -12v0c-3 1 -4 -2 -5 -4c-36 -63 -38 -70 -113 -185c-40 -62 -95 -133 -126 -176c-3 -4 -8 -9 -4 -13zM71 107c-1 -1 -3 -3 -1 -6
c5 0 1 -6 61 81c4 6 9 11 11 19c4 3 6 8 7 13c-4 -3 -8 -6 -8 -12c-8 -7 -22 -32 -70 -95zM98 572c3 2 7 3 7 8c9 1 15 9 22 15c-8 -4 -17 -6 -22 -15c-23 -13 -42 -30 -57 -55c11 0 3 4 50 47zM235 641c4 0 8 -1 11 -1c3 -4 7 -6 13 -6c-4 4 -7 6 -13 6c-2 2 -4 3 -6 3
c-1 0 -3 0 -5 -2zM245 76c-6 4 -14 4 -21 4c6 -1 12 -4 18 -4h3z" />
    <glyph glyph-name="three" unicode="3" horiz-adv-x="388" 
d="M100 592c-43 -19 -66 -45 -70 -48c-1 -1 -3 -3 -5 -3c-1 0 -2 0 -3 1c-3 3 -2 6 0 9c46 64 164 105 240 108c10 0 20 -3 30 -5c5 -2 9 -6 11 -11c4 -11 11 -15 21 -18c18 -5 28 -18 30 -36c8 -60 -118 -188 -156 -228c6 -7 15 -7 23 -11c13 -6 24 -14 35 -24
c8 -8 18 -13 28 -20c30 -18 49 -45 55 -80c5 -33 -2 -64 -20 -91c-15 -24 -32 -48 -52 -67c-36 -34 -104 -65 -153 -65c-10 0 -21 2 -32 4c-39 10 -75 29 -105 56c-12 12 -13 29 -10 45c6 36 24 69 63 73c1 1 3 0 3 -1c2 -2 1 -4 -1 -5c-2 -2 -5 -4 -3 -7c1 -2 2 -2 4 -2h4
c1 1 2 2 4 2c7 0 9 -9 15 -10c5 -1 9 4 14 4c1 0 3 0 4 -1c3 -2 6 -4 4 -10c-3 -11 -9 -19 -18 -25c-10 -6 -13 -18 -8 -30c1 -3 3 -4 5 -4c1 0 3 1 4 1c9 2 19 2 27 5c17 8 34 14 50 23c21 10 39 24 59 37c26 17 43 41 51 72c4 14 2 29 -2 42c-2 8 -7 13 -16 14
c-12 3 -24 4 -36 4c-11 0 -21 -1 -32 -2c-14 -2 -28 -3 -43 -4c-14 0 -23 9 -34 15c0 12 -11 10 -18 14c-2 1 -4 2 -4 3c0 11 -8 13 -15 16c-10 6 -12 13 -4 22c15 20 31 38 49 55c15 14 31 27 46 42c18 18 37 33 55 51c30 30 50 53 74 87c2 3 3 5 1 7c-1 2 -2 2 -3 2h-3
c-67 -13 -137 -37 -189 -83c-3 -2 -7 -3 -11 -3c-5 0 -12 2 -14 7c-2 4 4 9 1 9c-1 0 -2 0 -4 -1c-4 -1 -9 2 -11 4c-3 4 1 9 4 12c16 18 36 30 56 43c2 1 4 2 5 6zM79 366c3 -3 6 -4 8 -4c11 0 116 105 130 120c20 22 40 45 57 70c6 10 12 20 15 31
c-59 -83 -136 -148 -210 -217zM265 202c-14 -18 -28 -37 -43 -54c-15 -18 -35 -30 -51 -47c43 23 82 49 94 101zM136 365c20 0 116 109 133 131c3 3 7 6 6 13c-42 -53 -90 -97 -139 -144zM276 150c-11 -14 -22 -29 -34 -42c17 9 30 25 34 42zM216 338c-10 7 -15 10 -20 10
c-2 0 -4 0 -7 -1zM-3 131c5 7 9 13 12 18c-12 -4 -12 -4 -12 -18zM286 644c-3 3 -6 4 -9 4c-1 0 -2 0 -4 -1c3 -1 6 -4 10 -4c1 0 2 1 3 1z" />
    <glyph glyph-name="four" unicode="4" horiz-adv-x="349" 
d="M-14 335c-14 10 -16 21 -9 37c14 28 35 56 55 81c43 53 85 106 127 160c14 17 28 33 42 50c2 2 3 4 5 5c2 2 4 3 6 3c1 0 3 0 4 -1c3 -4 -1 -6 -2 -9c-2 -7 -8 -11 -13 -17c-194 -255 -199 -257 -193 -270c39 52 112 150 152 203l51 69c0 1 1 2 1 3c4 5 7 7 10 7
s6 -2 9 -8c2 -3 3 -5 4 -5s2 1 4 2c1 0 2 1 2 1c4 0 6 -4 11 -4h2c-11 -28 -24 -53 -39 -77c-54 -88 -128 -193 -132 -204c4 -1 7 -1 11 -1c29 0 58 2 87 4c6 0 13 1 20 1c4 1 6 4 8 8c3 13 8 27 11 40l9 30c11 38 22 77 35 115c4 13 8 25 11 38c4 15 13 26 18 39
c2 2 4 3 6 3c4 0 8 -1 8 -6c0 -6 -1 -11 5 -11c1 0 2 0 4 1c2 0 5 -4 7 -6c4 -3 6 -5 9 -5c2 0 4 1 7 3c1 1 2 1 4 1c5 0 10 -6 11 -12c3 -14 0 -28 -2 -41c-7 -57 -21 -112 -36 -168c-5 -16 -8 -32 -12 -48c-4 -20 -11 -39 -17 -59c-7 -25 -13 -50 -21 -75
c-9 -29 -18 -58 -26 -88c-7 -28 -16 -55 -19 -84c-1 -5 -3 -10 2 -15c1 -1 2 -3 2 -5c0 -5 -8 -6 -7 -6c5 -3 4 -5 2 -10c-4 -7 -6 -10 -11 -10c-8 0 -20 5 -25 10c-4 3 -9 4 -13 6c-9 6 -19 10 -26 18c-6 7 -6 19 -5 28c2 33 8 64 14 96c4 16 7 32 10 49c1 16 16 76 21 90
c-2 2 -4 2 -5 2c-2 0 -4 0 -6 -1c-31 -7 -61 -9 -93 -10c-19 0 -34 4 -50 15c-9 7 -17 15 -27 19c-2 1 -4 3 -5 5c-3 6 -8 10 -13 14zM36 363c2 0 0 -4 45 61c3 3 6 6 6 10c8 8 15 16 19 27c5 2 7 7 8 12c8 5 12 13 15 22c-5 -7 -13 -13 -15 -22c-4 -3 -8 -6 -8 -12
c-9 -7 -15 -16 -20 -26c-5 -4 3 6 -47 -64c-2 -2 -5 -4 -3 -8zM239 389c-3 -4 -4 -8 -3 -14c3 4 5 8 3 14zM206 268c-2 -6 -5 -9 -3 -15c2 5 4 9 3 15zM208 279c0 -1 1 -2 2 -1c2 3 3 6 2 11c-2 -4 -4 -6 -4 -10zM134 501c3 2 7 4 6 10c-3 -3 -5 -6 -6 -10z" />
    <glyph glyph-name="five" unicode="5" horiz-adv-x="328" 
d="M-21 41c-13 7 -17 19 -15 32c3 25 17 44 31 64c3 5 6 12 13 16c2 1 4 2 6 2c1 0 2 0 3 -1c3 -3 0 -5 -1 -7c-3 -12 -11 -21 -18 -30c-5 -8 -10 -15 -8 -27c11 17 13 26 31 46c2 2 4 3 6 3c1 0 3 0 4 -1c6 -2 7 -3 8 -12c5 2 9 4 14 7c2 2 4 2 6 2s5 -1 7 -3
c4 -3 1 -6 0 -10c-6 -22 -21 -27 -20 -43h3c14 0 25 6 36 11c56 23 107 76 113 138c1 15 -6 26 -10 38c-4 9 -33 10 -41 10c-13 0 -26 -2 -39 -6c-13 -3 -26 -6 -38 -9c-3 -1 -7 -1 -10 -1c-10 0 -20 4 -27 12c-15 17 -26 1 -25 18c0 6 -3 7 -9 7c-13 0 -15 5 -12 18
c6 20 17 37 26 55c18 36 37 72 56 107c15 31 35 60 49 93c-14 1 -21 15 -34 19c-1 0 -3 1 -3 3c2 9 -2 10 -10 10c-6 0 -4 6 -1 10c11 11 23 20 39 24c68 14 108 18 179 18c20 0 66 -1 76 -23c4 -6 9 -9 15 -10c6 -2 12 -5 16 -8c14 -11 14 -25 2 -36c-1 -2 -3 -3 -4 -3
s-2 0 -3 1c-5 2 -10 3 -13 6c-9 10 -21 11 -33 11c-20 -1 -40 -2 -60 -4c-22 -2 -43 -4 -65 -5c-11 -1 -17 -5 -21 -16c-25 -58 -51 -116 -76 -174c-7 -16 -13 -32 -20 -49c9 -3 18 -2 27 -3c24 -5 46 -13 65 -28c13 -9 27 -14 40 -21c22 -12 38 -28 50 -49
c9 -18 8 -36 5 -56c-4 -36 -20 -66 -38 -96c-36 -59 -99 -88 -158 -88c-24 0 -47 5 -67 14c-16 7 -31 16 -47 24zM136 85c38 15 80 73 76 103c-9 -22 -23 -38 -34 -55c-12 -19 -28 -32 -42 -48zM70 437c1 -1 2 -1 3 -2c23 46 46 91 70 136c-2 0 -3 1 -5 2
c-22 -46 -47 -90 -68 -136zM24 343c1 -1 2 -1 3 -2c14 28 27 56 41 83c-1 1 -3 2 -4 3c-14 -28 -28 -56 -40 -84zM222 128c-9 -12 -16 -23 -24 -34c11 4 22 18 24 34zM123 329c6 -1 12 -5 20 -5c2 0 4 0 6 1c-10 4 -16 4 -26 4zM184 76c7 7 15 9 13 17c-4 -4 -9 -8 -13 -17z
M340 638c-3 2 -6 4 -9 3c1 -3 3 -4 5 -4c1 0 3 0 4 1z" />
    <glyph glyph-name="six" unicode="6" horiz-adv-x="359" 
d="M0 111c-7 32 -8 65 -2 98c8 40 25 87 42 123c53 111 142 238 239 311c6 3 10 4 12 4c4 0 6 -3 11 -11c4 -8 15 -9 17 -20c0 -1 1 -1 2 -1c2 0 5 1 6 3c2 1 4 2 6 2s4 -1 6 -3c4 -4 4 -8 1 -13c-3 -4 -5 -9 -8 -12c-56 -69 -98 -129 -142 -208c-9 -16 -15 -33 -24 -50
c1 0 2 -1 3 -1c4 0 7 3 9 5c11 6 22 11 35 12c14 0 23 -1 33 -11c6 -8 13 -10 22 -10c21 1 46 -18 54 -44c10 -31 7 -61 -2 -91c-11 -34 -21 -69 -40 -100c-24 -41 -61 -100 -115 -100c-4 0 -9 0 -14 1c-66 15 -133 46 -151 116zM116 146c-1 -25 4 -48 14 -72
c47 18 92 90 103 137c4 20 6 39 5 59c-1 5 -2 10 -6 14c-38 -13 -69 -46 -90 -79c-4 -5 -6 -13 -14 -12c-7 1 -8 -4 -9 -9c-3 -12 -2 -25 -3 -38zM282 619c-59 -29 -193 -216 -217 -306c54 115 128 215 217 306zM256 217c-20 -58 -49 -109 -89 -154c41 23 93 113 89 154z
M244 106c7 3 7 9 9 15c-4 -4 -9 -8 -9 -15c-6 -4 -9 -8 -10 -17c8 9 8 9 10 17zM212 340c1 -2 4 -3 7 -3c1 -1 3 -1 4 1l-1 1c-4 0 -7 1 -10 1z" />
    <glyph glyph-name="seven" unicode="7" horiz-adv-x="311" 
d="M-34 610c-5 4 -4 7 0 10c6 6 12 12 21 15c32 14 67 20 103 24c12 2 23 2 35 2c36 0 74 -4 97 -37c3 -3 6 -6 10 -8c17 -9 30 -22 39 -38c14 -25 11 -52 6 -78c-2 -11 -5 -22 -9 -33c-10 -34 -23 -66 -38 -98c-3 -7 -3 -14 -7 -20c2 -1 3 -2 5 -2c3 0 5 2 6 1
c6 -4 12 -8 19 -8c3 0 5 0 8 1c3 2 7 -1 5 -8c-4 -16 -16 -22 -31 -25c-10 -3 -20 -6 -31 -7c-6 -2 -9 -4 -12 -10c-23 -47 -48 -93 -72 -140c-22 -44 -43 -88 -60 -134c-4 -8 -12 -23 -21 -23c-5 0 -10 2 -17 7c-6 4 -10 9 -19 10c-9 0 -6 10 -8 15c-3 1 -4 -1 -6 -2
s-4 -2 -6 -2c-3 0 -5 3 -6 7c-1 10 -2 20 2 30c8 26 15 52 25 77c13 33 23 67 40 98c7 14 13 30 20 44c3 6 3 9 -4 13c-11 5 -22 11 -32 19c-4 3 -6 5 -2 10c13 16 15 17 35 20c3 0 7 0 11 1c27 2 30 3 40 26c10 24 24 46 35 69c14 30 27 59 38 90c6 18 13 36 11 56
c-1 9 -5 13 -14 15c-13 3 -25 4 -38 4c-40 0 -81 -7 -120 -15l-12 -3c-4 -1 -8 -2 -11 -2c-5 0 -9 2 -15 8c-7 7 -13 14 -20 21zM29 127c5 7 4 11 1 15c12 0 21 34 23 45c9 13 14 28 21 43c2 3 4 6 2 9c-11 -16 -19 -33 -23 -52c-6 -4 -7 -10 -9 -16c-4 -10 -8 -20 -14 -29
c0 -4 -1 -9 -1 -15zM77 241c13 13 15 29 23 45c-10 -15 -21 -28 -23 -45zM25 117c-4 -6 -8 -11 -7 -20c4 8 7 13 7 20z" />
    <glyph glyph-name="eight" unicode="8" horiz-adv-x="344" 
d="M52 17c-38 13 -71 38 -71 82c0 80 74 192 136 235c11 7 11 10 3 20c-29 36 -52 76 -61 123c-6 31 0 60 16 86c18 33 42 59 77 74c23 11 50 18 76 18c33 0 64 -11 86 -36c9 -12 51 -28 52 -72c0 -12 -2 -25 -7 -36c-14 -34 -33 -65 -52 -95c-21 -33 -41 -66 -62 -99
c-4 -6 -3 -11 2 -16c12 -11 21 -24 30 -37c16 -23 28 -49 20 -78c-22 -75 -108 -176 -187 -182h-7c-18 0 -34 7 -51 13zM152 537c-10 -17 -13 -36 -11 -56c3 -19 30 -107 52 -107c4 0 8 2 11 7c1 1 1 2 1 3c21 39 42 78 65 116c14 21 25 45 28 70c1 14 -1 16 -14 20
c-3 1 -19 2 -27 2c-39 -2 -83 -21 -105 -55zM77 141c-5 -19 -12 -38 -7 -59c2 -7 2 -9 6 -9c1 0 4 0 7 1c26 7 47 23 67 41c36 33 52 48 62 99c-3 23 -11 43 -24 61c-5 7 -7 10 -10 10s-6 -3 -12 -8c-33 -32 -78 -90 -89 -136zM12 143c25 78 74 133 132 184
c-17 -2 -61 -44 -85 -76c-31 -42 -45 -83 -47 -108zM229 188c-20 -35 -42 -69 -71 -97c29 15 69 65 71 97zM92 549c8 11 17 22 25 33c9 10 20 18 29 27c-26 -12 -47 -28 -54 -60zM82 226c5 3 8 6 8 12c-5 -2 -7 -6 -8 -12c-7 -3 -9 -10 -11 -17c5 5 9 11 11 17zM284 487
c-4 -5 -9 -9 -9 -18c5 6 9 11 9 18zM91 240c7 3 10 9 13 15c-5 -4 -10 -8 -13 -15zM129 561l1 -1h1c4 3 7 7 10 14c-6 -5 -10 -8 -12 -13zM265 641c4 -7 9 -6 13 -7c-3 4 -7 6 -13 7zM222 119c4 1 8 3 8 11c-4 -5 -6 -8 -8 -11zM249 426c-1 -2 -4 -3 -3 -8l3 3c1 2 2 3 0 5z
" />
    <glyph glyph-name="nine" unicode="9" horiz-adv-x="336" 
d="M-20 32c-12 6 -16 22 -10 34c1 1 3 3 4 5c4 8 6 12 8 12s5 -3 9 -9c5 -5 10 -7 14 -7s8 1 11 2c75 19 104 78 127 147c1 4 2 10 4 14c16 31 17 66 32 101c-15 -5 -37 -32 -71 -32c-11 0 -24 3 -39 12c-3 2 -6 4 -9 5c-17 3 -28 15 -42 23c-14 10 -19 26 -20 43
c-2 42 8 80 23 117c25 59 71 156 145 156c16 0 32 -5 48 -19c3 -3 7 -5 12 -6c20 0 35 -10 48 -28c7 15 11 29 19 42c2 3 3 7 7 9c1 0 2 1 4 1c1 0 3 -1 5 -2c3 -2 2 -5 1 -8c-2 -8 -5 -15 -8 -24c5 1 6 5 8 7c5 6 9 10 12 10s7 -3 12 -9c2 -2 4 -4 6 -4c1 0 2 0 4 2
c2 3 5 4 8 4c2 0 5 -1 7 -2c7 -4 8 -11 7 -18c-7 -47 -25 -113 -39 -159c-28 -114 -57 -233 -97 -343c-28 -70 -79 -104 -155 -104c-10 0 -20 1 -30 3c-23 6 -44 14 -65 25zM99 382c20 1 71 60 82 71c15 15 24 34 25 56c1 7 3 14 3 20c2 17 4 34 -1 51c-1 6 -2 8 -5 8
c-1 0 -4 0 -7 -2c-60 -28 -97 -139 -97 -204zM111 94c-3 -4 -7 -9 -8 -17c24 17 38 39 49 63c9 19 40 105 40 128c-14 -17 -17 -37 -25 -56c-16 -41 -29 -82 -56 -118zM120 609c-51 -35 -72 -88 -85 -146c21 53 46 104 85 146zM209 464c-21 -31 -46 -57 -69 -85
c28 21 50 48 70 75c2 3 4 6 -1 10zM201 169c-12 -25 -23 -50 -34 -75c19 22 28 48 34 75zM199 297c11 14 9 34 17 46c-2 0 -4 1 -4 0c-7 -15 -10 -30 -13 -46zM220 369c-3 -8 -9 -16 -4 -24c0 8 7 16 4 24zM100 534c-5 -5 -8 -9 -9 -18c5 7 9 11 9 18zM220 370c5 2 6 6 5 12
c-5 -3 -5 -8 -5 -12zM169 642c3 -1 5 -2 8 -2c2 0 3 0 5 2c-3 1 -5 2 -7 2s-4 -1 -6 -2zM110 550c5 5 8 7 8 13c-4 -2 -6 -6 -8 -13z" />
    <glyph glyph-name="exclam" unicode="!" horiz-adv-x="271" 
d="M48 111c-17 42 24 265 32 299c44 180 43 161 59 208c18 56 14 49 34 93c3 5 5 11 12 10c7 -2 8 -9 5 -16c3 0 5 1 7 1c4 0 7 -1 10 -5c3 -3 6 -4 10 -4c2 0 5 0 7 1c3 1 5 1 7 1c7 0 11 -5 11 -14c1 -41 -41 -218 -50 -258c-85 -350 -55 -292 -60 -323
c-1 -7 0 -15 -7 -19c-2 -1 -5 -2 -8 -2c-5 0 -10 2 -15 4c-2 1 -4 3 -7 4c-1 1 -4 0 -5 2c-1 1 -2 2 -3 2c-3 0 -6 -6 -10 -4c-4 4 -4 9 -7 12c-1 1 -2 2 -4 2c-3 0 -6 -3 -10 -3c-2 0 -5 2 -8 9zM38 -27c-5 17 -3 35 1 53c1 6 6 11 10 10c9 -3 19 2 27 -7c2 -2 3 -3 4 -3
s2 0 4 2c4 3 7 4 9 4c8 0 6 -18 14 -16c5 1 1 5 1 7c0 4 3 6 7 6c5 0 12 -5 12 -15c1 -18 -1 -36 -8 -52c-4 -10 -11 -15 -21 -15c-43 5 -54 4 -60 26zM72 204c4 18 19 114 30 167c22 112 31 122 28 129c3 3 3 7 4 10c48 174 54 172 51 182c-2 -2 -3 -2 -4 -4
c-1 -3 -39 -132 -43 -147c-4 -14 -9 -26 -8 -41c-6 -2 -5 -8 -6 -12c-14 -52 -29 -112 -37 -166c-3 -28 -11 -55 -13 -83c0 -12 -5 -23 -2 -35zM55 28c-5 -2 -1 -5 1 -4c2 0 3 1 2 3c0 1 -2 1 -3 1z" />
    <glyph glyph-name="quotedbl" unicode="&#x22;" horiz-adv-x="200" 
d="M196 665c5 -19 2 -38 -4 -57c-9 -32 -29 -90 -40 -107c-5 -7 -11 -10 -16 -10c-7 0 -13 5 -13 6c2 5 2 6 1 6c-2 0 -5 -2 -7 -2c-23 3 4 19 1 35c-7 -4 -10 -15 -13 -20c-2 -2 -5 -6 -8 -6c-1 0 -2 0 -3 1c-5 3 0 7 2 11c12 28 33 108 35 147c0 5 7 26 14 26
c2 0 4 -1 5 -4c6 -11 17 -13 28 -13s15 -2 18 -13zM123 548c2 4 6 8 1 10l-3 -9c1 0 1 -1 2 -1zM131 575c0 4 5 7 3 13c-2 -5 -5 -8 -3 -13zM111 673c16 -30 -7 -78 -40 -163c-2 -5 -3 -10 -9 -10c-5 0 -9 2 -10 8c0 2 -2 3 -5 3c-5 -1 -8 -1 -10 -1c-6 0 -4 4 -1 19
c0 0 -1 0 -1 1c-4 0 -4 -4 -5 -6c-1 -4 -3 -8 -7 -7c-5 1 -4 6 -3 10c3 13 5 26 10 39c15 46 23 94 21 102c-2 10 6 16 8 25c0 2 2 3 4 3s4 -1 5 -4c0 -9 8 -7 13 -9c3 -2 7 -4 10 -4c2 0 5 0 7 2c1 1 2 1 3 1c4 0 8 -5 10 -9zM38 542c4 5 5 10 4 14c-2 -4 -5 -8 -4 -14z
M43 558c8 13 10 28 13 43c-4 -14 -13 -28 -13 -43z" />
    <glyph glyph-name="numbersign" unicode="#" horiz-adv-x="613" 
d="M8 153c-2 2 1 5 3 7c9 6 18 12 30 13c20 2 38 7 58 11c8 1 4 6 24 74c2 5 4 10 2 16c-23 -1 -48 -3 -71 -10c-3 -1 -5 -1 -7 -1c-10 0 -15 11 -32 32c-3 3 -3 6 1 8c17 11 21 26 120 38c13 2 19 1 21 10c10 30 92 199 116 199c4 0 8 -3 9 -8c2 -9 11 -10 15 -17
c3 -4 5 -4 5 -8c6 -1 12 6 19 6c3 0 5 -1 8 -3c7 -7 5 -13 2 -20c-42 -89 -49 -101 -67 -149c6 -2 11 -2 16 -2h15c32 -1 50 -2 60 -2c13 0 15 2 18 11c11 35 55 113 74 144c8 12 18 23 27 35c1 2 3 3 6 3c2 1 3 1 4 1c2 0 3 0 4 -2c2 -2 1 -5 0 -8c-1 -2 -4 -3 -2 -6
c10 0 14 -2 20 -13c1 -1 2 -2 3 -2c4 0 10 5 15 5c2 0 4 -1 6 -3c4 -5 5 -8 3 -14c-11 -29 -52 -126 -64 -161c26 -6 59 -10 75 -29c1 -1 3 -3 3 -4c-3 -18 22 -12 29 -36c-1 -1 -2 -1 -2 -1c-2 0 -3 2 -5 2c0 0 -1 0 -2 -1c0 -2 1 -4 0 -7c-1 -4 -3 -7 -6 -7
c-1 0 -3 1 -4 2c-26 23 -60 22 -91 25c-5 1 -9 1 -12 1c-9 0 -11 -4 -15 -18c-6 -20 -18 -37 -21 -59c30 -6 74 -8 92 -28c2 -2 4 -4 5 -6c2 -12 10 -19 21 -24c5 -3 19 -21 14 -29c-4 -7 -11 -17 -17 -17c-5 0 -13 8 -15 12c-4 12 -15 16 -25 17c-31 5 -63 6 -94 6
c-14 -1 -13 -18 -17 -29c-17 -48 -43 -131 -52 -181c-2 -16 11 -14 8 -25c-1 0 -2 -1 -2 -1c-3 0 -6 3 -9 3c-4 -4 11 -5 3 -17c-3 -3 -6 -5 -10 -5c-1 0 -3 0 -5 1c-6 2 -12 5 -16 9c-6 4 -11 11 -19 11c-9 12 -28 16 -29 34c-3 32 3 42 11 84c7 37 18 72 27 109
c-4 1 -8 1 -11 1c-8 0 -15 -1 -23 -2c-3 0 -54 -4 -57 -4c-15 -3 -14 -3 -18 -19c-11 -41 -21 -82 -31 -124c-6 -25 2 -33 -13 -55c-1 -3 -2 -4 -4 -4s-3 0 -5 1c-21 6 -18 15 -32 15c-10 0 -7 10 -10 16c-2 1 -5 -3 -8 -3s-6 2 -10 11c-2 4 -4 10 -3 15c4 17 5 35 8 52
c11 77 23 86 6 86h-4c-7 0 -13 -1 -19 -1c-9 0 -18 2 -25 10c-4 5 -7 10 -12 15c-3 3 -5 10 -10 14zM235 277c-21 -55 -26 -60 -25 -76c18 1 34 3 51 3c11 0 23 3 34 3c3 0 6 -1 9 -1c13 -1 9 9 25 49c5 10 7 20 11 31c-6 0 -12 1 -19 1c-26 0 -60 -3 -78 -3
c-5 0 -7 -2 -8 -7zM200 396c-5 -10 -11 -20 -10 -31c11 9 14 38 77 141c2 4 6 9 0 15c-18 -22 -55 -100 -67 -125zM458 484c-6 -11 -30 -55 -33 -70c60 117 55 86 55 105c-11 -12 -17 -24 -22 -35zM189 363c-6 -4 -6 -10 -7 -15c6 4 8 9 7 15zM412 388c5 3 6 7 7 14
c-6 -5 -7 -10 -7 -14zM411 387c-2 -2 -4 -5 -3 -10c4 3 5 7 3 10zM285 487c-4 -6 -4 -4 -3 -7c5 3 3 5 3 7z" />
    <glyph glyph-name="dollar" unicode="$" horiz-adv-x="412" 
d="M335 527c-5 4 -13 11 -12 14c1 6 1 7 -1 7c-1 0 -3 0 -5 -1s-2 2 -2 4c2 12 8 20 0 25c-6 4 -12 5 -18 5c-4 0 -7 0 -11 -1c-7 -2 -9 -61 -39 -229c-2 -9 2 -14 9 -19c51 -41 145 -108 114 -169c-17 -34 -41 -62 -78 -77c-89 -36 -92 -3 -98 -37c-10 -61 -13 -74 -14 -74
c0 0 0 7 -1 7s-1 -1 -2 -3c-3 -8 -8 -11 -14 -11c-4 0 -9 2 -14 8c-1 1 -1 2 -2 2s-2 -3 -6 -4c-2 -1 -4 -1 -6 -1c-5 0 -8 4 -6 12c8 28 10 75 6 81c-11 -78 -10 -92 -14 -92c-2 0 -5 3 -9 4c-3 2 -3 5 -2 7c3 23 3 44 7 77c5 29 -15 2 -79 68c-8 8 -30 23 -22 49
c6 19 15 35 28 50c3 2 7 8 12 8c2 0 3 0 5 -2c5 -6 1 -10 -10 -29c7 0 9 5 13 7c1 1 3 1 5 1c6 0 12 -4 13 -10s3 -9 5 -9s4 1 7 4c3 2 5 4 8 4c2 0 4 -1 6 -3c5 -4 6 -9 3 -15c-6 -13 -3 -9 -7 -18c-3 -8 1 -10 8 -10h8c15 0 7 14 41 166c5 22 -10 7 -88 93
c-48 54 -52 102 -7 161c39 49 78 83 139 90c24 2 24 2 28 25c9 53 12 65 14 65c1 0 2 -6 5 -6c1 0 2 0 3 2c2 2 3 3 5 3c1 0 3 -1 3 -5c0 -1 17 -15 17 -15h7c10 0 10 -4 6 -63c-4 -28 10 -23 13 -24c14 -7 21 -22 33 -31c17 -13 56 -26 38 -59c-7 -12 -16 -22 -28 -29
c-3 -2 -6 -5 -10 -5c-1 0 -2 1 -4 2zM83 550c24 29 49 53 78 71c-32 -6 -71 -36 -78 -71zM159 583c-5 -4 -8 -6 -11 -8h2c4 0 6 2 9 8zM143 568c-6 -1 -10 -5 -15 -14c9 5 13 9 15 14zM150 161c8 14 32 146 29 161c-12 -55 -22 -108 -29 -161zM196 389c3 6 4 10 1 15
c-3 -4 -3 -8 -1 -15zM205 432c0 1 0 2 1 3c-1 0 -1 1 -1 2c-2 -4 -2 -3 0 -5zM196 496c4 21 8 41 12 65c-26 -15 -47 -29 -61 -53c-18 -33 -21 -66 22 -112c1 -1 3 -1 4 -1c2 0 3 1 4 3s18 90 19 98zM313 154c-3 -3 -8 -7 -13 -10c10 2 10 2 13 10zM299 199
c-16 -20 -34 -36 -55 -49c37 10 55 25 55 49zM281 228c-5 28 -24 41 -46 56c-6 -38 -13 -73 -19 -111c21 5 36 15 51 24c11 7 16 16 14 31z" />
    <glyph glyph-name="percent" unicode="%" horiz-adv-x="581" 
d="M71 -10c-3 52 117 373 373 712c4 6 12 14 17 14c2 0 3 -1 4 -2c4 -4 -6 -5 -1 -14c2 1 4 3 6 3c1 0 1 -1 2 -1c7 -3 12 -9 20 -9c1 0 3 0 5 1h3c32 0 -135 -239 -249 -472c-145 -293 -87 -203 -109 -260c-1 -3 -3 -4 -5 -4h-3c-6 1 -14 1 -20 6c-3 2 -7 6 -11 6
c-1 0 -3 -1 -4 -1c-8 -3 -5 14 -13 11c-2 -1 -4 -1 -5 -1c-6 0 -9 4 -10 11zM46 520c-22 61 54 197 124 197c8 0 16 -2 23 -5c2 0 3 -1 4 -2c23 -22 48 -9 43 -40c0 -5 0 -8 3 -12c45 -54 12 -126 -34 -167c-24 -22 -45 -31 -65 -31s-41 11 -58 21c-15 11 -33 19 -40 39z
M333 99c-11 9 -13 24 -11 38c3 85 91 186 142 186c9 0 18 -4 24 -12c2 -4 3 -4 7 -4c8 0 14 -6 20 -7c14 -3 20 -12 25 -23c8 -17 8 -36 3 -55c-17 -62 -54 -120 -112 -154c-7 -4 -14 -5 -21 -5c-23 0 -59 22 -77 36zM172 647c-27 -32 -44 -68 -45 -112c47 16 71 71 45 112z
M408 142c37 32 62 67 61 116c-32 -32 -53 -69 -61 -116zM355 182c17 40 41 73 70 103c-31 -17 -70 -69 -70 -103zM484 220c-20 -40 -28 -56 -69 -97c29 11 65 61 69 97zM308 410c-5 -8 -85 -149 -84 -161c6 1 2 8 86 157c2 3 4 6 4 10c-4 0 -4 -3 -6 -6zM75 598
c39 68 41 59 58 84c-32 -19 -49 -49 -58 -84zM94 19c16 8 52 213 341 637c10 14 21 28 29 44c-10 -3 -15 -12 -20 -19c-12 -17 -74 -106 -135 -204c-87 -142 -210 -395 -215 -458zM200 584c-14 -23 -29 -45 -48 -64c25 14 44 33 48 64zM166 128c3 0 1 -2 36 72c2 5 5 9 5 14
c7 10 14 21 17 34c-9 -10 -14 -21 -17 -34c-4 -1 -5 -5 -6 -8c-9 -19 -19 -39 -28 -59c-2 -6 -7 -12 -7 -19zM326 438c4 4 16 21 16 27c-5 -3 -14 -22 -16 -27zM153 98c6 9 11 18 13 29c-8 -8 -10 -19 -13 -29zM359 495c-4 -6 -9 -9 -7 -15c4 3 7 7 7 15zM351 479
c-6 -2 -7 -7 -8 -13c5 3 7 8 8 13zM321 431c-2 -5 -8 -8 -7 -14c6 3 7 8 7 14zM413 239c-4 -4 -8 -6 -7 -12c4 3 6 6 7 12zM369 509c4 5 6 8 9 15c-6 -5 -8 -9 -9 -15zM145 81c-2 -5 -6 -8 -4 -13c3 4 5 6 4 13zM140 656c-1 -4 -8 -4 -7 -11c4 3 6 6 7 11z" />
    <glyph glyph-name="ampersand" unicode="&#x26;" horiz-adv-x="509" 
d="M52 337c-52 56 87 182 147 227c65 50 71 35 80 61c6 15 50 115 63 115c2 0 4 -2 6 -7c3 -4 8 -5 11 -8c3 -2 5 -5 8 -5c1 0 2 1 4 2c1 0 2 1 3 1c5 0 9 -7 5 -20c-8 -21 -15 -41 -23 -64c33 0 72 -1 89 -31c4 -8 10 -6 18 -11c21 -14 26 -28 18 -52
c-18 -55 -123 -131 -175 -131c-6 0 -10 1 -12 1c-3 0 -5 -2 -6 -6c-2 -13 -8 -25 -9 -40c16 2 32 1 47 11c2 2 5 2 8 2c9 0 17 -5 10 -10c-4 -3 -7 -6 -8 -11c1 -1 1 -1 3 -1c3 0 9 3 12 3c2 0 3 0 3 -2c1 -7 10 -4 9 -11c-1 -2 1 -3 3 -3s4 1 5 1c2 0 4 1 5 1
c4 0 6 -1 9 -4c4 -4 6 -8 2 -13c-27 -33 -30 -22 -97 -78c-11 -10 -23 -20 -34 -29c-12 -10 -11 -18 -19 -91c14 5 24 12 33 19c120 95 86 82 121 116c1 1 3 2 4 2c4 0 7 -4 5 -8c-3 -4 -5 -8 -7 -13c5 -1 7 4 10 5c10 1 9 -14 16 -14c2 0 4 1 7 3c3 3 10 -5 8 -12
c-19 -59 -141 -158 -196 -193c-5 -3 -7 -7 -7 -12c0 -13 0 -93 9 -102c8 -7 4 -17 5 -25c1 -7 -5 -11 -11 -11c-3 0 -6 1 -9 3c-9 6 -22 2 -29 13h-1c-2 0 -3 -1 -4 -1c-10 0 -11 10 -15 17c-11 20 -11 43 -14 65c-2 9 -2 12 -6 12c-2 0 -5 -1 -10 -2c-7 -2 -14 -3 -21 -3
c-10 0 -20 2 -29 8c-25 18 -13 14 -25 22c-22 15 -12 16 -21 22c-27 17 -6 57 12 87c36 62 93 119 109 129c3 3 5 6 6 9c3 11 1 13 -10 13h-19h-9c-38 2 -62 28 -87 54zM112 355c-1 -7 -4 -11 9 -11c10 0 28 2 61 6c7 1 12 4 13 11l3 9c22 98 33 100 30 117
c-17 -8 -109 -92 -116 -132zM317 515c-8 -39 -23 -64 -14 -64c1 0 5 1 9 4c46 26 97 56 112 111c2 9 2 9 -10 10h-9c-24 0 -47 -10 -70 -19c-4 -1 -7 -4 -7 -7c-2 -13 -8 -23 -11 -35zM261 580c-47 -15 -167 -118 -178 -160c101 119 157 138 178 160zM242 115
c-4 -3 -9 -5 -6 -13c39 25 135 100 149 135c-1 0 -70 -74 -143 -122zM95 142c1 0 3 0 3 1c48 73 78 78 73 94c-17 -9 -67 -71 -76 -95zM146 100c-4 -7 -11 -12 -12 -22c26 7 27 8 27 34c0 3 2 6 0 11c-6 -9 -11 -15 -15 -23zM352 464c5 1 10 2 12 7c7 0 10 5 14 9
c20 16 38 33 49 57c-6 -3 -23 -33 -61 -62c-1 -1 -2 -2 -2 -4c-6 0 -9 -3 -12 -7zM322 684c7 7 17 27 17 35c-7 -11 -14 -22 -17 -35zM146 53c3 5 10 3 13 11c-6 -1 -10 -3 -14 -6c-1 -1 0 -3 1 -5c-2 2 -4 3 -6 3s-4 -1 -6 -4c3 -1 6 2 9 2c1 0 2 0 3 -1zM226 401
c-6 -13 -8 -27 -11 -41c6 13 8 27 11 41zM300 121c10 6 18 13 25 22c-9 -7 -19 -13 -25 -22zM168 478c9 5 16 12 23 20c-10 -6 -17 -11 -23 -20zM259 91c11 4 20 11 25 20c-8 -7 -16 -13 -25 -20zM281 290c9 4 17 10 24 17c-9 -4 -17 -10 -24 -17zM424 619c-7 4 -11 6 -19 6
c6 -5 11 -6 19 -6zM257 270c7 3 12 7 16 14c-7 -3 -12 -8 -16 -14zM156 466c5 3 9 5 11 11c-6 -1 -9 -5 -11 -11zM321 681c-3 -4 -6 -7 -5 -13c4 4 6 8 5 13zM349 165c-9 -6 -9 -6 -12 -13c5 4 10 7 12 13zM141 452c5 1 8 5 10 10c-5 -2 -8 -6 -10 -10zM237 76
c5 -1 7 2 11 5c-6 0 -8 -2 -11 -5zM362 177c-4 -2 -8 -3 -7 -7c3 1 5 3 7 7zM254 499v-1c1 1 2 1 2 1c0 2 1 4 1 6c0 1 -1 2 -1 0c-1 -2 -2 -4 -2 -6zM196 260c-1 -3 -2 -5 -1 -7c1 2 1 4 1 7zM239 452v-6c1 2 1 4 1 6h-1z" />
    <glyph glyph-name="quotesingle" unicode="'" horiz-adv-x="169" 
d="M77 529c-5 -4 -4 -9 -6 -12c-2 -2 -5 -4 -8 -3c-20 1 22 100 26 148c1 4 2 7 1 10c-4 13 7 21 8 28c0 5 3 7 7 7c3 0 6 -2 7 -5c3 -13 16 -13 25 -17c3 -2 4 1 6 2c4 2 7 2 10 2c8 0 13 -5 14 -15c3 -16 2 -32 -2 -47c-12 -41 -25 -82 -42 -121c-4 -9 -9 -13 -14 -13
s-10 3 -15 9c-1 1 -2 1 -3 1h-4c-2 0 -3 0 -4 2c-2 -1 -3 -2 -4 -2c-3 0 -3 4 -3 7c0 6 1 11 1 19zM108 644c-20 -51 -29 -86 -26 -101c10 35 21 67 26 101z" />
    <glyph glyph-name="parenleft" unicode="(" horiz-adv-x="301" 
d="M129 -30c-63 53 -58 204 -57 286c2 180 174 494 219 492c3 -1 6 -2 4 -6c-5 -7 -5 -17 -10 -24c7 1 8 8 13 12c3 3 6 4 10 4c5 0 10 -2 12 -7c1 -2 2 -3 3 -3c4 0 9 9 15 9c1 0 3 0 4 -1c4 -2 7 -5 6 -11c-8 -40 -231 -344 -167 -674c10 -51 20 -53 40 -70
c2 -2 4 -6 1 -6c-11 -2 -3 -6 -1 -10c1 -5 -2 -10 -4 -14c-1 -3 -3 -3 -5 -3h-4h-3c-11 0 -22 8 -33 8h-4c0 -1 -2 0 -2 0c-12 8 -26 9 -37 18zM101 305c0 -5 -1 -10 2 -16c4 3 4 7 4 10c4 82 79 279 172 408c2 3 6 6 6 11c-23 -5 -108 -143 -154 -281
c-13 -40 -23 -94 -30 -132zM256 622c-11 -2 -98 -196 -92 -214c9 12 19 72 90 207c1 2 3 5 2 8v-1zM256 623c6 5 9 12 12 20c5 5 9 11 9 19c-3 -7 -9 -11 -10 -19c-6 -6 -10 -11 -11 -20z" />
    <glyph glyph-name="parenright" unicode=")" horiz-adv-x="271" 
d="M118 296c-16 -24 8 10 -61 -221c-9 -28 -28 -94 -41 -118c-2 -3 -3 -8 -6 -8c-1 0 -2 0 -3 1c-5 3 -4 7 -2 11c72 253 136 423 79 679c-6 28 -14 54 -21 81c-3 11 4 17 7 24c0 2 2 3 3 3c2 0 4 -2 5 -4c4 -9 15 -9 20 -17c0 -1 3 -1 4 0c3 2 6 2 8 2c4 0 6 -2 8 -6
c40 -83 32 -76 49 -128c2 -23 32 -125 24 -243c-7 -114 -41 -220 -79 -326c-29 -78 -37 -98 -51 -98c-3 0 -7 1 -12 3c-8 4 -8 9 -17 9c-2 0 -5 0 -8 -1c-6 12 4 7 61 211c12 40 22 80 29 122c1 8 2 16 4 24z" />
    <glyph glyph-name="asterisk" unicode="*" horiz-adv-x="314" 
d="M123 442c-1 7 4 13 1 19c-5 -3 -5 -11 -10 -11c-1 0 -2 0 -3 1c-7 2 -2 10 -2 15c2 37 7 54 -1 54c-2 0 -4 -1 -6 -2c-38 -17 -51 -25 -58 -25c-4 0 -6 2 -8 5c-1 -1 -2 -1 -3 -1c-6 0 -8 9 -15 7c-4 -1 -3 4 -2 6c5 17 19 27 89 67c-55 46 -68 56 -83 71
c-11 11 5 17 5 25c-1 2 2 3 4 3s4 0 5 -1c6 -3 17 -17 31 -17h4s2 1 3 1c5 0 12 -6 47 -32c5 13 4 26 7 38c7 34 -2 24 13 46c1 2 3 3 5 3s4 -1 5 -5c3 -11 16 -8 21 -16c0 0 2 0 3 1c3 1 5 1 7 1c5 0 7 -2 9 -10c8 -29 4 -47 7 -50c4 -1 7 2 10 4c13 9 27 17 39 29
c2 2 5 4 8 6c2 2 7 -1 5 -4c-2 -4 -4 -8 -4 -13c3 -1 4 1 5 3c2 3 4 4 6 4c3 0 5 -2 7 -4c2 -3 3 -4 5 -4c3 0 6 6 10 6c2 0 3 -1 5 -2c4 -3 1 -6 0 -9c-6 -25 -53 -52 -97 -82c9 -14 54 -48 68 -56c2 -2 6 -3 5 -7c0 -1 -1 -2 -2 -2s-3 1 -4 1c-4 -1 -2 -3 -1 -4
c6 -4 2 -9 0 -12c-1 -2 -3 -3 -5 -3s-4 1 -6 2c-13 5 -28 8 -41 17c-8 6 -18 10 -28 15c-8 -42 -15 -91 -27 -91c-1 0 -2 0 -3 1c-5 3 -14 0 -15 10c0 1 -9 1 -15 2z" />
    <glyph glyph-name="plus" unicode="+" horiz-adv-x="399" 
d="M327 341c1 0 3 -1 4 -1c4 0 7 2 10 4c1 1 3 1 3 1c4 0 4 -6 7 -7c10 -2 1 -8 2 -12c2 1 3 1 5 1h5s4 0 6 2s3 2 4 2c2 0 4 -1 6 -3c3 -4 5 -7 2 -12c-9 -15 -22 -26 -41 -26c-26 -1 -46 -1 -62 -1h-34c-27 0 -24 -2 -28 -22c-8 -37 -12 -75 -17 -113c-1 -11 -4 -22 2 -33
c1 -1 1 -5 0 -5c-10 -1 -1 -13 -9 -16c-2 -1 -3 -1 -5 -1c-11 0 -21 13 -50 25c-21 10 -2 139 2 161c1 5 -1 7 -6 7c-10 1 -81 5 -91 7c-23 3 -23 21 -36 23c-1 16 -26 13 -14 24c13 12 24 18 42 18c26 0 51 2 76 3h6h21c10 0 16 2 18 13c18 106 16 99 28 113c1 1 2 2 3 2
c6 0 10 -16 26 -16h3c8 1 11 -4 14 -10c5 -13 2 -79 1 -94c-1 -12 0 -12 13 -13c25 -1 49 -2 74 -2c5 0 9 3 13 4c8 1 11 -6 6 -10c-4 -4 -9 -6 -9 -13z" />
    <glyph glyph-name="comma" unicode="," horiz-adv-x="219" 
d="M18 -79c-16 -14 -22 -20 -26 -20c-1 0 -1 0 -2 1c-8 7 11 9 40 64c4 9 9 18 13 27c-15 8 -27 18 -38 30c-13 14 -15 22 -7 38c17 32 29 26 38 36c4 4 8 6 12 6c2 0 6 -1 9 -4c12 -11 47 1 57 -45c8 -36 2 -69 -19 -99c-15 -22 -29 -45 -47 -64c-9 -9 -16 -14 -23 -14
c-5 0 -13 4 -13 10c-2 6 -14 1 -11 10c2 10 17 13 17 24z" />
    <glyph glyph-name="hyphen" unicode="-" horiz-adv-x="437" 
d="M359 309c-100 -10 -165 -13 -208 -13c-114 0 -68 27 -109 42c-1 6 7 10 2 17c0 0 1 3 2 3c35 17 -9 7 101 13c8 0 15 1 23 1c25 0 49 -2 74 -2h12c48 1 75 2 90 2s18 -1 18 -6c0 -2 -2 -3 -4 -3c-5 -2 -9 -5 -13 -10c1 0 3 -1 4 -1c3 0 7 2 10 2c1 0 3 -1 4 -1
c2 -9 2 -18 9 -18c1 0 2 0 4 1c4 1 6 -2 8 -5c2 -4 0 -7 -3 -10c-7 -6 -15 -11 -24 -12zM347 353h-19c3 -1 7 -2 10 -2s6 1 9 2z" />
    <glyph glyph-name="slash" unicode="/" horiz-adv-x="361" 
d="M10 -27c-3 19 -32 3 -25 43c19 111 306 605 404 703c4 4 7 9 13 9c2 0 4 0 6 -2c-5 -26 -22 -14 -179 -268c-50 -81 -196 -334 -218 -426c6 2 6 6 7 9c84 204 290 539 391 668c2 3 4 6 7 6c1 0 3 -1 4 -2c3 -2 9 -5 4 -13c5 1 10 0 12 4c2 3 4 4 6 4s4 -1 6 -3
c5 -4 4 -7 2 -13c-25 -71 -385 -635 -381 -709c0 -7 -4 -15 -7 -22c-1 -5 -5 -6 -10 -6c-7 2 -15 3 -21 9c-4 4 -7 9 -13 9c-1 0 -3 0 -5 -1c-1 -1 -3 0 -3 1zM173 286c8 12 18 23 21 38c4 0 -1 -6 71 116c1 3 4 5 3 9c6 4 10 9 9 15c-5 -4 -9 -8 -9 -15c-4 0 1 6 -71 -116
c-2 -3 -4 -6 -3 -9c-11 -10 -16 -25 -21 -38zM127 202c8 7 8 16 15 21c-1 6 7 11 2 17c8 1 10 7 11 14c-7 -2 -6 -10 -11 -14c-1 -6 -8 -11 -2 -17c-2 0 -4 2 -6 0c-3 -6 -8 -12 -9 -21zM278 466c10 10 18 23 20 35c-7 -12 -16 -21 -20 -35zM330 549c9 9 14 22 20 33
c-8 -10 -17 -20 -20 -33zM328 546c-7 -6 -11 -14 -15 -23c7 7 13 13 15 23zM156 256c7 5 10 12 11 20c-5 -6 -10 -11 -11 -20zM123 195c-5 -4 -6 -8 -7 -14c3 4 6 8 7 14z" />
    <glyph glyph-name="colon" unicode=":" horiz-adv-x="288" 
d="M115 93c11 -10 27 -7 38 -18c5 -6 8 -12 8 -20c-1 -24 -27 -63 -53 -63c-18 0 -44 11 -58 19c-9 5 -15 15 -14 26c2 17 16 66 39 66c12 0 23 -11 35 -11c2 0 3 0 5 1zM59 56c4 8 7 13 10 19c-9 -2 -13 -8 -10 -19zM140 387c2 -7 62 -2 41 -57c-8 -21 -25 -41 -45 -41
c-6 0 -12 2 -19 6c-10 7 -21 12 -31 19s-14 14 -14 24c0 22 15 60 36 70c1 1 5 1 5 0c3 -14 24 -6 27 -21z" />
    <glyph glyph-name="semicolon" unicode=";" horiz-adv-x="329" 
d="M171 86c2 1 3 2 5 2c5 0 9 -4 12 -9c9 -16 16 -33 15 -52c0 -29 -8 -57 -24 -81c-14 -21 -53 -73 -82 -73c-16 0 -28 13 -39 13c-1 0 -3 -1 -4 -1c-4 -1 -6 4 -5 6c5 7 6 16 14 21c30 22 48 53 61 87c4 11 3 12 -9 16c-22 7 -60 10 -55 37c3 16 17 57 38 57
c10 0 17 -10 29 -10h5h5c16 0 17 -16 26 -16c2 0 5 1 8 3zM80 63c3 5 8 9 7 18c-6 -5 -9 -10 -7 -18zM108 -68c20 24 38 49 39 83c-10 -29 -24 -57 -39 -83zM101 322c-22 17 2 52 22 71c4 4 7 6 11 6c5 0 9 -2 17 -4c12 -3 15 -17 28 -17c3 0 5 -3 5 -6c1 -4 2 -5 4 -5
s6 2 9 2s5 0 7 -3c5 -5 4 -12 6 -19c-4 -29 -24 -57 -50 -57c-6 0 -12 1 -18 4c-15 8 -28 18 -41 28zM131 378c-9 -4 -13 -9 -14 -17c6 4 11 8 14 17z" />
    <glyph glyph-name="less" unicode="&#x3c;" horiz-adv-x="475" 
d="M345 427c18 7 28 22 37 22c3 0 6 -2 10 -7c3 -3 5 -4 7 -4c4 0 7 2 10 2s5 -1 8 -5s-1 -7 -2 -11c-6 -15 -18 -23 -29 -32c-175 -141 -180 -141 -206 -162c14 -15 60 -55 85 -80c13 -12 11 -8 84 -68c7 -6 10 -10 12 -19c-1 -1 -2 -1 -3 -1c-3 0 -6 5 -9 3
c-1 -1 0 -2 0 -4c1 -4 7 -5 6 -11s-5 -10 -10 -10c-2 0 -5 1 -7 2c-66 25 -209 165 -256 210c-7 7 -7 10 -1 18c22 32 30 34 114 89c137 89 165 104 175 104c3 0 5 -1 7 -2c-5 -12 -14 -21 -26 -26c-3 -1 -5 -5 -7 -7c-6 0 -200 -130 -227 -150c-2 -2 1 -7 4 -5
c9 5 222 150 224 154z" />
    <glyph glyph-name="equal" unicode="=" horiz-adv-x="450" 
d="M371 392c3 -4 2 -7 -4 -7c-2 0 -4 1 -3 -3c2 -8 -2 -13 -9 -13c-6 1 -11 1 -17 1c-38 0 -86 -9 -209 -9h-32c-13 0 -22 6 -26 19c-1 4 -4 3 -6 4c-5 3 -11 6 -10 14c1 4 0 6 -4 6h-2c-6 -2 -10 7 -4 11s12 7 14 14c1 3 5 2 7 3c41 8 72 11 117 11c29 0 65 -1 114 -4
c10 0 38 -4 41 -15c-1 -1 -3 -2 -4 -2c-3 0 -5 2 -8 2v-3c13 -4 21 -19 35 -21c5 -1 8 -5 10 -8zM350 239c23 1 8 -26 -10 -27c-8 -1 -47 -2 -92 -2c-50 0 -107 1 -138 5c-43 5 -32 35 -57 43c15 9 25 19 42 20c40 4 64 6 87 6c20 0 139 -6 147 -16c3 -7 -8 -1 -7 -8
c0 -3 2 -5 5 -5c13 1 9 -16 23 -16z" />
    <glyph glyph-name="greater" unicode="&#x3e;" horiz-adv-x="367" 
d="M89 91c-23 -20 -30 -29 -34 -29c-1 0 -3 2 -4 4c0 1 -1 1 -2 1s-3 -2 -6 -2c-1 0 -1 0 -2 1c-4 14 -9 8 180 205c15 15 23 17 18 23c-1 1 -2 1 -3 1c-3 0 -5 -3 -7 -5c-6 -7 -14 -13 -20 -20c-160 -161 -178 -190 -186 -190c-1 0 -2 0 -3 1c-3 3 -5 7 -1 13
c26 43 46 55 52 63c7 8 14 16 22 22s13 16 20 23c38 40 37 36 101 100c6 6 6 7 -1 13c-161 138 -154 124 -141 138c5 6 8 9 11 9c2 0 5 -3 10 -7c8 -5 16 -11 26 -14c14 -4 106 -83 180 -141c21 -16 11 -33 -197 -250c-4 -4 -9 -8 -14 -8c-4 0 -7 1 -10 4c-2 2 -4 2 -6 3
c-14 6 -9 10 8 31c3 4 6 7 9 11zM98 104c17 11 86 85 90 96zM239 251c-12 -9 -31 -30 -36 -40c13 14 27 25 36 40zM254 266c4 4 8 5 8 9c-4 0 -6 -3 -8 -9z" />
    <glyph glyph-name="question" unicode="?" horiz-adv-x="406" 
d="M323 682c39 -13 57 -46 54 -90c-2 -17 -9 -32 -12 -48c-17 -80 -197 -342 -192 -410c1 -6 7 -13 -3 -16c0 -6 0 -11 -4 -16c-3 -3 -5 -3 -9 -3c-7 2 -16 3 -21 10c-2 3 -5 7 -9 7c-18 2 -13 18 -20 15c-1 -1 -3 -1 -4 -1c-10 0 -13 27 -13 34c2 45 43 151 60 193
c19 45 89 151 120 223c8 19 13 39 16 59c2 12 0 15 -9 15c-79 0 -164 -77 -211 -135c-8 -8 0 -17 11 -17s6 -11 4 -11c-10 -3 -20 -9 -30 -9s-32 14 -39 21c-10 7 -12 13 -8 25c16 51 120 154 194 177c24 8 42 11 56 11c43 0 50 -27 69 -34zM23 535c35 49 78 88 126 123
c-39 -16 -125 -95 -126 -123zM262 704c7 -3 12 -6 22 -6c-6 4 -11 7 -17 7c-2 0 -3 -1 -5 -1zM154 295c4 3 5 7 5 10c-4 -2 -5 -4 -5 -10zM160 307c4 9 11 16 10 27c-6 -8 -10 -17 -10 -27zM170 335c5 -1 2 2 29 49c78 136 83 148 83 158c-3 0 -4 -2 -5 -4
c-10 -27 -100 -171 -107 -203zM282 543c5 3 7 8 7 14c-2 -5 -8 -8 -7 -14zM338 659c0 -3 2 -5 7 -7c-2 5 -4 7 -7 7zM158 18c-3 -8 -1 -13 4 -19c10 -13 5 -31 -5 -47c-7 -10 -13 -13 -22 -13c-15 0 -32 8 -45 15c-7 3 -11 10 -11 19c4 16 18 64 39 64c9 0 16 -9 28 -9h4
c2 0 3 1 5 1c5 0 5 -4 3 -11zM97 -16c2 6 6 8 3 13c-5 -3 -4 -6 -3 -13z" />
    <glyph glyph-name="at" unicode="@" horiz-adv-x="775" 
d="M74 -18c-48 77 -51 208 -28 244c7 10 -6 9 46 102c77 136 240 268 385 268c44 0 86 -12 123 -40c22 -16 41 -34 63 -51c24 -19 40 -43 50 -73c9 -29 7 -92 -1 -135c-15 -96 -114 -263 -204 -304c-9 -4 -17 -6 -26 -6c-31 0 -78 41 -97 62c-4 6 -8 12 -8 20
c0 5 -2 10 -4 17c-24 -20 -44 -42 -94 -70c-10 -6 -19 -8 -28 -8c-28 0 -50 24 -74 42c-57 43 41 197 88 251c28 32 69 74 108 74c8 0 16 -1 23 -5c19 -10 11 -22 33 -25c21 -4 33 -25 29 -49c-2 -8 -4 -17 -6 -26h2c3 0 7 6 54 61c5 6 14 13 20 13c2 0 4 0 6 -2
c5 -6 -14 -26 -21 -34c6 0 6 3 19 14c3 3 7 5 11 5s7 -3 8 -7c1 -6 2 -7 4 -7s4 1 5 2c3 2 5 3 7 3c3 0 5 -2 7 -4c4 -4 3 -9 0 -13c-39 -64 -101 -156 -105 -237c1 -1 3 -2 4 -2c2 0 4 2 6 3c89 48 166 190 168 259c1 2 14 57 -1 119c-13 55 -65 78 -121 78
c-58 0 -128 -28 -175 -60c-101 -74 -137 -121 -188 -231c-45 -97 -26 -276 40 -301c21 -8 49 -13 77 -13c41 0 85 10 116 31c2 2 5 4 8 4c2 0 5 -1 7 -3c-7 -8 -11 -19 -21 -26c7 4 14 8 20 12c2 1 5 4 6 4s2 0 2 -1c2 -4 14 -3 6 -12c9 -1 12 5 17 5c1 0 3 -1 5 -3
s2 -5 1 -7c-20 -46 -115 -62 -159 -62c-63 0 -121 25 -185 83c-12 12 -19 27 -28 41zM250 91c12 8 23 13 32 20c52 38 86 64 94 88c11 31 21 73 18 104c-16 1 -48 -34 -59 -49c-37 -48 -67 -100 -85 -163zM358 542c-71 -16 -202 -130 -222 -196c73 102 135 144 222 196z
M221 196c36 51 10 24 75 103c14 16 32 27 48 44c-46 -14 -110 -105 -123 -147zM488 46c1 -2 2 -2 3 -1c52 30 73 59 112 116c6 9 13 17 15 28c6 5 7 12 10 19c-5 -6 -10 -11 -10 -19c-8 -2 -2 -1 -41 -54c-52 -71 -89 -84 -89 -89zM257 70c45 20 80 53 115 86c3 3 7 6 5 14
c-39 -37 -77 -72 -120 -100zM202 383c1 0 2 -1 2 -1c66 70 67 60 81 78c6 2 10 5 13 11c-6 -2 -11 -5 -14 -10c-2 -1 -4 -1 -5 -3c-42 -32 -60 -55 -77 -75zM511 303c-13 -7 -21 -18 -28 -30c10 9 22 17 28 30zM305 272c-5 -2 -6 -6 -8 -11c5 3 7 6 9 10c10 8 16 18 24 28
c-9 -8 -19 -16 -25 -27zM224 -88c9 -5 17 -5 25 -5c-8 1 -16 4 -25 5zM529 579c-3 2 -6 4 -8 4c-1 0 -3 -1 -4 -2c2 -2 4 -3 6 -3s4 1 6 1zM540 573c6 -2 13 -5 19 -7c-7 5 -10 7 -19 7zM565 75c4 2 6 5 8 9c-5 -2 -7 -4 -8 -9zM118 320c-5 -6 -4 -4 -3 -7c2 0 3 3 4 5
c0 0 -1 1 -1 2z" />
    <glyph glyph-name="bracketleft" unicode="[" horiz-adv-x="306" 
d="M50 -41c1 4 2 9 6 10c6 1 7 2 2 6c-3 2 0 5 2 6c7 1 7 7 6 12c-2 26 -1 52 -2 78c-1 17 0 34 4 51c4 18 1 57 18 142c12 63 36 365 87 471c3 6 8 8 13 9c8 2 16 3 24 4c11 0 93 -1 87 -11c-1 -2 -3 -2 -4 -1c7 -5 17 -6 25 -8c4 -1 9 -1 10 -7c0 -8 -4 -15 -10 -16
c-8 -2 -15 -2 -23 -3c-57 -3 -57 1 -58 -9c0 0 -16 -126 -17 -130c-15 -103 -27 -314 -75 -565c-2 -12 -2 -14 6 -14c10 0 58 0 62 -7c5 -7 5 -6 10 -8c7 -2 12 -2 17 -2h10c4 0 7 -1 10 -7c-12 -6 6 -15 -9 -24c-9 -4 -38 -6 -69 -6c-28 0 -57 1 -76 4c-9 2 -56 14 -56 25z
M116 310c-8 -46 -15 -95 -17 -142c3 22 15 106 19 133c0 3 2 6 -2 9zM119 326c6 9 2 21 8 30c-1 5 1 11 -2 19c0 -8 -4 -14 2 -19c-9 -8 -6 -20 -8 -30zM178 -26h-35c6 -2 11 -3 16 -3c6 0 13 1 19 3zM272 738v-1h19c-6 0 -13 1 -19 1zM132 407c-1 -3 -1 -2 0 -4v4z" />
    <glyph glyph-name="backslash" unicode="\" horiz-adv-x="428" 
d="M368 -32c12 -21 10 -27 -13 -34c-3 -1 -7 -1 -9 -5c-4 -3 -7 -5 -11 -5c-3 0 -7 2 -12 5c-3 -9 -7 -13 -12 -13c-62 0 -300 575 -357 766c-3 8 -7 21 1 24c13 6 121 -367 303 -698c3 -2 4 -6 8 -6h2c-157 294 -293 684 -295 694c-2 8 1 14 6 14c2 0 3 0 5 -1
c3 -1 4 -2 6 -2c4 0 4 5 5 10c0 7 5 12 9 12c1 0 2 0 3 -1c27 -17 181 -443 296 -668c46 -90 57 -76 65 -92z" />
    <glyph glyph-name="bracketright" unicode="]" horiz-adv-x="260" 
d="M-79 -49c1 22 14 33 32 38c22 6 43 15 67 18c5 0 11 2 17 2h3c10 0 9 11 10 42c3 76 21 158 75 580c7 54 14 57 -2 58c-25 1 -68 1 -88 5c-19 4 -29 18 -36 21c-10 4 -10 6 -3 14c9 10 9 11 21 12c16 2 31 2 43 2c47 0 67 -9 78 -9c5 0 8 2 10 9c1 3 3 5 5 5s4 -2 5 -4
c9 -25 39 1 43 -28c16 -115 -29 -516 -53 -672c-9 -57 -14 -58 -4 -60c7 -1 13 -5 17 -11c2 -3 5 -8 -3 -8c-3 0 -2 -1 -1 -4c5 -12 2 -18 -9 -18h-3h-4c-17 0 -6 -15 -20 -15h-2c-5 0 -12 0 -16 3c-9 7 -18 8 -27 8c-7 0 -13 -1 -19 -1c-41 -4 -63 -9 -79 -9
c-9 0 -16 2 -24 7c-6 4 -15 3 -15 5c-2 12 -12 8 -18 10zM98 732c-11 1 -21 2 -32 3c6 -3 13 -4 19 -4c4 0 9 0 13 1zM45 -4h-7h-3h-4c-2 0 -3 0 -4 -2c2 0 4 -1 7 -1s7 1 11 3zM85 157c1 4 8 23 5 28c0 -5 -8 -24 -5 -28zM121 728c-2 2 -3 2 -5 2s-4 0 -6 -1
c3 -1 5 -2 7 -2s3 0 4 1zM105 277c-1 5 9 46 5 51c1 -5 -8 -46 -5 -51zM104 273c0 -1 -8 -47 -8 -47c0 -2 -6 -32 -4 -32c2 1 13 76 12 79z" />
    <glyph glyph-name="asciicircum" unicode="^" horiz-adv-x="351" 
d="M312 487c7 -12 3 -24 1 -36c-1 -7 -4 -11 -9 -11c-1 0 -2 1 -3 1c-7 1 -14 3 -20 8c-3 3 -6 7 -9 7c-1 0 -3 -1 -5 -3h-2c-8 13 -25 12 -32 28c-16 43 -31 87 -46 130c-110 -142 -96 -127 -113 -142c-6 -5 -11 -7 -16 -7c-11 0 -19 9 -27 8c-2 0 -3 -2 -4 2s-5 5 -8 5h-4
c-4 0 -8 1 -5 12c5 23 19 38 31 55c44 64 83 127 111 169c4 6 10 9 17 9c6 0 12 -3 16 -9c8 -9 15 -18 25 -18c2 0 4 0 6 1c3 1 5 1 7 1c60 0 79 -194 89 -210zM156 670c2 3 4 6 -1 10c-42 -59 -80 -122 -123 -181c4 -1 5 1 6 3c42 53 79 112 118 168z" />
    <glyph glyph-name="underscore" unicode="_" horiz-adv-x="422" 
d="M318 20c5 -3 8 -5 12 -5c7 -1 8 -4 6 -10c-3 -10 -6 -19 -16 -19c-13 1 -29 1 -47 1c-38 0 -85 -1 -129 -1c-62 0 -116 2 -128 14c-3 3 -8 3 -11 3h-6h-3s-3 0 -3 4c0 8 -4 9 -10 9c-2 0 -4 -1 -6 -1c-4 0 -7 1 -8 4c-3 4 1 9 3 13c3 6 8 8 14 9c-1 3 -4 3 -6 3
c-1 0 -2 0 -3 1c0 7 5 9 10 10c59 15 237 10 249 15c3 1 6 2 8 2c5 0 9 -3 12 -9c1 -1 5 -1 6 -4c-11 -4 -22 -5 -34 -5h-14h-15c-50 0 -169 -4 -203 -9c7 -2 13 -3 19 -3c8 0 16 1 23 2c22 2 171 5 181 5c5 0 9 1 14 1c6 0 13 -1 19 -2c2 -1 4 -1 6 -1c4 0 7 1 11 1
c3 0 7 -1 13 -5c3 -2 7 -2 12 -2h13s8 1 14 1s13 -2 18 -11c3 -6 2 -9 -4 -9h-6c-3 0 -7 0 -11 -2z" />
    <glyph glyph-name="grave" unicode="`" horiz-adv-x="229" 
d="M192 587c-3 -2 0 -3 1 -5c4 -9 0 -16 -9 -16c-19 0 -57 3 -72 16c-74 74 -19 20 -74 79c-8 9 -9 11 -4 21c2 3 4 4 1 8s4 8 10 8c2 0 4 -1 5 -2c8 -9 20 -8 30 -11c2 -1 4 0 5 2c2 4 5 5 8 5c2 0 4 -1 7 -1c34 -8 74 -69 92 -96c2 -3 5 -5 0 -8zM95 678c1 0 1 1 1 2
c-1 1 -2 2 -3 2c-2 0 -3 -2 -2 -3s3 -1 4 -1z" />
    <glyph glyph-name="braceleft" unicode="{" horiz-adv-x="270" 
d="M37 12c-13 41 -3 52 1 90c1 13 6 26 10 38c58 168 109 144 39 242c-5 6 -5 12 0 18c29 42 31 21 62 49c6 4 7 9 7 16c0 30 -29 95 -26 148c2 29 20 74 41 95c17 18 50 40 74 40c9 0 17 -3 23 -11s11 -11 21 -11c8 0 19 -7 16 -18c-4 -11 -12 -20 -20 -29
c-1 -2 -3 -3 -5 -3s-5 1 -7 2c-6 4 -8 6 -11 6s-5 -3 -11 -7c-18 -14 -32 -31 -37 -54c-4 -17 -6 -35 -3 -53c13 -87 34 -111 12 -152c-10 -19 -25 -31 -43 -41c-4 -2 -9 -3 -13 -8c27 -43 48 -66 29 -114c-14 -34 -32 -66 -46 -101s-23 -72 -25 -120c-1 -25 8 -46 24 -65
c3 -4 6 -5 8 -5c6 0 10 5 15 6c2 0 4 0 6 -3s-3 -6 -4 -9c-3 -5 -1 -7 2 -7c1 0 2 0 3 1c2 2 5 3 7 3c4 0 9 -3 12 -6c3 -2 5 -3 7 -3c5 0 9 6 14 6c2 0 3 -1 5 -2c3 -3 9 -5 3 -11c-3 -2 -1 -4 -1 -6c-4 -18 -23 -23 -39 -23c-3 0 -7 0 -10 1c-54 10 -122 45 -140 101z
M68 119c6 17 12 34 19 51c17 44 49 88 49 110c-32 -50 -60 -102 -68 -161zM208 710c-26 -9 -43 -30 -45 -55c10 21 27 37 45 55zM112 158c5 4 6 8 2 13c1 0 2 -1 2 -1c3 0 6 7 26 50c2 3 5 6 3 11c-12 -19 -20 -41 -31 -60c0 -4 -4 -8 -2 -13zM147 421c12 6 28 10 26 29
c-9 -9 -15 -21 -26 -29zM211 680c-4 -1 -7 -3 -9 -10c4 5 7 8 9 10z" />
    <glyph glyph-name="bar" unicode="|" horiz-adv-x="227" 
d="M64 -31c-7 83 14 348 14 349c2 38 23 238 52 412c1 4 2 8 3 11c2 4 3 6 4 6c2 0 4 -1 7 -4c6 -4 12 -4 19 -4c3 1 5 1 7 1c6 0 7 -3 9 -11c4 -17 2 -32 2 -52h1c-31 -578 -65 -701 -45 -725c3 -4 -3 -5 -2 -10c3 -11 -2 -15 -10 -15c-14 0 -38 10 -44 11
c-17 2 -16 13 -17 31zM90 220c-2 -14 -1 -27 -1 -41c3 44 28 311 28 326c-3 -14 -11 -84 -12 -100c-1 -10 -12 -149 -15 -185zM119 542c0 -7 -2 -13 0 -20c2 7 2 13 0 20c7 1 2 14 6 21c0 7 2 15 0 22c-2 -7 -1 -15 0 -22c-8 -5 -1 -10 -6 -21zM131 635
c-2 -13 -5 -24 -3 -36c0 12 7 23 3 36zM88 167c-2 -10 -3 -20 -1 -30c2 10 2 20 1 30zM81 65v-33h2v32c-1 1 -2 1 -2 1zM138 671c-1 5 -1 10 -1 15c3 4 4 8 3 13c-3 -4 0 -9 -3 -13c0 -5 -3 -10 1 -15zM85 112c-1 -8 -3 -16 0 -24v24zM134 656c-1 -4 -1 -2 -1 -7
c2 0 1 2 2 3c-1 1 -1 2 -1 4z" />
    <glyph glyph-name="braceright" unicode="}" horiz-adv-x="290" 
d="M-11 -46c-4 1 -9 2 -13 3s-4 8 1 9c4 0 8 -1 12 -1c3 0 7 0 11 2c40 19 106 55 106 106c2 81 -21 137 -24 187c-3 31 23 65 40 87c15 19 -65 39 -35 121c43 117 136 132 84 217c-12 19 -28 25 -46 25c-6 0 -12 -1 -19 -2c-4 -1 -7 -1 -10 -1c-9 0 -15 3 -23 13
c-1 1 -2 1 -3 1h-4s-2 0 -1 4c5 20 27 22 45 22c9 0 18 -1 27 -5c54 -26 80 -32 109 -83c54 -93 -123 -198 -76 -267c37 -54 45 -45 41 -62c-12 -42 -58 -48 -52 -82c19 -96 27 -74 36 -162c3 -30 -4 -59 -14 -86c-14 -39 -76 -68 -113 -81c-11 -4 -23 -9 -35 -9
c-5 0 -10 1 -15 3c-12 6 -26 5 -36 17c-1 1 -3 2 -4 2h-3h-2c-4 2 -10 4 -9 11c1 5 8 10 13 10c2 0 5 -2 8 -2c1 0 2 0 3 1c0 0 0 1 1 2zM108 461c33 70 100 128 94 158c-8 -1 7 0 -52 -78c-13 -17 -44 -51 -42 -80zM97 1c23 14 35 37 29 58c-9 -20 -15 -41 -29 -58z
M109 287c19 29 11 17 30 42c0 1 -1 1 -2 2c-12 -13 -30 -20 -28 -44zM150 486c-4 -3 -8 -7 -7 -13c4 4 6 8 7 13zM150 24c-6 -7 -5 -11 -4 -11c2 0 4 2 4 8v3zM165 510c-4 -5 -7 -8 -8 -13c4 3 6 5 8 13zM177 524c4 4 7 7 8 12c-4 -3 -6 -6 -8 -12zM113 740c-1 1 -1 2 -2 2
c-2 -1 -5 0 -4 -2c1 -1 4 -1 6 0z" />
    <glyph glyph-name="asciitilde" unicode="~" horiz-adv-x="518" 
d="M82 307c-26 3 30 78 80 96c14 5 27 7 38 7c68 0 103 -72 181 -72c9 0 17 1 23 9c10 10 22 21 18 39c0 3 8 14 10 14c4 1 7 -7 9 -12c3 -4 4 -10 9 -10h3c6 2 11 -17 11 -24c1 -16 8 -29 -9 -55c-15 -23 -35 -37 -60 -39c-3 0 -5 1 -7 1c-74 1 -102 77 -170 77
c-44 0 -78 -24 -103 -58c-2 -3 -4 -4 -6 -4c-8 0 -14 18 -23 21c-3 1 0 9 -4 10zM102 334c16 17 35 31 55 44c-25 -5 -43 -19 -55 -44zM423 344c-11 -10 -19 -20 -33 -25c2 -1 5 -1 7 -1c12 0 22 10 26 26zM258 378c-8 12 -20 14 -32 17c11 -5 19 -14 32 -17zM319 340
c7 -6 14 -9 23 -9l-1 1c-7 3 -13 7 -22 8zM259 378c3 -6 11 -5 14 -12c4 2 6 -5 11 -4c-2 3 -4 5 -7 5c-1 0 -2 0 -4 -1c0 1 1 3 1 4c-5 3 -9 9 -15 8zM138 340c-5 -2 -8 -3 -10 -8c4 2 6 4 10 8zM298 355c-5 3 -3 3 -5 1c2 -2 3 -2 3 -2s1 0 2 1z" />
    <glyph glyph-name="brokenbar" unicode="&#xa6;" horiz-adv-x="237" 
d="M134 274c3 2 5 3 8 3c7 0 10 -11 9 -23c-1 -118 -29 -266 -18 -306c2 -9 -2 -16 -4 -24c-1 -3 -2 -4 -4 -4c-1 0 -3 0 -4 1c-4 3 -9 5 -14 7c-6 4 -18 -1 -20 11h-2c-13 3 -15 5 -17 18c-3 23 -4 46 -3 69c0 31 2 269 33 266c6 -1 4 -6 5 -9c0 -1 0 -3 1 -5c2 2 4 3 6 3
c6 0 12 -9 19 -9c1 0 3 1 5 2zM188 701c0 -34 1 -60 -8 -115c0 -4 -35 -201 -27 -214c5 -8 -1 -15 -2 -21c-1 -4 -4 -5 -7 -5c-1 0 -3 0 -5 2c-48 38 -65 -26 -19 284c16 107 10 71 20 92c1 3 3 4 5 4c1 0 2 0 3 -1c4 -1 1 -4 1 -7v-7c3 3 6 4 8 4c7 0 8 -10 13 -10
c1 0 2 0 3 1c2 2 1 6 4 6c0 0 1 0 2 -1c4 -2 9 -6 9 -12z" />
    <glyph glyph-name="Euro" unicode="&#x20ac;" horiz-adv-x="368" 
d="M351 623c-34 -3 -80 -75 -94 -101c-33 -65 -34 -69 -33 -73c7 0 15 -1 22 -1c4 0 7 0 11 1c2 0 3 1 5 1c4 0 7 -2 8 -5c2 -10 -11 -3 -9 -13c1 -4 3 -5 6 -5c1 0 3 1 5 1c4 0 9 -1 12 -8c7 -12 23 -4 30 -12c12 -12 -5 -7 -5 -18c0 -13 -3 -18 -14 -18h-26
c-33 0 -52 1 -63 1c-13 0 -16 -2 -18 -10c-3 -15 -10 -28 -11 -44c1 -3 3 -3 5 -3h3c8 0 50 0 51 -8c0 -7 -6 -4 -8 -7c3 -9 10 -1 21 -11c7 -5 22 -1 28 -9c3 -3 4 -7 -1 -9c-3 -1 -6 0 -2 -6c4 -5 -3 -15 -10 -16c-9 0 -17 0 -26 1c-31 2 -51 4 -62 4
c-14 0 -18 -3 -19 -17c-3 -41 -16 -114 13 -176c4 -8 8 -11 13 -11c2 0 4 1 6 1c24 6 29 19 36 19c2 0 4 -1 7 -4c-2 -8 -9 -12 -9 -22c4 -1 7 3 10 5c1 1 3 1 4 1c5 0 11 -3 11 -7c-1 -6 0 -8 1 -8c2 0 4 2 6 3c3 1 6 6 10 6c2 0 5 -1 7 -4c2 -4 1 -7 0 -11
c-6 -24 -37 -46 -61 -46c-10 0 -21 3 -34 10c-69 38 -116 102 -122 194c-5 74 6 77 -1 80c-15 4 -25 17 -38 26c7 17 9 22 27 22h3c23 1 20 -2 34 59c-9 5 -18 2 -26 7c-10 6 -21 12 -26 26c-1 2 -4 2 -5 3c-9 5 -9 8 -3 16c9 10 19 14 30 15c50 6 56 -4 62 15
c20 55 62 119 72 140c7 12 16 21 24 32c23 30 60 76 102 76c16 0 35 -6 45 -23c5 -8 11 -12 20 -15c21 -5 31 -29 25 -54c-9 -34 -27 -62 -47 -88c-3 -4 -5 -5 -7 -5c-4 0 -7 5 -10 8c-4 2 -6 7 -9 10s2 0 20 51c4 10 5 22 4 34zM138 449c44 87 61 129 136 209
c-44 -4 -107 -133 -123 -169c-6 -12 -12 -25 -13 -40zM267 607c-18 -15 -49 -62 -52 -80c17 29 34 54 52 80zM199 305c-3 0 -7 1 -11 1c-2 0 -5 0 -7 -1c3 -1 6 -1 8 -1c4 0 7 0 10 1zM335 685c-2 4 -4 5 -7 5h-3c3 -3 5 -6 10 -5z" />
    <glyph glyph-name="sterling" unicode="&#xa3;" horiz-adv-x="392" 
d="M338 588c-50 -33 -81 -115 -94 -175c-5 -24 -18 -36 2 -38c14 -2 27 -6 40 -6h7c9 0 12 -9 7 -10c-4 -1 -4 -4 -4 -10c12 0 18 -2 24 -13c1 -2 3 -3 5 -3c1 0 2 1 3 1c6 1 17 -3 16 -11c-2 -11 -13 -21 -25 -21c-48 2 -72 5 -84 5c-13 0 -12 -3 -15 -11
c-8 -28 -6 -60 -16 -88c-4 -11 -2 -25 -4 -37c-5 -20 -7 -41 -14 -59c-3 -6 -8 -14 -4 -19c3 -5 10 -6 16 -6h5h8c24 0 47 -3 71 -3h8h3c2 0 5 -1 6 -2c2 -5 0 -6 -1 -7c-3 -2 -7 -5 -5 -8s3 -4 5 -4s4 1 6 1c8 2 13 -17 23 -17c2 0 4 1 6 2c4 3 15 -7 11 -14
c-7 -13 -14 -24 -31 -25c-40 -4 -79 -6 -119 -6c-13 0 -28 0 -52 -2c-19 -2 -25 -36 -65 -40c-4 0 -7 -1 -11 -1c-43 0 -55 28 -66 35c-12 7 -12 7 -11 20c-2 2 -4 2 -6 2h-3c-2 0 -3 0 -5 1c-4 2 -8 6 -4 10c10 12 17 27 33 30c42 10 71 145 74 181c1 7 2 13 6 17
c7 7 -5 9 9 56c1 6 -1 8 -6 12c-14 8 -23 21 -35 32c-3 3 -3 7 -1 9c9 9 17 16 31 17h10h2c11 0 15 6 18 17c11 43 21 86 38 126c37 86 103 143 141 159c11 4 23 5 35 6c17 1 31 -12 39 -31c4 -9 10 -17 20 -20c33 -12 32 -63 -23 -90c-2 -1 -4 -2 -6 -2c-4 0 -7 2 -10 7
c-2 4 -19 16 -10 25c1 1 1 3 2 8zM215 574c26 36 56 64 93 84c-39 0 -85 -48 -93 -84zM80 108c-4 -14 -20 -22 -13 -27c1 -1 1 -1 2 -1c6 0 11 22 11 28zM280 597c8 6 15 13 23 19c-10 -3 -18 -8 -23 -19zM340 674c1 -2 3 -3 5 -4c4 -3 2 5 -3 6c-1 0 -1 -1 -2 -2z" />
    <glyph glyph-name="cent" unicode="&#xa2;" horiz-adv-x="388" 
d="M37 188c-15 46 -15 61 -10 99c15 118 97 258 154 305c6 5 46 45 66 53c7 3 13 7 13 16c0 14 19 8 10 18c0 1 0 3 1 3c14 8 9 6 15 19c7 13 17 43 27 42c5 0 6 -3 6 -8s7 -2 9 -6c2 -3 4 -4 7 -4c1 0 3 0 5 1c1 1 2 1 3 1c4 0 7 -5 6 -12c-1 -5 -2 -11 -4 -17
c-6 -29 -8 -34 -7 -34s2 1 3 1c0 0 1 0 2 -1c28 -22 85 -29 77 -76c-3 -15 -22 -85 -41 -85c-2 0 -4 1 -6 3c-4 5 -16 2 -14 13c0 1 -1 1 -2 0c-2 -1 -4 -2 -5 -2c-8 0 1 22 -7 52c-2 7 -2 15 -11 18c-1 1 -1 5 -1 7c-9 -4 -13 -10 -14 -20c-1 -16 -53 -253 -84 -419
c-1 -4 -2 -8 0 -13c9 2 16 10 25 10c2 0 5 -1 8 -3c0 -8 -16 -10 -8 -23c5 1 10 5 15 8c2 1 2 1 6 -4c1 -1 3 -2 4 -2c2 0 4 1 5 1s2 0 3 -1c2 -4 -3 -6 -2 -10c1 0 2 -1 3 -1c5 0 9 6 13 8c3 1 5 2 8 2s6 -1 9 -4c8 -9 -1 -10 -2 -14c-2 -25 -23 -30 -41 -37
c-15 -6 -26 -8 -35 -8c-10 0 -16 2 -20 2s-6 -1 -7 -7c-4 -16 -16 -53 -9 -68c3 -8 0 -16 -1 -23c0 -4 -3 -7 -7 -6c-7 1 -13 1 -19 4c-5 2 -8 5 -13 5c-1 0 -2 0 -4 -1c-4 -3 -6 9 -11 8c-3 -1 -5 -1 -7 -1c-25 0 -10 70 -5 104c3 29 -22 5 -96 88c-5 5 -7 12 -10 19z
M150 278c-1 -11 -5 -22 -5 -34c0 -19 0 -38 5 -57c1 -4 2 -8 7 -11c13 93 32 184 53 274c-4 -6 -9 -12 -12 -19c0 -1 -45 -108 -48 -153zM96 413c17 23 51 116 152 198c2 1 6 2 5 6c-1 0 -1 1 -2 1c-2 -1 -3 -1 -5 -3c-76 -48 -115 -113 -146 -185c-2 -5 -5 -11 -4 -17
c-6 -7 -9 -14 -10 -25c7 8 9 16 10 25zM165 465c20 34 45 64 69 94c-30 -26 -53 -58 -69 -94zM182 187c-6 -10 -10 -21 -9 -35c7 13 3 25 9 35zM192 259c-3 -7 -5 -13 -3 -20c2 7 5 12 3 20zM181 207c-1 -9 0 -14 1 -19c-1 5 2 11 -1 19z" />
    <glyph glyph-name="exclamdown" unicode="&#xa1;" horiz-adv-x="271" 
d="M32 -16c-1 41 41 218 50 258c85 350 55 292 60 323c1 7 0 15 7 19c2 1 5 2 8 2c5 0 10 -2 15 -4c2 -1 4 -3 7 -4c1 -1 4 0 5 -2c1 -1 2 -2 3 -2c3 0 6 6 10 4c4 -4 4 -9 7 -12c1 -1 2 -2 4 -2c3 0 6 3 10 3c2 0 5 -2 8 -9c17 -42 -24 -265 -32 -299
c-44 -180 -43 -161 -59 -208c-18 -56 -14 -49 -34 -93c-3 -5 -5 -11 -12 -10c-7 2 -8 9 -5 16c-3 0 -5 -1 -7 -1c-4 0 -7 1 -10 5c-3 3 -6 4 -10 4c-2 0 -5 0 -7 -1c-3 -1 -5 -1 -7 -1c-7 0 -11 5 -11 14zM147 655c-1 18 1 36 8 52c4 10 11 15 21 15c43 -5 54 -4 60 -26
c5 -17 3 -35 -1 -53c-1 -6 -6 -11 -10 -10c-9 3 -19 -2 -27 7c-2 2 -3 3 -4 3s-2 0 -4 -2c-4 -3 -7 -4 -9 -4c-8 0 -6 18 -14 16c-5 -1 -1 -5 -1 -7c0 -4 -3 -6 -7 -6c-5 0 -12 5 -12 15zM89 -23c2 2 3 2 4 4c1 3 39 132 43 147c4 14 9 26 8 41c6 2 5 8 6 12
c14 52 29 112 37 166c3 28 11 55 13 83c0 12 5 23 2 35c-4 -18 -19 -114 -30 -167c-22 -112 -31 -122 -28 -129c-3 -3 -3 -7 -4 -10c-48 -174 -54 -172 -51 -182zM218 645c-2 0 -3 -1 -2 -3c0 -1 2 -1 3 -1c5 2 1 5 -1 4z" />
    <glyph glyph-name="yen" unicode="&#xa5;" horiz-adv-x="409" 
d="M405 665c10 9 13 14 18 14c1 0 3 -1 5 -2c10 -6 -4 -31 -11 -44c-62 -117 -135 -301 -155 -346c-4 -9 -4 -9 7 -10c14 -2 28 -2 41 -10c2 -1 5 -1 8 -1c13 0 26 0 38 -7s2 -10 3 -16c1 -14 -2 -17 -8 -17c-2 0 -5 0 -8 1c-6 1 -12 2 -18 2c-29 0 -63 -10 -86 -12
c-16 -1 -21 -18 -18 -30c0 -4 4 -4 7 -4c31 -3 60 -13 91 -17c6 0 11 -2 13 -9c-2 -2 -3 -3 -5 -3c-3 0 -5 1 -7 1c-1 0 -3 0 -4 -1c1 -2 3 -2 5 -2c16 0 9 -19 -1 -19c-2 0 -92 -1 -93 -1c-15 0 -8 -15 -15 -74c-1 -10 -14 -88 -15 -91c-2 -11 -17 -11 -25 -11
c-2 1 -2 4 -2 6c-1 6 -1 12 -1 18c1 9 15 137 12 144c-4 0 -3 -3 -3 -5c-14 -174 -12 -160 -16 -163c-4 -2 -7 -4 -9 -4c-5 0 -7 5 -7 13c-1 19 0 39 1 58c4 98 9 99 1 100c-9 1 -5 -8 -5 -13c-13 -140 3 -156 -11 -157c-10 -1 -11 13 -11 92c-1 65 5 67 1 75
c-12 -3 -24 -2 -36 -8c-2 -1 -5 -2 -7 -2c-6 0 -12 3 -18 4c-1 0 -1 2 -2 2c-5 1 -14 -2 -13 8c1 9 0 19 11 24c0 0 25 14 58 22c17 5 16 12 19 23c-2 2 -4 2 -6 2c-3 0 -7 -2 -10 -3c-12 -5 -29 -10 -44 -10c-11 0 -22 3 -30 8h-2h-6s-4 1 -5 4c-2 5 4 8 3 13
c-2 10 6 14 12 17c20 10 39 21 60 28c10 3 10 3 7 13c-5 20 -12 39 -16 59c-49 240 -44 380 -24 380c2 0 5 -1 7 -4c6 -6 15 -5 21 -11c1 -1 2 0 3 2c2 3 5 4 7 4c4 0 8 -4 9 -9c16 -65 21 -126 44 -215c30 -120 26 -115 30 -117c27 48 95 202 165 319c4 7 9 15 18 18
c1 0 2 1 3 1s3 -1 4 -2c1 -2 -1 -3 -1 -5c-6 -32 -5 7 -179 -352c-2 -6 -7 -12 -1 -19c7 1 141 307 183 359c3 4 6 6 9 6c2 0 5 0 8 -2c6 -3 -2 -7 2 -12zM219 285c1 -1 2 -1 4 -2c18 40 36 80 55 120c-1 1 -2 1 -3 2c-19 -40 -37 -80 -56 -120zM159 193c1 3 2 7 -2 7
c-6 2 -7 -8 -8 -17c0 -3 2 -4 4 -4c1 0 3 1 4 2c3 4 2 8 2 12zM280 414c1 0 1 -1 2 -1c7 15 14 30 21 44c0 1 -1 1 -2 2c-8 -15 -15 -29 -21 -45zM186 204c-3 -8 -4 -13 -2 -20c3 6 4 11 2 20zM103 156c4 -1 6 1 9 4c-2 0 -3 1 -4 1c-2 0 -4 -1 -5 -5zM84 150h3c5 0 6 3 3 3
c-2 0 -4 0 -6 -3zM315 485c2 0 4 4 4 7c1 4 -7 -4 -4 -7zM257 265c1 -1 2 -1 3 -1c2 0 3 0 5 1h-8z" />
    <glyph glyph-name="section" unicode="&#xa7;" horiz-adv-x="449" 
d="M430 645c17 -17 21 -37 14 -60c-9 -26 -21 -50 -36 -73c-5 -7 -27 -40 -35 -40c-6 0 -11 8 -12 9c-9 2 -7 7 -4 13c-5 0 -6 -6 -10 -4c-7 4 6 13 25 62c6 18 10 37 12 56c0 8 -1 20 -11 20c-22 -1 -44 -5 -65 -16c-215 -110 -16 -193 73 -310c9 -12 11 -24 3 -38
c-12 -22 -29 -37 -48 -51c-3 -3 -7 -4 -9 -9c11 -13 21 -27 29 -42c32 -58 -58 -172 -162 -172c-22 0 -44 5 -66 17c-54 29 -40 26 -66 46c-42 33 -14 98 21 138c8 9 17 13 27 17c2 1 4 2 6 2s3 -1 4 -3c3 -3 -2 -5 -3 -8c-1 -2 -1 -5 -2 -7c1 -1 2 -2 3 -2c2 0 4 2 5 3
c2 1 4 2 5 2c6 0 10 -5 10 -7c0 -5 2 -7 4 -7s7 4 11 5c17 1 8 -24 -8 -34c-23 -15 -21 -36 -22 -63c0 -8 3 -11 10 -11h8h4c68 16 79 27 106 48c26 19 20 50 4 68c-11 12 -23 24 -36 34c-47 39 -163 72 -167 171c0 13 7 23 13 34c38 69 66 42 53 78c-27 77 95 190 198 190
c14 0 27 -2 40 -7c13 -4 24 -11 33 -21c6 -6 11 -11 19 -14s15 -7 22 -14zM75 147c9 12 17 21 25 31c-15 -3 -21 -14 -25 -31zM86 422c15 20 31 35 47 51c-9 -2 -37 -24 -43 -32c-3 -4 -7 -9 -4 -19zM239 82c30 8 51 32 51 58c-16 -23 -32 -42 -51 -58zM291 79
c8 3 14 8 14 17c-5 -5 -9 -11 -14 -17zM322 287c-6 -8 -12 -16 -20 -23c-23 -19 -21 -18 -20 -20s3 -3 4 -2c13 12 28 20 38 35c2 3 3 6 -2 10zM297 317c-17 17 -120 115 -125 115c-2 0 -4 -2 -8 -6c-27 -29 -22 -30 -26 -43c6 -63 38 -70 121 -124c2 -1 4 -2 6 -2
c3 0 5 1 7 3c28 28 48 34 25 57zM186 562c10 11 16 19 23 28l-2 2c-7 -8 -17 -14 -21 -30zM223 640c2 1 5 2 5 6c-29 -11 -76 -42 -76 -77c21 29 44 52 71 71zM229 646c5 0 9 3 12 6c-4 -1 -9 -1 -12 -6zM321 689c1 -2 2 -2 4 -2s4 1 6 1c-2 1 -4 2 -6 2c-1 0 -2 0 -4 -1z
M341 687c2 -3 4 -5 7 -5c2 0 3 1 5 1c-4 3 -7 4 -12 4zM361 505c5 4 7 8 10 15c-6 -5 -7 -9 -10 -15z" />
    <glyph glyph-name="currency" unicode="&#xa4;" horiz-adv-x="533" 
d="M122 225c-62 25 -50 88 -18 135c13 19 24 38 44 52c11 7 -7 8 -45 76c-8 13 -7 31 1 31c1 0 2 -1 4 -2c9 -7 21 -2 30 -7c2 -1 4 0 5 2c4 4 6 6 9 6s5 -1 9 -4c18 -12 41 -44 46 -52c2 -4 5 -5 8 -5c2 0 5 1 8 2c6 3 14 5 21 7c9 3 5 13 20 13c2 0 5 0 8 -1
c30 -4 39 -11 45 -11c3 0 5 2 8 5c46 57 42 49 58 67c4 5 8 7 12 7c3 0 5 -2 5 -3c-1 -11 15 -8 20 -14c1 -1 1 -1 2 -1c2 0 5 1 7 2h3c8 0 12 -3 9 -10c-1 -5 -5 -9 -8 -12c-17 -21 -37 -40 -57 -62c31 -15 53 -35 53 -65c1 -45 -19 -84 -49 -120c-5 -5 -7 -9 -2 -15
c23 -25 37 -54 58 -81c4 -5 3 -12 5 -18c3 -4 -11 -6 -20 -6h-4c-2 1 -5 1 -8 1c-1 0 -3 0 -5 -1c-1 -1 -3 -1 -4 -1c-2 0 -4 1 -6 3s-3 2 -4 2c-3 0 -4 -4 -9 -4c-2 0 -5 1 -9 3c-16 9 -32 30 -54 57c-4 5 -7 7 -10 7c-2 0 -6 -1 -11 -4c-16 -7 -35 -9 -54 -12h-6
c-11 0 -18 2 -24 2c-4 0 -7 -1 -10 -5c-15 -22 -39 -40 -48 -53c-5 -8 -11 -10 -16 -10c-8 0 -15 4 -22 4c-10 1 -12 3 -10 10c6 17 24 31 21 38c-11 -12 -20 -23 -25 -36c-1 -2 -1 -4 -2 -6c0 -2 -3 -3 -5 -3s-5 1 -6 3c-7 14 22 50 26 54c6 9 12 18 22 26
c-5 4 -10 7 -16 9zM274 421c-61 -39 -114 -102 -87 -160c3 -6 5 -9 10 -9c23 0 79 31 94 47c28 28 36 37 39 78c1 14 -3 27 -13 39c-9 9 -15 13 -22 13c-5 0 -12 -3 -21 -8zM352 349c-17 -33 -42 -62 -71 -89c40 22 65 51 71 89zM112 327c7 3 18 37 55 70c2 2 3 4 -1 6
c-30 -20 -53 -53 -54 -76zM392 527c-13 -7 -58 -58 -60 -68c10 7 58 61 60 68zM157 347c5 3 3 7 1 10h3c7 0 5 5 8 8c-6 -1 -5 -7 -11 -8c2 -3 -3 -6 -1 -10zM350 280c5 4 9 7 9 14c-5 -4 -8 -8 -9 -14zM381 430c-2 2 -4 3 -7 3h-3c3 -3 6 -3 10 -3z" />
    <glyph glyph-name="degree" unicode="&#xb0;" horiz-adv-x="241" 
d="M232 595c0 -52 -57 -131 -110 -131c-14 0 -28 4 -42 16c-2 1 -3 4 -5 4c-16 5 -24 19 -35 30c-37 36 19 117 41 133c12 9 18 24 28 35c8 9 18 14 26 14c9 0 17 -4 23 -12c8 -9 18 -15 28 -21c26 -15 46 -35 46 -68zM146 627c-5 0 -9 -1 -12 -5c-6 -8 -30 -36 -32 -78
c-1 -3 -1 -6 2 -8c3 -1 6 1 8 2c12 9 23 18 30 32c4 11 15 55 4 57zM160 564c-40 -48 -33 -34 -45 -48c24 7 38 23 45 48zM68 607l39 45c-18 -11 -32 -25 -39 -45zM134 684c3 -1 5 -4 7 -4c1 0 2 0 3 1c-2 2 -4 4 -6 4c-1 0 -3 0 -4 -1z" />
    <glyph glyph-name="onesuperior" unicode="&#xb9;" horiz-adv-x="131" 
d="M42 495c-4 -4 -6 -6 -8 -6c-19 0 50 190 67 209c2 3 3 4 5 4c1 0 3 -2 5 -5c2 -4 15 -11 19 -10h4c7 0 10 -4 8 -13c-28 -103 -48 -132 -62 -186l-3 -6c-3 -6 -5 -9 -9 -9c-3 0 -6 1 -10 4c-8 4 -14 9 -16 18zM75 605c1 0 2 -1 3 -1c3 9 5 17 8 27c-7 -7 -8 -17 -11 -26z
M101 676c-3 -7 -7 -14 -7 -22c4 7 8 14 7 22zM91 644c-4 -2 -4 -5 -5 -8v-4c3 3 4 7 5 12z" />
    <glyph glyph-name="twosuperior" unicode="&#xb2;" horiz-adv-x="214" 
d="M146 677c-20 0 -32 -4 -41 -23c-1 -4 -3 -6 -6 -6c-1 0 -3 0 -6 2c-34 18 7 59 44 59c5 0 10 0 14 -2c13 -4 25 -11 36 -18c32 -20 -39 -110 -69 -160c41 5 56 7 61 7c3 0 3 -1 4 -2c1 -3 -1 -3 -3 -4c-4 -1 -2 -8 3 -6c1 1 3 1 4 1c3 0 6 -2 8 -5c2 -2 4 -3 6 -3
c4 0 8 2 10 2c4 0 6 -3 4 -12c-1 -9 -6 -13 -14 -15c-34 -9 -68 -14 -102 -16h-4c-21 0 -30 13 -33 13c-11 1 -16 13 -26 16c-13 3 15 37 24 47c23 25 74 97 82 112c2 4 5 8 4 13zM58 529c2 -2 4 -2 5 -1c24 23 81 104 92 134c-31 -46 -62 -91 -97 -133z" />
    <glyph glyph-name="threesuperior" unicode="&#xb3;" horiz-adv-x="224" 
d="M134 541c-17 0 -30 2 -42 14h-2c-11 0 -13 14 -24 16c-4 0 -6 6 -3 10c9 11 15 23 28 31c14 10 30 20 41 36c2 3 6 5 4 9c-1 2 -2 2 -3 2c-2 0 -4 -1 -6 -1c-29 0 -43 -1 -50 -15c-1 -2 -3 -3 -5 -3s-3 0 -5 1c-17 9 -29 16 -25 25c13 27 28 26 59 29c5 1 11 1 16 1
c16 0 32 -3 39 -13c3 -5 8 -5 13 -6c21 -5 32 -20 22 -45c-9 -23 -22 -36 -31 -46c6 -11 14 -17 26 -19c8 -1 15 -7 21 -12c8 -7 10 -19 6 -30c-18 -50 -66 -62 -123 -69c-3 0 -6 -1 -9 -1c-20 0 -24 12 -35 15c-9 2 -13 13 -23 15c-3 1 -2 6 0 9c3 5 9 6 9 13c0 2 2 2 6 2
c24 0 75 13 94 27c1 1 3 1 4 2c-1 1 -1 2 -2 3zM100 597c24 10 50 38 50 56c-14 -23 -31 -40 -50 -56zM162 539c-1 0 -2 1 -3 2c-12 -16 -7 -9 -20 -24c11 4 22 8 23 22z" />
    <glyph glyph-name="dieresis" unicode="&#xa8;" horiz-adv-x="321" 
d="M278 688c15 0 20 -7 19 -23c-2 -21 -16 -64 -42 -64c-12 0 -27 7 -53 18c-22 9 -4 50 8 66c8 10 23 15 32 15c3 0 6 -1 7 -2c5 -9 12 -11 20 -11c3 0 6 1 9 1zM123 674c7 -2 9 -8 8 -14c-2 -20 -15 -64 -41 -64c-15 0 -27 14 -36 12c-3 -1 -6 1 -7 4c-2 4 -6 5 -10 6
c-9 1 -13 8 -12 16c2 19 14 61 39 61c7 0 14 -3 18 -9c5 -6 8 -8 11 -8c4 0 7 3 11 3c1 0 3 -1 5 -2c6 -5 -2 -12 4 -16c5 2 1 13 10 11zM48 651c7 3 8 9 10 18c-8 -5 -13 -9 -10 -18z" />
    <glyph glyph-name="acute" unicode="&#xb4;" horiz-adv-x="225" 
d="M184 670c10 -15 -93 -79 -114 -94c-11 -7 -15 -12 -19 -12c-3 0 -6 2 -11 7c-4 5 -6 12 -13 14c-2 1 -1 4 -1 7c1 6 -18 3 -8 17c10 16 101 82 129 91h3c2 0 5 -1 6 -3c2 -4 -2 -5 -4 -8c8 0 12 -6 14 -11c1 -3 2 -5 4 -5c1 0 2 0 3 1c2 1 3 1 4 1c3 0 6 -2 7 -5zM59 600
c3 0 6 1 6 5c-2 -2 -4 -3 -6 -5zM100 626c4 2 7 3 7 7c-3 -1 -6 -2 -7 -7zM122 641c3 2 5 4 11 8c-7 -1 -10 -3 -11 -8zM39 608c36 25 70 50 107 72c-2 2 -3 2 -5 2s-3 0 -4 -1c-33 -17 -62 -40 -92 -62c-3 -2 -7 -5 -6 -11z" />
    <glyph glyph-name="ordmasculine" unicode="&#xba;" horiz-adv-x="205" 
d="M35 532c2 63 23 98 54 143c4 6 16 19 24 19c6 0 4 -10 7 -10c10 0 15 -9 24 -9c1 0 3 1 4 1c3 0 6 -3 6 -5c-2 -9 5 -7 10 -10c22 -10 34 -28 41 -50c11 -40 -25 -106 -61 -136c-12 -10 -23 -14 -32 -14c-22 0 -37 18 -51 25c-21 9 -24 28 -26 46zM105 523
c20 14 31 32 38 53c6 15 3 31 0 47c-1 4 -4 8 -9 9c-4 0 -5 -5 -7 -8c-19 -37 -30 -88 -22 -101zM109 504c23 14 38 34 45 60c-13 -22 -27 -42 -45 -60zM105 670c-18 -15 -28 -35 -35 -57c12 19 23 38 35 57z" />
    <glyph glyph-name="copyright" unicode="&#xa9;" horiz-adv-x="595" 
d="M427 629c40 -26 168 -23 124 -270c-23 -125 -75 -232 -184 -337c-34 -33 -74 -52 -118 -52c-48 0 -106 30 -143 57c-191 139 64 627 235 627c11 0 21 -2 31 -6c2 -1 4 -1 5 -1c21 0 32 -6 50 -18zM276 612c-5 -3 -9 -4 -10 -9c5 1 9 3 10 9zM92 345c14 27 26 56 41 83
c59 107 115 156 132 175c-44 -4 -168 -200 -173 -258zM246 551c-4 -2 -7 -4 -7 -9c6 2 7 4 7 9zM227 527c-8 -7 -15 -14 -17 -24c9 6 13 15 17 24zM209 503c-7 -6 -11 -13 -13 -22c4 7 13 12 13 22zM190 473c-5 -3 -6 -7 -9 -14c6 6 8 9 9 14zM207 42c83 15 191 155 215 227
c31 90 56 197 15 284c-6 12 -12 25 -29 28c-4 1 -11 4 -10 8c1 5 0 6 -2 6s-5 -1 -6 0s-2 1 -3 1c-4 0 -7 -4 -9 -2c-5 5 0 10 -4 15c-117 -33 -308 -342 -210 -548c7 -14 16 -20 30 -20c4 0 8 0 13 1zM276 40c-5 0 -8 0 -10 -5c4 1 7 3 10 5zM358 69c6 4 12 7 14 14
c-8 -1 -9 -9 -14 -14zM385 98c10 1 87 114 79 122c-9 -13 -17 -35 -60 -94c-7 -9 -15 -17 -20 -27c-6 -4 -11 -8 -11 -15c5 4 10 7 12 14zM277 40c73 39 182 191 193 296c-4 -6 -6 -13 -7 -19c-21 -76 -90 -190 -183 -270c-3 -2 -5 -4 -3 -7zM343 206c3 2 5 3 7 3
c16 0 9 -44 -40 -44c-23 0 -55 9 -99 37c-63 40 -27 126 11 187c19 33 65 91 107 91c10 0 18 -3 24 -11c6 -7 11 -8 16 -8h9c4 0 8 -1 12 -7c3 -4 -3 -18 -9 -20c-57 -25 -105 -124 -112 -183c-1 -9 1 -18 3 -27c1 -6 4 -8 8 -8c9 0 22 10 28 11c2 1 4 0 6 -1s0 -3 -1 -5
c-2 -5 -5 -9 -8 -15c6 0 8 3 12 5c3 2 5 3 7 3c4 0 8 -4 9 -12c4 0 8 2 10 4zM208 305c25 54 53 100 94 143c-51 -37 -81 -85 -94 -143zM286 390c-13 -16 -25 -33 -31 -53c6 9 12 17 17 26s13 16 14 27z" />
    <glyph glyph-name="trademark" unicode="&#x2122;" horiz-adv-x="435" 
d="M205 560c-6 14 41 156 57 162c2 1 3 1 5 1c1 0 3 0 3 -2c3 -8 11 -10 16 -16c2 -3 4 -5 7 -5c2 0 4 1 6 3c1 1 1 1 2 1c8 0 16 -17 18 -23c4 -10 8 -19 12 -30c14 16 33 28 38 50c1 4 3 6 5 6s3 -1 5 -2c5 -3 9 -4 13 -4c11 0 17 8 22 8c3 0 5 -2 7 -7
c12 -30 -2 -81 -9 -110c-8 -35 -9 -63 -27 -68c-1 0 -2 -1 -4 -1c-1 0 -2 1 -3 2c-1 3 -3 3 -5 3s-4 0 -6 -1s-4 -1 -5 -1c-6 0 -2 9 5 51c3 20 6 40 9 62c-9 -5 -6 -2 -19 -87c0 -7 -2 -13 -4 -19c0 -3 -2 -6 -7 -7c-3 27 6 52 6 78c-6 2 -8 -5 -11 -14
c-3 -8 -4 -12 -8 -12c-2 0 -5 2 -11 4c-16 7 -28 -2 -27 15c0 7 -7 14 -11 20c-5 0 -3 1 -24 -49c-3 -5 -1 -31 -13 -31c-2 0 -4 1 -6 2c-8 5 -18 7 -24 15l-2 2h-3c-3 0 -6 0 -7 4zM13 685c-7 2 -7 8 -2 12s12 6 12 8c2 8 2 9 7 9c18 2 35 5 52 5h10s7 4 16 4
c5 0 10 -1 16 -3c11 -3 22 -3 33 -5c16 -3 20 -3 25 -11c-2 -1 -5 -1 -7 -1c-4 0 -7 1 -11 3c2 -7 8 -8 12 -8c14 -1 25 -11 39 -10c6 0 14 -14 5 -12s7 -17 -13 -19c-16 -3 -28 -4 -44 -4c-7 0 -11 -2 -13 -10c-20 -76 -30 -90 -19 -106c4 -6 -4 -5 -4 -10s-1 -10 -6 -12
c-1 0 -2 -1 -3 -1c-4 0 -8 3 -11 5c-55 34 -54 21 -34 131c1 4 -1 6 -5 7c-11 0 -19 8 -29 12c-9 5 -16 13 -26 16zM164 706h-4c-5 0 -9 1 -13 1c-2 0 -4 0 -6 -1c4 -1 7 -2 11 -2s8 1 12 2zM249 665c-2 -4 -5 -6 -2 -11c1 4 5 6 2 11zM258 687c-2 -3 -5 -6 -3 -11
c1 4 6 7 3 11zM395 643c-2 -3 0 -7 -1 -10c3 3 5 6 1 10zM393 631c0 -4 -2 -8 0 -13c2 5 1 9 0 13zM390 606c-2 0 -1 -4 0 -6c0 1 1 2 1 3s1 4 -1 3z" />
    <glyph glyph-name="registered" unicode="&#xae;" horiz-adv-x="579" 
d="M534 472c12 -61 -6 -192 -64 -301c-41 -79 -127 -194 -227 -194c-22 0 -43 5 -64 13c-116 44 -141 98 -145 213c-3 145 114 350 212 400c36 18 19 32 65 41c9 2 18 3 27 3c22 0 42 -6 60 -22c22 -18 80 10 128 -111c6 -13 5 -28 8 -42zM361 630c-6 4 -13 5 -20 5
c-5 0 -11 -1 -17 -2c9 -1 17 -6 26 -6c4 0 7 1 11 3zM332 566c-41 -5 -118 -98 -131 -143c7 6 14 12 21 17c13 10 31 13 43 24c2 1 5 1 6 1c3 -1 6 -2 9 -2c6 0 12 2 18 2h9c36 0 40 -11 58 -15c24 -5 32 -18 28 -40c-6 -37 -54 -85 -90 -96c-5 -2 -8 -5 -5 -10
c23 -36 18 -44 58 -100c3 -5 5 -7 8 -7c2 0 5 2 8 7c8 11 12 24 18 36c39 93 56 195 23 290c-5 12 -13 21 -17 33c-3 9 -7 11 -15 11h-7c-14 -1 -28 -6 -42 -8zM334 425c1 7 -1 9 -7 9c-5 0 -13 -1 -25 -3c-6 -1 -5 -2 -27 -62c1 -1 3 -1 4 -2c14 10 53 42 55 58zM348 419
c-7 -9 -13 -17 -19 -26s-16 -14 -19 -24c17 14 35 27 38 50zM230 366c3 7 9 13 8 21c-7 -6 -8 -13 -8 -21zM246 405c-4 -5 -7 -10 -7 -17c5 5 4 12 7 17zM225 353c-5 -6 -7 -10 -4 -15c1 4 2 8 4 15zM207 503c6 2 6 6 7 10c-3 -3 -7 -5 -7 -10zM227 528c-4 -4 -7 -5 -7 -11
c3 4 7 5 7 11zM90 348c32 85 78 160 148 223c-35 -12 -85 -80 -104 -112c-20 -33 -32 -69 -46 -104c0 -2 1 -3 2 -7zM191 486c-6 -10 -13 -17 -17 -30c12 14 17 21 17 30zM194 48c21 5 41 11 59 23c54 34 75 69 86 79c6 7 10 14 13 22c-23 10 -50 12 -79 54
c-9 13 -18 27 -26 42c-5 -3 -5 -3 -13 -40c-5 -22 -14 -43 -18 -65c-2 -11 -7 -16 -13 -16c-4 0 -9 2 -14 5c-18 12 -28 7 -27 20c2 12 4 56 24 115c3 10 3 20 7 30c10 21 18 43 28 64c4 9 -3 7 -21 15c-5 2 -7 3 -10 3s-4 -2 -7 -8c-2 -3 -4 -7 -6 -12
c-22 -65 -37 -114 -35 -196c1 -69 30 -139 52 -135zM359 81c5 2 8 6 12 13c-8 -4 -11 -8 -12 -13zM373 97c24 26 43 53 56 85c-18 -29 -36 -57 -56 -85zM439 289c2 5 5 12 2 21c-33 -97 -81 -183 -159 -255c0 0 5 1 12 6c77 61 116 138 145 228z" />
    <glyph glyph-name="mu" unicode="&#xb5;" horiz-adv-x="413" 
d="M250 298c-17 -17 -29 -32 -47 -32c-21 0 -65 23 -71 43c-4 -3 -4 -8 -5 -13c-25 -151 -25 -176 -41 -365c-1 -10 -2 -14 -7 -14c-2 0 -6 1 -11 3c-7 1 -14 4 -21 5c-6 0 -8 4 -9 10c-5 67 4 177 11 238c31 272 105 446 109 449c2 2 3 2 5 2s3 0 5 -1c4 -3 2 -5 0 -16
c1 -2 1 -3 2 -2c4 4 7 6 10 6c2 0 5 -2 9 -5c3 -2 5 -3 7 -3c1 0 3 0 4 1c2 1 3 2 5 2c7 0 14 -9 12 -18c-19 -120 -24 -110 -26 -242c0 -4 -1 -7 2 -12c15 0 59 86 63 94c73 139 60 145 70 150c2 1 3 1 5 1c4 0 8 -4 6 -9c-9 -28 -12 -29 -12 -37c5 2 8 15 12 21
c4 8 6 11 8 11s5 -4 14 -10c2 -2 4 -3 5 -1c2 3 5 4 7 4c3 0 7 -2 10 -4c6 -5 5 -11 4 -17c-12 -60 -90 -319 -53 -380c6 -9 2 -17 0 -25c0 -2 -1 -3 -3 -3c-1 0 -2 1 -3 1c-6 1 -13 2 -18 8c-2 2 -5 5 -9 5c-1 0 -2 -1 -3 -1s-2 -1 -2 -1c-5 0 -4 11 -11 11h-2
c-4 -1 -6 2 -8 5c-8 11 -13 23 -16 36c-8 45 -4 74 -4 104c-1 0 -2 1 -3 1zM130 506c-59 -150 -93 -503 -80 -561c23 448 78 495 80 561zM270 427c-18 -35 -37 -70 -59 -103c17 12 59 84 59 103zM207 319c-4 0 -5 -3 -6 -7c4 2 6 3 6 7z" />
    <glyph glyph-name="infinity" unicode="&#x221e;" horiz-adv-x="633" 
d="M49 236c-4 5 -5 12 -4 20c3 14 6 28 15 40c56 76 113 108 163 108c32 0 61 -14 84 -36c6 -6 10 -8 13 -8c10 0 20 17 80 42c18 8 36 16 56 17c36 0 62 -5 80 -40c4 -8 8 -3 25 -21c46 -47 -6 -113 -49 -133c-4 -2 -16 -3 -30 -3c-50 0 -99 14 -137 47c-3 4 -6 5 -9 5
s-6 -1 -10 -4c-47 -37 -103 -79 -150 -95c-15 -6 -30 -7 -46 -7c-26 -1 -37 24 -48 30c-15 9 -22 25 -33 38zM496 348c-3 1 -6 1 -10 1c-30 0 -73 -22 -97 -36c14 -5 27 -7 40 -7c22 0 60 7 73 27c2 3 6 6 4 11c-1 3 -2 4 -5 4h-3h-2zM145 256c47 19 88 43 130 74
c-3 0 -6 1 -9 1c-44 0 -100 -41 -121 -75zM82 284c29 35 60 63 96 84c-35 -5 -92 -54 -96 -84zM299 319c0 1 -1 1 -2 1c-10 0 -53 -41 -123 -77c1 -1 2 -2 3 -2c2 0 3 1 4 2c31 13 60 33 89 52c29 21 30 20 29 24zM477 287c24 2 37 13 44 38c-15 -14 -28 -27 -44 -38z
M334 340c45 27 46 27 45 29c-16 -4 -40 -19 -45 -29zM120 287c7 7 17 12 22 21c4 1 7 4 9 11c-4 -4 -9 -5 -9 -11c-11 -3 -16 -12 -22 -21zM380 370c1 0 2 -1 3 -1c3 0 6 3 11 8c-7 -2 -12 -2 -14 -7zM266 384c-4 4 -6 4 -11 4c3 -3 5 -5 8 -5c1 0 2 0 3 1zM515 392
c-9 7 -9 7 -15 7c3 -3 7 -5 15 -7zM518 274c6 2 10 5 12 12zM376 300c2 0 3 -1 4 -1c2 0 3 1 4 2c-1 0 -3 1 -4 1s-3 -1 -4 -2z" />
    <glyph glyph-name="approxequal" unicode="&#x2248;" horiz-adv-x="589" 
d="M50 297c-20 3 38 126 128 137c4 0 8 1 12 1c73 0 137 -78 200 -78c19 0 38 7 57 26c7 7 12 24 20 22c4 -1 3 -5 2 -8c0 -1 0 -3 -1 -6c2 1 4 1 5 1c7 0 10 -5 14 -10h2c3 3 5 4 7 4c3 0 4 -2 5 -7c5 -39 -26 -85 -84 -85c-7 0 -15 0 -23 2c-53 10 -86 41 -133 63
c-11 5 -23 8 -37 8c-44 0 -96 -28 -126 -81c-4 -7 -7 -11 -12 -11c-3 0 -6 2 -10 6c-5 4 -10 5 -14 8c-3 3 -6 8 -12 8zM75 205c-10 4 7 25 11 30c27 41 99 62 147 62c31 0 63 -8 100 -28c18 -10 20 -7 41 -15c10 -3 20 -6 30 -6c29 0 72 14 89 37c1 1 3 2 4 2
c4 0 6 -3 4 -7c-12 -20 -19 -24 -34 -37c22 2 32 31 39 31c1 0 2 -1 3 -2c3 -2 11 -4 4 -10c0 -1 1 -2 1 -3c3 2 8 0 10 4c2 2 3 3 5 3c1 0 3 -1 4 -2c3 -2 4 -5 2 -9c-14 -43 -55 -79 -101 -79c-24 0 -49 9 -75 21c-43 19 -65 40 -103 40h-10c-45 -3 -96 -11 -130 -45
c-3 -4 -7 -6 -11 -6c-3 0 -6 2 -8 6c-5 9 -16 2 -13 14c1 4 5 7 5 11c-6 1 -6 -4 -8 -7c-1 -3 -2 -6 -6 -5zM67 321c25 41 52 59 63 71c-31 -14 -52 -38 -63 -71zM462 382c-10 -14 -21 -26 -34 -37c19 5 33 19 34 37zM89 222c-1 -1 -1 -3 0 -5c6 2 9 8 13 12c4 5 10 8 13 13
c-10 -4 -19 -10 -26 -20zM281 277c-16 9 -28 10 -46 10c17 -3 32 -8 46 -10zM227 415c-12 8 -23 8 -37 8c13 -1 24 -8 37 -8zM380 241c5 -4 8 -6 12 -6c3 0 5 1 8 2c-7 1 -12 2 -20 4zM100 334c-4 -2 -5 -5 -6 -8c3 2 5 4 6 8zM466 347c-2 -2 -4 -3 -4 -7c6 6 6 6 4 7z
M105 341c4 3 7 6 11 8c-5 -2 -9 -3 -11 -8zM382 348c-2 -1 -3 0 -5 0c-1 0 -2 0 -3 -1h2c2 0 4 0 6 1z" />
    <glyph glyph-name="multiply" unicode="&#xd7;" horiz-adv-x="361" 
d="M-31 32h-3c-6 0 -8 3 -7 11c3 28 100 171 122 200c9 13 -4 17 -34 100c-14 39 -34 77 -39 97c-2 5 4 21 8 23c1 1 3 1 4 1c0 0 17 -14 19 -15s3 -2 5 -2c1 0 2 1 4 2c1 1 2 2 4 2c4 0 11 -9 33 -40c29 -40 47 -85 54 -89c11 8 19 21 28 31c56 63 115 139 131 139
c3 0 4 -2 4 -8c0 -8 21 -13 28 -14c25 -3 -28 -75 -43 -95c-34 -44 -66 -87 -100 -130c-6 -8 -6 -14 -2 -22c96 -177 85 -157 87 -162c2 -6 0 -30 -13 -28c-17 3 -27 15 -49 23c-8 3 -43 58 -47 65c-11 15 -22 30 -32 48c-18 -18 -76 -106 -91 -128c-15 -23 -15 -37 -23 -37
c-1 0 -2 0 -4 1c-7 2 -16 3 -19 10c-4 8 -21 -4 -18 17c-1 1 -2 1 -3 1s-3 -1 -4 -1zM275 454c-128 -146 -131 -151 -126 -156c1 -1 1 -1 2 -1c3 0 12 13 83 98c17 21 35 41 53 63c-2 1 -3 1 -5 1c-3 0 -5 -3 -7 -5zM-16 54c11 10 -1 0 49 77c54 83 64 89 64 95
c0 3 -2 4 -4 4c-8 0 -92 -136 -104 -156c-3 -5 -6 -11 -5 -20zM76 153c-6 -4 -8 -10 -10 -16c5 4 10 9 11 16c7 5 11 12 14 19c8 8 15 17 18 27c-6 -8 -15 -15 -18 -26c-7 -5 -12 -12 -15 -20zM189 302c6 3 9 8 11 14c6 4 9 7 11 14c-6 -3 -9 -7 -11 -13
c-6 -4 -10 -8 -11 -15zM177 288c7 2 10 7 11 13c-5 -2 -9 -7 -11 -13zM59 128c-5 -6 -10 -10 -10 -17c3 5 9 8 10 17zM268 401c-5 -4 -10 -7 -11 -13c6 2 9 7 11 13zM-24 47c0 -2 0 -4 2 -5c6 4 2 7 0 7c-1 0 -2 -1 -2 -2zM212 331c6 3 8 7 10 13c-5 -3 -8 -6 -10 -13z
M170 277c3 3 8 5 7 10c-5 -1 -7 -5 -7 -10zM226 350c1 -1 1 -2 2 -1c3 2 5 5 6 11c-4 -4 -7 -6 -8 -10zM238 363c4 2 6 5 8 8c-1 1 -1 2 -2 1c-3 -2 -5 -5 -6 -9z" />
    <glyph glyph-name="cedilla" unicode="&#xb8;" horiz-adv-x="228" 
d="M47 59c1 -3 -5 -5 -1 -11c2 1 4 3 7 3c2 0 3 -1 5 -3c2 -3 4 -5 8 -5c2 0 4 0 6 2c4 2 9 -4 7 -10c-3 -13 -3 -11 -38 -63c1 -4 4 -4 7 -5c21 -11 39 -26 53 -47c11 -18 13 -36 6 -57c-18 -53 -73 -82 -127 -82c-7 0 -15 1 -22 2c-31 6 -66 34 -74 39
c-14 10 -18 29 -11 47c14 33 23 44 36 48h4s2 0 3 -1c3 -5 -5 -6 -1 -13c3 2 5 3 8 3s6 -2 8 -7c1 -1 2 -2 3 -2c2 0 4 3 8 4h2c4 0 6 -4 4 -9c-3 -17 -11 -17 -12 -25c-1 -6 0 -10 4 -10c0 0 1 1 2 1c22 9 109 26 84 68c-4 7 -9 13 -16 16c-13 6 -24 17 -37 24
c-6 4 -8 11 -4 18c6 16 14 29 27 39c12 9 23 20 35 30c4 3 7 7 12 7c1 0 3 0 4 -1zM48 -101c-5 -15 -15 -24 -23 -38c23 11 29 21 23 38zM16 16c-8 -6 -16 -11 -21 -21c9 4 15 13 21 21zM-95 -107c-11 -6 -12 -7 -10 -18c3 6 6 11 10 18zM37 38c-4 -3 -9 -5 -13 -13
c7 3 11 7 13 13zM64 -142c4 0 6 4 7 7c0 1 -1 1 -2 2c-3 -4 -1 -1 -5 -9z" />
    <glyph glyph-name="circumflex" unicode="&#x2c6;" horiz-adv-x="236" 
d="M132 643c-10 -10 -19 -22 -27 -33c-7 -11 -16 -20 -23 -30c-3 -3 -6 -5 -10 -5c-1 0 -3 0 -5 1c-24 5 -29 5 -28 10c3 12 1 13 33 58c34 47 45 58 52 58c4 0 6 -3 10 -5s8 -4 12 -4c3 0 5 0 8 2c1 1 2 1 4 1c13 0 29 -27 34 -38c32 -56 37 -57 32 -80c-1 -2 -3 -3 -5 -3
h-6c-3 0 -5 0 -7 1c-15 7 -31 2 -41 16c-10 15 -21 29 -28 46c-1 2 -2 4 -5 5z" />
    <glyph glyph-name="caron" unicode="&#x2c7;" horiz-adv-x="227" 
d="M134 634c4 0 4 3 6 4c6 10 23 41 35 43c4 0 7 3 11 3c8 1 21 9 30 9c5 0 8 -2 9 -6c3 -14 2 -27 -7 -39c-9 -14 -28 -48 -43 -65c-8 -9 -13 -11 -18 -11c-4 0 -8 2 -12 2c-5 0 -10 -2 -18 -8c-3 -2 -5 -3 -7 -3c-8 0 -14 11 -24 27c-7 12 -55 102 -44 106c1 0 1 1 2 1
c3 0 4 -4 6 -6c3 -8 29 -74 53 -104c0 11 2 -3 -45 95c-2 6 -6 12 -3 19c2 -1 4 -1 6 -1c8 0 13 4 18 4c3 0 7 -2 11 -9c8 -15 31 -58 34 -61z" />
    <glyph glyph-name="breve" unicode="&#x2d8;" horiz-adv-x="268" 
d="M185 569c-15 0 -26 1 -41 4c-45 12 -77 34 -77 81c0 8 3 15 6 23c1 3 3 5 7 4c6 -1 2 -9 4 -9c0 0 1 1 3 2c3 2 7 -5 13 -5c2 0 5 1 7 3c0 1 1 1 2 1c3 0 6 -3 7 -6c9 -25 3 -21 19 -44c4 -6 8 -8 14 -8c2 0 4 0 6 1c29 5 46 32 48 56c1 4 1 8 4 11c3 4 4 6 5 6
c2 0 3 -2 6 -5c5 -4 11 -6 15 -11c2 -2 4 -1 5 2c1 2 2 3 3 3s3 -2 4 -3c20 -22 -7 -98 -60 -106zM211 650c-7 -12 -16 -23 -22 -36c13 8 21 20 22 36z" />
    <glyph glyph-name="dotaccent" unicode="&#x2d9;" horiz-adv-x="210" 
d="M186 612c-4 -29 -21 -53 -45 -53c-5 0 -11 1 -17 4c-33 14 -62 24 -55 59c6 27 20 59 38 59c5 0 10 -2 15 -7c9 -8 18 -10 28 -13c27 -7 36 -19 36 -49z" />
    <glyph glyph-name="ring" unicode="&#x2da;" horiz-adv-x="243" 
d="M227 631c-4 -47 -29 -70 -63 -85c-5 -2 -11 -3 -17 -3c-21 0 -44 12 -64 22c-15 8 -20 20 -15 37c11 31 29 57 57 74c11 8 8 21 21 21h3c18 -2 19 -13 35 -15c14 -1 26 -9 35 -19c7 -7 10 -17 8 -32zM127 584c24 3 38 26 43 39c3 8 5 19 0 24c-22 -8 -41 -37 -43 -63z
M120 653c-21 -16 -34 -35 -32 -49c10 19 21 33 32 49zM190 626c-7 -10 -21 -32 -27 -42c11 6 27 28 27 42zM136 671c-4 0 -3 -4 -1 -4s4 5 1 4zM155 687c-2 1 -7 4 -7 1c0 -1 1 -2 3 -2c1 0 2 1 4 1z" />
    <glyph glyph-name="tilde" unicode="&#x2dc;" horiz-adv-x="312" 
d="M76 605c-5 3 -5 8 -3 12c11 25 26 49 56 49c20 0 31 -17 55 -25c7 -2 13 -7 19 -10c3 -1 7 -2 11 -2c12 0 24 6 30 17c2 5 5 9 7 13c1 3 3 5 6 4c4 -1 3 -5 3 -8c-1 -4 -2 -9 -6 -11c1 -1 3 -1 5 0c4 4 6 6 8 6s4 -2 8 -6c2 -2 3 -4 5 -4c1 0 2 1 4 3c1 2 3 3 5 3
c5 0 10 -10 -9 -46c-9 -17 -24 -26 -41 -26c-4 0 -9 1 -14 2c-27 7 -51 20 -72 38c-4 3 -7 4 -11 4c-2 0 -5 -1 -8 -2c-28 -13 -21 -24 -28 -24h-3c-10 3 -19 8 -27 13zM236 616c6 3 11 6 15 11s7 10 3 17c-3 -12 -12 -19 -18 -28zM98 634c-8 -3 -12 -8 -12 -16
c4 5 8 10 12 16zM136 655c-1 1 -3 2 -4 2s-2 -1 -3 -2c1 1 3 -2 5 -2z" />
    <glyph glyph-name="questiondown" unicode="&#xbf;" horiz-adv-x="406" 
d="M76 -7c-39 13 -57 46 -54 90c2 17 9 32 12 48c17 80 197 342 192 410c-1 6 -7 13 3 16c0 6 0 11 4 16c3 3 5 3 9 3c7 -2 16 -3 21 -10c2 -3 5 -7 9 -7c18 -2 13 -18 20 -15c1 1 3 1 4 1c10 0 13 -27 13 -34c-2 -45 -43 -151 -60 -193c-19 -45 -89 -151 -120 -223
c-8 -19 -13 -39 -16 -59c-2 -12 0 -15 9 -15c79 0 164 77 211 135c8 8 0 17 -11 17s-6 11 -4 11c10 3 20 9 30 9s32 -14 39 -21c10 -7 12 -13 8 -25c-16 -51 -120 -154 -194 -177c-24 -8 -42 -11 -56 -11c-43 0 -49 27 -69 34zM376 140c-35 -49 -78 -88 -126 -123
c39 16 125 95 126 123zM137 -29c-7 3 -12 6 -22 6c6 -4 11 -7 17 -7c2 0 3 1 5 1zM245 380c-4 -3 -5 -7 -5 -10c4 2 5 4 5 10zM239 368c-4 -9 -11 -16 -10 -27c6 8 10 17 10 27zM229 340c-5 1 -2 -2 -29 -49c-78 -136 -83 -148 -83 -158c3 0 4 2 5 4c10 27 100 171 107 203z
M117 132c-5 -3 -7 -8 -7 -14c2 5 8 8 7 14zM61 16c0 3 -2 5 -7 7c2 -5 4 -7 7 -7zM241 657c3 8 1 13 -4 19c-10 13 -5 31 5 47c7 10 13 13 22 13c15 0 32 -8 45 -15c7 -3 11 -10 11 -19c-4 -16 -18 -64 -39 -64c-9 0 -16 9 -28 9h-4c-2 0 -3 -1 -5 -1c-5 0 -5 4 -3 11z
M302 691c-2 -6 -6 -8 -3 -13c5 3 4 6 3 13z" />
    <glyph glyph-name="Agrave" unicode="&#xc0;" horiz-adv-x="446" 
d="M-27 -45c-29 34 37 227 56 263c14 27 0 22 -8 27c-9 7 -16 15 -26 21c-2 1 -1 4 0 6c5 10 13 13 21 13c10 0 20 -3 32 -3c7 0 11 2 15 10c29 68 68 134 103 200c33 61 85 152 137 201c6 5 15 9 24 14c3 1 7 2 10 2c9 0 19 -4 25 -13c7 -11 14 -20 29 -20
c19 -1 32 -10 37 -28c6 -16 7 -33 6 -50c-7 -97 -6 -58 -11 -106c-6 -43 -30 -149 -33 -168c-1 -6 -2 -12 6 -14c3 -1 7 -3 4 -6c0 -1 -2 -1 -3 -1c-2 0 -3 0 -5 -2c6 -3 13 -5 18 -9c3 -3 9 -4 13 -4c12 0 18 -10 17 -10c-12 -9 1 -18 -17 -18c-13 0 -27 -1 -40 -2
c-8 0 -10 -7 -11 -12c-3 -16 -7 -31 -10 -47c-4 -27 -9 -53 -12 -80c-5 -50 -13 -101 -8 -152c1 -8 -4 -16 -7 -25c-1 -3 -5 -3 -8 -3c-8 0 -13 4 -19 8c-4 2 -7 5 -12 5c-1 0 -2 -1 -4 -1c-9 -2 -4 9 -10 11c-4 1 -8 -2 -11 -2c-2 0 -4 1 -5 4c-14 34 -8 70 -9 113
c-1 7 5 104 5 110c4 50 7 56 -2 56h-5c-28 -2 -56 -8 -83 -8c-21 0 -28 -8 -36 -24c-26 -61 -73 -181 -84 -246c-3 -18 -10 -25 -20 -25c-4 0 -9 1 -14 3c-13 7 -20 0 -27 8c-3 4 -5 5 -7 5c-3 0 -5 -3 -8 -3c-1 0 -2 1 -3 2zM182 298c30 5 59 9 88 11c3 0 5 1 5 4
c6 20 0 7 12 62c46 207 36 160 39 187c-22 -23 -142 -243 -144 -264zM247 814c-8 9 -9 11 -4 21c2 3 4 4 1 8s4 8 10 8c2 0 4 -1 5 -2c8 -9 20 -8 30 -11c2 -1 4 0 5 2c2 4 5 5 8 5c2 0 4 -1 7 -1c34 -8 74 -69 92 -96c2 -3 5 -5 0 -8c-3 -2 0 -3 1 -5c4 -9 0 -16 -9 -16
c-19 0 -57 3 -72 16c-74 74 -19 20 -74 79zM118 358c-36 -74 -36 -69 -32 -71c1 -1 2 -1 3 -1c4 0 6 8 8 11c101 199 59 114 114 216c25 47 70 121 109 154c1 2 3 4 1 9c-23 -7 -52 -52 -65 -71c-28 -45 -110 -192 -138 -247zM-7 39c-2 -14 -10 -27 -3 -43c8 17 7 66 55 185
c21 50 23 49 20 51c-1 1 -3 1 -4 1c-4 0 -5 -4 -7 -8c-27 -65 -48 -115 -61 -186zM293 591c8 12 22 22 26 36c7 2 10 7 12 13c-7 -3 -12 -7 -13 -13c-12 -10 -18 -23 -25 -36zM35 60c-3 -12 -11 -22 -8 -35c6 20 14 40 17 62c-6 -8 -7 -17 -9 -27zM79 181c8 8 10 19 13 30
c-9 -8 -10 -20 -13 -30c-7 -7 -9 -14 -9 -23c4 8 10 14 9 23zM51 109c-4 -6 -7 -12 -5 -17c4 4 7 10 5 17zM63 143c-2 -3 -6 -7 -3 -12c3 4 5 8 5 12c0 1 -1 1 -2 0zM92 211c5 4 5 8 5 13c-3 -4 -7 -8 -5 -13zM305 833c-1 1 -2 2 -3 2c-2 0 -3 -2 -2 -3s3 -1 4 -1s1 1 1 2z
" />
    <glyph glyph-name="Aacute" unicode="&#xc1;" horiz-adv-x="446" 
d="M-27 -45c-29 34 37 227 56 263c14 27 0 22 -8 27c-9 7 -16 15 -26 21c-2 1 -1 4 0 6c5 10 13 13 21 13c10 0 20 -3 32 -3c7 0 11 2 15 10c29 68 68 134 103 200c33 61 85 152 137 201c6 5 15 9 24 14c3 1 7 2 10 2c9 0 19 -4 25 -13c7 -11 14 -20 29 -20
c19 -1 32 -10 37 -28c6 -16 7 -33 6 -50c-7 -97 -6 -58 -11 -106c-6 -43 -30 -149 -33 -168c-1 -6 -2 -12 6 -14c3 -1 7 -3 4 -6c0 -1 -2 -1 -3 -1c-2 0 -3 0 -5 -2c6 -3 13 -5 18 -9c3 -3 9 -4 13 -4c12 0 18 -10 17 -10c-12 -9 1 -18 -17 -18c-13 0 -27 -1 -40 -2
c-8 0 -10 -7 -11 -12c-3 -16 -7 -31 -10 -47c-4 -27 -9 -53 -12 -80c-5 -50 -13 -101 -8 -152c1 -8 -4 -16 -7 -25c-1 -3 -5 -3 -8 -3c-8 0 -13 4 -19 8c-4 2 -7 5 -12 5c-1 0 -2 -1 -4 -1c-9 -2 -4 9 -10 11c-4 1 -8 -2 -11 -2c-2 0 -4 1 -5 4c-14 34 -8 70 -9 113
c-1 7 5 104 5 110c4 50 7 56 -2 56h-5c-28 -2 -56 -8 -83 -8c-21 0 -28 -8 -36 -24c-26 -61 -73 -181 -84 -246c-3 -18 -10 -25 -20 -25c-4 0 -9 1 -14 3c-13 7 -20 0 -27 8c-3 4 -5 5 -7 5c-3 0 -5 -3 -8 -3c-1 0 -2 1 -3 2zM326 562c-22 -23 -142 -243 -144 -264
c30 5 59 9 88 11c3 0 5 1 5 4c6 20 0 7 12 62c46 207 36 160 39 187zM266 727c1 6 -18 3 -8 17c10 16 101 82 129 91h3c2 0 5 -1 6 -3c2 -4 -2 -5 -4 -8c8 0 12 -6 14 -11c1 -3 2 -5 4 -5c1 0 2 0 3 1c2 1 3 1 4 1c3 0 6 -2 7 -5c10 -15 -93 -79 -114 -94
c-11 -7 -15 -12 -19 -12c-3 0 -6 2 -11 7c-4 5 -6 12 -13 14c-2 1 -1 4 -1 7zM118 358c-36 -74 -36 -69 -32 -71c1 -1 2 -1 3 -1c4 0 6 8 8 11c101 199 59 114 114 216c25 47 70 121 109 154c1 2 3 4 1 9c-23 -7 -52 -52 -65 -71c-28 -45 -110 -192 -138 -247zM-7 39
c-2 -14 -10 -27 -3 -43c8 17 7 66 55 185c21 50 23 49 20 51c-1 1 -3 1 -4 1c-4 0 -5 -4 -7 -8c-27 -65 -48 -115 -61 -186zM285 754c-3 -2 -7 -5 -6 -11c36 25 70 50 107 72c-2 2 -3 2 -5 2s-3 0 -4 -1c-33 -17 -62 -40 -92 -62zM318 627c-12 -10 -18 -23 -25 -36
c8 12 22 22 26 36c7 2 10 7 12 13c-7 -3 -12 -7 -13 -13zM35 60c-3 -12 -11 -22 -8 -35c6 20 14 40 17 62c-6 -8 -7 -17 -9 -27zM70 158c4 8 10 14 9 23c8 8 10 19 13 30c-9 -8 -10 -20 -13 -30c-7 -7 -9 -14 -9 -23zM51 109c-4 -6 -7 -12 -5 -17c4 4 7 10 5 17zM63 143
c-2 -3 -6 -7 -3 -12c3 4 5 8 5 12c0 1 -1 1 -2 0zM92 211c5 4 5 8 5 13c-3 -4 -7 -8 -5 -13zM362 776c3 2 5 4 11 8c-7 -1 -10 -3 -11 -8zM347 768c-3 -1 -6 -2 -7 -7c4 2 7 3 7 7zM299 735c3 0 6 1 6 5c-2 -2 -4 -3 -6 -5z" />
    <glyph glyph-name="Acircumflex" unicode="&#xc2;" horiz-adv-x="446" 
d="M-27 -45c-29 34 37 227 56 263c14 27 0 22 -8 27c-9 7 -16 15 -26 21c-2 1 -1 4 0 6c5 10 13 13 21 13c10 0 20 -3 32 -3c7 0 11 2 15 10c29 68 68 134 103 200c33 61 85 152 137 201c6 5 15 9 24 14c3 1 7 2 10 2c9 0 19 -4 25 -13c7 -11 14 -20 29 -20
c19 -1 32 -10 37 -28c6 -16 7 -33 6 -50c-7 -97 -6 -58 -11 -106c-6 -43 -30 -149 -33 -168c-1 -6 -2 -12 6 -14c3 -1 7 -3 4 -6c0 -1 -2 -1 -3 -1c-2 0 -3 0 -5 -2c6 -3 13 -5 18 -9c3 -3 9 -4 13 -4c12 0 18 -10 17 -10c-12 -9 1 -18 -17 -18c-13 0 -27 -1 -40 -2
c-8 0 -10 -7 -11 -12c-3 -16 -7 -31 -10 -47c-4 -27 -9 -53 -12 -80c-5 -50 -13 -101 -8 -152c1 -8 -4 -16 -7 -25c-1 -3 -5 -3 -8 -3c-8 0 -13 4 -19 8c-4 2 -7 5 -12 5c-1 0 -2 -1 -4 -1c-9 -2 -4 9 -10 11c-4 1 -8 -2 -11 -2c-2 0 -4 1 -5 4c-14 34 -8 70 -9 113
c-1 7 5 104 5 110c4 50 7 56 -2 56h-5c-28 -2 -56 -8 -83 -8c-21 0 -28 -8 -36 -24c-26 -61 -73 -181 -84 -246c-3 -18 -10 -25 -20 -25c-4 0 -9 1 -14 3c-13 7 -20 0 -27 8c-3 4 -5 5 -7 5c-3 0 -5 -3 -8 -3c-1 0 -2 1 -3 2zM326 562c-22 -23 -142 -243 -144 -264
c30 5 59 9 88 11c3 0 5 1 5 4c6 20 0 7 12 62c46 207 36 160 39 187zM276 699c-24 5 -29 5 -28 10c3 12 1 13 33 58c34 47 45 58 52 58c4 0 6 -3 10 -5s8 -4 12 -4c3 0 5 0 8 2c1 1 2 1 4 1c13 0 29 -27 34 -38c32 -56 37 -57 32 -80c-1 -2 -3 -3 -5 -3h-6c-3 0 -5 0 -7 1
c-15 7 -31 2 -41 16c-10 15 -21 29 -28 46c-1 2 -2 4 -5 5c-10 -10 -19 -22 -27 -33c-7 -11 -16 -20 -23 -30c-3 -3 -6 -5 -10 -5c-1 0 -3 0 -5 1zM118 358c-36 -74 -36 -69 -32 -71c1 -1 2 -1 3 -1c4 0 6 8 8 11c101 199 59 114 114 216c25 47 70 121 109 154c1 2 3 4 1 9
c-23 -7 -52 -52 -65 -71c-28 -45 -110 -192 -138 -247zM-7 39c-2 -14 -10 -27 -3 -43c8 17 7 66 55 185c21 50 23 49 20 51c-1 1 -3 1 -4 1c-4 0 -5 -4 -7 -8c-27 -65 -48 -115 -61 -186zM293 591c8 12 22 22 26 36c7 2 10 7 12 13c-7 -3 -12 -7 -13 -13
c-12 -10 -18 -23 -25 -36zM35 60c-3 -12 -11 -22 -8 -35c6 20 14 40 17 62c-6 -8 -7 -17 -9 -27zM79 181c8 8 10 19 13 30c-9 -8 -10 -20 -13 -30c-7 -7 -9 -14 -9 -23c4 8 10 14 9 23zM51 109c-4 -6 -7 -12 -5 -17c4 4 7 10 5 17zM63 143c-2 -3 -6 -7 -3 -12c3 4 5 8 5 12
c0 1 -1 1 -2 0zM92 211c5 4 5 8 5 13c-3 -4 -7 -8 -5 -13z" />
    <glyph glyph-name="Atilde" unicode="&#xc3;" horiz-adv-x="446" 
d="M-27 -45c-29 34 37 227 56 263c14 27 0 22 -8 27c-9 7 -16 15 -26 21c-2 1 -1 4 0 6c5 10 13 13 21 13c10 0 20 -3 32 -3c7 0 11 2 15 10c29 68 68 134 103 200c33 61 85 152 137 201c6 5 15 9 24 14c3 1 7 2 10 2c9 0 19 -4 25 -13c7 -11 14 -20 29 -20
c19 -1 32 -10 37 -28c6 -16 7 -33 6 -50c-7 -97 -6 -58 -11 -106c-6 -43 -30 -149 -33 -168c-1 -6 -2 -12 6 -14c3 -1 7 -3 4 -6c0 -1 -2 -1 -3 -1c-2 0 -3 0 -5 -2c6 -3 13 -5 18 -9c3 -3 9 -4 13 -4c12 0 18 -10 17 -10c-12 -9 1 -18 -17 -18c-13 0 -27 -1 -40 -2
c-8 0 -10 -7 -11 -12c-3 -16 -7 -31 -10 -47c-4 -27 -9 -53 -12 -80c-5 -50 -13 -101 -8 -152c1 -8 -4 -16 -7 -25c-1 -3 -5 -3 -8 -3c-8 0 -13 4 -19 8c-4 2 -7 5 -12 5c-1 0 -2 -1 -4 -1c-9 -2 -4 9 -10 11c-4 1 -8 -2 -11 -2c-2 0 -4 1 -5 4c-14 34 -8 70 -9 113
c-1 7 5 104 5 110c4 50 7 56 -2 56h-5c-28 -2 -56 -8 -83 -8c-21 0 -28 -8 -36 -24c-26 -61 -73 -181 -84 -246c-3 -18 -10 -25 -20 -25c-4 0 -9 1 -14 3c-13 7 -20 0 -27 8c-3 4 -5 5 -7 5c-3 0 -5 -3 -8 -3c-1 0 -2 1 -3 2zM326 562c-22 -23 -142 -243 -144 -264
c30 5 59 9 88 11c3 0 5 1 5 4c6 20 0 7 12 62c46 207 36 160 39 187zM253 731c-5 3 -5 8 -3 12c11 25 26 49 56 49c20 0 31 -17 55 -25c7 -2 13 -7 19 -10c3 -1 7 -2 11 -2c12 0 24 6 30 17c2 5 5 9 7 13c1 3 3 5 6 4c4 -1 3 -5 3 -8c-1 -4 -2 -9 -6 -11c1 -1 3 -1 5 0
c4 4 6 6 8 6s4 -2 8 -6c2 -2 3 -4 5 -4c1 0 2 1 4 3c1 2 3 3 5 3c5 0 10 -10 -9 -46c-9 -17 -24 -26 -41 -26c-4 0 -9 1 -14 2c-27 7 -51 20 -72 38c-4 3 -7 4 -11 4c-2 0 -5 -1 -8 -2c-28 -13 -21 -24 -28 -24h-3c-10 3 -19 8 -27 13zM118 358c-36 -74 -36 -69 -32 -71
c1 -1 2 -1 3 -1c4 0 6 8 8 11c101 199 59 114 114 216c25 47 70 121 109 154c1 2 3 4 1 9c-23 -7 -52 -52 -65 -71c-28 -45 -110 -192 -138 -247zM-7 39c-2 -14 -10 -27 -3 -43c8 17 7 66 55 185c21 50 23 49 20 51c-1 1 -3 1 -4 1c-4 0 -5 -4 -7 -8
c-27 -65 -48 -115 -61 -186zM293 591c8 12 22 22 26 36c7 2 10 7 12 13c-7 -3 -12 -7 -13 -13c-12 -10 -18 -23 -25 -36zM35 60c-3 -12 -11 -22 -8 -35c6 20 14 40 17 62c-6 -8 -7 -17 -9 -27zM79 181c8 8 10 19 13 30c-9 -8 -10 -20 -13 -30c-7 -7 -9 -14 -9 -23
c4 8 10 14 9 23zM431 770c-3 -12 -12 -19 -18 -28c6 3 11 6 15 11s7 10 3 17zM51 109c-4 -6 -7 -12 -5 -17c4 4 7 10 5 17zM263 744c4 5 8 10 12 16c-8 -3 -12 -8 -12 -16zM63 143c-2 -3 -6 -7 -3 -12c3 4 5 8 5 12c0 1 -1 1 -2 0zM92 211c5 4 5 8 5 13c-3 -4 -7 -8 -5 -13z
M313 781c-1 1 -3 2 -4 2s-2 -1 -3 -2c1 1 3 -2 5 -2z" />
    <glyph glyph-name="Adieresis" unicode="&#xc4;" horiz-adv-x="446" 
d="M-27 -45c-29 34 37 227 56 263c14 27 0 22 -8 27c-9 7 -16 15 -26 21c-2 1 -1 4 0 6c5 10 13 13 21 13c10 0 20 -3 32 -3c7 0 11 2 15 10c29 68 68 134 103 200c33 61 85 152 137 201c6 5 15 9 24 14c3 1 7 2 10 2c9 0 19 -4 25 -13c7 -11 14 -20 29 -20
c19 -1 32 -10 37 -28c6 -16 7 -33 6 -50c-7 -97 -6 -58 -11 -106c-6 -43 -30 -149 -33 -168c-1 -6 -2 -12 6 -14c3 -1 7 -3 4 -6c0 -1 -2 -1 -3 -1c-2 0 -3 0 -5 -2c6 -3 13 -5 18 -9c3 -3 9 -4 13 -4c12 0 18 -10 17 -10c-12 -9 1 -18 -17 -18c-13 0 -27 -1 -40 -2
c-8 0 -10 -7 -11 -12c-3 -16 -7 -31 -10 -47c-4 -27 -9 -53 -12 -80c-5 -50 -13 -101 -8 -152c1 -8 -4 -16 -7 -25c-1 -3 -5 -3 -8 -3c-8 0 -13 4 -19 8c-4 2 -7 5 -12 5c-1 0 -2 -1 -4 -1c-9 -2 -4 9 -10 11c-4 1 -8 -2 -11 -2c-2 0 -4 1 -5 4c-14 34 -8 70 -9 113
c-1 7 5 104 5 110c4 50 7 56 -2 56h-5c-28 -2 -56 -8 -83 -8c-21 0 -28 -8 -36 -24c-26 -61 -73 -181 -84 -246c-3 -18 -10 -25 -20 -25c-4 0 -9 1 -14 3c-13 7 -20 0 -27 8c-3 4 -5 5 -7 5c-3 0 -5 -3 -8 -3c-1 0 -2 1 -3 2zM182 298c30 5 59 9 88 11c3 0 5 1 5 4
c6 20 0 7 12 62c46 207 36 160 39 187c-22 -23 -142 -243 -144 -264zM379 724c-22 9 -4 50 8 66c8 10 23 15 32 15c3 0 6 -1 7 -2c5 -9 12 -11 20 -11c3 0 6 1 9 1c15 0 20 -7 19 -23c-2 -21 -16 -64 -42 -64c-12 0 -27 7 -53 18zM214 723c-9 1 -13 8 -12 16
c2 19 14 61 39 61c7 0 14 -3 18 -9c5 -6 8 -8 11 -8c4 0 7 3 11 3c1 0 3 -1 5 -2c6 -5 -2 -12 4 -16c5 2 1 13 10 11c7 -2 9 -8 8 -14c-2 -20 -15 -64 -41 -64c-15 0 -27 14 -36 12c-3 -1 -6 1 -7 4c-2 4 -6 5 -10 6zM118 358c-36 -74 -36 -69 -32 -71c1 -1 2 -1 3 -1
c4 0 6 8 8 11c101 199 59 114 114 216c25 47 70 121 109 154c1 2 3 4 1 9c-23 -7 -52 -52 -65 -71c-28 -45 -110 -192 -138 -247zM-7 39c-2 -14 -10 -27 -3 -43c8 17 7 66 55 185c21 50 23 49 20 51c-1 1 -3 1 -4 1c-4 0 -5 -4 -7 -8c-27 -65 -48 -115 -61 -186zM318 627
c-12 -10 -18 -23 -25 -36c8 12 22 22 26 36c7 2 10 7 12 13c-7 -3 -12 -7 -13 -13zM35 60c-3 -12 -11 -22 -8 -35c6 20 14 40 17 62c-6 -8 -7 -17 -9 -27zM79 181c8 8 10 19 13 30c-9 -8 -10 -20 -13 -30c-7 -7 -9 -14 -9 -23c4 8 10 14 9 23zM235 774c-8 -5 -13 -9 -10 -18
c7 3 8 9 10 18zM51 109c-4 -6 -7 -12 -5 -17c4 4 7 10 5 17zM63 143c-2 -3 -6 -7 -3 -12c3 4 5 8 5 12c0 1 -1 1 -2 0zM92 211c5 4 5 8 5 13c-3 -4 -7 -8 -5 -13z" />
    <glyph glyph-name="Aring" unicode="&#xc5;" horiz-adv-x="446" 
d="M-27 -45c-29 34 37 227 56 263c14 27 0 22 -8 27c-9 7 -16 15 -26 21c-2 1 -1 4 0 6c5 10 13 13 21 13c10 0 20 -3 32 -3c7 0 11 2 15 10c29 68 68 134 103 200c33 61 85 152 137 201c5 4 11 7 18 11c-8 3 -16 7 -23 11c-15 8 -20 20 -15 37c11 31 29 57 57 74
c11 8 8 21 21 21h3c18 -2 19 -13 35 -15c14 -1 26 -9 35 -19c7 -7 10 -17 8 -32c-4 -47 -29 -70 -63 -85c-5 -2 -10 -3 -15 -3c2 -4 5 -9 9 -11c5 -3 11 -6 18 -6c19 -1 32 -10 37 -28c6 -16 7 -33 6 -50c-7 -97 -6 -58 -11 -106c-6 -43 -30 -149 -33 -168
c-1 -6 -2 -12 6 -14c3 -1 7 -3 4 -6c0 -1 -2 -1 -3 -1c-2 0 -3 0 -5 -2c6 -3 13 -5 18 -9c3 -3 9 -4 13 -4c12 0 18 -10 17 -10c-12 -9 1 -18 -17 -18c-13 0 -27 -1 -40 -2c-8 0 -10 -7 -11 -12c-3 -16 -7 -31 -10 -47c-4 -27 -9 -53 -12 -80c-5 -50 -13 -101 -8 -152
c1 -8 -4 -16 -7 -25c-1 -3 -5 -3 -8 -3c-8 0 -13 4 -19 8c-4 2 -7 5 -12 5c-1 0 -2 -1 -4 -1c-9 -2 -4 9 -10 11c-4 1 -8 -2 -11 -2c-2 0 -4 1 -5 4c-14 34 -8 70 -9 113c-1 7 5 104 5 110c4 50 7 56 -2 56h-5c-28 -2 -56 -8 -83 -8c-21 0 -28 -8 -36 -24
c-26 -61 -73 -181 -84 -246c-3 -18 -10 -25 -20 -25c-4 0 -9 1 -14 3c-13 7 -20 0 -27 8c-3 4 -5 5 -7 5c-3 0 -5 -3 -8 -3c-1 0 -2 1 -3 2zM182 298c30 5 59 9 88 11c3 0 5 1 5 4c6 20 0 7 12 62c46 207 36 160 39 187c-22 -23 -142 -243 -144 -264zM118 358
c-36 -74 -36 -69 -32 -71c1 -1 2 -1 3 -1c4 0 6 8 8 11c101 199 59 114 114 216c25 47 70 121 109 154c1 2 3 4 1 9c-23 -7 -52 -52 -65 -71c-28 -45 -110 -192 -138 -247zM-7 39c-2 -14 -10 -27 -3 -43c8 17 7 66 55 185c21 50 23 49 20 51c-1 1 -3 1 -4 1
c-4 0 -5 -4 -7 -8c-27 -65 -48 -115 -61 -186zM385 797c-22 -8 -41 -37 -43 -63c24 3 38 26 43 39c3 8 5 19 0 24zM335 803c-21 -16 -34 -35 -32 -49c10 19 21 33 32 49zM378 734c11 6 27 28 27 42c-7 -10 -21 -32 -27 -42zM293 591c8 12 22 22 26 36c7 2 10 7 12 13
c-7 -3 -12 -7 -13 -13c-12 -10 -18 -23 -25 -36zM35 60c-3 -12 -11 -22 -8 -35c6 20 14 40 17 62c-6 -8 -7 -17 -9 -27zM79 181c8 8 10 19 13 30c-9 -8 -10 -20 -13 -30c-7 -7 -9 -14 -9 -23c4 8 10 14 9 23zM51 109c-4 -6 -7 -12 -5 -17c4 4 7 10 5 17zM63 143
c-2 -3 -6 -7 -3 -12c3 4 5 8 5 12c0 1 -1 1 -2 0zM92 211c5 4 5 8 5 13c-3 -4 -7 -8 -5 -13zM351 821c-4 0 -3 -4 -1 -4s4 5 1 4zM363 838c0 -1 1 -2 3 -2c1 0 2 1 4 1c-2 1 -7 4 -7 1z" />
    <glyph glyph-name="AE" unicode="&#xc6;" horiz-adv-x="616" 
d="M-29 -43c-28 33 38 227 58 265c14 26 0 21 -8 27c-9 6 -16 15 -26 20c-2 1 -2 5 -1 7c6 10 14 13 23 13s20 -3 32 -3c7 0 11 3 15 9c30 69 68 135 104 202c30 54 72 128 118 179c-7 2 -12 4 -7 13c7 13 20 5 13 16c-3 5 18 8 37 9c1 0 1 0 2 1c4 1 7 2 11 2s8 -1 12 -2
c35 2 71 1 107 2c38 0 128 -6 158 -17c5 -2 4 -10 -1 -8c-3 1 -5 2 -7 2s-3 -1 -4 -2c6 -6 47 -24 58 -28c4 -1 7 -6 8 -13h-3c-4 0 -8 -2 -5 -10c1 -6 -4 -10 -10 -10h-2c-3 0 -7 1 -12 1c-29 0 -86 -6 -153 -6h-14c-3 0 -7 1 -9 1c-6 0 -10 -2 -7 -9c1 -4 2 -4 4 -4h3
c6 1 8 5 12 5c1 0 2 0 4 -2c3 -6 8 -9 7 -18c-3 -17 -5 -34 -12 -50c-7 -22 -11 -46 -16 -68c-11 -42 -11 -23 -20 -81c41 -2 79 -2 118 -11c1 -1 2 -3 3 -4c-1 -4 -3 -3 -6 -3c-1 0 -3 0 -3 -2c1 -1 1 -3 3 -3c14 -3 26 -13 40 -15c7 -1 6 -4 5 -14c-1 -15 -10 -16 -20 -16
c-158 -11 -160 4 -164 -18c-5 -35 -58 -217 -49 -285c3 -10 4 -13 11 -13h4c35 3 69 11 99 31c2 2 4 3 5 3c3 0 6 -1 12 -2c-1 -6 -8 -12 -2 -21c2 2 4 3 5 4c3 2 7 2 10 2c6 0 11 -1 12 -5c2 -6 4 -8 5 -8c4 0 8 10 16 10c2 0 5 -1 8 -3c3 -1 6 -4 5 -7
c-5 -12 -5 -24 -15 -33c-36 -32 -80 -43 -126 -47h-7c-17 0 -34 6 -51 11c-5 2 -8 3 -12 4c-3 -4 -4 -8 -5 -11c-1 -4 -3 -4 -5 -4h-3c-8 0 -13 5 -19 7c-5 4 -10 5 -16 5h-2c-7 0 -4 10 -10 11c-3 1 -7 -2 -10 -2c-2 0 -4 1 -5 4c-16 35 -8 71 -10 115c0 5 5 104 6 110
c4 49 6 57 -1 57c-2 0 -4 -1 -6 -1c-29 -3 -58 -7 -86 -7c-21 -1 -29 -8 -35 -25c-28 -62 -75 -183 -87 -249c-3 -18 -10 -25 -19 -25c-5 0 -10 2 -15 5c-13 5 -21 -1 -27 7c-3 3 -5 4 -8 4c-2 0 -5 -1 -7 -1s-3 0 -5 2zM186 303c29 3 58 8 88 10c3 0 5 2 6 4
c6 19 -1 7 12 62c47 209 36 161 39 189c-22 -23 -143 -245 -145 -265zM120 363c-38 -74 -38 -71 -32 -73c5 -2 7 6 11 12c50 97 102 193 157 287c16 24 32 48 53 69c-3 1 -5 2 -7 1c-1 0 -2 1 -2 1v4c-16 -17 -31 -40 -39 -53c-30 -44 -113 -193 -141 -248zM-8 41
c-2 -14 -9 -28 -2 -44c8 17 7 67 56 187c21 51 23 50 19 52c-1 1 -2 1 -3 1c-4 0 -6 -5 -8 -10c-26 -64 -49 -114 -62 -186zM34 61c-3 -12 -9 -22 -7 -35c6 22 15 43 19 65c-8 -8 -9 -19 -12 -30zM324 633c3 2 5 3 7 6c-1 0 -2 1 -3 2c-2 -2 -4 -5 -4 -8
c-13 -9 -20 -22 -25 -36c7 13 21 22 25 36zM93 213c-9 -7 -11 -18 -13 -29c8 9 10 20 13 29zM79 183c-5 -6 -8 -13 -8 -21c4 6 9 12 8 21zM51 111c-4 -7 -7 -12 -5 -19c4 6 7 11 5 19zM64 146c-2 -4 -6 -7 -4 -13c4 4 6 8 6 12c-1 1 -2 2 -2 1zM99 227c-4 -4 -7 -7 -6 -13
c4 4 6 9 6 13zM395 4c1 0 3 -1 4 -1c2 0 5 1 8 3h-4h-3c-2 0 -3 0 -5 -2z" />
    <glyph glyph-name="Ccedilla" unicode="&#xc7;" horiz-adv-x="425" 
d="M-7 59c-22 80 1 154 22 223c22 70 56 127 88 180c26 43 129 177 171 199c4 2 8 5 11 8c21 17 43 32 71 38c7 1 13 2 19 2c23 0 42 -10 52 -31c4 -9 11 -14 21 -16c33 -8 46 -44 38 -72c-22 -72 -79 -140 -108 -159c-7 -4 -14 -11 -23 -11c-2 0 -3 1 -5 1
c-14 4 -23 16 -31 26c-4 5 0 17 5 22c1 1 3 2 4 1c3 -3 6 -5 9 -5c5 0 9 8 13 12c29 36 55 85 57 132c-45 -14 -109 -90 -136 -130c-53 -79 -97 -156 -126 -254c-15 -46 -37 -148 -25 -191c1 -6 3 -9 7 -9c3 0 9 2 11 3c2 2 5 5 8 7c4 3 7 7 12 7c1 0 3 0 4 -1
c0 -1 0 -2 -1 -4c9 5 18 10 27 14c84 46 189 166 246 235c3 4 5 9 9 9c1 0 2 -1 3 -2c4 -3 -6 -19 -9 -23c-113 -138 -110 -118 -109 -132c9 10 16 17 24 26c42 43 96 112 96 113c4 4 7 6 9 6s4 -2 6 -6c3 -3 5 -4 6 -4c2 0 4 1 6 2s4 1 6 1c9 0 6 -15 -2 -24
c-38 -48 -73 -105 -194 -224c-32 -31 -76 -68 -120 -80c20 -11 37 -26 51 -46c11 -18 13 -36 6 -57c-18 -53 -73 -82 -127 -82c-7 0 -15 1 -22 2c-31 6 -66 34 -74 39c-14 10 -18 29 -11 47c14 33 23 44 36 48h4s2 0 3 -1c3 -5 -5 -6 -1 -13c3 2 5 3 8 3s6 -2 8 -7
c1 -1 2 -2 3 -2c2 0 4 3 8 4h2c4 0 6 -4 4 -9c-3 -17 -11 -17 -12 -25c-1 -6 0 -10 4 -10c0 0 1 1 2 1c22 9 109 26 84 68c-4 7 -9 13 -16 16c-13 6 -24 17 -37 24c-6 4 -8 10 -5 17c-8 4 -15 9 -23 14c-20 11 -52 27 -67 80zM74 343c-13 -23 -10 -24 -13 -45
c7 10 20 39 20 51c6 1 10 13 13 18c6 19 14 30 24 49c55 93 132 192 224 249c1 0 3 2 0 4c-5 -2 -11 -3 -18 -6c-83 -43 -157 -148 -203 -226c-9 -17 -19 -33 -26 -50c-6 -12 -22 -29 -21 -44zM222 499c8 8 15 15 20 25c7 2 24 31 77 79c5 5 10 8 16 15c-6 0 -9 -2 -12 -4
c-11 -10 -23 -19 -33 -31c-18 -18 -36 -36 -50 -58c-7 -6 -15 -15 -18 -26zM140 -157c23 11 29 21 23 38c-5 -15 -15 -24 -23 -38zM263 80l2 -2c10 9 22 20 33 30c-14 -6 -25 -18 -35 -28zM367 477c-6 -5 -13 -9 -15 -17c6 3 13 9 15 17zM388 691c5 -3 9 -8 19 -8
c-8 7 -10 8 -14 8h-5zM20 -125c-11 -6 -12 -7 -10 -18c3 6 6 11 10 18zM311 122c5 6 10 7 9 13c-5 -1 -9 -4 -9 -13zM372 482c4 4 8 6 8 12c-5 -3 -7 -6 -8 -12zM179 -160c4 0 6 4 7 7c0 1 -1 1 -2 2c-3 -4 -1 -1 -5 -9zM253 70c-5 -3 -10 -6 -9 -7c4 -2 5 2 9 7z" />
    <glyph glyph-name="Egrave" unicode="&#xc8;" horiz-adv-x="339" 
d="M229 61c-1 -6 -8 -11 -3 -20c4 4 8 7 14 7s11 -2 12 -5c2 -5 3 -7 5 -7c3 0 7 8 15 8c3 0 6 -1 9 -3c2 -1 4 -4 3 -6c-5 -11 -6 -24 -17 -33c-36 -30 -77 -41 -123 -45c-28 0 -76 15 -100 29c-15 12 -33 17 -47 34c-32 37 -27 96 -12 142c5 14 0 16 12 58
c57 183 95 245 108 276c13 38 43 93 64 126c-8 1 -16 2 -23 2c-19 0 -30 3 -46 14c-8 5 -12 17 -24 17c1 20 -28 11 -19 27c8 12 20 5 14 15c-5 9 38 9 58 10c18 2 35 2 53 2h26h26h8c17 0 35 -2 53 -3c77 -6 72 -5 89 -14c4 -2 4 -7 0 -7h-2c-2 1 -4 2 -7 2
c-1 0 -2 0 -3 -1c6 -6 44 -23 54 -27c4 -2 7 -6 7 -13c-6 0 -9 -1 -8 -10c0 -8 -7 -10 -13 -10c-4 1 -9 1 -16 1c-28 0 -81 -5 -142 -5h-13h-7c-6 0 -11 -1 -10 -9c1 -2 2 -3 4 -3c1 0 2 1 3 1c6 0 9 3 12 3c1 0 3 0 4 -2c3 -4 7 -9 5 -16c-4 -17 -7 -33 -13 -50
c-9 -21 -14 -44 -21 -66c-13 -39 -12 -21 -22 -78c38 -2 74 -1 111 -11c1 0 2 -2 3 -3c-1 -5 -7 -2 -9 -5c0 -1 1 -2 2 -2c13 -3 25 -14 38 -16c7 -1 6 -3 4 -13c-2 -14 -9 -15 -21 -16c-151 -9 -152 4 -157 -17c-8 -33 -69 -211 -64 -275c1 -11 2 -13 8 -13h4
c35 3 68 10 98 29c3 2 4 3 6 3s5 -1 10 -2zM15 129c9 39 11 52 34 125c33 107 26 77 30 91c1 3 -2 5 -4 5c-1 0 -2 -1 -2 -1c-8 -14 -64 -174 -58 -220zM131 480c-11 -14 -37 -77 -39 -86c5 -2 3 -3 39 86zM187 603c3 6 11 7 7 18c-5 -6 -9 -10 -7 -18zM157 543
c4 4 7 8 7 17c-7 -6 -7 -11 -7 -17zM127 19c2 -1 3 -1 4 -1c2 0 4 1 7 3h-5c-2 0 -4 0 -6 -2zM282 737c-3 -2 0 -3 1 -5c4 -9 0 -16 -9 -16c-19 0 -57 3 -72 16c-74 74 -19 20 -74 79c-8 9 -9 11 -4 21c2 3 4 4 1 8s4 8 10 8c2 0 4 -1 5 -2c8 -9 20 -8 30 -11c2 -1 4 0 5 2
c2 4 5 5 8 5c2 0 4 -1 7 -1c34 -8 74 -69 92 -96c2 -3 5 -5 0 -8zM185 828c1 0 1 1 1 2c-1 1 -2 2 -3 2c-2 0 -3 -2 -2 -3s3 -1 4 -1z" />
    <glyph glyph-name="Eacute" unicode="&#xc9;" horiz-adv-x="339" 
d="M-3 20c-32 37 -27 96 -12 142c5 14 0 16 12 58c57 183 95 245 108 276c13 38 43 93 64 126c-8 1 -16 2 -23 2c-19 0 -30 3 -46 14c-8 5 -12 17 -23 16l-1 1c1 20 -28 11 -19 27c8 12 20 5 14 15c-5 9 38 9 58 10c21 2 42 2 62 2c-3 5 -5 11 -12 13c-2 1 -1 4 -1 7
c1 6 -18 3 -8 17c10 16 101 82 129 91h3c2 0 5 -1 6 -3c2 -4 -2 -5 -4 -8c8 0 12 -6 14 -11c1 -3 2 -5 4 -5c1 0 2 0 3 1c2 1 3 1 4 1c3 0 6 -2 7 -5c10 -15 -93 -79 -114 -94c-2 -2 -5 -3 -6 -4h18h8c17 0 35 -2 53 -3c77 -6 72 -5 89 -14c4 -2 4 -7 0 -7h-2
c-2 1 -4 2 -7 2c-1 0 -2 0 -3 -1c6 -6 44 -23 54 -27c4 -2 7 -6 7 -13c-6 0 -9 -1 -8 -10c0 -8 -7 -10 -13 -10c-4 1 -9 1 -16 1c-28 0 -81 -5 -142 -5h-13h-7c-6 0 -11 -1 -10 -9c1 -2 2 -3 4 -3c1 0 2 1 3 1c6 0 9 3 12 3c1 0 3 0 4 -2c3 -4 7 -9 5 -16
c-4 -17 -7 -33 -13 -50c-9 -21 -14 -44 -21 -66c-13 -39 -12 -21 -22 -78c38 -2 74 -1 111 -11c1 0 2 -2 3 -3c-1 -5 -7 -2 -9 -5c0 -1 1 -2 2 -2c13 -3 25 -14 38 -16c7 -1 6 -3 4 -13c-2 -14 -9 -15 -21 -16c-151 -9 -152 4 -157 -17c-8 -33 -69 -211 -64 -275
c1 -11 2 -13 8 -13h4c35 3 68 10 98 29c3 2 4 3 6 3s5 -1 10 -2c-1 -6 -8 -11 -3 -20c4 4 8 7 14 7s11 -2 12 -5c2 -5 3 -7 5 -7c3 0 7 8 15 8c3 0 6 -1 9 -3c2 -1 4 -4 3 -6c-5 -11 -6 -24 -17 -33c-36 -30 -77 -41 -123 -45c-28 0 -76 15 -100 29c-15 12 -33 17 -47 34z
M73 349c-8 -14 -64 -174 -58 -220c9 39 11 52 34 125c33 107 26 77 30 91c1 3 -2 5 -4 5c-1 0 -2 -1 -2 -1zM197 756c-3 -2 -7 -5 -6 -11c36 25 70 50 107 72c-2 2 -3 2 -5 2s-3 0 -4 -1c-33 -17 -62 -40 -92 -62zM92 394c5 -2 3 -3 39 86c-11 -14 -37 -77 -39 -86zM194 621
c-5 -6 -9 -10 -7 -18c3 6 11 7 7 18zM157 543c4 4 7 8 7 17c-7 -6 -7 -11 -7 -17zM127 19c2 -1 3 -1 4 -1c2 0 4 1 7 3h-5c-2 0 -4 0 -6 -2zM285 786c-7 -1 -10 -3 -11 -8c3 2 5 4 11 8zM252 763c4 2 7 3 7 7c-3 -1 -6 -2 -7 -7zM217 742c-2 -2 -4 -3 -6 -5c3 0 6 1 6 5z
" />
    <glyph glyph-name="Ecircumflex" unicode="&#xca;" horiz-adv-x="339" 
d="M229 61c-1 -6 -8 -11 -3 -20c4 4 8 7 14 7s11 -2 12 -5c2 -5 3 -7 5 -7c3 0 7 8 15 8c3 0 6 -1 9 -3c2 -1 4 -4 3 -6c-5 -11 -6 -24 -17 -33c-36 -30 -77 -41 -123 -45c-28 0 -76 15 -100 29c-15 12 -33 17 -47 34c-32 37 -27 96 -12 142c5 14 0 16 12 58
c57 183 95 245 108 276c13 38 43 93 64 126c-8 1 -16 2 -23 2c-19 0 -30 3 -46 14c-8 5 -12 17 -24 17c1 20 -28 11 -19 27c8 12 20 5 14 15c-5 9 38 9 58 10c18 2 35 2 53 2h26h26h8c17 0 35 -2 53 -3c77 -6 72 -5 89 -14c4 -2 4 -7 0 -7h-2c-2 1 -4 2 -7 2
c-1 0 -2 0 -3 -1c6 -6 44 -23 54 -27c4 -2 7 -6 7 -13c-6 0 -9 -1 -8 -10c0 -8 -7 -10 -13 -10c-4 1 -9 1 -16 1c-28 0 -81 -5 -142 -5h-13h-7c-6 0 -11 -1 -10 -9c1 -2 2 -3 4 -3c1 0 2 1 3 1c6 0 9 3 12 3c1 0 3 0 4 -2c3 -4 7 -9 5 -16c-4 -17 -7 -33 -13 -50
c-9 -21 -14 -44 -21 -66c-13 -39 -12 -21 -22 -78c38 -2 74 -1 111 -11c1 0 2 -2 3 -3c-1 -5 -7 -2 -9 -5c0 -1 1 -2 2 -2c13 -3 25 -14 38 -16c7 -1 6 -3 4 -13c-2 -14 -9 -15 -21 -16c-151 -9 -152 4 -157 -17c-8 -33 -69 -211 -64 -275c1 -11 2 -13 8 -13h4
c35 3 68 10 98 29c3 2 4 3 6 3s5 -1 10 -2zM15 129c9 39 11 52 34 125c33 107 26 77 30 91c1 3 -2 5 -4 5c-1 0 -2 -1 -2 -1c-8 -14 -64 -174 -58 -220zM131 480c-11 -14 -37 -77 -39 -86c5 -2 3 -3 39 86zM187 603c3 6 11 7 7 18c-5 -6 -9 -10 -7 -18zM157 543
c4 4 7 8 7 17c-7 -6 -7 -11 -7 -17zM127 19c2 -1 3 -1 4 -1c2 0 4 1 7 3h-5c-2 0 -4 0 -6 -2zM245 788c-10 -10 -19 -22 -27 -33c-7 -11 -16 -20 -23 -30c-3 -3 -6 -5 -10 -5c-1 0 -3 0 -5 1c-24 5 -29 5 -28 10c3 12 1 13 33 58c34 47 45 58 52 58c4 0 6 -3 10 -5
s8 -4 12 -4c3 0 5 0 8 2c1 1 2 1 4 1c13 0 29 -27 34 -38c32 -56 37 -57 32 -80c-1 -2 -3 -3 -5 -3h-6c-3 0 -5 0 -7 1c-15 7 -31 2 -41 16c-10 15 -21 29 -28 46c-1 2 -2 4 -5 5z" />
    <glyph glyph-name="Edieresis" unicode="&#xcb;" horiz-adv-x="339" 
d="M229 61c-1 -6 -8 -11 -3 -20c4 4 8 7 14 7s11 -2 12 -5c2 -5 3 -7 5 -7c3 0 7 8 15 8c3 0 6 -1 9 -3c2 -1 4 -4 3 -6c-5 -11 -6 -24 -17 -33c-36 -30 -77 -41 -123 -45c-28 0 -76 15 -100 29c-15 12 -33 17 -47 34c-32 37 -27 96 -12 142c5 14 0 16 12 58
c57 183 95 245 108 276c13 38 43 93 64 126c-8 1 -16 2 -23 2c-19 0 -30 3 -46 14c-8 5 -12 17 -24 17c1 20 -28 11 -19 27c8 12 20 5 14 15c-5 9 38 9 58 10c18 2 35 2 53 2h26h26h8c17 0 35 -2 53 -3c77 -6 72 -5 89 -14c4 -2 4 -7 0 -7h-2c-2 1 -4 2 -7 2
c-1 0 -2 0 -3 -1c6 -6 44 -23 54 -27c4 -2 7 -6 7 -13c-6 0 -9 -1 -8 -10c0 -8 -7 -10 -13 -10c-4 1 -9 1 -16 1c-28 0 -81 -5 -142 -5h-13h-7c-6 0 -11 -1 -10 -9c1 -2 2 -3 4 -3c1 0 2 1 3 1c6 0 9 3 12 3c1 0 3 0 4 -2c3 -4 7 -9 5 -16c-4 -17 -7 -33 -13 -50
c-9 -21 -14 -44 -21 -66c-13 -39 -12 -21 -22 -78c38 -2 74 -1 111 -11c1 0 2 -2 3 -3c-1 -5 -7 -2 -9 -5c0 -1 1 -2 2 -2c13 -3 25 -14 38 -16c7 -1 6 -3 4 -13c-2 -14 -9 -15 -21 -16c-151 -9 -152 4 -157 -17c-8 -33 -69 -211 -64 -275c1 -11 2 -13 8 -13h4
c35 3 68 10 98 29c3 2 4 3 6 3s5 -1 10 -2zM15 129c9 39 11 52 34 125c33 107 26 77 30 91c1 3 -2 5 -4 5c-1 0 -2 -1 -2 -1c-8 -14 -64 -174 -58 -220zM131 480c-11 -14 -37 -77 -39 -86c5 -2 3 -3 39 86zM187 603c3 6 11 7 7 18c-5 -6 -9 -10 -7 -18zM157 543
c4 4 7 8 7 17c-7 -6 -7 -11 -7 -17zM127 19c2 -1 3 -1 4 -1c2 0 4 1 7 3h-5c-2 0 -4 0 -6 -2zM359 805c15 0 20 -7 19 -23c-2 -21 -16 -64 -42 -64c-12 0 -27 7 -53 18c-22 9 -4 50 8 66c8 10 23 15 32 15c3 0 6 -1 7 -2c5 -9 12 -11 20 -11c3 0 6 1 9 1zM204 791
c7 -2 9 -8 8 -14c-2 -20 -15 -64 -41 -64c-15 0 -27 14 -36 12c-3 -1 -6 1 -7 4c-2 4 -6 5 -10 6c-9 1 -13 8 -12 16c2 19 14 61 39 61c7 0 14 -3 18 -9c5 -6 8 -8 11 -8c4 0 7 3 11 3c1 0 3 -1 5 -2c6 -5 -2 -12 4 -16c5 2 1 13 10 11zM129 768c7 3 8 9 10 18
c-8 -5 -13 -9 -10 -18z" />
    <glyph glyph-name="Igrave" unicode="&#xcc;" horiz-adv-x="307" 
d="M81 425c-3 -14 -12 -21 -24 -21c-2 0 -5 1 -7 1c-20 3 -37 14 -50 30c-9 9 -9 23 -7 36c10 64 126 238 189 238c13 0 25 -5 33 -15c4 -6 9 -9 18 -9c32 -5 49 -44 53 -76c7 -55 5 -109 0 -164c-4 -46 -19 -137 -39 -201c-10 -41 -26 -89 -43 -128
c-19 -46 -54 -114 -98 -138c-22 -10 -39 -26 -66 -26c-7 0 -14 1 -22 3c-15 4 -28 15 -43 20c-10 4 -16 14 -26 21c-9 7 -7 19 4 24c6 2 7 2 4 7c-2 3 0 5 4 5c1 0 3 1 4 1c2 0 4 -1 5 -2c4 -3 7 -4 10 -4c5 0 9 2 14 4c57 28 95 117 114 175c39 116 18 43 57 183
c9 29 12 58 18 88c9 40 12 81 17 121c1 14 -2 28 -2 41c0 4 -2 6 -4 6s-4 -1 -6 -2c-53 -38 -124 -124 -139 -185c-1 -6 -3 -15 0 -17c8 -2 8 -11 16 -13c5 -1 11 -1 16 -3zM25 14c1 0 3 0 4 1c60 35 89 116 110 179c2 5 6 11 3 19c-28 -73 -61 -143 -117 -199zM27 520
c34 55 69 109 119 150c-35 -13 -106 -106 -119 -150zM130 80c-13 -21 -28 -43 -45 -63c23 16 37 37 45 63zM-38 16c4 -1 6 -4 9 -4c2 0 3 0 4 1c-2 3 -4 4 -7 4c-2 0 -4 0 -6 -1zM248 739c-3 -2 0 -3 1 -5c4 -9 0 -16 -9 -16c-19 0 -57 3 -72 16c-74 74 -19 20 -74 79
c-8 9 -9 11 -4 21c2 3 4 4 1 8s4 8 10 8c2 0 4 -1 5 -2c8 -9 20 -8 30 -11c2 -1 4 0 5 2c2 4 5 5 8 5c2 0 4 -1 7 -1c34 -8 74 -69 92 -96c2 -3 5 -5 0 -8zM151 830c1 0 1 1 1 2c-1 1 -2 2 -3 2c-2 0 -3 -2 -2 -3s3 -1 4 -1z" />
    <glyph glyph-name="Iacute" unicode="&#xcd;" horiz-adv-x="309" 
d="M-49 -4c-9 7 -7 19 4 24c6 2 7 2 4 7c-2 3 0 5 4 5c1 0 3 1 4 1c2 0 4 -1 5 -2c4 -3 7 -4 10 -4c5 0 9 2 14 4c57 28 95 117 114 175c39 116 18 43 57 183c9 29 12 58 18 88c9 40 12 81 17 121c1 14 -2 28 -2 41c0 4 -2 6 -4 6s-4 -1 -6 -2c-53 -38 -124 -124 -139 -185
c-1 -6 -3 -15 0 -17c8 -2 8 -11 16 -13c5 -1 11 -1 16 -3c-3 -14 -12 -21 -24 -21c-2 0 -5 1 -7 1c-20 3 -37 14 -50 30c-9 9 -9 23 -7 36c11 67 100 187 154 225c-2 1 -4 3 -7 6c-4 5 -6 12 -13 14c-2 1 -1 4 -1 7c1 6 -18 3 -8 17c10 16 101 82 129 91h3c2 0 5 -1 6 -3
c2 -4 -2 -5 -4 -8c8 0 12 -6 14 -11c1 -3 2 -5 4 -5c1 0 2 0 3 1c2 1 3 1 4 1c3 0 6 -2 7 -5c10 -15 -90 -77 -113 -93c3 1 7 1 10 1c13 0 26 -5 34 -15c4 -6 9 -9 18 -9c32 -5 49 -44 53 -76c7 -55 5 -109 0 -164c-4 -46 -19 -137 -39 -201c-10 -41 -26 -89 -43 -128
c-19 -46 -54 -114 -98 -138c-22 -10 -39 -26 -66 -26c-7 0 -14 1 -22 3c-15 4 -28 15 -43 20c-10 4 -16 14 -26 21zM148 670c-35 -13 -106 -106 -119 -150c34 55 69 109 119 150zM144 213c-28 -73 -61 -143 -117 -199c1 0 3 0 4 1c60 35 89 116 110 179c2 5 6 11 3 19z
M147 750c-3 -2 -7 -5 -6 -11c36 25 70 50 107 72c-2 2 -3 2 -5 2s-3 0 -4 -1c-33 -17 -62 -40 -92 -62zM132 80c-13 -21 -28 -43 -45 -63c23 16 37 37 45 63zM-36 16c4 -1 6 -4 9 -4c2 0 3 0 4 1c-2 3 -4 4 -7 4c-2 0 -4 0 -6 -1zM235 780c-7 -1 -10 -3 -11 -8c3 2 5 4 11 8
zM209 764c-3 -1 -6 -2 -7 -7c4 2 7 3 7 7zM161 731c3 0 6 1 6 5c-2 -2 -4 -3 -6 -5z" />
    <glyph glyph-name="Icircumflex" unicode="&#xce;" horiz-adv-x="309" 
d="M83 425c-3 -14 -12 -21 -24 -21c-2 0 -5 1 -7 1c-20 3 -37 14 -50 30c-9 9 -9 23 -7 36c10 64 126 238 189 238c13 0 25 -5 33 -15c4 -6 9 -9 18 -9c32 -5 49 -44 53 -76c7 -55 5 -109 0 -164c-4 -46 -19 -137 -39 -201c-10 -41 -26 -89 -43 -128
c-19 -46 -54 -114 -98 -138c-22 -10 -39 -26 -66 -26c-7 0 -14 1 -22 3c-15 4 -28 15 -43 20c-10 4 -16 14 -26 21c-9 7 -7 19 4 24c6 2 7 2 4 7c-2 3 0 5 4 5c1 0 3 1 4 1c2 0 4 -1 5 -2c4 -3 7 -4 10 -4c5 0 9 2 14 4c57 28 95 117 114 175c39 116 18 43 57 183
c9 29 12 58 18 88c9 40 12 81 17 121c1 14 -2 28 -2 41c0 4 -2 6 -4 6s-4 -1 -6 -2c-53 -38 -124 -124 -139 -185c-1 -6 -3 -15 0 -17c8 -2 8 -11 16 -13c5 -1 11 -1 16 -3zM27 14c1 0 3 0 4 1c60 35 89 116 110 179c2 5 6 11 3 19c-28 -73 -61 -143 -117 -199zM29 520
c34 55 69 109 119 150c-35 -13 -106 -106 -119 -150zM132 80c-13 -21 -28 -43 -45 -63c23 16 37 37 45 63zM-36 16c4 -1 6 -4 9 -4c2 0 3 0 4 1c-2 3 -4 4 -7 4c-2 0 -4 0 -6 -1zM185 773c-10 -10 -19 -22 -27 -33c-7 -11 -16 -20 -23 -30c-3 -3 -6 -5 -10 -5
c-1 0 -3 0 -5 1c-24 5 -29 5 -28 10c3 12 1 13 33 58c34 47 45 58 52 58c4 0 6 -3 10 -5s8 -4 12 -4c3 0 5 0 8 2c1 1 2 1 4 1c13 0 29 -27 34 -38c32 -56 37 -57 32 -80c-1 -2 -3 -3 -5 -3h-6c-3 0 -5 0 -7 1c-15 7 -31 2 -41 16c-10 15 -21 29 -28 46c-1 2 -2 4 -5 5z" />
    <glyph glyph-name="Idieresis" unicode="&#xcf;" horiz-adv-x="309" 
d="M83 425c-3 -14 -12 -21 -24 -21c-2 0 -5 1 -7 1c-20 3 -37 14 -50 30c-9 9 -9 23 -7 36c10 64 126 238 189 238c13 0 25 -5 33 -15c4 -6 9 -9 18 -9c32 -5 49 -44 53 -76c7 -55 5 -109 0 -164c-4 -46 -19 -137 -39 -201c-10 -41 -26 -89 -43 -128
c-19 -46 -54 -114 -98 -138c-22 -10 -39 -26 -66 -26c-7 0 -14 1 -22 3c-15 4 -28 15 -43 20c-10 4 -16 14 -26 21c-9 7 -7 19 4 24c6 2 7 2 4 7c-2 3 0 5 4 5c1 0 3 1 4 1c2 0 4 -1 5 -2c4 -3 7 -4 10 -4c5 0 9 2 14 4c57 28 95 117 114 175c39 116 18 43 57 183
c9 29 12 58 18 88c9 40 12 81 17 121c1 14 -2 28 -2 41c0 4 -2 6 -4 6s-4 -1 -6 -2c-53 -38 -124 -124 -139 -185c-1 -6 -3 -15 0 -17c8 -2 8 -11 16 -13c5 -1 11 -1 16 -3zM27 14c1 0 3 0 4 1c60 35 89 116 110 179c2 5 6 11 3 19c-28 -73 -61 -143 -117 -199zM29 520
c34 55 69 109 119 150c-35 -13 -106 -106 -119 -150zM132 80c-13 -21 -28 -43 -45 -63c23 16 37 37 45 63zM-36 16c4 -1 6 -4 9 -4c2 0 3 0 4 1c-2 3 -4 4 -7 4c-2 0 -4 0 -6 -1zM301 793c14 0 19 -7 18 -23c-1 -22 -15 -64 -42 -64c-12 0 -27 7 -53 18c-22 9 -4 50 9 66
c7 10 22 15 31 15c4 0 6 -1 7 -2c5 -9 12 -11 20 -11c3 0 7 1 10 1zM145 779c7 -2 9 -8 8 -14c-2 -21 -14 -64 -41 -64c-15 0 -27 14 -36 12c-3 -1 -6 1 -7 4c-2 4 -5 5 -10 6c-9 1 -13 8 -11 16c1 20 13 61 38 61c7 0 14 -3 18 -9c5 -6 8 -8 11 -8c4 0 7 3 11 3
c1 0 3 -1 5 -2c6 -5 -2 -12 4 -16c5 2 1 13 10 11zM70 756c7 3 8 9 10 18c-8 -5 -13 -9 -10 -18z" />
    <glyph glyph-name="Eth" unicode="&#xd0;" horiz-adv-x="477" 
d="M62 257c-105 1 -62 27 -102 42c-1 6 7 10 2 17c0 0 1 3 2 3c35 17 -9 7 101 13c9 0 18 1 27 1c29 73 75 170 81 199c2 11 10 17 14 24c1 3 3 4 4 4c2 0 4 -2 6 -5c8 -13 12 -17 28 -18c18 -1 17 -42 15 -61c-3 -33 -9 -64 -33 -144c27 0 44 1 55 1c17 0 20 -1 20 -6
c0 -2 -2 -3 -4 -3c-5 -2 -9 -5 -13 -10c1 0 3 -1 4 -1c3 0 7 2 10 2c1 0 3 -1 4 -1c2 -9 2 -18 9 -18c1 0 2 0 4 1c4 1 6 -2 8 -5c2 -4 0 -7 -3 -10c-7 -6 -15 -11 -24 -12c-34 -3 -64 -6 -91 -8c-31 -98 -51 -129 -33 -181c3 -8 5 -11 9 -11c3 0 5 1 9 2
c107 46 164 265 187 367c7 31 9 64 11 97c2 29 -6 57 -15 83c-4 11 -9 16 -21 17c-6 1 -11 1 -16 1c-16 0 -31 -3 -45 -9c-73 -30 -138 -103 -147 -130c-1 -3 -3 -5 -5 -8c-3 -4 -5 -6 -8 -6c-2 0 -5 2 -8 5c-32 29 -34 27 -33 40c3 44 75 109 109 136c31 26 68 44 106 44
c16 0 31 -3 47 -10c23 -10 28 -27 52 -43c30 -19 49 -48 63 -81c9 -23 11 -45 16 -67c2 -12 1 -25 1 -36c0 -72 -15 -140 -33 -212c-14 -66 -51 -132 -84 -190c-27 -45 -76 -94 -132 -94c-20 0 -40 6 -60 19c-13 8 -26 15 -41 24c-5 -9 -5 -18 -6 -26c-2 -16 -6 -32 -1 -48
c-5 -8 -3 -18 -8 -26c-1 -2 -3 -3 -6 -3c-1 0 -3 0 -4 1c-7 2 -15 3 -21 9c-4 4 -10 7 -15 8s-8 3 -9 7c-3 5 -5 8 -9 8c-1 0 -3 -1 -4 -1c-5 -2 -9 4 -11 10c-6 11 -7 25 -7 39c0 41 8 124 18 162c16 55 24 81 30 98zM318 215c-30 -64 -70 -117 -115 -164c20 6 35 17 48 34
c26 32 44 69 62 107c3 6 8 12 5 23zM232 671c-39 -7 -116 -74 -128 -111c51 60 74 77 128 111zM260 43c22 12 36 34 47 58c-16 -20 -31 -39 -47 -58zM97 257h-6c-11 -30 -21 -61 -26 -93c8 32 20 63 32 93zM138 380c-3 -9 -7 -20 -11 -31c1 0 3 0 4 -1c3 11 8 21 7 32z
M169 451c-7 -7 -7 -7 -4 -16c1 7 3 12 4 16zM265 314h-19c3 -1 7 -2 10 -2s6 1 9 2zM152 411c-3 -6 -3 -6 -2 -12c2 4 3 6 2 12zM145 575c0 0 1 0 1 -2l4 4c1 2 0 2 -1 1s-3 -2 -4 -3z" />
    <glyph glyph-name="Ntilde" unicode="&#xd1;" horiz-adv-x="489" 
d="M-40 -38c-3 19 -4 25 41 179c18 64 8 24 67 224c67 232 76 271 100 331c2 6 7 8 13 8c14 0 4 -17 19 -17c3 0 7 -2 9 -4c4 -5 7 -7 10 -7s7 2 10 7c1 1 2 1 2 1c2 0 4 -1 6 -3c8 -3 13 -8 15 -18c15 -53 22 -202 29 -247c4 -35 4 -69 9 -104c3 -24 5 -50 6 -75
c1 -10 2 -20 7 -30c21 76 0 89 128 410c15 36 32 70 50 103c5 7 10 15 18 19c1 0 1 1 2 1c3 0 6 -3 4 -7c-19 -42 -18 -22 -56 -120c-58 -145 -100 -235 -133 -446c-2 -16 -8 -33 -4 -49c33 188 79 348 155 523c11 27 22 53 38 77c4 5 7 8 9 8c3 0 5 -4 8 -13
c1 -1 2 -2 3 -2c4 0 8 3 10 6c1 2 2 3 3 3c2 0 3 -1 5 -2c3 -2 6 -5 5 -10c-11 -44 -114 -301 -163 -531c-11 -50 -36 -167 -28 -217c1 -5 1 -10 4 -14c5 -10 3 -19 2 -30c0 -9 -5 -9 -12 -9c-8 1 -14 5 -20 8c-7 3 -16 -1 -19 10c-1 1 -5 1 -6 0c-8 0 -22 18 -26 25
c-3 4 -5 7 -8 7c-2 0 -3 -1 -5 -2c-1 -1 -2 -1 -2 -1c-3 0 -6 4 -8 7c-12 17 -17 39 -23 60c-19 66 -24 113 -33 151c-11 50 -17 104 -19 156c-3 34 -3 69 -10 104c-15 -50 -79 -261 -96 -304c-20 -49 -33 -100 -55 -148c-5 -13 -14 -18 -27 -20c-7 -2 -17 0 -24 -4
c-1 -1 -2 -1 -4 -1c-3 0 -5 3 -6 7zM230 725c-5 3 -5 8 -3 12c11 25 26 49 56 49c20 0 31 -17 55 -25c7 -2 13 -7 19 -10c3 -1 7 -2 11 -2c12 0 24 6 30 17c2 5 5 9 7 13c1 3 3 5 6 4c4 -1 3 -5 3 -8c-1 -4 -2 -9 -6 -11c1 -1 3 -1 5 0c4 4 6 6 8 6s4 -2 8 -6
c2 -2 3 -4 5 -4c1 0 2 1 4 3c1 2 3 3 5 3c5 0 10 -10 -9 -46c-9 -17 -24 -26 -41 -26c-4 0 -9 1 -14 2c-27 7 -51 20 -72 38c-4 3 -7 4 -11 4c-2 0 -5 -1 -8 -2c-28 -13 -21 -24 -28 -24h-3c-10 3 -19 8 -27 13zM18 123c1 5 5 9 4 16c2 1 3 4 3 6c32 97 77 251 101 336
c43 152 47 146 42 164c-13 -39 5 24 -77 -255c-73 -251 -71 -240 -69 -251c-4 -5 -6 -10 -4 -16zM129 402c-3 -7 -17 -40 -16 -48c4 7 16 41 16 48zM113 348c-3 -5 -13 -34 -11 -39c1 4 12 33 11 39zM390 736c6 3 11 6 15 11s7 10 3 17c-3 -12 -12 -19 -18 -28zM99 300
c-2 -3 -13 -24 -11 -31c1 6 13 27 11 31zM86 265c0 -5 -6 -19 -4 -24c1 3 8 17 4 24zM240 738c4 5 8 10 12 16c-8 -3 -12 -8 -12 -16zM73 221c-1 -5 -7 -17 -5 -24c1 6 7 17 5 24zM79 238c-3 -5 -5 -8 -3 -14c1 5 5 7 3 14zM290 775c-1 1 -3 2 -4 2s-2 -1 -3 -2
c1 1 3 -2 5 -2zM159 505c-1 -2 -4 -4 -2 -10c0 4 3 7 2 10z" />
    <glyph glyph-name="Ograve" unicode="&#xd2;" horiz-adv-x="420" 
d="M-1 104c-4 19 -1 38 -1 57c-1 47 9 92 18 137c16 85 50 181 101 272c25 43 71 109 115 133c12 5 23 11 35 11c5 0 10 -1 16 -4h14c0 8 -9 2 -8 9c0 5 4 7 8 8h2c10 0 16 -6 22 -13c7 -8 17 -16 28 -16c2 0 5 0 7 1c3 1 5 1 8 1c11 0 20 -7 28 -16c14 -14 20 -32 25 -51
c9 -28 9 -57 10 -87c4 -140 -79 -445 -198 -563c-26 -26 -50 -33 -71 -33c-26 0 -47 11 -58 12c-3 0 -6 1 -8 2c-22 12 -59 22 -73 57c-7 19 -16 39 -15 61c0 9 -4 15 -5 22zM124 104c-4 -14 2 -36 9 -57c1 -6 2 -8 5 -8c9 0 36 33 42 41c78 104 114 232 136 358
c6 41 8 108 7 122c-1 16 -7 74 -13 86c-3 4 -5 5 -7 5c-4 0 -7 -4 -12 -10c-92 -94 -152 -314 -164 -448c-2 -27 -2 -54 -3 -89zM210 817c-8 9 -9 11 -4 21c2 3 4 4 1 8s4 8 10 8c2 0 4 -1 5 -2c8 -9 20 -8 30 -11c2 -1 4 0 5 2c2 4 5 5 8 5c2 0 4 -1 7 -1
c34 -8 74 -69 92 -96c2 -3 5 -5 0 -8c-3 -2 0 -3 1 -5c4 -9 0 -16 -9 -16c-19 0 -57 3 -72 16c-74 74 -19 20 -74 79zM37 237c5 2 4 7 5 11c2 24 8 47 14 70c19 85 57 187 105 262c61 94 79 87 72 95c-72 -40 -174 -226 -196 -438zM344 443c-32 -145 -76 -286 -164 -407
c45 35 88 128 108 182c39 104 50 181 56 225zM265 98c3 4 8 7 7 15c11 5 71 153 68 170c-3 -4 -3 -8 -5 -13c-17 -50 -36 -100 -60 -148c-2 -3 -4 -6 -3 -9c-6 -4 -6 -10 -7 -15zM241 638c-45 -45 -71 -100 -97 -158c2 -1 3 -1 4 -1c3 0 3 4 4 7c32 76 62 117 89 152z
M123 416c5 10 9 21 11 31c5 10 14 20 10 32c-3 -10 -10 -20 -10 -32c-8 -8 -8 -20 -11 -31zM352 323c-3 -9 -8 -17 -6 -27zM278 705c-1 1 -2 1 -3 1c-2 0 -3 0 -5 -1c2 -3 3 -3 5 -3s4 2 3 3zM369 679c-2 5 -5 5 -10 7c3 -5 5 -8 10 -7zM36 235c-1 -5 -2 -12 0 -17
c1 5 2 12 0 17zM111 383c0 -5 -5 -9 -3 -18c1 8 5 12 3 18zM268 836c-1 1 -2 2 -3 2c-2 0 -3 -2 -2 -3s3 -1 4 -1s1 1 1 2z" />
    <glyph glyph-name="Oacute" unicode="&#xd3;" horiz-adv-x="420" 
d="M-1 104c-4 19 -1 38 -1 57c-1 47 9 92 18 137c16 85 50 181 101 272c28 48 84 132 144 144c-3 4 -6 8 -11 10c-2 1 -1 4 -1 7c1 6 -18 3 -8 17c10 16 101 82 129 91h3c2 0 5 -1 6 -3c2 -4 -2 -5 -4 -8c8 0 12 -6 14 -11c1 -3 2 -5 4 -5c1 0 2 0 3 1c2 1 3 1 4 1
c3 0 6 -2 7 -5c8 -13 -63 -60 -99 -84c5 -2 9 -6 13 -11c7 -8 17 -16 28 -16c2 0 5 0 7 1c3 1 5 1 8 1c11 0 20 -7 28 -16c14 -14 20 -32 25 -51c9 -28 9 -57 10 -87c4 -140 -79 -445 -198 -563c-26 -26 -50 -33 -71 -33c-26 0 -47 11 -58 12c-3 0 -6 1 -8 2
c-22 12 -59 22 -73 57c-7 19 -16 39 -15 61c0 9 -4 15 -5 22zM124 104c-4 -14 2 -36 9 -57c1 -6 2 -8 5 -8c9 0 36 33 42 41c78 104 114 232 136 358c6 41 8 108 7 122c-1 16 -7 74 -13 86c-3 4 -5 5 -7 5c-4 0 -7 -4 -12 -10c-92 -94 -152 -314 -164 -448
c-2 -27 -2 -54 -3 -89zM37 237c5 2 4 7 5 11c2 24 8 47 14 70c19 85 57 187 105 262c61 94 79 87 72 95c-72 -40 -174 -226 -196 -438zM344 443c-32 -145 -76 -286 -164 -407c45 35 88 128 108 182c39 104 50 181 56 225zM272 113c11 5 71 153 68 170c-3 -4 -3 -8 -5 -13
c-17 -50 -36 -100 -60 -148c-2 -3 -4 -6 -3 -9c-6 -4 -6 -10 -7 -15c3 4 8 7 7 15zM268 758c-3 -2 -7 -5 -6 -11c36 25 70 50 107 72c-2 2 -3 2 -5 2s-3 0 -4 -1c-33 -17 -62 -40 -92 -62zM144 480c2 -1 3 -1 4 -1c3 0 3 4 4 7c32 76 62 117 89 152
c-45 -45 -71 -100 -97 -158zM123 416c5 10 9 21 11 31c5 10 14 20 10 32c-3 -10 -10 -20 -10 -32c-8 -8 -8 -20 -11 -31zM352 323c-3 -9 -8 -17 -6 -27zM293 715c-3 -2 -6 -4 -8 -5h12c0 4 -2 4 -4 5zM359 686c3 -5 5 -8 10 -7c-2 5 -5 5 -10 7zM36 235c-1 -5 -2 -12 0 -17
c1 5 2 12 0 17zM111 383c0 -5 -5 -9 -3 -18c1 8 5 12 3 18zM345 780c3 2 5 4 11 8c-7 -1 -10 -3 -11 -8zM323 765c4 2 7 3 7 7c-3 -1 -6 -2 -7 -7zM288 744c-2 -2 -4 -3 -6 -5c3 0 6 1 6 5zM278 704c-2 -1 -4 -2 -6 -1c1 -1 2 -1 3 -1c2 0 3 1 3 2z" />
    <glyph glyph-name="Ocircumflex" unicode="&#xd4;" horiz-adv-x="420" 
d="M-1 104c-4 19 -1 38 -1 57c-1 47 9 92 18 137c16 85 50 181 101 272c25 43 71 109 115 133c12 5 23 11 35 11c5 0 10 -1 16 -4h14c0 8 -9 2 -8 9c0 5 4 7 8 8h2c10 0 16 -6 22 -13c7 -8 17 -16 28 -16c2 0 5 0 7 1c3 1 5 1 8 1c11 0 20 -7 28 -16c14 -14 20 -32 25 -51
c9 -28 9 -57 10 -87c4 -140 -79 -445 -198 -563c-26 -26 -50 -33 -71 -33c-26 0 -47 11 -58 12c-3 0 -6 1 -8 2c-22 12 -59 22 -73 57c-7 19 -16 39 -15 61c0 9 -4 15 -5 22zM124 104c-4 -14 2 -36 9 -57c1 -6 2 -8 5 -8c9 0 36 33 42 41c78 104 114 232 136 358
c6 41 8 108 7 122c-1 16 -7 74 -13 86c-3 4 -5 5 -7 5c-4 0 -7 -4 -12 -10c-92 -94 -152 -314 -164 -448c-2 -27 -2 -54 -3 -89zM242 714c-24 5 -29 5 -28 10c3 12 1 13 33 58c34 47 45 58 52 58c4 0 6 -3 10 -5s8 -4 12 -4c3 0 5 0 8 2c1 1 2 1 4 1c13 0 29 -27 34 -38
c32 -56 37 -57 32 -80c-1 -2 -3 -3 -5 -3h-6c-3 0 -5 0 -7 1c-15 7 -31 2 -41 16c-10 15 -21 29 -28 46c-1 2 -2 4 -5 5c-10 -10 -19 -22 -27 -33c-7 -11 -16 -20 -23 -30c-3 -3 -6 -5 -10 -5c-1 0 -3 0 -5 1zM37 237c5 2 4 7 5 11c2 24 8 47 14 70c19 85 57 187 105 262
c61 94 79 87 72 95c-72 -40 -174 -226 -196 -438zM344 443c-32 -145 -76 -286 -164 -407c45 35 88 128 108 182c39 104 50 181 56 225zM265 98c3 4 8 7 7 15c11 5 71 153 68 170c-3 -4 -3 -8 -5 -13c-17 -50 -36 -100 -60 -148c-2 -3 -4 -6 -3 -9c-6 -4 -6 -10 -7 -15z
M241 638c-45 -45 -71 -100 -97 -158c2 -1 3 -1 4 -1c3 0 3 4 4 7c32 76 62 117 89 152zM123 416c5 10 9 21 11 31c5 10 14 20 10 32c-3 -10 -10 -20 -10 -32c-8 -8 -8 -20 -11 -31zM352 323c-3 -9 -8 -17 -6 -27zM278 705c-1 1 -2 1 -3 1c-2 0 -3 0 -5 -1c2 -3 3 -3 5 -3
s4 2 3 3zM369 679c-2 5 -5 5 -10 7c3 -5 5 -8 10 -7zM36 235c-1 -5 -2 -12 0 -17c1 5 2 12 0 17zM111 383c0 -5 -5 -9 -3 -18c1 8 5 12 3 18z" />
    <glyph glyph-name="Otilde" unicode="&#xd5;" horiz-adv-x="420" 
d="M-1 104c-4 19 -1 38 -1 57c-1 47 9 92 18 137c16 85 50 181 101 272c25 43 71 109 115 133c12 5 23 11 35 11c5 0 10 -1 16 -4h14c0 8 -9 2 -8 9c0 5 4 7 8 8h2c10 0 16 -6 22 -13c7 -8 17 -16 28 -16c2 0 5 0 7 1c3 1 5 1 8 1c11 0 20 -7 28 -16c14 -14 20 -32 25 -51
c9 -28 9 -57 10 -87c4 -140 -79 -445 -198 -563c-26 -26 -50 -33 -71 -33c-26 0 -47 11 -58 12c-3 0 -6 1 -8 2c-22 12 -59 22 -73 57c-7 19 -16 39 -15 61c0 9 -4 15 -5 22zM124 104c-4 -14 2 -36 9 -57c1 -6 2 -8 5 -8c9 0 36 33 42 41c78 104 114 232 136 358
c6 41 8 108 7 122c-1 16 -7 74 -13 86c-3 4 -5 5 -7 5c-4 0 -7 -4 -12 -10c-92 -94 -152 -314 -164 -448c-2 -27 -2 -54 -3 -89zM213 743c-5 3 -5 8 -3 12c11 25 26 49 56 49c20 0 31 -17 55 -25c7 -2 13 -7 19 -10c3 -1 7 -2 11 -2c12 0 24 6 30 17c2 5 5 9 7 13
c1 3 3 5 6 4c4 -1 3 -5 3 -8c-1 -4 -2 -9 -6 -11c1 -1 3 -1 5 0c4 4 6 6 8 6s4 -2 8 -6c2 -2 3 -4 5 -4c1 0 2 1 4 3c1 2 3 3 5 3c5 0 10 -10 -9 -46c-9 -17 -24 -26 -41 -26c-4 0 -9 1 -14 2c-27 7 -51 20 -72 38c-4 3 -7 4 -11 4c-2 0 -5 -1 -8 -2
c-28 -13 -21 -24 -28 -24h-3c-10 3 -19 8 -27 13zM37 237c5 2 4 7 5 11c2 24 8 47 14 70c19 85 57 187 105 262c61 94 79 87 72 95c-72 -40 -174 -226 -196 -438zM344 443c-32 -145 -76 -286 -164 -407c45 35 88 128 108 182c39 104 50 181 56 225zM265 98c3 4 8 7 7 15
c11 5 71 153 68 170c-3 -4 -3 -8 -5 -13c-17 -50 -36 -100 -60 -148c-2 -3 -4 -6 -3 -9c-6 -4 -6 -10 -7 -15zM241 638c-45 -45 -71 -100 -97 -158c2 -1 3 -1 4 -1c3 0 3 4 4 7c32 76 62 117 89 152zM134 447c5 10 14 20 10 32c-3 -10 -10 -20 -10 -32c-8 -8 -8 -20 -11 -31
c5 10 9 21 11 31zM391 782c-3 -12 -12 -19 -18 -28c6 3 11 6 15 11s7 10 3 17zM223 756c4 5 8 10 12 16c-8 -3 -12 -8 -12 -16zM352 323c-3 -9 -8 -17 -6 -27zM278 705c-1 1 -2 1 -3 1c-2 0 -3 0 -5 -1c2 -3 3 -3 5 -3s4 2 3 3zM369 679c-2 5 -5 5 -10 7c3 -5 5 -8 10 -7z
M36 235c-1 -5 -2 -12 0 -17c1 5 2 12 0 17zM111 383c0 -5 -5 -9 -3 -18c1 8 5 12 3 18zM273 793c-1 1 -3 2 -4 2s-2 -1 -3 -2c1 1 3 -2 5 -2z" />
    <glyph glyph-name="Odieresis" unicode="&#xd6;" horiz-adv-x="420" 
d="M-1 104c-4 19 -1 38 -1 57c-1 47 9 92 18 137c16 85 50 181 101 272c25 43 71 109 115 133c12 5 23 11 35 11c5 0 10 -1 16 -4h14c0 8 -9 2 -8 9c0 5 4 7 8 8h2c10 0 16 -6 22 -13c7 -8 17 -16 28 -16c2 0 5 0 7 1c3 1 5 1 8 1c11 0 20 -7 28 -16c14 -14 20 -32 25 -51
c9 -28 9 -57 10 -87c4 -140 -79 -445 -198 -563c-26 -26 -50 -33 -71 -33c-26 0 -47 11 -58 12c-3 0 -6 1 -8 2c-22 12 -59 22 -73 57c-7 19 -16 39 -15 61c0 9 -4 15 -5 22zM124 104c-4 -14 2 -36 9 -57c1 -6 2 -8 5 -8c9 0 36 33 42 41c78 104 114 232 136 358
c6 41 8 108 7 122c-1 16 -7 74 -13 86c-3 4 -5 5 -7 5c-4 0 -7 -4 -12 -10c-92 -94 -152 -314 -164 -448c-2 -27 -2 -54 -3 -89zM37 237c5 2 4 7 5 11c2 24 8 47 14 70c19 85 57 187 105 262c61 94 79 87 72 95c-72 -40 -174 -226 -196 -438zM350 736c-22 9 -4 50 8 66
c8 10 23 15 32 15c3 0 6 -1 7 -2c5 -9 12 -11 20 -11c3 0 6 1 9 1c15 0 20 -7 19 -23c-2 -21 -16 -64 -42 -64c-12 0 -27 7 -53 18zM185 735c-9 1 -13 8 -12 16c2 19 14 61 39 61c7 0 14 -3 18 -9c5 -6 8 -8 11 -8c4 0 7 3 11 3c1 0 3 -1 5 -2c6 -5 -2 -12 4 -16
c5 2 1 13 10 11c7 -2 9 -8 8 -14c-2 -20 -15 -64 -41 -64c-15 0 -27 14 -36 12c-3 -1 -6 1 -7 4c-2 4 -6 5 -10 6zM180 36c45 35 88 128 108 182c39 104 50 181 56 225c-32 -145 -76 -286 -164 -407zM265 98c3 4 8 7 7 15c11 5 71 153 68 170c-3 -4 -3 -8 -5 -13
c-17 -50 -36 -100 -60 -148c-2 -3 -4 -6 -3 -9c-6 -4 -6 -10 -7 -15zM241 638c-45 -45 -71 -100 -97 -158c2 -1 3 -1 4 -1c3 0 3 4 4 7c32 76 62 117 89 152zM134 447c5 10 14 20 10 32c-3 -10 -10 -20 -10 -32c-8 -8 -8 -20 -11 -31c5 10 9 21 11 31zM206 786
c-8 -5 -13 -9 -10 -18c7 3 8 9 10 18zM352 323c-3 -9 -8 -17 -6 -27zM278 705c-1 1 -2 1 -3 1c-2 0 -3 0 -5 -1c2 -3 3 -3 5 -3s4 2 3 3zM359 686c3 -5 5 -8 10 -7c-2 5 -5 5 -10 7zM111 383c0 -5 -5 -9 -3 -18c1 8 5 12 3 18z" />
    <glyph glyph-name="Oslash" unicode="&#xd8;" horiz-adv-x="437" 
d="M23 -39c-3 19 -32 3 -25 43c2 10 6 24 12 41c-4 12 -7 24 -6 37c0 9 -4 15 -5 22c-4 19 -1 38 -1 57c-1 47 9 92 18 137c16 85 50 181 101 272c25 43 71 109 115 133c12 5 23 11 35 11c5 0 10 -1 16 -4h14c0 8 -9 2 -8 9c0 5 4 7 8 8h2c10 0 16 -6 22 -13
c7 -8 17 -16 28 -16c2 0 5 0 7 1c3 1 5 1 8 1c8 0 16 -4 22 -10c6 6 11 12 16 17c4 4 7 9 13 9c2 0 4 0 6 -2c-2 -11 -7 -15 -23 -37c1 -2 3 -4 4 -6c7 9 14 18 20 26c2 3 4 6 7 6c1 0 3 -1 4 -2c3 -2 9 -5 4 -13c5 1 10 0 12 4c2 3 4 4 6 4s4 -1 6 -3c5 -4 4 -7 2 -13
c-4 -12 -19 -39 -40 -76c3 -19 3 -38 4 -58c4 -140 -79 -445 -198 -563c-26 -26 -50 -33 -71 -33c-26 0 -47 11 -58 12c-3 0 -6 1 -8 2c-3 2 -7 3 -10 5c-1 -6 -4 -14 -7 -20c-1 -5 -5 -6 -10 -6c-7 2 -15 3 -21 9c-4 4 -7 9 -13 9c-1 0 -3 0 -5 -1c-1 -1 -3 0 -3 1z
M311 411c-68 -115 -142 -242 -187 -332c2 -10 5 -21 9 -32c1 -6 2 -8 5 -8c9 0 36 33 42 41c70 93 111 217 131 331zM148 321c56 99 118 200 170 277c0 3 -1 5 -1 8c-1 12 -1 27 -7 40c-3 4 -5 5 -7 5c-4 0 -7 -4 -12 -10c-71 -72 -119 -218 -143 -320zM37 237c5 2 4 7 5 11
c2 24 8 47 14 70c19 85 57 187 105 262c61 94 79 87 72 95c-72 -40 -174 -226 -196 -438zM135 261c-1 -8 -2 -16 -3 -25c59 110 130 226 191 320v4c0 4 -1 8 -1 11c-68 -99 -129 -205 -187 -310zM344 443c-32 -145 -76 -286 -164 -407c45 35 88 128 108 182
c39 104 50 181 56 225zM265 98c3 4 8 7 7 15c11 5 71 153 68 170c-3 -4 -3 -8 -5 -13c-17 -50 -36 -100 -60 -148c-2 -3 -4 -6 -3 -9c-6 -4 -6 -10 -7 -15zM186 274c8 12 18 23 21 38c4 0 -1 -6 71 116c1 3 4 5 3 9c6 4 10 9 9 15c-5 -4 -9 -8 -9 -15c-4 0 1 6 -71 -116
c-2 -3 -4 -6 -3 -9c-11 -10 -16 -25 -21 -38zM241 638c-45 -45 -71 -100 -97 -158c2 -1 3 -1 4 -1c3 0 3 4 4 7c32 76 62 117 89 152zM123 416c5 10 9 21 11 31c5 10 14 20 10 32c-3 -10 -10 -20 -10 -32c-8 -8 -8 -20 -11 -31zM140 190c8 7 8 16 15 21c-1 6 7 11 2 17
c8 1 10 7 11 14c-7 -2 -6 -10 -11 -14c-1 -6 -8 -11 -2 -17c-2 0 -4 2 -6 0c-3 -6 -8 -12 -9 -21zM291 454c10 10 18 23 20 35c-7 -12 -16 -21 -20 -35zM169 244c7 5 10 12 11 20c-5 -6 -10 -11 -11 -20zM352 323c-3 -9 -8 -17 -6 -27zM278 705c-1 1 -2 1 -3 1
c-2 0 -3 0 -5 -1c2 -3 3 -3 5 -3s4 2 3 3zM359 686c3 -5 5 -8 10 -7c-2 5 -5 5 -10 7zM136 183c-5 -4 -6 -8 -7 -14c3 4 6 8 7 14zM111 383c0 -5 -5 -9 -3 -18c1 8 5 12 3 18z" />
    <glyph glyph-name="Ugrave" unicode="&#xd9;" horiz-adv-x="509" 
d="M33 -8c-31 42 -23 97 -24 143c-1 26 16 118 21 141c32 128 42 174 89 310c15 40 32 78 46 118c2 4 5 7 6 13c2 7 6 10 13 10c6 -1 8 -7 8 -14c1 -3 -1 -6 1 -9c5 -1 5 8 9 8c1 0 2 0 3 -1c3 -2 10 -3 11 -5c2 -4 3 -6 5 -6c3 0 7 8 13 10c2 1 4 1 5 1c8 0 14 -7 15 -17
c2 -55 -34 -173 -50 -245c-17 -68 -35 -138 -45 -208c-6 -48 -19 -105 -22 -150c0 -2 -1 -5 2 -7c2 -1 4 2 6 4c7 11 14 20 21 31c61 109 69 138 102 203c28 52 53 105 79 158c69 133 68 122 95 186c3 6 6 14 13 16c1 0 2 1 3 1c3 0 5 -3 4 -8c-2 -6 -6 -12 -5 -21
c4 2 4 5 6 8c4 7 6 9 10 9c2 0 5 0 9 -2c2 -1 4 -1 5 -1c2 0 5 1 7 2c4 2 7 3 10 3c7 0 12 -6 13 -18c2 -30 -32 -204 -40 -246c-10 -54 -20 -106 -29 -160c-6 -32 -10 -63 -13 -94c-4 -40 -12 -134 -2 -174c3 -8 2 -20 0 -30c-2 -6 -5 -10 -10 -10c-1 0 -3 1 -4 1
c-10 2 -21 2 -31 9c-2 1 -4 2 -5 1c-3 -2 -5 -3 -7 -3c-6 0 -8 8 -12 13c-4 -2 -8 -3 -11 -3c-7 0 -12 6 -16 17c-18 56 -10 116 -11 158c0 32 5 64 9 96c3 31 7 64 14 95c1 1 0 2 0 4c-7 -10 -9 -20 -13 -30c-56 -129 -94 -234 -158 -321c-13 -18 -28 -23 -41 -23
c-16 0 -29 8 -32 7h-3c-17 0 -32 9 -48 15c-10 2 -16 8 -21 15zM247 791c-8 9 -9 11 -4 21c2 3 4 4 1 8s4 8 10 8c2 0 4 -1 5 -2c8 -9 20 -8 30 -11c2 -1 4 0 5 2c2 4 5 5 8 5c2 0 4 -1 7 -1c34 -8 74 -69 92 -96c2 -3 5 -5 0 -8c-3 -2 0 -3 1 -5c4 -9 0 -16 -9 -16
c-19 0 -57 3 -72 16c-74 74 -19 20 -74 79zM102 456c-30 -110 -61 -229 -61 -344h5c-1 53 21 148 32 200c40 184 96 313 96 332c-7 0 -12 -4 -14 -11c-20 -59 -41 -117 -58 -177zM196 135c-13 -27 -29 -53 -47 -82c30 15 114 206 130 238c88 192 120 242 127 266
c-7 -6 -9 -13 -12 -18c-26 -51 -51 -100 -75 -150c-74 -151 -83 -177 -123 -254zM353 142c0 -15 -4 -31 0 -45c6 62 10 125 22 187c10 63 27 124 38 186c-39 -65 -58 -253 -60 -328zM183 567c-46 -146 -93 -357 -89 -388c10 29 -1 61 103 420c6 17 11 34 14 56
c-7 -10 -5 -11 -28 -88zM399 230c4 5 3 10 2 18c6 6 1 5 22 102c51 244 49 222 48 230c-3 -7 -6 -16 -4 -24c-4 1 -4 -2 -5 -5c-23 -105 -48 -211 -61 -303c-3 -6 -1 -13 -2 -18zM398 228c0 -6 -3 -11 0 -16c2 6 1 11 0 16v0zM305 810c-1 1 -2 2 -3 2c-2 0 -3 -2 -2 -3
s3 -1 4 -1s1 1 1 2zM270 224c-1 -1 0 -2 1 -2c1 1 1 2 2 2c0 3 0 4 -1 3c-1 0 -1 -2 -2 -3z" />
    <glyph glyph-name="Uacute" unicode="&#xda;" horiz-adv-x="509" 
d="M33 -8c-31 42 -23 97 -24 143c-1 26 16 118 21 141c32 128 42 174 89 310c15 40 32 78 46 118c2 4 5 7 6 13c2 7 6 10 13 10c6 -1 8 -7 8 -14c1 -3 -1 -6 1 -9c5 -1 5 8 9 8c1 0 2 0 3 -1c3 -2 10 -3 11 -5c2 -4 3 -6 5 -6c3 0 7 8 13 10c2 1 4 1 5 1c8 0 14 -7 15 -17
c2 -55 -34 -173 -50 -245c-17 -68 -35 -138 -45 -208c-6 -48 -19 -105 -22 -150c0 -2 -1 -5 2 -7c2 -1 4 2 6 4c7 11 14 20 21 31c61 109 69 138 102 203c28 52 53 105 79 158c69 133 68 122 95 186c3 6 6 14 13 16c1 0 2 1 3 1c3 0 5 -3 4 -8c-2 -6 -6 -12 -5 -21
c4 2 4 5 6 8c4 7 6 9 10 9c2 0 5 0 9 -2c2 -1 4 -1 5 -1c2 0 5 1 7 2c4 2 7 3 10 3c7 0 12 -6 13 -18c2 -30 -32 -204 -40 -246c-10 -54 -20 -106 -29 -160c-6 -32 -10 -63 -13 -94c-4 -40 -12 -134 -2 -174c3 -8 2 -20 0 -30c-2 -6 -5 -10 -10 -10c-1 0 -3 1 -4 1
c-10 2 -21 2 -31 9c-2 1 -4 2 -5 1c-3 -2 -5 -3 -7 -3c-6 0 -8 8 -12 13c-4 -2 -8 -3 -11 -3c-7 0 -12 6 -16 17c-18 56 -10 116 -11 158c0 32 5 64 9 96c3 31 7 64 14 95c1 1 0 2 0 4c-7 -10 -9 -20 -13 -30c-56 -129 -94 -234 -158 -321c-13 -18 -28 -23 -41 -23
c-16 0 -29 8 -32 7h-3c-17 0 -32 9 -48 15c-10 2 -16 8 -21 15zM310 694c1 6 -18 3 -8 17c10 16 101 82 129 91h3c2 0 5 -1 6 -3c2 -4 -2 -5 -4 -8c8 0 12 -6 14 -11c1 -3 2 -5 4 -5c1 0 2 0 3 1c2 1 3 1 4 1c3 0 6 -2 7 -5c10 -15 -93 -79 -114 -94c-11 -7 -15 -12 -19 -12
c-3 0 -6 2 -11 7c-4 5 -6 12 -13 14c-2 1 -1 4 -1 7zM102 456c-30 -110 -61 -229 -61 -344h5c-1 53 21 148 32 200c40 184 96 313 96 332c-7 0 -12 -4 -14 -11c-20 -59 -41 -117 -58 -177zM196 135c-13 -27 -29 -53 -47 -82c30 15 114 206 130 238c88 192 120 242 127 266
c-7 -6 -9 -13 -12 -18c-26 -51 -51 -100 -75 -150c-74 -151 -83 -177 -123 -254zM353 142c0 -15 -4 -31 0 -45c6 62 10 125 22 187c10 63 27 124 38 186c-39 -65 -58 -253 -60 -328zM183 567c-46 -146 -93 -357 -89 -388c10 29 -1 61 103 420c6 17 11 34 14 56
c-7 -10 -5 -11 -28 -88zM399 230c4 5 3 10 2 18c6 6 1 5 22 102c51 244 49 222 48 230c-3 -7 -6 -16 -4 -24c-4 1 -4 -2 -5 -5c-23 -105 -48 -211 -61 -303c-3 -6 -1 -13 -2 -18zM329 721c-3 -2 -7 -5 -6 -11c36 25 70 50 107 72c-2 2 -3 2 -5 2s-3 0 -4 -1
c-33 -17 -62 -40 -92 -62zM398 228c0 -6 -3 -11 0 -16c2 6 1 11 0 16v0zM417 751c-7 -1 -10 -3 -11 -8c3 2 5 4 11 8zM384 728c4 2 7 3 7 7c-3 -1 -6 -2 -7 -7zM349 707c-2 -2 -4 -3 -6 -5c3 0 6 1 6 5zM270 224c-1 -1 0 -2 1 -2c1 1 1 2 2 2c0 3 0 4 -1 3c-1 0 -1 -2 -2 -3
z" />
    <glyph glyph-name="Ucircumflex" unicode="&#xdb;" horiz-adv-x="509" 
d="M33 -8c-31 42 -23 97 -24 143c-1 26 16 118 21 141c32 128 42 174 89 310c15 40 32 78 46 118c2 4 5 7 6 13c2 7 6 10 13 10c6 -1 8 -7 8 -14c1 -3 -1 -6 1 -9c5 -1 5 8 9 8c1 0 2 0 3 -1c3 -2 10 -3 11 -5c2 -4 3 -6 5 -6c3 0 7 8 13 10c2 1 4 1 5 1c8 0 14 -7 15 -17
c2 -55 -34 -173 -50 -245c-17 -68 -35 -138 -45 -208c-6 -48 -19 -105 -22 -150c0 -2 -1 -5 2 -7c2 -1 4 2 6 4c7 11 14 20 21 31c61 109 69 138 102 203c28 52 53 105 79 158c69 133 68 122 95 186c3 6 6 14 13 16c1 0 2 1 3 1c3 0 5 -3 4 -8c-2 -6 -6 -12 -5 -21
c4 2 4 5 6 8c4 7 6 9 10 9c2 0 5 0 9 -2c2 -1 4 -1 5 -1c2 0 5 1 7 2c4 2 7 3 10 3c7 0 12 -6 13 -18c2 -30 -32 -204 -40 -246c-10 -54 -20 -106 -29 -160c-6 -32 -10 -63 -13 -94c-4 -40 -12 -134 -2 -174c3 -8 2 -20 0 -30c-2 -6 -5 -10 -10 -10c-1 0 -3 1 -4 1
c-10 2 -21 2 -31 9c-2 1 -4 2 -5 1c-3 -2 -5 -3 -7 -3c-6 0 -8 8 -12 13c-4 -2 -8 -3 -11 -3c-7 0 -12 6 -16 17c-18 56 -10 116 -11 158c0 32 5 64 9 96c3 31 7 64 14 95c1 1 0 2 0 4c-7 -10 -9 -20 -13 -30c-56 -129 -94 -234 -158 -321c-13 -18 -28 -23 -41 -23
c-16 0 -29 8 -32 7h-3c-17 0 -32 9 -48 15c-10 2 -16 8 -21 15zM276 714c-24 5 -29 5 -28 10c3 12 1 13 33 58c34 47 45 58 52 58c4 0 6 -3 10 -5s8 -4 12 -4c3 0 5 0 8 2c1 1 2 1 4 1c13 0 29 -27 34 -38c32 -56 37 -57 32 -80c-1 -2 -3 -3 -5 -3h-6c-3 0 -5 0 -7 1
c-15 7 -31 2 -41 16c-10 15 -21 29 -28 46c-1 2 -2 4 -5 5c-10 -10 -19 -22 -27 -33c-7 -11 -16 -20 -23 -30c-3 -3 -6 -5 -10 -5c-1 0 -3 0 -5 1zM102 456c-30 -110 -61 -229 -61 -344h5c-1 53 21 148 32 200c40 184 96 313 96 332c-7 0 -12 -4 -14 -11
c-20 -59 -41 -117 -58 -177zM196 135c-13 -27 -29 -53 -47 -82c30 15 114 206 130 238c88 192 120 242 127 266c-7 -6 -9 -13 -12 -18c-26 -51 -51 -100 -75 -150c-74 -151 -83 -177 -123 -254zM353 142c0 -15 -4 -31 0 -45c6 62 10 125 22 187c10 63 27 124 38 186
c-39 -65 -58 -253 -60 -328zM183 567c-46 -146 -93 -357 -89 -388c10 29 -1 61 103 420c6 17 11 34 14 56c-7 -10 -5 -11 -28 -88zM399 230c4 5 3 10 2 18c6 6 1 5 22 102c51 244 49 222 48 230c-3 -7 -6 -16 -4 -24c-4 1 -4 -2 -5 -5c-23 -105 -48 -211 -61 -303
c-3 -6 -1 -13 -2 -18zM398 228c0 -6 -3 -11 0 -16c2 6 1 11 0 16v0zM270 224c-1 -1 0 -2 1 -2c1 1 1 2 2 2c0 3 0 4 -1 3c-1 0 -1 -2 -2 -3z" />
    </font>
</defs>
</svg>
