<?xml version="1.0" standalone="no"?>
<!DOCTYPE svg PUBLIC "-//W3C//DTD SVG 1.1//EN" "http://www.w3.org/Graphics/SVG/1.1/DTD/svg11.dtd" >
<svg>
<metadata>
Created by FontForge 20120731 at Thu Aug  8 09:27:18 2019
 By www-data
(c) 2017 Typodermic Fonts Inc.
</metadata>
<defs>
<font id="ToxigenesisRg-Bold" horiz-adv-x="0" >
  <font-face 
    font-family="Toxigenesis Rg"
    font-weight="700"
    font-stretch="normal"
    units-per-em="1000"
    panose-1="2 11 8 3 4 2 0 1 1 4"
    ascent="761"
    descent="-239"
    x-height="463"
    cap-height="731"
    bbox="-631 -321 1346 1145"
    underline-thickness="50"
    underline-position="-50"
    unicode-range="U+0017-25CA"
  />
<missing-glyph horiz-adv-x="689" 
d="M621 961v-1200h-553v1200h553zM165 861v-1000h359v1000h-359z" />
    <glyph glyph-name=".notdef" horiz-adv-x="689" 
d="M621 961v-1200h-553v1200h553zM165 861v-1000h359v1000h-359z" />
    <glyph glyph-name="space" horiz-adv-x="323" 
 />
    <glyph glyph-name="space" unicode="&#xa0;" horiz-adv-x="323" 
 />
    <glyph glyph-name="space" unicode=" " horiz-adv-x="323" 
 />
    <glyph glyph-name="exclam" unicode="!" horiz-adv-x="323" 
d="M247 173v-173h-172v173h172zM261 731l-31 -477h-138l-31 477h200z" />
    <glyph glyph-name="quotedbl" unicode="&#x22;" horiz-adv-x="471" 
d="M63 409zM163 409h-74l-26 322h126zM381 409h-74l-26 322h126z" />
    <glyph glyph-name="dollar" unicode="$" horiz-adv-x="783" 
d="M338 0h-296v159h454q33 0 48 18t15 61q0 46 -15.5 60.5t-47.5 14.5h-245q-63 0 -104.5 11t-66 35t-35 62.5t-10.5 93.5q0 54 10 94.5t34.5 67.5t66 40.5t105.5 13.5h87v142h134v-142h248v-154h-436q-35 0 -49 -16t-14 -54q0 -37 14 -53t49 -16h245q62 0 103.5 -13
t66 -39.5t35 -67.5t10.5 -97q0 -55 -10 -96.5t-34.5 -69t-66 -41.5t-104.5 -14h-57v-142h-134v142z" />
    <glyph glyph-name="percent" unicode="%" horiz-adv-x="1054" 
d="M35 0zM244 638q-30 0 -48.5 -5.5t-28.5 -18.5t-13 -33.5t-3 -50.5t3 -51t13 -33.5t28.5 -18.5t48.5 -6t48 6t28 18.5t13 33.5t3 51t-3 50.5t-13 33.5t-28 18.5t-48 5.5zM244 321q-65 0 -105.5 11.5t-63.5 36t-31.5 64.5t-8.5 97t8.5 97t31.5 64.5t63.5 36t105.5 11.5
q64 0 104.5 -11.5t63 -36t31 -64.5t8.5 -97t-8.5 -97t-31 -64.5t-63 -36t-104.5 -11.5zM684 731h143l-458 -731h-143zM811 309q-30 0 -48.5 -5.5t-28.5 -18.5t-13 -33.5t-3 -50.5t3 -51t13 -33.5t28.5 -18.5t48.5 -6t48 6t28 18.5t13 33.5t3 51t-3 50.5t-13 33.5t-28 18.5
t-48 5.5zM811 -8q-65 0 -105.5 11.5t-63.5 36t-31.5 64.5t-8.5 97t8.5 97t31.5 64.5t63.5 36t105.5 11.5q64 0 104.5 -11.5t63 -36t31 -64.5t8.5 -97t-8.5 -97t-31 -64.5t-63 -36t-104.5 -11.5z" />
    <glyph glyph-name="ampersand" unicode="&#x26;" horiz-adv-x="870" 
d="M655 0l-82 77q-34 -38 -79.5 -57.5t-119.5 -19.5h-129q-109 0 -159 47t-50 155q0 33 5 57.5t17 44t32 36t50 32.5l76 41l-41 39q-34 32 -45 63.5t-11 65.5q0 75 40 112.5t125 37.5h163q85 0 124.5 -37t39.5 -112q0 -27 -5 -46.5t-16.5 -36t-29.5 -30t-44 -28.5l-78 -45
l106 -99l128 174h182l-197 -280l206 -191h-208zM363 127q18 0 31 2.5t23.5 9t20.5 17t22 27.5l-149 140l-34 -19q-20 -11 -32.5 -20t-19.5 -19t-9.5 -23t-2.5 -31q0 -47 17 -65.5t66 -18.5h67zM279 569q0 -13 4 -23t20 -24l41 -39l76 42q20 11 26.5 20t6.5 27q0 20 -9 31
t-36 11h-80q-27 0 -38 -11t-11 -34z" />
    <glyph glyph-name="quotesingle" unicode="'" horiz-adv-x="253" 
d="M163 409h-74l-26 322h126z" />
    <glyph glyph-name="parenleft" unicode="(" horiz-adv-x="423" 
d="M81 641q0 81 13.5 137t47 90.5t89.5 49.5t142 15h23v-106h-23q-48 0 -78.5 -8.5t-48 -29.5t-24.5 -57t-7 -92v-558q0 -56 7 -92t24.5 -57t48 -29.5t78.5 -8.5h23v-106h-23q-86 0 -142 15t-89.5 49.5t-47 90.5t-13.5 137v560z" />
    <glyph glyph-name="parenright" unicode=")" horiz-adv-x="423" 
d="M342 81q0 -81 -13.5 -137t-47 -90.5t-90 -49.5t-141.5 -15h-23v106h23q47 0 77.5 8.5t48 29.5t24.5 57t7 92v558q0 56 -7 92t-24.5 57t-48 29.5t-77.5 8.5h-23v106h23q85 0 141.5 -15t90 -49.5t47 -90.5t13.5 -137v-560z" />
    <glyph glyph-name="asterisk" unicode="*" horiz-adv-x="607" 
d="M68 620l188 -69l-10 198h114l-10 -198l188 69l35 -109l-194 -50l126 -160l-92 -67l-111 171l-109 -170l-94 67l126 159l-193 50z" />
    <glyph glyph-name="plus" unicode="+" horiz-adv-x="690" 
d="M68 432h210v219h134v-219h210v-134h-210v-218h-134v218h-210v134z" />
    <glyph glyph-name="comma" unicode="," horiz-adv-x="299" 
d="M235 173v-203q0 -55 -23 -79t-77 -24h-70v71h42q23 0 23 23v39h-67v173h172z" />
    <glyph glyph-name="comma" unicode="&#x201a;" horiz-adv-x="299" 
d="M235 173v-203q0 -55 -23 -79t-77 -24h-70v71h42q23 0 23 23v39h-67v173h172z" />
    <glyph glyph-name="hyphen" unicode="-" horiz-adv-x="379" 
d="M23 386h333v-138h-333v138z" />
    <glyph glyph-name="hyphen" unicode="&#x2010;" horiz-adv-x="379" 
d="M23 386h333v-138h-333v138z" />
    <glyph glyph-name="period" unicode="." horiz-adv-x="299" 
d="M235 173v-173h-172v173h172z" />
    <glyph glyph-name="slash" unicode="/" horiz-adv-x="555" 
d="M413 833h142l-413 -944h-142z" />
    <glyph glyph-name="zero" unicode="0" horiz-adv-x="821" 
d="M411 587q-61 0 -98 -12t-57.5 -38t-27 -68.5t-6.5 -103.5t6.5 -103.5t27 -68.5t57.5 -38t98 -12t98 12t57 38t26.5 68.5t6.5 103.5t-6.5 103.5t-26.5 68.5t-57 38t-98 12zM411 -15q-116 0 -189 20.5t-114 66t-55.5 117.5t-14.5 176q0 103 14.5 175.5t55.5 118t114 66
t189 20.5t188.5 -20.5t113.5 -66t55.5 -118t14.5 -175.5q0 -104 -14.5 -176t-55.5 -117.5t-113.5 -66t-188.5 -20.5z" />
    <glyph glyph-name="one" unicode="1" horiz-adv-x="402" 
d="M147 0v577h-130v154h317v-731h-187z" />
    <glyph glyph-name="one" unicode="&#x4cf;" horiz-adv-x="402" 
d="M147 0v577h-130v154h317v-731h-187z" />
    <glyph glyph-name="one" unicode="&#x4c0;" horiz-adv-x="402" 
d="M147 0v577h-130v154h317v-731h-187z" />
    <glyph glyph-name="two" unicode="2" horiz-adv-x="783" 
d="M535 731q48 0 88 -11t68 -35t43.5 -62.5t15.5 -93.5q0 -42 -9.5 -74.5t-29.5 -59.5t-51 -50t-74 -47l-260 -144h420v-154h-701v162l467 275q29 17 40 35.5t11 41.5q0 31 -16 44.5t-47 13.5h-458v159h493z" />
    <glyph glyph-name="three" unicode="3" horiz-adv-x="778" 
d="M471 159q37 0 61.5 15.5t24.5 60.5q0 22 -6.5 36.5t-18 22.5t-26.5 11.5t-32 3.5h-416v128h412q34 0 57.5 13.5t23.5 54.5q0 42 -24 57t-59 15h-412v154h401q57 0 106.5 -8t86 -30.5t57 -61.5t20.5 -102q0 -57 -17 -93.5t-46 -58.5q35 -20 56 -59t21 -105t-21 -108
t-59 -65t-90 -31.5t-114 -8.5h-403v159h417z" />
    <glyph glyph-name="four" unicode="4" horiz-adv-x="834" 
d="M513 0v165h-492v128l413 438h260v-426h119v-140h-119v-165h-181zM513 305v293l-275 -293h275z" />
    <glyph glyph-name="five" unicode="5" horiz-adv-x="771" 
d="M55 320l22 411h628v-154h-454l-6 -132h271q63 0 105 -14t66.5 -41.5t35 -69.5t10.5 -98q0 -54 -10 -95.5t-34.5 -69.5t-66.5 -42.5t-106 -14.5h-461v159h428q38 0 51.5 21.5t13.5 60.5q0 43 -15 61t-50 18h-428z" />
    <glyph glyph-name="six" unicode="6" horiz-adv-x="812" 
d="M362 0q-87 0 -148.5 14.5t-100.5 54t-57 110.5t-18 184q0 114 18.5 186t58 112.5t100.5 55t147 14.5h362v-154h-361q-32 0 -55.5 -6t-41 -21t-28 -41t-14.5 -66h316q125 0 183.5 -53t58.5 -156q0 -51 -15 -94t-49 -74t-88 -48.5t-132 -17.5h-136zM220 331q2 -55 11.5 -90
t27 -55.5t43.5 -28t61 -7.5h152q42 0 62.5 25t20.5 71q0 45 -20 65t-56 20h-302z" />
    <glyph glyph-name="seven" unicode="7" horiz-adv-x="701" 
d="M113 0l361 577h-457v154h667v-139l-359 -592h-212z" />
    <glyph glyph-name="eight" unicode="8" horiz-adv-x="794" 
d="M320 0q-62 0 -114 8.5t-89.5 31.5t-59 64.5t-21.5 107.5q0 67 21 106t56 60q-29 22 -45.5 58t-16.5 93q0 63 20.5 102t56.5 61.5t85.5 30.5t106.5 8h154q57 0 106 -8t85.5 -30.5t57 -61.5t20.5 -102q0 -57 -17 -93t-46 -58q35 -21 56.5 -60t21.5 -106q0 -66 -21.5 -107.5
t-59 -64.5t-90 -31.5t-113.5 -8.5h-154zM300 314q-37 0 -61 -16.5t-24 -62.5q0 -48 25 -64.5t63 -16.5h188q38 0 62.5 16.5t24.5 64.5q0 46 -23.5 62.5t-60.5 16.5h-194zM307 582q-36 0 -60.5 -15.5t-24.5 -61.5q0 -23 6.5 -37t17.5 -22t26.5 -11t32.5 -3h184q17 0 32 3
t26.5 11t18 22.5t6.5 37.5q0 45 -24.5 60.5t-60.5 15.5h-180z" />
    <glyph glyph-name="nine" unicode="9" horiz-adv-x="812" 
d="M458 731q87 0 148.5 -14.5t100.5 -54t57 -110.5t18 -184q0 -114 -18.5 -186t-58 -112.5t-101 -55t-146.5 -14.5h-359v154h360q32 0 56 5.5t41.5 21.5t28 44t14.5 73h-308q-125 0 -189 48.5t-64 158.5q0 49 14 90.5t47 71.5t87.5 47t135.5 17h136zM225 493
q0 -45 20.5 -63.5t56.5 -18.5h299q-3 53 -12.5 86t-27 52t-43 25.5t-59.5 6.5h-151q-44 0 -63.5 -23t-19.5 -65z" />
    <glyph glyph-name="colon" unicode=":" horiz-adv-x="317" 
d="M72 0zM244 173v-173h-172v173h172zM244 511v-173h-172v173h172z" />
    <glyph glyph-name="semicolon" unicode=";" horiz-adv-x="317" 
d="M72 0zM244 173v-203q0 -55 -23 -79t-77 -24h-70v71h42q23 0 23 23v39h-67v173h172zM244 511v-173h-172v173h172z" />
    <glyph glyph-name="less" unicode="&#x3c;" horiz-adv-x="690" 
d="M68 424l554 202v-138l-356 -123l356 -124v-138l-554 203v118z" />
    <glyph glyph-name="equal" unicode="=" horiz-adv-x="690" 
d="M68 297h554v-134h-554v134zM68 566h554v-134h-554v134z" />
    <glyph glyph-name="greater" unicode="&#x3e;" horiz-adv-x="690" 
d="M622 305l-554 -202v138l356 123l-356 124v138l554 -203v-118z" />
    <glyph glyph-name="question" unicode="?" horiz-adv-x="601" 
d="M303 173v-173h-172v173h172zM330 363q-23 0 -32.5 -8.5t-9.5 -31.5v-69h-143v93q0 60 30.5 94t102.5 34h77q28 0 39 14t11 50q0 37 -11.5 51t-38.5 14h-338v127h381q51 0 84.5 -11.5t53 -34.5t27.5 -57.5t8 -80.5q0 -47 -8 -82t-28 -57.5t-53.5 -33.5t-83.5 -11h-68z" />
    <glyph glyph-name="at" unicode="@" horiz-adv-x="782" 
d="M585 435q0 27 -14.5 36.5t-45.5 9.5h-269q-31 0 -45 -9.5t-14 -36.5v-472q0 -28 13.5 -38.5t45.5 -10.5h457v-125h-461q-51 0 -86 8.5t-56.5 28t-31.5 51.5t-10 79v486q0 41 10 69t31.5 45.5t56.5 25t86 7.5h278q51 0 86 -7.5t56.5 -25t31.5 -45.5t10 -69v-420h-241
q-53 0 -89 8.5t-58 28t-31 51t-9 78.5q0 46 9 78t31 51.5t58 28t89 8.5h112v81zM585 118v140h-115q-35 0 -47.5 -14.5t-12.5 -55.5t12.5 -55.5t47.5 -14.5h115z" />
    <glyph glyph-name="A" unicode="A" horiz-adv-x="946" 
d="M367 731h212l358 -731h-198l-67 142h-392l-67 -142h-204zM350 291h251l-126 266z" />
    <glyph glyph-name="A" unicode="&#x410;" horiz-adv-x="946" 
d="M367 731h212l358 -731h-198l-67 142h-392l-67 -142h-204zM350 291h251l-126 266z" />
    <glyph glyph-name="A" unicode="&#x391;" horiz-adv-x="946" 
d="M367 731h212l358 -731h-198l-67 142h-392l-67 -142h-204zM350 291h251l-126 266z" />
    <glyph glyph-name="B" unicode="B" horiz-adv-x="846" 
d="M796 529q0 -57 -17 -93.5t-46 -58.5q35 -20 56 -59.5t21 -105.5t-21 -107t-58.5 -64.5t-90 -32t-114.5 -8.5h-458v731h458q58 0 107.5 -8t85.5 -30.5t56.5 -62t20.5 -101.5zM259 312v-154h272q18 0 34 3.5t27.5 12.5t18 24t6.5 38q0 45 -22.5 60.5t-60.5 15.5h-275z
M259 434h271q40 0 60.5 16.5t20.5 55.5q0 44 -24 59.5t-59 15.5h-269v-147z" />
    <glyph glyph-name="B" unicode="&#x412;" horiz-adv-x="846" 
d="M796 529q0 -57 -17 -93.5t-46 -58.5q35 -20 56 -59.5t21 -105.5t-21 -107t-58.5 -64.5t-90 -32t-114.5 -8.5h-458v731h458q58 0 107.5 -8t85.5 -30.5t56.5 -62t20.5 -101.5zM259 312v-154h272q18 0 34 3.5t27.5 12.5t18 24t6.5 38q0 45 -22.5 60.5t-60.5 15.5h-275z
M259 434h271q40 0 60.5 16.5t20.5 55.5q0 44 -24 59.5t-59 15.5h-269v-147z" />
    <glyph glyph-name="B" unicode="&#x392;" horiz-adv-x="846" 
d="M796 529q0 -57 -17 -93.5t-46 -58.5q35 -20 56 -59.5t21 -105.5t-21 -107t-58.5 -64.5t-90 -32t-114.5 -8.5h-458v731h458q58 0 107.5 -8t85.5 -30.5t56.5 -62t20.5 -101.5zM259 312v-154h272q18 0 34 3.5t27.5 12.5t18 24t6.5 38q0 45 -22.5 60.5t-60.5 15.5h-275z
M259 434h271q40 0 60.5 16.5t20.5 55.5q0 44 -24 59.5t-59 15.5h-269v-147z" />
    <glyph glyph-name="C" unicode="C" horiz-adv-x="748" 
d="M703 0h-341q-81 0 -142 14.5t-101.5 54.5t-60.5 111t-20 185t20 185t60.5 111.5t101.5 55t142 14.5h341v-161h-340q-37 0 -62 -8.5t-40.5 -31.5t-22.5 -63t-7 -102t7 -102t22.5 -62.5t41 -31t61.5 -8.5h340v-161z" />
    <glyph glyph-name="C" unicode="&#x421;" horiz-adv-x="748" 
d="M703 0h-341q-81 0 -142 14.5t-101.5 54.5t-60.5 111t-20 185t20 185t60.5 111.5t101.5 55t142 14.5h341v-161h-340q-37 0 -62 -8.5t-40.5 -31.5t-22.5 -63t-7 -102t7 -102t22.5 -62.5t41 -31t61.5 -8.5h340v-161z" />
    <glyph glyph-name="D" unicode="D" horiz-adv-x="858" 
d="M264 161h231q37 0 62.5 9t41 31.5t22 62t6.5 101.5t-7 102t-22.5 63t-41 31.5t-61.5 8.5h-231v-409zM68 731h428q81 0 141.5 -14.5t101 -55t61 -111.5t20.5 -185t-20.5 -185t-61 -111t-101 -54.5t-141.5 -14.5h-428v731z" />
    <glyph glyph-name="E" unicode="E" horiz-adv-x="799" 
d="M741 295h-477v-137h481v-158h-677v731h675v-158h-479v-137h477v-141z" />
    <glyph glyph-name="E" unicode="&#x415;" horiz-adv-x="799" 
d="M741 295h-477v-137h481v-158h-677v731h675v-158h-479v-137h477v-141z" />
    <glyph glyph-name="E" unicode="&#x395;" horiz-adv-x="799" 
d="M741 295h-477v-137h481v-158h-677v731h675v-158h-479v-137h477v-141z" />
    <glyph glyph-name="F" unicode="F" horiz-adv-x="762" 
d="M718 276h-454v-276h-196v731h652v-158h-456v-138h454v-159z" />
    <glyph glyph-name="G" unicode="G" horiz-adv-x="801" 
d="M737 0h-375q-81 0 -142 14.5t-101.5 54.5t-60.5 111t-20 185t20 185t60.5 111.5t101.5 55t142 14.5h373v-161h-372q-37 0 -62 -9t-40.5 -32t-22.5 -62.5t-7 -101.5t7 -101.5t22.5 -62.5t40.5 -31.5t62 -8.5h202v219h172v-380z" />
    <glyph glyph-name="H" unicode="H" horiz-adv-x="877" 
d="M809 731v-731h-196v285h-349v-285h-196v731h196v-285h349v285h196z" />
    <glyph glyph-name="H" unicode="&#x41d;" horiz-adv-x="877" 
d="M809 731v-731h-196v285h-349v-285h-196v731h196v-285h349v285h196z" />
    <glyph glyph-name="H" unicode="&#x397;" horiz-adv-x="877" 
d="M809 731v-731h-196v285h-349v-285h-196v731h196v-285h349v285h196z" />
    <glyph glyph-name="I" unicode="I" horiz-adv-x="332" 
d="M264 731v-731h-196v731h196z" />
    <glyph glyph-name="I" unicode="&#x406;" horiz-adv-x="332" 
d="M264 731v-731h-196v731h196z" />
    <glyph glyph-name="I" unicode="&#x399;" horiz-adv-x="332" 
d="M264 731v-731h-196v731h196z" />
    <glyph glyph-name="J" unicode="J" horiz-adv-x="659" 
d="M604 731v-442q0 -76 -19.5 -130.5t-60 -90t-104 -52t-150.5 -16.5h-253v158h253q39 0 66 7t43.5 23t24 40.5t7.5 60.5v442h193z" />
    <glyph glyph-name="J" unicode="&#x408;" horiz-adv-x="659" 
d="M604 731v-442q0 -76 -19.5 -130.5t-60 -90t-104 -52t-150.5 -16.5h-253v158h253q39 0 66 7t43.5 23t24 40.5t7.5 60.5v442h193z" />
    <glyph glyph-name="K" unicode="K" horiz-adv-x="828" 
d="M560 379l254 -379h-218l-206 298h-126v-298h-196v731h196v-296h126l209 296h207z" />
    <glyph glyph-name="K" unicode="&#x41a;" horiz-adv-x="828" 
d="M560 379l254 -379h-218l-206 298h-126v-298h-196v731h196v-296h126l209 296h207z" />
    <glyph glyph-name="K" unicode="&#x39a;" horiz-adv-x="828" 
d="M560 379l254 -379h-218l-206 298h-126v-298h-196v731h196v-296h126l209 296h207z" />
    <glyph glyph-name="L" unicode="L" horiz-adv-x="733" 
d="M264 158h452v-158h-648v731h196v-573z" />
    <glyph glyph-name="M" unicode="M" horiz-adv-x="1086" 
d="M446 0l-199 485v-485h-179v731h261l213 -522l219 522h257v-731h-179v483l-201 -483h-192z" />
    <glyph glyph-name="M" unicode="&#x41c;" horiz-adv-x="1086" 
d="M446 0l-199 485v-485h-179v731h261l213 -522l219 522h257v-731h-179v483l-201 -483h-192z" />
    <glyph glyph-name="M" unicode="&#x39c;" horiz-adv-x="1086" 
d="M446 0l-199 485v-485h-179v731h261l213 -522l219 522h257v-731h-179v483l-201 -483h-192z" />
    <glyph glyph-name="N" unicode="N" horiz-adv-x="912" 
d="M663 213v518h181v-731h-238l-356 500v-500h-182v731h232z" />
    <glyph glyph-name="N" unicode="&#x39d;" horiz-adv-x="912" 
d="M663 213v518h181v-731h-238l-356 500v-500h-182v731h232z" />
    <glyph glyph-name="O" unicode="O" horiz-adv-x="854" 
d="M427 583q-63 0 -101.5 -11t-59.5 -36.5t-28 -67.5t-7 -103t7 -103t28 -67.5t59.5 -36.5t101.5 -11t101.5 11t59.5 36.5t28 67.5t7 103t-7 103t-28 67.5t-59.5 36.5t-101.5 11zM427 -15q-121 0 -197 20.5t-118.5 66t-58 117.5t-15.5 176q0 103 15.5 175.5t58 118t118.5 66
t197 20.5t197 -20.5t118.5 -66t58 -118t15.5 -175.5q0 -104 -15.5 -176t-58 -117.5t-118.5 -66t-197 -20.5z" />
    <glyph glyph-name="O" unicode="&#x41e;" horiz-adv-x="854" 
d="M427 583q-63 0 -101.5 -11t-59.5 -36.5t-28 -67.5t-7 -103t7 -103t28 -67.5t59.5 -36.5t101.5 -11t101.5 11t59.5 36.5t28 67.5t7 103t-7 103t-28 67.5t-59.5 36.5t-101.5 11zM427 -15q-121 0 -197 20.5t-118.5 66t-58 117.5t-15.5 176q0 103 15.5 175.5t58 118t118.5 66
t197 20.5t197 -20.5t118.5 -66t58 -118t15.5 -175.5q0 -104 -15.5 -176t-58 -117.5t-118.5 -66t-197 -20.5z" />
    <glyph glyph-name="O" unicode="&#x39f;" horiz-adv-x="854" 
d="M427 583q-63 0 -101.5 -11t-59.5 -36.5t-28 -67.5t-7 -103t7 -103t28 -67.5t59.5 -36.5t101.5 -11t101.5 11t59.5 36.5t28 67.5t7 103t-7 103t-28 67.5t-59.5 36.5t-101.5 11zM427 -15q-121 0 -197 20.5t-118.5 66t-58 117.5t-15.5 176q0 103 15.5 175.5t58 118t118.5 66
t197 20.5t197 -20.5t118.5 -66t58 -118t15.5 -175.5q0 -104 -15.5 -176t-58 -117.5t-118.5 -66t-197 -20.5z" />
    <glyph glyph-name="P" unicode="P" horiz-adv-x="831" 
d="M264 226v-226h-196v731h448q55 0 106.5 -10t91.5 -38.5t63.5 -78.5t23.5 -129q0 -80 -24 -129t-64 -75.5t-91.5 -35.5t-105.5 -9h-252zM608 475q0 29 -7 47.5t-18.5 29t-27 14.5t-33.5 4h-258v-189h258q18 0 33.5 4t27 14.5t18.5 28.5t7 47z" />
    <glyph glyph-name="P" unicode="&#x420;" horiz-adv-x="831" 
d="M264 226v-226h-196v731h448q55 0 106.5 -10t91.5 -38.5t63.5 -78.5t23.5 -129q0 -80 -24 -129t-64 -75.5t-91.5 -35.5t-105.5 -9h-252zM608 475q0 29 -7 47.5t-18.5 29t-27 14.5t-33.5 4h-258v-189h258q18 0 33.5 4t27 14.5t18.5 28.5t7 47z" />
    <glyph glyph-name="P" unicode="&#x3a1;" horiz-adv-x="831" 
d="M264 226v-226h-196v731h448q55 0 106.5 -10t91.5 -38.5t63.5 -78.5t23.5 -129q0 -80 -24 -129t-64 -75.5t-91.5 -35.5t-105.5 -9h-252zM608 475q0 29 -7 47.5t-18.5 29t-27 14.5t-33.5 4h-258v-189h258q18 0 33.5 4t27 14.5t18.5 28.5t7 47z" />
    <glyph glyph-name="Q" unicode="Q" horiz-adv-x="854" 
d="M427 0q-121 0 -197 20t-118.5 64.5t-58 115.5t-15.5 172q0 102 15.5 173t58 115.5t118.5 64.5t197 20t197 -20t118.5 -64.5t58 -115.5t15.5 -173q0 -68 -6.5 -122t-23 -95t-45 -70.5t-71.5 -48.5l96 -174h-217l-76 139q-11 -1 -22.5 -1h-23.5zM427 583q-63 0 -101.5 -11
t-59.5 -36.5t-28 -67t-7 -102.5q0 -60 7 -101.5t28 -67t59.5 -36.5t101.5 -11t101.5 11t59.5 36.5t28 67t7 101.5q0 61 -7 102.5t-28 67t-59.5 36.5t-101.5 11z" />
    <glyph glyph-name="R" unicode="R" horiz-adv-x="868" 
d="M264 242v-242h-196v731h458q55 0 105.5 -8.5t89.5 -33t62 -69.5t23 -117q0 -63 -18 -105t-50 -68q34 -17 53.5 -47.5t19.5 -80.5v-202h-196v180q0 35 -14.5 48.5t-61.5 13.5h-275zM618 480q0 28 -6.5 45.5t-18 27.5t-27 13.5t-33.5 3.5h-269v-181h269q18 0 33.5 4t27 14
t18 27.5t6.5 45.5z" />
    <glyph glyph-name="S" unicode="S" horiz-adv-x="783" 
d="M253 294q-62 0 -103.5 13.5t-66.5 41t-35.5 69t-10.5 97.5q0 54 10 94.5t34.5 67.5t66 40.5t105.5 13.5h467v-164h-427q-34 0 -47.5 -15t-13.5 -50t13.5 -49.5t47.5 -14.5h236q62 0 103.5 -13t66 -40t35 -68t10.5 -96t-10 -96.5t-35 -69t-66 -41.5t-104 -14h-485v163h446
q33 0 47 15.5t14 51.5q0 38 -14.5 51t-46.5 13h-237z" />
    <glyph glyph-name="S" unicode="&#x405;" horiz-adv-x="783" 
d="M253 294q-62 0 -103.5 13.5t-66.5 41t-35.5 69t-10.5 97.5q0 54 10 94.5t34.5 67.5t66 40.5t105.5 13.5h467v-164h-427q-34 0 -47.5 -15t-13.5 -50t13.5 -49.5t47.5 -14.5h236q62 0 103.5 -13t66 -40t35 -68t10.5 -96t-10 -96.5t-35 -69t-66 -41.5t-104 -14h-485v163h446
q33 0 47 15.5t14 51.5q0 38 -14.5 51t-46.5 13h-237z" />
    <glyph glyph-name="T" unicode="T" horiz-adv-x="747" 
d="M276 573h-259v158h714v-158h-259v-573h-196v573z" />
    <glyph glyph-name="T" unicode="&#x422;" horiz-adv-x="747" 
d="M276 573h-259v158h714v-158h-259v-573h-196v573z" />
    <glyph glyph-name="T" unicode="&#x3a4;" horiz-adv-x="747" 
d="M276 573h-259v158h714v-158h-259v-573h-196v573z" />
    <glyph glyph-name="U" unicode="U" horiz-adv-x="844" 
d="M389 0q-87 0 -150 16.5t-103.5 52t-60 90t-19.5 130.5v442h195v-442q0 -35 7 -60t23 -41t43 -23t68 -7h66q39 0 66 7t43.5 23t23.5 41t7 60v442h191v-442q0 -76 -19.5 -130.5t-60 -90t-104 -52t-150.5 -16.5h-66z" />
    <glyph glyph-name="V" unicode="V" horiz-adv-x="946" 
d="M576 0h-212l-355 731h215l245 -534l250 534h218z" />
    <glyph glyph-name="W" unicode="W" horiz-adv-x="1201" 
d="M706 731l151 -482l139 482h194l-226 -731h-207l-154 514l-159 -514h-205l-228 731h203l137 -484l147 484h208z" />
    <glyph glyph-name="X" unicode="X" horiz-adv-x="805" 
d="M400 236l-177 -236h-212l280 380l-265 351h215l163 -216l164 216h212l-267 -360l281 -371h-215z" />
    <glyph glyph-name="X" unicode="&#x425;" horiz-adv-x="805" 
d="M400 236l-177 -236h-212l280 380l-265 351h215l163 -216l164 216h212l-267 -360l281 -371h-215z" />
    <glyph glyph-name="X" unicode="&#x3a7;" horiz-adv-x="805" 
d="M400 236l-177 -236h-212l280 380l-265 351h215l163 -216l164 216h212l-267 -360l281 -371h-215z" />
    <glyph glyph-name="Y" unicode="Y" horiz-adv-x="818" 
d="M505 320v-320h-196v322l-306 409h215l192 -256l193 256h212z" />
    <glyph glyph-name="Y" unicode="&#x4ae;" horiz-adv-x="818" 
d="M505 320v-320h-196v322l-306 409h215l192 -256l193 256h212z" />
    <glyph glyph-name="Y" unicode="&#x3a5;" horiz-adv-x="818" 
d="M505 320v-320h-196v322l-306 409h215l192 -256l193 256h212z" />
    <glyph glyph-name="Z" unicode="Z" horiz-adv-x="785" 
d="M472 573h-422v158h686v-144l-424 -429h424v-158h-686v153z" />
    <glyph glyph-name="Z" unicode="&#x396;" horiz-adv-x="785" 
d="M472 573h-422v158h686v-144l-424 -429h424v-158h-686v153z" />
    <glyph glyph-name="bracketleft" unicode="[" horiz-adv-x="423" 
d="M81 933h315v-106h-181v-932h181v-106h-315v1144z" />
    <glyph glyph-name="backslash" unicode="\" horiz-adv-x="555" 
d="M555 -111h-142l-413 944h142z" />
    <glyph glyph-name="bracketright" unicode="]" horiz-adv-x="423" 
d="M342 -211h-315v106h180v932h-180v106h315v-1144z" />
    <glyph glyph-name="asciicircum" unicode="^" horiz-adv-x="690" 
d="M409 731l248 -448h-151l-161 305l-161 -305h-151l249 448h127z" />
    <glyph glyph-name="underscore" unicode="_" horiz-adv-x="681" 
d="M-1 -11h685v-110h-685v110z" />
    <glyph glyph-name="grave" unicode="`" horiz-adv-x="319" 
d="M273 523h-133l-94 214h174z" />
    <glyph glyph-name="a" unicode="a" horiz-adv-x="655" 
d="M111 347v116h199q80 0 134.5 -11t87.5 -34t47 -58t14 -84v-276h-384q-48 0 -79.5 8.5t-50.5 26t-26.5 45.5t-7.5 67t7.5 64.5t26.5 41t50.5 22t79.5 6.5h223v4q0 16 -5 28t-19 19.5t-39 11t-66 3.5h-192zM432 106v86h-186q-26 0 -35.5 -9t-9.5 -32q0 -25 9.5 -35
t35.5 -10h186z" />
    <glyph glyph-name="a" unicode="&#x430;" horiz-adv-x="655" 
d="M111 347v116h199q80 0 134.5 -11t87.5 -34t47 -58t14 -84v-276h-384q-48 0 -79.5 8.5t-50.5 26t-26.5 45.5t-7.5 67t7.5 64.5t26.5 41t50.5 22t79.5 6.5h223v4q0 16 -5 28t-19 19.5t-39 11t-66 3.5h-192zM432 106v86h-186q-26 0 -35.5 -9t-9.5 -32q0 -25 9.5 -35
t35.5 -10h186z" />
    <glyph glyph-name="b" unicode="b" horiz-adv-x="704" 
d="M407 134q50 0 68 21.5t18 76.5t-18 76t-68 21h-163v-195h163zM244 731v-268h160q74 0 124 -12t80 -39t43 -71.5t13 -108.5q0 -65 -13 -109.5t-43 -71.5t-80 -39t-124 -12h-340v731h180z" />
    <glyph glyph-name="c" unicode="c" horiz-adv-x="580" 
d="M538 134v-134h-238q-74 0 -124 12t-80 39t-43 71.5t-13 109.5q0 64 13 108.5t43 71.5t80 39t124 12h238v-134h-241q-50 0 -68 -21t-18 -76t18 -76.5t68 -21.5h241z" />
    <glyph glyph-name="c" unicode="&#x441;" horiz-adv-x="580" 
d="M538 134v-134h-238q-74 0 -124 12t-80 39t-43 71.5t-13 109.5q0 64 13 108.5t43 71.5t80 39t124 12h238v-134h-241q-50 0 -68 -21t-18 -76t18 -76.5t68 -21.5h241z" />
    <glyph glyph-name="d" unicode="d" horiz-adv-x="704" 
d="M640 731v-731h-340q-74 0 -124 12t-80 39t-43 71.5t-13 109.5q0 64 13 108.5t43 71.5t80 39t124 12h160v268h180zM460 134v195h-163q-50 0 -68 -21t-18 -76q0 -28 4 -46.5t14 -30t26.5 -16.5t41.5 -5h163z" />
    <glyph glyph-name="e" unicode="e" horiz-adv-x="642" 
d="M533 117v-117h-210q-89 0 -144.5 13.5t-86 42t-41.5 73t-11 107.5q0 60 10.5 105t41 75t86.5 44.5t147 14.5q88 0 143 -13.5t86 -41t42.5 -69t11.5 -97.5v-59h-406q1 -23 7.5 -38t21.5 -24t39 -12.5t60 -3.5h203zM331 367q-36 0 -61 -3.5t-40 -12.5t-21.5 -24.5
t-6.5 -38.5v-6h249v6q0 23 -6 38.5t-20.5 24.5t-37.5 12.5t-56 3.5z" />
    <glyph glyph-name="e" unicode="&#x435;" horiz-adv-x="642" 
d="M533 117v-117h-210q-89 0 -144.5 13.5t-86 42t-41.5 73t-11 107.5q0 60 10.5 105t41 75t86.5 44.5t147 14.5q88 0 143 -13.5t86 -41t42.5 -69t11.5 -97.5v-59h-406q1 -23 7.5 -38t21.5 -24t39 -12.5t60 -3.5h203zM331 367q-36 0 -61 -3.5t-40 -12.5t-21.5 -24.5
t-6.5 -38.5v-6h249v6q0 23 -6 38.5t-20.5 24.5t-37.5 12.5t-56 3.5z" />
    <glyph glyph-name="f" unicode="f" horiz-adv-x="468" 
d="M25 463h86v88q0 51 13.5 85.5t44 55.5t79 30t119.5 9h68v-127h-60q-45 0 -65 -13t-20 -51v-77h155v-121h-155v-342h-179v342h-86v121z" />
    <glyph glyph-name="g" unicode="g" horiz-adv-x="704" 
d="M297 331q-50 0 -68.5 -22t-18.5 -78q0 -28 4 -47t14 -30.5t27 -16.5t42 -5h173v199h-173zM640 463v-489q0 -51 -13.5 -86t-45 -57t-82.5 -32t-125 -10h-167v127h168q51 0 73 14t22 46v31h-170q-74 0 -124 11.5t-80 38t-43 70t-13 107.5t13 108t43 71t80 38.5t124 11.5
h340z" />
    <glyph glyph-name="h" unicode="h" horiz-adv-x="726" 
d="M64 731h180v-268h154q74 0 125 -11t82.5 -33.5t45 -58t13.5 -83.5v-277h-180v255q0 34 -18 49t-68 15h-154v-319h-180v731z" />
    <glyph glyph-name="h" unicode="&#x4bb;" horiz-adv-x="726" 
d="M64 731h180v-268h154q74 0 125 -11t82.5 -33.5t45 -58t13.5 -83.5v-277h-180v255q0 34 -18 49t-68 15h-154v-319h-180v731z" />
    <glyph glyph-name="i" unicode="i" horiz-adv-x="308" 
d="M64 0zM64 463h180v-463h-180v463zM70 686h166v-146h-166v146z" />
    <glyph glyph-name="i" unicode="&#x456;" horiz-adv-x="308" 
d="M64 0zM64 463h180v-463h-180v463zM70 686h166v-146h-166v146z" />
    <glyph glyph-name="j" unicode="j" horiz-adv-x="337" 
d="M0 0zM0 -84q51 0 73 13.5t22 46.5v487h180v-489q0 -51 -13.5 -86t-45 -57t-82.5 -32t-125 -10h-70v127h61zM102 686h166v-146h-166v146z" />
    <glyph glyph-name="j" unicode="&#x458;" horiz-adv-x="337" 
d="M0 0zM0 -84q51 0 73 13.5t22 46.5v487h180v-489q0 -51 -13.5 -86t-45 -57t-82.5 -32t-125 -10h-70v127h61zM102 686h166v-146h-166v146z" />
    <glyph glyph-name="k" unicode="k" horiz-adv-x="657" 
d="M473 240l177 -240h-190l-146 187h-70v-187h-180v731h180v-453h70l149 185h182z" />
    <glyph glyph-name="l" unicode="l" horiz-adv-x="308" 
d="M64 731h180v-731h-180v731z" />
    <glyph glyph-name="m" unicode="m" horiz-adv-x="1027" 
d="M434 319h-194v-319h-176v463h639q74 0 124 -11t80.5 -33.5t43.5 -58t13 -83.5v-277h-176v255q0 34 -17.5 49t-67.5 15h-109v-319h-160v319z" />
    <glyph glyph-name="n" unicode="n" horiz-adv-x="726" 
d="M64 463h334q74 0 125 -11t82.5 -33.5t45 -58t13.5 -83.5v-277h-180v255q0 34 -18 49t-68 15h-154v-319h-180v463z" />
    <glyph glyph-name="o" unicode="o" horiz-adv-x="661" 
d="M330 343q-41 0 -65.5 -6t-38 -19t-18 -34.5t-4.5 -51.5t4.5 -51.5t18 -35t38 -19.5t65.5 -6q40 0 65 6t38.5 19.5t18 35t4.5 51.5t-4.5 51.5t-18 34.5t-38.5 19t-65 6zM330 -11q-90 0 -147 13.5t-88.5 43t-43 75.5t-11.5 111q0 64 11.5 110.5t43.5 75.5t88.5 43t146.5 14
q91 0 147.5 -14t88.5 -43t43.5 -75.5t11.5 -110.5q0 -65 -11.5 -111t-43.5 -75.5t-88.5 -43t-147.5 -13.5z" />
    <glyph glyph-name="o" unicode="&#x43e;" horiz-adv-x="661" 
d="M330 343q-41 0 -65.5 -6t-38 -19t-18 -34.5t-4.5 -51.5t4.5 -51.5t18 -35t38 -19.5t65.5 -6q40 0 65 6t38.5 19.5t18 35t4.5 51.5t-4.5 51.5t-18 34.5t-38.5 19t-65 6zM330 -11q-90 0 -147 13.5t-88.5 43t-43 75.5t-11.5 111q0 64 11.5 110.5t43.5 75.5t88.5 43t146.5 14
q91 0 147.5 -14t88.5 -43t43.5 -75.5t11.5 -110.5q0 -65 -11.5 -111t-43.5 -75.5t-88.5 -43t-147.5 -13.5z" />
    <glyph glyph-name="o" unicode="&#x3bf;" horiz-adv-x="661" 
d="M330 343q-41 0 -65.5 -6t-38 -19t-18 -34.5t-4.5 -51.5t4.5 -51.5t18 -35t38 -19.5t65.5 -6q40 0 65 6t38.5 19.5t18 35t4.5 51.5t-4.5 51.5t-18 34.5t-38.5 19t-65 6zM330 -11q-90 0 -147 13.5t-88.5 43t-43 75.5t-11.5 111q0 64 11.5 110.5t43.5 75.5t88.5 43t146.5 14
q91 0 147.5 -14t88.5 -43t43.5 -75.5t11.5 -110.5q0 -65 -11.5 -111t-43.5 -75.5t-88.5 -43t-147.5 -13.5z" />
    <glyph glyph-name="p" unicode="p" horiz-adv-x="704" 
d="M64 -211v674h340q74 0 124 -12t80 -39t43 -71.5t13 -109.5t-13 -109t-43 -71t-80 -39t-124 -12h-160v-211h-180zM244 329v-195h163q49 0 67.5 20.5t18.5 76.5t-18.5 77t-67.5 21h-163z" />
    <glyph glyph-name="p" unicode="&#x440;" horiz-adv-x="704" 
d="M64 -211v674h340q74 0 124 -12t80 -39t43 -71.5t13 -109.5t-13 -109t-43 -71t-80 -39t-124 -12h-160v-211h-180zM244 329v-195h163q49 0 67.5 20.5t18.5 76.5t-18.5 77t-67.5 21h-163z" />
    <glyph glyph-name="q" unicode="q" horiz-adv-x="704" 
d="M297 329q-25 0 -41.5 -5t-26.5 -16t-14 -30t-4 -47t4 -46.5t14 -30t26.5 -16t41.5 -4.5h163v195h-163zM460 -211v211h-160q-74 0 -124 12t-80 39t-43 71t-13 109t13 109.5t43 71.5t80 39t124 12h340v-674h-180z" />
    <glyph glyph-name="r" unicode="r" horiz-adv-x="416" 
d="M311 342q-38 0 -53.5 -10.5t-15.5 -34.5v-297h-180v306q0 43 12 73t38.5 48.5t69.5 27t106 8.5h107v-121h-84z" />
    <glyph glyph-name="s" unicode="s" horiz-adv-x="585" 
d="M194 187q-48 0 -79.5 8.5t-50 25.5t-26.5 43.5t-8 61.5q0 34 7.5 59.5t26 43t50.5 26t80 8.5h339v-111h-296q-23 0 -32.5 -7.5t-9.5 -27.5t9.5 -28.5t32.5 -8.5h150q48 0 79.5 -8.5t50 -26t26.5 -43.5t8 -61t-7.5 -61t-26 -44t-50.5 -27t-80 -9h-352v113h309
q23 0 32.5 8.5t9.5 28.5t-9 28.5t-33 8.5h-150z" />
    <glyph glyph-name="s" unicode="&#x455;" horiz-adv-x="585" 
d="M194 187q-48 0 -79.5 8.5t-50 25.5t-26.5 43.5t-8 61.5q0 34 7.5 59.5t26 43t50.5 26t80 8.5h339v-111h-296q-23 0 -32.5 -7.5t-9.5 -27.5t9.5 -28.5t32.5 -8.5h150q48 0 79.5 -8.5t50 -26t26.5 -43.5t8 -61t-7.5 -61t-26 -44t-50.5 -27t-80 -9h-352v113h309
q23 0 32.5 8.5t9.5 28.5t-9 28.5t-33 8.5h-150z" />
    <glyph glyph-name="t" unicode="t" horiz-adv-x="468" 
d="M25 463h86v164h179v-164h157v-121h-157v-170q0 -24 15.5 -34.5t53.5 -10.5h67v-127h-89q-63 0 -106 8.5t-70 27t-38.5 48.5t-11.5 73v185h-86v121z" />
    <glyph glyph-name="u" unicode="u" horiz-adv-x="720" 
d="M656 0h-328q-74 0 -125 11t-82.5 33.5t-45 58t-13.5 83.5v277h180v-255q0 -33 17 -48.5t69 -15.5h149v319h179v-463z" />
    <glyph glyph-name="v" unicode="v" horiz-adv-x="674" 
d="M434 0h-198l-227 463h184l142 -320l145 320h185z" />
    <glyph glyph-name="w" unicode="w" horiz-adv-x="880" 
d="M543 463l84 -291l83 291h157l-144 -463h-185l-97 312l-98 -312h-187l-143 463h165l82 -290l93 290h190z" />
    <glyph glyph-name="x" unicode="x" horiz-adv-x="660" 
d="M324 142l-128 -142h-191l224 241l-211 222h195l122 -129l126 129h190l-221 -228l225 -235h-195z" />
    <glyph glyph-name="x" unicode="&#x445;" horiz-adv-x="660" 
d="M324 142l-128 -142h-191l224 241l-211 222h195l122 -129l126 129h190l-221 -228l225 -235h-195z" />
    <glyph glyph-name="y" unicode="y" horiz-adv-x="684" 
d="M121 -84q27 0 47.5 3t37 10.5t30 21.5t25.5 37l-252 475h183l151 -309l151 309h181l-272 -525q-21 -40 -44 -68.5t-55 -46.5t-76 -26t-107 -8h-69v127h69z" />
    <glyph glyph-name="y" unicode="&#x443;" horiz-adv-x="684" 
d="M121 -84q27 0 47.5 3t37 10.5t30 21.5t25.5 37l-252 475h183l151 -309l151 309h181l-272 -525q-21 -40 -44 -68.5t-55 -46.5t-76 -26t-107 -8h-69v127h69z" />
    <glyph glyph-name="z" unicode="z" horiz-adv-x="591" 
d="M323 342h-277v121h499v-111l-276 -225h276v-127h-499v123z" />
    <glyph glyph-name="braceleft" unicode="{" horiz-adv-x="423" 
d="M158 163q0 54 -12.5 73t-49.5 19h-49v102h49q37 0 49.5 19.5t12.5 72.5v290q0 56 11.5 93.5t35.5 60t60 31.5t85 9h46v-106h-46q-31 0 -44 -19.5t-13 -74.5v-286q0 -43 -14 -80.5t-52 -60.5q38 -23 52 -60.5t14 -80.5v-286q0 -28 3 -46t10 -28.5t18 -15t26 -4.5h46v-106
h-46q-49 0 -85 9t-60 31.5t-35.5 60t-11.5 93.5v290z" />
    <glyph glyph-name="bar" unicode="|" horiz-adv-x="399" 
d="M132 933h135v-1144h-135v1144z" />
    <glyph glyph-name="braceright" unicode="}" horiz-adv-x="423" 
d="M264 449q0 -27 2.5 -45t9.5 -28.5t19 -14.5t31 -4h50v-102h-50q-19 0 -31 -4.5t-19 -15t-9.5 -28t-2.5 -44.5v-290q0 -56 -11.5 -93.5t-35 -60t-59.5 -31.5t-85 -9h-46v106h45q31 0 44.5 19.5t13.5 74.5v286q0 43 14 80.5t51 60.5q-37 23 -51 60.5t-14 80.5v286
q0 55 -13.5 74.5t-44.5 19.5h-45v106h46q49 0 85 -9t59.5 -31.5t35 -60t11.5 -93.5v-290z" />
    <glyph glyph-name="asciitilde" unicode="~" horiz-adv-x="690" 
d="M203 457q41 0 75 -9.5t67 -21t67 -21t76 -9.5q45 0 77.5 15.5t56.5 41.5v-129q-25 -26 -59 -40t-76 -14q-41 0 -75.5 9.5t-67 21.5t-67 21.5t-75.5 9.5q-38 0 -72 -13.5t-62 -43.5v128q25 26 59 40t76 14z" />
    <glyph glyph-name="exclamdown" unicode="&#xa1;" horiz-adv-x="323" 
d="M75 347v173h172v-173h-172zM61 -211l31 477h138l31 -477h-200z" />
    <glyph glyph-name="cent" unicode="&#xa2;" horiz-adv-x="783" 
d="M716 683v-154h-361q-33 0 -55.5 -7t-36.5 -25.5t-20 -50.5t-6 -82t6 -82t20 -50t36.5 -25t55.5 -7h361v-154h-203v-142h-134v142h-25q-72 0 -126.5 12.5t-91 47.5t-54.5 97t-18 161t18 161t54.5 97.5t91 48t126.5 12.5h25v142h134v-142h203z" />
    <glyph glyph-name="sterling" unicode="&#xa3;" horiz-adv-x="805" 
d="M54 436h90v69q0 55 9.5 97.5t34 71t66 43t105.5 14.5h195v-155h-160q-36 0 -49.5 -22.5t-13.5 -63.5v-54h422v-128h-422v-149h420v-159h-699v159h92v149h-90v128z" />
    <glyph glyph-name="currency" unicode="&#xa4;" horiz-adv-x="690" 
d="M351 138q-49 0 -86 4t-65 14l-82 -85l-47 48l69 71q-28 27 -37.5 68t-9.5 100q0 60 10 101.5t39 68.5l-71 73l47 48l84 -88q55 18 149 18q48 0 84.5 -4.5t64.5 -13.5l86 89l47 -48l-72 -74q29 -27 39 -68.5t10 -101.5q0 -59 -10 -100t-38 -68l71 -72l-47 -48l-84 86
q-28 -10 -65 -14t-86 -4zM351 504q-54 0 -87 -8t-50.5 -25t-23.5 -45t-6 -68t6 -68t23.5 -45t50.5 -25t87 -8t87 8t51 25t24 45t6 68t-6 68t-24 45t-51 25t-87 8z" />
    <glyph glyph-name="yen" unicode="&#xa5;" horiz-adv-x="818" 
d="M63 380h207l-267 351h212l195 -260l197 260h208l-268 -351h208v-93h-254v-94h254v-93h-254v-100h-187v100h-251v93h251v94h-251v93z" />
    <glyph glyph-name="brokenbar" unicode="&#xa6;" horiz-adv-x="399" 
d="M132 933h135v-474h-135v474zM132 263h135v-474h-135v474z" />
    <glyph glyph-name="section" unicode="&#xa7;" horiz-adv-x="752" 
d="M213 459h288q51 0 85.5 -7.5t56.5 -25t31.5 -45.5t9.5 -69v-356q0 -47 -9.5 -79t-31.5 -51.5t-56.5 -28t-85.5 -8.5h-433v125h412q33 0 46 11t13 38v98h-287q-51 0 -86 7.5t-56.5 24.5t-31.5 45.5t-10 69.5v356q0 47 10 79t31.5 51.5t56.5 28t86 8.5h432v-125h-412
q-32 0 -45.5 -11t-13.5 -38v-98zM213 351v-136q0 -26 13.5 -36t45.5 -10h267v136q0 26 -13.5 36t-45.5 10h-267z" />
    <glyph glyph-name="dieresis" unicode="&#xa8;" horiz-adv-x="539" 
d="M64 686h158v-146h-158v146zM317 686h157v-146h-157v146z" />
    <glyph glyph-name="copyright" unicode="&#xa9;" horiz-adv-x="854" 
d="M427 676q-100 0 -161 -16t-94 -52.5t-43.5 -96t-10.5 -146.5t11 -146.5t44 -96t93.5 -52.5t160.5 -16t160.5 16t93.5 52.5t44 96t11 146.5t-10.5 146.5t-43.5 96t-94 52.5t-161 16zM427 -15q-121 0 -197 20.5t-118.5 66t-58 117.5t-15.5 176q0 103 15.5 175.5t58 118
t118.5 66t197 20.5t197 -20.5t118.5 -66t58 -118t15.5 -175.5q0 -104 -15.5 -176t-58 -117.5t-118.5 -66t-197 -20.5zM571 195h-163q-39 0 -68 7t-48.5 26t-29 53.5t-9.5 88.5t9.5 88.5t29 53.5t48.5 26t68 7h163v-77h-162q-35 0 -49 -19.5t-14 -78.5q0 -30 3 -49t10.5 -30
t19.5 -15t30 -4h162v-77z" />
    <glyph glyph-name="ordfeminine" unicode="&#xaa;" horiz-adv-x="498" 
d="M94 639v92h145q58 0 97.5 -8.5t63.5 -27t34.5 -46.5t10.5 -67v-218h-279q-35 0 -58 7t-36.5 21.5t-19 36t-5.5 51.5t5.5 50t19 32t36.5 17.5t58 5.5h160q-2 29 -20.5 41.5t-71.5 12.5h-140zM327 449v70h-133q-19 0 -26 -7t-7 -26q0 -20 7 -28.5t26 -8.5h133z" />
    <glyph glyph-name="guillemotleft" unicode="&#xab;" horiz-adv-x="482" 
d="M7 0zM7 231l111 232h137l-111 -232l111 -231h-137zM228 231l111 232h137l-111 -232l111 -231h-137z" />
    <glyph glyph-name="logicalnot" unicode="&#xac;" horiz-adv-x="690" 
d="M68 519h554v-519h-134v385h-420v134z" />
    <glyph glyph-name="registered" unicode="&#xae;" horiz-adv-x="854" 
d="M427 -15q-121 0 -197 20.5t-118.5 66t-58 117.5t-15.5 176q0 103 15.5 175.5t58 118t118.5 66t197 20.5t197 -20.5t118.5 -66t58 -118t15.5 -175.5q0 -104 -15.5 -176t-58 -117.5t-118.5 -66t-197 -20.5zM427 676q-100 0 -161 -16t-94 -52.5t-43.5 -96t-10.5 -146.5
t11 -146.5t44 -96t93.5 -52.5t160.5 -16t160.5 16t93.5 52.5t44 96t11 146.5t-10.5 146.5t-43.5 96t-94 52.5t-161 16zM345 311v-116h-93v350h218q27 0 51 -4t42.5 -16t29.5 -33.5t11 -55.5q0 -30 -8.5 -50.5t-23.5 -32.5q17 -8 26 -23t9 -38v-97h-94v86q0 17 -6.5 23.5
t-29.5 6.5h-132zM514 425q0 26 -11.5 34.5t-28.5 8.5h-129v-87h129q17 0 28.5 8.5t11.5 35.5z" />
    <glyph glyph-name="macron" unicode="&#xaf;" horiz-adv-x="635" 
d="M50 667h535v-112h-535v112z" />
    <glyph glyph-name="degree" unicode="&#xb0;" horiz-adv-x="440" 
d="M220 677q-25 0 -40 -4t-23.5 -12t-11.5 -22t-3 -33q0 -20 3 -33.5t11.5 -21.5t23.5 -12t40 -4q24 0 39.5 4t23.5 12t11 21.5t3 33.5q0 19 -3 33t-11 22t-23.5 12t-39.5 4zM220 451q-57 0 -92.5 8.5t-55.5 27.5t-27 48.5t-7 70.5t7 70.5t27 48t55.5 27.5t92.5 9t92.5 -9
t55.5 -27.5t27 -48t7 -70.5t-7 -70.5t-27 -48.5t-55.5 -27.5t-92.5 -8.5z" />
    <glyph glyph-name="plusminus" unicode="&#xb1;" horiz-adv-x="690" 
d="M68 0zM68 538h210v219h134v-219h210v-134h-210v-218h-134v218h-210v134zM68 134h554v-134h-554v134z" />
    <glyph glyph-name="twosuperior" unicode="&#xb2;" horiz-adv-x="474" 
d="M42 329zM320 731q54 0 87.5 -27t33.5 -86q0 -46 -23.5 -73.5t-72.5 -53.5l-121 -64h215v-98h-395v99l241 137q15 10 21 18t6 19q0 28 -32 28h-238v101h278z" />
    <glyph glyph-name="threesuperior" unicode="&#xb3;" horiz-adv-x="478" 
d="M54 329zM284 427q18 0 29 7t11 27t-10 27.5t-30 7.5h-228v75h226q19 0 29 6.5t10 26.5q0 19 -11 26t-28 7h-227v94h229q33 0 60 -4.5t47 -16.5t31 -34t11 -56q0 -59 -33 -84q20 -11 31 -32.5t11 -57.5q0 -37 -12 -60t-33 -35.5t-50 -17t-63 -4.5h-230v98h230z" />
    <glyph glyph-name="acute" unicode="&#xb4;" horiz-adv-x="319" 
d="M98 737h174l-95 -214h-133z" />
    <glyph glyph-name="paragraph" unicode="&#xb6;" horiz-adv-x="890" 
d="M822 731v-943h-145v818h-157v-818h-145v412h-131q-51 0 -86 7.5t-56.5 24.5t-31.5 45.5t-10 69.5v217q0 47 10 79t31.5 51.5t56.5 28t86 8.5h578zM205 354q0 -26 14 -36t46 -10h110v298h-110q-32 0 -46 -10.5t-14 -38.5v-203z" />
    <glyph glyph-name="periodcentered" unicode="&#xb7;" horiz-adv-x="299" 
d="M63 268zM235 441v-173h-172v173h172z" />
    <glyph glyph-name="cedilla" unicode="&#xb8;" horiz-adv-x="305" 
d="M245 -37l-46 -202h-125l4 202h167z" />
    <glyph glyph-name="onesuperior" unicode="&#xb9;" horiz-adv-x="277" 
d="M17 329zM92 329v304h-75v98h192v-402h-117z" />
    <glyph glyph-name="ordmasculine" unicode="&#xba;" horiz-adv-x="501" 
d="M251 636q-29 0 -47 -4.5t-27.5 -15t-13 -27.5t-3.5 -41q0 -25 3.5 -42t13 -27.5t27.5 -15.5t47 -5t46.5 5t27.5 15.5t13 27.5t3 42q0 24 -3.5 41t-13 27.5t-27.5 15t-46 4.5zM251 356q-66 0 -107 10.5t-64 34t-31.5 60t-8.5 87.5t8.5 87.5t31.5 59.5t64 34t107 11
q65 0 106 -11t64 -34t31.5 -59.5t8.5 -87.5t-8.5 -87.5t-31.5 -60t-64 -34t-106 -10.5z" />
    <glyph glyph-name="guillemotright" unicode="&#xbb;" horiz-adv-x="482" 
d="M7 0zM255 232l-111 -232h-137l111 232l-111 231h137zM476 232l-111 -232h-137l111 232l-111 231h137z" />
    <glyph glyph-name="onequarter" unicode="&#xbc;" horiz-adv-x="910" 
d="M38 0zM113 329v304h-75v98h192v-402h-117zM534 731h143l-458 -731h-143zM691 0v87h-261v79l223 236h153v-225h66v-90h-66v-87h-115zM691 177v125l-119 -125h119z" />
    <glyph glyph-name="onehalf" unicode="&#xbd;" horiz-adv-x="937" 
d="M38 0zM113 329v304h-75v98h192v-402h-117zM534 731h143l-458 -731h-143zM778 402q54 0 87.5 -27t33.5 -86q0 -46 -23.5 -73.5t-72.5 -53.5l-121 -64h215v-98h-395v99l241 137q15 10 21 18t6 19q0 28 -32 28h-238v101h278z" />
    <glyph glyph-name="threequarters" unicode="&#xbe;" horiz-adv-x="1060" 
d="M38 0zM268 427q18 0 29 7t11 27t-10 27.5t-30 7.5h-228v75h226q19 0 29 6.5t10 26.5q0 19 -11 26t-28 7h-227v94h229q33 0 60 -4.5t47 -16.5t31 -34t11 -56q0 -59 -33 -84q20 -11 31 -32.5t11 -57.5q0 -37 -12 -60t-33 -35.5t-50 -17t-63 -4.5h-230v98h230zM683 731h143
l-458 -731h-143zM841 0v87h-261v79l223 236h153v-225h66v-90h-66v-87h-115zM841 177v125l-119 -125h119z" />
    <glyph glyph-name="questiondown" unicode="&#xbf;" horiz-adv-x="601" 
d="M298 347v173h172v-173h-172zM271 157q23 0 32.5 8.5t9.5 31.5v69h143v-93q0 -60 -30.5 -94t-102.5 -34h-77q-28 0 -39 -14t-11 -50q0 -37 11.5 -51t38.5 -14h338v-127h-381q-51 0 -84.5 11.5t-53 34.5t-27.5 57.5t-8 80.5q0 47 8 82t28 57.5t53.5 33.5t83.5 11h68z" />
    <glyph glyph-name="Agrave" unicode="&#xc0;" horiz-adv-x="946" 
d="M9 0zM367 731h212l358 -731h-198l-67 142h-392l-67 -142h-204zM350 291h251l-126 266zM569 771h-133l-119 190h174z" />
    <glyph glyph-name="Aacute" unicode="&#xc1;" horiz-adv-x="946" 
d="M9 0zM367 731h212l358 -731h-198l-67 142h-392l-67 -142h-204zM350 291h251l-126 266zM456 961h173l-119 -190h-133z" />
    <glyph glyph-name="Acircumflex" unicode="&#xc2;" horiz-adv-x="946" 
d="M9 0zM367 731h212l358 -731h-198l-67 142h-392l-67 -142h-204zM350 291h251l-126 266zM405 961h136l168 -190h-131l-105 98l-104 -98h-131z" />
    <glyph glyph-name="Atilde" unicode="&#xc3;" horiz-adv-x="946" 
d="M9 0zM367 731h212l358 -731h-198l-67 142h-392l-67 -142h-204zM350 291h251l-126 266zM694 894q0 -59 -22 -85t-71 -26q-31 0 -58 8.5t-51 19t-45.5 19.5t-39.5 9q-19 0 -31.5 -5.5t-12.5 -32.5v-16h-110v44q0 57 21.5 84t72.5 27q31 0 58.5 -9t51.5 -19.5t44.5 -19.5
t38.5 -9q19 0 31.5 6.5t12.5 32.5v15h110v-43z" />
    <glyph glyph-name="Adieresis" unicode="&#xc4;" horiz-adv-x="946" 
d="M9 0zM367 731h212l358 -731h-198l-67 142h-392l-67 -142h-204zM350 291h251l-126 266zM268 939h158v-147h-158v147zM521 939h157v-147h-157v147z" />
    <glyph glyph-name="Aring" unicode="&#xc5;" horiz-adv-x="946" 
d="M9 0zM367 731h212l358 -731h-198l-67 142h-392l-67 -142h-204zM350 291h251l-126 266zM473 897q-35 0 -45 -9.5t-10 -34.5q0 -24 10 -33.5t45 -9.5t45 9.5t10 33.5q0 25 -10 34.5t-45 9.5zM473 746q-42 0 -68.5 6t-41 19t-20 33.5t-5.5 48.5t5.5 48.5t20 34t41 19.5
t68.5 6t68.5 -6t41.5 -19.5t20.5 -34t5.5 -48.5t-5.5 -48.5t-20.5 -33.5t-41.5 -19t-68.5 -6z" />
    <glyph glyph-name="AE" unicode="&#xc6;" horiz-adv-x="1296" 
d="M1241 731v-158h-465v-137h463v-141h-463v-137h467v-158h-657v142h-306l-67 -142h-204l358 731h874zM483 573l-133 -282h236v282h-103z" />
    <glyph glyph-name="Ccedilla" unicode="&#xc7;" horiz-adv-x="748" 
d="M38 0zM703 0h-341q-81 0 -142 14.5t-101.5 54.5t-60.5 111t-20 185t20 185t60.5 111.5t101.5 55t142 14.5h341v-161h-340q-37 0 -62 -8.5t-40.5 -31.5t-22.5 -63t-7 -102t7 -102t22.5 -62.5t41 -31t61.5 -8.5h340v-161zM505 -37l-46 -202h-125l4 202h167z" />
    <glyph glyph-name="Egrave" unicode="&#xc8;" horiz-adv-x="799" 
d="M68 0zM741 295h-477v-137h481v-158h-677v731h675v-158h-479v-137h477v-141zM505 771h-133l-119 190h174z" />
    <glyph glyph-name="Egrave" unicode="&#x400;" horiz-adv-x="799" 
d="M68 0zM741 295h-477v-137h481v-158h-677v731h675v-158h-479v-137h477v-141zM505 771h-133l-119 190h174z" />
    <glyph glyph-name="Eacute" unicode="&#xc9;" horiz-adv-x="799" 
d="M68 0zM741 295h-477v-137h481v-158h-677v731h675v-158h-479v-137h477v-141zM392 961h173l-119 -190h-133z" />
    <glyph glyph-name="Ecircumflex" unicode="&#xca;" horiz-adv-x="799" 
d="M68 0zM741 295h-477v-137h481v-158h-677v731h675v-158h-479v-137h477v-141zM340 961h136l168 -190h-131l-105 98l-104 -98h-131z" />
    <glyph glyph-name="Edieresis" unicode="&#xcb;" horiz-adv-x="799" 
d="M68 0zM741 295h-477v-137h481v-158h-677v731h675v-158h-479v-137h477v-141zM204 939h158v-147h-158v147zM457 939h157v-147h-157v147z" />
    <glyph glyph-name="Edieresis" unicode="&#x401;" horiz-adv-x="799" 
d="M68 0zM741 295h-477v-137h481v-158h-677v731h675v-158h-479v-137h477v-141zM204 939h158v-147h-158v147zM457 939h157v-147h-157v147z" />
    <glyph glyph-name="Igrave" unicode="&#xcc;" horiz-adv-x="332" 
d="M10 0zM264 731v-731h-196v731h196zM262 771h-133l-119 190h174z" />
    <glyph glyph-name="Iacute" unicode="&#xcd;" horiz-adv-x="332" 
d="M68 0zM264 731v-731h-196v731h196zM149 961h173l-119 -190h-133z" />
    <glyph glyph-name="Icircumflex" unicode="&#xce;" horiz-adv-x="420" 
d="M0 0zM308 731v-731h-196v731h196zM142 961h136l168 -190h-131l-105 98l-104 -98h-131z" />
    <glyph glyph-name="Idieresis" unicode="&#xcf;" horiz-adv-x="410" 
d="M0 0zM303 731v-731h-196v731h196zM0 939h158v-147h-158v147zM253 939h157v-147h-157v147z" />
    <glyph glyph-name="Idieresis" unicode="&#x407;" horiz-adv-x="410" 
d="M0 0zM303 731v-731h-196v731h196zM0 939h158v-147h-158v147zM253 939h157v-147h-157v147z" />
    <glyph glyph-name="Idieresis" unicode="&#x3aa;" horiz-adv-x="410" 
d="M0 0zM303 731v-731h-196v731h196zM0 939h158v-147h-158v147zM253 939h157v-147h-157v147z" />
    <glyph glyph-name="Eth" unicode="&#xd0;" horiz-adv-x="875" 
d="M85 295h-83v141h83v295h427q81 0 142 -14.5t101.5 -55t60.5 -111.5t20 -185t-20 -185t-60.5 -111t-101.5 -54.5t-142 -14.5h-427v295zM443 295h-162v-134h231q37 0 62 9t40.5 31.5t22.5 62t7 101.5t-7 102t-22.5 63t-41 31.5t-61.5 8.5h-231v-134h162v-141z" />
    <glyph glyph-name="Eth" unicode="&#x110;" horiz-adv-x="875" 
d="M85 295h-83v141h83v295h427q81 0 142 -14.5t101.5 -55t60.5 -111.5t20 -185t-20 -185t-60.5 -111t-101.5 -54.5t-142 -14.5h-427v295zM443 295h-162v-134h231q37 0 62 9t40.5 31.5t22.5 62t7 101.5t-7 102t-22.5 63t-41 31.5t-61.5 8.5h-231v-134h162v-141z" />
    <glyph glyph-name="Ntilde" unicode="&#xd1;" horiz-adv-x="912" 
d="M68 0zM663 213v518h181v-731h-238l-356 500v-500h-182v731h232zM678 894q0 -59 -22 -85t-71 -26q-31 0 -58 8.5t-51 19t-45.5 19.5t-39.5 9q-19 0 -31.5 -5.5t-12.5 -32.5v-16h-110v44q0 57 21.5 84t72.5 27q31 0 58.5 -9t51.5 -19.5t44.5 -19.5t38.5 -9q19 0 31.5 6.5
t12.5 32.5v15h110v-43z" />
    <glyph glyph-name="Ograve" unicode="&#xd2;" horiz-adv-x="854" 
d="M38 0zM427 583q-63 0 -101.5 -11t-59.5 -36.5t-28 -67.5t-7 -103t7 -103t28 -67.5t59.5 -36.5t101.5 -11t101.5 11t59.5 36.5t28 67.5t7 103t-7 103t-28 67.5t-59.5 36.5t-101.5 11zM427 -15q-121 0 -197 20.5t-118.5 66t-58 117.5t-15.5 176q0 103 15.5 175.5t58 118
t118.5 66t197 20.5t197 -20.5t118.5 -66t58 -118t15.5 -175.5q0 -104 -15.5 -176t-58 -117.5t-118.5 -66t-197 -20.5zM523 771h-133l-119 190h174z" />
    <glyph glyph-name="Oacute" unicode="&#xd3;" horiz-adv-x="854" 
d="M38 0zM427 583q-63 0 -101.5 -11t-59.5 -36.5t-28 -67.5t-7 -103t7 -103t28 -67.5t59.5 -36.5t101.5 -11t101.5 11t59.5 36.5t28 67.5t7 103t-7 103t-28 67.5t-59.5 36.5t-101.5 11zM427 -15q-121 0 -197 20.5t-118.5 66t-58 117.5t-15.5 176q0 103 15.5 175.5t58 118
t118.5 66t197 20.5t197 -20.5t118.5 -66t58 -118t15.5 -175.5q0 -104 -15.5 -176t-58 -117.5t-118.5 -66t-197 -20.5zM409 961h173l-119 -190h-133z" />
    <glyph glyph-name="Ocircumflex" unicode="&#xd4;" horiz-adv-x="854" 
d="M38 0zM427 583q-63 0 -101.5 -11t-59.5 -36.5t-28 -67.5t-7 -103t7 -103t28 -67.5t59.5 -36.5t101.5 -11t101.5 11t59.5 36.5t28 67.5t7 103t-7 103t-28 67.5t-59.5 36.5t-101.5 11zM427 -15q-121 0 -197 20.5t-118.5 66t-58 117.5t-15.5 176q0 103 15.5 175.5t58 118
t118.5 66t197 20.5t197 -20.5t118.5 -66t58 -118t15.5 -175.5q0 -104 -15.5 -176t-58 -117.5t-118.5 -66t-197 -20.5zM359 961h136l168 -190h-131l-105 98l-104 -98h-131z" />
    <glyph glyph-name="Otilde" unicode="&#xd5;" horiz-adv-x="854" 
d="M38 0zM427 583q-63 0 -101.5 -11t-59.5 -36.5t-28 -67.5t-7 -103t7 -103t28 -67.5t59.5 -36.5t101.5 -11t101.5 11t59.5 36.5t28 67.5t7 103t-7 103t-28 67.5t-59.5 36.5t-101.5 11zM427 -15q-121 0 -197 20.5t-118.5 66t-58 117.5t-15.5 176q0 103 15.5 175.5t58 118
t118.5 66t197 20.5t197 -20.5t118.5 -66t58 -118t15.5 -175.5q0 -104 -15.5 -176t-58 -117.5t-118.5 -66t-197 -20.5zM647 894q0 -59 -22 -85t-71 -26q-31 0 -58 8.5t-51 19t-45.5 19.5t-39.5 9q-19 0 -31.5 -5.5t-12.5 -32.5v-16h-110v44q0 57 21.5 84t72.5 27
q31 0 58.5 -9t51.5 -19.5t44.5 -19.5t38.5 -9q19 0 31.5 6.5t12.5 32.5v15h110v-43z" />
    <glyph glyph-name="Odieresis" unicode="&#xd6;" horiz-adv-x="854" 
d="M38 0zM427 583q-63 0 -101.5 -11t-59.5 -36.5t-28 -67.5t-7 -103t7 -103t28 -67.5t59.5 -36.5t101.5 -11t101.5 11t59.5 36.5t28 67.5t7 103t-7 103t-28 67.5t-59.5 36.5t-101.5 11zM427 -15q-121 0 -197 20.5t-118.5 66t-58 117.5t-15.5 176q0 103 15.5 175.5t58 118
t118.5 66t197 20.5t197 -20.5t118.5 -66t58 -118t15.5 -175.5q0 -104 -15.5 -176t-58 -117.5t-118.5 -66t-197 -20.5zM222 939h158v-147h-158v147zM475 939h157v-147h-157v147z" />
    <glyph glyph-name="multiply" unicode="&#xd7;" horiz-adv-x="690" 
d="M176 629l169 -169l169 170l95 -96l-170 -169l170 -169l-96 -95l-168 169l-169 -169l-95 96l169 168l-170 169z" />
    <glyph glyph-name="Oslash" unicode="&#xd8;" horiz-adv-x="854" 
d="M427 -15q-125 0 -201 22l-77 -107h-111l104 145q-31 21 -51 51.5t-32 70t-16.5 89t-4.5 109.5q0 103 15.5 175.5t58 118t118.5 66t197 20.5q125 0 201 -22l78 108h110l-104 -146q30 -22 50 -52t32 -69.5t17 -89t5 -109.5q0 -104 -15.5 -176t-58 -117.5t-118.5 -66
t-197 -20.5zM427 583q-63 0 -101.5 -11t-59.5 -36.5t-28 -67.5t-7 -103q0 -58 6 -98t23 -66l256 374q-38 8 -89 8zM623 365q0 57 -6 97t-24 66l-255 -373q18 -5 40 -6.5t49 -1.5q63 0 101.5 11t59.5 36.5t28 67.5t7 103z" />
    <glyph glyph-name="Ugrave" unicode="&#xd9;" horiz-adv-x="844" 
d="M56 0zM389 0q-87 0 -150 16.5t-103.5 52t-60 90t-19.5 130.5v442h195v-442q0 -35 7 -60t23 -41t43 -23t68 -7h66q39 0 66 7t43.5 23t23.5 41t7 60v442h191v-442q0 -76 -19.5 -130.5t-60 -90t-104 -52t-150.5 -16.5h-66zM517 771h-133l-119 190h174z" />
    <glyph glyph-name="Uacute" unicode="&#xda;" horiz-adv-x="844" 
d="M56 0zM389 0q-87 0 -150 16.5t-103.5 52t-60 90t-19.5 130.5v442h195v-442q0 -35 7 -60t23 -41t43 -23t68 -7h66q39 0 66 7t43.5 23t23.5 41t7 60v442h191v-442q0 -76 -19.5 -130.5t-60 -90t-104 -52t-150.5 -16.5h-66zM404 961h173l-119 -190h-133z" />
    <glyph glyph-name="Ucircumflex" unicode="&#xdb;" horiz-adv-x="844" 
d="M56 0zM389 0q-87 0 -150 16.5t-103.5 52t-60 90t-19.5 130.5v442h195v-442q0 -35 7 -60t23 -41t43 -23t68 -7h66q39 0 66 7t43.5 23t23.5 41t7 60v442h191v-442q0 -76 -19.5 -130.5t-60 -90t-104 -52t-150.5 -16.5h-66zM354 961h136l168 -190h-131l-105 98l-104 -98h-131
z" />
    <glyph glyph-name="Udieresis" unicode="&#xdc;" horiz-adv-x="844" 
d="M56 0zM389 0q-87 0 -150 16.5t-103.5 52t-60 90t-19.5 130.5v442h195v-442q0 -35 7 -60t23 -41t43 -23t68 -7h66q39 0 66 7t43.5 23t23.5 41t7 60v442h191v-442q0 -76 -19.5 -130.5t-60 -90t-104 -52t-150.5 -16.5h-66zM216 939h158v-147h-158v147zM469 939h157v-147
h-157v147z" />
    <glyph glyph-name="Yacute" unicode="&#xdd;" horiz-adv-x="818" 
d="M3 0zM505 320v-320h-196v322l-306 409h215l192 -256l193 256h212zM391 961h173l-119 -190h-133z" />
    <glyph glyph-name="Thorn" unicode="&#xde;" horiz-adv-x="839" 
d="M68 731h196v-116h252q54 0 105.5 -9t91.5 -35.5t64 -75.5t24 -128q0 -80 -24 -128.5t-64 -75t-91.5 -35.5t-105.5 -9h-252v-119h-196v731zM608 367q0 29 -7 47t-19 28.5t-27.5 14t-32.5 3.5h-258v-186h258q17 0 32.5 3.5t27.5 14t19 28.5t7 47z" />
    <glyph glyph-name="germandbls" unicode="&#xdf;" horiz-adv-x="807" 
d="M344 127h159q45 0 65 12t20 46v74q0 34 -16.5 46.5t-48.5 12.5h-30q-100 0 -100 94v136q0 32 -16.5 44t-48.5 12h-19q-33 0 -49 -12t-16 -44v-548h-180v560q0 48 13 80.5t40 53t69.5 29t101.5 8.5h53q99 0 150 -37.5t51 -133.5v-98q0 -18 7.5 -24.5t25.5 -6.5h20
q39 0 70.5 -9t54 -29t35 -53.5t12.5 -82.5v-83q0 -49 -13.5 -82.5t-44 -53.5t-79.5 -29t-119 -9h-167v127z" />
    <glyph glyph-name="agrave" unicode="&#xe0;" horiz-adv-x="655" 
d="M45 0zM111 347v116h199q80 0 134.5 -11t87.5 -34t47 -58t14 -84v-276h-384q-48 0 -79.5 8.5t-50.5 26t-26.5 45.5t-7.5 67t7.5 64.5t26.5 41t50.5 22t79.5 6.5h223v4q0 16 -5 28t-19 19.5t-39 11t-66 3.5h-192zM432 106v86h-186q-26 0 -35.5 -9t-9.5 -32q0 -25 9.5 -35
t35.5 -10h186zM412 523h-133l-94 214h174z" />
    <glyph glyph-name="aacute" unicode="&#xe1;" horiz-adv-x="655" 
d="M45 0zM111 347v116h199q80 0 134.5 -11t87.5 -34t47 -58t14 -84v-276h-384q-48 0 -79.5 8.5t-50.5 26t-26.5 45.5t-7.5 67t7.5 64.5t26.5 41t50.5 22t79.5 6.5h223v4q0 16 -5 28t-19 19.5t-39 11t-66 3.5h-192zM432 106v86h-186q-26 0 -35.5 -9t-9.5 -32q0 -25 9.5 -35
t35.5 -10h186zM298 737h174l-95 -214h-133z" />
    <glyph glyph-name="acircumflex" unicode="&#xe2;" horiz-adv-x="655" 
d="M45 0zM111 347v116h199q80 0 134.5 -11t87.5 -34t47 -58t14 -84v-276h-384q-48 0 -79.5 8.5t-50.5 26t-26.5 45.5t-7.5 67t7.5 64.5t26.5 41t50.5 22t79.5 6.5h223v4q0 16 -5 28t-19 19.5t-39 11t-66 3.5h-192zM432 106v86h-186q-26 0 -35.5 -9t-9.5 -32q0 -25 9.5 -35
t35.5 -10h186zM258 737h140l172 -214h-135l-108 111l-107 -111h-134z" />
    <glyph glyph-name="atilde" unicode="&#xe3;" horiz-adv-x="655" 
d="M45 0zM111 347v116h199q80 0 134.5 -11t87.5 -34t47 -58t14 -84v-276h-384q-48 0 -79.5 8.5t-50.5 26t-26.5 45.5t-7.5 67t7.5 64.5t26.5 41t50.5 22t79.5 6.5h223v4q0 16 -5 28t-19 19.5t-39 11t-66 3.5h-192zM432 106v86h-186q-26 0 -35.5 -9t-9.5 -32q0 -25 9.5 -35
t35.5 -10h186zM549 653q0 -58 -22 -84.5t-72 -26.5q-31 0 -58 8.5t-51 19t-45 19.5t-39 9t-31 -5t-13 -33v-15h-111v43q0 57 22 84t73 27q31 0 58.5 -9t51.5 -19.5t44.5 -19t37.5 -8.5q21 0 32.5 7t11.5 31v15h111v-43z" />
    <glyph glyph-name="adieresis" unicode="&#xe4;" horiz-adv-x="655" 
d="M45 0zM111 347v116h199q80 0 134.5 -11t87.5 -34t47 -58t14 -84v-276h-384q-48 0 -79.5 8.5t-50.5 26t-26.5 45.5t-7.5 67t7.5 64.5t26.5 41t50.5 22t79.5 6.5h223v4q0 16 -5 28t-19 19.5t-39 11t-66 3.5h-192zM432 106v86h-186q-26 0 -35.5 -9t-9.5 -32q0 -25 9.5 -35
t35.5 -10h186zM122 686h158v-146h-158v146zM375 686h157v-146h-157v146z" />
    <glyph glyph-name="aring" unicode="&#xe5;" horiz-adv-x="655" 
d="M45 0zM111 347v116h199q80 0 134.5 -11t87.5 -34t47 -58t14 -84v-276h-384q-48 0 -79.5 8.5t-50.5 26t-26.5 45.5t-7.5 67t7.5 64.5t26.5 41t50.5 22t79.5 6.5h223v4q0 16 -5 28t-19 19.5t-39 11t-66 3.5h-192zM432 106v86h-186q-26 0 -35.5 -9t-9.5 -32q0 -25 9.5 -35
t35.5 -10h186zM328 686q-35 0 -45 -12t-10 -41t10 -41t45 -12t45 12t10 41t-10 41t-45 12zM328 506q-42 0 -68.5 7t-41.5 22.5t-20 39.5t-5 58t5 58t20 39.5t41.5 22.5t68.5 7t68.5 -7t41 -22.5t20 -39.5t5.5 -58t-5.5 -58t-20 -39.5t-41 -22.5t-68.5 -7z" />
    <glyph glyph-name="ae" unicode="&#xe6;" horiz-adv-x="1036" 
d="M929 117v-117h-720q-48 0 -79.5 8.5t-50.5 26t-26.5 45.5t-7.5 67t7.5 64.5t26.5 41t50.5 22t79.5 6.5h223v4q0 16 -5 28t-19 19.5t-39 11t-66 3.5h-192v116h199q132 0 197 -31q32 22 84 32.5t130 10.5q88 0 143 -13.5t86 -41t42.5 -69t11.5 -97.5v-59h-406
q1 -23 7.5 -38t21.5 -24t39 -12.5t60 -3.5h203zM454 106q-14 37 -17 86h-191q-26 0 -35.5 -9t-9.5 -32q0 -25 9.5 -35t35.5 -10h208zM727 367q-36 0 -61 -3.5t-40 -12.5t-21.5 -24.5t-6.5 -38.5v-6h249v6q0 23 -6 38.5t-20.5 24.5t-37.5 12.5t-56 3.5z" />
    <glyph glyph-name="ccedilla" unicode="&#xe7;" horiz-adv-x="580" 
d="M40 0zM538 134v-134h-238q-74 0 -124 12t-80 39t-43 71.5t-13 109.5q0 64 13 108.5t43 71.5t80 39t124 12h238v-134h-241q-50 0 -68 -21t-18 -76t18 -76.5t68 -21.5h241zM396 -37l-46 -202h-125l4 202h167z" />
    <glyph glyph-name="egrave" unicode="&#xe8;" horiz-adv-x="640" 
d="M40 0zM533 117v-117h-210q-89 0 -144.5 13.5t-86 42t-41.5 73t-11 107.5q0 60 10.5 105t41 75t86.5 44.5t147 14.5q88 0 143 -13.5t86 -41t42.5 -69t11.5 -97.5v-59h-406q1 -23 7.5 -38t21.5 -24t39 -12.5t60 -3.5h203zM331 367q-36 0 -61 -3.5t-40 -12.5t-21.5 -24.5
t-6.5 -38.5v-6h249v6q0 23 -6 38.5t-20.5 24.5t-37.5 12.5t-56 3.5zM405 523h-133l-94 214h174z" />
    <glyph glyph-name="egrave" unicode="&#x450;" horiz-adv-x="640" 
d="M40 0zM533 117v-117h-210q-89 0 -144.5 13.5t-86 42t-41.5 73t-11 107.5q0 60 10.5 105t41 75t86.5 44.5t147 14.5q88 0 143 -13.5t86 -41t42.5 -69t11.5 -97.5v-59h-406q1 -23 7.5 -38t21.5 -24t39 -12.5t60 -3.5h203zM331 367q-36 0 -61 -3.5t-40 -12.5t-21.5 -24.5
t-6.5 -38.5v-6h249v6q0 23 -6 38.5t-20.5 24.5t-37.5 12.5t-56 3.5zM405 523h-133l-94 214h174z" />
    <glyph glyph-name="eacute" unicode="&#xe9;" horiz-adv-x="640" 
d="M40 0zM533 117v-117h-210q-89 0 -144.5 13.5t-86 42t-41.5 73t-11 107.5q0 60 10.5 105t41 75t86.5 44.5t147 14.5q88 0 143 -13.5t86 -41t42.5 -69t11.5 -97.5v-59h-406q1 -23 7.5 -38t21.5 -24t39 -12.5t60 -3.5h203zM331 367q-36 0 -61 -3.5t-40 -12.5t-21.5 -24.5
t-6.5 -38.5v-6h249v6q0 23 -6 38.5t-20.5 24.5t-37.5 12.5t-56 3.5zM291 737h174l-95 -214h-133z" />
    <glyph glyph-name="ecircumflex" unicode="&#xea;" horiz-adv-x="640" 
d="M40 0zM533 117v-117h-210q-89 0 -144.5 13.5t-86 42t-41.5 73t-11 107.5q0 60 10.5 105t41 75t86.5 44.5t147 14.5q88 0 143 -13.5t86 -41t42.5 -69t11.5 -97.5v-59h-406q1 -23 7.5 -38t21.5 -24t39 -12.5t60 -3.5h203zM331 367q-36 0 -61 -3.5t-40 -12.5t-21.5 -24.5
t-6.5 -38.5v-6h249v6q0 23 -6 38.5t-20.5 24.5t-37.5 12.5t-56 3.5zM251 737h140l172 -214h-135l-108 111l-107 -111h-134z" />
    <glyph glyph-name="edieresis" unicode="&#xeb;" horiz-adv-x="640" 
d="M40 0zM533 117v-117h-210q-89 0 -144.5 13.5t-86 42t-41.5 73t-11 107.5q0 60 10.5 105t41 75t86.5 44.5t147 14.5q88 0 143 -13.5t86 -41t42.5 -69t11.5 -97.5v-59h-406q1 -23 7.5 -38t21.5 -24t39 -12.5t60 -3.5h203zM331 367q-36 0 -61 -3.5t-40 -12.5t-21.5 -24.5
t-6.5 -38.5v-6h249v6q0 23 -6 38.5t-20.5 24.5t-37.5 12.5t-56 3.5zM115 686h158v-146h-158v146zM368 686h157v-146h-157v146z" />
    <glyph glyph-name="edieresis" unicode="&#x451;" horiz-adv-x="640" 
d="M40 0zM533 117v-117h-210q-89 0 -144.5 13.5t-86 42t-41.5 73t-11 107.5q0 60 10.5 105t41 75t86.5 44.5t147 14.5q88 0 143 -13.5t86 -41t42.5 -69t11.5 -97.5v-59h-406q1 -23 7.5 -38t21.5 -24t39 -12.5t60 -3.5h203zM331 367q-36 0 -61 -3.5t-40 -12.5t-21.5 -24.5
t-6.5 -38.5v-6h249v6q0 23 -6 38.5t-20.5 24.5t-37.5 12.5t-56 3.5zM115 686h158v-146h-158v146zM368 686h157v-146h-157v146z" />
    <glyph glyph-name="igrave" unicode="&#xec;" horiz-adv-x="307" 
d="M12 0zM63 463h180v-463h-180v463zM239 523h-133l-94 214h174z" />
    <glyph glyph-name="iacute" unicode="&#xed;" horiz-adv-x="310" 
d="M64 0zM64 463h180v-463h-180v463zM124 737h174l-95 -214h-133z" />
    <glyph glyph-name="icircumflex" unicode="&#xee;" horiz-adv-x="472" 
d="M0 0zM146 463h180v-463h-180v463zM166 737h140l172 -214h-135l-108 111l-107 -111h-134z" />
    <glyph glyph-name="idieresis" unicode="&#xef;" horiz-adv-x="416" 
d="M3 0zM118 463h180v-463h-180v463zM3 686h158v-146h-158v146zM256 686h157v-146h-157v146z" />
    <glyph glyph-name="idieresis" unicode="&#x457;" horiz-adv-x="416" 
d="M3 0zM118 463h180v-463h-180v463zM3 686h158v-146h-158v146zM256 686h157v-146h-157v146z" />
    <glyph glyph-name="eth" unicode="&#xf0;" horiz-adv-x="714" 
d="M208 597h-95v122h140l27 75h82l-27 -75h56q72 0 122 -11.5t80.5 -37t44 -67.5t13.5 -103v-268q0 -65 -13 -109.5t-43 -71.5t-80 -39t-124 -12h-91q-74 0 -124 12t-80 39t-43 71.5t-13 109.5q0 64 13 108.5t43 71.5t80 39t124 12h180v36q0 56 -20 77t-65 21h-105l-30 -84
h-82zM395 134q50 0 67.5 21.5t17.5 76.5v102h-184q-48 0 -66.5 -21.5t-18.5 -77.5q0 -58 18.5 -79.5t66.5 -21.5h99z" />
    <glyph glyph-name="ntilde" unicode="&#xf1;" horiz-adv-x="726" 
d="M64 0zM64 463h334q74 0 125 -11t82.5 -33.5t45 -58t13.5 -83.5v-277h-180v255q0 34 -18 49t-68 15h-154v-319h-180v463zM574 653q0 -58 -22 -84.5t-72 -26.5q-31 0 -58 8.5t-51 19t-45 19.5t-39 9t-31 -5t-13 -33v-15h-111v43q0 57 22 84t73 27q31 0 58.5 -9t51.5 -19.5
t44.5 -19t37.5 -8.5q21 0 32.5 7t11.5 31v15h111v-43z" />
    <glyph glyph-name="ograve" unicode="&#xf2;" horiz-adv-x="661" 
d="M40 0zM330 343q-41 0 -65.5 -6t-38 -19t-18 -34.5t-4.5 -51.5t4.5 -51.5t18 -35t38 -19.5t65.5 -6q40 0 65 6t38.5 19.5t18 35t4.5 51.5t-4.5 51.5t-18 34.5t-38.5 19t-65 6zM330 -11q-90 0 -147 13.5t-88.5 43t-43 75.5t-11.5 111q0 64 11.5 110.5t43.5 75.5t88.5 43
t146.5 14q91 0 147.5 -14t88.5 -43t43.5 -75.5t11.5 -110.5q0 -65 -11.5 -111t-43.5 -75.5t-88.5 -43t-147.5 -13.5zM415 523h-133l-94 214h174z" />
    <glyph glyph-name="oacute" unicode="&#xf3;" horiz-adv-x="661" 
d="M40 0zM330 343q-41 0 -65.5 -6t-38 -19t-18 -34.5t-4.5 -51.5t4.5 -51.5t18 -35t38 -19.5t65.5 -6q40 0 65 6t38.5 19.5t18 35t4.5 51.5t-4.5 51.5t-18 34.5t-38.5 19t-65 6zM330 -11q-90 0 -147 13.5t-88.5 43t-43 75.5t-11.5 111q0 64 11.5 110.5t43.5 75.5t88.5 43
t146.5 14q91 0 147.5 -14t88.5 -43t43.5 -75.5t11.5 -110.5q0 -65 -11.5 -111t-43.5 -75.5t-88.5 -43t-147.5 -13.5zM301 737h174l-95 -214h-133z" />
    <glyph glyph-name="ocircumflex" unicode="&#xf4;" horiz-adv-x="661" 
d="M40 0zM330 343q-41 0 -65.5 -6t-38 -19t-18 -34.5t-4.5 -51.5t4.5 -51.5t18 -35t38 -19.5t65.5 -6q40 0 65 6t38.5 19.5t18 35t4.5 51.5t-4.5 51.5t-18 34.5t-38.5 19t-65 6zM330 -11q-90 0 -147 13.5t-88.5 43t-43 75.5t-11.5 111q0 64 11.5 110.5t43.5 75.5t88.5 43
t146.5 14q91 0 147.5 -14t88.5 -43t43.5 -75.5t11.5 -110.5q0 -65 -11.5 -111t-43.5 -75.5t-88.5 -43t-147.5 -13.5zM261 737h140l172 -214h-135l-108 111l-107 -111h-134z" />
    <glyph glyph-name="otilde" unicode="&#xf5;" horiz-adv-x="661" 
d="M40 0zM330 343q-41 0 -65.5 -6t-38 -19t-18 -34.5t-4.5 -51.5t4.5 -51.5t18 -35t38 -19.5t65.5 -6q40 0 65 6t38.5 19.5t18 35t4.5 51.5t-4.5 51.5t-18 34.5t-38.5 19t-65 6zM330 -11q-90 0 -147 13.5t-88.5 43t-43 75.5t-11.5 111q0 64 11.5 110.5t43.5 75.5t88.5 43
t146.5 14q91 0 147.5 -14t88.5 -43t43.5 -75.5t11.5 -110.5q0 -65 -11.5 -111t-43.5 -75.5t-88.5 -43t-147.5 -13.5zM552 653q0 -58 -22 -84.5t-72 -26.5q-31 0 -58 8.5t-51 19t-45 19.5t-39 9t-31 -5t-13 -33v-15h-111v43q0 57 22 84t73 27q31 0 58.5 -9t51.5 -19.5
t44.5 -19t37.5 -8.5q21 0 32.5 7t11.5 31v15h111v-43z" />
    <glyph glyph-name="odieresis" unicode="&#xf6;" horiz-adv-x="661" 
d="M40 0zM330 343q-41 0 -65.5 -6t-38 -19t-18 -34.5t-4.5 -51.5t4.5 -51.5t18 -35t38 -19.5t65.5 -6q40 0 65 6t38.5 19.5t18 35t4.5 51.5t-4.5 51.5t-18 34.5t-38.5 19t-65 6zM330 -11q-90 0 -147 13.5t-88.5 43t-43 75.5t-11.5 111q0 64 11.5 110.5t43.5 75.5t88.5 43
t146.5 14q91 0 147.5 -14t88.5 -43t43.5 -75.5t11.5 -110.5q0 -65 -11.5 -111t-43.5 -75.5t-88.5 -43t-147.5 -13.5zM126 686h158v-146h-158v146zM379 686h157v-146h-157v146z" />
    <glyph glyph-name="divide" unicode="&#xf7;" horiz-adv-x="690" 
d="M68 432h554v-134h-554v134zM423 203v-163h-156v163h156zM423 693v-165h-156v165h156z" />
    <glyph glyph-name="oslash" unicode="&#xf8;" horiz-adv-x="661" 
d="M330 -11q-87 0 -142 12l-50 -61h-98l74 91q-44 29 -59 77.5t-15 123.5q0 64 11.5 110.5t43.5 75.5t88.5 43t146.5 14q81 0 137 -12l56 68h98l-78 -96q46 -28 62 -78t16 -125q0 -65 -11.5 -111t-43.5 -75.5t-88.5 -43t-147.5 -13.5zM465 232q0 30 -4.5 51.5t-17.5 35.5
l-155 -202q9 -1 19.5 -1h22.5q43 0 70 6.5t41 20t19 35.5t5 54zM330 347q-44 0 -70.5 -6t-40.5 -20t-19 -36t-5 -53q0 -29 4 -50.5t16 -35.5l150 199q-8 1 -16.5 1.5t-18.5 0.5z" />
    <glyph glyph-name="ugrave" unicode="&#xf9;" horiz-adv-x="720" 
d="M62 0zM656 0h-328q-74 0 -125 11t-82.5 33.5t-45 58t-13.5 83.5v277h180v-255q0 -33 17 -48.5t69 -15.5h149v319h179v-463zM444 523h-133l-94 214h174z" />
    <glyph glyph-name="uacute" unicode="&#xfa;" horiz-adv-x="720" 
d="M62 0zM656 0h-328q-74 0 -125 11t-82.5 33.5t-45 58t-13.5 83.5v277h180v-255q0 -33 17 -48.5t69 -15.5h149v319h179v-463zM331 737h174l-95 -214h-133z" />
    <glyph glyph-name="ucircumflex" unicode="&#xfb;" horiz-adv-x="720" 
d="M62 0zM656 0h-328q-74 0 -125 11t-82.5 33.5t-45 58t-13.5 83.5v277h180v-255q0 -33 17 -48.5t69 -15.5h149v319h179v-463zM290 737h140l172 -214h-135l-108 111l-107 -111h-134z" />
    <glyph glyph-name="udieresis" unicode="&#xfc;" horiz-adv-x="720" 
d="M62 0zM656 0h-328q-74 0 -125 11t-82.5 33.5t-45 58t-13.5 83.5v277h180v-255q0 -33 17 -48.5t69 -15.5h149v319h179v-463zM155 686h158v-146h-158v146zM408 686h157v-146h-157v146z" />
    <glyph glyph-name="yacute" unicode="&#xfd;" horiz-adv-x="684" 
d="M9 0zM121 -84q27 0 47.5 3t37 10.5t30 21.5t25.5 37l-252 475h183l151 -309l151 309h181l-272 -525q-21 -40 -44 -68.5t-55 -46.5t-76 -26t-107 -8h-69v127h69zM311 737h174l-95 -214h-133z" />
    <glyph glyph-name="thorn" unicode="&#xfe;" horiz-adv-x="704" 
d="M407 134q50 0 68 21t18 77q0 55 -18.5 76t-67.5 21h-163v-195h163zM244 731v-268h160q74 0 124 -12t80 -39t43 -71.5t13 -108.5q0 -65 -13 -109.5t-43 -71.5t-80 -39t-124 -12h-160v-211h-180v942h180z" />
    <glyph glyph-name="ydieresis" unicode="&#xff;" horiz-adv-x="684" 
d="M9 0zM121 -84q27 0 47.5 3t37 10.5t30 21.5t25.5 37l-252 475h183l151 -309l151 309h181l-272 -525q-21 -40 -44 -68.5t-55 -46.5t-76 -26t-107 -8h-69v127h69zM135 686h158v-146h-158v146zM388 686h157v-146h-157v146z" />
    <glyph glyph-name="Amacron" unicode="&#x100;" horiz-adv-x="946" 
d="M9 0zM367 731h212l358 -731h-198l-67 142h-392l-67 -142h-204zM350 291h251l-126 266zM206 923h535v-112h-535v112z" />
    <glyph glyph-name="amacron" unicode="&#x101;" horiz-adv-x="655" 
d="M45 0zM111 347v116h199q80 0 134.5 -11t87.5 -34t47 -58t14 -84v-276h-384q-48 0 -79.5 8.5t-50.5 26t-26.5 45.5t-7.5 67t7.5 64.5t26.5 41t50.5 22t79.5 6.5h223v4q0 16 -5 28t-19 19.5t-39 11t-66 3.5h-192zM432 106v86h-186q-26 0 -35.5 -9t-9.5 -32q0 -25 9.5 -35
t35.5 -10h186zM60 667h535v-112h-535v112z" />
    <glyph glyph-name="Abreve" unicode="&#x102;" horiz-adv-x="946" 
d="M9 0zM367 731h212l358 -731h-198l-67 142h-392l-67 -142h-204zM350 291h251l-126 266zM473 771q-63 0 -104.5 9.5t-66.5 31t-35 55.5t-10 82v12h99v-12q0 -24 5 -41t18.5 -27.5t36 -15t57.5 -4.5t58 4.5t36 15t18 27.5t5 41v12h100v-12q0 -48 -10.5 -82t-35 -55.5
t-66.5 -31t-105 -9.5z" />
    <glyph glyph-name="abreve" unicode="&#x103;" horiz-adv-x="655" 
d="M45 0zM111 347v116h199q80 0 134.5 -11t87.5 -34t47 -58t14 -84v-276h-384q-48 0 -79.5 8.5t-50.5 26t-26.5 45.5t-7.5 67t7.5 64.5t26.5 41t50.5 22t79.5 6.5h223v4q0 16 -5 28t-19 19.5t-39 11t-66 3.5h-192zM432 106v86h-186q-26 0 -35.5 -9t-9.5 -32q0 -25 9.5 -35
t35.5 -10h186zM327 523q-63 0 -104.5 11t-66 35t-35 62t-10.5 92v14h99v-14q0 -27 5 -46t18.5 -31t36 -17.5t57.5 -5.5t58 5.5t36.5 17.5t18.5 31t5 46v14h99v-14q0 -54 -10.5 -92t-35 -62t-66.5 -35t-105 -11z" />
    <glyph glyph-name="Aogonek" unicode="&#x104;" horiz-adv-x="946" 
d="M739 0l-67 142h-392l-67 -142h-204l358 731h212l358 -731l-92 -52q-14 -6 -24 -15.5t-10 -22.5q0 -10 7 -18t21 -8h114v-123h-192q-29 0 -49 7t-32 19.5t-17.5 28.5t-5.5 34q0 46 31 74t76 51l51 25h-76zM350 291h251l-126 266z" />
    <glyph glyph-name="aogonek" unicode="&#x105;" horiz-adv-x="655" 
d="M209 0q-48 0 -79.5 8.5t-50.5 26t-26.5 45.5t-7.5 67t7.5 64.5t26.5 41t50.5 22t79.5 6.5h223v4q0 16 -5 28t-19 19.5t-39 11t-66 3.5h-192v116h199q80 0 134.5 -11t87.5 -34t47 -58t14 -84v-276l-92 -52q-14 -6 -24 -15.5t-10 -22.5q0 -10 7 -18t21 -8h114v-123h-192
q-29 0 -49 7t-32 19.5t-17.5 28.5t-5.5 34q0 46 31 74t76 51l51 25h-262zM432 106v86h-186q-26 0 -35.5 -9t-9.5 -32q0 -25 9.5 -35t35.5 -10h186z" />
    <glyph glyph-name="Cacute" unicode="&#x106;" horiz-adv-x="748" 
d="M38 0zM703 0h-341q-81 0 -142 14.5t-101.5 54.5t-60.5 111t-20 185t20 185t60.5 111.5t101.5 55t142 14.5h341v-161h-340q-37 0 -62 -8.5t-40.5 -31.5t-22.5 -63t-7 -102t7 -102t22.5 -62.5t41 -31t61.5 -8.5h340v-161zM418 961h173l-119 -190h-133z" />
    <glyph glyph-name="cacute" unicode="&#x107;" horiz-adv-x="580" 
d="M40 0zM538 134v-134h-238q-74 0 -124 12t-80 39t-43 71.5t-13 109.5q0 64 13 108.5t43 71.5t80 39t124 12h238v-134h-241q-50 0 -68 -21t-18 -76t18 -76.5t68 -21.5h241zM294 737h174l-95 -214h-133z" />
    <glyph glyph-name="Cdotaccent" unicode="&#x10a;" horiz-adv-x="748" 
d="M38 0zM703 0h-341q-81 0 -142 14.5t-101.5 54.5t-60.5 111t-20 185t20 185t60.5 111.5t101.5 55t142 14.5h341v-161h-340q-37 0 -62 -8.5t-40.5 -31.5t-22.5 -63t-7 -102t7 -102t22.5 -62.5t41 -31t61.5 -8.5h340v-161zM349 939h165v-147h-165v147z" />
    <glyph glyph-name="cdotaccent" unicode="&#x10b;" horiz-adv-x="580" 
d="M40 0zM538 134v-134h-238q-74 0 -124 12t-80 39t-43 71.5t-13 109.5q0 64 13 108.5t43 71.5t80 39t124 12h238v-134h-241q-50 0 -68 -21t-18 -76t18 -76.5t68 -21.5h241zM238 686h166v-146h-166v146z" />
    <glyph glyph-name="Ccaron" unicode="&#x10c;" horiz-adv-x="748" 
d="M38 0zM703 0h-341q-81 0 -142 14.5t-101.5 54.5t-60.5 111t-20 185t20 185t60.5 111.5t101.5 55t142 14.5h341v-161h-340q-37 0 -62 -8.5t-40.5 -31.5t-22.5 -63t-7 -102t7 -102t22.5 -62.5t41 -31t61.5 -8.5h340v-161zM497 771h-136l-167 190h131l104 -98l105 98h131z
" />
    <glyph glyph-name="ccaron" unicode="&#x10d;" horiz-adv-x="603" 
d="M40 0zM538 134v-134h-238q-74 0 -124 12t-80 39t-43 71.5t-13 109.5q0 64 13 108.5t43 71.5t80 39t124 12h238v-134h-241q-50 0 -68 -21t-18 -76t18 -76.5t68 -21.5h241zM390 523h-140l-172 214h134l108 -111l107 111h135z" />
    <glyph glyph-name="Dcaron" unicode="&#x10e;" horiz-adv-x="858" 
d="M68 0zM264 161h231q37 0 62.5 9t41 31.5t22 62t6.5 101.5t-7 102t-22.5 63t-41 31.5t-61.5 8.5h-231v-409zM68 731h428q81 0 141.5 -14.5t101 -55t61 -111.5t20.5 -185t-20.5 -185t-61 -111t-101 -54.5t-141.5 -14.5h-428v731zM472 771h-136l-167 190h131l104 -98l105 98
h131z" />
    <glyph glyph-name="dcaron" unicode="&#x10f;" horiz-adv-x="833" 
d="M40 0zM640 731v-731h-340q-74 0 -124 12t-80 39t-43 71.5t-13 109.5q0 64 13 108.5t43 71.5t80 39t124 12h160v268h180zM460 134v195h-163q-50 0 -68 -21t-18 -76q0 -28 4 -46.5t14 -30t26.5 -16.5t41.5 -5h163zM864 731l-46 -202h-125l4 202h167z" />
    <glyph glyph-name="dmacron" unicode="&#x111;" horiz-adv-x="704" 
d="M165 655h295v76h180v-76h60v-112h-60v-543h-340q-74 0 -124 12t-80 39t-43 71.5t-13 109.5q0 64 13 108.5t43 71.5t80 39t124 12h160v80h-295v112zM460 134v195h-163q-50 0 -68 -21t-18 -76q0 -28 4 -46.5t14 -30t26.5 -16.5t41.5 -5h163z" />
    <glyph glyph-name="Emacron" unicode="&#x112;" horiz-adv-x="799" 
d="M68 0zM741 295h-477v-137h481v-158h-677v731h675v-158h-479v-137h477v-141zM141 923h535v-112h-535v112z" />
    <glyph glyph-name="emacron" unicode="&#x113;" horiz-adv-x="640" 
d="M40 0zM533 117v-117h-210q-89 0 -144.5 13.5t-86 42t-41.5 73t-11 107.5q0 60 10.5 105t41 75t86.5 44.5t147 14.5q88 0 143 -13.5t86 -41t42.5 -69t11.5 -97.5v-59h-406q1 -23 7.5 -38t21.5 -24t39 -12.5t60 -3.5h203zM331 367q-36 0 -61 -3.5t-40 -12.5t-21.5 -24.5
t-6.5 -38.5v-6h249v6q0 23 -6 38.5t-20.5 24.5t-37.5 12.5t-56 3.5zM52 667h535v-112h-535v112z" />
    <glyph glyph-name="Ebreve" unicode="&#x114;" horiz-adv-x="799" 
d="M68 0zM741 295h-477v-137h481v-158h-677v731h675v-158h-479v-137h477v-141zM409 771q-63 0 -104.5 9.5t-66.5 31t-35 55.5t-10 82v12h99v-12q0 -24 5 -41t18.5 -27.5t36 -15t57.5 -4.5t58 4.5t36 15t18 27.5t5 41v12h100v-12q0 -48 -10.5 -82t-35 -55.5t-66.5 -31
t-105 -9.5z" />
    <glyph glyph-name="ebreve" unicode="&#x115;" horiz-adv-x="640" 
d="M40 0zM533 117v-117h-210q-89 0 -144.5 13.5t-86 42t-41.5 73t-11 107.5q0 60 10.5 105t41 75t86.5 44.5t147 14.5q88 0 143 -13.5t86 -41t42.5 -69t11.5 -97.5v-59h-406q1 -23 7.5 -38t21.5 -24t39 -12.5t60 -3.5h203zM331 367q-36 0 -61 -3.5t-40 -12.5t-21.5 -24.5
t-6.5 -38.5v-6h249v6q0 23 -6 38.5t-20.5 24.5t-37.5 12.5t-56 3.5zM320 523q-63 0 -104.5 11t-66 35t-35 62t-10.5 92v14h99v-14q0 -27 5 -46t18.5 -31t36 -17.5t57.5 -5.5t58 5.5t36.5 17.5t18.5 31t5 46v14h99v-14q0 -54 -10.5 -92t-35 -62t-66.5 -35t-105 -11z" />
    <glyph glyph-name="Edotaccent" unicode="&#x116;" horiz-adv-x="799" 
d="M68 0zM741 295h-477v-137h481v-158h-677v731h675v-158h-479v-137h477v-141zM326 939h165v-147h-165v147z" />
    <glyph glyph-name="edotaccent" unicode="&#x117;" horiz-adv-x="640" 
d="M40 0zM533 117v-117h-210q-89 0 -144.5 13.5t-86 42t-41.5 73t-11 107.5q0 60 10.5 105t41 75t86.5 44.5t147 14.5q88 0 143 -13.5t86 -41t42.5 -69t11.5 -97.5v-59h-406q1 -23 7.5 -38t21.5 -24t39 -12.5t60 -3.5h203zM331 367q-36 0 -61 -3.5t-40 -12.5t-21.5 -24.5
t-6.5 -38.5v-6h249v6q0 23 -6 38.5t-20.5 24.5t-37.5 12.5t-56 3.5zM237 686h166v-146h-166v146z" />
    <glyph glyph-name="Eogonek" unicode="&#x118;" horiz-adv-x="799" 
d="M68 0v731h675v-158h-479v-137h477v-141h-477v-137h481v-158l-92 -52q-14 -6 -24 -15.5t-10 -22.5q0 -10 7 -18t21 -8h114v-123h-192q-29 0 -49 7t-32 19.5t-17.5 28.5t-5.5 34q0 46 31 74t76 51l51 25h-555z" />
    <glyph glyph-name="eogonek" unicode="&#x119;" horiz-adv-x="640" 
d="M323 0q-89 0 -144.5 13.5t-86 42t-41.5 73t-11 107.5q0 60 10.5 105t41 75t86.5 44.5t147 14.5q88 0 143 -13.5t86 -41t42.5 -69t11.5 -97.5v-59h-406q1 -23 7.5 -38t21.5 -24t39 -12.5t60 -3.5h203v-117h-2l-92 -52q-14 -6 -24 -15.5t-10 -22.5q0 -10 7 -18t21 -8h114
v-123h-192q-29 0 -49 7t-32 19.5t-17.5 28.5t-5.5 34q0 46 31 74t76 51l51 25h-86zM331 367q-36 0 -61 -3.5t-40 -12.5t-21.5 -24.5t-6.5 -38.5v-6h249v6q0 23 -6 38.5t-20.5 24.5t-37.5 12.5t-56 3.5z" />
    <glyph glyph-name="Ecaron" unicode="&#x11a;" horiz-adv-x="799" 
d="M68 0zM741 295h-477v-137h481v-158h-677v731h675v-158h-479v-137h477v-141zM476 771h-136l-167 190h131l104 -98l105 98h131z" />
    <glyph glyph-name="ecaron" unicode="&#x11b;" horiz-adv-x="640" 
d="M40 0zM533 117v-117h-210q-89 0 -144.5 13.5t-86 42t-41.5 73t-11 107.5q0 60 10.5 105t41 75t86.5 44.5t147 14.5q88 0 143 -13.5t86 -41t42.5 -69t11.5 -97.5v-59h-406q1 -23 7.5 -38t21.5 -24t39 -12.5t60 -3.5h203zM331 367q-36 0 -61 -3.5t-40 -12.5t-21.5 -24.5
t-6.5 -38.5v-6h249v6q0 23 -6 38.5t-20.5 24.5t-37.5 12.5t-56 3.5zM390 523h-140l-172 214h134l108 -111l107 111h135z" />
    <glyph glyph-name="Gbreve" unicode="&#x11e;" horiz-adv-x="801" 
d="M38 0zM737 0h-375q-81 0 -142 14.5t-101.5 54.5t-60.5 111t-20 185t20 185t60.5 111.5t101.5 55t142 14.5h373v-161h-372q-37 0 -62 -9t-40.5 -32t-22.5 -62.5t-7 -101.5t7 -101.5t22.5 -62.5t40.5 -31.5t62 -8.5h202v219h172v-380zM435 771q-63 0 -104.5 9.5t-66.5 31
t-35 55.5t-10 82v12h99v-12q0 -24 5 -41t18.5 -27.5t36 -15t57.5 -4.5t58 4.5t36 15t18 27.5t5 41v12h100v-12q0 -48 -10.5 -82t-35 -55.5t-66.5 -31t-105 -9.5z" />
    <glyph glyph-name="gbreve" unicode="&#x11f;" horiz-adv-x="704" 
d="M40 0zM297 331q-50 0 -68.5 -22t-18.5 -78q0 -28 4 -47t14 -30.5t27 -16.5t42 -5h173v199h-173zM640 463v-489q0 -51 -13.5 -86t-45 -57t-82.5 -32t-125 -10h-167v127h168q51 0 73 14t22 46v31h-170q-74 0 -124 11.5t-80 38t-43 70t-13 107.5t13 108t43 71t80 38.5
t124 11.5h340zM351 523q-63 0 -104.5 11t-66 35t-35 62t-10.5 92v14h99v-14q0 -27 5 -46t18.5 -31t36 -17.5t57.5 -5.5t58 5.5t36.5 17.5t18.5 31t5 46v14h99v-14q0 -54 -10.5 -92t-35 -62t-66.5 -35t-105 -11z" />
    <glyph glyph-name="Gdotaccent" unicode="&#x120;" horiz-adv-x="801" 
d="M38 0zM737 0h-375q-81 0 -142 14.5t-101.5 54.5t-60.5 111t-20 185t20 185t60.5 111.5t101.5 55t142 14.5h373v-161h-372q-37 0 -62 -9t-40.5 -32t-22.5 -62.5t-7 -101.5t7 -101.5t22.5 -62.5t40.5 -31.5t62 -8.5h202v219h172v-380zM353 939h165v-147h-165v147z" />
    <glyph glyph-name="gdotaccent" unicode="&#x121;" horiz-adv-x="704" 
d="M40 0zM297 331q-50 0 -68.5 -22t-18.5 -78q0 -28 4 -47t14 -30.5t27 -16.5t42 -5h173v199h-173zM640 463v-489q0 -51 -13.5 -86t-45 -57t-82.5 -32t-125 -10h-167v127h168q51 0 73 14t22 46v31h-170q-74 0 -124 11.5t-80 38t-43 70t-13 107.5t13 108t43 71t80 38.5
t124 11.5h340zM271 686h166v-146h-166v146z" />
    <glyph glyph-name="Gcommaaccent" unicode="&#x122;" horiz-adv-x="801" 
d="M38 0zM737 0h-375q-81 0 -142 14.5t-101.5 54.5t-60.5 111t-20 185t20 185t60.5 111.5t101.5 55t142 14.5h373v-161h-372q-37 0 -62 -9t-40.5 -32t-22.5 -62.5t-7 -101.5t7 -101.5t22.5 -62.5t40.5 -31.5t62 -8.5h202v219h172v-380zM522 -37l-46 -202h-125l4 202h167z
" />
    <glyph glyph-name="gcommaaccent" unicode="&#x123;" horiz-adv-x="704" 
d="M40 0zM297 331q-50 0 -68.5 -22t-18.5 -78q0 -28 4 -47t14 -30.5t27 -16.5t42 -5h173v199h-173zM640 463v-489q0 -51 -13.5 -86t-45 -57t-82.5 -32t-125 -10h-167v127h168q51 0 73 14t22 46v31h-170q-74 0 -124 11.5t-80 38t-43 70t-13 107.5t13 108t43 71t80 38.5
t124 11.5h340zM290 509v203q0 56 23.5 79.5t77.5 23.5h70v-71h-42q-24 0 -24 -23v-39h67v-173h-172z" />
    <glyph glyph-name="Hbar" unicode="&#x126;" horiz-adv-x="877" 
d="M3 637h65v94h196v-94h349v94h196v-94h65v-112h-65v-525h-196v285h-349v-285h-196v525h-65v112zM613 446v79h-349v-79h349z" />
    <glyph glyph-name="hbar" unicode="&#x127;" horiz-adv-x="726" 
d="M3 655h61v76h180v-76h294v-112h-294v-80h154q74 0 125 -11t82.5 -33.5t45 -58t13.5 -83.5v-277h-180v255q0 34 -18 49t-68 15h-154v-319h-180v543h-61v112z" />
    <glyph glyph-name="Itilde" unicode="&#x128;" horiz-adv-x="411" 
d="M0 0zM304 731v-731h-196v731h196zM426 894q0 -59 -22 -85t-71 -26q-31 0 -58 8.5t-51 19t-45.5 19.5t-39.5 9q-19 0 -31.5 -5.5t-12.5 -32.5v-16h-110v44q0 57 21.5 84t72.5 27q31 0 58.5 -9t51.5 -19.5t44.5 -19.5t38.5 -9q19 0 31.5 6.5t12.5 32.5v15h110v-43z" />
    <glyph glyph-name="itilde" unicode="&#x129;" horiz-adv-x="409" 
d="M0 0zM115 463h180v-463h-180v463zM426 653q0 -58 -22 -84.5t-72 -26.5q-31 0 -58 8.5t-51 19t-45 19.5t-39 9t-31 -5t-13 -33v-15h-111v43q0 57 22 84t73 27q31 0 58.5 -9t51.5 -19.5t44.5 -19t37.5 -8.5q21 0 32.5 7t11.5 31v15h111v-43z" />
    <glyph glyph-name="Imacron" unicode="&#x12a;" horiz-adv-x="482" 
d="M0 0zM339 731v-731h-196v731h196zM-2.50879 923h492.19v-112h-492.19v112z" />
    <glyph glyph-name="imacron" unicode="&#x12b;" horiz-adv-x="481" 
d="M0 0zM151 463h180v-463h-180v463zM-7.00098 667h492.191v-112h-492.191v112z" />
    <glyph glyph-name="Ibreve" unicode="&#x12c;" horiz-adv-x="409" 
d="M0 0zM303 731v-731h-196v731h196zM204 771q-63 0 -104.5 9.5t-66.5 31t-35 55.5t-10 82v12h99v-12q0 -24 5 -41t18.5 -27.5t36 -15t57.5 -4.5t58 4.5t36 15t18 27.5t5 41v12h100v-12q0 -48 -10.5 -82t-35 -55.5t-66.5 -31t-105 -9.5z" />
    <glyph glyph-name="ibreve" unicode="&#x12d;" horiz-adv-x="418" 
d="M0 0zM119 463h180v-463h-180v463zM209 523q-63 0 -104.5 11t-66 35t-35 62t-10.5 92v14h99v-14q0 -27 5 -46t18.5 -31t36 -17.5t57.5 -5.5t58 5.5t36.5 17.5t18.5 31t5 46v14h99v-14q0 -54 -10.5 -92t-35 -62t-66.5 -35t-105 -11z" />
    <glyph glyph-name="Iogonek" unicode="&#x12e;" horiz-adv-x="338" 
d="M74 0v731h196v-731l-92 -52q-14 -6 -24 -15.5t-10 -22.5q0 -10 7 -18t21 -8h114v-123h-192q-29 0 -49 7t-32 19.5t-17.5 28.5t-5.5 34q0 46 31 74t76 51l51 25h-74z" />
    <glyph glyph-name="iogonek" unicode="&#x12f;" horiz-adv-x="317" 
d="M73 463h180v-463l-92 -52q-14 -6 -24 -15.5t-10 -22.5q0 -10 7 -18t21 -8h114v-123h-192q-29 0 -49 7t-32 19.5t-17.5 28.5t-5.5 34q0 46 31 74t76 51l51 25h-58v463zM80 686h166v-146h-166v146z" />
    <glyph glyph-name="Idotaccent" unicode="&#x130;" horiz-adv-x="332" 
d="M68 0zM264 731v-731h-196v731h196zM84 939h165v-147h-165v147z" />
    <glyph glyph-name="dotlessi" unicode="&#x131;" horiz-adv-x="308" 
d="M64 463h180v-463h-180v463z" />
    <glyph glyph-name="IJ" unicode="&#x132;" horiz-adv-x="992" 
d="M68 0zM264 731v-731h-196v731h196zM936 731v-442q0 -76 -19.5 -130.5t-60 -90t-104 -52t-150.5 -16.5h-253v158h253q39 0 66 7t43.5 23t24 40.5t7.5 60.5v442h193z" />
    <glyph glyph-name="ij" unicode="&#x133;" horiz-adv-x="645" 
d="M64 0zM64 463h180v-463h-180v463zM70 686h166v-146h-166v146zM308 -84q51 0 73 13.5t22 46.5v487h180v-489q0 -51 -13.5 -86t-45 -57t-82.5 -32t-125 -10h-70v127h61zM410 686h166v-146h-166v146z" />
    <glyph glyph-name="Kcommaaccent" unicode="&#x136;" horiz-adv-x="828" 
d="M68 0zM560 379l254 -379h-218l-206 298h-126v-298h-196v731h196v-296h126l209 296h207zM487 -37l-46 -202h-125l4 202h167z" />
    <glyph glyph-name="kcommaaccent" unicode="&#x137;" horiz-adv-x="657" 
d="M64 0zM473 240l177 -240h-190l-146 187h-70v-187h-180v731h180v-453h70l149 185h182zM411 -37l-46 -202h-125l4 202h167z" />
    <glyph glyph-name="Lacute" unicode="&#x139;" horiz-adv-x="733" 
d="M68 0zM264 158h452v-158h-648v731h196v-573zM193 961h173l-119 -190h-133z" />
    <glyph glyph-name="lacute" unicode="&#x13a;" horiz-adv-x="308" 
d="M58 0zM64 731h180v-731h-180v731zM137 961h173l-119 -190h-133z" />
    <glyph glyph-name="Lcommaaccent" unicode="&#x13b;" horiz-adv-x="733" 
d="M68 0zM264 158h452v-158h-648v731h196v-573zM459 -37l-46 -202h-125l4 202h167z" />
    <glyph glyph-name="lcommaaccent" unicode="&#x13c;" horiz-adv-x="309" 
d="M64 0zM64 731h180v-731h-180v731zM237 -37l-46 -202h-125l4 202h167z" />
    <glyph glyph-name="Lcaron" unicode="&#x13d;" horiz-adv-x="733" 
d="M68 0zM264 158h452v-158h-648v731h196v-573zM582 731l-46 -202h-125l4 202h167z" />
    <glyph glyph-name="lcaron" unicode="&#x13e;" horiz-adv-x="437" 
d="M64 0zM64 731h180v-731h-180v731zM468 731l-46 -202h-125l4 202h167z" />
    <glyph glyph-name="Lslash" unicode="&#x141;" horiz-adv-x="747" 
d="M3 439l80 29v263h196v-192l184 71v-106l-184 -71v-275h452v-158h-648v362l-80 -29v106z" />
    <glyph glyph-name="lslash" unicode="&#x142;" horiz-adv-x="460" 
d="M0 421l140 52v258h180v-191l140 52v-106l-140 -52v-434h-180v367l-140 -52v106z" />
    <glyph glyph-name="Nacute" unicode="&#x143;" horiz-adv-x="912" 
d="M68 0zM663 213v518h181v-731h-238l-356 500v-500h-182v731h232zM438 961h173l-119 -190h-133z" />
    <glyph glyph-name="nacute" unicode="&#x144;" horiz-adv-x="726" 
d="M64 0zM64 463h334q74 0 125 -11t82.5 -33.5t45 -58t13.5 -83.5v-277h-180v255q0 34 -18 49t-68 15h-154v-319h-180v463zM332 737h174l-95 -214h-133z" />
    <glyph glyph-name="Ncommaaccent" unicode="&#x145;" horiz-adv-x="912" 
d="M68 0zM663 213v518h181v-731h-238l-356 500v-500h-182v731h232zM534 -37l-46 -202h-125l4 202h167z" />
    <glyph glyph-name="ncommaaccent" unicode="&#x146;" horiz-adv-x="726" 
d="M64 0zM64 463h334q74 0 125 -11t82.5 -33.5t45 -58t13.5 -83.5v-277h-180v255q0 34 -18 49t-68 15h-154v-319h-180v463zM445 -37l-46 -202h-125l4 202h167z" />
    <glyph glyph-name="Ncaron" unicode="&#x147;" horiz-adv-x="912" 
d="M68 0zM663 213v518h181v-731h-238l-356 500v-500h-182v731h232zM522 771h-136l-167 190h131l104 -98l105 98h131z" />
    <glyph glyph-name="ncaron" unicode="&#x148;" horiz-adv-x="726" 
d="M64 0zM64 463h334q74 0 125 -11t82.5 -33.5t45 -58t13.5 -83.5v-277h-180v255q0 34 -18 49t-68 15h-154v-319h-180v463zM431 523h-140l-172 214h134l108 -111l107 111h135z" />
    <glyph glyph-name="Eng" unicode="&#x14a;" horiz-adv-x="877" 
d="M809 -23q0 -51 -15 -87t-50 -58.5t-91.5 -32.5t-138.5 -10h-89v127h80q57 0 81.5 15t24.5 48v518q0 40 -20 58t-76 18h-251v-573h-197v731h448q82 0 138.5 -12.5t91 -38t49.5 -65t15 -93.5v-545z" />
    <glyph glyph-name="eng" unicode="&#x14b;" horiz-adv-x="726" 
d="M389 -84q50 0 72.5 13.5t22.5 46.5v279q0 34 -18 49t-68 15h-154v-319h-180v463h334q74 0 125 -11t82.5 -33.5t45 -58t13.5 -83.5v-303q0 -51 -13.5 -86t-45 -57t-82.5 -32t-125 -10h-70v127h61z" />
    <glyph glyph-name="Omacron" unicode="&#x14c;" horiz-adv-x="854" 
d="M38 0zM427 583q-63 0 -101.5 -11t-59.5 -36.5t-28 -67.5t-7 -103t7 -103t28 -67.5t59.5 -36.5t101.5 -11t101.5 11t59.5 36.5t28 67.5t7 103t-7 103t-28 67.5t-59.5 36.5t-101.5 11zM427 -15q-121 0 -197 20.5t-118.5 66t-58 117.5t-15.5 176q0 103 15.5 175.5t58 118
t118.5 66t197 20.5t197 -20.5t118.5 -66t58 -118t15.5 -175.5q0 -104 -15.5 -176t-58 -117.5t-118.5 -66t-197 -20.5zM160 923h535v-112h-535v112z" />
    <glyph glyph-name="omacron" unicode="&#x14d;" horiz-adv-x="661" 
d="M40 0zM330 343q-41 0 -65.5 -6t-38 -19t-18 -34.5t-4.5 -51.5t4.5 -51.5t18 -35t38 -19.5t65.5 -6q40 0 65 6t38.5 19.5t18 35t4.5 51.5t-4.5 51.5t-18 34.5t-38.5 19t-65 6zM330 -11q-90 0 -147 13.5t-88.5 43t-43 75.5t-11.5 111q0 64 11.5 110.5t43.5 75.5t88.5 43
t146.5 14q91 0 147.5 -14t88.5 -43t43.5 -75.5t11.5 -110.5q0 -65 -11.5 -111t-43.5 -75.5t-88.5 -43t-147.5 -13.5zM63 667h535v-112h-535v112z" />
    <glyph glyph-name="Obreve" unicode="&#x14e;" horiz-adv-x="854" 
d="M38 0zM427 583q-63 0 -101.5 -11t-59.5 -36.5t-28 -67.5t-7 -103t7 -103t28 -67.5t59.5 -36.5t101.5 -11t101.5 11t59.5 36.5t28 67.5t7 103t-7 103t-28 67.5t-59.5 36.5t-101.5 11zM427 -15q-121 0 -197 20.5t-118.5 66t-58 117.5t-15.5 176q0 103 15.5 175.5t58 118
t118.5 66t197 20.5t197 -20.5t118.5 -66t58 -118t15.5 -175.5q0 -104 -15.5 -176t-58 -117.5t-118.5 -66t-197 -20.5zM427 771q-63 0 -104.5 9.5t-66.5 31t-35 55.5t-10 82v12h99v-12q0 -24 5 -41t18.5 -27.5t36 -15t57.5 -4.5t58 4.5t36 15t18 27.5t5 41v12h100v-12
q0 -48 -10.5 -82t-35 -55.5t-66.5 -31t-105 -9.5z" />
    <glyph glyph-name="obreve" unicode="&#x14f;" horiz-adv-x="661" 
d="M40 0zM330 343q-41 0 -65.5 -6t-38 -19t-18 -34.5t-4.5 -51.5t4.5 -51.5t18 -35t38 -19.5t65.5 -6q40 0 65 6t38.5 19.5t18 35t4.5 51.5t-4.5 51.5t-18 34.5t-38.5 19t-65 6zM330 -11q-90 0 -147 13.5t-88.5 43t-43 75.5t-11.5 111q0 64 11.5 110.5t43.5 75.5t88.5 43
t146.5 14q91 0 147.5 -14t88.5 -43t43.5 -75.5t11.5 -110.5q0 -65 -11.5 -111t-43.5 -75.5t-88.5 -43t-147.5 -13.5zM331 523q-63 0 -104.5 11t-66 35t-35 62t-10.5 92v14h99v-14q0 -27 5 -46t18.5 -31t36 -17.5t57.5 -5.5t58 5.5t36.5 17.5t18.5 31t5 46v14h99v-14
q0 -54 -10.5 -92t-35 -62t-66.5 -35t-105 -11z" />
    <glyph glyph-name="Ohungarumlaut" unicode="&#x150;" horiz-adv-x="854" 
d="M38 0zM427 583q-63 0 -101.5 -11t-59.5 -36.5t-28 -67.5t-7 -103t7 -103t28 -67.5t59.5 -36.5t101.5 -11t101.5 11t59.5 36.5t28 67.5t7 103t-7 103t-28 67.5t-59.5 36.5t-101.5 11zM427 -15q-121 0 -197 20.5t-118.5 66t-58 117.5t-15.5 176q0 103 15.5 175.5t58 118
t118.5 66t197 20.5t197 -20.5t118.5 -66t58 -118t15.5 -175.5q0 -104 -15.5 -176t-58 -117.5t-118.5 -66t-197 -20.5zM514 961h157l-87 -190h-135zM278 961h157l-64 -190h-135z" />
    <glyph glyph-name="ohungarumlaut" unicode="&#x151;" horiz-adv-x="661" 
d="M40 0zM330 343q-41 0 -65.5 -6t-38 -19t-18 -34.5t-4.5 -51.5t4.5 -51.5t18 -35t38 -19.5t65.5 -6q40 0 65 6t38.5 19.5t18 35t4.5 51.5t-4.5 51.5t-18 34.5t-38.5 19t-65 6zM330 -11q-90 0 -147 13.5t-88.5 43t-43 75.5t-11.5 111q0 64 11.5 110.5t43.5 75.5t88.5 43
t146.5 14q91 0 147.5 -14t88.5 -43t43.5 -75.5t11.5 -110.5q0 -65 -11.5 -111t-43.5 -75.5t-88.5 -43t-147.5 -13.5zM421 737h157l-91 -214h-135zM185 737h157l-69 -214h-134z" />
    <glyph glyph-name="OE" unicode="&#x152;" horiz-adv-x="1289" 
d="M1231 295h-454v-137h458v-158h-843q-81 0 -142 14.5t-101.5 54.5t-60.5 111t-20 185t20 185t60.5 111.5t101.5 55t142 14.5h841v-158h-456v-137h454v-141zM589 570h-196q-37 0 -62 -9t-40.5 -32t-22.5 -62.5t-7 -101.5t7 -101.5t22.5 -62.5t40.5 -31.5t62 -8.5h196v409z
" />
    <glyph glyph-name="oe" unicode="&#x153;" horiz-adv-x="1063" 
d="M957 117v-117h-210q-69 0 -117.5 7.5t-80.5 24.5q-33 -23 -86 -33t-133 -10q-90 0 -147 13.5t-88.5 43t-43 75.5t-11.5 111q0 64 11.5 110.5t43.5 75.5t88.5 43t146.5 14q75 0 127 -9.5t85 -29.5q32 20 82 29.5t125 9.5q88 0 143 -13.5t86 -41t42.5 -69t11.5 -97.5v-59
h-406q1 -23 7.5 -38t21.5 -24t39 -12.5t60 -3.5h203zM330 343q-41 0 -65.5 -6t-38 -19t-18 -34.5t-4.5 -51.5t4.5 -51.5t18 -35t38 -19.5t65.5 -6q40 0 65 6t38.5 19.5t18 35t4.5 51.5t-4.5 51.5t-18 34.5t-38.5 19t-65 6zM755 367q-36 0 -61 -3.5t-40 -12.5t-21.5 -24.5
t-6.5 -38.5v-6h249v6q0 23 -6 38.5t-20.5 24.5t-37.5 12.5t-56 3.5z" />
    <glyph glyph-name="Racute" unicode="&#x154;" horiz-adv-x="868" 
d="M68 0zM264 242v-242h-196v731h458q55 0 105.5 -8.5t89.5 -33t62 -69.5t23 -117q0 -63 -18 -105t-50 -68q34 -17 53.5 -47.5t19.5 -80.5v-202h-196v180q0 35 -14.5 48.5t-61.5 13.5h-275zM618 480q0 28 -6.5 45.5t-18 27.5t-27 13.5t-33.5 3.5h-269v-181h269q18 0 33.5 4
t27 14t18 27.5t6.5 45.5zM412 961h173l-119 -190h-133z" />
    <glyph glyph-name="racute" unicode="&#x155;" horiz-adv-x="416" 
d="M62 0zM311 342q-38 0 -53.5 -10.5t-15.5 -34.5v-297h-180v306q0 43 12 73t38.5 48.5t69.5 27t106 8.5h107v-121h-84zM205 737h174l-95 -214h-133z" />
    <glyph glyph-name="Rcommaaccent" unicode="&#x156;" horiz-adv-x="868" 
d="M68 0zM264 242v-242h-196v731h458q55 0 105.5 -8.5t89.5 -33t62 -69.5t23 -117q0 -63 -18 -105t-50 -68q34 -17 53.5 -47.5t19.5 -80.5v-202h-196v180q0 35 -14.5 48.5t-61.5 13.5h-275zM618 480q0 28 -6.5 45.5t-18 27.5t-27 13.5t-33.5 3.5h-269v-181h269q18 0 33.5 4
t27 14t18 27.5t6.5 45.5zM514 -37l-46 -202h-125l4 202h167z" />
    <glyph glyph-name="rcommaaccent" unicode="&#x157;" horiz-adv-x="416" 
d="M62 0zM311 342q-38 0 -53.5 -10.5t-15.5 -34.5v-297h-180v306q0 43 12 73t38.5 48.5t69.5 27t106 8.5h107v-121h-84zM234 -37l-46 -202h-125l4 202h167z" />
    <glyph glyph-name="Rcaron" unicode="&#x158;" horiz-adv-x="868" 
d="M68 0zM264 242v-242h-196v731h458q55 0 105.5 -8.5t89.5 -33t62 -69.5t23 -117q0 -63 -18 -105t-50 -68q34 -17 53.5 -47.5t19.5 -80.5v-202h-196v180q0 35 -14.5 48.5t-61.5 13.5h-275zM618 480q0 28 -6.5 45.5t-18 27.5t-27 13.5t-33.5 3.5h-269v-181h269q18 0 33.5 4
t27 14t18 27.5t6.5 45.5zM497 771h-136l-167 190h131l104 -98l105 98h131z" />
    <glyph glyph-name="rcaron" unicode="&#x159;" horiz-adv-x="455" 
d="M0 0zM311 342q-38 0 -53.5 -10.5t-15.5 -34.5v-297h-180v306q0 43 12 73t38.5 48.5t69.5 27t106 8.5h107v-121h-84zM300 523h-140l-172 214h134l108 -111l107 111h135z" />
    <glyph glyph-name="Sacute" unicode="&#x15a;" horiz-adv-x="783" 
d="M37 0zM253 294q-62 0 -103.5 13.5t-66.5 41t-35.5 69t-10.5 97.5q0 54 10 94.5t34.5 67.5t66 40.5t105.5 13.5h467v-164h-427q-34 0 -47.5 -15t-13.5 -50t13.5 -49.5t47.5 -14.5h236q62 0 103.5 -13t66 -40t35 -68t10.5 -96t-10 -96.5t-35 -69t-66 -41.5t-104 -14h-485
v163h446q33 0 47 15.5t14 51.5q0 38 -14.5 51t-46.5 13h-237zM383 961h173l-119 -190h-133z" />
    <glyph glyph-name="sacute" unicode="&#x15b;" horiz-adv-x="585" 
d="M30 0zM194 187q-48 0 -79.5 8.5t-50 25.5t-26.5 43.5t-8 61.5q0 34 7.5 59.5t26 43t50.5 26t80 8.5h339v-111h-296q-23 0 -32.5 -7.5t-9.5 -27.5t9.5 -28.5t32.5 -8.5h150q48 0 79.5 -8.5t50 -26t26.5 -43.5t8 -61t-7.5 -61t-26 -44t-50.5 -27t-80 -9h-352v113h309
q23 0 32.5 8.5t9.5 28.5t-9 28.5t-33 8.5h-150zM262 737h174l-95 -214h-133z" />
    <glyph glyph-name="Scedilla" unicode="&#x15e;" horiz-adv-x="783" 
d="M37 0zM253 294q-62 0 -103.5 13.5t-66.5 41t-35.5 69t-10.5 97.5q0 54 10 94.5t34.5 67.5t66 40.5t105.5 13.5h467v-164h-427q-34 0 -47.5 -15t-13.5 -50t13.5 -49.5t47.5 -14.5h236q62 0 103.5 -13t66 -40t35 -68t10.5 -96t-10 -96.5t-35 -69t-66 -41.5t-104 -14h-485
v163h446q33 0 47 15.5t14 51.5q0 38 -14.5 51t-46.5 13h-237zM474 -37l-46 -202h-125l4 202h167z" />
    <glyph glyph-name="Scedilla" unicode="&#x218;" horiz-adv-x="783" 
d="M37 0zM253 294q-62 0 -103.5 13.5t-66.5 41t-35.5 69t-10.5 97.5q0 54 10 94.5t34.5 67.5t66 40.5t105.5 13.5h467v-164h-427q-34 0 -47.5 -15t-13.5 -50t13.5 -49.5t47.5 -14.5h236q62 0 103.5 -13t66 -40t35 -68t10.5 -96t-10 -96.5t-35 -69t-66 -41.5t-104 -14h-485
v163h446q33 0 47 15.5t14 51.5q0 38 -14.5 51t-46.5 13h-237zM474 -37l-46 -202h-125l4 202h167z" />
    <glyph glyph-name="scedilla" unicode="&#x15f;" horiz-adv-x="585" 
d="M30 0zM194 187q-48 0 -79.5 8.5t-50 25.5t-26.5 43.5t-8 61.5q0 34 7.5 59.5t26 43t50.5 26t80 8.5h339v-111h-296q-23 0 -32.5 -7.5t-9.5 -27.5t9.5 -28.5t32.5 -8.5h150q48 0 79.5 -8.5t50 -26t26.5 -43.5t8 -61t-7.5 -61t-26 -44t-50.5 -27t-80 -9h-352v113h309
q23 0 32.5 8.5t9.5 28.5t-9 28.5t-33 8.5h-150zM372 -37l-46 -202h-125l4 202h167z" />
    <glyph glyph-name="scedilla" unicode="&#x219;" horiz-adv-x="585" 
d="M30 0zM194 187q-48 0 -79.5 8.5t-50 25.5t-26.5 43.5t-8 61.5q0 34 7.5 59.5t26 43t50.5 26t80 8.5h339v-111h-296q-23 0 -32.5 -7.5t-9.5 -27.5t9.5 -28.5t32.5 -8.5h150q48 0 79.5 -8.5t50 -26t26.5 -43.5t8 -61t-7.5 -61t-26 -44t-50.5 -27t-80 -9h-352v113h309
q23 0 32.5 8.5t9.5 28.5t-9 28.5t-33 8.5h-150zM372 -37l-46 -202h-125l4 202h167z" />
    <glyph glyph-name="Scaron" unicode="&#x160;" horiz-adv-x="783" 
d="M37 0zM253 294q-62 0 -103.5 13.5t-66.5 41t-35.5 69t-10.5 97.5q0 54 10 94.5t34.5 67.5t66 40.5t105.5 13.5h467v-164h-427q-34 0 -47.5 -15t-13.5 -50t13.5 -49.5t47.5 -14.5h236q62 0 103.5 -13t66 -40t35 -68t10.5 -96t-10 -96.5t-35 -69t-66 -41.5t-104 -14h-485
v163h446q33 0 47 15.5t14 51.5q0 38 -14.5 51t-46.5 13h-237zM465 771h-136l-167 190h131l104 -98l105 98h131z" />
    <glyph glyph-name="scaron" unicode="&#x161;" horiz-adv-x="585" 
d="M30 0zM194 187q-48 0 -79.5 8.5t-50 25.5t-26.5 43.5t-8 61.5q0 34 7.5 59.5t26 43t50.5 26t80 8.5h339v-111h-296q-23 0 -32.5 -7.5t-9.5 -27.5t9.5 -28.5t32.5 -8.5h150q48 0 79.5 -8.5t50 -26t26.5 -43.5t8 -61t-7.5 -61t-26 -44t-50.5 -27t-80 -9h-352v113h309
q23 0 32.5 8.5t9.5 28.5t-9 28.5t-33 8.5h-150zM371 523h-140l-172 214h134l108 -111l107 111h135z" />
    <glyph glyph-name="Tcedilla" unicode="&#x162;" horiz-adv-x="747" 
d="M17 0zM276 573h-259v158h714v-158h-259v-573h-196v573zM457 -37l-46 -202h-125l4 202h167z" />
    <glyph glyph-name="Tcedilla" unicode="&#x21a;" horiz-adv-x="747" 
d="M17 0zM276 573h-259v158h714v-158h-259v-573h-196v573zM457 -37l-46 -202h-125l4 202h167z" />
    <glyph glyph-name="tcedilla" unicode="&#x163;" horiz-adv-x="468" 
d="M25 0zM25 463h86v164h179v-164h157v-121h-157v-170q0 -24 15.5 -34.5t53.5 -10.5h67v-127h-89q-63 0 -106 8.5t-70 27t-38.5 48.5t-11.5 73v185h-86v121zM337 -37l-46 -202h-125l4 202h167z" />
    <glyph glyph-name="tcedilla" unicode="&#x21b;" horiz-adv-x="468" 
d="M25 0zM25 463h86v164h179v-164h157v-121h-157v-170q0 -24 15.5 -34.5t53.5 -10.5h67v-127h-89q-63 0 -106 8.5t-70 27t-38.5 48.5t-11.5 73v185h-86v121zM337 -37l-46 -202h-125l4 202h167z" />
    <glyph glyph-name="Tcaron" unicode="&#x164;" horiz-adv-x="747" 
d="M17 0zM276 573h-259v158h714v-158h-259v-573h-196v573zM441 771h-136l-167 190h131l104 -98l105 98h131z" />
    <glyph glyph-name="tcaron" unicode="&#x165;" horiz-adv-x="523" 
d="M25 0zM25 463h86v164h179v-164h157v-121h-157v-170q0 -24 15.5 -34.5t53.5 -10.5h67v-127h-89q-63 0 -106 8.5t-70 27t-38.5 48.5t-11.5 73v185h-86v121zM554 731l-46 -202h-125l4 202h167z" />
    <glyph glyph-name="Tbar" unicode="&#x166;" horiz-adv-x="747" 
d="M106 371h170v202h-259v158h714v-158h-259v-202h169v-112h-169v-259h-196v259h-170v112z" />
    <glyph glyph-name="tbar" unicode="&#x167;" horiz-adv-x="468" 
d="M25 463h86v164h179v-164h157v-121h-157v-54h153v-86h-153v-30q0 -24 15.5 -34.5t53.5 -10.5h67v-127h-89q-63 0 -106 8.5t-70 27t-38.5 48.5t-11.5 73v45h-86v86h86v54h-86v121z" />
    <glyph glyph-name="Utilde" unicode="&#x168;" horiz-adv-x="844" 
d="M56 0zM389 0q-87 0 -150 16.5t-103.5 52t-60 90t-19.5 130.5v442h195v-442q0 -35 7 -60t23 -41t43 -23t68 -7h66q39 0 66 7t43.5 23t23.5 41t7 60v442h191v-442q0 -76 -19.5 -130.5t-60 -90t-104 -52t-150.5 -16.5h-66zM642 894q0 -59 -22 -85t-71 -26q-31 0 -58 8.5
t-51 19t-45.5 19.5t-39.5 9q-19 0 -31.5 -5.5t-12.5 -32.5v-16h-110v44q0 57 21.5 84t72.5 27q31 0 58.5 -9t51.5 -19.5t44.5 -19.5t38.5 -9q19 0 31.5 6.5t12.5 32.5v15h110v-43z" />
    <glyph glyph-name="utilde" unicode="&#x169;" horiz-adv-x="720" 
d="M62 0zM656 0h-328q-74 0 -125 11t-82.5 33.5t-45 58t-13.5 83.5v277h180v-255q0 -33 17 -48.5t69 -15.5h149v319h179v-463zM581 653q0 -58 -22 -84.5t-72 -26.5q-31 0 -58 8.5t-51 19t-45 19.5t-39 9t-31 -5t-13 -33v-15h-111v43q0 57 22 84t73 27q31 0 58.5 -9
t51.5 -19.5t44.5 -19t37.5 -8.5q21 0 32.5 7t11.5 31v15h111v-43z" />
    <glyph glyph-name="Umacron" unicode="&#x16a;" horiz-adv-x="844" 
d="M56 0zM389 0q-87 0 -150 16.5t-103.5 52t-60 90t-19.5 130.5v442h195v-442q0 -35 7 -60t23 -41t43 -23t68 -7h66q39 0 66 7t43.5 23t23.5 41t7 60v442h191v-442q0 -76 -19.5 -130.5t-60 -90t-104 -52t-150.5 -16.5h-66zM154 923h535v-112h-535v112z" />
    <glyph glyph-name="umacron" unicode="&#x16b;" horiz-adv-x="720" 
d="M62 0zM656 0h-328q-74 0 -125 11t-82.5 33.5t-45 58t-13.5 83.5v277h180v-255q0 -33 17 -48.5t69 -15.5h149v319h179v-463zM93 667h535v-112h-535v112z" />
    <glyph glyph-name="Uring" unicode="&#x16e;" horiz-adv-x="844" 
d="M56 0zM389 0q-87 0 -150 16.5t-103.5 52t-60 90t-19.5 130.5v442h195v-442q0 -35 7 -60t23 -41t43 -23t68 -7h66q39 0 66 7t43.5 23t23.5 41t7 60v442h191v-442q0 -76 -19.5 -130.5t-60 -90t-104 -52t-150.5 -16.5h-66zM421 897q-35 0 -45 -9.5t-10 -34.5q0 -24 10 -33.5
t45 -9.5t45 9.5t10 33.5q0 25 -10 34.5t-45 9.5zM421 746q-42 0 -68.5 6t-41 19t-20 33.5t-5.5 48.5t5.5 48.5t20 34t41 19.5t68.5 6t68.5 -6t41.5 -19.5t20.5 -34t5.5 -48.5t-5.5 -48.5t-20.5 -33.5t-41.5 -19t-68.5 -6z" />
    <glyph glyph-name="uring" unicode="&#x16f;" horiz-adv-x="720" 
d="M62 0zM656 0h-328q-74 0 -125 11t-82.5 33.5t-45 58t-13.5 83.5v277h180v-255q0 -33 17 -48.5t69 -15.5h149v319h179v-463zM360 686q-35 0 -45 -12t-10 -41t10 -41t45 -12t45 12t10 41t-10 41t-45 12zM360 506q-42 0 -68.5 7t-41.5 22.5t-20 39.5t-5 58t5 58t20 39.5
t41.5 22.5t68.5 7t68.5 -7t41 -22.5t20 -39.5t5.5 -58t-5.5 -58t-20 -39.5t-41 -22.5t-68.5 -7z" />
    <glyph glyph-name="Uhungarumlaut" unicode="&#x170;" horiz-adv-x="844" 
d="M56 0zM389 0q-87 0 -150 16.5t-103.5 52t-60 90t-19.5 130.5v442h195v-442q0 -35 7 -60t23 -41t43 -23t68 -7h66q39 0 66 7t43.5 23t23.5 41t7 60v442h191v-442q0 -76 -19.5 -130.5t-60 -90t-104 -52t-150.5 -16.5h-66zM509 961h157l-87 -190h-135zM273 961h157l-64 -190
h-135z" />
    <glyph glyph-name="uhungarumlaut" unicode="&#x171;" horiz-adv-x="720" 
d="M62 0zM656 0h-328q-74 0 -125 11t-82.5 33.5t-45 58t-13.5 83.5v277h180v-255q0 -33 17 -48.5t69 -15.5h149v319h179v-463zM454 737h157l-91 -214h-135zM218 737h157l-69 -214h-134z" />
    <glyph glyph-name="Uogonek" unicode="&#x172;" horiz-adv-x="844" 
d="M789 289q0 -141 -68.5 -210t-216.5 -78l-89 -53q-14 -6 -24 -15.5t-10 -22.5q0 -10 7 -18t21 -8h114v-123h-191q-59 0 -82 26.5t-23 62.5q0 46 31 74t76 51l49 25q-86 0 -148 17t-101.5 52.5t-58.5 90t-19 129.5v442h195v-442q0 -35 7 -60t23 -41t43 -23t68 -7h66
q39 0 66 7t43.5 23t23.5 41t7 60v442h191v-442v0z" />
    <glyph glyph-name="uogonek" unicode="&#x173;" horiz-adv-x="720" 
d="M328 0q-74 0 -125 11t-82.5 33.5t-45 58t-13.5 83.5v277h180v-255q0 -33 17 -48.5t69 -15.5h149v319h179v-463l-92 -52q-14 -6 -24 -15.5t-10 -22.5q0 -10 7 -18t21 -8h114v-123h-192q-29 0 -49 7t-32 19.5t-17.5 28.5t-5.5 34q0 46 31 74t76 51l51 25h-206z" />
    <glyph glyph-name="Wcircumflex" unicode="&#x174;" horiz-adv-x="1201" 
d="M11 0zM706 731l151 -482l139 482h194l-226 -731h-207l-154 514l-159 -514h-205l-228 731h203l137 -484l147 484h208zM532 961h136l168 -190h-131l-105 98l-104 -98h-131z" />
    <glyph glyph-name="wcircumflex" unicode="&#x175;" horiz-adv-x="880" 
d="M13 0zM543 463l84 -291l83 291h157l-144 -463h-185l-97 312l-98 -312h-187l-143 463h165l82 -290l93 290h190zM370 737h140l172 -214h-135l-108 111l-107 -111h-134z" />
    <glyph glyph-name="Ycircumflex" unicode="&#x176;" horiz-adv-x="818" 
d="M3 0zM505 320v-320h-196v322l-306 409h215l192 -256l193 256h212zM340 961h136l168 -190h-131l-105 98l-104 -98h-131z" />
    <glyph glyph-name="ycircumflex" unicode="&#x177;" horiz-adv-x="684" 
d="M9 0zM121 -84q27 0 47.5 3t37 10.5t30 21.5t25.5 37l-252 475h183l151 -309l151 309h181l-272 -525q-21 -40 -44 -68.5t-55 -46.5t-76 -26t-107 -8h-69v127h69zM271 737h140l172 -214h-135l-108 111l-107 -111h-134z" />
    <glyph glyph-name="Ydieresis" unicode="&#x178;" horiz-adv-x="818" 
d="M3 0zM505 320v-320h-196v322l-306 409h215l192 -256l193 256h212zM203 939h158v-147h-158v147zM456 939h157v-147h-157v147z" />
    <glyph glyph-name="Zacute" unicode="&#x179;" horiz-adv-x="785" 
d="M50 0zM472 573h-422v158h686v-144l-424 -429h424v-158h-686v153zM381 961h173l-119 -190h-133z" />
    <glyph glyph-name="zacute" unicode="&#x17a;" horiz-adv-x="591" 
d="M46 0zM323 342h-277v121h499v-111l-276 -225h276v-127h-499v123zM266 737h174l-95 -214h-133z" />
    <glyph glyph-name="Zdotaccent" unicode="&#x17b;" horiz-adv-x="785" 
d="M50 0zM472 573h-422v158h686v-144l-424 -429h424v-158h-686v153zM309 939h165v-147h-165v147z" />
    <glyph glyph-name="zdotaccent" unicode="&#x17c;" horiz-adv-x="591" 
d="M46 0zM323 342h-277v121h499v-111l-276 -225h276v-127h-499v123zM213 686h166v-146h-166v146z" />
    <glyph glyph-name="Zcaron" unicode="&#x17d;" horiz-adv-x="785" 
d="M50 0zM472 573h-422v158h686v-144l-424 -429h424v-158h-686v153zM466 771h-136l-167 190h131l104 -98l105 98h131z" />
    <glyph glyph-name="zcaron" unicode="&#x17e;" horiz-adv-x="591" 
d="M46 0zM323 342h-277v121h499v-111l-276 -225h276v-127h-499v123zM367 523h-140l-172 214h134l108 -111l107 111h135z" />
    <glyph glyph-name="uni0180" unicode="&#x180;" horiz-adv-x="704" 
d="M3 655h61v76h180v-76h294v-112h-294v-80h160q74 0 124 -12t80 -39t43 -71.5t13 -108.5q0 -65 -13 -109.5t-43 -71.5t-80 -39t-124 -12h-340v543h-61v112zM407 134q50 0 68 21.5t18 76.5t-18 76t-68 21h-163v-195h163z" />
    <glyph glyph-name="uni018F" unicode="&#x18f;" horiz-adv-x="853" 
d="M436 -15q-124 0 -202 21t-121.5 67t-59 118t-15.5 174v70h582q-4 43 -13.5 71t-26 43.5t-40.5 21.5t-56 6h-388v154h395q85 0 146.5 -14.5t101 -55t58 -112t18.5 -185.5q0 -112 -19 -185.5t-63.5 -116.5t-117 -60t-179.5 -17zM429 147q58 0 95 10t58.5 31.5t29.5 55
t10 79.5h-392q3 -50 13.5 -84t33 -54.5t59.5 -29t93 -8.5z" />
    <glyph glyph-name="uni018F" unicode="&#x4d8;" horiz-adv-x="853" 
d="M436 -15q-124 0 -202 21t-121.5 67t-59 118t-15.5 174v70h582q-4 43 -13.5 71t-26 43.5t-40.5 21.5t-56 6h-388v154h395q85 0 146.5 -14.5t101 -55t58 -112t18.5 -185.5q0 -112 -19 -185.5t-63.5 -116.5t-117 -60t-179.5 -17zM429 147q58 0 95 10t58.5 31.5t29.5 55
t10 79.5h-392q3 -50 13.5 -84t33 -54.5t59.5 -29t93 -8.5z" />
    <glyph glyph-name="florin" unicode="&#x192;" horiz-adv-x="505" 
d="M23 361h132v193q0 51 12.5 85t40.5 54.5t74 29t112 8.5h78v-130h-70q-37 0 -52.5 -12t-15.5 -49v-179h148v-121h-148v-274q0 -51 -12.5 -85t-41 -54.5t-74 -29t-112.5 -8.5h-77v130h69q38 0 53.5 11.5t15.5 49.5v260h-132v121z" />
    <glyph glyph-name="uni0194" unicode="&#x194;" horiz-adv-x="946" 
d="M474 -239q-58 0 -101 6t-71 23.5t-41.5 48t-13.5 80.5q0 32 4.5 59t14.5 53.5t26.5 56t40.5 65.5l34 51l-358 527h222l242 -366l243 366h222l-358 -527l34 -51q24 -36 40.5 -65t26.5 -56t14.5 -54t4.5 -59q0 -50 -13.5 -80.5t-41.5 -48t-70.5 -23.5t-100.5 -6zM473 48
l-23 -34q-12 -19 -19.5 -33t-11.5 -25.5t-5 -20t-1 -16.5q0 -32 12 -42.5t49 -10.5t49 10.5t12 42.5q0 16 -6.5 37t-31.5 58z" />
    <glyph glyph-name="uni019D" unicode="&#x19d;" horiz-adv-x="922" 
d="M77 731h232l363 -517v517h181v-731h-238l-356 501v-527q0 -51 -14 -86t-45.5 -57t-83 -32t-126.5 -10h-71v127h62q51 0 73.5 13.5t22.5 46.5v755z" />
    <glyph glyph-name="uni01A0" unicode="&#x1a0;" horiz-adv-x="924" 
d="M753 731q28 0 40.5 8t12.5 31v93h146v-96q0 -39 -9.5 -65.5t-31.5 -43t-57.5 -24t-87.5 -7.5q29 -46 39.5 -110t10.5 -152q0 -104 -15.5 -176t-58 -117.5t-118.5 -66t-197 -20.5t-197 20.5t-118.5 66t-58 117.5t-15.5 176q0 103 15.5 175.5t58 118t118.5 66t197 20.5
q51 0 92.5 -3.5t76.5 -10.5h157zM427 583q-63 0 -101.5 -11t-59.5 -36.5t-28 -67.5t-7 -103t7 -103t28 -67.5t59.5 -36.5t101.5 -11t101.5 11t59.5 36.5t28 67.5t7 103t-7 103t-28 67.5t-59.5 36.5t-101.5 11z" />
    <glyph glyph-name="uni01A1" unicode="&#x1a1;" horiz-adv-x="729" 
d="M558 463q29 0 41 9t12 30v91h146v-94q0 -29 -6 -54t-21 -43.5t-40 -29t-64 -10.5h-30q16 -24 20.5 -58t4.5 -72q0 -65 -11.5 -111t-43.5 -75.5t-88.5 -43t-147.5 -13.5q-90 0 -146.5 13.5t-88.5 43t-43.5 75.5t-11.5 111q0 64 11.5 110.5t43.5 75.5t88.5 43t146.5 14
q82 0 138 -12h90zM330 343q-41 0 -65.5 -6t-38 -19t-18 -34.5t-4.5 -51.5t4.5 -51.5t18 -35t38 -19.5t65.5 -6t65.5 6t38 19.5t18 35t4.5 51.5q0 31 -4.5 52.5t-18 34.5t-38.5 18.5t-65 5.5z" />
    <glyph glyph-name="uni01AF" unicode="&#x1af;" horiz-adv-x="984" 
d="M389 0q-87 0 -150 16.5t-103.5 52t-60 90t-19.5 130.5v442h195v-442q0 -35 7 -60t23.5 -41t43.5 -23t67 -7h66q40 0 66.5 7t43 23t23.5 41t7 60v442h215q28 0 40.5 8t12.5 31v93h146v-96q0 -39 -10 -66t-32.5 -43.5t-59 -23.5t-90.5 -7h-31v-338q0 -76 -19.5 -130.5
t-60 -90t-104 -52t-150.5 -16.5h-66z" />
    <glyph glyph-name="uni01B0" unicode="&#x1b0;" horiz-adv-x="815" 
d="M652 463q46 1 46 39v91h145v-94q0 -39 -9.5 -65.5t-31.5 -43t-58 -24t-88 -7.5v-359h-328q-74 0 -125 11t-82.5 33.5t-45 58t-13.5 83.5v277h180v-255q0 -34 18 -49t68 -15h149v319h175v0z" />
    <glyph glyph-name="uni01DD" unicode="&#x1dd;" horiz-adv-x="640" 
d="M107 347v116h210q89 0 144.5 -13.5t86 -42t41.5 -73t11 -107.5q0 -60 -10.5 -105t-41 -74.5t-86.5 -44.5t-147 -15q-88 0 -143 13.5t-86 41t-42.5 69.5t-11.5 98v58h405q-2 23 -9 38t-21 24t-37.5 13t-59.5 4h-203zM309 96q36 0 60 4t38.5 13.5t21 26t8.5 41.5h-248
q1 -25 7 -41.5t19.5 -26t36 -13.5t57.5 -4z" />
    <glyph glyph-name="uni01DD" unicode="&#x4d9;" horiz-adv-x="640" 
d="M107 347v116h210q89 0 144.5 -13.5t86 -42t41.5 -73t11 -107.5q0 -60 -10.5 -105t-41 -74.5t-86.5 -44.5t-147 -15q-88 0 -143 13.5t-86 41t-42.5 69.5t-11.5 98v58h405q-2 23 -9 38t-21 24t-37.5 13t-59.5 4h-203zM309 96q36 0 60 4t38.5 13.5t21 26t8.5 41.5h-248
q1 -25 7 -41.5t19.5 -26t36 -13.5t57.5 -4z" />
    <glyph glyph-name="uni01E7" unicode="&#x1e7;" horiz-adv-x="704" 
d="M40 0zM297 331q-50 0 -68.5 -22t-18.5 -78q0 -28 4 -47t14 -30.5t27 -16.5t42 -5h173v199h-173zM640 463v-489q0 -51 -13.5 -86t-45 -57t-82.5 -32t-125 -10h-167v127h168q51 0 73 14t22 46v31h-170q-74 0 -124 11.5t-80 38t-43 70t-13 107.5t13 108t43 71t80 38.5
t124 11.5h340zM424 523h-140l-172 214h134l108 -111l107 111h135z" />
    <glyph glyph-name="uni01F0" unicode="&#x1f0;" horiz-adv-x="426" 
d="M0 0zM33 -84q51 0 73 13.5t22 46.5v487h180v-489q0 -51 -13.5 -86t-45 -57t-82.5 -32t-125 -10h-70v127h61zM281 523h-140l-172 214h134l108 -111l107 111h135z" />
    <glyph glyph-name="uni01F4" unicode="&#x1f4;" horiz-adv-x="801" 
d="M38 0zM737 0h-375q-81 0 -142 14.5t-101.5 54.5t-60.5 111t-20 185t20 185t60.5 111.5t101.5 55t142 14.5h373v-161h-372q-37 0 -62 -9t-40.5 -32t-22.5 -62.5t-7 -101.5t7 -101.5t22.5 -62.5t40.5 -31.5t62 -8.5h202v219h172v-380zM421 961h173l-119 -190h-133z" />
    <glyph glyph-name="uni01F5" unicode="&#x1f5;" horiz-adv-x="704" 
d="M40 0zM297 331q-50 0 -68.5 -22t-18.5 -78q0 -28 4 -47t14 -30.5t27 -16.5t42 -5h173v199h-173zM640 463v-489q0 -51 -13.5 -86t-45 -57t-82.5 -32t-125 -10h-167v127h168q51 0 73 14t22 46v31h-170q-74 0 -124 11.5t-80 38t-43 70t-13 107.5t13 108t43 71t80 38.5
t124 11.5h340zM326 737h174l-95 -214h-133z" />
    <glyph glyph-name="uni01F8" unicode="&#x1f8;" horiz-adv-x="912" 
d="M68 0zM663 213v518h181v-731h-238l-356 500v-500h-182v731h232zM552 771h-133l-119 190h174z" />
    <glyph glyph-name="uni01F9" unicode="&#x1f9;" horiz-adv-x="726" 
d="M64 0zM64 463h334q74 0 125 -11t82.5 -33.5t45 -58t13.5 -83.5v-277h-180v255q0 34 -18 49t-68 15h-154v-319h-180v463zM446 523h-133l-94 214h174z" />
    <glyph glyph-name="dotlessj" unicode="&#x237;" horiz-adv-x="337" 
d="M0 -84q51 0 73 13.5t22 46.5v487h180v-489q0 -51 -13.5 -86t-45 -57t-82.5 -32t-125 -10h-70v127h61z" />
    <glyph glyph-name="uni0241" unicode="&#x241;" horiz-adv-x="593" 
d="M355 301q-23 0 -33 -11.5t-10 -38.5v-251h-196v299q0 60 30.5 96.5t102.5 36.5h98q29 0 39.5 16t10.5 53q0 38 -10.5 55t-39.5 17h-330v158h373q51 0 84.5 -13.5t53 -40.5t27.5 -67.5t8 -94.5q0 -56 -8 -96.5t-28 -66.5t-53.5 -38.5t-83.5 -12.5h-35z" />
    <glyph glyph-name="uni0242" unicode="&#x242;" horiz-adv-x="559" 
d="M337 139q-20 0 -28.5 -7.5t-8.5 -27.5v-104h-179v140q0 46 26.5 73.5t89.5 27.5h95q24 0 34 11t10 39t-10 39.5t-34 11.5h-299v121h338q45 0 74 -10t46 -30t24 -50.5t7 -70.5q0 -42 -7 -72.5t-24.5 -51t-46.5 -30t-73 -9.5h-34z" />
    <glyph glyph-name="uni024C" unicode="&#x24c;" horiz-adv-x="918" 
d="M3 389h115v342h458q55 0 105.5 -8.5t89.5 -33t62 -69.5t23 -117q0 -63 -18 -105t-50 -68q34 -17 53.5 -47.5t19.5 -80.5v-202h-196v180q0 35 -14.5 48.5t-61.5 13.5h-275v-242h-196v242h-115v147zM668 480q0 28 -6.5 45.5t-18 27.5t-27 13.5t-33.5 3.5h-269v-181h269
q18 0 33.5 4t27 14t18 27.5t6.5 45.5z" />
    <glyph glyph-name="uni024D" unicode="&#x24d;" horiz-adv-x="447" 
d="M16 258h77v48q0 43 12 73t38.5 48.5t69.5 27t106 8.5h107v-121h-84q-38 0 -53.5 -10.5t-15.5 -34.5v-39h152v-97h-152v-161h-180v161h-77v97z" />
    <glyph glyph-name="uni0263" unicode="&#x263;" horiz-adv-x="674" 
d="M336 -235q-43 0 -77 4.5t-57.5 17.5t-36 36t-12.5 60q0 44 16 81t45 83l38 60l-244 356h191l137 -220l138 220h191l-244 -355l38 -61q32 -51 46 -87.5t14 -74.5t-12.5 -61.5t-35.5 -36.5t-57.5 -17.5t-77.5 -4.5zM336 -15l-15 -22q-17 -24 -21.5 -39t-4.5 -27
q0 -19 8.5 -26t32.5 -7t32 7t8 26q0 12 -4 27t-21 39z" />
    <glyph glyph-name="uni0272" unicode="&#x272;" horiz-adv-x="733" 
d="M-24 -84q50 0 72.5 13.5t22.5 46.5v487h334q74 0 124.5 -11t82 -33.5t45 -58t13.5 -83.5v-277h-180v255q0 35 -17.5 49.5t-67.5 14.5h-155v-345q0 -51 -13.5 -86t-45 -57t-82 -32t-124.5 -10h-70v127h61z" />
    <glyph glyph-name="circumflex" unicode="&#x2c6;" horiz-adv-x="519" 
d="M189 737h140l172 -214h-135l-108 111l-107 -111h-134z" />
    <glyph glyph-name="caron" unicode="&#x2c7;" horiz-adv-x="519" 
d="M329 523h-140l-172 214h134l108 -111l107 111h135z" />
    <glyph glyph-name="breve" unicode="&#x2d8;" horiz-adv-x="510" 
d="M253 523q-63 0 -104.5 11t-66 35t-35 62t-10.5 92v14h99v-14q0 -27 5 -46t18.5 -31t36 -17.5t57.5 -5.5t58 5.5t36.5 17.5t18.5 31t5 46v14h99v-14q0 -54 -10.5 -92t-35 -62t-66.5 -35t-105 -11z" />
    <glyph glyph-name="dotaccent" unicode="&#x2d9;" horiz-adv-x="294" 
d="M64 686h166v-146h-166v146z" />
    <glyph glyph-name="ring" unicode="&#x2da;" horiz-adv-x="311" 
d="M155 686q-35 0 -45 -12t-10 -41t10 -41t45 -12t45 12t10 41t-10 41t-45 12zM155 506q-42 0 -68.5 7t-41.5 22.5t-20 39.5t-5 58t5 58t20 39.5t41.5 22.5t68.5 7t68.5 -7t41 -22.5t20 -39.5t5.5 -58t-5.5 -58t-20 -39.5t-41 -22.5t-68.5 -7z" />
    <glyph glyph-name="ogonek" unicode="&#x2db;" horiz-adv-x="346" 
d="M300 0l-92 -52q-14 -6 -24 -15.5t-10 -22.5q0 -10 7 -18t21 -8h114v-123h-192q-29 0 -49 7t-32 19.5t-17.5 28.5t-5.5 34q0 46 31 74t76 51l51 25h122z" />
    <glyph glyph-name="tilde" unicode="&#x2dc;" horiz-adv-x="510" 
d="M476 653q0 -58 -22 -84.5t-72 -26.5q-31 0 -58 8.5t-51 19t-45 19.5t-39 9t-31 -5t-13 -33v-15h-111v43q0 57 22 84t73 27q31 0 58.5 -9t51.5 -19.5t44.5 -19t37.5 -8.5q21 0 32.5 7t11.5 31v15h111v-43z" />
    <glyph glyph-name="hungarumlaut" unicode="&#x2dd;" horiz-adv-x="527" 
d="M326 737h157l-91 -214h-135zM90 737h157l-69 -214h-134z" />
    <glyph glyph-name="gravecomb" unicode="&#x300;" 
d="M-280 523zM-280 523h-133l-94 214h174z" />
    <glyph glyph-name="acutecomb" unicode="&#x301;" 
d="M-219 523zM-393 737h174l-95 -214h-133z" />
    <glyph glyph-name="uni0302" unicode="&#x302;" 
d="M-121 523zM-433 737h140l172 -214h-135l-108 111l-107 -111h-134z" />
    <glyph glyph-name="tildecomb" unicode="&#x303;" 
d="M-142 542zM-142 653q0 -58 -22 -84.5t-72 -26.5q-31 0 -58 8.5t-51 19t-45 19.5t-39 9t-31 -5t-13 -33v-15h-111v43q0 57 22 84t73 27q31 0 58.5 -9t51.5 -19.5t44.5 -19t37.5 -8.5q21 0 32.5 7t11.5 31v15h111v-43z" />
    <glyph glyph-name="uni0304" unicode="&#x304;" 
d="M-95 555zM-630 667h535v-112h-535v112z" />
    <glyph glyph-name="uni0306" unicode="&#x306;" 
d="M-146 523zM-363 523q-63 0 -104.5 11t-66 35t-35 62t-10.5 92v14h99v-14q0 -27 5 -46t18.5 -31t36 -17.5t57.5 -5.5t58 5.5t36.5 17.5t18.5 31t5 46v14h99v-14q0 -54 -10.5 -92t-35 -62t-66.5 -35t-105 -11z" />
    <glyph glyph-name="uni0307" unicode="&#x307;" 
d="M-280 540zM-446 686h166v-146h-166v146z" />
    <glyph glyph-name="uni0308" unicode="&#x308;" 
d="M-158 540zM-568 686h158v-146h-158v146zM-315 686h157v-146h-157v146z" />
    <glyph glyph-name="hookabovecomb" unicode="&#x309;" 
d="M-348 538q-22 0 -22 -23v-16h-79v29q0 34 16.5 53t55.5 19h42q14 0 20 6t6 24t-6 24.5t-20 6.5h-138v70h162q55 0 74.5 -23.5t19.5 -73.5q0 -51 -20 -73.5t-74 -22.5h-37z" />
    <glyph glyph-name="uni030A" unicode="&#x30a;" 
d="M-228 506zM-363 686q-35 0 -45 -12t-10 -41t10 -41t45 -12t45 12t10 41t-10 41t-45 12zM-363 506q-42 0 -68.5 7t-41.5 22.5t-20 39.5t-5 58t5 58t20 39.5t41.5 22.5t68.5 7t68.5 -7t41 -22.5t20 -39.5t5.5 -58t-5.5 -58t-20 -39.5t-41 -22.5t-68.5 -7z" />
    <glyph glyph-name="uni030B" unicode="&#x30b;" 
d="M-113 523zM-270 737h157l-91 -214h-135zM-506 737h157l-69 -214h-134z" />
    <glyph glyph-name="uni030C" unicode="&#x30c;" 
d="M-121 523zM-293 523h-140l-172 214h134l108 -111l107 111h135z" />
    <glyph glyph-name="uni0313" unicode="&#x313;" 
d="M-277 511zM-449 511v203q0 56 23.5 79.5t77.5 23.5h70v-71h-42q-24 0 -24 -23v-39h67v-173h-172z" />
    <glyph glyph-name="uni031B" unicode="&#x31b;" horiz-adv-x="73" 
d="M-93 463q55 0 55 37v101h146v-103q0 -38 -10 -64.5t-32.5 -43t-60 -24t-91.5 -7.5h-142v104h135z" />
    <glyph glyph-name="dotbelowcomb" unicode="&#x323;" 
d="M-280 -77zM-445 -77h165v-147h-165v147z" />
    <glyph glyph-name="uni0326" unicode="&#x326;" 
d="M-279 -37zM-279 -37l-46 -202h-125l4 202h167z" />
    <glyph glyph-name="uni0328" unicode="&#x328;" 
d="M-215 0zM-231 0l-92 -52q-14 -6 -24 -15.5t-10 -22.5q0 -10 7 -18t21 -8h114v-123h-192q-29 0 -49 7t-32 19.5t-17.5 28.5t-5.5 34q0 46 31 74t76 51l51 25h122z" />
    <glyph glyph-name="uni032D" unicode="&#x32d;" 
d="M-134 -49zM-438 -49h136l168 -190h-131l-105 98l-104 -98h-131z" />
    <glyph glyph-name="tonos" unicode="&#x384;" horiz-adv-x="184" 
d="M19 763h162l-33 -254h-129v254z" />
    <glyph glyph-name="dieresistonos" unicode="&#x385;" horiz-adv-x="603" 
d="M3 509zM3 686h166v-146h-166v146zM229 763h162l-33 -254h-129v254zM433 686h166v-146h-166v146z" />
    <glyph glyph-name="Alphatonos" unicode="&#x386;" horiz-adv-x="991" 
d="M20 0zM20 763h162l-33 -254h-129v254zM411 731h212l358 -731h-198l-67 142h-392l-67 -142h-204zM394 291h251l-126 266z" />
    <glyph glyph-name="anoteleia" unicode="&#x387;" horiz-adv-x="299" 
d="M63 341zM235 514v-173h-172v173h172z" />
    <glyph glyph-name="Epsilontonos" unicode="&#x388;" horiz-adv-x="954" 
d="M19 0zM19 763h162l-33 -254h-129v254zM896 295h-477v-137h481v-158h-677v731h675v-158h-479v-137h477v-141z" />
    <glyph glyph-name="Etatonos" unicode="&#x389;" horiz-adv-x="1032" 
d="M19 0zM19 763h162l-33 -254h-129v254zM964 731v-731h-196v285h-349v-285h-196v731h196v-285h349v285h196z" />
    <glyph glyph-name="Iotatonos" unicode="&#x38a;" horiz-adv-x="487" 
d="M19 0zM19 763h162l-33 -254h-129v254zM419 731v-731h-196v731h196z" />
    <glyph glyph-name="Omicrontonos" unicode="&#x38c;" horiz-adv-x="999" 
d="M19 0zM19 763h162l-33 -254h-129v254zM572 583q-63 0 -101.5 -11t-59.5 -36.5t-28 -67.5t-7 -103t7 -103t28 -67.5t59.5 -36.5t101.5 -11t101.5 11t59.5 36.5t28 67.5t7 103t-7 103t-28 67.5t-59.5 36.5t-101.5 11zM572 -15q-121 0 -197 20.5t-118.5 66t-58 117.5
t-15.5 176q0 103 15.5 175.5t58 118t118.5 66t197 20.5t197 -20.5t118.5 -66t58 -118t15.5 -175.5q0 -104 -15.5 -176t-58 -117.5t-118.5 -66t-197 -20.5z" />
    <glyph glyph-name="Upsilontonos" unicode="&#x38e;" horiz-adv-x="1004" 
d="M19 0zM19 763h162l-33 -254h-129v254zM691 320v-320h-196v322l-306 409h215l192 -256l193 256h212z" />
    <glyph glyph-name="Omegatonos" unicode="&#x38f;" horiz-adv-x="1009" 
d="M19 0zM19 763h162l-33 -254h-129v254zM577 583q-63 0 -101 -10.5t-57.5 -28.5t-25.5 -42.5t-6 -53.5q0 -41 4 -71t17.5 -61t39.5 -69t71 -94v-153h-326v158h152q-49 56 -79 96.5t-46 74t-21 64.5t-5 68q0 63 13 115t54 89.5t116 58.5t200 21q124 0 199.5 -20.5t116.5 -58
t54 -89.5t13 -115q0 -38 -5.5 -68.5t-21.5 -64t-46 -74t-79 -97.5h153v-158h-326v153q44 57 70 95.5t40 69t18 60t4 70.5q0 29 -6 53.5t-26 42.5t-57.5 28.5t-100.5 10.5z" />
    <glyph glyph-name="iotadieresistonos" unicode="&#x390;" horiz-adv-x="596" 
d="M0 0zM452 127v-127h-52q-55 0 -93 8.5t-62 27t-35 48.5t-11 73v306h180v-291q0 -25 12.5 -35t41.5 -10h19zM0 686h166v-146h-166v146zM218 763h162l-33 -254h-129v254zM417 686h166v-146h-166v146z" />
    <glyph glyph-name="Delta" unicode="&#x394;" horiz-adv-x="946" 
d="M9 0l358 731h212l358 -731h-928zM287 155h377l-189 401z" />
    <glyph glyph-name="Theta" unicode="&#x398;" horiz-adv-x="854" 
d="M427 583q-63 0 -101.5 -11t-59.5 -36.5t-28 -67.5t-7 -103t7 -103t28 -67.5t59.5 -36.5t101.5 -11t101.5 11t59.5 36.5t28 67.5t7 103t-7 103t-28 67.5t-59.5 36.5t-101.5 11zM427 -15q-121 0 -197 20.5t-118.5 66t-58 117.5t-15.5 176q0 103 15.5 175.5t58 118t118.5 66
t197 20.5t197 -20.5t118.5 -66t58 -118t15.5 -175.5q0 -104 -15.5 -176t-58 -117.5t-118.5 -66t-197 -20.5zM574 295h-289v141h289v-141z" />
    <glyph glyph-name="Lambda" unicode="&#x39b;" horiz-adv-x="946" 
d="M371 731h212l354 -731h-215l-246 533l-249 -533h-218z" />
    <glyph glyph-name="Xi" unicode="&#x39e;" horiz-adv-x="799" 
d="M54 0v158h691v-158h-691zM56 573v158h687v-158h-687zM58 295v141h683v-141h-683z" />
    <glyph glyph-name="Sigma" unicode="&#x3a3;" horiz-adv-x="770" 
d="M472 330l-171 -172h423v-158h-678v143l219 228l-219 217v143h674v-158h-419l171 -157v-86z" />
    <glyph glyph-name="Psi" unicode="&#x3a8;" horiz-adv-x="996" 
d="M593 731v-370h10q43 0 72 7t47 23t25.5 40.5t7.5 60.5v239h187v-229q0 -76 -19.5 -130.5t-60.5 -90t-105 -52t-154 -16.5h-10v-213h-186v213h-9q-91 0 -156 16.5t-107 52t-61.5 90t-19.5 130.5v229h192v-239q0 -36 7.5 -60.5t25.5 -40.5t47 -23t72 -7h9v370h186z" />
    <glyph glyph-name="Omega" unicode="&#x3a9;" horiz-adv-x="864" 
d="M432 583q-63 0 -101 -10.5t-57.5 -28.5t-25.5 -42.5t-6 -53.5q0 -41 4 -71t17.5 -61t39.5 -69t71 -94v-153h-326v158h152q-49 56 -79 96.5t-46 74t-21 64.5t-5 68q0 63 13 115t54 89.5t116 58.5t200 21q124 0 199.5 -20.5t116.5 -58t54 -89.5t13 -115q0 -38 -5.5 -68.5
t-21.5 -64t-46 -74t-79 -97.5h153v-158h-326v153q44 57 70 95.5t40 69t18 60t4 70.5q0 29 -6 53.5t-26 42.5t-57.5 28.5t-100.5 10.5z" />
    <glyph glyph-name="Upsilondieresis" unicode="&#x3ab;" horiz-adv-x="818" 
d="M3 0zM505 320v-320h-196v322l-306 409h215l192 -256l193 256h212zM203 939h158v-147h-158v147zM456 939h157v-147h-157v147z" />
    <glyph glyph-name="alphatonos" unicode="&#x3ac;" horiz-adv-x="691" 
d="M40 0zM617 463v-336h57v-127h-374q-74 0 -124 12t-80 39t-43 71.5t-13 109.5q0 64 13 108.5t43 71.5t80 39t124 12h317zM445 134v195h-148q-49 0 -67.5 -20.5t-18.5 -76.5t18.5 -77t67.5 -21h148zM284 763h162l-33 -254h-129v254z" />
    <glyph glyph-name="epsilontonos" unicode="&#x3ad;" horiz-adv-x="579" 
d="M38 0zM537 103v-103h-289q-46 0 -84.5 5.5t-66.5 20t-43.5 41t-15.5 68.5t14 66t39 38q-20 14 -31 36.5t-11 58.5q0 40 15 65t41 39t62.5 19.5t80.5 5.5h289v-103h-269q-24 0 -39 -8t-15 -33q0 -26 14.5 -33t39.5 -7h263v-89h-267q-25 0 -39.5 -7.5t-14.5 -34.5t15.5 -36
t38.5 -9h273zM239 763h162l-33 -254h-129v254z" />
    <glyph glyph-name="etatonos" unicode="&#x3ae;" horiz-adv-x="726" 
d="M15 0zM484 255q0 35 -18.5 49.5t-67.5 14.5h-148v-319h-179v336h-56v127h383q74 0 125 -11t82.5 -33.5t45 -58t13.5 -83.5v-488h-180v466zM287 763h162l-33 -254h-129v254z" />
    <glyph glyph-name="iotatonos" unicode="&#x3af;" horiz-adv-x="332" 
d="M62 0zM315 127v-127h-52q-55 0 -93 8.5t-62 27t-35 48.5t-11 73v306h180v-291q0 -25 12.5 -35t41.5 -10h19zM88 763h162l-33 -254h-129v254z" />
    <glyph glyph-name="upsilondieresistonos" unicode="&#x3b0;" horiz-adv-x="715" 
d="M17 0zM250 223q0 -59 26.5 -81t92.5 -22q33 0 56 5t37 17t20 31.5t6 49.5v240h165v-262q0 -60 -16 -100.5t-50.5 -65t-90 -35.5t-133.5 -11t-133.5 11t-91 35.5t-51.5 65t-16 100.5v108q0 14 -9.5 20.5t-24.5 6.5h-20v127h53q96 0 138 -31.5t42 -108.5v-100zM68 686h166
v-146h-166v146zM286 763h162l-33 -254h-129v254zM485 686h166v-146h-166v146z" />
    <glyph glyph-name="alpha" unicode="&#x3b1;" horiz-adv-x="691" 
d="M617 463v-336h57v-127h-374q-74 0 -124 12t-80 39t-43 71.5t-13 109.5q0 64 13 108.5t43 71.5t80 39t124 12h317zM445 134v195h-148q-49 0 -67.5 -20.5t-18.5 -76.5t18.5 -77t67.5 -21h148z" />
    <glyph glyph-name="beta" unicode="&#x3b2;" horiz-adv-x="704" 
d="M581 524q0 -78 -28 -118q52 -19 83 -63.5t31 -128.5q0 -67 -21.5 -109t-59.5 -65t-90.5 -31.5t-115.5 -8.5h-136v-211h-180v765q0 50 13 84t41.5 54.5t73 29.5t107.5 9h53q55 0 97.5 -9.5t71.5 -33t44.5 -63.5t15.5 -101zM244 134h163q47 0 67.5 20t20.5 74q0 29 -5 48
t-15.5 30t-28 15.5t-42.5 4.5h-81v118h40q31 0 44.5 16t13.5 59q0 46 -17.5 65.5t-63.5 19.5h-20q-39 0 -57.5 -13t-18.5 -48v-409z" />
    <glyph glyph-name="gamma" unicode="&#x3b3;" horiz-adv-x="664" 
d="M423 0v-211h-179v211l-160 306q-10 19 -20 24.5t-38 5.5h-9v127h69q63 0 93.5 -21.5t46.5 -58.5l107 -249l141 329h181z" />
    <glyph glyph-name="delta" unicode="&#x3b4;" horiz-adv-x="661" 
d="M40 215q0 40 4.5 70t15.5 52.5t28 38.5t43 28q-25 24 -33.5 61t-8.5 86q0 51 8.5 85.5t27.5 55.5t50.5 30t76.5 9h282v-127h-234q-26 0 -36.5 -13.5t-10.5 -51.5q0 -35 11.5 -49.5t46.5 -14.5h28q78 0 132 -11.5t87 -40t48 -76.5t15 -122q0 -62 -12 -107t-44 -73.5
t-88.5 -42t-146.5 -13.5q-89 0 -145.5 13.5t-88.5 41t-44 70t-12 101.5zM252 367q-28 -21 -38 -52.5t-10 -82.5q0 -29 4 -50.5t17.5 -35t38 -20t66.5 -6.5t66.5 6.5t38 20.5t17.5 35t4 51q0 35 -5.5 60t-19.5 41.5t-38 24.5t-61 8h-80z" />
    <glyph glyph-name="epsilon" unicode="&#x3b5;" horiz-adv-x="579" 
d="M537 103v-103h-289q-46 0 -84.5 5.5t-66.5 20t-43.5 41t-15.5 68.5t14 66t39 38q-20 14 -31 36.5t-11 58.5q0 40 15 65t41 39t62.5 19.5t80.5 5.5h289v-103h-269q-24 0 -39 -8t-15 -33q0 -26 14.5 -33t39.5 -7h263v-89h-267q-25 0 -39.5 -7.5t-14.5 -34.5t15.5 -36
t38.5 -9h273z" />
    <glyph glyph-name="zeta" unicode="&#x3b6;" horiz-adv-x="580" 
d="M266 367q-16 -14 -26.5 -27.5t-17 -28.5t-9 -33t-2.5 -42q0 -29 4 -48.5t13.5 -31.5t25 -17t39.5 -5h77q38 0 68.5 -8t51.5 -27t32.5 -49.5t11.5 -76.5v-184h-163v165q0 26 -13.5 36t-36.5 10h-45q-65 0 -110 12t-73 39t-40.5 71.5t-12.5 109.5q0 38 4.5 67.5t17 56.5
t34.5 53t58 56l170 144h-258v122h474v-112z" />
    <glyph glyph-name="eta" unicode="&#x3b7;" horiz-adv-x="726" 
d="M484 255q0 35 -18.5 49.5t-67.5 14.5h-148v-319h-179v336h-56v127h383q74 0 125 -11t82.5 -33.5t45 -58t13.5 -83.5v-488h-180v466z" />
    <glyph glyph-name="theta" unicode="&#x3b8;" horiz-adv-x="707" 
d="M353 -11q-149 0 -219.5 55t-70.5 182v279q0 127 70.5 182t219.5 55q148 0 219 -55t71 -182v-279q0 -127 -71 -182t-219 -55zM232 434h243v69q0 32 -6.5 53t-21 33.5t-38 17.5t-56.5 5t-56 -5t-37.5 -17.5t-21 -33.5t-6.5 -53v-69zM353 120q33 0 56.5 5t38 17t21 33
t6.5 53v69h-243v-69q0 -32 6.5 -53t21 -33t37.5 -17t56 -5z" />
    <glyph glyph-name="iota" unicode="&#x3b9;" horiz-adv-x="332" 
d="M315 127v-127h-52q-55 0 -93 8.5t-62 27t-35 48.5t-11 73v306h180v-291q0 -25 12.5 -35t41.5 -10h19z" />
    <glyph glyph-name="lambda" unicode="&#x3bb;" horiz-adv-x="684" 
d="M76 604v127h31q61 0 105 -9t75.5 -27.5t54.5 -48t43 -70.5l290 -576h-185l-153 320l-149 -320h-179l248 489l-12 26q-12 25 -25 42t-28.5 27.5t-35.5 15t-47 4.5h-33z" />
    <glyph glyph-name="mu" unicode="&#x3bc;" horiz-adv-x="722" 
d="M648 127h57v-127h-359q-32 0 -58.5 3.5t-50.5 9.5l8 -221h-180v671h180v-249q0 -33 17.5 -51.5t71.5 -18.5h134v319h180v-336z" />
    <glyph glyph-name="nu" unicode="&#x3bd;" horiz-adv-x="664" 
d="M425 0h-193l-148 306q-10 19 -20 24.5t-38 5.5h-9v127h69q31 0 54 -5.5t39.5 -16t27.5 -25.5t19 -33l103 -238l145 318h181z" />
    <glyph glyph-name="xi" unicode="&#x3be;" horiz-adv-x="580" 
d="M389 349h-96q-44 0 -63 -21.5t-19 -79.5q0 -57 18.5 -85.5t63.5 -28.5h77q79 0 121.5 -36.5t42.5 -124.5v-184h-163v165q0 26 -13 36t-37 10h-45q-63 0 -108 12t-73.5 38.5t-41.5 69.5t-13 105q0 75 17.5 119t49.5 67q-24 20 -36.5 53t-12.5 85q0 53 13.5 88t40 56
t64 29.5t85.5 8.5h253v-127h-238q-32 0 -46.5 -16t-14.5 -51q0 -37 14.5 -53t46.5 -16h113v-119z" />
    <glyph glyph-name="pi" unicode="&#x3c0;" horiz-adv-x="764" 
d="M17 463h730v-121h-105v-170q0 -25 12.5 -35t41.5 -10h19v-127h-52q-54 0 -92.5 8.5t-62.5 27t-35 48.5t-11 73v185h-172v-342h-179v342h-94v121z" />
    <glyph glyph-name="rho" unicode="&#x3c1;" horiz-adv-x="682" 
d="M477 232q0 31 -5 52t-18.5 34t-38.5 19t-65 6q-58 0 -83.5 -24.5t-25.5 -86.5v-98h144q50 0 71 21.5t21 76.5zM641 232q0 -65 -12.5 -109t-42.5 -71.5t-80 -39.5t-125 -12h-140v-211h-180v443q0 64 11.5 110.5t43 75.5t88 43t146.5 14q91 0 147.5 -14t88.5 -43
t43.5 -75.5t11.5 -110.5z" />
    <glyph glyph-name="sigma1" unicode="&#x3c2;" horiz-adv-x="580" 
d="M276 0q-65 0 -110 12.5t-73 40t-40.5 72t-12.5 107.5q0 64 13 108t43 71.5t80 39.5t124 12h238v-134h-241q-50 0 -68 -21.5t-18 -75.5q0 -53 17 -75.5t65 -22.5h77q79 0 121.5 -36.5t42.5 -124.5v-184h-163v165q0 26 -13 36t-37 10h-45z" />
    <glyph glyph-name="sigma" unicode="&#x3c3;" horiz-adv-x="686" 
d="M572 336q27 -53 27 -135q0 -58 -14.5 -98.5t-47.5 -65.5t-86 -36.5t-129 -11.5q-87 0 -142 14t-86 43.5t-42.5 75.5t-11.5 111q0 64 11.5 108t43.5 71t88.5 39t146.5 12h340v-127h-98zM441 223q0 39 -7 66t-21 47h-83q-40 0 -65 -5t-38.5 -16.5t-18 -31.5t-4.5 -50
t4.5 -51t17.5 -35t37 -20.5t62 -6.5q35 0 57.5 5.5t35.5 18t18 32t5 47.5z" />
    <glyph glyph-name="tau" unicode="&#x3c4;" horiz-adv-x="607" 
d="M386 336v-164q0 -25 12.5 -35t41.5 -10h19v-127h-52q-54 0 -92 8.5t-62 27t-35 48.5t-11 73v179h-190v127h573v-127h-204z" />
    <glyph glyph-name="upsilon" unicode="&#x3c5;" horiz-adv-x="715" 
d="M250 223q0 -59 26.5 -81t92.5 -22q33 0 56 5t37 17t20 31.5t6 49.5v240h165v-262q0 -60 -16 -100.5t-50.5 -65t-90 -35.5t-133.5 -11t-133.5 11t-91 35.5t-51.5 65t-16 100.5v108q0 14 -9.5 20.5t-24.5 6.5h-20v127h53q96 0 138 -31.5t42 -108.5v-100z" />
    <glyph glyph-name="chi" unicode="&#x3c7;" horiz-adv-x="660" 
d="M324 2l-133 -213h-186l228 352l-110 169q-11 16 -22.5 21t-37.5 5h-46v127h106q32 0 54 -5.5t38 -15.5t27 -23.5t22 -29.5l74 -114l127 188h186l-222 -327l226 -347h-191z" />
    <glyph glyph-name="psi" unicode="&#x3c8;" horiz-adv-x="907" 
d="M372 -6q-93 3 -151.5 15.5t-91.5 37t-45.5 62.5t-12.5 92v108q0 14 -10 20.5t-24 6.5h-20v127h53q94 0 137 -31.5t43 -108.5v-117q0 -23 4.5 -39t17.5 -26t37 -15t63 -7v453h173v-454q43 2 69.5 7t41 15.5t19 26.5t4.5 39v257h165v-262q0 -54 -12 -92t-45 -62.5t-91 -37
t-151 -15.5v-205h-173v205z" />
    <glyph glyph-name="omega" unicode="&#x3c9;" horiz-adv-x="903" 
d="M629 -11q-66 0 -107.5 17t-65.5 46q-25 -29 -67.5 -46t-108.5 -17q-60 0 -101.5 14.5t-67.5 40.5t-37.5 62t-11.5 79v278h175v-272q0 -35 17 -53t62 -18q42 0 55.5 17t13.5 54v145h144v-145q0 -37 13.5 -54t54.5 -17q45 0 62 18t17 53v272h164v-278q0 -43 -10.5 -79
t-35 -62t-65 -40.5t-100.5 -14.5z" />
    <glyph glyph-name="iotadieresis" unicode="&#x3ca;" horiz-adv-x="425" 
d="M0 0zM366 127v-127h-52q-55 0 -93 8.5t-62 27t-35 48.5t-11 73v306h180v-291q0 -25 12.5 -35t41.5 -10h19zM0 686h158v-146h-158v146zM253 686h157v-146h-157v146z" />
    <glyph glyph-name="upsilondieresis" unicode="&#x3cb;" horiz-adv-x="715" 
d="M17 0zM250 223q0 -59 26.5 -81t92.5 -22q33 0 56 5t37 17t20 31.5t6 49.5v240h165v-262q0 -60 -16 -100.5t-50.5 -65t-90 -35.5t-133.5 -11t-133.5 11t-91 35.5t-51.5 65t-16 100.5v108q0 14 -9.5 20.5t-24.5 6.5h-20v127h53q96 0 138 -31.5t42 -108.5v-100zM160 686h158
v-146h-158v146zM413 686h157v-146h-157v146z" />
    <glyph glyph-name="omicrontonos" unicode="&#x3cc;" horiz-adv-x="661" 
d="M40 0zM330 343q-41 0 -65.5 -6t-38 -19t-18 -34.5t-4.5 -51.5t4.5 -51.5t18 -35t38 -19.5t65.5 -6q40 0 65 6t38.5 19.5t18 35t4.5 51.5t-4.5 51.5t-18 34.5t-38.5 19t-65 6zM330 -11q-90 0 -147 13.5t-88.5 43t-43 75.5t-11.5 111q0 64 11.5 110.5t43.5 75.5t88.5 43
t146.5 14q91 0 147.5 -14t88.5 -43t43.5 -75.5t11.5 -110.5q0 -65 -11.5 -111t-43.5 -75.5t-88.5 -43t-147.5 -13.5zM260 763h162l-33 -254h-129v254z" />
    <glyph glyph-name="upsilontonos" unicode="&#x3cd;" horiz-adv-x="715" 
d="M17 0zM250 223q0 -59 26.5 -81t92.5 -22q33 0 56 5t37 17t20 31.5t6 49.5v240h165v-262q0 -60 -16 -100.5t-50.5 -65t-90 -35.5t-133.5 -11t-133.5 11t-91 35.5t-51.5 65t-16 100.5v108q0 14 -9.5 20.5t-24.5 6.5h-20v127h53q96 0 138 -31.5t42 -108.5v-100zM289 763h162
l-33 -254h-129v254z" />
    <glyph glyph-name="omegatonos" unicode="&#x3ce;" horiz-adv-x="903" 
d="M62 0zM629 -11q-66 0 -107.5 17t-65.5 46q-25 -29 -67.5 -46t-108.5 -17q-60 0 -101.5 14.5t-67.5 40.5t-37.5 62t-11.5 79v278h175v-272q0 -35 17 -53t62 -18q42 0 55.5 17t13.5 54v145h144v-145q0 -37 13.5 -54t54.5 -17q45 0 62 18t17 53v272h164v-278
q0 -43 -10.5 -79t-35 -62t-65 -40.5t-100.5 -14.5zM386 763h162l-33 -254h-129v254z" />
    <glyph glyph-name="uni0402" unicode="&#x402;" horiz-adv-x="1005" 
d="M758 169q0 71 -33.5 101t-119.5 30h-120v-300h-197v573h-271v158h735v-158h-267v-125h124q91 0 156.5 -16.5t107.5 -52t61.5 -90t19.5 -130.5v-127q0 -68 -14.5 -114t-49 -75t-91.5 -41.5t-142 -12.5h-100v138h102q57 0 78 23t21 82v137z" />
    <glyph glyph-name="uni0403" unicode="&#x403;" horiz-adv-x="733" 
d="M68 0zM264 0h-196v731h648v-158h-452v-573zM369 961h173l-119 -190h-133z" />
    <glyph glyph-name="uni0404" unicode="&#x404;" horiz-adv-x="758" 
d="M507 295h-273q4 -40 13 -66.5t24.5 -42t38 -22t53.5 -6.5h342v-158h-343q-81 0 -142 14.5t-101.5 54.5t-60.5 111t-20 185t20 185t60.5 111.5t101.5 55t142 14.5h341v-158h-340q-31 0 -53.5 -6.5t-38 -22t-24.5 -42t-13 -66.5h273v-141z" />
    <glyph glyph-name="uni0409" unicode="&#x409;" horiz-adv-x="1370" 
d="M803 506h253q54 0 105 -9t91 -36t64 -76t24 -129t-23.5 -129.5t-63 -78t-91 -38.5t-106.5 -10h-449v573h-214l-26 -263q-9 -88 -29.5 -147.5t-52.5 -95.5t-77 -51.5t-102 -15.5h-89v158h60q25 0 45 6.5t34.5 25t24.5 53t15 90.5l40 398h567v-225zM803 350v-189h258
q17 0 32.5 4t27.5 14.5t19 29t7 47.5t-7 47.5t-19 29t-27.5 14t-32.5 3.5h-258z" />
    <glyph glyph-name="uni040A" unicode="&#x40a;" horiz-adv-x="1376" 
d="M809 506h252q54 0 105.5 -9t91.5 -36t64 -76t24 -129t-23.5 -129.5t-63.5 -78t-91.5 -38.5t-106.5 -10h-448v344h-349v-344h-196v731h196v-225h349v225h196v-225zM1153 256q0 29 -7 47.5t-19 29t-27.5 14t-32.5 3.5h-258v-189h258q17 0 32.5 4t27.5 14.5t19 29t7 47.5z
" />
    <glyph glyph-name="uni040B" unicode="&#x40b;" horiz-adv-x="1005" 
d="M485 448h124q91 0 156.5 -16.5t107.5 -52t61.5 -90t19.5 -130.5v-159h-196v169q0 35 -7.5 60t-25.5 40.5t-47.5 23t-72.5 7.5h-120v-300h-197v573h-271v158h735v-158h-267v-125z" />
    <glyph glyph-name="uni040C" unicode="&#x40c;" horiz-adv-x="828" 
d="M68 0zM560 379l254 -379h-218l-206 298h-126v-298h-196v731h196v-296h126l209 296h207zM395 961h173l-119 -190h-133z" />
    <glyph glyph-name="uni040D" unicode="&#x40d;" horiz-adv-x="877" 
d="M68 0zM250 214l362 517h197v-731h-181v503l-363 -503h-197v731h182v-517zM533 771h-133l-119 190h174z" />
    <glyph glyph-name="uni040E" unicode="&#x40e;" horiz-adv-x="801" 
d="M3 0zM91 158h65q28 0 48 3t35 11t26.5 21t23.5 33l6 10l-292 495h213l179 -325l192 325h211l-353 -594q-23 -39 -45.5 -65.5t-50.5 -42.5t-65.5 -22.5t-90.5 -6.5h-102v158zM395 771q-63 0 -104.5 9.5t-66.5 31t-35 55.5t-10 82v12h99v-12q0 -24 5 -41t18.5 -27.5t36 -15
t57.5 -4.5t58 4.5t36 15t18 27.5t5 41v12h100v-12q0 -48 -10.5 -82t-35 -55.5t-66.5 -31t-105 -9.5z" />
    <glyph glyph-name="uni040F" unicode="&#x40f;" horiz-adv-x="877" 
d="M354 0h-286v731h196v-573h349v573h196v-731h-286v-211h-169v211z" />
    <glyph glyph-name="uni0411" unicode="&#x411;" horiz-adv-x="831" 
d="M264 465h252q54 0 105.5 -6.5t91.5 -30t64 -68t24 -120.5t-23.5 -123t-63.5 -73t-91.5 -35t-106.5 -9h-448v731h608v-158h-412v-108zM608 246q0 25 -7 41t-18.5 25t-27 12t-33.5 3h-258v-166h258q18 0 33.5 3.5t27 13t18.5 26t7 42.5z" />
    <glyph glyph-name="uni0413" unicode="&#x393;" horiz-adv-x="733" 
d="M264 0h-196v731h648v-158h-452v-573z" />
    <glyph glyph-name="uni0413" unicode="&#x413;" horiz-adv-x="733" 
d="M264 0h-196v731h648v-158h-452v-573z" />
    <glyph glyph-name="uni0414" unicode="&#x414;" horiz-adv-x="986" 
d="M797 0h-607v-211h-169v369h95q23 1 41 8.5t31.5 26.5t22.5 53t14 87l40 398h567v-573h134v-369h-169v211zM396 310q-5 -46 -12.5 -83.5t-18.5 -68.5h271v415h-214z" />
    <glyph glyph-name="uni0416" unicode="&#x416;" horiz-adv-x="1110" 
d="M461 298h-29l-200 -298h-219l250 380l-241 351h207l204 -296h28v296h188v-296h29l203 296h207l-242 -351l250 -380h-218l-200 298h-29v-298h-188v298z" />
    <glyph glyph-name="uni0417" unicode="&#x417;" horiz-adv-x="770" 
d="M461 158q34 0 57 14.5t23 55.5t-22.5 55t-55.5 14h-136v141h129q17 0 31.5 2.5t25 10t16.5 20.5t6 33q0 39 -23 54t-58 15h-406v158h401q59 0 108.5 -8.5t85.5 -31t56 -61.5t20 -101q0 -57 -17 -93.5t-46 -57.5q36 -21 57 -60t21 -105t-21 -107.5t-59 -65t-90.5 -32
t-114.5 -8.5h-403v158h415z" />
    <glyph glyph-name="uni0418" unicode="&#x418;" horiz-adv-x="877" 
d="M250 214l362 517h197v-731h-181v503l-363 -503h-197v731h182v-517z" />
    <glyph glyph-name="uni0419" unicode="&#x419;" horiz-adv-x="877" 
d="M68 0zM250 214l362 517h197v-731h-181v503l-363 -503h-197v731h182v-517zM438 771q-63 0 -104.5 9.5t-66.5 31t-35 55.5t-10 82v12h99v-12q0 -24 5 -41t18.5 -27.5t36 -15t57.5 -4.5t58 4.5t36 15t18 27.5t5 41v12h100v-12q0 -48 -10.5 -82t-35 -55.5t-66.5 -31
t-105 -9.5z" />
    <glyph glyph-name="uni041B" unicode="&#x41b;" horiz-adv-x="872" 
d="M803 731v-731h-196v573h-214l-26 -263q-9 -88 -29.5 -147.5t-52.5 -95.5t-77 -51.5t-102 -15.5h-89v158h60q25 0 45 6.5t34.5 25t24.5 53t15 90.5l40 398h567z" />
    <glyph glyph-name="uni041F" unicode="&#x3a0;" horiz-adv-x="877" 
d="M809 731v-731h-196v573h-349v-573h-196v731h741z" />
    <glyph glyph-name="uni041F" unicode="&#x41f;" horiz-adv-x="877" 
d="M809 731v-731h-196v573h-349v-573h-196v731h741z" />
    <glyph glyph-name="uni0423" unicode="&#x423;" horiz-adv-x="801" 
d="M91 158h65q28 0 48 3t35 11t26.5 21t23.5 33l6 10l-292 495h213l179 -325l192 325h211l-353 -594q-23 -39 -45.5 -65.5t-50.5 -42.5t-65.5 -22.5t-90.5 -6.5h-102v158z" />
    <glyph glyph-name="uni0424" unicode="&#x3a6;" horiz-adv-x="955" 
d="M571 731v-97q118 -5 188.5 -22t107 -49.5t47.5 -81.5t11 -116q0 -68 -11 -116.5t-47.5 -81t-107 -50t-188.5 -21.5v-96h-187v96q-119 4 -189 21.5t-106.5 50t-47.5 81t-11 116.5q0 45 4.5 81.5t17.5 65.5t36.5 50.5t63 36.5t96.5 23.5t136 11.5v97h187zM218 365
q0 -37 4.5 -62t21 -40.5t49.5 -23.5t91 -11v273q-58 -3 -91 -10.5t-49.5 -23.5t-21 -40.5t-4.5 -61.5zM737 365q0 37 -4.5 61.5t-21.5 40.5t-50 23.5t-90 10.5v-273q57 3 90 11t50 23.5t21.5 40.5t4.5 62z" />
    <glyph glyph-name="uni0424" unicode="&#x424;" horiz-adv-x="955" 
d="M571 731v-97q118 -5 188.5 -22t107 -49.5t47.5 -81.5t11 -116q0 -68 -11 -116.5t-47.5 -81t-107 -50t-188.5 -21.5v-96h-187v96q-119 4 -189 21.5t-106.5 50t-47.5 81t-11 116.5q0 45 4.5 81.5t17.5 65.5t36.5 50.5t63 36.5t96.5 23.5t136 11.5v97h187zM218 365
q0 -37 4.5 -62t21 -40.5t49.5 -23.5t91 -11v273q-58 -3 -91 -10.5t-49.5 -23.5t-21 -40.5t-4.5 -61.5zM737 365q0 37 -4.5 61.5t-21.5 40.5t-50 23.5t-90 10.5v-273q57 3 90 11t50 23.5t21.5 40.5t4.5 62z" />
    <glyph glyph-name="uni0426" unicode="&#x426;" horiz-adv-x="963" 
d="M773 0h-705v731h196v-573h349v573h196v-573h133v-369h-169v211z" />
    <glyph glyph-name="uni0427" unicode="&#x427;" horiz-adv-x="837" 
d="M769 731v-731h-196v221h-175q-91 0 -156 16.5t-107 52t-61.5 90t-19.5 130.5v221h196v-231q0 -36 7.5 -60.5t25.5 -40.5t47 -23t72 -7h171v362h196z" />
    <glyph glyph-name="uni0428" unicode="&#x428;" horiz-adv-x="1085" 
d="M68 731h195v-573h188v573h184v-573h187v573h195v-731h-949v731z" />
    <glyph glyph-name="uni0429" unicode="&#x429;" horiz-adv-x="1171" 
d="M68 731h195v-573h188v573h184v-573h187v573h195v-573h133v-369h-169v211h-913v731z" />
    <glyph glyph-name="uni042A" unicode="&#x42a;" horiz-adv-x="1046" 
d="M17 731h462v-225h252q54 0 105.5 -9t91.5 -36t64 -76t24 -129t-23.5 -129.5t-63.5 -78t-91.5 -38.5t-106.5 -10h-448v573h-266v158zM823 256q0 29 -7 47.5t-19 29t-27.5 14t-32.5 3.5h-258v-189h258q17 0 32.5 4t27.5 14.5t19 29t7 47.5z" />
    <glyph glyph-name="uni042B" unicode="&#x42b;" horiz-adv-x="1164" 
d="M68 0zM264 506h252q54 0 105.5 -9t91.5 -36t64 -76t24 -129t-23.5 -129.5t-63.5 -78t-91.5 -38.5t-106.5 -10h-448v731h196v-225zM608 256q0 29 -7 47.5t-19 29t-27.5 14t-32.5 3.5h-258v-189h258q17 0 32.5 4t27.5 14.5t19 29t7 47.5zM1096 731v-731h-196v731h196z" />
    <glyph glyph-name="uni042C" unicode="&#x42c;" horiz-adv-x="831" 
d="M264 506h252q54 0 105.5 -9t91.5 -36t64 -76t24 -129t-23.5 -129.5t-63.5 -78t-91.5 -38.5t-106.5 -10h-448v731h196v-225zM608 256q0 29 -7 47.5t-19 29t-27.5 14t-32.5 3.5h-258v-189h258q17 0 32.5 4t27.5 14.5t19 29t7 47.5z" />
    <glyph glyph-name="uni042D" unicode="&#x42d;" horiz-adv-x="758" 
d="M252 436h272q-4 40 -13 66t-24.5 42t-38 22.5t-53.5 6.5h-341v158h342q81 0 141.5 -14.5t101 -54.5t61 -111t20.5 -185t-20.5 -185t-61 -111.5t-101 -55t-141.5 -14.5h-340v158h339q31 0 53.5 6t38 22t24.5 42t13 67h-272v141z" />
    <glyph glyph-name="uni042E" unicode="&#x42e;" horiz-adv-x="1187" 
d="M760 -15q-110 0 -183 17t-117 54t-64 96t-24 143h-108v-295h-196v731h196v-295h108q5 84 25 142.5t64 95.5t116.5 54t182.5 17q121 0 197 -20.5t118.5 -66t58 -118t15.5 -175.5q0 -104 -15.5 -176t-58 -117.5t-118.5 -66t-197 -20.5zM760 583q-63 0 -101.5 -11
t-59.5 -36.5t-28 -67.5t-7 -103t7 -103t28 -67.5t59.5 -36.5t101.5 -11t101.5 11t59.5 36.5t28 67.5t7 103t-7 103t-28 67.5t-59.5 36.5t-101.5 11z" />
    <glyph glyph-name="uni042F" unicode="&#x42f;" horiz-adv-x="852" 
d="M40 0l160 247q-32 10 -59 27t-47 45t-31 67t-11 92q0 78 23.5 127.5t63 77.5t90.5 38t107 10h448v-731h-196v231h-182l-148 -231h-218zM244 478q0 -28 7 -45.5t18.5 -27.5t27 -14t33.5 -4h258v183h-258q-18 0 -33.5 -4t-27 -14t-18.5 -28t-7 -46z" />
    <glyph glyph-name="uni0431" unicode="&#x431;" horiz-adv-x="682" 
d="M402 463q66 0 111.5 -12t74 -40t41.5 -74t13 -114q0 -62 -12 -106t-44.5 -72.5t-89 -42t-146.5 -13.5q-89 0 -145.5 13.5t-88 43t-43 75.5t-11.5 111v325q0 49 12.5 82.5t35 53.5t54.5 29t71 9h146q18 0 24 6.5t6 23.5v21h150v-85q0 -45 -23.5 -69t-74.5 -24h-164
q-32 0 -48.5 -13t-16.5 -45v-83h168zM234 341v-109q0 -31 5.5 -52t20 -34.5t38.5 -19.5t61 -6t60.5 6t36.5 19t17.5 34.5t4.5 51.5t-4.5 51t-16.5 34t-33.5 19t-55.5 6h-134z" />
    <glyph glyph-name="uni0432" unicode="&#x432;" horiz-adv-x="683" 
d="M635 334q0 -36 -11.5 -59t-31.5 -37q24 -13 38.5 -37t14.5 -66t-15.5 -68t-43.5 -41t-66 -20.5t-84 -5.5h-372v463h372q43 0 80 -5.5t63 -19.5t41 -39.5t15 -64.5zM233 196v-93h174q26 0 44 9.5t18 38.5t-17 37t-45 8h-174zM233 276h172q28 0 44 8t16 36q0 27 -16.5 36
t-43.5 9h-172v-89z" />
    <glyph glyph-name="uni0433" unicode="&#x433;" horiz-adv-x="484" 
d="M64 463h403v-127h-223v-336h-180v463z" />
    <glyph glyph-name="uni0434" unicode="&#x434;" horiz-adv-x="830" 
d="M692 463v-336h118v-298h-153v171h-484v-171h-153v298h56q23 0 39.5 4.5t28.5 18.5t19.5 41.5t12.5 73.5l21 198h495zM317 229q-7 -59 -21 -102h217v200h-185z" />
    <glyph glyph-name="uni0436" unicode="&#x436;" horiz-adv-x="900" 
d="M367 188h-25l-145 -188h-190l176 241l-170 222h183l146 -185h25v185h166v-185h25l148 185h182l-171 -222l176 -241h-191l-144 188h-25v-188h-166v188z" />
    <glyph glyph-name="uni0437" unicode="&#x437;" horiz-adv-x="579" 
d="M315 103q24 0 39 9.5t15 35.5t-14 34t-40 8h-124v89h120q26 0 39.5 7.5t13.5 32.5t-15 33t-38 8h-269v103h289q43 0 80 -5.5t63 -19.5t41 -39t15 -65q0 -36 -11.5 -58.5t-31.5 -36.5q25 -14 39.5 -38t14.5 -66t-15.5 -68.5t-43.5 -41t-66.5 -20t-84.5 -5.5h-289v103h273z
" />
    <glyph glyph-name="uni0438" unicode="&#x438;" horiz-adv-x="745" 
d="M244 169l244 294h192v-463h-179v289l-244 -289h-193v463h180v-294z" />
    <glyph glyph-name="uni0439" unicode="&#x439;" horiz-adv-x="745" 
d="M64 0zM244 169l244 294h192v-463h-179v289l-244 -289h-193v463h180v-294zM371 523q-63 0 -104.5 11t-66 35t-35 62t-10.5 92v14h99v-14q0 -27 5 -46t18.5 -31t36 -17.5t57.5 -5.5t58 5.5t36.5 17.5t18.5 31t5 46v14h99v-14q0 -54 -10.5 -92t-35 -62t-66.5 -35t-105 -11z
" />
    <glyph glyph-name="uni043A" unicode="&#x3ba;" horiz-adv-x="657" 
d="M473 240l177 -240h-190l-146 187h-70v-187h-180v463h180v-185h70l149 185h182z" />
    <glyph glyph-name="uni043A" unicode="&#x43a;" horiz-adv-x="657" 
d="M473 240l177 -240h-190l-146 187h-70v-187h-180v463h180v-185h70l149 185h182z" />
    <glyph glyph-name="uni043B" unicode="&#x43b;" horiz-adv-x="718" 
d="M654 463v-463h-179v327h-185l-11 -98q-8 -68 -24.5 -112.5t-43.5 -70.5t-66.5 -36t-92.5 -10h-35v127h21q23 0 39.5 4.5t28.5 18.5t19.5 41.5t12.5 73.5l21 198h495z" />
    <glyph glyph-name="uni043C" unicode="&#x43c;" horiz-adv-x="915" 
d="M379 0l-161 306v-306h-154v463h220l173 -331l177 331h217v-463h-154v304l-161 -304h-157z" />
    <glyph glyph-name="uni043D" unicode="&#x43d;" horiz-adv-x="727" 
d="M484 174h-240v-174h-180v463h180v-166h240v166h179v-463h-179v174z" />
    <glyph glyph-name="uni043F" unicode="&#x43f;" horiz-adv-x="727" 
d="M484 319h-240v-319h-180v463h599v-463h-179v319z" />
    <glyph glyph-name="uni0442" unicode="&#x442;" horiz-adv-x="625" 
d="M223 336h-206v127h591v-127h-205v-336h-180v336z" />
    <glyph glyph-name="uni0444" unicode="&#x3c6;" horiz-adv-x="866" 
d="M347 -6q-104 4 -164.5 19t-92.5 43.5t-41 71.5t-9 103t9 103t41 71.5t92.5 43.5t164.5 19v263h173v-263q103 -4 164 -19t92.5 -43.5t40.5 -71.5t9 -103t-9 -103t-40.5 -71.5t-92.5 -43.5t-164 -19v-205h-173v205zM204 231q0 -32 3.5 -53.5t18 -35t43 -20.5t78.5 -10v238
q-50 -2 -78.5 -9t-43 -21t-18 -35.5t-3.5 -53.5zM662 231q0 32 -3.5 53.5t-18 35.5t-43 21t-77.5 9v-238q49 3 77.5 10t43 20.5t18 35t3.5 53.5z" />
    <glyph glyph-name="uni0444" unicode="&#x444;" horiz-adv-x="866" 
d="M347 -6q-104 4 -164.5 19t-92.5 43.5t-41 71.5t-9 103t9 103t41 71.5t92.5 43.5t164.5 19v263h173v-263q103 -4 164 -19t92.5 -43.5t40.5 -71.5t9 -103t-9 -103t-40.5 -71.5t-92.5 -43.5t-164 -19v-205h-173v205zM204 231q0 -32 3.5 -53.5t18 -35t43 -20.5t78.5 -10v238
q-50 -2 -78.5 -9t-43 -21t-18 -35.5t-3.5 -53.5zM662 231q0 32 -3.5 53.5t-18 35.5t-43 21t-77.5 9v-238q49 3 77.5 10t43 20.5t18 35t3.5 53.5z" />
    <glyph glyph-name="uni0446" unicode="&#x446;" horiz-adv-x="800" 
d="M627 0h-563v463h180v-336h240v336h179v-336h117v-298h-153v171z" />
    <glyph glyph-name="uni0447" unicode="&#x447;" horiz-adv-x="727" 
d="M663 463v-463h-179v131h-162q-74 0 -125 11t-82 33.5t-44.5 58t-13.5 83.5v146h174v-142q0 -33 17 -48.5t69 -15.5h167v206h179z" />
    <glyph glyph-name="uni0448" unicode="&#x448;" horiz-adv-x="997" 
d="M64 463h176v-336h175v336h167v-336h175v336h175v-463h-868v463z" />
    <glyph glyph-name="uni0449" unicode="&#x449;" horiz-adv-x="1070" 
d="M64 463h176v-336h175v336h167v-336h175v336h175v-336h118v-298h-153v171h-833v463z" />
    <glyph glyph-name="uni044A" unicode="&#x44a;" horiz-adv-x="831" 
d="M392 321h234q33 0 63.5 -6t54.5 -23t38.5 -48t14.5 -81q0 -51 -14 -82.5t-38 -49.5t-55 -24.5t-64 -6.5h-414v336h-195v127h375v-142zM621 163q0 35 -15 45.5t-35 10.5h-179v-114h179q20 0 35 11.5t15 46.5z" />
    <glyph glyph-name="uni044B" unicode="&#x44b;" horiz-adv-x="991" 
d="M64 0zM244 321h234q33 0 63.5 -6t54.5 -23t38.5 -48t14.5 -81q0 -51 -14 -82.5t-38 -49.5t-55 -24.5t-64 -6.5h-414v463h180v-142zM473 163q0 35 -15 45.5t-35 10.5h-179v-114h179q20 0 35 11.5t15 46.5zM747 463h180v-463h-180v463z" />
    <glyph glyph-name="uni044C" unicode="&#x44c;" horiz-adv-x="683" 
d="M244 321h234q33 0 63.5 -6t54.5 -23t38.5 -48t14.5 -81q0 -51 -14 -82.5t-38 -49.5t-55 -24.5t-64 -6.5h-414v463h180v-142zM473 163q0 35 -15 45.5t-35 10.5h-179v-114h179q20 0 35 11.5t15 46.5z" />
    <glyph glyph-name="uni044D" unicode="&#x44d;" horiz-adv-x="562" 
d="M44 347v116h218q74 0 124 -12t80 -39t43 -71.5t13 -109.5t-13 -109t-43 -71t-80 -39t-124 -12h-218v117h221q49 0 69 15t25 59h-198v80h198q-5 45 -25 60.5t-69 15.5h-221z" />
    <glyph glyph-name="uni044E" unicode="&#x44e;" horiz-adv-x="970" 
d="M639 -11q-81 0 -134.5 10.5t-86 33.5t-48 59t-19.5 87h-107v-179h-180v463h180v-173h107q5 49 21 84t49 57.5t86 33t132 10.5q91 0 147.5 -14t88.5 -43t43.5 -75.5t11.5 -110.5q0 -65 -11.5 -111t-43.5 -75.5t-88.5 -43t-147.5 -13.5zM639 343q-41 0 -65.5 -6t-38 -19
t-18 -34.5t-4.5 -51.5t4.5 -51.5t18 -35t38 -19.5t65.5 -6q40 0 65 6t38.5 19.5t18 35t4.5 51.5t-4.5 51.5t-18 34.5t-38.5 19t-65 6z" />
    <glyph glyph-name="uni044F" unicode="&#x44f;" horiz-adv-x="676" 
d="M43 0l114 149q-23 6 -42 17t-33 29t-22 43.5t-8 60.5q0 51 16 83t43 50t62.5 24.5t73.5 6.5h361v-463h-173v139h-106l-109 -139h-177zM222 297q0 -37 17.5 -48.5t40.5 -11.5h155v122h-155q-23 0 -40.5 -12t-17.5 -50z" />
    <glyph glyph-name="uni0452" unicode="&#x452;" horiz-adv-x="726" 
d="M3 659h61v72h180v-72h295v-112h-295v-84h154q74 0 125 -11t82.5 -33.5t45 -58t13.5 -83.5l-1 -300q0 -50 -13.5 -85.5t-45 -57.5t-82.5 -32t-125 -10h-80v128h71q51 0 73.5 14t22.5 46v275q0 34 -17.5 49t-68.5 15h-154v-319h-180v547h-61v112z" />
    <glyph glyph-name="uni0453" unicode="&#x453;" horiz-adv-x="484" 
d="M64 0zM64 463h403v-127h-223v-336h-180v463zM247 737h174l-95 -214h-133z" />
    <glyph glyph-name="uni0454" unicode="&#x454;" horiz-adv-x="562" 
d="M518 117v-117h-218q-74 0 -124 12t-80 39t-43 71.5t-13 109.5q0 64 13 108.5t43 71.5t80 39t124 12h218v-116h-220q-50 0 -71 -15t-25 -60h199v-80h-198q2 -23 8 -37.5t17 -22.5t28 -11.5t42 -3.5h220z" />
    <glyph glyph-name="uni0459" unicode="&#x459;" horiz-adv-x="1094" 
d="M654 463v-142h235q32 0 63 -6t55 -23t38.5 -48t14.5 -81q0 -51 -14.5 -82.5t-38 -49.5t-54.5 -24.5t-64 -6.5h-414v327h-185l-11 -98q-8 -68 -24.5 -112.5t-43.5 -70.5t-66.5 -36t-92.5 -10h-35v127h21q23 0 39.5 4.5t28.5 18.5t19.5 41.5t12.5 73.5l21 198h495zM884 163
q0 35 -15 45.5t-35 10.5h-180v-114h180q20 0 35 11.5t15 46.5z" />
    <glyph glyph-name="uni045A" unicode="&#x45a;" horiz-adv-x="1103" 
d="M663 463v-142h221q34 0 67 -4.5t59 -21t42 -48t16 -84.5q0 -54 -16 -86t-42 -49t-59.5 -22.5t-67.5 -5.5h-399v220h-240v-220h-180v463h180v-142h240v142h179zM892 163q0 21 -5.5 32.5t-15 17t-22 6t-25.5 0.5h-161v-114h179q20 0 35 11.5t15 46.5z" />
    <glyph glyph-name="uni045B" unicode="&#x45b;" horiz-adv-x="726" 
d="M3 655h61v76h180v-76h294v-112h-294v-80h154q74 0 125 -11t82.5 -33.5t45 -58t13.5 -83.5v-277h-180v255q0 34 -18 49t-68 15h-154v-319h-180v543h-61v112z" />
    <glyph glyph-name="uni045C" unicode="&#x45c;" horiz-adv-x="657" 
d="M64 0zM473 240l177 -240h-190l-146 187h-70v-187h-180v463h180v-185h70l149 185h182zM297 737h174l-95 -214h-133z" />
    <glyph glyph-name="uni045D" unicode="&#x45d;" horiz-adv-x="745" 
d="M64 0zM244 169l244 294h192v-463h-179v289l-244 -289h-193v463h180v-294zM456 523h-133l-94 214h174z" />
    <glyph glyph-name="uni045E" unicode="&#x45e;" horiz-adv-x="684" 
d="M9 0zM121 -84q27 0 47.5 3t37 10.5t30 21.5t25.5 37l-252 475h183l151 -309l151 309h181l-272 -525q-21 -40 -44 -68.5t-55 -46.5t-76 -26t-107 -8h-69v127h69zM340 523q-63 0 -104.5 11t-66 35t-35 62t-10.5 92v14h99v-14q0 -27 5 -46t18.5 -31t36 -17.5t57.5 -5.5
t58 5.5t36.5 17.5t18.5 31t5 46v14h99v-14q0 -54 -10.5 -92t-35 -62t-66.5 -35t-105 -11z" />
    <glyph glyph-name="uni045F" unicode="&#x45f;" horiz-adv-x="727" 
d="M287 0h-223v463h180v-336h240v336h179v-463h-223v-171h-153v171z" />
    <glyph glyph-name="uni0490" unicode="&#x490;" horiz-adv-x="733" 
d="M264 0h-196v731h479v211h169v-369h-452v-573z" />
    <glyph glyph-name="uni0491" unicode="&#x491;" horiz-adv-x="484" 
d="M244 0h-180v463h249v171h154v-298h-223v-336z" />
    <glyph glyph-name="uni0492" unicode="&#x492;" horiz-adv-x="741" 
d="M3 368h73v363h648v-158h-452v-205h266v-112h-266v-256h-196v256h-73v112z" />
    <glyph glyph-name="uni0493" unicode="&#x493;" horiz-adv-x="521" 
d="M8 247h94v216h403v-127h-223v-89h178v-112h-178v-135h-180v135h-94v112z" />
    <glyph glyph-name="uni0496" unicode="&#x496;" horiz-adv-x="1209" 
d="M1019 0h-141l-200 298h-29v-298h-188v298h-29l-200 -298h-219l250 380l-241 351h207l204 -296h28v296h188v-296h29l203 296h207l-242 -351l146 -222h196v-369h-169v211z" />
    <glyph glyph-name="uni0497" unicode="&#x497;" horiz-adv-x="995" 
d="M822 0h-120l-144 188h-25v-188h-166v188h-25l-145 -188h-190l176 241l-170 222h183l146 -185h25v185h166v-185h25l148 185h182l-171 -222l83 -114h175v-298h-153v171z" />
    <glyph glyph-name="uni0498" unicode="&#x498;" horiz-adv-x="770" 
d="M46 0v158h415q34 0 57 14.5t23 55.5t-22.5 55t-55.5 14h-136v141h129q17 0 31.5 2.5t25 10t16.5 20.5t6 33q0 39 -23 54t-58 15h-406v158h401q59 0 108.5 -8.5t85.5 -31t56 -61.5t20 -101q0 -57 -17 -93.5t-46 -57.5q36 -21 57 -60t21 -105q0 -65 -20.5 -106t-56.5 -64.5
t-86.5 -33t-110.5 -9.5l-92 -52q-14 -6 -24 -15.5t-10 -22.5q0 -10 7 -18t21 -8h114v-123h-192q-29 0 -49 7t-32 19.5t-17.5 28.5t-5.5 34q0 46 31 74t76 51l51 25h-292z" />
    <glyph glyph-name="uni0499" unicode="&#x499;" horiz-adv-x="579" 
d="M42 0v103h273q24 0 39 9.5t15 35.5t-14 34t-40 8h-124v89h120q26 0 39.5 7.5t13.5 32.5t-15 33t-38 8h-269v103h289q43 0 80 -5.5t63 -19.5t41 -39t15 -65q0 -36 -11.5 -58.5t-31.5 -36.5q25 -14 39.5 -38t14.5 -66q0 -40 -14 -66t-39 -41t-59 -21t-73 -7l-92 -52
q-14 -6 -24 -15.5t-10 -22.5q0 -10 7 -18t21 -8h114v-123h-192q-29 0 -49 7t-32 19.5t-17.5 28.5t-5.5 34q0 46 31 74t76 51l51 25h-192z" />
    <glyph glyph-name="uni049A" unicode="&#x49a;" horiz-adv-x="925" 
d="M735 0h-139l-206 298h-126v-298h-196v731h196v-296h126l209 296h207l-246 -352l148 -221h196v-369h-169v211z" />
    <glyph glyph-name="uni049B" unicode="&#x49b;" horiz-adv-x="753" 
d="M580 0h-120l-146 187h-70v-187h-180v463h180v-185h70l149 185h182l-172 -223l84 -113h176v-298h-153v171z" />
    <glyph glyph-name="uni04A0" unicode="&#x4a0;" horiz-adv-x="1043" 
d="M775 379l254 -379h-218l-206 298h-126v-298h-196v573h-266v158h462v-296h126l209 296h207z" />
    <glyph glyph-name="uni04A1" unicode="&#x4a1;" horiz-adv-x="805" 
d="M621 240l177 -240h-190l-146 187h-70v-187h-180v336h-195v127h375v-185h70l149 185h182z" />
    <glyph glyph-name="uni04A2" unicode="&#x4a2;" horiz-adv-x="963" 
d="M613 285h-349v-285h-196v731h196v-285h349v285h196v-573h133v-369h-169v211h-160v285z" />
    <glyph glyph-name="uni04A3" unicode="&#x4a3;" horiz-adv-x="800" 
d="M484 174h-240v-174h-180v463h180v-166h240v166h179v-336h117v-298h-153v171h-143v174z" />
    <glyph glyph-name="uni04AA" unicode="&#x4aa;" horiz-adv-x="748" 
d="M362 0q-81 0 -142 14.5t-101.5 54.5t-60.5 111t-20 185t20 185t60.5 111.5t101.5 55t142 14.5h341v-161h-340q-37 0 -62 -8.5t-40.5 -31.5t-22.5 -63t-7 -102t7 -102t22.5 -62.5t41 -31t61.5 -8.5h340v-161h-150l-92 -52q-14 -6 -24 -15.5t-10 -22.5q0 -10 7 -18t21 -8
h114v-123h-192q-29 0 -49 7t-32 19.5t-17.5 28.5t-5.5 34q0 46 31 74t76 51l51 25h-69z" />
    <glyph glyph-name="uni04AB" unicode="&#x4ab;" horiz-adv-x="580" 
d="M300 0q-74 0 -124 12t-80 39t-43 71.5t-13 109.5q0 64 13 108.5t43 71.5t80 39t124 12h238v-134h-241q-50 0 -68 -21t-18 -76t18 -76.5t68 -21.5h241v-134h-81l-92 -52q-14 -6 -24 -15.5t-10 -22.5q0 -10 7 -18t21 -8h114v-123h-192q-29 0 -49 7t-32 19.5t-17.5 28.5
t-5.5 34q0 46 31 74t76 51l51 25h-35z" />
    <glyph glyph-name="uni04AF" unicode="&#x4af;" horiz-adv-x="674" 
d="M421 -211h-173v210l-239 464h181l143 -302l150 302h182l-244 -464v-210z" />
    <glyph glyph-name="uni04B0" unicode="&#x4b0;" horiz-adv-x="818" 
d="M141 314h168v8l-306 409h215l192 -256l193 256h212l-310 -411v-6h171v-112h-171v-202h-196v202h-168v112z" />
    <glyph glyph-name="uni04B1" unicode="&#x4b1;" horiz-adv-x="674" 
d="M69 112h121l-181 351h181l143 -302l150 302h182l-185 -351h124v-112h-183v-211h-173v211h-179v112z" />
    <glyph glyph-name="uni04B2" unicode="&#x4b2;" horiz-adv-x="905" 
d="M400 236l-177 -236h-212l280 380l-265 351h215l163 -216l164 216h212l-267 -360l161 -213h210v-369h-169v211h-136z" />
    <glyph glyph-name="uni04B3" unicode="&#x4b3;" horiz-adv-x="757" 
d="M324 142l-128 -142h-191l224 241l-211 222h195l122 -129l126 129h190l-221 -228l104 -108h203v-298h-153v171h-124z" />
    <glyph glyph-name="uni04B6" unicode="&#x4b6;" horiz-adv-x="923" 
d="M733 0h-160v221h-175q-91 0 -156 16.5t-107 52t-61.5 90t-19.5 130.5v221h196v-231q0 -36 7.5 -60.5t25.5 -40.5t47 -23t72 -7h171v362h196v-573h133v-369h-169v211z" />
    <glyph glyph-name="uni04B7" unicode="&#x4b7;" horiz-adv-x="800" 
d="M627 0h-143v131h-162q-74 0 -125 11t-82 33.5t-44.5 58t-13.5 83.5v146h174v-142q0 -33 17 -48.5t69 -15.5h167v206h179v-336h117v-298h-153v171z" />
    <glyph glyph-name="uni04BA" unicode="&#x4ba;" horiz-adv-x="837" 
d="M68 0v731h196v-221h175q91 0 156 -16.5t107 -52t61.5 -90t19.5 -130.5v-221h-196v231q0 36 -7.5 60.5t-25.5 40.5t-47 23t-72 7h-171v-362h-196z" />
    <glyph glyph-name="uni04C3" unicode="&#x4c3;" horiz-adv-x="828" 
d="M540 -84q72 0 89 31l-239 351h-126v-298h-196v731h196v-296h126l209 296h207l-246 -352l254 -379v-26q0 -51 -13.5 -86t-45 -57t-82 -32t-124.5 -10h-70v127h61z" />
    <glyph glyph-name="uni04C4" unicode="&#x4c4;" horiz-adv-x="657" 
d="M376 -84q50 0 72.5 13.5t22.5 46.5v6l-157 205h-70v-187h-180v463h180v-185h70l149 185h182l-172 -223l177 -240v-26q0 -51 -13.5 -86t-45 -57t-82 -32t-124.5 -10h-70v127h61z" />
    <glyph glyph-name="uni04C7" unicode="&#x4c7;" horiz-adv-x="877" 
d="M512 -84q54 0 78 13.5t24 46.5v24h-1v285h-349v-285h-196v731h196v-285h349v285h196v-731h-1v-26q0 -51 -14.5 -86t-48.5 -57t-88.5 -32t-134.5 -10h-76v127h66z" />
    <glyph glyph-name="uni04C8" unicode="&#x4c8;" horiz-adv-x="727" 
d="M388 -84q51 0 73 13.5t22 46.5v198h-239v-174h-180v463h180v-166h239v166h180v-489q0 -51 -13.5 -86t-45 -57t-82.5 -32t-125 -10h-70v127h61z" />
    <glyph glyph-name="uni04E8" unicode="&#x4e8;" horiz-adv-x="854" 
d="M427 -15q-121 0 -197 20.5t-118.5 66t-58 117.5t-15.5 176q0 103 15.5 175.5t58 118t118.5 66t197 20.5t197 -20.5t118.5 -66t58 -118t15.5 -175.5q0 -104 -15.5 -176t-58 -117.5t-118.5 -66t-197 -20.5zM427 147q53 0 88.5 8t57.5 25.5t33 45.5t14 69h-387
q4 -41 14.5 -69t33 -45.5t58 -25.5t88.5 -8zM427 583q-53 0 -88.5 -8t-58 -25t-33 -45.5t-14.5 -68.5h387q-4 40 -14.5 68.5t-32.5 45.5t-57.5 25t-88.5 8z" />
    <glyph glyph-name="uni04E9" unicode="&#x4e9;" horiz-adv-x="661" 
d="M330 -11q-90 0 -146.5 13.5t-88.5 43t-43.5 75.5t-11.5 111q0 64 11.5 110.5t43.5 75.5t88.5 43t146.5 14q91 0 147.5 -14t88.5 -43t43.5 -75.5t11.5 -110.5q0 -65 -11.5 -111t-43.5 -75.5t-88.5 -43t-147.5 -13.5zM330 104q77 0 107 21t35 69h-285q3 -24 11 -41
t24.5 -28t42.5 -16t65 -5zM330 359q-38 0 -64 -4.5t-42.5 -15t-24.5 -27t-11 -39.5h284q-3 23 -11 39.5t-24.5 27t-42.5 15t-64 4.5z" />
    <glyph glyph-name="uni04EE" unicode="&#x4ee;" horiz-adv-x="801" 
d="M3 0zM91 158h65q28 0 48 3t35 11t26.5 21t23.5 33l6 10l-292 495h213l179 -325l192 325h211l-353 -594q-23 -39 -45.5 -65.5t-50.5 -42.5t-65.5 -22.5t-90.5 -6.5h-102v158zM127 923h535v-112h-535v112z" />
    <glyph glyph-name="uni04EF" unicode="&#x4ef;" horiz-adv-x="684" 
d="M9 0zM121 -84q27 0 47.5 3t37 10.5t30 21.5t25.5 37l-252 475h183l151 -309l151 309h181l-272 -525q-21 -40 -44 -68.5t-55 -46.5t-76 -26t-107 -8h-69v127h69zM73 667h535v-112h-535v112z" />
    <glyph glyph-name="uni0512" unicode="&#x512;" horiz-adv-x="872" 
d="M507 -84q54 0 77 13.5t23 46.5v597h-214l-26 -263q-9 -88 -29.5 -147.5t-52.5 -95.5t-77 -51.5t-102 -15.5h-89v158h60q25 0 45 6.5t34.5 25t24.5 53t15 90.5l40 398h567v-757q0 -51 -14.5 -86t-48.5 -57t-88.5 -32t-134.5 -10h-76v127h66z" />
    <glyph glyph-name="uni0513" unicode="&#x513;" horiz-adv-x="718" 
d="M379 -84q51 0 73.5 13.5t22.5 46.5v351h-185l-11 -98q-8 -68 -24.5 -112.5t-43.5 -70.5t-66.5 -36t-92.5 -10h-35v127h21q23 0 39.5 4.5t28.5 18.5t19.5 41.5t12.5 73.5l21 198h495v-489q0 -51 -13.5 -86t-45 -57t-82.5 -32t-125 -10h-70v127h61z" />
    <glyph glyph-name="uni058F" unicode="&#x58f;" horiz-adv-x="709" 
d="M135 379h285v126q0 61 -26.5 83.5t-91.5 22.5q-66 0 -92.5 -22.5t-26.5 -83.5v-55h-157v77q0 60 15.5 101.5t49 66.5t87 36t128.5 11q76 0 129 -11t86.5 -36t48.5 -66.5t15 -101.5v-148h102v-80h-102v-62h102v-80h-102v-157h-165v157h-285v80h285v62h-285v80z" />
    <glyph glyph-name="uni1E0C" unicode="&#x1e0c;" horiz-adv-x="858" 
d="M68 0zM264 161h231q37 0 62.5 9t41 31.5t22 62t6.5 101.5t-7 102t-22.5 63t-41 31.5t-61.5 8.5h-231v-409zM68 731h428q81 0 141.5 -14.5t101 -55t61 -111.5t20.5 -185t-20.5 -185t-61 -111t-101 -54.5t-141.5 -14.5h-428v731zM328 -77h165v-147h-165v147z" />
    <glyph glyph-name="uni1E0D" unicode="&#x1e0d;" horiz-adv-x="704" 
d="M40 0zM640 731v-731h-340q-74 0 -124 12t-80 39t-43 71.5t-13 109.5q0 64 13 108.5t43 71.5t80 39t124 12h160v268h180zM460 134v195h-163q-50 0 -68 -21t-18 -76q0 -28 4 -46.5t14 -30t26.5 -16.5t41.5 -5h163zM272 -77h165v-147h-165v147z" />
    <glyph glyph-name="uni1E12" unicode="&#x1e12;" horiz-adv-x="858" 
d="M68 0zM264 161h231q37 0 62.5 9t41 31.5t22 62t6.5 101.5t-7 102t-22.5 63t-41 31.5t-61.5 8.5h-231v-409zM68 731h428q81 0 141.5 -14.5t101 -55t61 -111.5t20.5 -185t-20.5 -185t-61 -111t-101 -54.5t-141.5 -14.5h-428v731zM340 -49h136l168 -190h-131l-105 98
l-104 -98h-131z" />
    <glyph glyph-name="uni1E13" unicode="&#x1e13;" horiz-adv-x="704" 
d="M40 0zM640 731v-731h-340q-74 0 -124 12t-80 39t-43 71.5t-13 109.5q0 64 13 108.5t43 71.5t80 39t124 12h160v268h180zM460 134v195h-163q-50 0 -68 -21t-18 -76q0 -28 4 -46.5t14 -30t26.5 -16.5t41.5 -5h163zM286 -49h136l168 -190h-131l-105 98l-104 -98h-131z" />
    <glyph glyph-name="uni1E24" unicode="&#x1e24;" horiz-adv-x="877" 
d="M68 0zM809 731v-731h-196v285h-349v-285h-196v731h196v-285h349v285h196zM356 -77h165v-147h-165v147z" />
    <glyph glyph-name="uni1E25" unicode="&#x1e25;" horiz-adv-x="726" 
d="M64 0zM64 731h180v-268h154q74 0 125 -11t82.5 -33.5t45 -58t13.5 -83.5v-277h-180v255q0 34 -18 49t-68 15h-154v-319h-180v731zM280 -77h165v-147h-165v147z" />
    <glyph glyph-name="uni1E3C" unicode="&#x1e3c;" horiz-adv-x="733" 
d="M68 0zM264 158h452v-158h-648v731h196v-573zM308 -49h136l168 -190h-131l-105 98l-104 -98h-131z" />
    <glyph glyph-name="uni1E3D" unicode="&#x1e3d;" horiz-adv-x="394" 
d="M0 0zM108 731h180v-731h-180v731zM129 -49h136l168 -190h-131l-105 98l-104 -98h-131z" />
    <glyph glyph-name="uni1E44" unicode="&#x1e44;" horiz-adv-x="912" 
d="M68 0zM663 213v518h181v-731h-238l-356 500v-500h-182v731h232zM374 939h165v-147h-165v147z" />
    <glyph glyph-name="uni1E45" unicode="&#x1e45;" horiz-adv-x="726" 
d="M64 0zM64 463h334q74 0 125 -11t82.5 -33.5t45 -58t13.5 -83.5v-277h-180v255q0 34 -18 49t-68 15h-154v-319h-180v463zM278 686h166v-146h-166v146z" />
    <glyph glyph-name="uni1E4A" unicode="&#x1e4a;" horiz-adv-x="912" 
d="M68 0zM663 213v518h181v-731h-238l-356 500v-500h-182v731h232zM388 -49h136l168 -190h-131l-105 98l-104 -98h-131z" />
    <glyph glyph-name="uni1E4B" unicode="&#x1e4b;" horiz-adv-x="726" 
d="M64 0zM64 463h334q74 0 125 -11t82.5 -33.5t45 -58t13.5 -83.5v-277h-180v255q0 34 -18 49t-68 15h-154v-319h-180v463zM293 -49h136l168 -190h-131l-105 98l-104 -98h-131z" />
    <glyph glyph-name="uni1E5A" unicode="&#x1e5a;" horiz-adv-x="868" 
d="M68 0zM264 242v-242h-196v731h458q55 0 105.5 -8.5t89.5 -33t62 -69.5t23 -117q0 -63 -18 -105t-50 -68q34 -17 53.5 -47.5t19.5 -80.5v-202h-196v180q0 35 -14.5 48.5t-61.5 13.5h-275zM618 480q0 28 -6.5 45.5t-18 27.5t-27 13.5t-33.5 3.5h-269v-181h269q18 0 33.5 4
t27 14t18 27.5t6.5 45.5zM349 -77h165v-147h-165v147z" />
    <glyph glyph-name="uni1E5B" unicode="&#x1e5b;" horiz-adv-x="416" 
d="M62 0zM311 342q-38 0 -53.5 -10.5t-15.5 -34.5v-297h-180v306q0 43 12 73t38.5 48.5t69.5 27t106 8.5h107v-121h-84zM72 -77h165v-147h-165v147z" />
    <glyph glyph-name="uni1E6C" unicode="&#x1e6c;" horiz-adv-x="747" 
d="M17 0zM276 573h-259v158h714v-158h-259v-573h-196v573zM291 -77h165v-147h-165v147z" />
    <glyph glyph-name="uni1E6D" unicode="&#x1e6d;" horiz-adv-x="468" 
d="M25 0zM25 463h86v164h179v-164h157v-121h-157v-170q0 -24 15.5 -34.5t53.5 -10.5h67v-127h-89q-63 0 -106 8.5t-70 27t-38.5 48.5t-11.5 73v185h-86v121zM168 -77h165v-147h-165v147z" />
    <glyph glyph-name="Wgrave" unicode="&#x1e80;" horiz-adv-x="1201" 
d="M11 0zM706 731l151 -482l139 482h194l-226 -731h-207l-154 514l-159 -514h-205l-228 731h203l137 -484l147 484h208zM696 771h-133l-119 190h174z" />
    <glyph glyph-name="wgrave" unicode="&#x1e81;" horiz-adv-x="880" 
d="M13 0zM543 463l84 -291l83 291h157l-144 -463h-185l-97 312l-98 -312h-187l-143 463h165l82 -290l93 290h190zM523 523h-133l-94 214h174z" />
    <glyph glyph-name="Wacute" unicode="&#x1e82;" horiz-adv-x="1201" 
d="M11 0zM706 731l151 -482l139 482h194l-226 -731h-207l-154 514l-159 -514h-205l-228 731h203l137 -484l147 484h208zM583 961h173l-119 -190h-133z" />
    <glyph glyph-name="wacute" unicode="&#x1e83;" horiz-adv-x="880" 
d="M13 0zM543 463l84 -291l83 291h157l-144 -463h-185l-97 312l-98 -312h-187l-143 463h165l82 -290l93 290h190zM410 737h174l-95 -214h-133z" />
    <glyph glyph-name="Wdieresis" unicode="&#x1e84;" horiz-adv-x="1201" 
d="M11 0zM706 731l151 -482l139 482h194l-226 -731h-207l-154 514l-159 -514h-205l-228 731h203l137 -484l147 484h208zM395 939h158v-147h-158v147zM648 939h157v-147h-157v147z" />
    <glyph glyph-name="wdieresis" unicode="&#x1e85;" horiz-adv-x="880" 
d="M13 0zM543 463l84 -291l83 291h157l-144 -463h-185l-97 312l-98 -312h-187l-143 463h165l82 -290l93 290h190zM235 686h158v-146h-158v146zM488 686h157v-146h-157v146z" />
    <glyph glyph-name="uni1E92" unicode="&#x1e92;" horiz-adv-x="785" 
d="M50 0zM472 573h-422v158h686v-144l-424 -429h424v-158h-686v153zM310 -77h165v-147h-165v147z" />
    <glyph glyph-name="uni1E93" unicode="&#x1e93;" horiz-adv-x="591" 
d="M46 0zM323 342h-277v121h499v-111l-276 -225h276v-127h-499v123zM213 -77h165v-147h-165v147z" />
    <glyph glyph-name="uni1EA0" unicode="&#x1ea0;" horiz-adv-x="946" 
d="M9 0zM367 731h212l358 -731h-198l-67 142h-392l-67 -142h-204zM350 291h251l-126 266zM391 -77h165v-147h-165v147z" />
    <glyph glyph-name="uni1EA1" unicode="&#x1ea1;" horiz-adv-x="655" 
d="M45 0zM111 347v116h199q80 0 134.5 -11t87.5 -34t47 -58t14 -84v-276h-384q-48 0 -79.5 8.5t-50.5 26t-26.5 45.5t-7.5 67t7.5 64.5t26.5 41t50.5 22t79.5 6.5h223v4q0 16 -5 28t-19 19.5t-39 11t-66 3.5h-192zM432 106v86h-186q-26 0 -35.5 -9t-9.5 -32q0 -25 9.5 -35
t35.5 -10h186zM247 -77h165v-147h-165v147z" />
    <glyph glyph-name="uni1EA2" unicode="&#x1ea2;" horiz-adv-x="946" 
d="M9 0zM367 731h212l358 -731h-198l-67 142h-392l-67 -142h-204zM350 291h251l-126 266zM502 796q-22 0 -22 -23v-16h-79v29q0 34 16.5 53t55.5 19h42q14 0 20 6t6 24t-6 24.5t-20 6.5h-138v70h162q55 0 74.5 -23.5t19.5 -73.5q0 -51 -20 -73.5t-74 -22.5h-37z" />
    <glyph glyph-name="uni1EA3" unicode="&#x1ea3;" horiz-adv-x="655" 
d="M45 0zM111 347v116h199q80 0 134.5 -11t87.5 -34t47 -58t14 -84v-276h-384q-48 0 -79.5 8.5t-50.5 26t-26.5 45.5t-7.5 67t7.5 64.5t26.5 41t50.5 22t79.5 6.5h223v4q0 16 -5 28t-19 19.5t-39 11t-66 3.5h-192zM432 106v86h-186q-26 0 -35.5 -9t-9.5 -32q0 -25 9.5 -35
t35.5 -10h186zM369 538q-22 0 -22 -23v-16h-79v29q0 34 16.5 53t55.5 19h42q14 0 20 6t6 24t-6 24.5t-20 6.5h-138v70h162q55 0 74.5 -23.5t19.5 -73.5q0 -51 -20 -73.5t-74 -22.5h-37z" />
    <glyph glyph-name="uni1EA4" unicode="&#x1ea4;" horiz-adv-x="946" 
d="M9 0zM367 731h212l358 -731h-198l-67 142h-392l-67 -142h-204zM350 291h251l-126 266zM404 961h136l168 -190h-131l-105 98l-104 -98h-131zM733 1061h173l-119 -190h-133z" />
    <glyph glyph-name="uni1EA5" unicode="&#x1ea5;" horiz-adv-x="655" 
d="M45 0zM111 347v116h199q80 0 134.5 -11t87.5 -34t47 -58t14 -84v-276h-384q-48 0 -79.5 8.5t-50.5 26t-26.5 45.5t-7.5 67t7.5 64.5t26.5 41t50.5 22t79.5 6.5h223v4q0 16 -5 28t-19 19.5t-39 11t-66 3.5h-192zM432 106v86h-186q-26 0 -35.5 -9t-9.5 -32q0 -25 9.5 -35
t35.5 -10h186zM261 711h136l168 -190h-131l-105 98l-104 -98h-131zM342 961h173l-119 -190h-133z" />
    <glyph glyph-name="uni1EA6" unicode="&#x1ea6;" horiz-adv-x="946" 
d="M9 0zM367 731h212l358 -731h-198l-67 142h-392l-67 -142h-204zM350 291h251l-126 266zM404 961h136l168 -190h-131l-105 98l-104 -98h-131zM836 871h-133l-119 190h174z" />
    <glyph glyph-name="uni1EA7" unicode="&#x1ea7;" horiz-adv-x="655" 
d="M45 0zM111 347v116h199q80 0 134.5 -11t87.5 -34t47 -58t14 -84v-276h-384q-48 0 -79.5 8.5t-50.5 26t-26.5 45.5t-7.5 67t7.5 64.5t26.5 41t50.5 22t79.5 6.5h223v4q0 16 -5 28t-19 19.5t-39 11t-66 3.5h-192zM432 106v86h-186q-26 0 -35.5 -9t-9.5 -32q0 -25 9.5 -35
t35.5 -10h186zM261 711h136l168 -190h-131l-105 98l-104 -98h-131zM398 771h-133l-119 190h174z" />
    <glyph glyph-name="uni1EA8" unicode="&#x1ea8;" horiz-adv-x="946" 
d="M9 0zM367 731h212l358 -731h-198l-67 142h-392l-67 -142h-204zM350 291h251l-126 266zM405 961h136l168 -190h-131l-105 98l-104 -98h-131zM782 868q-22 0 -22 -23v-16h-79v29q0 34 16.5 53t55.5 19h42q14 0 20 6t6 24t-6 24.5t-20 6.5h-138v70h162q55 0 74.5 -23.5
t19.5 -73.5q0 -51 -20 -73.5t-74 -22.5h-37z" />
    <glyph glyph-name="uni1EA9" unicode="&#x1ea9;" horiz-adv-x="655" 
d="M45 0zM111 347v116h199q80 0 134.5 -11t87.5 -34t47 -58t14 -84v-276h-384q-48 0 -79.5 8.5t-50.5 26t-26.5 45.5t-7.5 67t7.5 64.5t26.5 41t50.5 22t79.5 6.5h223v4q0 16 -5 28t-19 19.5t-39 11t-66 3.5h-192zM432 106v86h-186q-26 0 -35.5 -9t-9.5 -32q0 -25 9.5 -35
t35.5 -10h186zM261 701h136l168 -190h-131l-105 98l-104 -98h-131zM369 768q-22 0 -22 -23v-16h-79v29q0 34 16.5 53t55.5 19h42q14 0 20 6t6 24t-6 24.5t-20 6.5h-138v70h162q55 0 74.5 -23.5t19.5 -73.5q0 -51 -20 -73.5t-74 -22.5h-37z" />
    <glyph glyph-name="uni1EAA" unicode="&#x1eaa;" horiz-adv-x="946" 
d="M9 0zM367 731h212l358 -731h-198l-67 142h-392l-67 -142h-204zM350 291h251l-126 266zM405 961h136l168 -190h-131l-105 98l-104 -98h-131zM694 1074q0 -59 -22 -85t-71 -26q-31 0 -58 8.5t-51 19t-45.5 19.5t-39.5 9q-19 0 -31.5 -5.5t-12.5 -32.5v-16h-110v44
q0 57 21.5 84t72.5 27q31 0 58.5 -9t51.5 -19.5t44.5 -19.5t38.5 -9q19 0 31.5 6.5t12.5 32.5v15h110v-43z" />
    <glyph glyph-name="uni1EAB" unicode="&#x1eab;" horiz-adv-x="655" 
d="M45 0zM111 347v116h199q80 0 134.5 -11t87.5 -34t47 -58t14 -84v-276h-384q-48 0 -79.5 8.5t-50.5 26t-26.5 45.5t-7.5 67t7.5 64.5t26.5 41t50.5 22t79.5 6.5h223v4q0 16 -5 28t-19 19.5t-39 11t-66 3.5h-192zM432 106v86h-186q-26 0 -35.5 -9t-9.5 -32q0 -25 9.5 -35
t35.5 -10h186zM261 711h136l168 -190h-131l-105 98l-104 -98h-131zM551 894q0 -59 -22 -85t-71 -26q-31 0 -58 8.5t-51 19t-45.5 19.5t-39.5 9q-19 0 -31.5 -5.5t-12.5 -32.5v-16h-110v44q0 57 21.5 84t72.5 27q31 0 58.5 -9t51.5 -19.5t44.5 -19.5t38.5 -9q19 0 31.5 6.5
t12.5 32.5v15h110v-43z" />
    <glyph glyph-name="uni1EAC" unicode="&#x1eac;" horiz-adv-x="946" 
d="M9 0zM367 731h212l358 -731h-198l-67 142h-392l-67 -142h-204zM350 291h251l-126 266zM405 961h136l168 -190h-131l-105 98l-104 -98h-131zM391 -77h165v-147h-165v147z" />
    <glyph glyph-name="uni1EAD" unicode="&#x1ead;" horiz-adv-x="655" 
d="M45 0zM111 347v116h199q80 0 134.5 -11t87.5 -34t47 -58t14 -84v-276h-384q-48 0 -79.5 8.5t-50.5 26t-26.5 45.5t-7.5 67t7.5 64.5t26.5 41t50.5 22t79.5 6.5h223v4q0 16 -5 28t-19 19.5t-39 11t-66 3.5h-192zM432 106v86h-186q-26 0 -35.5 -9t-9.5 -32q0 -25 9.5 -35
t35.5 -10h186zM260 737h140l172 -214h-135l-108 111l-107 -111h-134zM247 -77h165v-147h-165v147z" />
    <glyph glyph-name="uni1EAE" unicode="&#x1eae;" horiz-adv-x="946" 
d="M9 0zM367 731h212l358 -731h-198l-67 142h-392l-67 -142h-204zM350 291h251l-126 266zM473 751q-63 0 -104.5 9.5t-66.5 31t-35 55.5t-10 82v12h99v-12q0 -24 5 -41t18.5 -27.5t36 -15t57.5 -4.5t58 4.5t36 15t18 27.5t5 41v12h100v-12q0 -48 -10.5 -82t-35 -55.5
t-66.5 -31t-105 -9.5zM476 1121h173l-119 -190h-133z" />
    <glyph glyph-name="uni1EAF" unicode="&#x1eaf;" horiz-adv-x="655" 
d="M45 0zM111 347v116h199q80 0 134.5 -11t87.5 -34t47 -58t14 -84v-276h-384q-48 0 -79.5 8.5t-50.5 26t-26.5 45.5t-7.5 67t7.5 64.5t26.5 41t50.5 22t79.5 6.5h223v4q0 16 -5 28t-19 19.5t-39 11t-66 3.5h-192zM432 106v86h-186q-26 0 -35.5 -9t-9.5 -32q0 -25 9.5 -35
t35.5 -10h186zM329 511q-63 0 -104.5 9.5t-66.5 31t-35 55.5t-10 82v12h99v-12q0 -24 5 -41t18.5 -27.5t36 -15t57.5 -4.5t58 4.5t36 15t18 27.5t5 41v12h100v-12q0 -48 -10.5 -82t-35 -55.5t-66.5 -31t-105 -9.5zM335 921h173l-119 -190h-133z" />
    <glyph glyph-name="uni1EB0" unicode="&#x1eb0;" horiz-adv-x="946" 
d="M9 0zM367 731h212l358 -731h-198l-67 142h-392l-67 -142h-204zM350 291h251l-126 266zM473 751q-63 0 -104.5 9.5t-66.5 31t-35 55.5t-10 82v12h99v-12q0 -24 5 -41t18.5 -27.5t36 -15t57.5 -4.5t58 4.5t36 15t18 27.5t5 41v12h100v-12q0 -48 -10.5 -82t-35 -55.5
t-66.5 -31t-105 -9.5zM549 931h-133l-119 190h174z" />
    <glyph glyph-name="uni1EB1" unicode="&#x1eb1;" horiz-adv-x="655" 
d="M45 0zM111 347v116h199q80 0 134.5 -11t87.5 -34t47 -58t14 -84v-276h-384q-48 0 -79.5 8.5t-50.5 26t-26.5 45.5t-7.5 67t7.5 64.5t26.5 41t50.5 22t79.5 6.5h223v4q0 16 -5 28t-19 19.5t-39 11t-66 3.5h-192zM432 106v86h-186q-26 0 -35.5 -9t-9.5 -32q0 -25 9.5 -35
t35.5 -10h186zM329 511q-63 0 -104.5 9.5t-66.5 31t-35 55.5t-10 82v12h99v-12q0 -24 5 -41t18.5 -27.5t36 -15t57.5 -4.5t58 4.5t36 15t18 27.5t5 41v12h100v-12q0 -48 -10.5 -82t-35 -55.5t-66.5 -31t-105 -9.5zM400 731h-133l-119 190h174z" />
    <glyph glyph-name="uni1EB2" unicode="&#x1eb2;" horiz-adv-x="946" 
d="M9 0zM367 731h212l358 -731h-198l-67 142h-392l-67 -142h-204zM350 291h251l-126 266zM473 751q-63 0 -104.5 9.5t-66.5 31t-35 55.5t-10 82v12h99v-12q0 -24 5 -41t18.5 -27.5t36 -15t57.5 -4.5t58 4.5t36 15t18 27.5t5 41v12h100v-12q0 -48 -10.5 -82t-35 -55.5
t-66.5 -31t-105 -9.5zM513 952q-22 0 -22 -23v-16h-79v29q0 34 16.5 53t55.5 19h42q14 0 20 6t6 24t-6 24.5t-20 6.5h-138v70h162q55 0 74.5 -23.5t19.5 -73.5q0 -51 -20 -73.5t-74 -22.5h-37z" />
    <glyph glyph-name="uni1EB3" unicode="&#x1eb3;" horiz-adv-x="655" 
d="M45 0zM111 347v116h199q80 0 134.5 -11t87.5 -34t47 -58t14 -84v-276h-384q-48 0 -79.5 8.5t-50.5 26t-26.5 45.5t-7.5 67t7.5 64.5t26.5 41t50.5 22t79.5 6.5h223v4q0 16 -5 28t-19 19.5t-39 11t-66 3.5h-192zM432 106v86h-186q-26 0 -35.5 -9t-9.5 -32q0 -25 9.5 -35
t35.5 -10h186zM329 511q-63 0 -104.5 9.5t-66.5 31t-35 55.5t-10 82v12h99v-12q0 -24 5 -41t18.5 -27.5t36 -15t57.5 -4.5t58 4.5t36 15t18 27.5t5 41v12h100v-12q0 -48 -10.5 -82t-35 -55.5t-66.5 -31t-105 -9.5zM366 752q-22 0 -22 -23v-16h-79v29q0 34 16.5 53t55.5 19
h42q14 0 20 6t6 24t-6 24.5t-20 6.5h-138v70h162q55 0 74.5 -23.5t19.5 -73.5q0 -51 -20 -73.5t-74 -22.5h-37z" />
    <glyph glyph-name="uni1EB4" unicode="&#x1eb4;" horiz-adv-x="946" 
d="M9 0zM367 731h212l358 -731h-198l-67 142h-392l-67 -142h-204zM350 291h251l-126 266zM473 751q-63 0 -104.5 9.5t-66.5 31t-35 55.5t-10 82v12h99v-12q0 -24 5 -41t18.5 -27.5t36 -15t57.5 -4.5t58 4.5t36 15t18 27.5t5 41v12h100v-12q0 -48 -10.5 -82t-35 -55.5
t-66.5 -31t-105 -9.5zM694 1084q0 -59 -22 -85t-71 -26q-31 0 -58 8.5t-51 19t-45.5 19.5t-39.5 9q-19 0 -31.5 -5.5t-12.5 -32.5v-16h-110v44q0 57 21.5 84t72.5 27q31 0 58.5 -9t51.5 -19.5t44.5 -19.5t38.5 -9q19 0 31.5 6.5t12.5 32.5v15h110v-43z" />
    <glyph glyph-name="uni1EB5" unicode="&#x1eb5;" horiz-adv-x="655" 
d="M45 0zM111 347v116h199q80 0 134.5 -11t87.5 -34t47 -58t14 -84v-276h-384q-48 0 -79.5 8.5t-50.5 26t-26.5 45.5t-7.5 67t7.5 64.5t26.5 41t50.5 22t79.5 6.5h223v4q0 16 -5 28t-19 19.5t-39 11t-66 3.5h-192zM432 106v86h-186q-26 0 -35.5 -9t-9.5 -32q0 -25 9.5 -35
t35.5 -10h186zM329 511q-63 0 -104.5 9.5t-66.5 31t-35 55.5t-10 82v12h99v-12q0 -24 5 -41t18.5 -27.5t36 -15t57.5 -4.5t58 4.5t36 15t18 27.5t5 41v12h100v-12q0 -48 -10.5 -82t-35 -55.5t-66.5 -31t-105 -9.5zM551 894q0 -59 -22 -85t-71 -26q-31 0 -58 8.5t-51 19
t-45.5 19.5t-39.5 9q-19 0 -31.5 -5.5t-12.5 -32.5v-16h-110v44q0 57 21.5 84t72.5 27q31 0 58.5 -9t51.5 -19.5t44.5 -19.5t38.5 -9q19 0 31.5 6.5t12.5 32.5v15h110v-43z" />
    <glyph glyph-name="uni1EB6" unicode="&#x1eb6;" horiz-adv-x="946" 
d="M9 0zM367 731h212l358 -731h-198l-67 142h-392l-67 -142h-204zM350 291h251l-126 266zM473 771q-63 0 -104.5 9.5t-66.5 31t-35 55.5t-10 82v12h99v-12q0 -24 5 -41t18.5 -27.5t36 -15t57.5 -4.5t58 4.5t36 15t18 27.5t5 41v12h100v-12q0 -48 -10.5 -82t-35 -55.5
t-66.5 -31t-105 -9.5zM390 -77h165v-147h-165v147z" />
    <glyph glyph-name="uni1EB7" unicode="&#x1eb7;" horiz-adv-x="655" 
d="M45 0zM111 347v116h199q80 0 134.5 -11t87.5 -34t47 -58t14 -84v-276h-384q-48 0 -79.5 8.5t-50.5 26t-26.5 45.5t-7.5 67t7.5 64.5t26.5 41t50.5 22t79.5 6.5h223v4q0 16 -5 28t-19 19.5t-39 11t-66 3.5h-192zM432 106v86h-186q-26 0 -35.5 -9t-9.5 -32q0 -25 9.5 -35
t35.5 -10h186zM329 523q-63 0 -104.5 11t-66 35t-35 62t-10.5 92v14h99v-14q0 -27 5 -46t18.5 -31t36 -17.5t57.5 -5.5t58 5.5t36.5 17.5t18.5 31t5 46v14h99v-14q0 -54 -10.5 -92t-35 -62t-66.5 -35t-105 -11zM247 -77h165v-147h-165v147z" />
    <glyph glyph-name="uni1EB8" unicode="&#x1eb8;" horiz-adv-x="799" 
d="M68 0zM741 295h-477v-137h481v-158h-677v731h675v-158h-479v-137h477v-141zM326 -77h165v-147h-165v147z" />
    <glyph glyph-name="uni1EB9" unicode="&#x1eb9;" horiz-adv-x="640" 
d="M40 0zM533 117v-117h-210q-89 0 -144.5 13.5t-86 42t-41.5 73t-11 107.5q0 60 10.5 105t41 75t86.5 44.5t147 14.5q88 0 143 -13.5t86 -41t42.5 -69t11.5 -97.5v-59h-406q1 -23 7.5 -38t21.5 -24t39 -12.5t60 -3.5h203zM331 367q-36 0 -61 -3.5t-40 -12.5t-21.5 -24.5
t-6.5 -38.5v-6h249v6q0 23 -6 38.5t-20.5 24.5t-37.5 12.5t-56 3.5zM239 -77h165v-147h-165v147z" />
    <glyph glyph-name="uni1EBA" unicode="&#x1eba;" horiz-adv-x="799" 
d="M68 0zM741 295h-477v-137h481v-158h-677v731h675v-158h-479v-137h477v-141zM438 796q-22 0 -22 -23v-16h-79v29q0 34 16.5 53t55.5 19h42q14 0 20 6t6 24t-6 24.5t-20 6.5h-138v70h162q55 0 74.5 -23.5t19.5 -73.5q0 -51 -20 -73.5t-74 -22.5h-37z" />
    <glyph glyph-name="uni1EBB" unicode="&#x1ebb;" horiz-adv-x="640" 
d="M40 0zM533 117v-117h-210q-89 0 -144.5 13.5t-86 42t-41.5 73t-11 107.5q0 60 10.5 105t41 75t86.5 44.5t147 14.5q88 0 143 -13.5t86 -41t42.5 -69t11.5 -97.5v-59h-406q1 -23 7.5 -38t21.5 -24t39 -12.5t60 -3.5h203zM331 367q-36 0 -61 -3.5t-40 -12.5t-21.5 -24.5
t-6.5 -38.5v-6h249v6q0 23 -6 38.5t-20.5 24.5t-37.5 12.5t-56 3.5zM358 538q-22 0 -22 -23v-16h-79v29q0 34 16.5 53t55.5 19h42q14 0 20 6t6 24t-6 24.5t-20 6.5h-138v70h162q55 0 74.5 -23.5t19.5 -73.5q0 -51 -20 -73.5t-74 -22.5h-37z" />
    <glyph glyph-name="uni1EBC" unicode="&#x1ebc;" horiz-adv-x="799" 
d="M68 0zM741 295h-477v-137h481v-158h-677v731h675v-158h-479v-137h477v-141zM630 894q0 -59 -22 -85t-71 -26q-31 0 -58 8.5t-51 19t-45.5 19.5t-39.5 9q-19 0 -31.5 -5.5t-12.5 -32.5v-16h-110v44q0 57 21.5 84t72.5 27q31 0 58.5 -9t51.5 -19.5t44.5 -19.5t38.5 -9
q19 0 31.5 6.5t12.5 32.5v15h110v-43z" />
    <glyph glyph-name="uni1EBD" unicode="&#x1ebd;" horiz-adv-x="640" 
d="M40 0zM533 117v-117h-210q-89 0 -144.5 13.5t-86 42t-41.5 73t-11 107.5q0 60 10.5 105t41 75t86.5 44.5t147 14.5q88 0 143 -13.5t86 -41t42.5 -69t11.5 -97.5v-59h-406q1 -23 7.5 -38t21.5 -24t39 -12.5t60 -3.5h203zM331 367q-36 0 -61 -3.5t-40 -12.5t-21.5 -24.5
t-6.5 -38.5v-6h249v6q0 23 -6 38.5t-20.5 24.5t-37.5 12.5t-56 3.5zM542 653q0 -58 -22 -84.5t-72 -26.5q-31 0 -58 8.5t-51 19t-45 19.5t-39 9t-31 -5t-13 -33v-15h-111v43q0 57 22 84t73 27q31 0 58.5 -9t51.5 -19.5t44.5 -19t37.5 -8.5q21 0 32.5 7t11.5 31v15h111v-43z
" />
    <glyph glyph-name="uni1EBE" unicode="&#x1ebe;" horiz-adv-x="799" 
d="M68 0zM741 295h-477v-137h481v-158h-677v731h675v-158h-479v-137h477v-141zM340 961h136l168 -190h-131l-105 98l-104 -98h-131zM667 1061h173l-119 -190h-133z" />
    <glyph glyph-name="uni1EBF" unicode="&#x1ebf;" horiz-adv-x="640" 
d="M40 0zM533 117v-117h-210q-89 0 -144.5 13.5t-86 42t-41.5 73t-11 107.5q0 60 10.5 105t41 75t86.5 44.5t147 14.5q88 0 143 -13.5t86 -41t42.5 -69t11.5 -97.5v-59h-406q1 -23 7.5 -38t21.5 -24t39 -12.5t60 -3.5h203zM331 367q-36 0 -61 -3.5t-40 -12.5t-21.5 -24.5
t-6.5 -38.5v-6h249v6q0 23 -6 38.5t-20.5 24.5t-37.5 12.5t-56 3.5zM253 711h136l168 -190h-131l-105 98l-104 -98h-131zM330 961h173l-119 -190h-133z" />
    <glyph glyph-name="uni1EC0" unicode="&#x1ec0;" horiz-adv-x="799" 
d="M68 0zM741 295h-477v-137h481v-158h-677v731h675v-158h-479v-137h477v-141zM340 961h136l168 -190h-131l-105 98l-104 -98h-131zM773 871h-133l-119 190h174z" />
    <glyph glyph-name="uni1EC1" unicode="&#x1ec1;" horiz-adv-x="640" 
d="M40 0zM533 117v-117h-210q-89 0 -144.5 13.5t-86 42t-41.5 73t-11 107.5q0 60 10.5 105t41 75t86.5 44.5t147 14.5q88 0 143 -13.5t86 -41t42.5 -69t11.5 -97.5v-59h-406q1 -23 7.5 -38t21.5 -24t39 -12.5t60 -3.5h203zM331 367q-36 0 -61 -3.5t-40 -12.5t-21.5 -24.5
t-6.5 -38.5v-6h249v6q0 23 -6 38.5t-20.5 24.5t-37.5 12.5t-56 3.5zM252 711h136l168 -190h-131l-105 98l-104 -98h-131zM394 771h-133l-119 190h174z" />
    <glyph glyph-name="uni1EC2" unicode="&#x1ec2;" horiz-adv-x="799" 
d="M68 0zM741 295h-477v-137h481v-158h-677v731h675v-158h-479v-137h477v-141zM338 961h136l168 -190h-131l-105 98l-104 -98h-131zM718 868q-22 0 -22 -23v-16h-79v29q0 34 16.5 53t55.5 19h42q14 0 20 6t6 24t-6 24.5t-20 6.5h-138v70h162q55 0 74.5 -23.5t19.5 -73.5
q0 -51 -20 -73.5t-74 -22.5h-37z" />
    <glyph glyph-name="uni1EC3" unicode="&#x1ec3;" horiz-adv-x="640" 
d="M40 0zM533 117v-117h-210q-89 0 -144.5 13.5t-86 42t-41.5 73t-11 107.5q0 60 10.5 105t41 75t86.5 44.5t147 14.5q88 0 143 -13.5t86 -41t42.5 -69t11.5 -97.5v-59h-406q1 -23 7.5 -38t21.5 -24t39 -12.5t60 -3.5h203zM331 367q-36 0 -61 -3.5t-40 -12.5t-21.5 -24.5
t-6.5 -38.5v-6h249v6q0 23 -6 38.5t-20.5 24.5t-37.5 12.5t-56 3.5zM253 701h136l168 -190h-131l-105 98l-104 -98h-131zM363 768q-22 0 -22 -23v-16h-79v29q0 34 16.5 53t55.5 19h42q14 0 20 6t6 24t-6 24.5t-20 6.5h-138v70h162q55 0 74.5 -23.5t19.5 -73.5
q0 -51 -20 -73.5t-74 -22.5h-37z" />
    <glyph glyph-name="uni1EC4" unicode="&#x1ec4;" horiz-adv-x="799" 
d="M68 0zM741 295h-477v-137h481v-158h-677v731h675v-158h-479v-137h477v-141zM340 961h136l168 -190h-131l-105 98l-104 -98h-131zM630 1094q0 -59 -22 -85t-71 -26q-31 0 -58 8.5t-51 19t-45.5 19.5t-39.5 9q-19 0 -31.5 -5.5t-12.5 -32.5v-16h-110v44q0 57 21.5 84
t72.5 27q31 0 58.5 -9t51.5 -19.5t44.5 -19.5t38.5 -9q19 0 31.5 6.5t12.5 32.5v15h110v-43z" />
    <glyph glyph-name="uni1EC5" unicode="&#x1ec5;" horiz-adv-x="640" 
d="M40 0zM533 117v-117h-210q-89 0 -144.5 13.5t-86 42t-41.5 73t-11 107.5q0 60 10.5 105t41 75t86.5 44.5t147 14.5q88 0 143 -13.5t86 -41t42.5 -69t11.5 -97.5v-59h-406q1 -23 7.5 -38t21.5 -24t39 -12.5t60 -3.5h203zM331 367q-36 0 -61 -3.5t-40 -12.5t-21.5 -24.5
t-6.5 -38.5v-6h249v6q0 23 -6 38.5t-20.5 24.5t-37.5 12.5t-56 3.5zM253 711h136l168 -190h-131l-105 98l-104 -98h-131zM542 894q0 -59 -22 -85t-71 -26q-31 0 -58 8.5t-51 19t-45.5 19.5t-39.5 9q-19 0 -31.5 -5.5t-12.5 -32.5v-16h-110v44q0 57 21.5 84t72.5 27
q31 0 58.5 -9t51.5 -19.5t44.5 -19.5t38.5 -9q19 0 31.5 6.5t12.5 32.5v15h110v-43z" />
    <glyph glyph-name="uni1EC6" unicode="&#x1ec6;" horiz-adv-x="799" 
d="M68 0zM741 295h-477v-137h481v-158h-677v731h675v-158h-479v-137h477v-141zM340 961h136l168 -190h-131l-105 98l-104 -98h-131zM326 -77h165v-147h-165v147z" />
    <glyph glyph-name="uni1EC7" unicode="&#x1ec7;" horiz-adv-x="640" 
d="M40 0zM533 117v-117h-210q-89 0 -144.5 13.5t-86 42t-41.5 73t-11 107.5q0 60 10.5 105t41 75t86.5 44.5t147 14.5q88 0 143 -13.5t86 -41t42.5 -69t11.5 -97.5v-59h-406q1 -23 7.5 -38t21.5 -24t39 -12.5t60 -3.5h203zM331 367q-36 0 -61 -3.5t-40 -12.5t-21.5 -24.5
t-6.5 -38.5v-6h249v6q0 23 -6 38.5t-20.5 24.5t-37.5 12.5t-56 3.5zM252 737h140l172 -214h-135l-108 111l-107 -111h-134zM239 -77h165v-147h-165v147z" />
    <glyph glyph-name="uni1EC8" unicode="&#x1ec8;" horiz-adv-x="341" 
d="M68 0zM264 731v-731h-196v731h196zM207 796q-22 0 -22 -23v-16h-79v29q0 34 16.5 53t55.5 19h42q14 0 20 6t6 24t-6 24.5t-20 6.5h-138v70h162q55 0 74.5 -23.5t19.5 -73.5q0 -51 -20 -73.5t-74 -22.5h-37z" />
    <glyph glyph-name="uni1EC9" unicode="&#x1ec9;" horiz-adv-x="325" 
d="M64 0zM64 463h180v-463h-180v463zM195 538q-22 0 -22 -23v-16h-79v29q0 34 16.5 53t55.5 19h42q14 0 20 6t6 24t-6 24.5t-20 6.5h-138v70h162q55 0 74.5 -23.5t19.5 -73.5q0 -51 -20 -73.5t-74 -22.5h-37z" />
    <glyph glyph-name="uni1ECA" unicode="&#x1eca;" horiz-adv-x="332" 
d="M68 0zM264 731v-731h-196v731h196zM84 -77h165v-147h-165v147z" />
    <glyph glyph-name="uni1ECB" unicode="&#x1ecb;" horiz-adv-x="308" 
d="M64 0zM64 463h180v-463h-180v463zM70 686h166v-146h-166v146zM71 -77h165v-147h-165v147z" />
    <glyph glyph-name="uni1ECC" unicode="&#x1ecc;" horiz-adv-x="854" 
d="M38 0zM427 583q-63 0 -101.5 -11t-59.5 -36.5t-28 -67.5t-7 -103t7 -103t28 -67.5t59.5 -36.5t101.5 -11t101.5 11t59.5 36.5t28 67.5t7 103t-7 103t-28 67.5t-59.5 36.5t-101.5 11zM427 -15q-121 0 -197 20.5t-118.5 66t-58 117.5t-15.5 176q0 103 15.5 175.5t58 118
t118.5 66t197 20.5t197 -20.5t118.5 -66t58 -118t15.5 -175.5q0 -104 -15.5 -176t-58 -117.5t-118.5 -66t-197 -20.5zM345 -77h165v-147h-165v147z" />
    <glyph glyph-name="uni1ECD" unicode="&#x1ecd;" horiz-adv-x="661" 
d="M40 0zM330 343q-41 0 -65.5 -6t-38 -19t-18 -34.5t-4.5 -51.5t4.5 -51.5t18 -35t38 -19.5t65.5 -6q40 0 65 6t38.5 19.5t18 35t4.5 51.5t-4.5 51.5t-18 34.5t-38.5 19t-65 6zM330 -11q-90 0 -147 13.5t-88.5 43t-43 75.5t-11.5 111q0 64 11.5 110.5t43.5 75.5t88.5 43
t146.5 14q91 0 147.5 -14t88.5 -43t43.5 -75.5t11.5 -110.5q0 -65 -11.5 -111t-43.5 -75.5t-88.5 -43t-147.5 -13.5zM248 -77h165v-147h-165v147z" />
    <glyph glyph-name="uni1ECE" unicode="&#x1ece;" horiz-adv-x="854" 
d="M38 0zM427 583q-63 0 -101.5 -11t-59.5 -36.5t-28 -67.5t-7 -103t7 -103t28 -67.5t59.5 -36.5t101.5 -11t101.5 11t59.5 36.5t28 67.5t7 103t-7 103t-28 67.5t-59.5 36.5t-101.5 11zM427 -15q-121 0 -197 20.5t-118.5 66t-58 117.5t-15.5 176q0 103 15.5 175.5t58 118
t118.5 66t197 20.5t197 -20.5t118.5 -66t58 -118t15.5 -175.5q0 -104 -15.5 -176t-58 -117.5t-118.5 -66t-197 -20.5zM464 796q-22 0 -22 -23v-16h-79v29q0 34 16.5 53t55.5 19h42q14 0 20 6t6 24t-6 24.5t-20 6.5h-138v70h162q55 0 74.5 -23.5t19.5 -73.5q0 -51 -20 -73.5
t-74 -22.5h-37z" />
    <glyph glyph-name="uni1ECF" unicode="&#x1ecf;" horiz-adv-x="661" 
d="M40 0zM330 343q-41 0 -65.5 -6t-38 -19t-18 -34.5t-4.5 -51.5t4.5 -51.5t18 -35t38 -19.5t65.5 -6q40 0 65 6t38.5 19.5t18 35t4.5 51.5t-4.5 51.5t-18 34.5t-38.5 19t-65 6zM330 -11q-90 0 -147 13.5t-88.5 43t-43 75.5t-11.5 111q0 64 11.5 110.5t43.5 75.5t88.5 43
t146.5 14q91 0 147.5 -14t88.5 -43t43.5 -75.5t11.5 -110.5q0 -65 -11.5 -111t-43.5 -75.5t-88.5 -43t-147.5 -13.5zM368 538q-22 0 -22 -23v-16h-79v29q0 34 16.5 53t55.5 19h42q14 0 20 6t6 24t-6 24.5t-20 6.5h-138v70h162q55 0 74.5 -23.5t19.5 -73.5q0 -51 -20 -73.5
t-74 -22.5h-37z" />
    <glyph glyph-name="uni1ED0" unicode="&#x1ed0;" horiz-adv-x="854" 
d="M38 0zM427 583q-63 0 -101.5 -11t-59.5 -36.5t-28 -67.5t-7 -103t7 -103t28 -67.5t59.5 -36.5t101.5 -11t101.5 11t59.5 36.5t28 67.5t7 103t-7 103t-28 67.5t-59.5 36.5t-101.5 11zM427 -15q-121 0 -197 20.5t-118.5 66t-58 117.5t-15.5 176q0 103 15.5 175.5t58 118
t118.5 66t197 20.5t197 -20.5t118.5 -66t58 -118t15.5 -175.5q0 -104 -15.5 -176t-58 -117.5t-118.5 -66t-197 -20.5zM359 961h136l168 -190h-131l-105 98l-104 -98h-131zM687 1061h173l-119 -190h-133z" />
    <glyph glyph-name="uni1ED1" unicode="&#x1ed1;" horiz-adv-x="661" 
d="M40 0zM330 343q-41 0 -65.5 -6t-38 -19t-18 -34.5t-4.5 -51.5t4.5 -51.5t18 -35t38 -19.5t65.5 -6q40 0 65 6t38.5 19.5t18 35t4.5 51.5t-4.5 51.5t-18 34.5t-38.5 19t-65 6zM330 -11q-90 0 -147 13.5t-88.5 43t-43 75.5t-11.5 111q0 64 11.5 110.5t43.5 75.5t88.5 43
t146.5 14q91 0 147.5 -14t88.5 -43t43.5 -75.5t11.5 -110.5q0 -65 -11.5 -111t-43.5 -75.5t-88.5 -43t-147.5 -13.5zM262 711h136l168 -190h-131l-105 98l-104 -98h-131zM341 961h173l-119 -190h-133z" />
    <glyph glyph-name="uni1ED2" unicode="&#x1ed2;" horiz-adv-x="854" 
d="M38 0zM427 583q-63 0 -101.5 -11t-59.5 -36.5t-28 -67.5t-7 -103t7 -103t28 -67.5t59.5 -36.5t101.5 -11t101.5 11t59.5 36.5t28 67.5t7 103t-7 103t-28 67.5t-59.5 36.5t-101.5 11zM427 -15q-121 0 -197 20.5t-118.5 66t-58 117.5t-15.5 176q0 103 15.5 175.5t58 118
t118.5 66t197 20.5t197 -20.5t118.5 -66t58 -118t15.5 -175.5q0 -104 -15.5 -176t-58 -117.5t-118.5 -66t-197 -20.5zM359 961h136l168 -190h-131l-105 98l-104 -98h-131zM789 871h-133l-119 190h174z" />
    <glyph glyph-name="uni1ED3" unicode="&#x1ed3;" horiz-adv-x="661" 
d="M40 0zM330 343q-41 0 -65.5 -6t-38 -19t-18 -34.5t-4.5 -51.5t4.5 -51.5t18 -35t38 -19.5t65.5 -6q40 0 65 6t38.5 19.5t18 35t4.5 51.5t-4.5 51.5t-18 34.5t-38.5 19t-65 6zM330 -11q-90 0 -147 13.5t-88.5 43t-43 75.5t-11.5 111q0 64 11.5 110.5t43.5 75.5t88.5 43
t146.5 14q91 0 147.5 -14t88.5 -43t43.5 -75.5t11.5 -110.5q0 -65 -11.5 -111t-43.5 -75.5t-88.5 -43t-147.5 -13.5zM262 711h136l168 -190h-131l-105 98l-104 -98h-131zM400 771h-133l-119 190h174z" />
    <glyph glyph-name="uni1ED4" unicode="&#x1ed4;" horiz-adv-x="854" 
d="M38 0zM427 583q-63 0 -101.5 -11t-59.5 -36.5t-28 -67.5t-7 -103t7 -103t28 -67.5t59.5 -36.5t101.5 -11t101.5 11t59.5 36.5t28 67.5t7 103t-7 103t-28 67.5t-59.5 36.5t-101.5 11zM427 -15q-121 0 -197 20.5t-118.5 66t-58 117.5t-15.5 176q0 103 15.5 175.5t58 118
t118.5 66t197 20.5t197 -20.5t118.5 -66t58 -118t15.5 -175.5q0 -104 -15.5 -176t-58 -117.5t-118.5 -66t-197 -20.5zM359 961h136l168 -190h-131l-105 98l-104 -98h-131zM735 868q-22 0 -22 -23v-16h-79v29q0 34 16.5 53t55.5 19h42q14 0 20 6t6 24t-6 24.5t-20 6.5h-138
v70h162q55 0 74.5 -23.5t19.5 -73.5q0 -51 -20 -73.5t-74 -22.5h-37z" />
    <glyph glyph-name="uni1ED5" unicode="&#x1ed5;" horiz-adv-x="661" 
d="M40 0zM330 343q-41 0 -65.5 -6t-38 -19t-18 -34.5t-4.5 -51.5t4.5 -51.5t18 -35t38 -19.5t65.5 -6q40 0 65 6t38.5 19.5t18 35t4.5 51.5t-4.5 51.5t-18 34.5t-38.5 19t-65 6zM330 -11q-90 0 -147 13.5t-88.5 43t-43 75.5t-11.5 111q0 64 11.5 110.5t43.5 75.5t88.5 43
t146.5 14q91 0 147.5 -14t88.5 -43t43.5 -75.5t11.5 -110.5q0 -65 -11.5 -111t-43.5 -75.5t-88.5 -43t-147.5 -13.5zM262 701h136l168 -190h-131l-105 98l-104 -98h-131zM381 768q-22 0 -22 -23v-16h-79v29q0 34 16.5 53t55.5 19h42q14 0 20 6t6 24t-6 24.5t-20 6.5h-138v70
h162q55 0 74.5 -23.5t19.5 -73.5q0 -51 -20 -73.5t-74 -22.5h-37z" />
    <glyph glyph-name="uni1ED6" unicode="&#x1ed6;" horiz-adv-x="854" 
d="M38 0zM427 583q-63 0 -101.5 -11t-59.5 -36.5t-28 -67.5t-7 -103t7 -103t28 -67.5t59.5 -36.5t101.5 -11t101.5 11t59.5 36.5t28 67.5t7 103t-7 103t-28 67.5t-59.5 36.5t-101.5 11zM427 -15q-121 0 -197 20.5t-118.5 66t-58 117.5t-15.5 176q0 103 15.5 175.5t58 118
t118.5 66t197 20.5t197 -20.5t118.5 -66t58 -118t15.5 -175.5q0 -104 -15.5 -176t-58 -117.5t-118.5 -66t-197 -20.5zM359 961h136l168 -190h-131l-105 98l-104 -98h-131zM648 1074q0 -59 -22 -85t-71 -26q-31 0 -58 8.5t-51 19t-45.5 19.5t-39.5 9q-19 0 -31.5 -5.5
t-12.5 -32.5v-16h-110v44q0 57 21.5 84t72.5 27q31 0 58.5 -9t51.5 -19.5t44.5 -19.5t38.5 -9q19 0 31.5 6.5t12.5 32.5v15h110v-43z" />
    <glyph glyph-name="uni1ED7" unicode="&#x1ed7;" horiz-adv-x="661" 
d="M40 0zM330 343q-41 0 -65.5 -6t-38 -19t-18 -34.5t-4.5 -51.5t4.5 -51.5t18 -35t38 -19.5t65.5 -6q40 0 65 6t38.5 19.5t18 35t4.5 51.5t-4.5 51.5t-18 34.5t-38.5 19t-65 6zM330 -11q-90 0 -147 13.5t-88.5 43t-43 75.5t-11.5 111q0 64 11.5 110.5t43.5 75.5t88.5 43
t146.5 14q91 0 147.5 -14t88.5 -43t43.5 -75.5t11.5 -110.5q0 -65 -11.5 -111t-43.5 -75.5t-88.5 -43t-147.5 -13.5zM262 711h136l168 -190h-131l-105 98l-104 -98h-131zM552 894q0 -59 -22 -85t-71 -26q-31 0 -58 8.5t-51 19t-45.5 19.5t-39.5 9q-19 0 -31.5 -5.5
t-12.5 -32.5v-16h-110v44q0 57 21.5 84t72.5 27q31 0 58.5 -9t51.5 -19.5t44.5 -19.5t38.5 -9q19 0 31.5 6.5t12.5 32.5v15h110v-43z" />
    <glyph glyph-name="uni1ED8" unicode="&#x1ed8;" horiz-adv-x="854" 
d="M38 0zM427 583q-63 0 -101.5 -11t-59.5 -36.5t-28 -67.5t-7 -103t7 -103t28 -67.5t59.5 -36.5t101.5 -11t101.5 11t59.5 36.5t28 67.5t7 103t-7 103t-28 67.5t-59.5 36.5t-101.5 11zM427 -15q-121 0 -197 20.5t-118.5 66t-58 117.5t-15.5 176q0 103 15.5 175.5t58 118
t118.5 66t197 20.5t197 -20.5t118.5 -66t58 -118t15.5 -175.5q0 -104 -15.5 -176t-58 -117.5t-118.5 -66t-197 -20.5zM359 961h136l168 -190h-131l-105 98l-104 -98h-131zM345 -77h165v-147h-165v147z" />
    <glyph glyph-name="uni1ED9" unicode="&#x1ed9;" horiz-adv-x="661" 
d="M40 0zM330 343q-41 0 -65.5 -6t-38 -19t-18 -34.5t-4.5 -51.5t4.5 -51.5t18 -35t38 -19.5t65.5 -6q40 0 65 6t38.5 19.5t18 35t4.5 51.5t-4.5 51.5t-18 34.5t-38.5 19t-65 6zM330 -11q-90 0 -147 13.5t-88.5 43t-43 75.5t-11.5 111q0 64 11.5 110.5t43.5 75.5t88.5 43
t146.5 14q91 0 147.5 -14t88.5 -43t43.5 -75.5t11.5 -110.5q0 -65 -11.5 -111t-43.5 -75.5t-88.5 -43t-147.5 -13.5zM262 737h140l172 -214h-135l-108 111l-107 -111h-134zM248 -77h165v-147h-165v147z" />
    <glyph glyph-name="uni1EDA" unicode="&#x1eda;" horiz-adv-x="924" 
d="M38 0zM753 731q28 0 40.5 8t12.5 31v93h146v-96q0 -39 -9.5 -65.5t-31.5 -43t-57.5 -24t-87.5 -7.5q29 -46 39.5 -110t10.5 -152q0 -104 -15.5 -176t-58 -117.5t-118.5 -66t-197 -20.5t-197 20.5t-118.5 66t-58 117.5t-15.5 176q0 103 15.5 175.5t58 118t118.5 66
t197 20.5q51 0 92.5 -3.5t76.5 -10.5h157zM427 583q-63 0 -101.5 -11t-59.5 -36.5t-28 -67.5t-7 -103t7 -103t28 -67.5t59.5 -36.5t101.5 -11t101.5 11t59.5 36.5t28 67.5t7 103t-7 103t-28 67.5t-59.5 36.5t-101.5 11zM410 961h173l-119 -190h-133z" />
    <glyph glyph-name="uni1EDB" unicode="&#x1edb;" horiz-adv-x="727" 
d="M40 0zM558 463q29 0 41 9t12 30v91h146v-94q0 -29 -6 -54t-21 -43.5t-40 -29t-64 -10.5h-30q16 -24 20.5 -58t4.5 -72q0 -65 -11.5 -111t-43.5 -75.5t-88.5 -43t-147.5 -13.5q-90 0 -146.5 13.5t-88.5 43t-43.5 75.5t-11.5 111q0 64 11.5 110.5t43.5 75.5t88.5 43
t146.5 14q82 0 138 -12h90zM330 343q-41 0 -65.5 -6t-38 -19t-18 -34.5t-4.5 -51.5t4.5 -51.5t18 -35t38 -19.5t65.5 -6t65.5 6t38 19.5t18 35t4.5 51.5q0 31 -4.5 52.5t-18 34.5t-38.5 18.5t-65 5.5zM300 737h174l-95 -214h-133z" />
    <glyph glyph-name="uni1EDC" unicode="&#x1edc;" horiz-adv-x="924" 
d="M38 0zM753 731q28 0 40.5 8t12.5 31v93h146v-96q0 -39 -9.5 -65.5t-31.5 -43t-57.5 -24t-87.5 -7.5q29 -46 39.5 -110t10.5 -152q0 -104 -15.5 -176t-58 -117.5t-118.5 -66t-197 -20.5t-197 20.5t-118.5 66t-58 117.5t-15.5 176q0 103 15.5 175.5t58 118t118.5 66
t197 20.5q51 0 92.5 -3.5t76.5 -10.5h157zM427 583q-63 0 -101.5 -11t-59.5 -36.5t-28 -67.5t-7 -103t7 -103t28 -67.5t59.5 -36.5t101.5 -11t101.5 11t59.5 36.5t28 67.5t7 103t-7 103t-28 67.5t-59.5 36.5t-101.5 11zM529 771h-133l-119 190h174z" />
    <glyph glyph-name="uni1EDD" unicode="&#x1edd;" horiz-adv-x="727" 
d="M40 0zM558 463q29 0 41 9t12 30v91h146v-94q0 -29 -6 -54t-21 -43.5t-40 -29t-64 -10.5h-30q16 -24 20.5 -58t4.5 -72q0 -65 -11.5 -111t-43.5 -75.5t-88.5 -43t-147.5 -13.5q-90 0 -146.5 13.5t-88.5 43t-43.5 75.5t-11.5 111q0 64 11.5 110.5t43.5 75.5t88.5 43
t146.5 14q82 0 138 -12h90zM330 343q-41 0 -65.5 -6t-38 -19t-18 -34.5t-4.5 -51.5t4.5 -51.5t18 -35t38 -19.5t65.5 -6t65.5 6t38 19.5t18 35t4.5 51.5q0 31 -4.5 52.5t-18 34.5t-38.5 18.5t-65 5.5zM414 523h-133l-94 214h174z" />
    <glyph glyph-name="uni1EDE" unicode="&#x1ede;" horiz-adv-x="924" 
d="M38 0zM753 731q28 0 40.5 8t12.5 31v93h146v-96q0 -39 -9.5 -65.5t-31.5 -43t-57.5 -24t-87.5 -7.5q29 -46 39.5 -110t10.5 -152q0 -104 -15.5 -176t-58 -117.5t-118.5 -66t-197 -20.5t-197 20.5t-118.5 66t-58 117.5t-15.5 176q0 103 15.5 175.5t58 118t118.5 66
t197 20.5q51 0 92.5 -3.5t76.5 -10.5h157zM427 583q-63 0 -101.5 -11t-59.5 -36.5t-28 -67.5t-7 -103t7 -103t28 -67.5t59.5 -36.5t101.5 -11t101.5 11t59.5 36.5t28 67.5t7 103t-7 103t-28 67.5t-59.5 36.5t-101.5 11zM475 796q-22 0 -22 -23v-16h-79v29q0 34 16.5 53
t55.5 19h42q14 0 20 6t6 24t-6 24.5t-20 6.5h-138v70h162q55 0 74.5 -23.5t19.5 -73.5q0 -51 -20 -73.5t-74 -22.5h-37z" />
    <glyph glyph-name="uni1EDF" unicode="&#x1edf;" horiz-adv-x="727" 
d="M40 0zM558 463q29 0 41 9t12 30v91h146v-94q0 -29 -6 -54t-21 -43.5t-40 -29t-64 -10.5h-30q16 -24 20.5 -58t4.5 -72q0 -65 -11.5 -111t-43.5 -75.5t-88.5 -43t-147.5 -13.5q-90 0 -146.5 13.5t-88.5 43t-43.5 75.5t-11.5 111q0 64 11.5 110.5t43.5 75.5t88.5 43
t146.5 14q82 0 138 -12h90zM330 343q-41 0 -65.5 -6t-38 -19t-18 -34.5t-4.5 -51.5t4.5 -51.5t18 -35t38 -19.5t65.5 -6t65.5 6t38 19.5t18 35t4.5 51.5q0 31 -4.5 52.5t-18 34.5t-38.5 18.5t-65 5.5zM370 538q-22 0 -22 -23v-16h-79v29q0 34 16.5 53t55.5 19h42q14 0 20 6
t6 24t-6 24.5t-20 6.5h-138v70h162q55 0 74.5 -23.5t19.5 -73.5q0 -51 -20 -73.5t-74 -22.5h-37z" />
    <glyph glyph-name="uni1EE0" unicode="&#x1ee0;" horiz-adv-x="924" 
d="M38 0zM753 731q28 0 40.5 8t12.5 31v93h146v-96q0 -39 -9.5 -65.5t-31.5 -43t-57.5 -24t-87.5 -7.5q29 -46 39.5 -110t10.5 -152q0 -104 -15.5 -176t-58 -117.5t-118.5 -66t-197 -20.5t-197 20.5t-118.5 66t-58 117.5t-15.5 176q0 103 15.5 175.5t58 118t118.5 66
t197 20.5q51 0 92.5 -3.5t76.5 -10.5h157zM427 583q-63 0 -101.5 -11t-59.5 -36.5t-28 -67.5t-7 -103t7 -103t28 -67.5t59.5 -36.5t101.5 -11t101.5 11t59.5 36.5t28 67.5t7 103t-7 103t-28 67.5t-59.5 36.5t-101.5 11zM651 894q0 -59 -22 -85t-71 -26q-31 0 -58 8.5t-51 19
t-45.5 19.5t-39.5 9q-19 0 -31.5 -5.5t-12.5 -32.5v-16h-110v44q0 57 21.5 84t72.5 27q31 0 58.5 -9t51.5 -19.5t44.5 -19.5t38.5 -9q19 0 31.5 6.5t12.5 32.5v15h110v-43z" />
    <glyph glyph-name="uni1EE1" unicode="&#x1ee1;" horiz-adv-x="727" 
d="M40 0zM558 463q29 0 41 9t12 30v91h146v-94q0 -29 -6 -54t-21 -43.5t-40 -29t-64 -10.5h-30q16 -24 20.5 -58t4.5 -72q0 -65 -11.5 -111t-43.5 -75.5t-88.5 -43t-147.5 -13.5q-90 0 -146.5 13.5t-88.5 43t-43.5 75.5t-11.5 111q0 64 11.5 110.5t43.5 75.5t88.5 43
t146.5 14q82 0 138 -12h90zM330 343q-41 0 -65.5 -6t-38 -19t-18 -34.5t-4.5 -51.5t4.5 -51.5t18 -35t38 -19.5t65.5 -6t65.5 6t38 19.5t18 35t4.5 51.5q0 31 -4.5 52.5t-18 34.5t-38.5 18.5t-65 5.5zM550 653q0 -58 -22 -84.5t-72 -26.5q-31 0 -58 8.5t-51 19t-45 19.5
t-39 9t-31 -5t-13 -33v-15h-111v43q0 57 22 84t73 27q31 0 58.5 -9t51.5 -19.5t44.5 -19t37.5 -8.5q21 0 32.5 7t11.5 31v15h111v-43z" />
    <glyph glyph-name="uni1EE2" unicode="&#x1ee2;" horiz-adv-x="924" 
d="M38 0zM753 731q28 0 40.5 8t12.5 31v93h146v-96q0 -39 -9.5 -65.5t-31.5 -43t-57.5 -24t-87.5 -7.5q29 -46 39.5 -110t10.5 -152q0 -104 -15.5 -176t-58 -117.5t-118.5 -66t-197 -20.5t-197 20.5t-118.5 66t-58 117.5t-15.5 176q0 103 15.5 175.5t58 118t118.5 66
t197 20.5q51 0 92.5 -3.5t76.5 -10.5h157zM427 583q-63 0 -101.5 -11t-59.5 -36.5t-28 -67.5t-7 -103t7 -103t28 -67.5t59.5 -36.5t101.5 -11t101.5 11t59.5 36.5t28 67.5t7 103t-7 103t-28 67.5t-59.5 36.5t-101.5 11zM345 -77h165v-147h-165v147z" />
    <glyph glyph-name="uni1EE3" unicode="&#x1ee3;" horiz-adv-x="727" 
d="M40 0zM558 463q29 0 41 9t12 30v91h146v-94q0 -29 -6 -54t-21 -43.5t-40 -29t-64 -10.5h-30q16 -24 20.5 -58t4.5 -72q0 -65 -11.5 -111t-43.5 -75.5t-88.5 -43t-147.5 -13.5q-90 0 -146.5 13.5t-88.5 43t-43.5 75.5t-11.5 111q0 64 11.5 110.5t43.5 75.5t88.5 43
t146.5 14q82 0 138 -12h90zM330 343q-41 0 -65.5 -6t-38 -19t-18 -34.5t-4.5 -51.5t4.5 -51.5t18 -35t38 -19.5t65.5 -6t65.5 6t38 19.5t18 35t4.5 51.5q0 31 -4.5 52.5t-18 34.5t-38.5 18.5t-65 5.5zM244 -77h165v-147h-165v147z" />
    <glyph glyph-name="uni1EE4" unicode="&#x1ee4;" horiz-adv-x="844" 
d="M56 0zM389 0q-87 0 -150 16.5t-103.5 52t-60 90t-19.5 130.5v442h195v-442q0 -35 7 -60t23 -41t43 -23t68 -7h66q39 0 66 7t43.5 23t23.5 41t7 60v442h191v-442q0 -76 -19.5 -130.5t-60 -90t-104 -52t-150.5 -16.5h-66zM339 -77h165v-147h-165v147z" />
    <glyph glyph-name="uni1EE5" unicode="&#x1ee5;" horiz-adv-x="720" 
d="M62 0zM656 0h-328q-74 0 -125 11t-82.5 33.5t-45 58t-13.5 83.5v277h180v-255q0 -33 17 -48.5t69 -15.5h149v319h179v-463zM277 -77h165v-147h-165v147z" />
    <glyph glyph-name="uni1EE6" unicode="&#x1ee6;" horiz-adv-x="844" 
d="M56 0zM389 0q-87 0 -150 16.5t-103.5 52t-60 90t-19.5 130.5v442h195v-442q0 -35 7 -60t23 -41t43 -23t68 -7h66q39 0 66 7t43.5 23t23.5 41t7 60v442h191v-442q0 -76 -19.5 -130.5t-60 -90t-104 -52t-150.5 -16.5h-66zM465 796q-22 0 -22 -23v-16h-79v29q0 34 16.5 53
t55.5 19h42q14 0 20 6t6 24t-6 24.5t-20 6.5h-138v70h162q55 0 74.5 -23.5t19.5 -73.5q0 -51 -20 -73.5t-74 -22.5h-37z" />
    <glyph glyph-name="uni1EE7" unicode="&#x1ee7;" horiz-adv-x="720" 
d="M62 0zM656 0h-328q-74 0 -125 11t-82.5 33.5t-45 58t-13.5 83.5v277h180v-255q0 -33 17 -48.5t69 -15.5h149v319h179v-463zM405 538q-22 0 -22 -23v-16h-79v29q0 34 16.5 53t55.5 19h42q14 0 20 6t6 24t-6 24.5t-20 6.5h-138v70h162q55 0 74.5 -23.5t19.5 -73.5
q0 -51 -20 -73.5t-74 -22.5h-37z" />
    <glyph glyph-name="uni1EE8" unicode="&#x1ee8;" horiz-adv-x="984" 
d="M56 0zM389 0q-87 0 -150 16.5t-103.5 52t-60 90t-19.5 130.5v442h195v-442q0 -35 7 -60t23.5 -41t43.5 -23t67 -7h66q40 0 66.5 7t43 23t23.5 41t7 60v442h215q28 0 40.5 8t12.5 31v93h146v-96q0 -39 -10 -66t-32.5 -43.5t-59 -23.5t-90.5 -7h-31v-338
q0 -76 -19.5 -130.5t-60 -90t-104 -52t-150.5 -16.5h-66zM409 961h173l-119 -190h-133z" />
    <glyph glyph-name="uni1EE9" unicode="&#x1ee9;" horiz-adv-x="815" 
d="M62 0zM652 463q46 1 46 39v91h145v-94q0 -39 -9.5 -65.5t-31.5 -43t-58 -24t-88 -7.5v-359h-328q-74 0 -125 11t-82.5 33.5t-45 58t-13.5 83.5v277h180v-255q0 -34 18 -49t68 -15h149v319h175v0zM331 737h174l-95 -214h-133z" />
    <glyph glyph-name="uni1EEA" unicode="&#x1eea;" horiz-adv-x="984" 
d="M56 0zM389 0q-87 0 -150 16.5t-103.5 52t-60 90t-19.5 130.5v442h195v-442q0 -35 7 -60t23.5 -41t43.5 -23t67 -7h66q40 0 66.5 7t43 23t23.5 41t7 60v442h215q28 0 40.5 8t12.5 31v93h146v-96q0 -39 -10 -66t-32.5 -43.5t-59 -23.5t-90.5 -7h-31v-338
q0 -76 -19.5 -130.5t-60 -90t-104 -52t-150.5 -16.5h-66zM524 771h-133l-119 190h174z" />
    <glyph glyph-name="uni1EEB" unicode="&#x1eeb;" horiz-adv-x="815" 
d="M62 0zM652 463q46 1 46 39v91h145v-94q0 -39 -9.5 -65.5t-31.5 -43t-58 -24t-88 -7.5v-359h-328q-74 0 -125 11t-82.5 33.5t-45 58t-13.5 83.5v277h180v-255q0 -34 18 -49t68 -15h149v319h175v0zM443 523h-133l-94 214h174z" />
    <glyph glyph-name="uni1EEC" unicode="&#x1eec;" horiz-adv-x="984" 
d="M56 0zM389 0q-87 0 -150 16.5t-103.5 52t-60 90t-19.5 130.5v442h195v-442q0 -35 7 -60t23.5 -41t43.5 -23t67 -7h66q40 0 66.5 7t43 23t23.5 41t7 60v442h215q28 0 40.5 8t12.5 31v93h146v-96q0 -39 -10 -66t-32.5 -43.5t-59 -23.5t-90.5 -7h-31v-338
q0 -76 -19.5 -130.5t-60 -90t-104 -52t-150.5 -16.5h-66zM485 796q-22 0 -22 -23v-16h-79v29q0 34 16.5 53t55.5 19h42q14 0 20 6t6 24t-6 24.5t-20 6.5h-138v70h162q55 0 74.5 -23.5t19.5 -73.5q0 -51 -20 -73.5t-74 -22.5h-37z" />
    <glyph glyph-name="uni1EED" unicode="&#x1eed;" horiz-adv-x="815" 
d="M62 0zM652 463q46 1 46 39v91h145v-94q0 -39 -9.5 -65.5t-31.5 -43t-58 -24t-88 -7.5v-359h-328q-74 0 -125 11t-82.5 33.5t-45 58t-13.5 83.5v277h180v-255q0 -34 18 -49t68 -15h149v319h175v0zM412 538q-22 0 -22 -23v-16h-79v29q0 34 16.5 53t55.5 19h42q14 0 20 6
t6 24t-6 24.5t-20 6.5h-138v70h162q55 0 74.5 -23.5t19.5 -73.5q0 -51 -20 -73.5t-74 -22.5h-37z" />
    <glyph glyph-name="uni1EEE" unicode="&#x1eee;" horiz-adv-x="984" 
d="M56 0zM389 0q-87 0 -150 16.5t-103.5 52t-60 90t-19.5 130.5v442h195v-442q0 -35 7 -60t23.5 -41t43.5 -23t67 -7h66q40 0 66.5 7t43 23t23.5 41t7 60v442h215q28 0 40.5 8t12.5 31v93h146v-96q0 -39 -10 -66t-32.5 -43.5t-59 -23.5t-90.5 -7h-31v-338
q0 -76 -19.5 -130.5t-60 -90t-104 -52t-150.5 -16.5h-66zM650 894q0 -59 -22 -85t-71 -26q-31 0 -58 8.5t-51 19t-45.5 19.5t-39.5 9q-19 0 -31.5 -5.5t-12.5 -32.5v-16h-110v44q0 57 21.5 84t72.5 27q31 0 58.5 -9t51.5 -19.5t44.5 -19.5t38.5 -9q19 0 31.5 6.5t12.5 32.5
v15h110v-43z" />
    <glyph glyph-name="uni1EEF" unicode="&#x1eef;" horiz-adv-x="815" 
d="M62 0zM652 463q46 1 46 39v91h145v-94q0 -39 -9.5 -65.5t-31.5 -43t-58 -24t-88 -7.5v-359h-328q-74 0 -125 11t-82.5 33.5t-45 58t-13.5 83.5v277h180v-255q0 -34 18 -49t68 -15h149v319h175v0zM581 653q0 -58 -22 -84.5t-72 -26.5q-31 0 -58 8.5t-51 19t-45 19.5t-39 9
t-31 -5t-13 -33v-15h-111v43q0 57 22 84t73 27q31 0 58.5 -9t51.5 -19.5t44.5 -19t37.5 -8.5q21 0 32.5 7t11.5 31v15h111v-43z" />
    <glyph glyph-name="uni1EF0" unicode="&#x1ef0;" horiz-adv-x="984" 
d="M56 0zM389 0q-87 0 -150 16.5t-103.5 52t-60 90t-19.5 130.5v442h195v-442q0 -35 7 -60t23.5 -41t43.5 -23t67 -7h66q40 0 66.5 7t43 23t23.5 41t7 60v442h215q28 0 40.5 8t12.5 31v93h146v-96q0 -39 -10 -66t-32.5 -43.5t-59 -23.5t-90.5 -7h-31v-338
q0 -76 -19.5 -130.5t-60 -90t-104 -52t-150.5 -16.5h-66zM345 -77h165v-147h-165v147z" />
    <glyph glyph-name="uni1EF1" unicode="&#x1ef1;" horiz-adv-x="815" 
d="M62 0zM652 463q46 1 46 39v91h145v-94q0 -39 -9.5 -65.5t-31.5 -43t-58 -24t-88 -7.5v-359h-328q-74 0 -125 11t-82.5 33.5t-45 58t-13.5 83.5v277h180v-255q0 -34 18 -49t68 -15h149v319h175v0zM277 -77h165v-147h-165v147z" />
    <glyph glyph-name="Ygrave" unicode="&#x1ef2;" horiz-adv-x="818" 
d="M3 0zM505 320v-320h-196v322l-306 409h215l192 -256l193 256h212zM505 771h-133l-119 190h174z" />
    <glyph glyph-name="ygrave" unicode="&#x1ef3;" horiz-adv-x="684" 
d="M9 0zM121 -84q27 0 47.5 3t37 10.5t30 21.5t25.5 37l-252 475h183l151 -309l151 309h181l-272 -525q-21 -40 -44 -68.5t-55 -46.5t-76 -26t-107 -8h-69v127h69zM424 523h-133l-94 214h174z" />
    <glyph glyph-name="uni1EF6" unicode="&#x1ef6;" horiz-adv-x="818" 
d="M3 0zM505 320v-320h-196v322l-306 409h215l192 -256l193 256h212zM454 796q-22 0 -22 -23v-16h-79v29q0 34 16.5 53t55.5 19h42q14 0 20 6t6 24t-6 24.5t-20 6.5h-138v70h162q55 0 74.5 -23.5t19.5 -73.5q0 -51 -20 -73.5t-74 -22.5h-37z" />
    <glyph glyph-name="uni1EF7" unicode="&#x1ef7;" horiz-adv-x="684" 
d="M9 0zM121 -84q27 0 47.5 3t37 10.5t30 21.5t25.5 37l-252 475h183l151 -309l151 309h181l-272 -525q-21 -40 -44 -68.5t-55 -46.5t-76 -26t-107 -8h-69v127h69zM385 538q-22 0 -22 -23v-16h-79v29q0 34 16.5 53t55.5 19h42q14 0 20 6t6 24t-6 24.5t-20 6.5h-138v70h162
q55 0 74.5 -23.5t19.5 -73.5q0 -51 -20 -73.5t-74 -22.5h-37z" />
    <glyph glyph-name="endash" unicode="&#x2013;" horiz-adv-x="579" 
d="M23 386h533v-138h-533v138z" />
    <glyph glyph-name="emdash" unicode="&#x2014;" horiz-adv-x="812" 
d="M23 386h767v-138h-767v138z" />
    <glyph glyph-name="quoteleft" unicode="&#x2018;" horiz-adv-x="299" 
d="M63 425v203q0 56 23.5 79.5t77.5 23.5h70v-71h-42q-24 0 -24 -23v-39h67v-173h-172z" />
    <glyph glyph-name="quoteright" unicode="&#x2019;" horiz-adv-x="299" 
d="M63 425zM235 731v-203q0 -55 -23 -79t-77 -24h-70v71h42q23 0 23 23v39h-67v173h172z" />
    <glyph glyph-name="quotedblleft" unicode="&#x201c;" horiz-adv-x="546" 
d="M63 425zM63 425v203q0 56 23.5 79.5t77.5 23.5h70v-71h-42q-24 0 -24 -23v-39h67v-173h-172zM310 425v203q0 56 23.5 79.5t77.5 23.5h70v-71h-42q-24 0 -24 -23v-39h67v-173h-172z" />
    <glyph glyph-name="quotedblright" unicode="&#x201d;" horiz-adv-x="546" 
d="M63 425zM235 731v-203q0 -55 -23 -79t-77 -24h-70v71h42q23 0 23 23v39h-67v173h172zM482 731v-203q0 -55 -23 -79t-77 -24h-70v71h42q23 0 23 23v39h-67v173h172z" />
    <glyph glyph-name="quotedblbase" unicode="&#x201e;" horiz-adv-x="546" 
d="M63 0zM235 173v-203q0 -55 -23 -79t-77 -24h-70v71h42q23 0 23 23v39h-67v173h172zM482 173v-203q0 -55 -23 -79t-77 -24h-70v71h42q23 0 23 23v39h-67v173h172z" />
    <glyph glyph-name="dagger" unicode="&#x2020;" horiz-adv-x="607" 
d="M265 -20l-15 506l-212 -7v115l210 -7l-6 164h122l-6 -165l217 8v-115l-219 8l-14 -507h-77z" />
    <glyph glyph-name="daggerdbl" unicode="&#x2021;" horiz-adv-x="607" 
d="M258 501l-220 -8v112l215 -7l-8 153h116l-8 -153l222 7v-112l-227 8l-9 -136l9 -134l227 7v-112l-222 8l8 -154h-116l8 153l-215 -7v112l220 -7l10 134z" />
    <glyph glyph-name="bullet" unicode="&#x2022;" horiz-adv-x="449" 
d="M224 234q-48 0 -78.5 7.5t-48 23.5t-23.5 41t-6 60q0 34 6 59t23.5 40.5t48 23t78.5 7.5t79 -7.5t48 -23t23.5 -40.5t6.5 -59q0 -35 -6.5 -60t-23.5 -41t-48 -23.5t-79 -7.5z" />
    <glyph glyph-name="ellipsis" unicode="&#x2026;" horiz-adv-x="911" 
d="M65 0zM237 173v-173h-172v173h172zM541 173v-173h-172v173h172zM845 173v-173h-172v173h172z" />
    <glyph glyph-name="perthousand" unicode="&#x2030;" horiz-adv-x="1340" 
d="M29 0zM238 738q-30 0 -48.5 -5.5t-28.5 -18.5t-13 -33.5t-3 -50.5t3 -51t13 -33.5t28.5 -18.5t48.5 -6t48 6t28 18.5t13 33.5t3 51t-3 50.5t-13 33.5t-28 18.5t-48 5.5zM238 421q-65 0 -105.5 11.5t-63.5 36t-31.5 64.5t-8.5 97t8.5 97t31.5 64.5t63.5 36t105.5 11.5
q64 0 104.5 -11.5t63 -36t31 -64.5t8.5 -97t-8.5 -97t-31 -64.5t-63 -36t-104.5 -11.5zM604 731h143l-458 -731h-143zM663 209q-30 0 -48.5 -5.5t-28.5 -18.5t-13 -33.5t-3 -50.5t3 -51t13 -33.5t28.5 -18.5t48.5 -6t48 6t28 18.5t13 33.5t3 51t-3 50.5t-13 33.5t-28 18.5
t-48 5.5zM663 -108q-65 0 -105.5 11.5t-63.5 36t-31.5 64.5t-8.5 97t8.5 97t31.5 64.5t63.5 36t105.5 11.5q64 0 104.5 -11.5t63 -36t31 -64.5t8.5 -97t-8.5 -97t-31 -64.5t-63 -36t-104.5 -11.5zM1104 209q-30 0 -48.5 -5.5t-28.5 -18.5t-13 -33.5t-3 -50.5t3 -51t13 -33.5
t28.5 -18.5t48.5 -6t48 6t28 18.5t13 33.5t3 51t-3 50.5t-13 33.5t-28 18.5t-48 5.5zM1104 -108q-65 0 -105.5 11.5t-63.5 36t-31.5 64.5t-8.5 97t8.5 97t31.5 64.5t63.5 36t105.5 11.5q64 0 104.5 -11.5t63 -36t31 -64.5t8.5 -97t-8.5 -97t-31 -64.5t-63 -36t-104.5 -11.5z
" />
    <glyph glyph-name="guilsinglleft" unicode="&#x2039;" horiz-adv-x="262" 
d="M7 231l111 232h137l-111 -232l111 -231h-137z" />
    <glyph glyph-name="guilsinglright" unicode="&#x203a;" horiz-adv-x="262" 
d="M255 232l-111 -232h-137l111 232l-111 231h137z" />
    <glyph glyph-name="fraction" unicode="&#x2044;" horiz-adv-x="138" 
d="M227 731h143l-458 -731h-143z" />
    <glyph glyph-name="zerosuperior" unicode="&#x2070;" horiz-adv-x="492" 
d="M38 321zM247 638q-30 0 -48.5 -5.5t-28.5 -18.5t-13 -33.5t-3 -50.5t3 -51t13 -33.5t28.5 -18.5t48.5 -6t48 6t28 18.5t13 33.5t3 51t-3 50.5t-13 33.5t-28 18.5t-48 5.5zM247 321q-65 0 -105.5 11.5t-63.5 36t-31.5 64.5t-8.5 97t8.5 97t31.5 64.5t63.5 36t105.5 11.5
q64 0 104.5 -11.5t63 -36t31 -64.5t8.5 -97t-8.5 -97t-31 -64.5t-63 -36t-104.5 -11.5z" />
    <glyph glyph-name="foursuperior" unicode="&#x2074;" horiz-adv-x="484" 
d="M21 329zM282 329v87h-261v79l223 236h153v-225h66v-90h-66v-87h-115zM282 506v125l-119 -125h119z" />
    <glyph glyph-name="fivesuperior" unicode="&#x2075;" horiz-adv-x="475" 
d="M55 329zM55 502l12 229h355v-96h-245l-3 -56h143q35 0 58 -8.5t37 -24.5t19.5 -40t5.5 -55q0 -30 -5.5 -53t-19 -38t-36.5 -23t-59 -8h-262v96h235q17 0 23.5 9.5t6.5 28.5q0 21 -7 30t-23 9h-235z" />
    <glyph glyph-name="sixsuperior" unicode="&#x2076;" horiz-adv-x="486" 
d="M38 329zM223 329q-48 0 -82.5 8t-57.5 30t-34 61t-11 101q0 63 11 102t34 61.5t58 30.5t82 8h201v-94h-193q-32 0 -50.5 -11.5t-24.5 -47.5h165q69 0 101.5 -32.5t32.5 -88.5q0 -28 -8 -51.5t-27 -40.5t-49 -26.5t-73 -9.5h-75zM153 505q1 -27 6.5 -43.5t15.5 -25.5
t24 -11.5t32 -2.5h64q44 0 44 43q0 40 -40 40h-146z" />
    <glyph glyph-name="sevensuperior" unicode="&#x2077;" horiz-adv-x="410" 
d="M17 329zM61 329l195 304h-239v98h376v-84l-199 -318h-133z" />
    <glyph glyph-name="eightsuperior" unicode="&#x2078;" horiz-adv-x="477" 
d="M36 329zM193 329q-34 0 -63 4.5t-50 17t-32.5 35.5t-11.5 60q0 36 11 57.5t31 32.5q-16 12 -24.5 32t-8.5 52q0 34 11 56t30.5 34t47 16.5t59.5 4.5h91q32 0 59.5 -4.5t47 -16.5t30.5 -34t11 -56q0 -32 -8.5 -52t-24.5 -32q20 -11 31 -32.5t11 -57.5q0 -37 -11.5 -60
t-32.5 -35.5t-50 -17t-63 -4.5h-91zM194 498q-17 0 -28.5 -7.5t-11.5 -29.5q0 -20 11.5 -28t28.5 -8h89q17 0 28.5 8t11.5 28q0 22 -12 29.5t-28 7.5h-89zM281 570q17 0 28 6.5t11 27.5q0 20 -11 27t-28 7h-85q-17 0 -28 -7t-11 -27q0 -21 11 -27.5t28 -6.5h85z" />
    <glyph glyph-name="ninesuperior" unicode="&#x2079;" horiz-adv-x="486" 
d="M38 329zM270 731q49 0 84 -8t57.5 -29.5t33 -60.5t10.5 -100q0 -63 -11 -103t-33.5 -62.5t-57.5 -30.5t-83 -8h-200v94h193q32 0 50.5 11.5t24.5 49.5h-166q-69 0 -101.5 31t-32.5 88q0 28 8.5 51.5t27 40.5t48.5 26.5t73 9.5h75zM155 596q0 -39 40 -39h145
q-2 27 -7.5 43t-15 24.5t-23 11t-31.5 2.5h-64q-44 0 -44 -42z" />
    <glyph glyph-name="zeroinferior" unicode="&#x2080;" horiz-adv-x="492" 
d="M247 309q-30 0 -48.5 -5.5t-28.5 -18.5t-13 -33.5t-3 -50.5t3 -51t13 -33.5t28.5 -18.5t48.5 -6t48 6t28 18.5t13 33.5t3 51t-3 50.5t-13 33.5t-28 18.5t-48 5.5zM247 -8q-65 0 -105.5 11.5t-63.5 36t-31.5 64.5t-8.5 97t8.5 97t31.5 64.5t63.5 36t105.5 11.5
q64 0 104.5 -11.5t63 -36t31 -64.5t8.5 -97t-8.5 -97t-31 -64.5t-63 -36t-104.5 -11.5z" />
    <glyph glyph-name="oneinferior" unicode="&#x2081;" horiz-adv-x="277" 
d="M92 0v304h-75v98h192v-402h-117z" />
    <glyph glyph-name="twoinferior" unicode="&#x2082;" horiz-adv-x="474" 
d="M320 402q54 0 87.5 -27t33.5 -86q0 -46 -23.5 -73.5t-72.5 -53.5l-121 -64h215v-98h-395v99l241 137q15 10 21 18t6 19q0 28 -32 28h-238v101h278z" />
    <glyph glyph-name="threeinferior" unicode="&#x2083;" horiz-adv-x="478" 
d="M284 98q18 0 29 7t11 27t-10 27.5t-30 7.5h-228v75h226q19 0 29 6.5t10 26.5q0 19 -11 26t-28 7h-227v94h229q33 0 60 -4.5t47 -16.5t31 -34t11 -56q0 -59 -33 -84q20 -11 31 -32.5t11 -57.5q0 -37 -12 -60t-33 -35.5t-50 -17t-63 -4.5h-230v98h230z" />
    <glyph glyph-name="fourinferior" unicode="&#x2084;" horiz-adv-x="484" 
d="M282 0v87h-261v79l223 236h153v-225h66v-90h-66v-87h-115zM282 177v125l-119 -125h119z" />
    <glyph glyph-name="fiveinferior" unicode="&#x2085;" horiz-adv-x="475" 
d="M55 173l12 229h355v-96h-245l-3 -56h143q35 0 58 -8.5t37 -24.5t19.5 -40t5.5 -55q0 -30 -5.5 -53t-19 -38t-36.5 -23t-59 -8h-262v96h235q17 0 23.5 9.5t6.5 28.5q0 21 -7 30t-23 9h-235z" />
    </font>
</defs>
</svg>
