<svg id="Layer_1" data-name="Layer 1" xmlns="http://www.w3.org/2000/svg" viewBox="0 0 28.4375 35">
  <defs>
    <style>
      .cls-1 {
        fill: #e53131;
      }
    </style>
  </defs>
  <g>
    <path class="cls-1" d="M267.48438,242.875h-6.01563v-1.09375A3.28122,3.28122,0,0,0,258.1875,238.5h-4.375a3.28122,3.28122,0,0,0-3.28125,3.28125V242.875h-6.01562a2.73441,2.73441,0,0,0-2.73438,2.73438v2.1875a1.09371,1.09371,0,0,0,1.09375,1.09375h26.25a1.09371,1.09371,0,0,0,1.09375-1.09375v-2.1875A2.73441,2.73441,0,0,0,267.48438,242.875Zm-14.76563-1.09375a1.0952,1.0952,0,0,1,1.09375-1.09375h4.375a1.0952,1.0952,0,0,1,1.09375,1.09375V242.875h-6.5625Z" transform="translate(-241.78125 -238.5)"/>
    <path class="cls-1" d="M243.85691,251.07813a.34175.34175,0,0,0-.34138.35806l.90234,18.93842A3.27712,3.27712,0,0,0,247.695,273.5h16.61a3.27712,3.27712,0,0,0,3.27715-3.12539l.90234-18.93842a.34175.34175,0,0,0-.34138-.35806ZM260.375,253.8125a1.09375,1.09375,0,0,1,2.1875,0v14.21875a1.09375,1.09375,0,0,1-2.1875,0Zm-5.46875,0a1.09375,1.09375,0,0,1,2.1875,0v14.21875a1.09375,1.09375,0,0,1-2.1875,0Zm-5.46875,0a1.09375,1.09375,0,0,1,2.1875,0v14.21875a1.09375,1.09375,0,0,1-2.1875,0Z" transform="translate(-241.78125 -238.5)"/>
  </g>
</svg>
