<svg id="Layer_1" data-name="Layer 1" xmlns="http://www.w3.org/2000/svg" viewBox="0 0 38 38">
  <defs>
    <style>
      .cls-1 {
        fill: #ea9f16;
      }

      .cls-2 {
        fill: #fff;
      }
    </style>
  </defs>
  <circle class="cls-1" cx="19" cy="19" r="19"/>
  <path class="cls-2" d="M29.21048,13.65408l-2.86456-2.86456a.47444.47444,0,0,0-.671,0L20.33548,16.129a.47444.47444,0,0,1-.671,0L14.325,10.78952a.47444.47444,0,0,0-.671,0l-2.86456,2.86456a.47444.47444,0,0,0,0,.671L16.129,19.66446a.47443.47443,0,0,1,0,.671L10.78952,25.6749a.47444.47444,0,0,0,0,.671l2.86456,2.86456a.47444.47444,0,0,0,.671,0l5.33948-5.33948a.47444.47444,0,0,1,.671,0L25.675,29.21042a.47444.47444,0,0,0,.671,0l2.86456-2.86456a.47444.47444,0,0,0,0-.671L23.871,20.33542a.47443.47443,0,0,1,0-.671L29.21048,14.325A.47444.47444,0,0,0,29.21048,13.65408Z" transform="translate(-1 -1)"/>
</svg>
