<svg xmlns="http://www.w3.org/2000/svg" viewBox="0 0 1024 768">
	<linearGradient id="SVGID_1_" gradientUnits="userSpaceOnUse" x1="132.89885" y1="417.83438" x2="861.89886" y2="328.83438">
		<stop  offset="0" style="stop-color:#EFA83B"/>
		<stop  offset="0.13237" style="stop-color:#FFCE59"/>
		<stop  offset="0.24623" style="stop-color:#EFAA38"/>
		<stop  offset="0.35048" style="stop-color:#FFCF5F"/>
		<stop  offset="0.47119" style="stop-color:#F3B445"/>
		<stop  offset="0.57819" style="stop-color:#E9A739"/>
		<stop  offset="0.71948" style="stop-color:#F9D15E"/>
		<stop  offset="0.83196" style="stop-color:#D09942"/>
		<stop  offset="0.93896" style="stop-color:#D79440"/>
		<stop  offset="1" style="stop-color:#FFD25D"/>
	</linearGradient>
	<path class="st0" d="M222.19226,407.00177c11.37132-5.52029,20.45911-12.44479,27.26335-20.77542
		c7.24419-8.93451,10.85112-17.84546,10.81828-26.73062c-0.02011-5.43988-1.83997-9.81171-5.45956-13.11548
		c-3.81003-3.45853-9.38448-4.67468-16.72134-3.64874c-2.40451,0.33621-4.94957,0.90457-7.63567,1.7027
		c-2.68759,0.79977-5.51572,1.8302-8.48489,3.0914c-1.59053-2.07498-3.46095-2.96307-5.61078-2.66248
		c-1.96156,0.27429-3.38177,1.28931-4.26064,3.04501c-0.50352,0.97751-1.16077,2.94476-1.97176,5.89984
		c-2.84244,1.48599-5.74779,3.25293-8.71407,5.30054c-4.23022,2.89035-6.33878,5.84592-6.32761,8.86743
		c0.00314,0.84702,0.22665,1.57153,0.67256,2.17377c0.57242,0.7674,1.26912,1.0925,2.09209,0.97742
		c0.63171-0.08835,1.48465-0.47974,2.55881-1.17422c1.00923-0.68539,2.36769-1.51031,4.07289-2.47446
		c-0.56282,1.83325-3.54619,8.17676-8.94812,19.03073c-6.03558,10.82227-9.52489,17.08615-10.4679,18.7897
		c-1.3945-0.40942-2.53421-0.55276-3.4191-0.42902c-0.94882,0.13269-1.83411,0.55917-2.65335,1.27814
		c-1.64099,1.43927-2.45644,3.18613-2.44884,5.24088c0.00536,1.45062,0.45514,3.50467,1.35181,6.1608
		c-6.66411,12.18011-12.00383,22.96619-16.01869,32.35623c-5.64757,13.06635-8.46609,21.02011-8.4556,23.86029
		c0.00357,0.96774,0.38657,1.85089,1.14897,2.6514c0.82655,0.85266,1.99788,1.17203,3.51599,0.95975
		c1.83372-0.25641,3.19197-0.86841,4.07524-1.83981c0.6929-0.70038,1.97934-3.84415,3.85732-9.42914
		c3.19203-9.63785,8.90204-22.71198,17.13248-39.22464c7.52756,16.36404,13.74126,28.04395,18.64107,35.03873
		c1.33661,2.05127,2.44966,3.77002,3.34164,5.15683c1.78214,2.95627,3.46448,4.32327,5.04651,4.10205
		c1.01125-0.14139,2.24292-0.79871,3.69504-1.96808c1.38698-1.22137,2.07959-2.40677,2.07533-3.55582
		c-0.00446-1.20822-0.48378-2.47226-1.43797-3.79022c-3.62584-4.9949-6.23575-8.8638-7.82724-11.60513
		c-5.54448-10.41183-9.81494-18.40271-12.80936-23.97095c-1.7215-3.44696-3.09593-6.94434-4.1208-10.49063
		c2.97296-0.23428,5.18706-0.45319,6.64275-0.65674C204.87656,413.95865,213.47427,411.24487,222.19226,407.00177z
		 M206.44106,383.30612c4.96243-9.8558,8.5421-17.3555,10.73897-22.50143c3.15694-1.83173,5.58922-3.16968,7.29486-4.01355
		c4.35876-2.18121,8.68797-3.57339,12.99011-4.17496c4.74411-0.66339,8.30548-0.26859,10.68411,1.18201
		c2.37865,1.452,3.57455,3.96078,3.58774,7.52628c0.01295,3.50635-0.95604,6.96811-2.90448,10.38443
		c-3.08138,5.51074-7.11331,10.55045-12.09531,15.11667c-11.35344,10.35703-23.57703,16.45007-36.67075,18.28101
		c-1.2025,0.16815-3.00548,0.36105-5.40895,0.57492C197.54906,400.62125,201.47711,393.16211,206.44106,383.30612z"/>
	<linearGradient id="SVGID_2_" gradientUnits="userSpaceOnUse" x1="135.91658" y1="442.55267" x2="864.91656" y2="353.55267">
		<stop  offset="0" style="stop-color:#EFA83B"/>
		<stop  offset="0.13237" style="stop-color:#FFCE59"/>
		<stop  offset="0.24623" style="stop-color:#EFAA38"/>
		<stop  offset="0.35048" style="stop-color:#FFCF5F"/>
		<stop  offset="0.47119" style="stop-color:#F3B445"/>
		<stop  offset="0.57819" style="stop-color:#E9A739"/>
		<stop  offset="0.71948" style="stop-color:#F9D15E"/>
		<stop  offset="0.83196" style="stop-color:#D09942"/>
		<stop  offset="0.93896" style="stop-color:#D79440"/>
		<stop  offset="1" style="stop-color:#FFD25D"/>
	</linearGradient>
	<path class="st1" d="M269.38477,435.87094c7.73474-13.41837,11.58728-24.14639,11.55756-32.18597
		c-0.02234-6.04401-2.62778-8.7037-7.81384-7.97852c-3.35333,0.4689-7.08017,2.35071-11.181,5.64548
		c-7.00406,5.63724-13.08484,13.01877-18.23984,22.14429c-5.53207,9.84473-8.28505,18.63629-8.25645,26.37238
		c0.00848,2.29813,0.4592,4.19925,1.35013,5.70746c1.71994,3.02515,4.41513,4.28107,8.08307,3.76816
		C252.79054,458.23868,260.95718,450.41556,269.38477,435.87094z M248.6418,448.56839
		c-1.26593,0.177-2.31165-0.22104-3.13715-1.19415c-0.57219-0.70486-0.86018-1.57172-0.864-2.60052
		c-0.01428-3.8671,1.5168-8.95004,4.59528-15.24716c2.63771-5.50885,6.47697-11.03391,11.52032-16.57837
		c3.90726-4.29514,6.87314-6.58521,8.89813-6.86838c1.07465-0.15027,1.86685,0.1925,2.37708,1.02829
		c0.31738,0.43973,0.47797,0.9014,0.47977,1.38431c0.01385,3.7478-2.81439,9.07227-8.48477,15.97244
		c-2.01694,2.45914-3.02325,3.93091-3.02148,4.41382c0.00247,0.66617,0.79596,1.49191,2.38245,2.47894
		c0.06265,0.05234-0.37561,1.11145-1.31729,3.17767c-0.94165,2.06815-2.16821,4.11307-3.67963,6.13867
		C254.92693,445.51242,251.67802,448.14383,248.6418,448.56839z"/>
	<linearGradient id="SVGID_3_" gradientUnits="userSpaceOnUse" x1="139.36502" y1="470.79883" x2="868.36499" y2="381.79883">
		<stop  offset="0" style="stop-color:#EFA83B"/>
		<stop  offset="0.13237" style="stop-color:#FFCE59"/>
		<stop  offset="0.24623" style="stop-color:#EFAA38"/>
		<stop  offset="0.35048" style="stop-color:#FFCF5F"/>
		<stop  offset="0.47119" style="stop-color:#F3B445"/>
		<stop  offset="0.57819" style="stop-color:#E9A739"/>
		<stop  offset="0.71948" style="stop-color:#F9D15E"/>
		<stop  offset="0.83196" style="stop-color:#D09942"/>
		<stop  offset="0.93896" style="stop-color:#D79440"/>
		<stop  offset="1" style="stop-color:#FFD25D"/>
	</linearGradient>
	<path class="st2" d="M342.96027,411.25018c-1.26593,0.17703-2.49493,1.55966-3.68701,4.14404
		c-1.25607,2.8378-4.7193,7.37259-10.39212,13.60855c-3.34125,3.73282-7.03149,7.00076-11.07068,9.8028
		c2.13016-5.61929,5.17651-12.09241,9.13654-19.41992c2.51328-4.7056,5.28-9.77798,8.29767-15.22061
		c2.51416-4.4632,3.76926-7.57202,3.76279-9.3252c-0.00381-1.02689-0.38669-1.88046-1.14865-2.56073
		c-0.82611-0.7305-1.74503-1.02594-2.75626-0.88455c-1.64548,0.2301-3.41187,1.53604-5.30167,3.91626
		c-0.81985,0.96255-2.99222,3.95618-6.51706,8.98465c-3.90363,5.68683-6.10675,8.86807-6.60989,9.5419
		c-2.45642,3.18704-5.85922,7.16913-10.20837,11.95001c-6.93451,7.56204-11.66644,11.51895-14.1958,11.87262
		c-1.2659,0.17703-1.89996-0.36929-1.90466-1.63861c-0.00806-2.17593,1.71805-5.86435,5.1803-11.06549
		c3.02081-4.59515,6.32739-8.92664,9.91974-12.99823c3.40302-3.92288,5.46573-6.43423,6.19012-7.53241
		c0.72293-1.09988,1.08316-2.31326,1.07825-3.64365c-0.00336-0.90665-0.35483-1.6424-1.0524-2.21133
		c-0.76221-0.73944-1.65015-1.03925-2.66141-0.89783c-3.66943,0.51312-9.59521,6.84555-17.77682,18.99533
		c-8.05594,11.9527-12.07285,21.19119-12.04874,27.71906c0.00671,1.81332,0.48672,3.2587,1.44,4.33423
		c1.27151,1.33472,2.98218,1.8508,5.13202,1.55017c4.42697-0.61902,9.95142-4.41461,16.57083-11.38831
		c3.34042-3.5513,7.81393-8.89386,13.42096-16.02774c-1.94681,4.26355-4.20743,9.05603-6.78189,14.37369
		c-2.32413,4.92166-4.04932,8.85248-5.17764,11.79083c-1.83121,1.3446-4.35529,3.11932-7.5748,5.32266
		c-7.95401,5.46637-13.94913,9.93317-17.98737,13.40063c-13.81638,11.789-20.70712,22.39856-20.67227,31.8277
		c0.01227,3.32312,0.94031,5.9462,2.78207,7.86575c2.35159,2.51282,5.45648,3.50043,9.31418,2.961
		c9.42578-1.31802,18.53705-10.00085,27.33881-26.04724c4.71439-8.70297,9.70572-19.53104,14.97397-32.48227
		c9.97394-6.71518,18.36356-14.36038,25.1669-22.93149c5.66946-7.14261,8.49829-12.31439,8.48645-15.51913
		C345.62009,411.7262,344.73056,411.00266,342.96027,411.25018z M295.51212,467.32291
		c-4.20587,9.47787-6.77933,15.0675-7.72235,16.77298c-5.72028,10.29309-10.9537,15.77344-15.69778,16.43683
		c-1.51813,0.21228-2.7536-0.15924-3.70645-1.11453c-0.69803-0.68921-1.05017-1.60724-1.05441-2.75534
		c-0.0199-5.37976,3.50177-11.67776,10.56244-18.89365c6.99893-7.02676,13.84421-12.63986,20.53778-16.84146
		C297.36322,463.25418,296.39032,465.38586,295.51212,467.32291z"/>
	<linearGradient id="SVGID_4_" gradientUnits="userSpaceOnUse" x1="132.06302" y1="410.9881" x2="861.06305" y2="321.9881">
		<stop  offset="0" style="stop-color:#EFA83B"/>
		<stop  offset="0.13237" style="stop-color:#FFCE59"/>
		<stop  offset="0.24623" style="stop-color:#EFAA38"/>
		<stop  offset="0.35048" style="stop-color:#FFCF5F"/>
		<stop  offset="0.47119" style="stop-color:#F3B445"/>
		<stop  offset="0.57819" style="stop-color:#E9A739"/>
		<stop  offset="0.71948" style="stop-color:#F9D15E"/>
		<stop  offset="0.83196" style="stop-color:#D09942"/>
		<stop  offset="0.93896" style="stop-color:#D79440"/>
		<stop  offset="1" style="stop-color:#FFD25D"/>
	</linearGradient>
	<path class="st3" d="M502.56116,314.27692c1.45419-0.20334,3.25708-0.42441,5.40863-0.66559
		c2.14975-0.17886,3.85785-0.35803,5.12427-0.53513c4.42651-0.61896,6.63586-2.52966,6.62402-5.73398
		c-0.00653-1.7522-0.96014-2.91888-2.8609-3.50055c-1.96466-0.57126-5.47687-0.50412-10.53659,0.2034
		c-17.71198,2.47675-34.2114,7.50525-49.49826,15.08557c-3.60083,1.77347-5.39655,3.92953-5.38715,6.46814
		c0.004,1.08798,0.32309,1.98151,0.9592,2.67795c1.01523,1.0683,2.189,1.50812,3.51733,1.32239
		c1.26443-0.17682,2.93991-0.80356,5.02438-1.88184c4.7374-2.47668,13.17444-5.6817,25.31107-9.617
		c-2.81854,7.95422-6.83298,17.85889-12.04135,29.71368c-10.98422,24.81927-21.4472,44.93936-31.38895,60.35837
		c-7.80338,12.15799-15.02493,18.70123-21.66666,19.62994c-3.35385,0.46899-5.95209-0.64868-7.79675-3.35461
		c-1.65601-2.48978-2.48871-5.54825-2.50214-9.17487c-0.04376-11.84656,5.72617-25.86673,17.31186-42.06177
		c3.40012-4.7074,5.09851-7.51633,5.09515-8.42297c-0.0029-0.78497-0.25916-1.44476-0.76675-1.97916
		c-0.76242-0.80051-1.58707-1.13876-2.47198-1.01501c-1.32834,0.18576-3.44391,1.78256-6.34268,4.78754
		c-6.05255,6.22983-10.9967,13.05807-14.82843,20.48798c-6.09549,11.91919-9.12347,22.95587-9.08594,33.11032
		c0.01675,4.53326,1.23456,8.5061,3.65143,11.91693c3.11603,4.40256,7.45856,6.21396,13.02563,5.43552
		c6.70367-0.93741,13.87289-4.87228,21.50571-11.80624c9.27164-8.55344,18.77765-21.82608,28.522-39.81946
		c9.74194-18.11337,20.12805-41.72992,31.16031-70.84894C499.84067,314.68839,501.4845,314.42749,502.56116,314.27692z"/>
	<linearGradient id="SVGID_5_" gradientUnits="userSpaceOnUse" x1="135.40044" y1="438.32489" x2="864.40045" y2="349.32489">
		<stop  offset="0" style="stop-color:#EFA83B"/>
		<stop  offset="0.13237" style="stop-color:#FFCE59"/>
		<stop  offset="0.24623" style="stop-color:#EFAA38"/>
		<stop  offset="0.35048" style="stop-color:#FFCF5F"/>
		<stop  offset="0.47119" style="stop-color:#F3B445"/>
		<stop  offset="0.57819" style="stop-color:#E9A739"/>
		<stop  offset="0.71948" style="stop-color:#F9D15E"/>
		<stop  offset="0.83196" style="stop-color:#D09942"/>
		<stop  offset="0.93896" style="stop-color:#D79440"/>
		<stop  offset="1" style="stop-color:#FFD25D"/>
	</linearGradient>
	<path class="st4" d="M514.88837,361.90036c-3.35382,0.46896-7.08017,2.35071-11.181,5.64551
		c-7.00406,5.63721-13.08536,13.0188-18.23984,22.14426c-5.53159,9.84467-8.28506,18.63629-8.25647,26.37238
		c0.00848,2.29813,0.4592,4.19925,1.35013,5.70749c1.71994,3.02512,4.41562,4.28098,8.08307,3.76813
		c7.90616-1.10553,16.0723-8.92859,24.5004-23.47324c7.73474-13.4184,11.58728-24.14639,11.55756-32.186
		C522.67987,363.83487,520.07391,361.17523,514.88837,361.90036z M505.78635,390.65875
		c-2.01746,2.4592-3.02325,3.93094-3.02148,4.41385c0.00247,0.66614,0.79593,1.49188,2.38245,2.47891
		c0.06213,0.0524-0.37561,1.11145-1.31729,3.17767c-0.94168,2.06815-2.16821,4.1131-3.67963,6.13867
		c-3.46359,4.83847-6.71249,7.46988-9.74872,7.89444c-1.26642,0.17709-2.31213-0.22095-3.13715-1.19415
		c-0.57217-0.70486-0.86017-1.57172-0.86398-2.60052c-0.01428-3.8671,1.51678-8.95001,4.59528-15.24716
		c2.6377-5.50885,6.47647-11.03381,11.52029-16.57834c3.90729-4.29517,6.87265-6.58517,8.89813-6.86841
		c1.07465-0.15027,1.86639,0.1926,2.37708,1.02829c0.31738,0.43973,0.47797,0.9014,0.4798,1.38431
		C514.28497,378.43411,511.4567,383.75858,505.78635,390.65875z"/>
	<linearGradient id="SVGID_6_" gradientUnits="userSpaceOnUse" x1="136.22633" y1="445.08984" x2="865.22632" y2="356.08984">
		<stop  offset="0" style="stop-color:#EFA83B"/>
		<stop  offset="0.13237" style="stop-color:#FFCE59"/>
		<stop  offset="0.24623" style="stop-color:#EFAA38"/>
		<stop  offset="0.35048" style="stop-color:#FFCF5F"/>
		<stop  offset="0.47119" style="stop-color:#F3B445"/>
		<stop  offset="0.57819" style="stop-color:#E9A739"/>
		<stop  offset="0.71948" style="stop-color:#F9D15E"/>
		<stop  offset="0.83196" style="stop-color:#D09942"/>
		<stop  offset="0.93896" style="stop-color:#D79440"/>
		<stop  offset="1" style="stop-color:#FFD25D"/>
	</linearGradient>
	<path class="st5" d="M573.56366,364.30887c-0.00958-2.59781-1.24786-3.7261-3.71478-3.38116
		c-4.49243,0.6282-13.32465,8.03162-26.49866,22.21057c-0.75635,0.83148-1.54565,1.66754-2.36395,2.50766
		c1.63275-3.2514,3.77167-6.90683,6.41473-10.966c1.82458-2.73395,2.73541-4.76627,2.73047-6.09665
		c-0.00403-1.08798-0.45105-1.99274-1.33905-2.71552c-0.76172-0.61917-1.55511-0.87109-2.3761-0.75629
		c-1.70789,0.2388-3.75818,2.18982-6.14886,5.84897c-2.39252,3.72238-5.66034,9.62204-9.80743,17.69949
		c-7.72913,14.93008-11.58771,24.02615-11.57562,27.2901c0.00488,1.33038,0.45239,2.35635,1.34039,3.07819
		c0.69983,0.62784,1.58606,0.86676,2.66071,0.71646c2.15131-0.30081,4.16888-2.18423,6.05469-5.65436
		c7.35144-14.39221,15.31805-24.81992,23.90198-31.28149c-6.41534,10.81616-9.60797,20.30225-9.57782,28.4621
		c0.01569,4.23166,0.88287,7.70926,2.60168,10.43088c1.78143,2.89432,3.96954,4.16196,6.56433,3.7991
		c1.13855-0.15921,2.11676-0.71994,2.93665-1.6806c0.75659-0.77228,1.13354-1.51917,1.13086-2.24451
		c-0.00287-0.78543-0.45038-1.8114-1.34039-3.07819c-1.90881-2.75616-2.86938-5.79675-2.88165-9.12177
		c-0.03796-10.27472,5.95758-22.99634,17.99078-38.16541C572.47064,368.4234,573.57037,366.12216,573.56366,364.30887z"/>
	<linearGradient id="SVGID_7_" gradientUnits="userSpaceOnUse" x1="135.28963" y1="437.41724" x2="864.28961" y2="348.41724">
		<stop  offset="0" style="stop-color:#EFA83B"/>
		<stop  offset="0.13237" style="stop-color:#FFCE59"/>
		<stop  offset="0.24623" style="stop-color:#EFAA38"/>
		<stop  offset="0.35048" style="stop-color:#FFCF5F"/>
		<stop  offset="0.47119" style="stop-color:#F3B445"/>
		<stop  offset="0.57819" style="stop-color:#E9A739"/>
		<stop  offset="0.71948" style="stop-color:#F9D15E"/>
		<stop  offset="0.83196" style="stop-color:#D09942"/>
		<stop  offset="0.93896" style="stop-color:#D79440"/>
		<stop  offset="1" style="stop-color:#FFD25D"/>
	</linearGradient>
	<path class="st6" d="M623.63953,376.8096c-0.57178-0.58463-1.20618-0.82916-1.90131-0.73196
		c-1.26642,0.17709-2.81183,1.39102-4.63818,3.64206c-10.33221,13.05588-19.45038,20.13647-27.35657,21.242
		c-3.60553,0.50418-6.20441-0.25055-7.79272-2.26663c-0.70068-0.86835-1.05151-1.96893-1.05646-3.29932l-0.00598-1.63199
		c12.82642-5.48123,22.41577-13.50519,28.77008-24.07031c3.08093-5.0867,4.61749-9.23273,4.60565-12.43652
		c-0.00763-2.05475-0.83673-3.6022-2.48541-4.6416c-1.33191-0.78009-2.82086-1.05695-4.46478-0.82709
		c-6.07245,0.84915-13.17389,5.83347-21.3042,14.953c-10.0213,11.19818-15.01312,21.90503-14.97534,32.11963
		c0.01385,3.7478,0.94263,6.58084,2.78442,8.5004c2.73224,2.76324,6.46942,3.81238,11.2135,3.14899
		c4.61627-0.64551,9.60889-2.73392,14.97595-6.26688c5.36505-3.53171,10.41345-7.83557,15.14124-12.91196
		c6.05164-6.47034,9.07312-10.88416,9.06445-13.24146C624.21228,377.66815,624.02081,377.24039,623.63953,376.8096z
		 M596.45068,366.36978c3.02747-2.78186,5.36224-4.2876,7.00818-4.51773c1.2005-0.16788,1.80499,0.35297,1.80945,1.56119
		c0.00427,1.14908-0.46533,2.51431-1.40881,4.09763c-2.57959,4.47424-6.0766,8.65091-10.49103,12.53381
		c-2.52417,2.16721-5.9978,4.28574-10.41895,6.35535C586.52582,377.97842,591.02484,371.30124,596.45068,366.36978z"/>
	<linearGradient id="SVGID_8_" gradientUnits="userSpaceOnUse" x1="135.10251" y1="435.88458" x2="864.10248" y2="346.88458">
		<stop  offset="0" style="stop-color:#EFA83B"/>
		<stop  offset="0.13237" style="stop-color:#FFCE59"/>
		<stop  offset="0.24623" style="stop-color:#EFAA38"/>
		<stop  offset="0.35048" style="stop-color:#FFCF5F"/>
		<stop  offset="0.47119" style="stop-color:#F3B445"/>
		<stop  offset="0.57819" style="stop-color:#E9A739"/>
		<stop  offset="0.71948" style="stop-color:#F9D15E"/>
		<stop  offset="0.83196" style="stop-color:#D09942"/>
		<stop  offset="0.93896" style="stop-color:#D79440"/>
		<stop  offset="1" style="stop-color:#FFD25D"/>
	</linearGradient>
	<path class="st7" d="M679.03528,339.21927c-1.96649-1.05417-4.91028-1.30902-8.83142-0.76071
		c-7.46472,1.04379-14.54163,4.27158-21.22876,9.68115c-6.87823,5.6196-10.30518,11.44986-10.28284,17.49384
		c0.01672,4.53326,2.1228,9.289,6.31818,14.26538c3.05121,3.62576,4.58148,6.707,4.59088,9.24564
		c0.00757,2.05569-0.55548,3.82739-1.68915,5.31604c-1.38641,1.76651-3.31213,2.82166-5.77905,3.1666
		c-2.53088,0.35391-4.78046-0.23865-6.7467-1.77792c-2.22284-1.745-3.33771-4.09845-3.34869-7.06082
		c-0.01294-3.50443,0.7019-6.659,2.14844-9.46231c0.56573-1.04639,0.84772-1.81149,0.84589-2.29535
		c-0.00446-1.20825-0.79871-1.70255-2.37872-1.48163c-1.76978,0.2475-3.47375,1.54471-5.11188,3.88974
		c-2.51703,3.55838-3.76886,7.69324-3.7514,12.40781c0.01495,4.05032,1.13556,7.40085,3.35974,10.05273
		c3.1795,3.72815,7.80347,5.16794,13.87592,4.31882c3.85718-0.53937,7.30243-1.95786,10.33173-4.25681
		c4.92273-3.71143,7.37421-8.22699,7.35455-13.54663c-0.01318-3.56549-1.89594-7.6564-5.6463-12.27292
		c-3.37122-4.24561-5.06067-7.93958-5.07233-11.08325c-0.0163-4.41205,2.53143-8.57819,7.64325-12.49847
		c4.41602-3.45917,8.45972-5.44638,12.12915-5.9595c1.51813-0.21228,2.65784-0.06799,3.41913,0.42902
		c0.76129,0.49893,1.14423,1.38208,1.14893,2.6514c0.00604,1.63196-0.84229,3.26309-2.54504,4.89148
		c-1.95551,1.90625-4.10297,3.26547-6.44025,4.07547c-3.91998,1.39606-6.06744,2.20911-6.44629,2.44351
		c-1.5152,0.99866-2.27002,2.2529-2.2644,3.76367c0.00824,2.23703,1.3407,3.16885,3.99744,2.79736
		c1.95953-0.27402,4.39362-1.12808,7.30023-2.56293c5.30621-2.67651,9.28186-5.77237,11.92694-9.28757
		c2.77026-3.71313,4.14978-7.35309,4.1366-10.91956C681.98901,342.1626,680.99976,340.27567,679.03528,339.21927z"/>
	<linearGradient id="SVGID_9_" gradientUnits="userSpaceOnUse" x1="131.3607" y1="405.23547" x2="860.36072" y2="316.23547">
		<stop  offset="0" style="stop-color:#EFA83B"/>
		<stop  offset="0.13237" style="stop-color:#FFCE59"/>
		<stop  offset="0.24623" style="stop-color:#EFAA38"/>
		<stop  offset="0.35048" style="stop-color:#FFCF5F"/>
		<stop  offset="0.47119" style="stop-color:#F3B445"/>
		<stop  offset="0.57819" style="stop-color:#E9A739"/>
		<stop  offset="0.71948" style="stop-color:#F9D15E"/>
		<stop  offset="0.83196" style="stop-color:#D09942"/>
		<stop  offset="0.93896" style="stop-color:#D79440"/>
		<stop  offset="1" style="stop-color:#FFD25D"/>
	</linearGradient>
	<path class="st8" d="M831.51611,268.27808c1.45422-0.20337,3.25708-0.42444,5.40863-0.66559
		c2.14978-0.17889,3.85785-0.35806,5.12427-0.53513c4.42651-0.61899,6.63586-2.52969,6.62402-5.73398
		c-0.00653-1.75223-0.96014-2.91891-2.8609-3.50058c-1.96466-0.57126-5.47687-0.50409-10.53662,0.20343
		c-17.71198,2.47672-34.21136,7.50522-49.49823,15.08554c-3.60083,1.7735-5.39655,3.92953-5.38715,6.46814
		c0.00403,1.08798,0.32306,1.98151,0.95917,2.67795c1.01526,1.06833,2.18903,1.50815,3.5174,1.32239
		c1.2644-0.17682,2.93988-0.80356,5.02435-1.88184c4.73743-2.47668,13.17444-5.6817,25.31104-9.617
		c-2.81848,7.95422-6.83295,17.85889-12.04132,29.71371c-10.98425,24.81924-21.4472,44.93933-31.38898,60.35834
		c-7.80334,12.15799-15.0249,18.70123-21.66663,19.62997c-3.35382,0.46896-5.95209-0.64871-7.79675-3.35464
		c-1.65601-2.48978-2.48871-5.54825-2.50214-9.17484c-0.04376-11.84656,5.7262-25.86676,17.31189-42.0618
		c3.40009-4.7074,5.09845-7.51633,5.09509-8.42297c-0.00287-0.78497-0.25916-1.44476-0.76672-1.97916
		c-0.76245-0.80051-1.5871-1.13873-2.47198-1.01501c-1.32837,0.18576-3.44391,1.78256-6.34265,4.78754
		c-6.05261,6.22986-10.99677,13.05807-14.82849,20.48798c-6.09546,11.91919-9.12347,22.95587-9.08594,33.11035
		c0.01678,4.53323,1.23456,8.50607,3.65143,11.9169c3.11603,4.40256,7.45856,6.21399,13.02563,5.43552
		c6.70367-0.93741,13.87292-4.87228,21.50574-11.80624c9.27161-8.55344,18.77765-21.82608,28.52203-39.81946
		c9.74188-18.11337,20.12799-41.72989,31.16028-70.84894C828.79559,268.68951,830.43945,268.42862,831.51611,268.27808z"/>
	<linearGradient id="SVGID_10_" gradientUnits="userSpaceOnUse" x1="135.0253" y1="435.25217" x2="864.02533" y2="346.25217">
		<stop  offset="0" style="stop-color:#EFA83B"/>
		<stop  offset="0.13237" style="stop-color:#FFCE59"/>
		<stop  offset="0.24623" style="stop-color:#EFAA38"/>
		<stop  offset="0.35048" style="stop-color:#FFCF5F"/>
		<stop  offset="0.47119" style="stop-color:#F3B445"/>
		<stop  offset="0.57819" style="stop-color:#E9A739"/>
		<stop  offset="0.71948" style="stop-color:#F9D15E"/>
		<stop  offset="0.83196" style="stop-color:#D09942"/>
		<stop  offset="0.93896" style="stop-color:#D79440"/>
		<stop  offset="1" style="stop-color:#FFD25D"/>
	</linearGradient>
	<path class="st9" d="M869.71558,329.70035c-0.50916-0.41199-1.01544-0.58371-1.52081-0.51306
		c-0.75903,0.10614-1.70654,0.6015-2.84241,1.48602c-6.62592,5.22052-11.30017,8.02066-14.0188,8.40082
		c-1.64594,0.23016-2.46948-0.34982-2.47461-1.74033c-0.00916-2.47754,3.20319-6.61633,9.63708-12.41443
		c2.39606-2.20944,3.59314-3.85876,3.58911-4.94675c-0.00226-0.60315-0.28937-1.22949-0.86133-1.87521
		c-0.95374-1.1958-1.90503-1.72928-2.85382-1.59659c-0.44348,0.06201-1.48547,0.66125-3.1261,1.79779
		c-3.28296,2.33441-6.37561,4.79214-9.276,7.37479c-8.07556,7.17731-15.19977,14.37152-21.37463,21.58478
		c1.50519-3.71765,3.67438-7.5578,6.50769-11.52325c3.08429-4.18005,4.75372-6.43973,5.00629-6.77774
		c1.25836-1.80878,1.8869-3.16663,1.88354-4.07327s-0.41864-1.60385-1.24182-2.09415
		c-0.69891-0.38541-1.45886-0.52167-2.27985-0.40689c-2.46698,0.34497-5.52777,3.04077-9.17847,8.08685
		c-5.91956,8.14578-11.5744,19.24805-16.96448,33.30487c-3.63434,9.45908-5.44977,15.21674-5.44214,17.27054
		c0.00781,2.11679,1.18323,3.00946,3.52234,2.68237c2.15131-0.30084,3.94897-1.94247,5.39288-4.92685
		c3.82971-7.97388,7.69678-14.77374,11.60107-20.39954c6.73724-9.16534,12.59845-15.7905,17.58374-19.87546
		c-1.32117,2.12122-1.979,3.93576-1.97339,5.44653c0.008,2.17596,0.73969,3.58612,2.19904,4.22809
		c1.71167,0.78903,3.57825,1.04172,5.6037,0.75851c4.99579-0.69858,10.27087-3.43188,15.82318-8.19958
		c5.29956-4.48984,7.94598-7.64236,7.93927-9.45566C870.57367,330.70041,870.28687,330.1647,869.71558,329.70035z"/>
</svg>
