<svg xmlns="http://www.w3.org/2000/svg" viewBox="0 0 1024 768">

	<path class="st1" d="M390.65,425.04c10.29-4.76,18.11-13.11,26.81-20.12c7.97-6.42,17.96-12.7,28.66-11.66
		c4.16,0.41,8.77,1.84,11.98,4.63c2.81,2.44,3.92,7.26,3.65,10.94c-0.74,10.29-10.07,17.88-18.32,22.66
		c-19.27,11.17-41.89,14.19-63.74,15.84c-5.79,0.44-11.6,0.84-17.4,1.1c-6.06,0.28-12.23,0.24-18.15-1.26
		c-4.09-1.03-8.78-2.87-11.7-6.04c-3.34-3.63-4.61-9.06-4.06-13.87c1.25-10.97,9.93-19.73,17.83-26.63
		c8.68-7.58,18.13-14.23,27.92-20.28c9.79-6.05,19.92-11.51,30.12-16.82c10.4-5.41,20.83-10.79,31.34-15.98
		c21.14-10.45,42.86-20.13,65.73-26.12c11.3-2.96,22.86-5,34.52-5.72c4.73-0.29,10.28-0.83,14.65,1.43
		c0.27,0.14,0.53,0.32,0.8,0.47c0.7,0.38-0.39,0.3-0.49-0.53c0.04,0.36,0.61,1.05,0.75,1.4c0.4,1,0.59,2.09,0.56,3.17
		c-0.07,2.29-1.08,4.48-2.31,6.37c-2.83,4.32-7,7.36-11.25,10.15c-4.84,3.17-9.73,6.29-14.58,9.45
		c-9.74,6.34-19.39,12.88-28.29,20.38c-16.32,13.74-30.48,31.65-34.71,53.02c-0.98,4.92-1.36,9.95-1.13,14.96
		c0.04,0.78,1.47,1.87,2,2.35c0.18,0.16,1.59,1.34,1.57,0.9c-1.04-22.56,11.02-43.63,26.52-59.19
		c8.52-8.54,18.19-15.83,28.13-22.61c5.03-3.43,10.15-6.74,15.26-10.04c4.79-3.1,9.92-5.97,14.31-9.64c3.6-3.01,7.51-7.16,8-12.07
		c0.23-2.32-0.49-4.47-1.85-6.34c-1.57-2.17-3.7-4.24-6.09-5.49c-4.51-2.37-9.9-1.97-14.82-1.68c-6.03,0.36-12.04,1.05-18,2.06
		c-24.29,4.09-47.44,13.09-69.66,23.47c-11.16,5.21-22.13,10.8-33.09,16.43c-10.77,5.53-21.55,11.06-32.05,17.08
		c-10.32,5.91-20.39,12.31-29.78,19.62c-8.99,7.01-18.76,14.98-23.44,25.68c-2.14,4.9-2.92,10.41-1.24,15.57
		c1.62,4.98,5.36,9.16,9.37,12.4c4.04,3.26,8.73,5.47,13.8,6.57c6.28,1.35,12.76,1.18,19.14,0.82
		c22.89-1.28,46.66-2.63,68.11-11.46c9.92-4.08,20.67-9.85,26.35-19.35c2.52-4.21,3.72-9.22,2.46-14.05
		c-1.22-4.68-4.67-8.56-8.34-11.55c-3.59-2.93-7.91-4.9-12.5-5.58c-5.09-0.74-10.26,0.26-14.99,2.17
		c-10.74,4.33-18.89,12.84-27.66,20.09c-4.4,3.64-9.05,7-14.25,9.4c-0.28,0.13,1.38,1.89,1.51,2.03
		C388.91,423.84,390.14,425.28,390.65,425.04L390.65,425.04z"/>

	<path class="st1" d="M499.67,420.58c-2.08,2.68-0.29,6.37,1.84,8.41c1.14,1.1,2.6,2,4.18,2.29c1.85,0.35,3.78,0,5.61-0.34
		c3.2-0.61,6.37-1.06,9.11,1.1c2.16,1.7,3.38,4.23,3.83,6.9c0.79,4.63-0.38,9.4-1.41,13.9c-0.26,1.16,0.42,2.49,1.32,3.2
		c0.78,0.62,1.85,0.78,2.23-0.31c7.9-22.24,15.79-44.48,23.69-66.72c1.95-5.48,3.89-10.96,5.84-16.44c1.76-4.96,3.8-9.91,5-15.04
		c1.04-4.48,1.38-9.37-0.5-13.68c-1.7-3.9-4.87-7.01-8.98-8.24c-7.47-2.24-15.94,1.98-21,7.34c-6,6.35-9.2,15.28-9.88,23.89
		c-0.71,8.95,1.49,18.19,6.39,25.73c4.87,7.5,12.16,13.4,20.51,16.61c4.15,1.6,8.44,2.54,12.88,2.77
		c4.86,0.25,9.55-0.92,14.38-1.11c4.17-0.16,8.37,1.01,10.27,5.03c2.02,4.27,1.27,9.13-0.11,13.46c-0.82,2.57-1.89,5.05-2.95,7.53
		c-0.63,1.46,1.97,4.99,3.37,3.3c13.48-16.28,22.07-36.14,26.83-56.62c2.5-10.78,4.92-22.69,1.83-33.6
		c-2.5-8.83-9.12-17.6-18.55-19.52c-8.93-1.82-17.55,3.69-22.02,11.17c-5.11,8.55-4.31,18.99-0.34,27.83
		c8.52,18.97,28.26,30.67,47.62,35.99c22.48,6.18,46.11,4.36,68.97,1.66c2.94-0.35,5.87-0.71,8.8-1.07
		c2.2-0.27,0.13-4.78-1.82-4.54c-22.11,2.73-44.75,5.58-66.9,1.7c-18.32-3.21-37.25-11.19-48.82-26.36
		c-5.32-6.98-9-16.3-6.91-25.14c1.84-7.79,8.22-15.13,16.26-16.75c8.18-1.64,15.59,3.61,18.91,10.88
		c4.33,9.49,2.38,20.65,0.37,30.47c-3.99,19.43-11.28,38.38-23.01,54.49c-1.41,1.94-2.89,3.84-4.42,5.68
		c1.12,1.1,2.25,2.2,3.37,3.3c2.1-4.87,4.15-9.83,4.4-15.2c0.2-4.36-1.05-8.84-3.63-12.36c-2.91-3.97-7.23-5.84-12.08-5.91
		c-4.7-0.07-9.3,1.21-14,1.18c-8.24-0.06-16.47-3.09-22.93-8.17c-6.45-5.07-10.87-12.09-12.45-20.15
		c-1.6-8.14-0.41-16.94,3.3-24.36c3.53-7.05,9.34-13.12,17.3-14.81c3.14-0.66,6.78-0.65,9.47,1.33c3.07,2.26,3.51,6.21,3.14,9.76
		c-0.47,4.63-2.25,9.08-3.8,13.43c-1.89,5.32-3.78,10.65-5.67,15.97c-7.62,21.46-15.24,42.91-22.86,64.37
		c-0.95,2.66-1.89,5.32-2.84,7.99c1.18,0.96,2.37,1.93,3.55,2.89c1.69-7.44,3.1-15.4-0.93-22.36c-1.59-2.75-3.99-5.29-6.94-6.57
		c-3.4-1.48-6.63-0.78-10.15-0.19c-1.7,0.29-3.67,0.61-5.17-0.46c-0.86-0.61-1.04-0.96-0.33-1.88
		C504.05,422.74,501.06,418.78,499.67,420.58L499.67,420.58z"/>

</svg>
