<svg id="tyson-name" xmlns="http://www.w3.org/2000/svg" viewBox="0 0 1024 768">
	<style type="text/css">
		.st0{fill:url(#SVGID_1_);}
		.st1{fill:url(#SVGID_2_);}
		.st2{fill:url(#SVGID_3_);}
		.st3{fill:url(#SVGID_4_);}
		.st4{fill:url(#SVGID_5_);}
		.st5{fill:url(#SVGID_6_);}
		.st6{fill:url(#SVGID_7_);}
		.st7{fill:url(#SVGID_8_);}
		.st8{fill:url(#SVGID_9_);}
		#tyson-name svg {
		fill-opacity: 0;
		stroke-width: 1px;
		stroke-opacity: 1;
		stroke: #EDBD54;
		transition: all .5s ease;
		}
		.svg--finished #tyson-name * {
		fill-opacity: 1;
		stroke-opacity: 0;
		transition: all .5s ease;
		}
	</style>
	<linearGradient id="SVGID_1_" gradientUnits="userSpaceOnUse" x1="196.53914" y1="428.05356" x2="851.87244"
					y2="287.3869">
		<stop offset="0" style="stop-color:#DBA344"/>
		<stop offset="0.18206" style="stop-color:#EDBD54"/>
		<stop offset="0.36966" style="stop-color:#F1CE68"/>
		<stop offset="0.51432" style="stop-color:#DCA743"/>
		<stop offset="0.63702" style="stop-color:#EDC45A"/>
		<stop offset="0.81539" style="stop-color:#AD752D"/>
		<stop offset="0.90604" style="stop-color:#F1CD60"/>
		<stop offset="0.99882" style="stop-color:#D88B00"/>
	</linearGradient>
	<path class="st st0" d="M325.9346,394.03653c2.9418-6.49423,8.5484-17.43811,16.81781-32.82898
		c4.63535-8.55542,7.2037-13.32562,7.70563-14.30829c2.56781-4.79898,3.85077-8.23355,3.84686-10.30301
		c-0.00262-1.39886-0.50845-2.48563-1.51495-3.25873c-1.13348-0.99814-2.54874-1.38052-4.2457-1.14478
		c-2.9548,0.41052-6.34482,2.95148-10.17007,7.62097c-6.39777,7.76718-13.54666,17.28107-21.44662,28.54214
		c-13.60614,19.41888-23.51056,34.21527-29.71518,44.38934c-7.27094,11.905-11.90872,19.42719-13.91388,22.5657
		c1.55286-9.52783,5.05191-21.36432,10.49463-35.51102c6.31921-15.72778,13.23956-30.07932,20.75912-43.05383
		c2.63181-4.56519,3.94598-7.7605,3.94254-9.58594c-0.00311-1.64285-0.72931-3.00269-2.17664-4.07974
		c-1.1969-0.92926-2.42349-1.30661-3.67984-1.13208c-2.01205,0.27954-4.55481,2.06372-7.62827,5.35065
		c-2.94952,3.21011-8.27948,10.03708-15.99243,20.48077c-18.43567,25.01981-34.38652,51.21661-47.8506,78.58826
		c-2.63029,5.35684-6.41664,14.06866-11.36101,26.13669c-2.31488,5.49564-3.47247,8.82007-3.47029,9.97681
		c0.0015,0.79068,0.25482,1.42532,0.758,1.90317c0.63066,0.70331,1.41638,0.99008,2.35915,0.8591
		c3.70901-0.51529,6.9702-4.25497,9.78607-11.21942c5.6322-13.68484,10.42079-24.66644,14.36578-32.94479
		c8.32797-17.22491,17.78897-34.21082,28.38254-50.96005c5.8295-9.08649,11.91144-17.20477,18.24835-24.35471
		c-18.60492,35.26834-27.89304,60.5097-27.86432,75.72028c0.00336,1.76584,0.38339,3.2641,1.14011,4.49765
		c1.1351,1.8508,2.896,2.61038,5.28513,2.27847c2.38766-0.3317,4.90024-1.80612,7.53571-4.42484
		c2.69739-2.68689,6.11523-7.5737,10.25107-14.66193c18.79865-32.55643,35.94418-57.94473,51.4386-76.16528
		c-29.57086,54.56458-44.33905,90.45694-44.30655,107.67545c0.00519,2.73813,0.48059,4.80359,1.42621,6.1925
		c1.1351,1.8508,2.58191,2.65402,4.34238,2.40945c1.50842-0.20956,2.85773-1.0976,4.0499-2.66241
		c1.37903-1.71191,2.06808-3.45093,2.06476-5.2168c-0.00079-0.42465-0.16122-1.8035-0.47931-4.13297
		c-0.12802-0.77216-0.19147-1.52542-0.19284-2.25558c-0.00623-3.28577,1.08313-8.57941,3.27051-15.88324
		C311.9458,426.86938,317.85834,411.83572,325.9346,394.03653z"/>
	<linearGradient id="SVGID_2_" gradientUnits="userSpaceOnUse" x1="192.34538" y1="408.51584" x2="847.67871"
					y2="267.84915">
		<stop offset="0" style="stop-color:#DBA344"/>
		<stop offset="0.18206" style="stop-color:#EDBD54"/>
		<stop offset="0.36966" style="stop-color:#F1CE68"/>
		<stop offset="0.51432" style="stop-color:#DCA743"/>
		<stop offset="0.63702" style="stop-color:#EDC45A"/>
		<stop offset="0.81539" style="stop-color:#AD752D"/>
		<stop offset="0.90604" style="stop-color:#F1CD60"/>
		<stop offset="0.99882" style="stop-color:#D88B00"/>
	</linearGradient>
	<path class="st st1" d="M366.17349,379.4993c2.45117-0.34052,4.9938-2.1843,7.6279-5.53317
		c2.75891-3.48734,4.13693-6.50891,4.13211-9.06451c-0.00528-2.79816-1.42206-4.00198-4.25034-3.60907
		c-1.94904,0.27078-4.14584,1.79404-6.59244,4.56769c-3.32568,3.74866-4.98453,7.08313-4.97903,10.00381
		c0.0022,1.15674,0.38113,2.07806,1.13684,2.76349C364.00433,379.37543,364.97867,379.66531,366.17349,379.4993z"/>
	<linearGradient id="SVGID_3_" gradientUnits="userSpaceOnUse" x1="203.01646" y1="458.22995" x2="858.34979"
					y2="317.56329">
		<stop offset="0" style="stop-color:#DBA344"/>
		<stop offset="0.18206" style="stop-color:#EDBD54"/>
		<stop offset="0.36966" style="stop-color:#F1CE68"/>
		<stop offset="0.51432" style="stop-color:#DCA743"/>
		<stop offset="0.63702" style="stop-color:#EDC45A"/>
		<stop offset="0.81539" style="stop-color:#AD752D"/>
		<stop offset="0.90604" style="stop-color:#F1CD60"/>
		<stop offset="0.99882" style="stop-color:#D88B00"/>
	</linearGradient>
	<path class="st st2" d="M359.23465,400.3656c-0.00125-0.66867-0.25458-1.30283-0.758-1.90317
		c-0.69366-0.69406-1.57416-0.96814-2.64197-0.81979c-1.19482,0.16599-2.3558,0.90628-3.48492,2.21875
		c-1.12924,1.25244-2.82214,3.6489-5.07867,7.18753c-7.0213,10.8353-12.09372,20.5484-15.22168,29.13803
		c-4.00208,10.90402-6.00262,17.26703-5.99918,19.09244c0.00171,0.91272,0.34967,1.71774,1.04187,2.41153
		c0.75604,0.86942,1.76321,1.21573,3.01956,1.0412c2.1376-0.29697,3.70615-2.03519,4.7052-5.21844
		c2.24963-7.18942,4.84445-14.24426,7.78696-21.16672c2.75284-6.71158,7.38837-15.42029,13.90717-26.12524
		C358.32816,403.41299,359.23672,401.46088,359.23465,400.3656z"/>
	<linearGradient id="SVGID_4_" gradientUnits="userSpaceOnUse" x1="198.04488" y1="435.06851" x2="853.37823"
					y2="294.40182">
		<stop offset="0" style="stop-color:#DBA344"/>
		<stop offset="0.18206" style="stop-color:#EDBD54"/>
		<stop offset="0.36966" style="stop-color:#F1CE68"/>
		<stop offset="0.51432" style="stop-color:#DCA743"/>
		<stop offset="0.63702" style="stop-color:#EDC45A"/>
		<stop offset="0.81539" style="stop-color:#AD752D"/>
		<stop offset="0.90604" style="stop-color:#F1CD60"/>
		<stop offset="0.99882" style="stop-color:#D88B00"/>
	</linearGradient>
	<path class="st st3" d="M473.25552,406.43567c-1.25833,0.17484-2.79562,1.39264-4.61383,3.65375
		c-10.28677,13.11487-19.35696,20.21786-27.21265,21.30923c-3.58246,0.49771-6.16278-0.26917-7.737-2.30304
		c-0.69452-0.87701-1.04105-1.98495-1.04358-3.32422l-0.00308-1.64288c12.75098-5.48383,22.29092-13.53424,28.62177-24.15256
		c3.06952-5.11227,4.60321-9.28082,4.59711-12.50702c-0.00391-2.06799-0.82477-3.62851-2.46066-4.67935
		c-1.32169-0.7894-2.80026-1.07169-4.43372-0.84476c-6.03366,0.83823-13.09674,5.83649-21.1893,14.99472
		c-5.05197,5.69571-8.81662,11.2677-11.30487,16.71664c-0.2532-0.80713-0.93521-1.13931-2.05612-0.98358
		c-1.44687,0.20102-2.98376,1.63211-4.61261,4.2926c-2.50781,4.00021-5.61212,8.02274-9.31299,12.06665
		c-5.58456,6.31506-10.51245,9.76831-14.78561,10.362c-2.07407,0.28815-3.74222-0.51416-5.00247-2.40906
		c-1.0094-1.50308-1.51544-3.50085-1.52014-5.99686c-0.00964-5.11118,2.01758-12.84827,6.08569-23.21274
		c5.0213-3.92273,9.91928-6.91632,14.69394-8.97983c2.82678-1.18362,4.23828-2.77991,4.2345-4.78787
		c-0.00174-0.91269-0.34946-1.59476-1.04117-2.04642c-0.63031-0.52026-1.35434-0.72479-2.17007-0.61148
		c-1.50842,0.20956-3.95825,1.25049-7.34955,3.12085c-5.02536,2.82965-9.01184,5.42178-11.96149,7.77856
		c-4.58289,3.74072-10.79443,10.26395-18.63458,19.56973c3.75656-8.19067,6.04123-13.13336,6.85596-14.82932
		c6.2771-4.64496,13.33752-10.7999,21.18277-18.46304c13.99207-13.75073,23.90475-25.20059,29.73413-34.34955
		c5.57776-8.86893,8.36273-15.89011,8.35297-21.06277c-0.00366-1.94647-0.69946-3.4931-2.08337-4.64047
		c-1.07184-0.94662-2.29846-1.32401-3.67987-1.13208c-3.08032,0.42795-7.19412,2.88687-12.33945,7.3746
		c-5.71225,4.93307-12.14136,12.39951-19.28931,22.39954c-13.23102,18.33276-25.63705,40.3848-37.21811,66.15567
		c-6.57324,14.73047-9.85754,23.31104-9.85297,25.74463c0.00162,0.85217,0.34955,1.65625,1.04187,2.4115
		c0.69366,0.6955,1.51065,0.97696,2.4534,0.84598c1.82349-0.25333,3.83127-2.26688,6.02383-6.04068
		c8.27216-13.93054,14.44693-22.82233,18.52686-26.67578c-1.49692,6.29495-2.24246,10.99307-2.2366,14.09628
		c0.00702,3.71231,0.76788,7.13733,2.28262,10.27307c2.01917,4.28424,5.44867,6.09015,10.28897,5.41769
		c8.04422-1.11755,16.33044-7.59366,24.85867-19.43018c2.53262-3.5047,4.50815-6.46216,5.92816-8.87405
		c-0.68274,2.76395-1.03091,5.49554-1.02582,8.19296c0.00714,3.77383,0.92474,6.62738,2.75089,8.56476
		c2.70923,2.78912,6.41974,3.85544,11.13351,3.20056c4.58676-0.63724,9.54999-2.72598,14.88766-6.26788
		c5.33569-3.5397,10.35822-7.8595,15.06363-12.95685c6.02298-6.49707,9.03223-10.9321,9.02774-13.30515
		c-0.00082-0.42563-0.19022-0.85483-0.56824-1.2905C474.57602,406.58762,473.94623,406.33972,473.25552,406.43567z
		 M448.15298,396.59406c3.01233-2.79214,5.33426-4.30157,6.9697-4.52878c1.19284-0.16571,1.79239,0.36026,1.79468,1.57657
		c0.0022,1.15674-0.46674,2.52982-1.40674,4.12112c-2.57037,4.49612-6.05157,8.69208-10.44357,12.5889
		c-2.51126,2.17477-5.96558,4.29797-10.36105,6.36935C438.27344,408.25314,442.75443,401.54364,448.15298,396.59406z
		 M409.32065,356.98056c8.59009-11.6611,14.64462-17.73727,18.16559-18.22644c1.31985-0.18338,1.98111,0.42532,1.98376,1.82419
		c0.00262,1.40027-0.9357,3.87308-2.815,7.42078c-2.6944,5.06161-6.2677,10.42694-10.71988,16.0965
		c-8.90625,11.40231-18.50659,21.10397-28.80103,29.10739C394.83945,378.74335,402.23364,366.6694,409.32065,356.98056z"/>
	<linearGradient id="SVGID_5_" gradientUnits="userSpaceOnUse" x1="201.13115" y1="449.44669" x2="856.46448"
					y2="308.78003">
		<stop offset="0" style="stop-color:#DBA344"/>
		<stop offset="0.18206" style="stop-color:#EDBD54"/>
		<stop offset="0.36966" style="stop-color:#F1CE68"/>
		<stop offset="0.51432" style="stop-color:#DCA743"/>
		<stop offset="0.63702" style="stop-color:#EDC45A"/>
		<stop offset="0.81539" style="stop-color:#AD752D"/>
		<stop offset="0.90604" style="stop-color:#F1CD60"/>
		<stop offset="0.99882" style="stop-color:#D88B00"/>
	</linearGradient>
	<path class="st st4" d="M611.60834,313.90469c-0.00238-1.27777-0.79114-2.11093-2.36224-2.50195
		c5.59052-2.11487,15.95917-4.46832,31.1059-7.06033c7.60327-1.23889,13.29205-2.3031,17.06238-3.19211
		c4.33575-1.08862,6.50098-3.06302,6.49554-5.92361c-0.00323-1.70294-0.8866-2.73679-2.64624-3.10159
		c-1.88678-0.40671-5.59692-0.22665-11.12646,0.54153c-16.34247,2.27045-33.37073,6.18817-51.08875,11.75372
		c-14.13654,4.52023-26.41986,9.02707-36.84601,13.5181c-3.89575,1.75928-5.83917,3.94647-5.83423,6.5621
		c0.00183,0.97421,0.31702,1.78186,0.94757,2.42462c1.00671,1.13828,2.23352,1.6069,3.68042,1.40588
		c1.25635-0.17453,3.01605-0.814,5.27716-1.91998c10.74194-4.41379,22.3949-8.43619,34.96277-12.06961l-2.53809,4.27829
		c-9.08722,15.44443-14.82098,25.27921-17.20129,29.50433c-5.95404,10.38339-12.43695,23.03082-19.44855,37.94183
		c-10.95862,23.19009-16.43164,37.58417-16.42108,43.18149c0.00262,1.39981,0.44379,2.67719,1.32745,3.83255
		c1.32355,1.76312,2.9588,2.51038,4.90784,2.23959c2.13562-0.29669,3.64044-2.42294,4.5144-6.37875
		c3.80865-13.18741,9.84772-28.51251,18.11322-45.97284c10.83191-22.98895,22.20306-43.77094,34.1134-62.34644
		C610.60858,317.48303,611.6109,315.24399,611.60834,313.90469z"/>
	<linearGradient id="SVGID_6_" gradientUnits="userSpaceOnUse" x1="213.02393" y1="504.85236" x2="868.35724"
					y2="364.1857">
		<stop offset="0" style="stop-color:#DBA344"/>
		<stop offset="0.18206" style="stop-color:#EDBD54"/>
		<stop offset="0.36966" style="stop-color:#F1CE68"/>
		<stop offset="0.51432" style="stop-color:#DCA743"/>
		<stop offset="0.63702" style="stop-color:#EDC45A"/>
		<stop offset="0.81539" style="stop-color:#AD752D"/>
		<stop offset="0.90604" style="stop-color:#F1CD60"/>
		<stop offset="0.99882" style="stop-color:#D88B00"/>
	</linearGradient>
	<path class="st st5" d="M674.52722,374.63895c-1.2583,0.17484-2.48163,1.56238-3.66986,4.16165
		c-1.2533,2.85242-4.70105,7.40894-10.34723,13.67105c-3.32623,3.74872-6.99774,7.02936-11.01459,9.8381
		c2.12549-5.64999,5.16357-12.15906,9.11029-19.52469c2.50439-4.7301,5.26227-9.8298,8.26953-15.29959
		c2.50488-4.48605,3.75769-7.61133,3.75433-9.3772c-0.00195-1.03375-0.3808-1.89407-1.13647-2.58096
		c-0.81934-0.73761-1.73212-1.03748-2.73645-0.89795c-1.63544,0.2272-3.39191,1.53699-5.27338,3.92795
		c-0.8161,0.96579-2.97937,3.97443-6.48969,9.02686c-3.88831,5.7142-6.08197,8.90967-6.58295,9.58759
		c-2.4458,3.20068-5.83307,7.20102-10.1618,12.00195c-6.90234,7.59369-11.60992,11.56412-14.12262,11.91318
		c-1.2583,0.17484-1.88672-0.37692-1.8891-1.65472c-0.00415-2.19052,1.71704-5.89883,5.16553-11.12527
		c3.00885-4.61758,6.30115-8.96991,9.87689-13.05792c3.38739-3.93982,5.44135-6.46143,6.1629-7.56686
		c0.71954-1.10324,1.07953-2.32474,1.07703-3.664c-0.00171-0.91272-0.34955-1.6553-1.0415-2.22897
		c-0.7558-0.74646-1.63788-1.0506-2.64215-0.91107c-3.646,0.50653-9.54413,6.86514-17.6925,19.07367
		c-8.02362,12.00955-12.03027,21.29977-12.01782,27.87128c0.00342,1.82541,0.47766,3.28177,1.42273,4.3671
		c1.26123,1.34698,2.95959,1.87119,5.09521,1.57449c4.39819-0.61102,9.89325-4.41696,16.48102-11.41919
		c3.32458-3.56589,7.77734-8.93185,13.36029-16.09811c-1.94141,4.28668-4.19556,9.10406-6.76233,14.45114
		c-2.31738,4.94818-4.03815,8.8996-5.16412,11.85541c-1.82196,1.34866-4.33197,3.1283-7.534,5.33755
		c-7.91089,5.4812-13.87415,9.96146-17.89172,13.44107c-13.74554,11.82907-20.60938,22.49164-20.59143,31.98383
		c0.00629,3.34531,0.92352,5.98843,2.74969,7.92581c2.33148,2.53604,5.41455,3.53864,9.24713,3.0062
		c9.36603-1.30121,18.43121-10.01703,27.20349-26.14661c4.69849-8.74823,9.67584-19.634,14.93213-32.65829
		c9.91962-6.7338,18.26709-14.40619,25.04047-23.01596c5.64447-7.17484,8.46368-12.37439,8.45758-15.59961
		C677.16858,375.12442,676.28571,374.39465,674.52722,374.63895z M627.29468,430.95667
		c-4.19476,9.52966-6.76105,15.15054-7.70081,16.86386c-5.70001,10.34616-10.90894,15.84888-15.62274,16.50375
		c-1.50842,0.20956-2.73505-0.16779-3.67987-1.13205c-0.6922-0.69571-1.04034-1.6218-1.04254-2.77661
		c-0.01019-5.41669,3.49969-11.74719,10.52582-18.99097c6.9649-7.0546,13.77472-12.68649,20.43134-16.89792
		C629.1402,426.86588,628.17047,429.00909,627.29468,430.95667z"/>
	<linearGradient id="SVGID_7_" gradientUnits="userSpaceOnUse" x1="208.1319" y1="482.06155" x2="863.46521"
					y2="341.3949">
		<stop offset="0" style="stop-color:#DBA344"/>
		<stop offset="0.18206" style="stop-color:#EDBD54"/>
		<stop offset="0.36966" style="stop-color:#F1CE68"/>
		<stop offset="0.51432" style="stop-color:#DCA743"/>
		<stop offset="0.63702" style="stop-color:#EDC45A"/>
		<stop offset="0.81539" style="stop-color:#AD752D"/>
		<stop offset="0.90604" style="stop-color:#F1CD60"/>
		<stop offset="0.99882" style="stop-color:#D88B00"/>
	</linearGradient>
	<path class="st st6" d="M729.56793,358.31921c2.75848-3.7294,4.13531-7.38989,4.12854-10.98117
		c-0.00519-2.73813-0.98456-4.64035-2.93414-5.70914c-1.95154-1.06708-4.87537-1.33118-8.77142-0.78989
		c-7.41705,1.03043-14.4527,4.26047-21.10504,9.6879c-6.84253,5.63742-10.25702,11.49918-10.24554,17.58261
		c0.00861,4.56357,2.09229,9.35681,6.25098,14.37784c3.02454,3.65829,4.53918,6.76425,4.54401,9.31985
		c0.00391,2.06946-0.55853,3.85239-1.68732,5.34692c-1.38037,1.77551-3.29517,2.83145-5.74634,3.172
		c-2.51465,0.34937-4.74823-0.25327-6.69873-1.8082c-2.20502-1.76175-3.30835-4.13492-3.31396-7.11707
		c-0.00665-3.52884,0.70898-6.70154,2.15094-9.51962c0.56378-1.05087,0.84528-1.82034,0.84436-2.30838
		c-0.00232-1.21631-0.79041-1.71609-2.36035-1.49799c-1.75848,0.24429-3.45349,1.54553-5.0849,3.90176
		c-2.50659,3.57431-3.75739,7.73431-3.74841,12.48038c0.00769,4.07742,1.11487,7.45432,3.31964,10.12903
		c3.15173,3.76172,7.74249,5.22369,13.77612,4.38547c3.83258-0.53247,7.25751-1.95102,10.27075-4.25705
		c4.89661-3.72281,7.33984-8.26181,7.32971-13.617c-0.00677-3.58936-1.86981-7.71268-5.5871-12.37027
		c-3.34137-4.28314-5.013-8.00635-5.01898-11.17105c-0.00842-4.44058,2.52979-8.62759,7.61462-12.56107
		c4.39282-3.47021,8.41321-5.45969,12.0592-5.96622c1.50842-0.20956,2.64026-0.06171,3.39563,0.44119
		c0.75537,0.50433,1.13428,1.39444,1.13666,2.67224c0.00311,1.64285-0.84247,3.28256-2.5368,4.91718
		c-1.94592,1.91364-4.08154,3.27609-6.40472,4.08511c-3.89648,1.39374-6.03107,2.20731-6.40784,2.44226
		c-1.50696,1.00119-2.25897,2.26273-2.2561,3.78262c0.00427,2.25198,1.32623,3.19366,3.966,2.82693
		c1.94702-0.27051,4.36646-1.12268,7.25629-2.56012C722.97943,364.95636,726.9342,361.85065,729.56793,358.31921z"/>
	<linearGradient id="SVGID_8_" gradientUnits="userSpaceOnUse" x1="208.74364" y1="484.91153" x2="864.07697"
					y2="344.24487">
		<stop offset="0" style="stop-color:#DBA344"/>
		<stop offset="0.18206" style="stop-color:#EDBD54"/>
		<stop offset="0.36966" style="stop-color:#F1CE68"/>
		<stop offset="0.51432" style="stop-color:#DCA743"/>
		<stop offset="0.63702" style="stop-color:#EDC45A"/>
		<stop offset="0.81539" style="stop-color:#AD752D"/>
		<stop offset="0.90604" style="stop-color:#F1CD60"/>
		<stop offset="0.99882" style="stop-color:#D88B00"/>
	</linearGradient>
	<path class="st st7" d="M764.22974,336.70544c-3.3324,0.46298-7.03729,2.34711-11.11676,5.65271
		c-6.96759,5.65479-13.02155,13.06909-18.15802,22.24237c-5.51227,9.89532-8.26306,18.73813-8.24835,26.52594
		c0.00433,2.31253,0.44873,4.22852,1.33105,5.74924c1.70319,3.05002,4.37872,4.32159,8.02277,3.81534
		c7.85565-1.09137,15.98145-8.94534,24.37933-23.56314c7.70721-13.48688,11.55316-24.276,11.53784-32.36935
		C771.96613,338.67462,769.3822,335.98962,764.22974,336.70544z M755.13721,365.63104
		c-2.00836,2.47009-3.01013,3.94891-3.00922,4.43503c0.00128,0.66965,0.78802,1.50406,2.36224,2.50198
		c0.06165,0.05292-0.37512,1.11786-1.31421,3.19531c-0.93909,2.0784-2.16107,4.13461-3.66608,6.16959
		c-3.44916,4.86136-6.68115,7.50146-9.698,7.92056c-1.2583,0.17484-2.29639-0.22873-3.1142-1.21063
		c-0.56714-0.71213-0.85168-1.58554-0.85364-2.62027c-0.00739-3.89392,1.52258-9.00565,4.59174-15.33643
		c2.63-5.53748,6.45306-11.09079,11.47327-16.65762c3.88892-4.31317,6.83868-6.61035,8.8512-6.88995
		c1.06781-0.14835,1.85364,0.19894,2.3595,1.04163c0.31451,0.44449,0.47321,0.90869,0.47412,1.39484
		C763.60107,353.34891,760.78217,358.70023,755.13721,365.63104z"/>
	<linearGradient id="SVGID_9_" gradientUnits="userSpaceOnUse" x1="211.22754" y1="496.48343" x2="866.56085"
					y2="355.81677">
		<stop offset="0" style="stop-color:#DBA344"/>
		<stop offset="0.18206" style="stop-color:#EDBD54"/>
		<stop offset="0.36966" style="stop-color:#F1CE68"/>
		<stop offset="0.51432" style="stop-color:#DCA743"/>
		<stop offset="0.63702" style="stop-color:#EDC45A"/>
		<stop offset="0.81539" style="stop-color:#AD752D"/>
		<stop offset="0.90604" style="stop-color:#F1CD60"/>
		<stop offset="0.99882" style="stop-color:#D88B00"/>
	</linearGradient>
	<path class="st st8" d="M822.51239,339.28986c-0.00494-2.61612-1.23297-3.75439-3.68414-3.41385
		c-4.46375,0.62015-13.25043,8.04892-26.36212,22.28662c-0.75281,0.83493-1.53839,1.67444-2.35272,2.51794
		c1.62769-3.26868,3.75891-6.94266,6.3916-11.02173c1.81732-2.74722,2.72571-4.79062,2.72314-6.12991
		c-0.00208-1.09525-0.44452-2.00632-1.32538-2.7373c-0.75555-0.6254-1.54321-0.88113-2.35895-0.76782
		c-1.69696,0.23578-3.73712,2.19327-6.11847,5.87128c-2.38318,3.73975-5.63977,9.66986-9.77362,17.79092
		c-7.70435,15.00867-11.55341,24.15494-11.54718,27.4407c0.0025,1.33926,0.44519,2.37332,1.32605,3.10239
		c0.69409,0.63394,1.57397,0.87686,2.64178,0.72852c2.13757-0.29697,4.14508-2.18842,6.02454-5.6756
		c7.32813-14.46823,15.26038-24.94385,23.79871-31.42517c-6.39191,10.8699-9.58014,20.41159-9.56458,28.62598
		c0.008,4.25998,0.86334,7.76218,2.56592,10.50763c1.76447,2.91943,3.93579,4.20053,6.51404,3.84235
		c1.13129-0.15717,2.104-0.71899,2.9201-1.68381c0.75293-0.77441,1.12872-1.52625,1.12738-2.25641
		c-0.00153-0.78973-0.44421-1.82376-1.32611-3.10239c-1.89124-2.77979-2.84003-5.84329-2.84637-9.19052
		c-0.01953-10.34341,5.9588-23.13361,17.93896-38.37115C821.41937,343.42889,822.51587,341.11526,822.51239,339.28986z"/>
</svg>
