<svg xmlns="http://www.w3.org/2000/svg" viewBox="0 0 1024 768">

	<path class="st0" d="M410.17014,395.96329c14.28381-15.96259,27.49976-32.88922,39.52197-50.61768
		c3.0506-4.49847,6.02405-9.04926,8.91827-13.6499c2.32227-3.69147,6.59161-9.01239,4.07288-13.57971
		c-2.12677-3.85663-6.78406-3.26758-10.16437-1.63684c-3.97058,1.91553-7.17859,5.48883-10.23938,8.57562
		c-13.38062,13.49408-23.90009,29.68994-31.12976,47.24438c-3.60535,8.75427-6.3714,17.86859-8.23126,27.16254
		c-4.19055,4.53522-8.45837,8.99896-12.82257,13.36737c-1.78918,1.79095-3.59271,3.56757-5.41034,5.32959
		c-0.85095,0.82489-1.76843,1.61066-2.5755,2.47784c-1.01233,1.08771-1.90552,2.32184-2.84851,3.47083
		c-3.68741,4.49292-7.37479,8.98581-11.0621,13.4787c-1.30112-0.63239,0.20004,0.0972-1.1011-0.53516
		c3.52969-15.5549,8.65875-30.74445,15.31604-45.24097c2.17145-4.72845,4.5141-9.3797,6.99286-13.95819
		c7.33728-9.59979,14.67456-19.19965,22.01184-28.79944c7.42871-9.71936,14.85736-19.43872,22.28607-29.15808
		c1.0636-1.3916-1.1676-2.94757-2.3559-1.81775c-13.81207,13.13257-25.98102,27.9826-36.20416,44.06622
		c-2.93304,4.61438-5.68634,9.34198-8.29352,14.14941c-11.57446,15.14355-23.14893,30.28711-34.72339,45.43066
		c-2.95807,3.87018-5.91614,7.74042-8.87421,11.6106c11.008-19.3902,22.01593-38.7804,33.02393-58.17059
		c4.10535-7.23151,8.21075-14.46295,12.3161-21.69446c0.86871-1.53021-1.09338-2.91302-2.35583-1.81775
		c-12.89777,11.18951-24.60498,23.69061-34.99255,37.23999c-9.87018,12.87457-18.48889,26.70514-25.71881,41.22791
		c4.66467-14.85419,9.32928-29.70831,13.99396-44.5625c2.19611-6.99341,4.39221-13.98676,6.58838-20.98016
		c0.45221-1.44-1.47961-2.51306-2.50708-1.45941c-13.34229,13.68207-26.68457,27.36414-40.02692,41.0462
		c-3.82861,3.92615-7.65729,7.85229-11.48596,11.7785c-1.34882,1.38312,0.77051,3.50653,2.12134,2.12128
		c13.34229-13.68207,26.68457-27.36414,40.02686-41.0462l5.39203-5.52933c0.4321-0.44308,1.16736-0.00378,0.98193,0.58667
		c-6.86807,21.87067-13.73605,43.74139-20.60413,65.61203c-2.19611,6.99335-4.39227,13.98676-6.58838,20.9801
		c-0.58362,1.85846,2.25616,2.59961,2.89282,0.79755c5.6004-15.85162,12.81964-31.10846,21.48816-45.51276
		c8.66882-14.40472,18.76892-27.93475,30.13531-40.32288c3.72668-4.06168,7.59924-7.98581,11.58905-11.78754
		c0.31833-0.30331,0.81702,0.08832,0.59995,0.4707c-12.65527,22.2919-25.31058,44.58377-37.96585,66.87567
		c-4.10541,7.23151-8.21075,14.46301-12.3161,21.69446c-0.98224,1.73016,1.45148,3.00427,2.59039,1.51416
		c13.1897-17.25684,26.37939-34.51367,39.56909-51.77051c2.5921-3.39142,5.1842-6.78284,7.77631-10.17426
		c-3.46954,7.55859-6.56665,15.2879-9.22192,23.16736c-3.4364,10.19739-6.15594,20.62885-8.13849,31.20526
		c-0.24646,1.31476,1.46417,2.7301,2.50708,1.45941c3.79803-4.62775,7.59607-9.25549,11.39417-13.8833
		c1.89899-2.31384,3.79803-4.62775,5.69708-6.94159c1.21881-1.48502,3.35373-3.78461,4.73334-5.12155
		c0.34003-0.3295,0.67957-0.65952,1.01862-0.99008c4.83313-4.71185,9.55304-9.53888,14.18085-14.45251
		c-1.2193,7.57867-1.84576,15.25061-1.82172,22.92358c0.00745,2.37457,0.07959,4.74799,0.20789,7.11908
		c0.08221,1.51996,1.95239,1.99609,2.79517,0.75708c2.5174-3.70123,5.03485-7.40234,7.55225-11.10358
		c2.63916,7.68744,14.31781,11.62219,20.41022,5.40704c1.35254-1.37982-0.76703-3.50287-2.12134-2.12128
		c-5.38287,5.49133-16.46985,0.14655-15.79565-7.40723c0.14294-1.60236-2.03619-1.87311-2.79523-0.75708
		c-1.88831,2.77618-3.77658,5.55237-5.66489,8.32858c-0.47229,0.6944-1.57001,0.36499-1.57022-0.47479
		c-0.00238-8.96558,0.86545-17.91141,2.56732-26.70419C407.20718,399.23611,408.69821,397.60825,410.17014,395.96329z
		 M411.03085,381.05356c5.96729-17.25128,15.20715-33.42645,27.1842-47.21246c2.98273-3.43329,6.13409-6.72052,9.44196-9.84192
		c2.61969-2.47198,5.96948-5.94629,9.90356-5.84454c1.83734,0.04749,2.99146,1.466,2.84583,3.29816
		c-0.19354,2.43512-1.836,4.63947-3.0835,6.64557c-2.71307,4.36267-5.49689,8.6814-8.35046,12.95349
		c-11.46832,17.16974-24.05658,33.58331-37.66565,49.11127c-1.4303,1.63196-2.87811,3.24841-4.33057,4.86066
		C408.09433,390.3071,409.44363,385.64224,411.03085,381.05356z"/>
	<path class="st0" d="M730.89642,433.59848c-34.27313,1.45618-68.71411,2.9024-102.92365-0.48358
		c-17.00452-1.68304-33.65259-4.87866-50.1991-9.09784c-15.70343-4.00415-31.64093-8.31415-47.96545-8.35822
		c-14.15985-0.03821-28.65604,3.15625-40.25204,11.43457c1.23224-4.89429,2.46448-9.78864,3.69666-14.68298
		c0.48065-1.90924-2.20862-2.56622-2.89288-0.79749c-4.08978,10.57178-11.67151,19.58563-21.25513,25.5719
		c3.19409-18.28333,13.16821-34.47083,24.00171-49.25665c11.70245-15.9718,24.90463-30.97229,34.76248-48.22302
		c5.40137-9.45227,9.69342-19.59052,11.79938-30.30475c0.31689-1.61218-1.84229-2.69025-2.74158-1.15582
		c-14.62933,24.96106-36.07376,45.72772-61.38126,59.72821c-7.08618,3.92017-14.45978,7.29651-22.06165,10.08789
		c-1.79736,0.66003-1.02063,3.56049,0.79755,2.89282c13.81073-5.07129,26.90845-11.9917,38.86938-20.56006
		c12.01343-8.60596,22.89786-18.77643,32.21701-30.24927c2.65704-3.27106,5.17188-6.65198,7.56409-10.11789
		c0.22729-0.32932,0.72955-0.0708,0.59644,0.30655c-5.17816,14.67276-14.03528,27.87573-23.35495,40.31006
		c-11.88361,15.8551-25.05029,31.02032-34.32343,48.64337c-5.08075,9.65576-8.76251,19.95233-10.20581,30.79346
		c-0.1593,1.19629,1.37048,1.7774,2.25708,1.29517c7.10168-3.8624,13.22919-9.25842,18.00687-15.68332
		c0.29993-0.40335,0.93274-0.10098,0.81003,0.38647c-0.37299,1.48154-0.746,2.96307-1.11896,4.44461
		c-0.38226,1.51831,1.39453,2.41199,2.50708,1.45941c10.66547-9.13202,24.80338-12.84985,38.60422-13.27991
		c16.04761-0.50012,31.76788,3.48181,47.19513,7.42328c8.20825,2.09705,16.41833,4.17145,24.73981,5.77759
		c8.13495,1.57013,16.33807,2.7818,24.5705,3.70892c16.76691,1.88818,33.65045,2.55035,50.51624,2.57031
		c19.0658,0.02252,38.11945-0.77466,57.16425-1.5838C732.81976,436.51682,732.83002,433.51639,730.89642,433.59848z"/>
</svg>
