<svg xmlns="http://www.w3.org/2000/svg" viewBox="0 0 490 490" width="512" height="512"><path d="M245.001 0C156.458 0 84.424 71.987 84.424 160.472c0 85.04 145.93 315.146 152.142 324.9a10.002 10.002 0 0 0 16.869 0c6.212-9.754 152.141-239.861 152.141-324.9C405.576 71.987 333.542 0 245.001 0zm0 461.127c-13.207-21.363-40.009-65.587-66.549-114.588-48.429-89.418-74.027-153.758-74.027-186.067C104.424 83.015 167.487 20 245.001 20s140.575 63.015 140.575 140.472c0 32.309-25.599 96.649-74.027 186.067-26.54 49-53.342 93.225-66.548 114.588z"/><path d="M244.999 76.071c-41.884 0-75.959 33.149-75.959 73.894 0 40.744 34.075 73.891 75.959 73.891s75.959-33.147 75.959-73.891c0-40.745-34.075-73.894-75.959-73.894zm0 127.784c-30.855 0-55.959-24.175-55.959-53.891 0-29.717 25.104-53.894 55.959-53.894s55.959 24.177 55.959 53.894c0 29.716-25.103 53.891-55.959 53.891z"/></svg>